%TF.GenerationSoftware,KiCad,Pcbnew,9.0.2*%
%TF.CreationDate,2025-10-13T17:49:52-07:00*%
%TF.ProjectId,Edge-Card-9ch,45646765-2d43-4617-9264-2d3963682e6b,rev?*%
%TF.SameCoordinates,Original*%
%TF.FileFunction,Soldermask,Top*%
%TF.FilePolarity,Negative*%
%FSLAX46Y46*%
G04 Gerber Fmt 4.6, Leading zero omitted, Abs format (unit mm)*
G04 Created by KiCad (PCBNEW 9.0.2) date 2025-10-13 17:49:52*
%MOMM*%
%LPD*%
G01*
G04 APERTURE LIST*
%ADD10R,0.550000X2.800000*%
G04 APERTURE END LIST*
G36*
X173600000Y-101087300D02*
G01*
X174400000Y-101087300D01*
X174400000Y-103912700D01*
X173600000Y-103912700D01*
X173600000Y-101087300D01*
G37*
G36*
X187600000Y-101087300D02*
G01*
X188400000Y-101087300D01*
X188400000Y-103912700D01*
X187600000Y-103912700D01*
X187600000Y-101087300D01*
G37*
G36*
X189600000Y-101087300D02*
G01*
X190400000Y-101087300D01*
X190400000Y-103912700D01*
X189600000Y-103912700D01*
X189600000Y-101087300D01*
G37*
G36*
X177600000Y-101087300D02*
G01*
X178400000Y-101087300D01*
X178400000Y-103912700D01*
X177600000Y-103912700D01*
X177600000Y-101087300D01*
G37*
G36*
X179600000Y-101087300D02*
G01*
X180400000Y-101087300D01*
X180400000Y-103912700D01*
X179600000Y-103912700D01*
X179600000Y-101087300D01*
G37*
G36*
X175600000Y-101087300D02*
G01*
X176400000Y-101087300D01*
X176400000Y-103912700D01*
X175600000Y-103912700D01*
X175600000Y-101087300D01*
G37*
G36*
X183600000Y-101087300D02*
G01*
X184400000Y-101087300D01*
X184400000Y-103912700D01*
X183600000Y-103912700D01*
X183600000Y-101087300D01*
G37*
G36*
X181600000Y-101087300D02*
G01*
X182400000Y-101087300D01*
X182400000Y-103912700D01*
X181600000Y-103912700D01*
X181600000Y-101087300D01*
G37*
G36*
X185600000Y-101087300D02*
G01*
X186400000Y-101087300D01*
X186400000Y-103912700D01*
X185600000Y-103912700D01*
X185600000Y-101087300D01*
G37*
D10*
%TO.C,REF\u002A\u002A*%
X177400000Y-116000000D03*
X178200000Y-116000000D03*
X179000000Y-116000000D03*
X179800000Y-116000000D03*
X183800000Y-116000000D03*
X184600000Y-116000000D03*
X185400000Y-116000000D03*
X186200000Y-116000000D03*
X187000000Y-116000000D03*
%TD*%
M02*
