%TF.GenerationSoftware,KiCad,Pcbnew,9.0.2*%
%TF.CreationDate,2025-10-13T17:49:52-07:00*%
%TF.ProjectId,Edge-Card-9ch,45646765-2d43-4617-9264-2d3963682e6b,rev?*%
%TF.SameCoordinates,Original*%
%TF.FileFunction,Copper,L2,Bot*%
%TF.FilePolarity,Positive*%
%FSLAX46Y46*%
G04 Gerber Fmt 4.6, Leading zero omitted, Abs format (unit mm)*
G04 Created by KiCad (PCBNEW 9.0.2) date 2025-10-13 17:49:52*
%MOMM*%
%LPD*%
G01*
G04 APERTURE LIST*
%TA.AperFunction,ConnectorPad*%
%ADD10R,0.550000X2.800000*%
%TD*%
%TA.AperFunction,Conductor*%
%ADD11C,0.200000*%
%TD*%
G04 APERTURE END LIST*
%TA.AperFunction,Conductor*%
%TO.N,1*%
G36*
X173500000Y-101000000D02*
G01*
X174300000Y-101000000D01*
X174300000Y-103825400D01*
X173500000Y-103825400D01*
X173500000Y-101000000D01*
G37*
%TD.AperFunction*%
%TA.AperFunction,Conductor*%
%TO.N,13*%
G36*
X185500000Y-101000000D02*
G01*
X186300000Y-101000000D01*
X186300000Y-103825400D01*
X185500000Y-103825400D01*
X185500000Y-101000000D01*
G37*
%TD.AperFunction*%
%TA.AperFunction,Conductor*%
%TO.N,11*%
G36*
X183500000Y-101000000D02*
G01*
X184300000Y-101000000D01*
X184300000Y-103825400D01*
X183500000Y-103825400D01*
X183500000Y-101000000D01*
G37*
%TD.AperFunction*%
%TA.AperFunction,Conductor*%
%TO.N,7*%
G36*
X179500000Y-101000000D02*
G01*
X180300000Y-101000000D01*
X180300000Y-103825400D01*
X179500000Y-103825400D01*
X179500000Y-101000000D01*
G37*
%TD.AperFunction*%
%TA.AperFunction,Conductor*%
%TO.N,17*%
G36*
X189500000Y-101000000D02*
G01*
X190300000Y-101000000D01*
X190300000Y-103825400D01*
X189500000Y-103825400D01*
X189500000Y-101000000D01*
G37*
%TD.AperFunction*%
%TA.AperFunction,Conductor*%
%TO.N,1*%
G36*
X175500000Y-101000000D02*
G01*
X176300000Y-101000000D01*
X176300000Y-103825400D01*
X175500000Y-103825400D01*
X175500000Y-101000000D01*
G37*
%TD.AperFunction*%
%TA.AperFunction,Conductor*%
%TO.N,9*%
G36*
X181500000Y-101000000D02*
G01*
X182300000Y-101000000D01*
X182300000Y-103825400D01*
X181500000Y-103825400D01*
X181500000Y-101000000D01*
G37*
%TD.AperFunction*%
%TA.AperFunction,Conductor*%
%TO.N,6*%
G36*
X177500000Y-101000000D02*
G01*
X178300000Y-101000000D01*
X178300000Y-103825400D01*
X177500000Y-103825400D01*
X177500000Y-101000000D01*
G37*
%TD.AperFunction*%
%TA.AperFunction,Conductor*%
%TO.N,15*%
G36*
X187500000Y-101000000D02*
G01*
X188300000Y-101000000D01*
X188300000Y-103825400D01*
X187500000Y-103825400D01*
X187500000Y-101000000D01*
G37*
%TD.AperFunction*%
%TD*%
D10*
%TO.P,REF\u002A\u002A,2*%
%TO.N,N/C*%
X177400000Y-116000000D03*
%TO.P,REF\u002A\u002A,4*%
X178200000Y-116000000D03*
%TO.P,REF\u002A\u002A,6*%
%TO.N,6*%
X179000000Y-116000000D03*
%TO.P,REF\u002A\u002A,8*%
%TO.N,N/C*%
X179800000Y-116000000D03*
%TO.P,REF\u002A\u002A,10*%
X183800000Y-116000000D03*
%TO.P,REF\u002A\u002A,12*%
X184600000Y-116000000D03*
%TO.P,REF\u002A\u002A,14*%
X185400000Y-116000000D03*
%TO.P,REF\u002A\u002A,16*%
X186200000Y-116000000D03*
%TO.P,REF\u002A\u002A,18*%
X187000000Y-116000000D03*
%TD*%
D11*
%TO.N,1*%
X173900000Y-104912700D02*
X177300000Y-108312700D01*
%TO.N,15*%
X187900000Y-106412700D02*
X187900000Y-102912700D01*
%TO.N,6*%
X178900000Y-115912700D02*
X178900000Y-106412700D01*
%TO.N,1*%
X177300000Y-108312700D02*
X177300000Y-114987700D01*
X178100000Y-107612700D02*
X175900000Y-105412700D01*
%TO.N,17*%
X189900000Y-105912700D02*
X186900000Y-108912700D01*
%TO.N,9*%
X181700000Y-108737700D02*
X181700000Y-102912700D01*
%TO.N,13*%
X185900000Y-104912700D02*
X185900000Y-102912700D01*
X185300000Y-115912700D02*
X185300000Y-105512700D01*
%TO.N,11*%
X184100000Y-109637700D02*
X184500000Y-110037700D01*
%TO.N,15*%
X186100000Y-114987700D02*
X186100000Y-108212700D01*
%TO.N,9*%
X183700000Y-114987700D02*
X183700000Y-110737700D01*
%TO.N,17*%
X186900000Y-108912700D02*
X186900000Y-114987700D01*
%TO.N,6*%
X177900000Y-102912700D02*
X177900000Y-105412700D01*
%TO.N,11*%
X184500000Y-114987700D02*
X184500000Y-110037700D01*
%TO.N,7*%
X179700000Y-114987700D02*
X179700000Y-103112700D01*
%TO.N,13*%
X185300000Y-105512700D02*
X185900000Y-104912700D01*
%TO.N,1*%
X173900000Y-102412700D02*
X173900000Y-104912700D01*
%TO.N,11*%
X184100000Y-102912700D02*
X184100000Y-109637700D01*
%TO.N,15*%
X186100000Y-108212700D02*
X187900000Y-106412700D01*
%TO.N,9*%
X183700000Y-110737700D02*
X181700000Y-108737700D01*
%TO.N,17*%
X189900000Y-102912700D02*
X189900000Y-105912700D01*
%TO.N,6*%
X177900000Y-105412700D02*
X178900000Y-106412700D01*
%TO.N,1*%
X178100000Y-114987700D02*
X178100000Y-107612700D01*
X175900000Y-105412700D02*
X175900000Y-102412700D01*
%TD*%
%TA.AperFunction,NonConductor*%
G36*
X173105700Y-104139360D02*
G01*
X173112178Y-104145392D01*
X173192686Y-104225900D01*
X173237500Y-104251773D01*
X173253475Y-104268527D01*
X173272427Y-104281822D01*
X173277131Y-104293336D01*
X173285716Y-104302340D01*
X173290097Y-104325072D01*
X173298852Y-104346502D01*
X173299500Y-104359160D01*
X173299500Y-104530572D01*
X173279815Y-104597611D01*
X173227011Y-104643366D01*
X173157853Y-104653310D01*
X173094297Y-104624285D01*
X173072900Y-104600208D01*
X172921897Y-104377724D01*
X172912620Y-104348834D01*
X172901145Y-104320746D01*
X172902044Y-104315896D01*
X172900536Y-104311200D01*
X172900497Y-104308088D01*
X172900497Y-104233073D01*
X172920182Y-104166034D01*
X172972986Y-104120279D01*
X173042144Y-104110335D01*
X173105700Y-104139360D01*
G37*
%TD.AperFunction*%
%TA.AperFunction,NonConductor*%
G36*
X184923775Y-103882068D02*
G01*
X184948812Y-103885062D01*
X184956764Y-103891627D01*
X184966669Y-103894498D01*
X184983248Y-103913494D01*
X185002690Y-103929547D01*
X185008652Y-103942603D01*
X185012611Y-103947139D01*
X185013510Y-103953240D01*
X185019773Y-103966955D01*
X185029072Y-104001659D01*
X185033608Y-104018587D01*
X185066554Y-104075650D01*
X185099500Y-104132714D01*
X185192686Y-104225900D01*
X185237500Y-104251773D01*
X185285716Y-104302340D01*
X185299500Y-104359160D01*
X185299500Y-104612602D01*
X185279815Y-104679641D01*
X185263181Y-104700283D01*
X184912181Y-105051283D01*
X184850858Y-105084768D01*
X184781166Y-105079784D01*
X184725233Y-105037912D01*
X184700816Y-104972448D01*
X184700500Y-104963602D01*
X184700500Y-104165939D01*
X184702719Y-104155646D01*
X184701700Y-104148728D01*
X184708429Y-104129172D01*
X184711523Y-104114828D01*
X184714044Y-104109253D01*
X184766392Y-104018586D01*
X184782849Y-103957165D01*
X184787023Y-103947940D01*
X184803468Y-103928823D01*
X184816590Y-103907297D01*
X184825864Y-103902791D01*
X184832590Y-103894974D01*
X184856756Y-103887784D01*
X184879436Y-103876768D01*
X184889676Y-103877992D01*
X184899560Y-103875052D01*
X184923775Y-103882068D01*
G37*
%TD.AperFunction*%
%TA.AperFunction,NonConductor*%
G36*
X174948812Y-103885062D02*
G01*
X175002690Y-103929547D01*
X175019773Y-103966955D01*
X175029072Y-104001659D01*
X175033608Y-104018587D01*
X175066554Y-104075650D01*
X175099500Y-104132714D01*
X175192686Y-104225900D01*
X175237500Y-104251773D01*
X175285716Y-104302340D01*
X175299500Y-104359160D01*
X175299500Y-105163603D01*
X175279815Y-105230642D01*
X175227011Y-105276397D01*
X175157853Y-105286341D01*
X175094297Y-105257316D01*
X175087819Y-105251284D01*
X174536819Y-104700284D01*
X174503334Y-104638961D01*
X174500500Y-104612603D01*
X174500500Y-104359160D01*
X174520185Y-104292121D01*
X174562499Y-104251773D01*
X174607314Y-104225900D01*
X174700500Y-104132714D01*
X174766392Y-104018586D01*
X174780225Y-103966956D01*
X174816590Y-103907297D01*
X174879436Y-103876768D01*
X174948812Y-103885062D01*
G37*
%TD.AperFunction*%
%TA.AperFunction,NonConductor*%
G36*
X191442539Y-101520185D02*
G01*
X191488294Y-101572989D01*
X191499500Y-101624500D01*
X191499500Y-104308087D01*
X191479815Y-104375126D01*
X191478100Y-104377723D01*
X190727100Y-105484232D01*
X190673165Y-105528647D01*
X190603779Y-105536852D01*
X190540971Y-105506242D01*
X190504684Y-105446534D01*
X190500500Y-105414596D01*
X190500500Y-104359160D01*
X190520185Y-104292121D01*
X190562499Y-104251773D01*
X190607314Y-104225900D01*
X190700500Y-104132714D01*
X190766392Y-104018586D01*
X190800500Y-103891292D01*
X190800500Y-101624500D01*
X190820185Y-101557461D01*
X190872989Y-101511706D01*
X190924500Y-101500500D01*
X191375500Y-101500500D01*
X191442539Y-101520185D01*
G37*
%TD.AperFunction*%
%TA.AperFunction,NonConductor*%
G36*
X178907301Y-103880099D02*
G01*
X178935357Y-103880199D01*
X178941519Y-103884190D01*
X178948812Y-103885062D01*
X178970453Y-103902930D01*
X178994001Y-103918182D01*
X178999644Y-103927032D01*
X179002690Y-103929547D01*
X179006327Y-103937513D01*
X179012977Y-103947940D01*
X179017150Y-103957165D01*
X179033608Y-104018586D01*
X179085955Y-104109253D01*
X179088477Y-104114828D01*
X179099500Y-104165939D01*
X179099500Y-105463602D01*
X179079815Y-105530641D01*
X179027011Y-105576396D01*
X178957853Y-105586340D01*
X178894297Y-105557315D01*
X178887819Y-105551283D01*
X178536819Y-105200283D01*
X178503334Y-105138960D01*
X178500500Y-105112602D01*
X178500500Y-104359160D01*
X178520185Y-104292121D01*
X178562499Y-104251773D01*
X178607314Y-104225900D01*
X178700500Y-104132714D01*
X178766392Y-104018586D01*
X178780225Y-103966956D01*
X178794829Y-103942997D01*
X178806576Y-103917516D01*
X178812767Y-103913567D01*
X178816590Y-103907297D01*
X178841832Y-103895034D01*
X178865488Y-103879951D01*
X178872829Y-103879977D01*
X178879436Y-103876768D01*
X178907301Y-103880099D01*
G37*
%TD.AperFunction*%
%TA.AperFunction,NonConductor*%
G36*
X176948812Y-103885062D02*
G01*
X177002690Y-103929547D01*
X177019773Y-103966955D01*
X177029072Y-104001659D01*
X177033608Y-104018587D01*
X177066554Y-104075650D01*
X177099500Y-104132714D01*
X177192686Y-104225900D01*
X177237500Y-104251773D01*
X177285716Y-104302340D01*
X177299500Y-104359160D01*
X177299500Y-105326030D01*
X177299499Y-105326048D01*
X177299499Y-105491754D01*
X177299498Y-105491754D01*
X177299499Y-105491757D01*
X177340423Y-105644485D01*
X177360440Y-105679155D01*
X177376913Y-105747055D01*
X177354061Y-105813083D01*
X177299140Y-105856273D01*
X177229586Y-105862915D01*
X177167484Y-105830899D01*
X177165372Y-105828837D01*
X176536819Y-105200284D01*
X176503334Y-105138961D01*
X176500500Y-105112603D01*
X176500500Y-104359160D01*
X176520185Y-104292121D01*
X176562499Y-104251773D01*
X176607314Y-104225900D01*
X176700500Y-104132714D01*
X176766392Y-104018586D01*
X176780225Y-103966956D01*
X176816590Y-103907297D01*
X176879436Y-103876768D01*
X176948812Y-103885062D01*
G37*
%TD.AperFunction*%
%TA.AperFunction,NonConductor*%
G36*
X188948812Y-103885062D02*
G01*
X189002690Y-103929547D01*
X189019773Y-103966955D01*
X189029072Y-104001659D01*
X189033608Y-104018587D01*
X189066554Y-104075650D01*
X189099500Y-104132714D01*
X189192686Y-104225900D01*
X189237500Y-104251773D01*
X189285716Y-104302340D01*
X189299500Y-104359160D01*
X189299500Y-105612602D01*
X189279815Y-105679641D01*
X189263181Y-105700283D01*
X188712181Y-106251283D01*
X188650858Y-106284768D01*
X188581166Y-106279784D01*
X188525233Y-106237912D01*
X188500816Y-106172448D01*
X188500500Y-106163602D01*
X188500500Y-104359160D01*
X188520185Y-104292121D01*
X188562499Y-104251773D01*
X188607314Y-104225900D01*
X188700500Y-104132714D01*
X188766392Y-104018586D01*
X188780225Y-103966956D01*
X188816590Y-103907297D01*
X188879436Y-103876768D01*
X188948812Y-103885062D01*
G37*
%TD.AperFunction*%
%TA.AperFunction,NonConductor*%
G36*
X186948812Y-103885062D02*
G01*
X187002690Y-103929547D01*
X187019773Y-103966955D01*
X187029072Y-104001659D01*
X187033608Y-104018587D01*
X187066554Y-104075650D01*
X187099500Y-104132714D01*
X187192686Y-104225900D01*
X187237500Y-104251773D01*
X187285716Y-104302340D01*
X187299500Y-104359160D01*
X187299500Y-106112603D01*
X187279815Y-106179642D01*
X187263181Y-106200284D01*
X186112181Y-107351284D01*
X186050858Y-107384769D01*
X185981166Y-107379785D01*
X185925233Y-107337913D01*
X185900816Y-107272449D01*
X185900500Y-107263603D01*
X185900500Y-105812796D01*
X185920185Y-105745757D01*
X185936815Y-105725119D01*
X186258506Y-105403427D01*
X186258511Y-105403424D01*
X186268714Y-105393220D01*
X186268716Y-105393220D01*
X186380520Y-105281416D01*
X186409746Y-105230795D01*
X186438544Y-105180916D01*
X186438545Y-105180914D01*
X186459574Y-105144490D01*
X186459573Y-105144490D01*
X186459577Y-105144485D01*
X186500500Y-104991757D01*
X186500500Y-104833643D01*
X186500500Y-104359160D01*
X186520185Y-104292121D01*
X186562499Y-104251773D01*
X186607314Y-104225900D01*
X186700500Y-104132714D01*
X186766392Y-104018586D01*
X186780225Y-103966956D01*
X186816590Y-103907297D01*
X186879436Y-103876768D01*
X186948812Y-103885062D01*
G37*
%TD.AperFunction*%
%TA.AperFunction,NonConductor*%
G36*
X182948812Y-103885062D02*
G01*
X183002690Y-103929547D01*
X183019773Y-103966955D01*
X183029072Y-104001659D01*
X183033608Y-104018587D01*
X183066554Y-104075650D01*
X183099500Y-104132714D01*
X183192686Y-104225900D01*
X183291521Y-104282963D01*
X183299499Y-104287569D01*
X183306814Y-104291792D01*
X183407594Y-104318795D01*
X183467254Y-104355160D01*
X183497783Y-104418007D01*
X183499500Y-104438570D01*
X183499500Y-109388603D01*
X183479815Y-109455642D01*
X183427011Y-109501397D01*
X183357853Y-109511341D01*
X183294297Y-109482316D01*
X183287819Y-109476284D01*
X182336819Y-108525284D01*
X182303334Y-108463961D01*
X182300500Y-108437603D01*
X182300500Y-104438570D01*
X182320185Y-104371531D01*
X182372989Y-104325776D01*
X182392402Y-104318796D01*
X182493186Y-104291792D01*
X182607314Y-104225900D01*
X182700500Y-104132714D01*
X182766392Y-104018586D01*
X182780225Y-103966956D01*
X182816590Y-103907297D01*
X182879436Y-103876768D01*
X182948812Y-103885062D01*
G37*
%TD.AperFunction*%
%TA.AperFunction,NonConductor*%
G36*
X180916929Y-103881250D02*
G01*
X180948812Y-103885062D01*
X180951169Y-103887008D01*
X180954182Y-103887515D01*
X180977929Y-103909103D01*
X181002690Y-103929547D01*
X181004302Y-103933078D01*
X181005882Y-103934514D01*
X181019773Y-103966954D01*
X181029072Y-104001659D01*
X181033608Y-104018587D01*
X181053213Y-104052543D01*
X181082887Y-104103940D01*
X181099500Y-104165939D01*
X181099500Y-108651030D01*
X181099499Y-108651048D01*
X181099499Y-108816754D01*
X181099498Y-108816754D01*
X181099499Y-108816757D01*
X181140423Y-108969485D01*
X181140424Y-108969486D01*
X181153281Y-108991757D01*
X181153282Y-108991758D01*
X181219475Y-109106409D01*
X181219481Y-109106417D01*
X181338349Y-109225285D01*
X181338355Y-109225290D01*
X183063181Y-110950116D01*
X183096666Y-111011439D01*
X183099500Y-111037797D01*
X183099500Y-111799819D01*
X183079815Y-111866858D01*
X183027011Y-111912613D01*
X182957853Y-111922557D01*
X182898187Y-111896766D01*
X182830188Y-111842539D01*
X182765612Y-111791041D01*
X182544888Y-111663607D01*
X182307637Y-111570492D01*
X182307630Y-111570490D01*
X182059154Y-111513777D01*
X181805005Y-111494732D01*
X181804995Y-111494732D01*
X181550845Y-111513777D01*
X181302369Y-111570490D01*
X181302362Y-111570492D01*
X181065109Y-111663608D01*
X180844388Y-111791041D01*
X180645123Y-111949950D01*
X180645121Y-111949952D01*
X180515399Y-112089760D01*
X180455370Y-112125515D01*
X180385541Y-112123140D01*
X180328081Y-112083389D01*
X180301233Y-112018884D01*
X180300500Y-112005419D01*
X180300500Y-104438570D01*
X180320185Y-104371531D01*
X180372989Y-104325776D01*
X180392402Y-104318796D01*
X180493186Y-104291792D01*
X180607314Y-104225900D01*
X180700500Y-104132714D01*
X180766392Y-104018586D01*
X180780225Y-103966956D01*
X180781815Y-103964348D01*
X180781888Y-103961294D01*
X180799881Y-103934709D01*
X180816590Y-103907297D01*
X180819338Y-103905961D01*
X180821051Y-103903432D01*
X180850551Y-103890799D01*
X180879436Y-103876768D01*
X180882471Y-103877130D01*
X180885280Y-103875928D01*
X180916929Y-103881250D01*
G37*
%TD.AperFunction*%
%TA.AperFunction,NonConductor*%
G36*
X174695502Y-106558252D02*
G01*
X174704357Y-106566292D01*
X176663181Y-108525116D01*
X176696666Y-108586439D01*
X176699500Y-108612797D01*
X176699500Y-112304770D01*
X176679815Y-112371809D01*
X176627011Y-112417564D01*
X176557853Y-112427508D01*
X176494297Y-112398483D01*
X176481787Y-112385973D01*
X176438724Y-112336275D01*
X176276514Y-112195720D01*
X176276513Y-112195719D01*
X176167273Y-112125515D01*
X176095951Y-112079679D01*
X176095938Y-112079672D01*
X175900715Y-111990517D01*
X175694774Y-111930047D01*
X175694764Y-111930044D01*
X175503754Y-111902582D01*
X175482318Y-111899500D01*
X175482317Y-111899500D01*
X172499500Y-111899500D01*
X172432461Y-111879815D01*
X172386706Y-111827011D01*
X172375500Y-111775500D01*
X172375500Y-111244500D01*
X172395185Y-111177461D01*
X172447989Y-111131706D01*
X172499500Y-111120500D01*
X174982317Y-111120500D01*
X174982318Y-111120500D01*
X175152851Y-111095980D01*
X175194764Y-111089955D01*
X175194765Y-111089954D01*
X175194769Y-111089954D01*
X175400710Y-111029484D01*
X175400713Y-111029482D01*
X175400715Y-111029482D01*
X175595938Y-110940327D01*
X175595944Y-110940323D01*
X175595950Y-110940321D01*
X175776513Y-110824281D01*
X175938724Y-110683724D01*
X176079281Y-110521513D01*
X176195321Y-110340950D01*
X176195323Y-110340944D01*
X176195327Y-110340938D01*
X176284482Y-110145715D01*
X176284482Y-110145713D01*
X176284484Y-110145710D01*
X176344954Y-109939769D01*
X176375500Y-109727318D01*
X176375500Y-109667463D01*
X176378964Y-109649365D01*
X176375500Y-109601799D01*
X176375500Y-109554108D01*
X176370730Y-109536307D01*
X176369392Y-109517929D01*
X176353736Y-109472884D01*
X176341392Y-109426814D01*
X176332176Y-109410853D01*
X176326128Y-109393449D01*
X176299348Y-109353992D01*
X176275500Y-109312686D01*
X176270783Y-109307969D01*
X176255864Y-109289924D01*
X175827403Y-108658639D01*
X174514075Y-106723608D01*
X174492715Y-106657085D01*
X174510711Y-106589572D01*
X174562350Y-106542507D01*
X174631238Y-106530831D01*
X174695502Y-106558252D01*
G37*
%TD.AperFunction*%
%TA.AperFunction,NonConductor*%
G36*
X188981664Y-107782784D02*
G01*
X189037597Y-107824656D01*
X189062014Y-107890120D01*
X189047162Y-107958393D01*
X189040930Y-107968602D01*
X188144134Y-109289924D01*
X188129224Y-109307961D01*
X188124499Y-109312685D01*
X188102904Y-109350089D01*
X188102903Y-109350088D01*
X188100641Y-109354004D01*
X188073872Y-109393449D01*
X188067824Y-109410845D01*
X188061952Y-109421017D01*
X188061950Y-109421023D01*
X188058609Y-109426810D01*
X188058608Y-109426812D01*
X188047431Y-109468523D01*
X188044785Y-109477132D01*
X188030607Y-109517927D01*
X188030606Y-109517930D01*
X188030121Y-109524580D01*
X188030122Y-109524581D01*
X188029268Y-109536311D01*
X188024500Y-109554108D01*
X188024500Y-109601793D01*
X188024173Y-109606284D01*
X188021036Y-109649364D01*
X188022289Y-109655910D01*
X188024500Y-109679222D01*
X188024500Y-109727317D01*
X188055044Y-109939764D01*
X188055047Y-109939774D01*
X188115517Y-110145715D01*
X188204672Y-110340938D01*
X188204679Y-110340951D01*
X188320720Y-110521514D01*
X188461275Y-110683724D01*
X188546226Y-110757334D01*
X188623487Y-110824281D01*
X188752531Y-110907211D01*
X188804048Y-110940320D01*
X188804061Y-110940327D01*
X188999284Y-111029482D01*
X188999288Y-111029483D01*
X188999290Y-111029484D01*
X189205231Y-111089954D01*
X189205232Y-111089954D01*
X189205235Y-111089955D01*
X189268584Y-111099062D01*
X189417682Y-111120500D01*
X189459108Y-111120500D01*
X191900500Y-111120500D01*
X191967539Y-111140185D01*
X192013294Y-111192989D01*
X192024500Y-111244500D01*
X192024500Y-111775500D01*
X192004815Y-111842539D01*
X191952011Y-111888294D01*
X191900500Y-111899500D01*
X188917682Y-111899500D01*
X188705235Y-111930044D01*
X188705225Y-111930047D01*
X188499284Y-111990517D01*
X188304061Y-112079672D01*
X188304048Y-112079679D01*
X188123485Y-112195720D01*
X187961275Y-112336275D01*
X187820718Y-112498487D01*
X187728815Y-112641492D01*
X187676011Y-112687246D01*
X187606853Y-112697190D01*
X187543297Y-112668165D01*
X187505523Y-112609387D01*
X187500500Y-112574452D01*
X187500500Y-109212797D01*
X187520185Y-109145758D01*
X187536819Y-109125116D01*
X188172970Y-108488965D01*
X188850651Y-107811283D01*
X188911972Y-107777800D01*
X188981664Y-107782784D01*
G37*
%TD.AperFunction*%
M02*
