%TF.GenerationSoftware,KiCad,Pcbnew,9.0.2*%
%TF.CreationDate,2025-10-10T12:25:54-07:00*%
%TF.ProjectId,Muon-8ch-48.8mm-2mmSiPM,4d756f6e-2d38-4636-982d-34382e386d6d,rev?*%
%TF.SameCoordinates,Original*%
%TF.FileFunction,Copper,L3,Inr*%
%TF.FilePolarity,Positive*%
%FSLAX46Y46*%
G04 Gerber Fmt 4.6, Leading zero omitted, Abs format (unit mm)*
G04 Created by KiCad (PCBNEW 9.0.2) date 2025-10-10 12:25:54*
%MOMM*%
%LPD*%
G01*
G04 APERTURE LIST*
G04 Aperture macros list*
%AMRoundRect*
0 Rectangle with rounded corners*
0 $1 Rounding radius*
0 $2 $3 $4 $5 $6 $7 $8 $9 X,Y pos of 4 corners*
0 Add a 4 corners polygon primitive as box body*
4,1,4,$2,$3,$4,$5,$6,$7,$8,$9,$2,$3,0*
0 Add four circle primitives for the rounded corners*
1,1,$1+$1,$2,$3*
1,1,$1+$1,$4,$5*
1,1,$1+$1,$6,$7*
1,1,$1+$1,$8,$9*
0 Add four rect primitives between the rounded corners*
20,1,$1+$1,$2,$3,$4,$5,0*
20,1,$1+$1,$4,$5,$6,$7,0*
20,1,$1+$1,$6,$7,$8,$9,0*
20,1,$1+$1,$8,$9,$2,$3,0*%
G04 Aperture macros list end*
%TA.AperFunction,ComponentPad*%
%ADD10RoundRect,0.250000X-0.725000X0.600000X-0.725000X-0.600000X0.725000X-0.600000X0.725000X0.600000X0*%
%TD*%
%TA.AperFunction,ComponentPad*%
%ADD11O,1.950000X1.700000*%
%TD*%
%TA.AperFunction,ComponentPad*%
%ADD12C,2.540000*%
%TD*%
%TA.AperFunction,ViaPad*%
%ADD13C,0.600000*%
%TD*%
G04 APERTURE END LIST*
D10*
%TO.N,GND*%
%TO.C,REF\u002A\u002A*%
X-3000000Y-93000000D03*
D11*
%TO.N,TEMP_OUT*%
X-3000000Y-95500000D03*
%TO.N,HV*%
X-3000000Y-98000000D03*
%TD*%
D12*
%TO.N,*%
%TO.C,REF\u002A\u002A*%
X-2700000Y-63650000D03*
X-2700000Y-80950000D03*
%TD*%
D13*
%TO.N,K0*%
X8000000Y-61000000D03*
X-3000000Y-67000000D03*
X34500000Y-83500000D03*
%TO.N,A0*%
X35012149Y-82885421D03*
X3000000Y-62000000D03*
%TO.N,K1*%
X-3000000Y-68000000D03*
X85241685Y-85401000D03*
X8000000Y-65500000D03*
%TO.N,A1*%
X86000000Y-85802000D03*
X2000000Y-66100000D03*
%TO.N,K2*%
X134216761Y-86203000D03*
X-3000000Y-69000000D03*
X8000000Y-70500000D03*
%TO.N,A2*%
X8000000Y-73000000D03*
X135000000Y-86604000D03*
%TO.N,K3*%
X182878955Y-86901711D03*
X8000000Y-75500000D03*
X-3000000Y-70000000D03*
%TO.N,A3*%
X8600000Y-78000000D03*
X183500000Y-87406000D03*
%TO.N,K4*%
X-3000000Y-72500000D03*
X231500000Y-87807000D03*
X8000000Y-80500000D03*
%TO.N,A4*%
X232500000Y-88208000D03*
X8000000Y-82500000D03*
%TO.N,K5*%
X8000000Y-85500000D03*
X-3000000Y-73500000D03*
X280200157Y-88609000D03*
%TO.N,A5*%
X8000000Y-88000000D03*
X281000000Y-89010000D03*
%TO.N,K6*%
X329321295Y-89388488D03*
X8000000Y-90500000D03*
X-2972776Y-74527224D03*
%TO.N,A6*%
X330000000Y-89812000D03*
X8000000Y-93000000D03*
%TO.N,K7*%
X8000000Y-95500000D03*
X377682258Y-90213000D03*
X-3000000Y-75500000D03*
%TO.N,A7*%
X2500000Y-90500000D03*
X378500000Y-90500000D03*
%TD*%
M02*
