%TF.GenerationSoftware,KiCad,Pcbnew,9.0.2*%
%TF.CreationDate,2025-09-02T16:46:01-07:00*%
%TF.ProjectId,32_S13360_6025PS_SiPMs_3x3_inch,33325f53-3133-4333-9630-5f3630323550,rev?*%
%TF.SameCoordinates,Original*%
%TF.FileFunction,Legend,Top*%
%TF.FilePolarity,Positive*%
%FSLAX46Y46*%
G04 Gerber Fmt 4.6, Leading zero omitted, Abs format (unit mm)*
G04 Created by KiCad (PCBNEW 9.0.2) date 2025-09-02 16:46:01*
%MOMM*%
%LPD*%
G01*
G04 APERTURE LIST*
%ADD10C,0.150000*%
%ADD11C,0.100000*%
%ADD12C,0.120000*%
%ADD13C,0.127000*%
%ADD14C,0.200000*%
G04 APERTURE END LIST*
D10*
X78479160Y-128212256D02*
X78622017Y-128259875D01*
X78622017Y-128259875D02*
X78860112Y-128259875D01*
X78860112Y-128259875D02*
X78955350Y-128212256D01*
X78955350Y-128212256D02*
X79002969Y-128164636D01*
X79002969Y-128164636D02*
X79050588Y-128069398D01*
X79050588Y-128069398D02*
X79050588Y-127974160D01*
X79050588Y-127974160D02*
X79002969Y-127878922D01*
X79002969Y-127878922D02*
X78955350Y-127831303D01*
X78955350Y-127831303D02*
X78860112Y-127783684D01*
X78860112Y-127783684D02*
X78669636Y-127736065D01*
X78669636Y-127736065D02*
X78574398Y-127688446D01*
X78574398Y-127688446D02*
X78526779Y-127640827D01*
X78526779Y-127640827D02*
X78479160Y-127545589D01*
X78479160Y-127545589D02*
X78479160Y-127450351D01*
X78479160Y-127450351D02*
X78526779Y-127355113D01*
X78526779Y-127355113D02*
X78574398Y-127307494D01*
X78574398Y-127307494D02*
X78669636Y-127259875D01*
X78669636Y-127259875D02*
X78907731Y-127259875D01*
X78907731Y-127259875D02*
X79050588Y-127307494D01*
X80002969Y-128259875D02*
X79431541Y-128259875D01*
X79717255Y-128259875D02*
X79717255Y-127259875D01*
X79717255Y-127259875D02*
X79622017Y-127402732D01*
X79622017Y-127402732D02*
X79526779Y-127497970D01*
X79526779Y-127497970D02*
X79431541Y-127545589D01*
X80860112Y-127593208D02*
X80860112Y-128259875D01*
X80622017Y-127212256D02*
X80383922Y-127926541D01*
X80383922Y-127926541D02*
X81002969Y-127926541D01*
X81907731Y-128259875D02*
X81336303Y-128259875D01*
X81622017Y-128259875D02*
X81622017Y-127259875D01*
X81622017Y-127259875D02*
X81526779Y-127402732D01*
X81526779Y-127402732D02*
X81431541Y-127497970D01*
X81431541Y-127497970D02*
X81336303Y-127545589D01*
X82764874Y-127259875D02*
X82574398Y-127259875D01*
X82574398Y-127259875D02*
X82479160Y-127307494D01*
X82479160Y-127307494D02*
X82431541Y-127355113D01*
X82431541Y-127355113D02*
X82336303Y-127497970D01*
X82336303Y-127497970D02*
X82288684Y-127688446D01*
X82288684Y-127688446D02*
X82288684Y-128069398D01*
X82288684Y-128069398D02*
X82336303Y-128164636D01*
X82336303Y-128164636D02*
X82383922Y-128212256D01*
X82383922Y-128212256D02*
X82479160Y-128259875D01*
X82479160Y-128259875D02*
X82669636Y-128259875D01*
X82669636Y-128259875D02*
X82764874Y-128212256D01*
X82764874Y-128212256D02*
X82812493Y-128164636D01*
X82812493Y-128164636D02*
X82860112Y-128069398D01*
X82860112Y-128069398D02*
X82860112Y-127831303D01*
X82860112Y-127831303D02*
X82812493Y-127736065D01*
X82812493Y-127736065D02*
X82764874Y-127688446D01*
X82764874Y-127688446D02*
X82669636Y-127640827D01*
X82669636Y-127640827D02*
X82479160Y-127640827D01*
X82479160Y-127640827D02*
X82383922Y-127688446D01*
X82383922Y-127688446D02*
X82336303Y-127736065D01*
X82336303Y-127736065D02*
X82288684Y-127831303D01*
X83479160Y-127259875D02*
X83574398Y-127259875D01*
X83574398Y-127259875D02*
X83669636Y-127307494D01*
X83669636Y-127307494D02*
X83717255Y-127355113D01*
X83717255Y-127355113D02*
X83764874Y-127450351D01*
X83764874Y-127450351D02*
X83812493Y-127640827D01*
X83812493Y-127640827D02*
X83812493Y-127878922D01*
X83812493Y-127878922D02*
X83764874Y-128069398D01*
X83764874Y-128069398D02*
X83717255Y-128164636D01*
X83717255Y-128164636D02*
X83669636Y-128212256D01*
X83669636Y-128212256D02*
X83574398Y-128259875D01*
X83574398Y-128259875D02*
X83479160Y-128259875D01*
X83479160Y-128259875D02*
X83383922Y-128212256D01*
X83383922Y-128212256D02*
X83336303Y-128164636D01*
X83336303Y-128164636D02*
X83288684Y-128069398D01*
X83288684Y-128069398D02*
X83241065Y-127878922D01*
X83241065Y-127878922D02*
X83241065Y-127640827D01*
X83241065Y-127640827D02*
X83288684Y-127450351D01*
X83288684Y-127450351D02*
X83336303Y-127355113D01*
X83336303Y-127355113D02*
X83383922Y-127307494D01*
X83383922Y-127307494D02*
X83479160Y-127259875D01*
X84241065Y-127878922D02*
X85002970Y-127878922D01*
X85907731Y-127259875D02*
X85717255Y-127259875D01*
X85717255Y-127259875D02*
X85622017Y-127307494D01*
X85622017Y-127307494D02*
X85574398Y-127355113D01*
X85574398Y-127355113D02*
X85479160Y-127497970D01*
X85479160Y-127497970D02*
X85431541Y-127688446D01*
X85431541Y-127688446D02*
X85431541Y-128069398D01*
X85431541Y-128069398D02*
X85479160Y-128164636D01*
X85479160Y-128164636D02*
X85526779Y-128212256D01*
X85526779Y-128212256D02*
X85622017Y-128259875D01*
X85622017Y-128259875D02*
X85812493Y-128259875D01*
X85812493Y-128259875D02*
X85907731Y-128212256D01*
X85907731Y-128212256D02*
X85955350Y-128164636D01*
X85955350Y-128164636D02*
X86002969Y-128069398D01*
X86002969Y-128069398D02*
X86002969Y-127831303D01*
X86002969Y-127831303D02*
X85955350Y-127736065D01*
X85955350Y-127736065D02*
X85907731Y-127688446D01*
X85907731Y-127688446D02*
X85812493Y-127640827D01*
X85812493Y-127640827D02*
X85622017Y-127640827D01*
X85622017Y-127640827D02*
X85526779Y-127688446D01*
X85526779Y-127688446D02*
X85479160Y-127736065D01*
X85479160Y-127736065D02*
X85431541Y-127831303D01*
X86622017Y-127259875D02*
X86717255Y-127259875D01*
X86717255Y-127259875D02*
X86812493Y-127307494D01*
X86812493Y-127307494D02*
X86860112Y-127355113D01*
X86860112Y-127355113D02*
X86907731Y-127450351D01*
X86907731Y-127450351D02*
X86955350Y-127640827D01*
X86955350Y-127640827D02*
X86955350Y-127878922D01*
X86955350Y-127878922D02*
X86907731Y-128069398D01*
X86907731Y-128069398D02*
X86860112Y-128164636D01*
X86860112Y-128164636D02*
X86812493Y-128212256D01*
X86812493Y-128212256D02*
X86717255Y-128259875D01*
X86717255Y-128259875D02*
X86622017Y-128259875D01*
X86622017Y-128259875D02*
X86526779Y-128212256D01*
X86526779Y-128212256D02*
X86479160Y-128164636D01*
X86479160Y-128164636D02*
X86431541Y-128069398D01*
X86431541Y-128069398D02*
X86383922Y-127878922D01*
X86383922Y-127878922D02*
X86383922Y-127640827D01*
X86383922Y-127640827D02*
X86431541Y-127450351D01*
X86431541Y-127450351D02*
X86479160Y-127355113D01*
X86479160Y-127355113D02*
X86526779Y-127307494D01*
X86526779Y-127307494D02*
X86622017Y-127259875D01*
X87336303Y-127355113D02*
X87383922Y-127307494D01*
X87383922Y-127307494D02*
X87479160Y-127259875D01*
X87479160Y-127259875D02*
X87717255Y-127259875D01*
X87717255Y-127259875D02*
X87812493Y-127307494D01*
X87812493Y-127307494D02*
X87860112Y-127355113D01*
X87860112Y-127355113D02*
X87907731Y-127450351D01*
X87907731Y-127450351D02*
X87907731Y-127545589D01*
X87907731Y-127545589D02*
X87860112Y-127688446D01*
X87860112Y-127688446D02*
X87288684Y-128259875D01*
X87288684Y-128259875D02*
X87907731Y-128259875D01*
X88812493Y-127259875D02*
X88336303Y-127259875D01*
X88336303Y-127259875D02*
X88288684Y-127736065D01*
X88288684Y-127736065D02*
X88336303Y-127688446D01*
X88336303Y-127688446D02*
X88431541Y-127640827D01*
X88431541Y-127640827D02*
X88669636Y-127640827D01*
X88669636Y-127640827D02*
X88764874Y-127688446D01*
X88764874Y-127688446D02*
X88812493Y-127736065D01*
X88812493Y-127736065D02*
X88860112Y-127831303D01*
X88860112Y-127831303D02*
X88860112Y-128069398D01*
X88860112Y-128069398D02*
X88812493Y-128164636D01*
X88812493Y-128164636D02*
X88764874Y-128212256D01*
X88764874Y-128212256D02*
X88669636Y-128259875D01*
X88669636Y-128259875D02*
X88431541Y-128259875D01*
X88431541Y-128259875D02*
X88336303Y-128212256D01*
X88336303Y-128212256D02*
X88288684Y-128164636D01*
X89288684Y-128259875D02*
X89288684Y-127259875D01*
X89288684Y-127736065D02*
X89860112Y-127736065D01*
X89860112Y-128259875D02*
X89860112Y-127259875D01*
X90288684Y-128212256D02*
X90431541Y-128259875D01*
X90431541Y-128259875D02*
X90669636Y-128259875D01*
X90669636Y-128259875D02*
X90764874Y-128212256D01*
X90764874Y-128212256D02*
X90812493Y-128164636D01*
X90812493Y-128164636D02*
X90860112Y-128069398D01*
X90860112Y-128069398D02*
X90860112Y-127974160D01*
X90860112Y-127974160D02*
X90812493Y-127878922D01*
X90812493Y-127878922D02*
X90764874Y-127831303D01*
X90764874Y-127831303D02*
X90669636Y-127783684D01*
X90669636Y-127783684D02*
X90479160Y-127736065D01*
X90479160Y-127736065D02*
X90383922Y-127688446D01*
X90383922Y-127688446D02*
X90336303Y-127640827D01*
X90336303Y-127640827D02*
X90288684Y-127545589D01*
X90288684Y-127545589D02*
X90288684Y-127450351D01*
X90288684Y-127450351D02*
X90336303Y-127355113D01*
X90336303Y-127355113D02*
X90383922Y-127307494D01*
X90383922Y-127307494D02*
X90479160Y-127259875D01*
X90479160Y-127259875D02*
X90717255Y-127259875D01*
X90717255Y-127259875D02*
X90860112Y-127307494D01*
X78431541Y-128869819D02*
X79050588Y-128869819D01*
X79050588Y-128869819D02*
X78717255Y-129250771D01*
X78717255Y-129250771D02*
X78860112Y-129250771D01*
X78860112Y-129250771D02*
X78955350Y-129298390D01*
X78955350Y-129298390D02*
X79002969Y-129346009D01*
X79002969Y-129346009D02*
X79050588Y-129441247D01*
X79050588Y-129441247D02*
X79050588Y-129679342D01*
X79050588Y-129679342D02*
X79002969Y-129774580D01*
X79002969Y-129774580D02*
X78955350Y-129822200D01*
X78955350Y-129822200D02*
X78860112Y-129869819D01*
X78860112Y-129869819D02*
X78574398Y-129869819D01*
X78574398Y-129869819D02*
X78479160Y-129822200D01*
X78479160Y-129822200D02*
X78431541Y-129774580D01*
X79431541Y-128965057D02*
X79479160Y-128917438D01*
X79479160Y-128917438D02*
X79574398Y-128869819D01*
X79574398Y-128869819D02*
X79812493Y-128869819D01*
X79812493Y-128869819D02*
X79907731Y-128917438D01*
X79907731Y-128917438D02*
X79955350Y-128965057D01*
X79955350Y-128965057D02*
X80002969Y-129060295D01*
X80002969Y-129060295D02*
X80002969Y-129155533D01*
X80002969Y-129155533D02*
X79955350Y-129298390D01*
X79955350Y-129298390D02*
X79383922Y-129869819D01*
X79383922Y-129869819D02*
X80002969Y-129869819D01*
X81145827Y-129822200D02*
X81288684Y-129869819D01*
X81288684Y-129869819D02*
X81526779Y-129869819D01*
X81526779Y-129869819D02*
X81622017Y-129822200D01*
X81622017Y-129822200D02*
X81669636Y-129774580D01*
X81669636Y-129774580D02*
X81717255Y-129679342D01*
X81717255Y-129679342D02*
X81717255Y-129584104D01*
X81717255Y-129584104D02*
X81669636Y-129488866D01*
X81669636Y-129488866D02*
X81622017Y-129441247D01*
X81622017Y-129441247D02*
X81526779Y-129393628D01*
X81526779Y-129393628D02*
X81336303Y-129346009D01*
X81336303Y-129346009D02*
X81241065Y-129298390D01*
X81241065Y-129298390D02*
X81193446Y-129250771D01*
X81193446Y-129250771D02*
X81145827Y-129155533D01*
X81145827Y-129155533D02*
X81145827Y-129060295D01*
X81145827Y-129060295D02*
X81193446Y-128965057D01*
X81193446Y-128965057D02*
X81241065Y-128917438D01*
X81241065Y-128917438D02*
X81336303Y-128869819D01*
X81336303Y-128869819D02*
X81574398Y-128869819D01*
X81574398Y-128869819D02*
X81717255Y-128917438D01*
X82145827Y-129869819D02*
X82145827Y-129203152D01*
X82145827Y-128869819D02*
X82098208Y-128917438D01*
X82098208Y-128917438D02*
X82145827Y-128965057D01*
X82145827Y-128965057D02*
X82193446Y-128917438D01*
X82193446Y-128917438D02*
X82145827Y-128869819D01*
X82145827Y-128869819D02*
X82145827Y-128965057D01*
X82622017Y-129869819D02*
X82622017Y-128869819D01*
X82622017Y-128869819D02*
X83002969Y-128869819D01*
X83002969Y-128869819D02*
X83098207Y-128917438D01*
X83098207Y-128917438D02*
X83145826Y-128965057D01*
X83145826Y-128965057D02*
X83193445Y-129060295D01*
X83193445Y-129060295D02*
X83193445Y-129203152D01*
X83193445Y-129203152D02*
X83145826Y-129298390D01*
X83145826Y-129298390D02*
X83098207Y-129346009D01*
X83098207Y-129346009D02*
X83002969Y-129393628D01*
X83002969Y-129393628D02*
X82622017Y-129393628D01*
X83622017Y-129869819D02*
X83622017Y-128869819D01*
X83622017Y-128869819D02*
X83955350Y-129584104D01*
X83955350Y-129584104D02*
X84288683Y-128869819D01*
X84288683Y-128869819D02*
X84288683Y-129869819D01*
X85860112Y-129346009D02*
X86002969Y-129393628D01*
X86002969Y-129393628D02*
X86050588Y-129441247D01*
X86050588Y-129441247D02*
X86098207Y-129536485D01*
X86098207Y-129536485D02*
X86098207Y-129679342D01*
X86098207Y-129679342D02*
X86050588Y-129774580D01*
X86050588Y-129774580D02*
X86002969Y-129822200D01*
X86002969Y-129822200D02*
X85907731Y-129869819D01*
X85907731Y-129869819D02*
X85526779Y-129869819D01*
X85526779Y-129869819D02*
X85526779Y-128869819D01*
X85526779Y-128869819D02*
X85860112Y-128869819D01*
X85860112Y-128869819D02*
X85955350Y-128917438D01*
X85955350Y-128917438D02*
X86002969Y-128965057D01*
X86002969Y-128965057D02*
X86050588Y-129060295D01*
X86050588Y-129060295D02*
X86050588Y-129155533D01*
X86050588Y-129155533D02*
X86002969Y-129250771D01*
X86002969Y-129250771D02*
X85955350Y-129298390D01*
X85955350Y-129298390D02*
X85860112Y-129346009D01*
X85860112Y-129346009D02*
X85526779Y-129346009D01*
X86669636Y-129869819D02*
X86574398Y-129822200D01*
X86574398Y-129822200D02*
X86526779Y-129774580D01*
X86526779Y-129774580D02*
X86479160Y-129679342D01*
X86479160Y-129679342D02*
X86479160Y-129393628D01*
X86479160Y-129393628D02*
X86526779Y-129298390D01*
X86526779Y-129298390D02*
X86574398Y-129250771D01*
X86574398Y-129250771D02*
X86669636Y-129203152D01*
X86669636Y-129203152D02*
X86812493Y-129203152D01*
X86812493Y-129203152D02*
X86907731Y-129250771D01*
X86907731Y-129250771D02*
X86955350Y-129298390D01*
X86955350Y-129298390D02*
X87002969Y-129393628D01*
X87002969Y-129393628D02*
X87002969Y-129679342D01*
X87002969Y-129679342D02*
X86955350Y-129774580D01*
X86955350Y-129774580D02*
X86907731Y-129822200D01*
X86907731Y-129822200D02*
X86812493Y-129869819D01*
X86812493Y-129869819D02*
X86669636Y-129869819D01*
X87860112Y-129869819D02*
X87860112Y-129346009D01*
X87860112Y-129346009D02*
X87812493Y-129250771D01*
X87812493Y-129250771D02*
X87717255Y-129203152D01*
X87717255Y-129203152D02*
X87526779Y-129203152D01*
X87526779Y-129203152D02*
X87431541Y-129250771D01*
X87860112Y-129822200D02*
X87764874Y-129869819D01*
X87764874Y-129869819D02*
X87526779Y-129869819D01*
X87526779Y-129869819D02*
X87431541Y-129822200D01*
X87431541Y-129822200D02*
X87383922Y-129726961D01*
X87383922Y-129726961D02*
X87383922Y-129631723D01*
X87383922Y-129631723D02*
X87431541Y-129536485D01*
X87431541Y-129536485D02*
X87526779Y-129488866D01*
X87526779Y-129488866D02*
X87764874Y-129488866D01*
X87764874Y-129488866D02*
X87860112Y-129441247D01*
X88336303Y-129869819D02*
X88336303Y-129203152D01*
X88336303Y-129393628D02*
X88383922Y-129298390D01*
X88383922Y-129298390D02*
X88431541Y-129250771D01*
X88431541Y-129250771D02*
X88526779Y-129203152D01*
X88526779Y-129203152D02*
X88622017Y-129203152D01*
X89383922Y-129869819D02*
X89383922Y-128869819D01*
X89383922Y-129822200D02*
X89288684Y-129869819D01*
X89288684Y-129869819D02*
X89098208Y-129869819D01*
X89098208Y-129869819D02*
X89002970Y-129822200D01*
X89002970Y-129822200D02*
X88955351Y-129774580D01*
X88955351Y-129774580D02*
X88907732Y-129679342D01*
X88907732Y-129679342D02*
X88907732Y-129393628D01*
X88907732Y-129393628D02*
X88955351Y-129298390D01*
X88955351Y-129298390D02*
X89002970Y-129250771D01*
X89002970Y-129250771D02*
X89098208Y-129203152D01*
X89098208Y-129203152D02*
X89288684Y-129203152D01*
X89288684Y-129203152D02*
X89383922Y-129250771D01*
X90526780Y-129203152D02*
X90764875Y-129869819D01*
X90764875Y-129869819D02*
X91002970Y-129203152D01*
X91336304Y-128965057D02*
X91383923Y-128917438D01*
X91383923Y-128917438D02*
X91479161Y-128869819D01*
X91479161Y-128869819D02*
X91717256Y-128869819D01*
X91717256Y-128869819D02*
X91812494Y-128917438D01*
X91812494Y-128917438D02*
X91860113Y-128965057D01*
X91860113Y-128965057D02*
X91907732Y-129060295D01*
X91907732Y-129060295D02*
X91907732Y-129155533D01*
X91907732Y-129155533D02*
X91860113Y-129298390D01*
X91860113Y-129298390D02*
X91288685Y-129869819D01*
X91288685Y-129869819D02*
X91907732Y-129869819D01*
D11*
X189950000Y-92520000D02*
G75*
G02*
X113750000Y-92520000I-38100000J0D01*
G01*
X113750000Y-92520000D02*
G75*
G02*
X189950000Y-92520000I38100000J0D01*
G01*
D10*
X110064819Y-99091427D02*
X110064819Y-98424761D01*
X110064819Y-98424761D02*
X111064819Y-98853332D01*
X110064819Y-97615237D02*
X110064819Y-97805713D01*
X110064819Y-97805713D02*
X110112438Y-97900951D01*
X110112438Y-97900951D02*
X110160057Y-97948570D01*
X110160057Y-97948570D02*
X110302914Y-98043808D01*
X110302914Y-98043808D02*
X110493390Y-98091427D01*
X110493390Y-98091427D02*
X110874342Y-98091427D01*
X110874342Y-98091427D02*
X110969580Y-98043808D01*
X110969580Y-98043808D02*
X111017200Y-97996189D01*
X111017200Y-97996189D02*
X111064819Y-97900951D01*
X111064819Y-97900951D02*
X111064819Y-97710475D01*
X111064819Y-97710475D02*
X111017200Y-97615237D01*
X111017200Y-97615237D02*
X110969580Y-97567618D01*
X110969580Y-97567618D02*
X110874342Y-97519999D01*
X110874342Y-97519999D02*
X110636247Y-97519999D01*
X110636247Y-97519999D02*
X110541009Y-97567618D01*
X110541009Y-97567618D02*
X110493390Y-97615237D01*
X110493390Y-97615237D02*
X110445771Y-97710475D01*
X110445771Y-97710475D02*
X110445771Y-97900951D01*
X110445771Y-97900951D02*
X110493390Y-97996189D01*
X110493390Y-97996189D02*
X110541009Y-98043808D01*
X110541009Y-98043808D02*
X110636247Y-98091427D01*
X110969580Y-97091427D02*
X111017200Y-97043808D01*
X111017200Y-97043808D02*
X111064819Y-97091427D01*
X111064819Y-97091427D02*
X111017200Y-97139046D01*
X111017200Y-97139046D02*
X110969580Y-97091427D01*
X110969580Y-97091427D02*
X111064819Y-97091427D01*
X110160057Y-96662856D02*
X110112438Y-96615237D01*
X110112438Y-96615237D02*
X110064819Y-96519999D01*
X110064819Y-96519999D02*
X110064819Y-96281904D01*
X110064819Y-96281904D02*
X110112438Y-96186666D01*
X110112438Y-96186666D02*
X110160057Y-96139047D01*
X110160057Y-96139047D02*
X110255295Y-96091428D01*
X110255295Y-96091428D02*
X110350533Y-96091428D01*
X110350533Y-96091428D02*
X110493390Y-96139047D01*
X110493390Y-96139047D02*
X111064819Y-96710475D01*
X111064819Y-96710475D02*
X111064819Y-96091428D01*
X111064819Y-95662856D02*
X110398152Y-95662856D01*
X110493390Y-95662856D02*
X110445771Y-95615237D01*
X110445771Y-95615237D02*
X110398152Y-95519999D01*
X110398152Y-95519999D02*
X110398152Y-95377142D01*
X110398152Y-95377142D02*
X110445771Y-95281904D01*
X110445771Y-95281904D02*
X110541009Y-95234285D01*
X110541009Y-95234285D02*
X111064819Y-95234285D01*
X110541009Y-95234285D02*
X110445771Y-95186666D01*
X110445771Y-95186666D02*
X110398152Y-95091428D01*
X110398152Y-95091428D02*
X110398152Y-94948571D01*
X110398152Y-94948571D02*
X110445771Y-94853332D01*
X110445771Y-94853332D02*
X110541009Y-94805713D01*
X110541009Y-94805713D02*
X111064819Y-94805713D01*
X111064819Y-94329523D02*
X110398152Y-94329523D01*
X110493390Y-94329523D02*
X110445771Y-94281904D01*
X110445771Y-94281904D02*
X110398152Y-94186666D01*
X110398152Y-94186666D02*
X110398152Y-94043809D01*
X110398152Y-94043809D02*
X110445771Y-93948571D01*
X110445771Y-93948571D02*
X110541009Y-93900952D01*
X110541009Y-93900952D02*
X111064819Y-93900952D01*
X110541009Y-93900952D02*
X110445771Y-93853333D01*
X110445771Y-93853333D02*
X110398152Y-93758095D01*
X110398152Y-93758095D02*
X110398152Y-93615238D01*
X110398152Y-93615238D02*
X110445771Y-93519999D01*
X110445771Y-93519999D02*
X110541009Y-93472380D01*
X110541009Y-93472380D02*
X111064819Y-93472380D01*
X110017200Y-91520000D02*
X111302914Y-92377142D01*
X110064819Y-90519999D02*
X110064819Y-89900952D01*
X110064819Y-89900952D02*
X110445771Y-90234285D01*
X110445771Y-90234285D02*
X110445771Y-90091428D01*
X110445771Y-90091428D02*
X110493390Y-89996190D01*
X110493390Y-89996190D02*
X110541009Y-89948571D01*
X110541009Y-89948571D02*
X110636247Y-89900952D01*
X110636247Y-89900952D02*
X110874342Y-89900952D01*
X110874342Y-89900952D02*
X110969580Y-89948571D01*
X110969580Y-89948571D02*
X111017200Y-89996190D01*
X111017200Y-89996190D02*
X111064819Y-90091428D01*
X111064819Y-90091428D02*
X111064819Y-90377142D01*
X111064819Y-90377142D02*
X111017200Y-90472380D01*
X111017200Y-90472380D02*
X110969580Y-90519999D01*
X111064819Y-88710475D02*
X110398152Y-88710475D01*
X110064819Y-88710475D02*
X110112438Y-88758094D01*
X110112438Y-88758094D02*
X110160057Y-88710475D01*
X110160057Y-88710475D02*
X110112438Y-88662856D01*
X110112438Y-88662856D02*
X110064819Y-88710475D01*
X110064819Y-88710475D02*
X110160057Y-88710475D01*
X110398152Y-88234285D02*
X111064819Y-88234285D01*
X110493390Y-88234285D02*
X110445771Y-88186666D01*
X110445771Y-88186666D02*
X110398152Y-88091428D01*
X110398152Y-88091428D02*
X110398152Y-87948571D01*
X110398152Y-87948571D02*
X110445771Y-87853333D01*
X110445771Y-87853333D02*
X110541009Y-87805714D01*
X110541009Y-87805714D02*
X111064819Y-87805714D01*
X111017200Y-86900952D02*
X111064819Y-86996190D01*
X111064819Y-86996190D02*
X111064819Y-87186666D01*
X111064819Y-87186666D02*
X111017200Y-87281904D01*
X111017200Y-87281904D02*
X110969580Y-87329523D01*
X110969580Y-87329523D02*
X110874342Y-87377142D01*
X110874342Y-87377142D02*
X110588628Y-87377142D01*
X110588628Y-87377142D02*
X110493390Y-87329523D01*
X110493390Y-87329523D02*
X110445771Y-87281904D01*
X110445771Y-87281904D02*
X110398152Y-87186666D01*
X110398152Y-87186666D02*
X110398152Y-86996190D01*
X110398152Y-86996190D02*
X110445771Y-86900952D01*
X111064819Y-86472380D02*
X110064819Y-86472380D01*
X111064819Y-86043809D02*
X110541009Y-86043809D01*
X110541009Y-86043809D02*
X110445771Y-86091428D01*
X110445771Y-86091428D02*
X110398152Y-86186666D01*
X110398152Y-86186666D02*
X110398152Y-86329523D01*
X110398152Y-86329523D02*
X110445771Y-86424761D01*
X110445771Y-86424761D02*
X110493390Y-86472380D01*
D11*
X151350000Y-54420000D02*
X111173580Y-54420000D01*
X111173580Y-130620000D02*
X151350000Y-130620000D01*
X111760000Y-54420000D02*
X111760000Y-130620000D01*
X111760000Y-54420000D02*
X112346421Y-55546504D01*
X111760000Y-54420000D02*
X111173579Y-55546504D01*
X111760000Y-130620000D02*
X111173579Y-129493496D01*
X111760000Y-130620000D02*
X112346421Y-129493496D01*
D10*
X88004819Y-67633333D02*
X87528628Y-67966666D01*
X88004819Y-68204761D02*
X87004819Y-68204761D01*
X87004819Y-68204761D02*
X87004819Y-67823809D01*
X87004819Y-67823809D02*
X87052438Y-67728571D01*
X87052438Y-67728571D02*
X87100057Y-67680952D01*
X87100057Y-67680952D02*
X87195295Y-67633333D01*
X87195295Y-67633333D02*
X87338152Y-67633333D01*
X87338152Y-67633333D02*
X87433390Y-67680952D01*
X87433390Y-67680952D02*
X87481009Y-67728571D01*
X87481009Y-67728571D02*
X87528628Y-67823809D01*
X87528628Y-67823809D02*
X87528628Y-68204761D01*
X87481009Y-67204761D02*
X87481009Y-66871428D01*
X88004819Y-66728571D02*
X88004819Y-67204761D01*
X88004819Y-67204761D02*
X87004819Y-67204761D01*
X87004819Y-67204761D02*
X87004819Y-66728571D01*
X87481009Y-65966666D02*
X87481009Y-66299999D01*
X88004819Y-66299999D02*
X87004819Y-66299999D01*
X87004819Y-66299999D02*
X87004819Y-65823809D01*
X87004819Y-65299999D02*
X87242914Y-65299999D01*
X87147676Y-65538094D02*
X87242914Y-65299999D01*
X87242914Y-65299999D02*
X87147676Y-65061904D01*
X87433390Y-65442856D02*
X87242914Y-65299999D01*
X87242914Y-65299999D02*
X87433390Y-65157142D01*
X87004819Y-64538094D02*
X87242914Y-64538094D01*
X87147676Y-64776189D02*
X87242914Y-64538094D01*
X87242914Y-64538094D02*
X87147676Y-64299999D01*
X87433390Y-64680951D02*
X87242914Y-64538094D01*
X87242914Y-64538094D02*
X87433390Y-64395237D01*
X103304819Y-87853333D02*
X102828628Y-88186666D01*
X103304819Y-88424761D02*
X102304819Y-88424761D01*
X102304819Y-88424761D02*
X102304819Y-88043809D01*
X102304819Y-88043809D02*
X102352438Y-87948571D01*
X102352438Y-87948571D02*
X102400057Y-87900952D01*
X102400057Y-87900952D02*
X102495295Y-87853333D01*
X102495295Y-87853333D02*
X102638152Y-87853333D01*
X102638152Y-87853333D02*
X102733390Y-87900952D01*
X102733390Y-87900952D02*
X102781009Y-87948571D01*
X102781009Y-87948571D02*
X102828628Y-88043809D01*
X102828628Y-88043809D02*
X102828628Y-88424761D01*
X102781009Y-87424761D02*
X102781009Y-87091428D01*
X103304819Y-86948571D02*
X103304819Y-87424761D01*
X103304819Y-87424761D02*
X102304819Y-87424761D01*
X102304819Y-87424761D02*
X102304819Y-86948571D01*
X102781009Y-86186666D02*
X102781009Y-86519999D01*
X103304819Y-86519999D02*
X102304819Y-86519999D01*
X102304819Y-86519999D02*
X102304819Y-86043809D01*
X102304819Y-85519999D02*
X102542914Y-85519999D01*
X102447676Y-85758094D02*
X102542914Y-85519999D01*
X102542914Y-85519999D02*
X102447676Y-85281904D01*
X102733390Y-85662856D02*
X102542914Y-85519999D01*
X102542914Y-85519999D02*
X102733390Y-85377142D01*
X102304819Y-84758094D02*
X102542914Y-84758094D01*
X102447676Y-84996189D02*
X102542914Y-84758094D01*
X102542914Y-84758094D02*
X102447676Y-84519999D01*
X102733390Y-84900951D02*
X102542914Y-84758094D01*
X102542914Y-84758094D02*
X102733390Y-84615237D01*
X101902334Y-63504077D02*
X101435649Y-62837384D01*
X101102303Y-63504077D02*
X101102303Y-62104022D01*
X101102303Y-62104022D02*
X101635657Y-62104022D01*
X101635657Y-62104022D02*
X101768996Y-62170691D01*
X101768996Y-62170691D02*
X101835665Y-62237360D01*
X101835665Y-62237360D02*
X101902334Y-62370699D01*
X101902334Y-62370699D02*
X101902334Y-62570707D01*
X101902334Y-62570707D02*
X101835665Y-62704045D01*
X101835665Y-62704045D02*
X101768996Y-62770715D01*
X101768996Y-62770715D02*
X101635657Y-62837384D01*
X101635657Y-62837384D02*
X101102303Y-62837384D01*
X102502358Y-62770715D02*
X102969043Y-62770715D01*
X103169051Y-63504077D02*
X102502358Y-63504077D01*
X102502358Y-63504077D02*
X102502358Y-62104022D01*
X102502358Y-62104022D02*
X103169051Y-62104022D01*
X104235759Y-62770715D02*
X103769074Y-62770715D01*
X103769074Y-63504077D02*
X103769074Y-62104022D01*
X103769074Y-62104022D02*
X104435767Y-62104022D01*
X105169129Y-62104022D02*
X105169129Y-62437368D01*
X104835782Y-62304030D02*
X105169129Y-62437368D01*
X105169129Y-62437368D02*
X105502475Y-62304030D01*
X104969121Y-62704045D02*
X105169129Y-62437368D01*
X105169129Y-62437368D02*
X105369137Y-62704045D01*
X106235838Y-62104022D02*
X106235838Y-62437368D01*
X105902491Y-62304030D02*
X106235838Y-62437368D01*
X106235838Y-62437368D02*
X106569184Y-62304030D01*
X106035830Y-62704045D02*
X106235838Y-62437368D01*
X106235838Y-62437368D02*
X106435846Y-62704045D01*
X103504819Y-120503333D02*
X103028628Y-120836666D01*
X103504819Y-121074761D02*
X102504819Y-121074761D01*
X102504819Y-121074761D02*
X102504819Y-120693809D01*
X102504819Y-120693809D02*
X102552438Y-120598571D01*
X102552438Y-120598571D02*
X102600057Y-120550952D01*
X102600057Y-120550952D02*
X102695295Y-120503333D01*
X102695295Y-120503333D02*
X102838152Y-120503333D01*
X102838152Y-120503333D02*
X102933390Y-120550952D01*
X102933390Y-120550952D02*
X102981009Y-120598571D01*
X102981009Y-120598571D02*
X103028628Y-120693809D01*
X103028628Y-120693809D02*
X103028628Y-121074761D01*
X102981009Y-120074761D02*
X102981009Y-119741428D01*
X103504819Y-119598571D02*
X103504819Y-120074761D01*
X103504819Y-120074761D02*
X102504819Y-120074761D01*
X102504819Y-120074761D02*
X102504819Y-119598571D01*
X102981009Y-118836666D02*
X102981009Y-119169999D01*
X103504819Y-119169999D02*
X102504819Y-119169999D01*
X102504819Y-119169999D02*
X102504819Y-118693809D01*
X102504819Y-118169999D02*
X102742914Y-118169999D01*
X102647676Y-118408094D02*
X102742914Y-118169999D01*
X102742914Y-118169999D02*
X102647676Y-117931904D01*
X102933390Y-118312856D02*
X102742914Y-118169999D01*
X102742914Y-118169999D02*
X102933390Y-118027142D01*
X102504819Y-117408094D02*
X102742914Y-117408094D01*
X102647676Y-117646189D02*
X102742914Y-117408094D01*
X102742914Y-117408094D02*
X102647676Y-117169999D01*
X102933390Y-117550951D02*
X102742914Y-117408094D01*
X102742914Y-117408094D02*
X102933390Y-117265237D01*
X109534819Y-98312856D02*
X109534819Y-98789046D01*
X109534819Y-98789046D02*
X108534819Y-98789046D01*
X109534819Y-97979522D02*
X108534819Y-97979522D01*
X108534819Y-97979522D02*
X109249104Y-97646189D01*
X109249104Y-97646189D02*
X108534819Y-97312856D01*
X108534819Y-97312856D02*
X109534819Y-97312856D01*
X109534819Y-96789046D02*
X109534819Y-96598570D01*
X109534819Y-96598570D02*
X109487200Y-96503332D01*
X109487200Y-96503332D02*
X109439580Y-96455713D01*
X109439580Y-96455713D02*
X109296723Y-96360475D01*
X109296723Y-96360475D02*
X109106247Y-96312856D01*
X109106247Y-96312856D02*
X108725295Y-96312856D01*
X108725295Y-96312856D02*
X108630057Y-96360475D01*
X108630057Y-96360475D02*
X108582438Y-96408094D01*
X108582438Y-96408094D02*
X108534819Y-96503332D01*
X108534819Y-96503332D02*
X108534819Y-96693808D01*
X108534819Y-96693808D02*
X108582438Y-96789046D01*
X108582438Y-96789046D02*
X108630057Y-96836665D01*
X108630057Y-96836665D02*
X108725295Y-96884284D01*
X108725295Y-96884284D02*
X108963390Y-96884284D01*
X108963390Y-96884284D02*
X109058628Y-96836665D01*
X109058628Y-96836665D02*
X109106247Y-96789046D01*
X109106247Y-96789046D02*
X109153866Y-96693808D01*
X109153866Y-96693808D02*
X109153866Y-96503332D01*
X109153866Y-96503332D02*
X109106247Y-96408094D01*
X109106247Y-96408094D02*
X109058628Y-96360475D01*
X109058628Y-96360475D02*
X108963390Y-96312856D01*
X108868152Y-95455713D02*
X109534819Y-95455713D01*
X108487200Y-95693808D02*
X109201485Y-95931903D01*
X109201485Y-95931903D02*
X109201485Y-95312856D01*
X108534819Y-94741427D02*
X108534819Y-94646189D01*
X108534819Y-94646189D02*
X108582438Y-94550951D01*
X108582438Y-94550951D02*
X108630057Y-94503332D01*
X108630057Y-94503332D02*
X108725295Y-94455713D01*
X108725295Y-94455713D02*
X108915771Y-94408094D01*
X108915771Y-94408094D02*
X109153866Y-94408094D01*
X109153866Y-94408094D02*
X109344342Y-94455713D01*
X109344342Y-94455713D02*
X109439580Y-94503332D01*
X109439580Y-94503332D02*
X109487200Y-94550951D01*
X109487200Y-94550951D02*
X109534819Y-94646189D01*
X109534819Y-94646189D02*
X109534819Y-94741427D01*
X109534819Y-94741427D02*
X109487200Y-94836665D01*
X109487200Y-94836665D02*
X109439580Y-94884284D01*
X109439580Y-94884284D02*
X109344342Y-94931903D01*
X109344342Y-94931903D02*
X109153866Y-94979522D01*
X109153866Y-94979522D02*
X108915771Y-94979522D01*
X108915771Y-94979522D02*
X108725295Y-94931903D01*
X108725295Y-94931903D02*
X108630057Y-94884284D01*
X108630057Y-94884284D02*
X108582438Y-94836665D01*
X108582438Y-94836665D02*
X108534819Y-94741427D01*
X108630057Y-94027141D02*
X108582438Y-93979522D01*
X108582438Y-93979522D02*
X108534819Y-93884284D01*
X108534819Y-93884284D02*
X108534819Y-93646189D01*
X108534819Y-93646189D02*
X108582438Y-93550951D01*
X108582438Y-93550951D02*
X108630057Y-93503332D01*
X108630057Y-93503332D02*
X108725295Y-93455713D01*
X108725295Y-93455713D02*
X108820533Y-93455713D01*
X108820533Y-93455713D02*
X108963390Y-93503332D01*
X108963390Y-93503332D02*
X109534819Y-94074760D01*
X109534819Y-94074760D02*
X109534819Y-93455713D01*
X109534819Y-92503332D02*
X109534819Y-93074760D01*
X109534819Y-92789046D02*
X108534819Y-92789046D01*
X108534819Y-92789046D02*
X108677676Y-92884284D01*
X108677676Y-92884284D02*
X108772914Y-92979522D01*
X108772914Y-92979522D02*
X108820533Y-93074760D01*
X109630057Y-91408094D02*
X109582438Y-91503332D01*
X109582438Y-91503332D02*
X109487200Y-91598570D01*
X109487200Y-91598570D02*
X109344342Y-91741427D01*
X109344342Y-91741427D02*
X109296723Y-91836665D01*
X109296723Y-91836665D02*
X109296723Y-91931903D01*
X109534819Y-91884284D02*
X109487200Y-91979522D01*
X109487200Y-91979522D02*
X109391961Y-92074760D01*
X109391961Y-92074760D02*
X109201485Y-92122379D01*
X109201485Y-92122379D02*
X108868152Y-92122379D01*
X108868152Y-92122379D02*
X108677676Y-92074760D01*
X108677676Y-92074760D02*
X108582438Y-91979522D01*
X108582438Y-91979522D02*
X108534819Y-91884284D01*
X108534819Y-91884284D02*
X108534819Y-91693808D01*
X108534819Y-91693808D02*
X108582438Y-91598570D01*
X108582438Y-91598570D02*
X108677676Y-91503332D01*
X108677676Y-91503332D02*
X108868152Y-91455713D01*
X108868152Y-91455713D02*
X109201485Y-91455713D01*
X109201485Y-91455713D02*
X109391961Y-91503332D01*
X109391961Y-91503332D02*
X109487200Y-91598570D01*
X109487200Y-91598570D02*
X109534819Y-91693808D01*
X109534819Y-91693808D02*
X109534819Y-91884284D01*
X109011009Y-90693808D02*
X109058628Y-90550951D01*
X109058628Y-90550951D02*
X109106247Y-90503332D01*
X109106247Y-90503332D02*
X109201485Y-90455713D01*
X109201485Y-90455713D02*
X109344342Y-90455713D01*
X109344342Y-90455713D02*
X109439580Y-90503332D01*
X109439580Y-90503332D02*
X109487200Y-90550951D01*
X109487200Y-90550951D02*
X109534819Y-90646189D01*
X109534819Y-90646189D02*
X109534819Y-91027141D01*
X109534819Y-91027141D02*
X108534819Y-91027141D01*
X108534819Y-91027141D02*
X108534819Y-90693808D01*
X108534819Y-90693808D02*
X108582438Y-90598570D01*
X108582438Y-90598570D02*
X108630057Y-90550951D01*
X108630057Y-90550951D02*
X108725295Y-90503332D01*
X108725295Y-90503332D02*
X108820533Y-90503332D01*
X108820533Y-90503332D02*
X108915771Y-90550951D01*
X108915771Y-90550951D02*
X108963390Y-90598570D01*
X108963390Y-90598570D02*
X109011009Y-90693808D01*
X109011009Y-90693808D02*
X109011009Y-91027141D01*
X109534819Y-90027141D02*
X108534819Y-90027141D01*
X109534819Y-89550951D02*
X108534819Y-89550951D01*
X108534819Y-89550951D02*
X109249104Y-89217618D01*
X109249104Y-89217618D02*
X108534819Y-88884285D01*
X108534819Y-88884285D02*
X109534819Y-88884285D01*
X108582438Y-87884285D02*
X108534819Y-87979523D01*
X108534819Y-87979523D02*
X108534819Y-88122380D01*
X108534819Y-88122380D02*
X108582438Y-88265237D01*
X108582438Y-88265237D02*
X108677676Y-88360475D01*
X108677676Y-88360475D02*
X108772914Y-88408094D01*
X108772914Y-88408094D02*
X108963390Y-88455713D01*
X108963390Y-88455713D02*
X109106247Y-88455713D01*
X109106247Y-88455713D02*
X109296723Y-88408094D01*
X109296723Y-88408094D02*
X109391961Y-88360475D01*
X109391961Y-88360475D02*
X109487200Y-88265237D01*
X109487200Y-88265237D02*
X109534819Y-88122380D01*
X109534819Y-88122380D02*
X109534819Y-88027142D01*
X109534819Y-88027142D02*
X109487200Y-87884285D01*
X109487200Y-87884285D02*
X109439580Y-87836666D01*
X109439580Y-87836666D02*
X109106247Y-87836666D01*
X109106247Y-87836666D02*
X109106247Y-88027142D01*
X109153866Y-87408094D02*
X109153866Y-86646190D01*
X109534819Y-86169999D02*
X108534819Y-86169999D01*
X108534819Y-86169999D02*
X109534819Y-85598571D01*
X109534819Y-85598571D02*
X108534819Y-85598571D01*
X108534819Y-84931904D02*
X108534819Y-84741428D01*
X108534819Y-84741428D02*
X108582438Y-84646190D01*
X108582438Y-84646190D02*
X108677676Y-84550952D01*
X108677676Y-84550952D02*
X108868152Y-84503333D01*
X108868152Y-84503333D02*
X109201485Y-84503333D01*
X109201485Y-84503333D02*
X109391961Y-84550952D01*
X109391961Y-84550952D02*
X109487200Y-84646190D01*
X109487200Y-84646190D02*
X109534819Y-84741428D01*
X109534819Y-84741428D02*
X109534819Y-84931904D01*
X109534819Y-84931904D02*
X109487200Y-85027142D01*
X109487200Y-85027142D02*
X109391961Y-85122380D01*
X109391961Y-85122380D02*
X109201485Y-85169999D01*
X109201485Y-85169999D02*
X108868152Y-85169999D01*
X108868152Y-85169999D02*
X108677676Y-85122380D01*
X108677676Y-85122380D02*
X108582438Y-85027142D01*
X108582438Y-85027142D02*
X108534819Y-84931904D01*
X109534819Y-84074761D02*
X108534819Y-84074761D01*
X108534819Y-84074761D02*
X108534819Y-83693809D01*
X108534819Y-83693809D02*
X108582438Y-83598571D01*
X108582438Y-83598571D02*
X108630057Y-83550952D01*
X108630057Y-83550952D02*
X108725295Y-83503333D01*
X108725295Y-83503333D02*
X108868152Y-83503333D01*
X108868152Y-83503333D02*
X108963390Y-83550952D01*
X108963390Y-83550952D02*
X109011009Y-83598571D01*
X109011009Y-83598571D02*
X109058628Y-83693809D01*
X109058628Y-83693809D02*
X109058628Y-84074761D01*
X109011009Y-82741428D02*
X109058628Y-82598571D01*
X109058628Y-82598571D02*
X109106247Y-82550952D01*
X109106247Y-82550952D02*
X109201485Y-82503333D01*
X109201485Y-82503333D02*
X109344342Y-82503333D01*
X109344342Y-82503333D02*
X109439580Y-82550952D01*
X109439580Y-82550952D02*
X109487200Y-82598571D01*
X109487200Y-82598571D02*
X109534819Y-82693809D01*
X109534819Y-82693809D02*
X109534819Y-83074761D01*
X109534819Y-83074761D02*
X108534819Y-83074761D01*
X108534819Y-83074761D02*
X108534819Y-82741428D01*
X108534819Y-82741428D02*
X108582438Y-82646190D01*
X108582438Y-82646190D02*
X108630057Y-82598571D01*
X108630057Y-82598571D02*
X108725295Y-82550952D01*
X108725295Y-82550952D02*
X108820533Y-82550952D01*
X108820533Y-82550952D02*
X108915771Y-82598571D01*
X108915771Y-82598571D02*
X108963390Y-82646190D01*
X108963390Y-82646190D02*
X109011009Y-82741428D01*
X109011009Y-82741428D02*
X109011009Y-83074761D01*
X88154819Y-105533333D02*
X87678628Y-105866666D01*
X88154819Y-106104761D02*
X87154819Y-106104761D01*
X87154819Y-106104761D02*
X87154819Y-105723809D01*
X87154819Y-105723809D02*
X87202438Y-105628571D01*
X87202438Y-105628571D02*
X87250057Y-105580952D01*
X87250057Y-105580952D02*
X87345295Y-105533333D01*
X87345295Y-105533333D02*
X87488152Y-105533333D01*
X87488152Y-105533333D02*
X87583390Y-105580952D01*
X87583390Y-105580952D02*
X87631009Y-105628571D01*
X87631009Y-105628571D02*
X87678628Y-105723809D01*
X87678628Y-105723809D02*
X87678628Y-106104761D01*
X87631009Y-105104761D02*
X87631009Y-104771428D01*
X88154819Y-104628571D02*
X88154819Y-105104761D01*
X88154819Y-105104761D02*
X87154819Y-105104761D01*
X87154819Y-105104761D02*
X87154819Y-104628571D01*
X87631009Y-103866666D02*
X87631009Y-104199999D01*
X88154819Y-104199999D02*
X87154819Y-104199999D01*
X87154819Y-104199999D02*
X87154819Y-103723809D01*
X87154819Y-103199999D02*
X87392914Y-103199999D01*
X87297676Y-103438094D02*
X87392914Y-103199999D01*
X87392914Y-103199999D02*
X87297676Y-102961904D01*
X87583390Y-103342856D02*
X87392914Y-103199999D01*
X87392914Y-103199999D02*
X87583390Y-103057142D01*
X87154819Y-102438094D02*
X87392914Y-102438094D01*
X87297676Y-102676189D02*
X87392914Y-102438094D01*
X87392914Y-102438094D02*
X87297676Y-102199999D01*
X87583390Y-102580951D02*
X87392914Y-102438094D01*
X87392914Y-102438094D02*
X87583390Y-102295237D01*
D12*
%TO.C,REF\u002A\u002A*%
X138290000Y-119600000D02*
X138290000Y-120700000D01*
X138290000Y-119600000D02*
X139390000Y-119600000D01*
X138290000Y-126400000D02*
X138290000Y-125400000D01*
X139390000Y-126400000D02*
X138290000Y-126400000D01*
X143990000Y-119600000D02*
X145090000Y-119600000D01*
X143990000Y-126400000D02*
X145090000Y-126400000D01*
X145090000Y-119600000D02*
X145090000Y-120700000D01*
X145090000Y-126400000D02*
X145090000Y-125300000D01*
X158610000Y-78960000D02*
X158610000Y-80060000D01*
X158610000Y-78960000D02*
X159710000Y-78960000D01*
X158610000Y-85760000D02*
X158610000Y-84760000D01*
X159710000Y-85760000D02*
X158610000Y-85760000D01*
X164310000Y-78960000D02*
X165410000Y-78960000D01*
X164310000Y-85760000D02*
X165410000Y-85760000D01*
X165410000Y-78960000D02*
X165410000Y-80060000D01*
X165410000Y-85760000D02*
X165410000Y-84660000D01*
X158610000Y-89120000D02*
X158610000Y-90220000D01*
X158610000Y-89120000D02*
X159710000Y-89120000D01*
X158610000Y-95920000D02*
X158610000Y-94920000D01*
X159710000Y-95920000D02*
X158610000Y-95920000D01*
X164310000Y-89120000D02*
X165410000Y-89120000D01*
X164310000Y-95920000D02*
X165410000Y-95920000D01*
X165410000Y-89120000D02*
X165410000Y-90220000D01*
X165410000Y-95920000D02*
X165410000Y-94820000D01*
X168770000Y-89120000D02*
X168770000Y-90220000D01*
X168770000Y-89120000D02*
X169870000Y-89120000D01*
X168770000Y-95920000D02*
X168770000Y-94920000D01*
X169870000Y-95920000D02*
X168770000Y-95920000D01*
X174470000Y-89120000D02*
X175570000Y-89120000D01*
X174470000Y-95920000D02*
X175570000Y-95920000D01*
X175570000Y-89120000D02*
X175570000Y-90220000D01*
X175570000Y-95920000D02*
X175570000Y-94820000D01*
X138290000Y-99280000D02*
X138290000Y-100380000D01*
X138290000Y-99280000D02*
X139390000Y-99280000D01*
X138290000Y-106080000D02*
X138290000Y-105080000D01*
X139390000Y-106080000D02*
X138290000Y-106080000D01*
X143990000Y-99280000D02*
X145090000Y-99280000D01*
X143990000Y-106080000D02*
X145090000Y-106080000D01*
X145090000Y-99280000D02*
X145090000Y-100380000D01*
X145090000Y-106080000D02*
X145090000Y-104980000D01*
X128130000Y-109440000D02*
X128130000Y-110540000D01*
X128130000Y-109440000D02*
X129230000Y-109440000D01*
X128130000Y-116240000D02*
X128130000Y-115240000D01*
X129230000Y-116240000D02*
X128130000Y-116240000D01*
X133830000Y-109440000D02*
X134930000Y-109440000D01*
X133830000Y-116240000D02*
X134930000Y-116240000D01*
X134930000Y-109440000D02*
X134930000Y-110540000D01*
X134930000Y-116240000D02*
X134930000Y-115140000D01*
X178930000Y-99280000D02*
X178930000Y-100380000D01*
X178930000Y-99280000D02*
X180030000Y-99280000D01*
X178930000Y-106080000D02*
X178930000Y-105080000D01*
X180030000Y-106080000D02*
X178930000Y-106080000D01*
X184630000Y-99280000D02*
X185730000Y-99280000D01*
X184630000Y-106080000D02*
X185730000Y-106080000D01*
X185730000Y-99280000D02*
X185730000Y-100380000D01*
X185730000Y-106080000D02*
X185730000Y-104980000D01*
X138290000Y-109440000D02*
X138290000Y-110540000D01*
X138290000Y-109440000D02*
X139390000Y-109440000D01*
X138290000Y-116240000D02*
X138290000Y-115240000D01*
X139390000Y-116240000D02*
X138290000Y-116240000D01*
X143990000Y-109440000D02*
X145090000Y-109440000D01*
X143990000Y-116240000D02*
X145090000Y-116240000D01*
X145090000Y-109440000D02*
X145090000Y-110540000D01*
X145090000Y-116240000D02*
X145090000Y-115140000D01*
X148450000Y-78960000D02*
X148450000Y-80060000D01*
X148450000Y-78960000D02*
X149550000Y-78960000D01*
X148450000Y-85760000D02*
X148450000Y-84760000D01*
X149550000Y-85760000D02*
X148450000Y-85760000D01*
X154150000Y-78960000D02*
X155250000Y-78960000D01*
X154150000Y-85760000D02*
X155250000Y-85760000D01*
X155250000Y-78960000D02*
X155250000Y-80060000D01*
X155250000Y-85760000D02*
X155250000Y-84660000D01*
X138290000Y-89120000D02*
X138290000Y-90220000D01*
X138290000Y-89120000D02*
X139390000Y-89120000D01*
X138290000Y-95920000D02*
X138290000Y-94920000D01*
X139390000Y-95920000D02*
X138290000Y-95920000D01*
X143990000Y-89120000D02*
X145090000Y-89120000D01*
X143990000Y-95920000D02*
X145090000Y-95920000D01*
X145090000Y-89120000D02*
X145090000Y-90220000D01*
X145090000Y-95920000D02*
X145090000Y-94820000D01*
X158610000Y-68800000D02*
X158610000Y-69900000D01*
X158610000Y-68800000D02*
X159710000Y-68800000D01*
X158610000Y-75600000D02*
X158610000Y-74600000D01*
X159710000Y-75600000D02*
X158610000Y-75600000D01*
X164310000Y-68800000D02*
X165410000Y-68800000D01*
X164310000Y-75600000D02*
X165410000Y-75600000D01*
X165410000Y-68800000D02*
X165410000Y-69900000D01*
X165410000Y-75600000D02*
X165410000Y-74500000D01*
X138290000Y-58640000D02*
X138290000Y-59740000D01*
X138290000Y-58640000D02*
X139390000Y-58640000D01*
X138290000Y-65440000D02*
X138290000Y-64440000D01*
X139390000Y-65440000D02*
X138290000Y-65440000D01*
X143990000Y-58640000D02*
X145090000Y-58640000D01*
X143990000Y-65440000D02*
X145090000Y-65440000D01*
X145090000Y-58640000D02*
X145090000Y-59740000D01*
X145090000Y-65440000D02*
X145090000Y-64340000D01*
X128130000Y-99280000D02*
X128130000Y-100380000D01*
X128130000Y-99280000D02*
X129230000Y-99280000D01*
X128130000Y-106080000D02*
X128130000Y-105080000D01*
X129230000Y-106080000D02*
X128130000Y-106080000D01*
X133830000Y-99280000D02*
X134930000Y-99280000D01*
X133830000Y-106080000D02*
X134930000Y-106080000D01*
X134930000Y-99280000D02*
X134930000Y-100380000D01*
X134930000Y-106080000D02*
X134930000Y-104980000D01*
X168770000Y-68800000D02*
X168770000Y-69900000D01*
X168770000Y-68800000D02*
X169870000Y-68800000D01*
X168770000Y-75600000D02*
X168770000Y-74600000D01*
X169870000Y-75600000D02*
X168770000Y-75600000D01*
X174470000Y-68800000D02*
X175570000Y-68800000D01*
X174470000Y-75600000D02*
X175570000Y-75600000D01*
X175570000Y-68800000D02*
X175570000Y-69900000D01*
X175570000Y-75600000D02*
X175570000Y-74500000D01*
X117970000Y-78960000D02*
X117970000Y-80060000D01*
X117970000Y-78960000D02*
X119070000Y-78960000D01*
X117970000Y-85760000D02*
X117970000Y-84760000D01*
X119070000Y-85760000D02*
X117970000Y-85760000D01*
X123670000Y-78960000D02*
X124770000Y-78960000D01*
X123670000Y-85760000D02*
X124770000Y-85760000D01*
X124770000Y-78960000D02*
X124770000Y-80060000D01*
X124770000Y-85760000D02*
X124770000Y-84660000D01*
X128130000Y-68800000D02*
X128130000Y-69900000D01*
X128130000Y-68800000D02*
X129230000Y-68800000D01*
X128130000Y-75600000D02*
X128130000Y-74600000D01*
X129230000Y-75600000D02*
X128130000Y-75600000D01*
X133830000Y-68800000D02*
X134930000Y-68800000D01*
X133830000Y-75600000D02*
X134930000Y-75600000D01*
X134930000Y-68800000D02*
X134930000Y-69900000D01*
X134930000Y-75600000D02*
X134930000Y-74500000D01*
X128130000Y-89120000D02*
X128130000Y-90220000D01*
X128130000Y-89120000D02*
X129230000Y-89120000D01*
X128130000Y-95920000D02*
X128130000Y-94920000D01*
X129230000Y-95920000D02*
X128130000Y-95920000D01*
X133830000Y-89120000D02*
X134930000Y-89120000D01*
X133830000Y-95920000D02*
X134930000Y-95920000D01*
X134930000Y-89120000D02*
X134930000Y-90220000D01*
X134930000Y-95920000D02*
X134930000Y-94820000D01*
X158610000Y-58640000D02*
X158610000Y-59740000D01*
X158610000Y-58640000D02*
X159710000Y-58640000D01*
X158610000Y-65440000D02*
X158610000Y-64440000D01*
X159710000Y-65440000D02*
X158610000Y-65440000D01*
X164310000Y-58640000D02*
X165410000Y-58640000D01*
X164310000Y-65440000D02*
X165410000Y-65440000D01*
X165410000Y-58640000D02*
X165410000Y-59740000D01*
X165410000Y-65440000D02*
X165410000Y-64340000D01*
X168770000Y-78960000D02*
X168770000Y-80060000D01*
X168770000Y-78960000D02*
X169870000Y-78960000D01*
X168770000Y-85760000D02*
X168770000Y-84760000D01*
X169870000Y-85760000D02*
X168770000Y-85760000D01*
X174470000Y-78960000D02*
X175570000Y-78960000D01*
X174470000Y-85760000D02*
X175570000Y-85760000D01*
X175570000Y-78960000D02*
X175570000Y-80060000D01*
X175570000Y-85760000D02*
X175570000Y-84660000D01*
X79240000Y-54429437D02*
X80604437Y-53065000D01*
X79240000Y-60910000D02*
X79240000Y-54429437D01*
X79240000Y-71690000D02*
X79940000Y-71690000D01*
X79240000Y-79535000D02*
X79240000Y-71690000D01*
X79940000Y-60910000D02*
X79240000Y-60910000D01*
X79940000Y-71690000D02*
X79940000Y-60910000D01*
X80604437Y-53065000D02*
X86460000Y-53065000D01*
X85760000Y-60910000D02*
X85760000Y-71690000D01*
X85760000Y-71690000D02*
X86460000Y-71690000D01*
X86460000Y-53065000D02*
X86460000Y-60910000D01*
X86460000Y-60910000D02*
X85760000Y-60910000D01*
X86460000Y-71690000D02*
X86460000Y-79535000D01*
X86460000Y-79535000D02*
X79240000Y-79535000D01*
X79700000Y-61500000D02*
G75*
G02*
X79200000Y-61500000I-250000J0D01*
G01*
X79200000Y-61500000D02*
G75*
G02*
X79700000Y-61500000I250000J0D01*
G01*
X148450000Y-68800000D02*
X148450000Y-69900000D01*
X148450000Y-68800000D02*
X149550000Y-68800000D01*
X148450000Y-75600000D02*
X148450000Y-74600000D01*
X149550000Y-75600000D02*
X148450000Y-75600000D01*
X154150000Y-68800000D02*
X155250000Y-68800000D01*
X154150000Y-75600000D02*
X155250000Y-75600000D01*
X155250000Y-68800000D02*
X155250000Y-69900000D01*
X155250000Y-75600000D02*
X155250000Y-74500000D01*
X138290000Y-78960000D02*
X138290000Y-80060000D01*
X138290000Y-78960000D02*
X139390000Y-78960000D01*
X138290000Y-85760000D02*
X138290000Y-84760000D01*
X139390000Y-85760000D02*
X138290000Y-85760000D01*
X143990000Y-78960000D02*
X145090000Y-78960000D01*
X143990000Y-85760000D02*
X145090000Y-85760000D01*
X145090000Y-78960000D02*
X145090000Y-80060000D01*
X145090000Y-85760000D02*
X145090000Y-84660000D01*
X178930000Y-78960000D02*
X178930000Y-80060000D01*
X178930000Y-78960000D02*
X180030000Y-78960000D01*
X178930000Y-85760000D02*
X178930000Y-84760000D01*
X180030000Y-85760000D02*
X178930000Y-85760000D01*
X184630000Y-78960000D02*
X185730000Y-78960000D01*
X184630000Y-85760000D02*
X185730000Y-85760000D01*
X185730000Y-78960000D02*
X185730000Y-80060000D01*
X185730000Y-85760000D02*
X185730000Y-84660000D01*
X94540000Y-74649437D02*
X95904437Y-73285000D01*
X94540000Y-81130000D02*
X94540000Y-74649437D01*
X94540000Y-91910000D02*
X95240000Y-91910000D01*
X94540000Y-99755000D02*
X94540000Y-91910000D01*
X95240000Y-81130000D02*
X94540000Y-81130000D01*
X95240000Y-91910000D02*
X95240000Y-81130000D01*
X95904437Y-73285000D02*
X101760000Y-73285000D01*
X101060000Y-81130000D02*
X101060000Y-91910000D01*
X101060000Y-91910000D02*
X101760000Y-91910000D01*
X101760000Y-73285000D02*
X101760000Y-81130000D01*
X101760000Y-81130000D02*
X101060000Y-81130000D01*
X101760000Y-91910000D02*
X101760000Y-99755000D01*
X101760000Y-99755000D02*
X94540000Y-99755000D01*
X95000000Y-81720000D02*
G75*
G02*
X94500000Y-81720000I-250000J0D01*
G01*
X94500000Y-81720000D02*
G75*
G02*
X95000000Y-81720000I250000J0D01*
G01*
X110490000Y-85320000D02*
X110490000Y-82320000D01*
X111090000Y-84220000D02*
X109790000Y-84220000D01*
X110490000Y-84220000D02*
X109890000Y-83220000D01*
X111090000Y-83220000D01*
X110490000Y-84220000D01*
G36*
X110490000Y-84220000D02*
G01*
X109890000Y-83220000D01*
X111090000Y-83220000D01*
X110490000Y-84220000D01*
G37*
X148450000Y-99280000D02*
X148450000Y-100380000D01*
X148450000Y-99280000D02*
X149550000Y-99280000D01*
X148450000Y-106080000D02*
X148450000Y-105080000D01*
X149550000Y-106080000D02*
X148450000Y-106080000D01*
X154150000Y-99280000D02*
X155250000Y-99280000D01*
X154150000Y-106080000D02*
X155250000Y-106080000D01*
X155250000Y-99280000D02*
X155250000Y-100380000D01*
X155250000Y-106080000D02*
X155250000Y-104980000D01*
X128130000Y-78960000D02*
X128130000Y-80060000D01*
X128130000Y-78960000D02*
X129230000Y-78960000D01*
X128130000Y-85760000D02*
X128130000Y-84760000D01*
X129230000Y-85760000D02*
X128130000Y-85760000D01*
X133830000Y-78960000D02*
X134930000Y-78960000D01*
X133830000Y-85760000D02*
X134930000Y-85760000D01*
X134930000Y-78960000D02*
X134930000Y-80060000D01*
X134930000Y-85760000D02*
X134930000Y-84660000D01*
X117970000Y-99280000D02*
X117970000Y-100380000D01*
X117970000Y-99280000D02*
X119070000Y-99280000D01*
X117970000Y-106080000D02*
X117970000Y-105080000D01*
X119070000Y-106080000D02*
X117970000Y-106080000D01*
X123670000Y-99280000D02*
X124770000Y-99280000D01*
X123670000Y-106080000D02*
X124770000Y-106080000D01*
X124770000Y-99280000D02*
X124770000Y-100380000D01*
X124770000Y-106080000D02*
X124770000Y-104980000D01*
X158610000Y-109440000D02*
X158610000Y-110540000D01*
X158610000Y-109440000D02*
X159710000Y-109440000D01*
X158610000Y-116240000D02*
X158610000Y-115240000D01*
X159710000Y-116240000D02*
X158610000Y-116240000D01*
X164310000Y-109440000D02*
X165410000Y-109440000D01*
X164310000Y-116240000D02*
X165410000Y-116240000D01*
X165410000Y-109440000D02*
X165410000Y-110540000D01*
X165410000Y-116240000D02*
X165410000Y-115140000D01*
X158610000Y-119600000D02*
X158610000Y-120700000D01*
X158610000Y-119600000D02*
X159710000Y-119600000D01*
X158610000Y-126400000D02*
X158610000Y-125400000D01*
X159710000Y-126400000D02*
X158610000Y-126400000D01*
X164310000Y-119600000D02*
X165410000Y-119600000D01*
X164310000Y-126400000D02*
X165410000Y-126400000D01*
X165410000Y-119600000D02*
X165410000Y-120700000D01*
X165410000Y-126400000D02*
X165410000Y-125300000D01*
X148450000Y-109440000D02*
X149550000Y-109440000D01*
X148450000Y-110540000D02*
X148450000Y-109440000D01*
X148450000Y-116240000D02*
X148450000Y-115140000D01*
X148450000Y-116240000D02*
X149550000Y-116240000D01*
X155250000Y-109440000D02*
X154150000Y-109440000D01*
X155250000Y-110540000D02*
X155250000Y-109440000D01*
X155250000Y-115140000D02*
X155250000Y-116240000D01*
X155250000Y-116240000D02*
X154250000Y-116240000D01*
D13*
X96546000Y-55540000D02*
X107214000Y-55540000D01*
X96546000Y-60975000D02*
X96546000Y-55540000D01*
X107214000Y-55540000D02*
X107214000Y-60975000D01*
X107214000Y-60975000D02*
X96546000Y-60975000D01*
D14*
X104520000Y-61975000D02*
G75*
G02*
X104320000Y-61975000I-100000J0D01*
G01*
X104320000Y-61975000D02*
G75*
G02*
X104520000Y-61975000I100000J0D01*
G01*
D12*
X138290000Y-68800000D02*
X138290000Y-69900000D01*
X138290000Y-68800000D02*
X139390000Y-68800000D01*
X138290000Y-75600000D02*
X138290000Y-74600000D01*
X139390000Y-75600000D02*
X138290000Y-75600000D01*
X143990000Y-68800000D02*
X145090000Y-68800000D01*
X143990000Y-75600000D02*
X145090000Y-75600000D01*
X145090000Y-68800000D02*
X145090000Y-69900000D01*
X145090000Y-75600000D02*
X145090000Y-74500000D01*
X158610000Y-99280000D02*
X158610000Y-100380000D01*
X158610000Y-99280000D02*
X159710000Y-99280000D01*
X158610000Y-106080000D02*
X158610000Y-105080000D01*
X159710000Y-106080000D02*
X158610000Y-106080000D01*
X164310000Y-99280000D02*
X165410000Y-99280000D01*
X164310000Y-106080000D02*
X165410000Y-106080000D01*
X165410000Y-99280000D02*
X165410000Y-100380000D01*
X165410000Y-106080000D02*
X165410000Y-104980000D01*
X168770000Y-109440000D02*
X168770000Y-110540000D01*
X168770000Y-109440000D02*
X169870000Y-109440000D01*
X168770000Y-116240000D02*
X168770000Y-115240000D01*
X169870000Y-116240000D02*
X168770000Y-116240000D01*
X174470000Y-109440000D02*
X175570000Y-109440000D01*
X174470000Y-116240000D02*
X175570000Y-116240000D01*
X175570000Y-109440000D02*
X175570000Y-110540000D01*
X175570000Y-116240000D02*
X175570000Y-115140000D01*
X94740000Y-107299437D02*
X96104437Y-105935000D01*
X94740000Y-113780000D02*
X94740000Y-107299437D01*
X94740000Y-124560000D02*
X95440000Y-124560000D01*
X94740000Y-132405000D02*
X94740000Y-124560000D01*
X95440000Y-113780000D02*
X94740000Y-113780000D01*
X95440000Y-124560000D02*
X95440000Y-113780000D01*
X96104437Y-105935000D02*
X101960000Y-105935000D01*
X101260000Y-113780000D02*
X101260000Y-124560000D01*
X101260000Y-124560000D02*
X101960000Y-124560000D01*
X101960000Y-105935000D02*
X101960000Y-113780000D01*
X101960000Y-113780000D02*
X101260000Y-113780000D01*
X101960000Y-124560000D02*
X101960000Y-132405000D01*
X101960000Y-132405000D02*
X94740000Y-132405000D01*
X95200000Y-114370000D02*
G75*
G02*
X94700000Y-114370000I-250000J0D01*
G01*
X94700000Y-114370000D02*
G75*
G02*
X95200000Y-114370000I250000J0D01*
G01*
X79390000Y-92329437D02*
X80754437Y-90965000D01*
X79390000Y-98810000D02*
X79390000Y-92329437D01*
X79390000Y-109590000D02*
X80090000Y-109590000D01*
X79390000Y-117435000D02*
X79390000Y-109590000D01*
X80090000Y-98810000D02*
X79390000Y-98810000D01*
X80090000Y-109590000D02*
X80090000Y-98810000D01*
X80754437Y-90965000D02*
X86610000Y-90965000D01*
X85910000Y-98810000D02*
X85910000Y-109590000D01*
X85910000Y-109590000D02*
X86610000Y-109590000D01*
X86610000Y-90965000D02*
X86610000Y-98810000D01*
X86610000Y-98810000D02*
X85910000Y-98810000D01*
X86610000Y-109590000D02*
X86610000Y-117435000D01*
X86610000Y-117435000D02*
X79390000Y-117435000D01*
X79850000Y-99400000D02*
G75*
G02*
X79350000Y-99400000I-250000J0D01*
G01*
X79350000Y-99400000D02*
G75*
G02*
X79850000Y-99400000I250000J0D01*
G01*
X168770000Y-99280000D02*
X168770000Y-100380000D01*
X168770000Y-99280000D02*
X169870000Y-99280000D01*
X168770000Y-106080000D02*
X168770000Y-105080000D01*
X169870000Y-106080000D02*
X168770000Y-106080000D01*
X174470000Y-99280000D02*
X175570000Y-99280000D01*
X174470000Y-106080000D02*
X175570000Y-106080000D01*
X175570000Y-99280000D02*
X175570000Y-100380000D01*
X175570000Y-106080000D02*
X175570000Y-104980000D01*
%TD*%
M02*
