%TF.GenerationSoftware,KiCad,Pcbnew,9.0.2*%
%TF.CreationDate,2025-09-02T16:46:01-07:00*%
%TF.ProjectId,32_S13360_6025PS_SiPMs_3x3_inch,33325f53-3133-4333-9630-5f3630323550,rev?*%
%TF.SameCoordinates,Original*%
%TF.FileFunction,Paste,Top*%
%TF.FilePolarity,Positive*%
%FSLAX46Y46*%
G04 Gerber Fmt 4.6, Leading zero omitted, Abs format (unit mm)*
G04 Created by KiCad (PCBNEW 9.0.2) date 2025-09-02 16:46:01*
%MOMM*%
%LPD*%
G01*
G04 APERTURE LIST*
G04 Aperture macros list*
%AMRoundRect*
0 Rectangle with rounded corners*
0 $1 Rounding radius*
0 $2 $3 $4 $5 $6 $7 $8 $9 X,Y pos of 4 corners*
0 Add a 4 corners polygon primitive as box body*
4,1,4,$2,$3,$4,$5,$6,$7,$8,$9,$2,$3,0*
0 Add four circle primitives for the rounded corners*
1,1,$1+$1,$2,$3*
1,1,$1+$1,$4,$5*
1,1,$1+$1,$6,$7*
1,1,$1+$1,$8,$9*
0 Add four rect primitives between the rounded corners*
20,1,$1+$1,$2,$3,$4,$5,0*
20,1,$1+$1,$4,$5,$6,$7,0*
20,1,$1+$1,$6,$7,$8,$9,0*
20,1,$1+$1,$8,$9,$2,$3,0*%
G04 Aperture macros list end*
%ADD10C,0.700000*%
%ADD11C,2.540000*%
%ADD12RoundRect,0.125000X-0.475000X0.125000X-0.475000X-0.125000X0.475000X-0.125000X0.475000X0.125000X0*%
%ADD13RoundRect,0.087500X-0.087500X-0.337500X0.087500X-0.337500X0.087500X0.337500X-0.087500X0.337500X0*%
G04 APERTURE END LIST*
D10*
%TO.C,REF\u002A\u002A*%
X140440000Y-121750000D03*
X140440000Y-124250000D03*
X142940000Y-121750000D03*
X142940000Y-124250000D03*
X139190000Y-120500000D03*
X139190000Y-125500000D03*
X144190000Y-120500000D03*
X144190000Y-125500000D03*
%TD*%
%TO.C,REF\u002A\u002A*%
X160760000Y-81110000D03*
X160760000Y-83610000D03*
X163260000Y-81110000D03*
X163260000Y-83610000D03*
X159510000Y-79860000D03*
X159510000Y-84860000D03*
X164510000Y-79860000D03*
X164510000Y-84860000D03*
%TD*%
%TO.C,REF\u002A\u002A*%
X160760000Y-91270000D03*
X160760000Y-93770000D03*
X163260000Y-91270000D03*
X163260000Y-93770000D03*
X159510000Y-90020000D03*
X159510000Y-95020000D03*
X164510000Y-90020000D03*
X164510000Y-95020000D03*
%TD*%
%TO.C,*%
X142950000Y-124220000D03*
%TD*%
%TO.C,*%
X132780000Y-114090000D03*
%TD*%
%TO.C,*%
X122600000Y-103920000D03*
%TD*%
%TO.C,REF\u002A\u002A*%
X170920000Y-91270000D03*
X170920000Y-93770000D03*
X173420000Y-91270000D03*
X173420000Y-93770000D03*
X169670000Y-90020000D03*
X169670000Y-95020000D03*
X174670000Y-90020000D03*
X174670000Y-95020000D03*
%TD*%
%TO.C,REF\u002A\u002A*%
X140440000Y-101430000D03*
X140440000Y-103930000D03*
X142940000Y-101430000D03*
X142940000Y-103930000D03*
X139190000Y-100180000D03*
X139190000Y-105180000D03*
X144190000Y-100180000D03*
X144190000Y-105180000D03*
%TD*%
%TO.C,REF\u002A\u002A*%
X130280000Y-111590000D03*
X130280000Y-114090000D03*
X132780000Y-111590000D03*
X132780000Y-114090000D03*
X129030000Y-110340000D03*
X129030000Y-115340000D03*
X134030000Y-110340000D03*
X134030000Y-115340000D03*
%TD*%
%TO.C,REF\u002A\u002A*%
X181080000Y-101430000D03*
X181080000Y-103930000D03*
X183580000Y-101430000D03*
X183580000Y-103930000D03*
X179830000Y-100180000D03*
X179830000Y-105180000D03*
X184830000Y-100180000D03*
X184830000Y-105180000D03*
%TD*%
%TO.C,*%
X154350000Y-105170000D03*
%TD*%
%TO.C,*%
X174650000Y-115320000D03*
%TD*%
%TO.C,REF\u002A\u002A*%
X140440000Y-111590000D03*
X140440000Y-114090000D03*
X142940000Y-111590000D03*
X142940000Y-114090000D03*
X139190000Y-110340000D03*
X139190000Y-115340000D03*
X144190000Y-110340000D03*
X144190000Y-115340000D03*
%TD*%
%TO.C,*%
X164500000Y-115320000D03*
%TD*%
%TO.C,REF\u002A\u002A*%
X150600000Y-81110000D03*
X150600000Y-83610000D03*
X153100000Y-81110000D03*
X153100000Y-83610000D03*
X149350000Y-79860000D03*
X149350000Y-84860000D03*
X154350000Y-79860000D03*
X154350000Y-84860000D03*
%TD*%
%TO.C,REF\u002A\u002A*%
X140440000Y-91270000D03*
X140440000Y-93770000D03*
X142940000Y-91270000D03*
X142940000Y-93770000D03*
X139190000Y-90020000D03*
X139190000Y-95020000D03*
X144190000Y-90020000D03*
X144190000Y-95020000D03*
%TD*%
%TO.C,*%
X183600000Y-103870000D03*
%TD*%
%TO.C,*%
X134050000Y-105170000D03*
%TD*%
%TO.C,*%
X174650000Y-105170000D03*
%TD*%
%TO.C,*%
X134050000Y-115320000D03*
%TD*%
%TO.C,REF\u002A\u002A*%
X160760000Y-70950000D03*
X160760000Y-73450000D03*
X163260000Y-70950000D03*
X163260000Y-73450000D03*
X159510000Y-69700000D03*
X159510000Y-74700000D03*
X164510000Y-69700000D03*
X164510000Y-74700000D03*
%TD*%
%TO.C,REF\u002A\u002A*%
X140440000Y-60790000D03*
X140440000Y-63290000D03*
X142940000Y-60790000D03*
X142940000Y-63290000D03*
X139190000Y-59540000D03*
X139190000Y-64540000D03*
X144190000Y-59540000D03*
X144190000Y-64540000D03*
%TD*%
%TO.C,REF\u002A\u002A*%
X130280000Y-101430000D03*
X130280000Y-103930000D03*
X132780000Y-101430000D03*
X132780000Y-103930000D03*
X129030000Y-100180000D03*
X129030000Y-105180000D03*
X134030000Y-100180000D03*
X134030000Y-105180000D03*
%TD*%
%TO.C,*%
X142950000Y-103920000D03*
%TD*%
%TO.C,REF\u002A\u002A*%
X170920000Y-70950000D03*
X170920000Y-73450000D03*
X173420000Y-70950000D03*
X173420000Y-73450000D03*
X169670000Y-69700000D03*
X169670000Y-74700000D03*
X174670000Y-69700000D03*
X174670000Y-74700000D03*
%TD*%
%TO.C,REF\u002A\u002A*%
X120120000Y-81110000D03*
X120120000Y-83610000D03*
X122620000Y-81110000D03*
X122620000Y-83610000D03*
X118870000Y-79860000D03*
X118870000Y-84860000D03*
X123870000Y-79860000D03*
X123870000Y-84860000D03*
%TD*%
%TO.C,REF\u002A\u002A*%
X130280000Y-70950000D03*
X130280000Y-73450000D03*
X132780000Y-70950000D03*
X132780000Y-73450000D03*
X129030000Y-69700000D03*
X129030000Y-74700000D03*
X134030000Y-69700000D03*
X134030000Y-74700000D03*
%TD*%
%TO.C,REF\u002A\u002A*%
X130280000Y-91270000D03*
X130280000Y-93770000D03*
X132780000Y-91270000D03*
X132780000Y-93770000D03*
X129030000Y-90020000D03*
X129030000Y-95020000D03*
X134030000Y-90020000D03*
X134030000Y-95020000D03*
%TD*%
%TO.C,REF\u002A\u002A*%
X160760000Y-60790000D03*
X160760000Y-63290000D03*
X163260000Y-60790000D03*
X163260000Y-63290000D03*
X159510000Y-59540000D03*
X159510000Y-64540000D03*
X164510000Y-59540000D03*
X164510000Y-64540000D03*
%TD*%
%TO.C,REF\u002A\u002A*%
X170920000Y-81110000D03*
X170920000Y-83610000D03*
X173420000Y-81110000D03*
X173420000Y-83610000D03*
X169670000Y-79860000D03*
X169670000Y-84860000D03*
X174670000Y-79860000D03*
X174670000Y-84860000D03*
%TD*%
%TO.C,*%
X164500000Y-105170000D03*
%TD*%
%TO.C,*%
X144150000Y-115320000D03*
%TD*%
D11*
%TO.C,REF\u002A\u002A*%
X82850000Y-57650000D03*
X82850000Y-74950000D03*
D12*
X81150000Y-61500000D03*
X84550000Y-61500000D03*
X81150000Y-62300000D03*
X84550000Y-62300000D03*
X81150000Y-63100000D03*
X84550000Y-63100000D03*
X81150000Y-63900000D03*
X84550000Y-63900000D03*
X81150000Y-67900000D03*
X84550000Y-67900000D03*
X81150000Y-68700000D03*
X84550000Y-68700000D03*
X81150000Y-69500000D03*
X84550000Y-69500000D03*
X81150000Y-70300000D03*
X84550000Y-70300000D03*
X81150000Y-71100000D03*
X84550000Y-71100000D03*
%TD*%
D10*
%TO.C,*%
X123850000Y-105170000D03*
%TD*%
%TO.C,*%
X173400000Y-103920000D03*
%TD*%
%TO.C,REF\u002A\u002A*%
X150600000Y-70950000D03*
X150600000Y-73450000D03*
X153100000Y-70950000D03*
X153100000Y-73450000D03*
X149350000Y-69700000D03*
X149350000Y-74700000D03*
X154350000Y-69700000D03*
X154350000Y-74700000D03*
%TD*%
%TO.C,REF\u002A\u002A*%
X140440000Y-81110000D03*
X140440000Y-83610000D03*
X142940000Y-81110000D03*
X142940000Y-83610000D03*
X139190000Y-79860000D03*
X139190000Y-84860000D03*
X144190000Y-79860000D03*
X144190000Y-84860000D03*
%TD*%
%TO.C,REF\u002A\u002A*%
X181080000Y-81110000D03*
X181080000Y-83610000D03*
X183580000Y-81110000D03*
X183580000Y-83610000D03*
X179830000Y-79860000D03*
X179830000Y-84860000D03*
X184830000Y-79860000D03*
X184830000Y-84860000D03*
%TD*%
D11*
%TO.C,REF\u002A\u002A*%
X98150000Y-77870000D03*
X98150000Y-95170000D03*
D12*
X96450000Y-81720000D03*
X99850000Y-81720000D03*
X96450000Y-82520000D03*
X99850000Y-82520000D03*
X96450000Y-83320000D03*
X99850000Y-83320000D03*
X96450000Y-84120000D03*
X99850000Y-84120000D03*
X96450000Y-88120000D03*
X99850000Y-88120000D03*
X96450000Y-88920000D03*
X99850000Y-88920000D03*
X96450000Y-89720000D03*
X99850000Y-89720000D03*
X96450000Y-90520000D03*
X99850000Y-90520000D03*
X96450000Y-91320000D03*
X99850000Y-91320000D03*
%TD*%
D10*
%TO.C,REF\u002A\u002A*%
X150600000Y-101430000D03*
X150600000Y-103930000D03*
X153100000Y-101430000D03*
X153100000Y-103930000D03*
X149350000Y-100180000D03*
X149350000Y-105180000D03*
X154350000Y-100180000D03*
X154350000Y-105180000D03*
%TD*%
%TO.C,REF\u002A\u002A*%
X130280000Y-81110000D03*
X130280000Y-83610000D03*
X132780000Y-81110000D03*
X132780000Y-83610000D03*
X129030000Y-79860000D03*
X129030000Y-84860000D03*
X134030000Y-79860000D03*
X134030000Y-84860000D03*
%TD*%
%TO.C,REF\u002A\u002A*%
X120120000Y-101430000D03*
X120120000Y-103930000D03*
X122620000Y-101430000D03*
X122620000Y-103930000D03*
X118870000Y-100180000D03*
X118870000Y-105180000D03*
X123870000Y-100180000D03*
X123870000Y-105180000D03*
%TD*%
%TO.C,*%
X163250000Y-103920000D03*
%TD*%
%TO.C,*%
X163250000Y-114120000D03*
%TD*%
%TO.C,*%
X144200000Y-105170000D03*
%TD*%
%TO.C,REF\u002A\u002A*%
X160760000Y-111590000D03*
X160760000Y-114090000D03*
X163260000Y-111590000D03*
X163260000Y-114090000D03*
X159510000Y-110340000D03*
X159510000Y-115340000D03*
X164510000Y-110340000D03*
X164510000Y-115340000D03*
%TD*%
%TO.C,REF\u002A\u002A*%
X160760000Y-121750000D03*
X160760000Y-124250000D03*
X163260000Y-121750000D03*
X163260000Y-124250000D03*
X159510000Y-120500000D03*
X159510000Y-125500000D03*
X164510000Y-120500000D03*
X164510000Y-125500000D03*
%TD*%
%TO.C,REF\u002A\u002A*%
X150600000Y-114090000D03*
X153100000Y-114090000D03*
X150600000Y-111590000D03*
X153100000Y-111590000D03*
X149350000Y-115340000D03*
X154350000Y-115340000D03*
X149350000Y-110340000D03*
X154350000Y-110340000D03*
%TD*%
%TO.C,*%
X142950000Y-114070000D03*
%TD*%
%TO.C,REF\u002A\u002A*%
X140440000Y-70950000D03*
X140440000Y-73450000D03*
X142940000Y-70950000D03*
X142940000Y-73450000D03*
X139190000Y-69700000D03*
X139190000Y-74700000D03*
X144190000Y-69700000D03*
X144190000Y-74700000D03*
%TD*%
%TO.C,REF\u002A\u002A*%
X160760000Y-101430000D03*
X160760000Y-103930000D03*
X163260000Y-101430000D03*
X163260000Y-103930000D03*
X159510000Y-100180000D03*
X159510000Y-105180000D03*
X164510000Y-100180000D03*
X164510000Y-105180000D03*
%TD*%
%TO.C,*%
X153100000Y-114120000D03*
%TD*%
%TO.C,*%
X144200000Y-125520000D03*
%TD*%
%TO.C,*%
X164500000Y-125470000D03*
%TD*%
%TO.C,REF\u002A\u002A*%
X170920000Y-111590000D03*
X170920000Y-114090000D03*
X173420000Y-111590000D03*
X173420000Y-114090000D03*
X169670000Y-110340000D03*
X169670000Y-115340000D03*
X174670000Y-110340000D03*
X174670000Y-115340000D03*
%TD*%
D11*
%TO.C,REF\u002A\u002A*%
X98350000Y-110520000D03*
X98350000Y-127820000D03*
D12*
X96650000Y-114370000D03*
X100050000Y-114370000D03*
X96650000Y-115170000D03*
X100050000Y-115170000D03*
X96650000Y-115970000D03*
X100050000Y-115970000D03*
X96650000Y-116770000D03*
X100050000Y-116770000D03*
X96650000Y-120770000D03*
X100050000Y-120770000D03*
X96650000Y-121570000D03*
X100050000Y-121570000D03*
X96650000Y-122370000D03*
X100050000Y-122370000D03*
X96650000Y-123170000D03*
X100050000Y-123170000D03*
X96650000Y-123970000D03*
X100050000Y-123970000D03*
%TD*%
D10*
%TO.C,*%
X132800000Y-103920000D03*
%TD*%
D13*
%TO.C,REF\u002A\u002A*%
X105480000Y-93620000D03*
X106130000Y-93620000D03*
X106780000Y-93620000D03*
X106780000Y-91420000D03*
X105480000Y-91420000D03*
%TD*%
D11*
%TO.C,REF\u002A\u002A*%
X83000000Y-95550000D03*
X83000000Y-112850000D03*
D12*
X81300000Y-99400000D03*
X84700000Y-99400000D03*
X81300000Y-100200000D03*
X84700000Y-100200000D03*
X81300000Y-101000000D03*
X84700000Y-101000000D03*
X81300000Y-101800000D03*
X84700000Y-101800000D03*
X81300000Y-105800000D03*
X84700000Y-105800000D03*
X81300000Y-106600000D03*
X84700000Y-106600000D03*
X81300000Y-107400000D03*
X84700000Y-107400000D03*
X81300000Y-108200000D03*
X84700000Y-108200000D03*
X81300000Y-109000000D03*
X84700000Y-109000000D03*
%TD*%
D10*
%TO.C,REF\u002A\u002A*%
X170920000Y-101430000D03*
X170920000Y-103930000D03*
X173420000Y-101430000D03*
X173420000Y-103930000D03*
X169670000Y-100180000D03*
X169670000Y-105180000D03*
X174670000Y-100180000D03*
X174670000Y-105180000D03*
%TD*%
%TO.C,*%
X184850000Y-105170000D03*
%TD*%
%TO.C,*%
X163260000Y-124250000D03*
%TD*%
%TO.C,*%
X173450000Y-114070000D03*
%TD*%
%TO.C,*%
X154350000Y-115320000D03*
%TD*%
%TO.C,*%
X153100000Y-103920000D03*
%TD*%
M02*
