M48
; DRILL file {KiCad 9.0.2} date 2025-11-18T13:45:20-0600
; FORMAT={-:-/ absolute / metric / decimal}
; #@! TF.CreationDate,2025-11-18T13:45:20-06:00
; #@! TF.GenerationSoftware,Kicad,Pcbnew,9.0.2
; #@! TF.FileFunction,Plated,1,2,PTH
FMAT,2
METRIC
; #@! TA.AperFunction,Plated,PTH,ViaDrill
T1C0.300
; #@! TA.AperFunction,Plated,PTH,ComponentDrill
T2C0.400
; #@! TA.AperFunction,Plated,PTH,ComponentDrill
T3C0.840
; #@! TA.AperFunction,Plated,PTH,ComponentDrill
T4C0.950
%
G90
G05
T1
X84.2Y-128.2
X84.2Y-129.0
X84.2Y-129.8
X84.2Y-130.6
X87.1Y-136.2
X87.7Y-136.967
X89.946Y-137.094
X89.976Y-136.224
X90.0Y-128.2
X90.0Y-129.0
X90.0Y-129.8
X90.0Y-130.6
X90.0Y-134.6
X90.0Y-135.4
X93.1Y-107.5
X93.1Y-108.3
X93.1Y-109.1
X93.1Y-109.9
X93.187Y-113.918
X93.2Y-114.708
X93.2Y-115.5
X93.3Y-134.6
X93.3Y-135.984
X95.5Y-116.3
X96.2Y-133.4
X96.2Y-138.1
X96.2Y-142.5
X96.3Y-128.9
X98.9Y-107.5
X98.9Y-108.3
X98.9Y-109.1
X98.9Y-109.9
X98.9Y-113.9
X98.9Y-114.7
X98.9Y-115.5
X98.9Y-116.3
X101.3Y-128.9
X101.3Y-133.5
X101.3Y-138.1
X101.3Y-142.5
X103.2Y-109.7
X103.3Y-100.5
X103.3Y-105.0
X103.3Y-114.2
X103.8Y-142.8
X104.7Y-143.704
X108.5Y-101.1
X108.5Y-114.2
X108.724Y-109.824
X108.775Y-105.075
T2
X114.9Y-133.7
X114.9Y-135.2
X121.025Y-109.2
X121.025Y-110.7
X139.4Y-133.7
X139.4Y-135.2
X145.525Y-109.2
X145.525Y-110.7
X163.9Y-133.7
X163.9Y-135.2
X170.025Y-109.2
X170.025Y-110.7
X188.4Y-133.7
X188.4Y-135.2
X194.525Y-109.2
X194.525Y-110.7
X212.9Y-133.7
X212.9Y-135.2
X219.025Y-109.2
X219.025Y-110.7
X237.4Y-133.7
X237.4Y-135.2
X243.525Y-109.2
X243.525Y-110.7
X261.9Y-133.7
X261.9Y-135.2
X268.025Y-109.2
X268.025Y-110.7
X286.4Y-133.7
X286.4Y-135.2
X292.525Y-109.2
X292.525Y-110.7
T3
X87.1Y-123.55
X87.1Y-140.85
X96.0Y-102.85
X96.0Y-120.15
T4
X85.975Y-105.8
X85.975Y-108.3
X85.975Y-110.8
M30
