%TF.GenerationSoftware,KiCad,Pcbnew,9.0.2*%
%TF.CreationDate,2025-11-18T13:45:16-06:00*%
%TF.ProjectId,Muon-16ch,4d756f6e-2d31-4366-9368-2e6b69636164,rev?*%
%TF.SameCoordinates,Original*%
%TF.FileFunction,Paste,Top*%
%TF.FilePolarity,Positive*%
%FSLAX46Y46*%
G04 Gerber Fmt 4.6, Leading zero omitted, Abs format (unit mm)*
G04 Created by KiCad (PCBNEW 9.0.2) date 2025-11-18 13:45:16*
%MOMM*%
%LPD*%
G01*
G04 APERTURE LIST*
G04 Aperture macros list*
%AMRoundRect*
0 Rectangle with rounded corners*
0 $1 Rounding radius*
0 $2 $3 $4 $5 $6 $7 $8 $9 X,Y pos of 4 corners*
0 Add a 4 corners polygon primitive as box body*
4,1,4,$2,$3,$4,$5,$6,$7,$8,$9,$2,$3,0*
0 Add four circle primitives for the rounded corners*
1,1,$1+$1,$2,$3*
1,1,$1+$1,$4,$5*
1,1,$1+$1,$6,$7*
1,1,$1+$1,$8,$9*
0 Add four rect primitives between the rounded corners*
20,1,$1+$1,$2,$3,$4,$5,0*
20,1,$1+$1,$4,$5,$6,$7,0*
20,1,$1+$1,$6,$7,$8,$9,0*
20,1,$1+$1,$8,$9,$2,$3,0*%
G04 Aperture macros list end*
%ADD10RoundRect,0.250000X0.325000X1.100000X-0.325000X1.100000X-0.325000X-1.100000X0.325000X-1.100000X0*%
%ADD11R,0.700000X0.700000*%
%ADD12C,2.540000*%
%ADD13RoundRect,0.125000X0.475000X-0.125000X0.475000X0.125000X-0.475000X0.125000X-0.475000X-0.125000X0*%
%ADD14RoundRect,0.087500X-0.337500X0.087500X-0.337500X-0.087500X0.337500X-0.087500X0.337500X0.087500X0*%
G04 APERTURE END LIST*
D10*
%TO.C,10 nF*%
X102775000Y-138100000D03*
X99825000Y-138100000D03*
%TD*%
%TO.C,10 nF*%
X97675000Y-133500000D03*
X94725000Y-133500000D03*
%TD*%
D11*
%TO.C,REF\u002A\u002A20*%
X271627500Y-109450000D03*
X271627500Y-110550000D03*
X269602500Y-109450000D03*
X269602500Y-110550000D03*
%TD*%
D12*
%TO.C,REF\u002A\u002A*%
X96000000Y-120150000D03*
X96000000Y-102850000D03*
D13*
X97700000Y-116300000D03*
X94300000Y-116300000D03*
X97700000Y-115500000D03*
X94300000Y-115500000D03*
X97700000Y-114700000D03*
X94300000Y-114700000D03*
X97700000Y-113900000D03*
X94300000Y-113900000D03*
X97700000Y-109900000D03*
X94300000Y-109900000D03*
X97700000Y-109100000D03*
X94300000Y-109100000D03*
X97700000Y-108300000D03*
X94300000Y-108300000D03*
X97700000Y-107500000D03*
X94300000Y-107500000D03*
X97700000Y-106700000D03*
X94300000Y-106700000D03*
%TD*%
D10*
%TO.C,10 nF*%
X97700000Y-129000000D03*
X94750000Y-129000000D03*
%TD*%
%TO.C,10 nF*%
X109975000Y-100600000D03*
X107025000Y-100600000D03*
%TD*%
%TO.C,10 nF*%
X104775000Y-114200000D03*
X101825000Y-114200000D03*
%TD*%
D11*
%TO.C,REF\u002A\u002A20*%
X198127500Y-109450000D03*
X198127500Y-110550000D03*
X196102500Y-109450000D03*
X196102500Y-110550000D03*
%TD*%
%TO.C,REF\u002A\u002A20*%
X118502500Y-133950000D03*
X118502500Y-135050000D03*
X116477500Y-133950000D03*
X116477500Y-135050000D03*
%TD*%
D10*
%TO.C,10 nF*%
X102800000Y-142500000D03*
X99850000Y-142500000D03*
%TD*%
%TO.C,10 nF*%
X102775000Y-129000000D03*
X99825000Y-129000000D03*
%TD*%
D11*
%TO.C,REF\u002A\u002A20*%
X222627500Y-109450000D03*
X222627500Y-110550000D03*
X220602500Y-109450000D03*
X220602500Y-110550000D03*
%TD*%
%TO.C,REF\u002A\u002A20*%
X173627500Y-109450000D03*
X173627500Y-110550000D03*
X171602500Y-109450000D03*
X171602500Y-110550000D03*
%TD*%
%TO.C,REF\u002A\u002A20*%
X216502500Y-133950000D03*
X216502500Y-135050000D03*
X214477500Y-133950000D03*
X214477500Y-135050000D03*
%TD*%
D10*
%TO.C,10 nF*%
X104800000Y-100600000D03*
X101850000Y-100600000D03*
%TD*%
D11*
%TO.C,REF\u002A\u002A20*%
X290002500Y-133950000D03*
X290002500Y-135050000D03*
X287977500Y-133950000D03*
X287977500Y-135050000D03*
%TD*%
D10*
%TO.C,10 nF*%
X104800000Y-105100000D03*
X101850000Y-105100000D03*
%TD*%
D11*
%TO.C,REF\u002A\u002A20*%
X241002500Y-133950000D03*
X241002500Y-135050000D03*
X238977500Y-133950000D03*
X238977500Y-135050000D03*
%TD*%
%TO.C,REF\u002A\u002A20*%
X192002500Y-133950000D03*
X192002500Y-135050000D03*
X189977500Y-133950000D03*
X189977500Y-135050000D03*
%TD*%
D10*
%TO.C,10 nF*%
X97675000Y-142500000D03*
X94725000Y-142500000D03*
%TD*%
D11*
%TO.C,REF\u002A\u002A20*%
X143002500Y-133950000D03*
X143002500Y-135050000D03*
X140977500Y-133950000D03*
X140977500Y-135050000D03*
%TD*%
%TO.C,REF\u002A\u002A20*%
X167502500Y-133950000D03*
X167502500Y-135050000D03*
X165477500Y-133950000D03*
X165477500Y-135050000D03*
%TD*%
%TO.C,REF\u002A\u002A20*%
X296127500Y-109450000D03*
X296127500Y-110550000D03*
X294102500Y-109450000D03*
X294102500Y-110550000D03*
%TD*%
D12*
%TO.C,REF\u002A\u002A*%
X87100000Y-140850000D03*
X87100000Y-123550000D03*
D13*
X88800000Y-137000000D03*
X85400000Y-137000000D03*
X88800000Y-136200000D03*
X85400000Y-136200000D03*
X88800000Y-135400000D03*
X85400000Y-135400000D03*
X88800000Y-134600000D03*
X85400000Y-134600000D03*
X88800000Y-130600000D03*
X85400000Y-130600000D03*
X88800000Y-129800000D03*
X85400000Y-129800000D03*
X88800000Y-129000000D03*
X85400000Y-129000000D03*
X88800000Y-128200000D03*
X85400000Y-128200000D03*
X88800000Y-127400000D03*
X85400000Y-127400000D03*
%TD*%
D10*
%TO.C,10 nF*%
X110000000Y-114200000D03*
X107050000Y-114200000D03*
%TD*%
D14*
%TO.C,REF\u002A\u002A*%
X108200000Y-119500000D03*
X108200000Y-120150000D03*
X108200000Y-120800000D03*
X110400000Y-120800000D03*
X110400000Y-119500000D03*
%TD*%
D11*
%TO.C,REF\u002A\u002A20*%
X265502500Y-133950000D03*
X265502500Y-135050000D03*
X263477500Y-133950000D03*
X263477500Y-135050000D03*
%TD*%
D10*
%TO.C,10 nF*%
X97675000Y-138100000D03*
X94725000Y-138100000D03*
%TD*%
%TO.C,10 nF*%
X102775000Y-133500000D03*
X99825000Y-133500000D03*
%TD*%
%TO.C,10 nF*%
X104700000Y-109700000D03*
X101750000Y-109700000D03*
%TD*%
D11*
%TO.C,REF\u002A\u002A20*%
X124627500Y-109450000D03*
X124627500Y-110550000D03*
X122602500Y-109450000D03*
X122602500Y-110550000D03*
%TD*%
%TO.C,REF\u002A\u002A20*%
X247127500Y-109450000D03*
X247127500Y-110550000D03*
X245102500Y-109450000D03*
X245102500Y-110550000D03*
%TD*%
D10*
%TO.C,10 nF*%
X109975000Y-109700000D03*
X107025000Y-109700000D03*
%TD*%
D11*
%TO.C,REF\u002A\u002A20*%
X149127500Y-109450000D03*
X149127500Y-110550000D03*
X147102500Y-109450000D03*
X147102500Y-110550000D03*
%TD*%
D10*
%TO.C,10 nF*%
X110000000Y-105100000D03*
X107050000Y-105100000D03*
%TD*%
M02*
