%TF.GenerationSoftware,KiCad,Pcbnew,9.0.2*%
%TF.CreationDate,2025-11-18T13:45:16-06:00*%
%TF.ProjectId,Muon-16ch,4d756f6e-2d31-4366-9368-2e6b69636164,rev?*%
%TF.SameCoordinates,Original*%
%TF.FileFunction,Legend,Bot*%
%TF.FilePolarity,Positive*%
%FSLAX46Y46*%
G04 Gerber Fmt 4.6, Leading zero omitted, Abs format (unit mm)*
G04 Created by KiCad (PCBNEW 9.0.2) date 2025-11-18 13:45:16*
%MOMM*%
%LPD*%
G01*
G04 APERTURE LIST*
%ADD10C,0.000000*%
%ADD11C,0.120000*%
G04 APERTURE END LIST*
D10*
%TO.C,G\u002A\u002A\u002A*%
G36*
X207304367Y-134624781D02*
G01*
X207304367Y-137744323D01*
X206264849Y-137744323D01*
X205225332Y-137744323D01*
X205218070Y-136688657D01*
X205210808Y-135632991D01*
X204601150Y-136688657D01*
X203991492Y-137744323D01*
X202792146Y-137744323D01*
X201592799Y-137744323D01*
X201585537Y-136693147D01*
X201578275Y-135641971D01*
X200971492Y-136693147D01*
X200364709Y-137744323D01*
X199175047Y-137744323D01*
X197985385Y-137744323D01*
X198018317Y-137681932D01*
X198024493Y-137670948D01*
X198055950Y-137615930D01*
X198111956Y-137518361D01*
X198190497Y-137381735D01*
X198289559Y-137209548D01*
X198407126Y-137005292D01*
X198541186Y-136772463D01*
X198689724Y-136514555D01*
X198850726Y-136235062D01*
X199022178Y-135937479D01*
X199202065Y-135625301D01*
X199388374Y-135302020D01*
X199579091Y-134971133D01*
X199772201Y-134636132D01*
X199965689Y-134300514D01*
X200157543Y-133967771D01*
X200345748Y-133641399D01*
X200528290Y-133324891D01*
X200703154Y-133021743D01*
X200868326Y-132735448D01*
X201021793Y-132469501D01*
X201161540Y-132227396D01*
X201285553Y-132012628D01*
X201391818Y-131828690D01*
X201478321Y-131679079D01*
X201578275Y-131506302D01*
X202624786Y-131505771D01*
X203671296Y-131505240D01*
X203678498Y-132823696D01*
X203685699Y-134142153D01*
X204445755Y-132823696D01*
X205205811Y-131505240D01*
X206255089Y-131505240D01*
X207304367Y-131505240D01*
X207304367Y-134624781D01*
G37*
G36*
X160931069Y-131505453D02*
G01*
X161330785Y-131506080D01*
X161707907Y-131507094D01*
X162059147Y-131508470D01*
X162381220Y-131510181D01*
X162670838Y-131512200D01*
X162924716Y-131514503D01*
X163139567Y-131517062D01*
X163312105Y-131519852D01*
X163439043Y-131522846D01*
X163517096Y-131526019D01*
X163542977Y-131529343D01*
X163538741Y-131537532D01*
X163510826Y-131587516D01*
X163459501Y-131677859D01*
X163387709Y-131803430D01*
X163298393Y-131959095D01*
X163194497Y-132139722D01*
X163078962Y-132340176D01*
X162954733Y-132555326D01*
X162375732Y-133557205D01*
X161526676Y-133558150D01*
X160677620Y-133559096D01*
X159471976Y-135651709D01*
X158266332Y-137744323D01*
X157080327Y-137744323D01*
X156928546Y-137744213D01*
X156688219Y-137743567D01*
X156469292Y-137742397D01*
X156277441Y-137740768D01*
X156118342Y-137738744D01*
X155997671Y-137736389D01*
X155921106Y-137733766D01*
X155894323Y-137730941D01*
X155902369Y-137715454D01*
X155935888Y-137655463D01*
X155993624Y-137553645D01*
X156073571Y-137413493D01*
X156173725Y-137238503D01*
X156292079Y-137032170D01*
X156426629Y-136797990D01*
X156575369Y-136539456D01*
X156736295Y-136260065D01*
X156907401Y-135963311D01*
X157086681Y-135652690D01*
X157224991Y-135413070D01*
X157398185Y-135112722D01*
X157561662Y-134828895D01*
X157713418Y-134565088D01*
X157851447Y-134324799D01*
X157973744Y-134111527D01*
X158078302Y-133928769D01*
X158163116Y-133780025D01*
X158226181Y-133668793D01*
X158265491Y-133598572D01*
X158279039Y-133572859D01*
X158254353Y-133569369D01*
X158180206Y-133565655D01*
X158062751Y-133561991D01*
X157908186Y-133558517D01*
X157722706Y-133555371D01*
X157512510Y-133552692D01*
X157283793Y-133550618D01*
X156288546Y-133543340D01*
X156835118Y-132596387D01*
X156863923Y-132546495D01*
X156984802Y-132337419D01*
X157097789Y-132142455D01*
X157199585Y-131967260D01*
X157286895Y-131817492D01*
X157356420Y-131698811D01*
X157404864Y-131616873D01*
X157428930Y-131577336D01*
X157476169Y-131505240D01*
X160514195Y-131505240D01*
X160931069Y-131505453D01*
G37*
G36*
X191159576Y-134579213D02*
G01*
X191053065Y-134763723D01*
X190878842Y-135065409D01*
X190713053Y-135352337D01*
X190557841Y-135620808D01*
X190415348Y-135867123D01*
X190287713Y-136087585D01*
X190177080Y-136278496D01*
X190085588Y-136436158D01*
X190015379Y-136556872D01*
X189968595Y-136636941D01*
X189947376Y-136672667D01*
X189939918Y-136682385D01*
X189893083Y-136723725D01*
X189807916Y-136784376D01*
X189682293Y-136865687D01*
X189514086Y-136969004D01*
X189301171Y-137095676D01*
X189041423Y-137247051D01*
X188185044Y-137742325D01*
X186901511Y-137743324D01*
X185617978Y-137744323D01*
X184744560Y-137240073D01*
X184575663Y-137142264D01*
X184367506Y-137020470D01*
X184201904Y-136921644D01*
X184075296Y-136843513D01*
X183984122Y-136783800D01*
X183924822Y-136740230D01*
X183893836Y-136710529D01*
X183887603Y-136692420D01*
X183899263Y-136670349D01*
X183937026Y-136602790D01*
X183998825Y-136493715D01*
X184082635Y-136346657D01*
X184186430Y-136165149D01*
X184308186Y-135952723D01*
X184445876Y-135712912D01*
X184457694Y-135692358D01*
X186835940Y-135692358D01*
X187482952Y-135692358D01*
X188129965Y-135692358D01*
X188739819Y-134636156D01*
X188828241Y-134482920D01*
X188950159Y-134271303D01*
X189061478Y-134077692D01*
X189159336Y-133907086D01*
X189240871Y-133764486D01*
X189303221Y-133654891D01*
X189343523Y-133583301D01*
X189358916Y-133554715D01*
X189355443Y-133551410D01*
X189310437Y-133544223D01*
X189218491Y-133538306D01*
X189085618Y-133533887D01*
X188917831Y-133531196D01*
X188721143Y-133530460D01*
X188074127Y-133531445D01*
X187561136Y-134422799D01*
X187450532Y-134615087D01*
X187332709Y-134820158D01*
X187222859Y-135011588D01*
X187124923Y-135182494D01*
X187042846Y-135325996D01*
X186980571Y-135435211D01*
X186942042Y-135503256D01*
X186835940Y-135692358D01*
X184457694Y-135692358D01*
X184597477Y-135449249D01*
X184760962Y-135165267D01*
X184934307Y-134864498D01*
X185115486Y-134550475D01*
X186326909Y-132451934D01*
X187147402Y-131978587D01*
X187967895Y-131505240D01*
X189840069Y-131505240D01*
X191712243Y-131505240D01*
X192017221Y-132035054D01*
X192322199Y-132564868D01*
X191750887Y-133554715D01*
X191159576Y-134579213D01*
G37*
G36*
X176160554Y-135113386D02*
G01*
X176150154Y-135131400D01*
X175949408Y-135479340D01*
X175756715Y-135813710D01*
X175573869Y-136131381D01*
X175402661Y-136429220D01*
X175244884Y-136704097D01*
X175102329Y-136952883D01*
X174976788Y-137172446D01*
X174870055Y-137359655D01*
X174783920Y-137511381D01*
X174720176Y-137624492D01*
X174680616Y-137695858D01*
X174667031Y-137722348D01*
X174655361Y-137725402D01*
X174595249Y-137729805D01*
X174489009Y-137733812D01*
X174342274Y-137737322D01*
X174160680Y-137740230D01*
X173949860Y-137742435D01*
X173715447Y-137743834D01*
X173463077Y-137744323D01*
X172259123Y-137744323D01*
X172591523Y-137168941D01*
X172646250Y-137074221D01*
X172741521Y-136909380D01*
X172828689Y-136758623D01*
X172902847Y-136630435D01*
X172959085Y-136533302D01*
X172992497Y-136475709D01*
X173061072Y-136357860D01*
X172410831Y-136357860D01*
X171760590Y-136357860D01*
X171362882Y-137050689D01*
X170965175Y-137743517D01*
X169777114Y-137743920D01*
X168589054Y-137744323D01*
X168657143Y-137626473D01*
X168669106Y-137605748D01*
X168709167Y-137536306D01*
X168773701Y-137424420D01*
X168860747Y-137273491D01*
X168968346Y-137086918D01*
X169094535Y-136868100D01*
X169237356Y-136620439D01*
X169394847Y-136347332D01*
X169565048Y-136052180D01*
X169745999Y-135738383D01*
X169935739Y-135409339D01*
X170132307Y-135068449D01*
X170265800Y-134837097D01*
X170457071Y-134506167D01*
X170596154Y-134266019D01*
X172975546Y-134266019D01*
X172985331Y-134268122D01*
X173041472Y-134271323D01*
X173140734Y-134274040D01*
X173275418Y-134276130D01*
X173437823Y-134277453D01*
X173620251Y-134277866D01*
X174264957Y-134277567D01*
X174478029Y-133903521D01*
X174691102Y-133529475D01*
X174043426Y-133529475D01*
X173395751Y-133529475D01*
X173185649Y-133891674D01*
X173147849Y-133957035D01*
X173079717Y-134075957D01*
X173025067Y-134172837D01*
X172988732Y-134239062D01*
X172975546Y-134266019D01*
X170596154Y-134266019D01*
X170639919Y-134190453D01*
X170812424Y-133893243D01*
X170972663Y-133617822D01*
X171118715Y-133367477D01*
X171248658Y-133145494D01*
X171360572Y-132955161D01*
X171452535Y-132799763D01*
X171522625Y-132682587D01*
X171568920Y-132606919D01*
X171589500Y-132576047D01*
X171623908Y-132550917D01*
X171700914Y-132501599D01*
X171814670Y-132431662D01*
X171959442Y-132344556D01*
X172129492Y-132243731D01*
X172319085Y-132132640D01*
X172522485Y-132014733D01*
X173405350Y-131505647D01*
X175235481Y-131505656D01*
X177065612Y-131505664D01*
X177359844Y-132016031D01*
X177654077Y-132526397D01*
X177074979Y-133529475D01*
X176160554Y-135113386D01*
G37*
G36*
X167169513Y-131581495D02*
G01*
X167160553Y-131597706D01*
X167124837Y-131660633D01*
X167064784Y-131765628D01*
X166982514Y-131909009D01*
X166880147Y-132087094D01*
X166759802Y-132296201D01*
X166623598Y-132532649D01*
X166473654Y-132792756D01*
X166312090Y-133072840D01*
X166141025Y-133369219D01*
X165962579Y-133678213D01*
X165845842Y-133880348D01*
X165673626Y-134178750D01*
X165510932Y-134460892D01*
X165359787Y-134723247D01*
X165222218Y-134962288D01*
X165100252Y-135174486D01*
X164995916Y-135356315D01*
X164911237Y-135504247D01*
X164848243Y-135614753D01*
X164808960Y-135684307D01*
X164795415Y-135709381D01*
X164805200Y-135711230D01*
X164861341Y-135714021D01*
X164960603Y-135716363D01*
X165095287Y-135718134D01*
X165257692Y-135719214D01*
X165440120Y-135719482D01*
X166084826Y-135718877D01*
X167295740Y-133618990D01*
X168506655Y-131519104D01*
X169689480Y-131511873D01*
X169952208Y-131510409D01*
X170195690Y-131509513D01*
X170392644Y-131509523D01*
X170547770Y-131510575D01*
X170665767Y-131512810D01*
X170751333Y-131516367D01*
X170809169Y-131521384D01*
X170843973Y-131528000D01*
X170860444Y-131536355D01*
X170863281Y-131546587D01*
X170862883Y-131547718D01*
X170844571Y-131582708D01*
X170800385Y-131662438D01*
X170731980Y-131784018D01*
X170641008Y-131944556D01*
X170529122Y-132141162D01*
X170397978Y-132370943D01*
X170249227Y-132631008D01*
X170084523Y-132918468D01*
X169905520Y-133230429D01*
X169713871Y-133564002D01*
X169511230Y-133916295D01*
X169299251Y-134284416D01*
X169079585Y-134665475D01*
X167304913Y-137742418D01*
X165414912Y-137743370D01*
X163524911Y-137744323D01*
X162683580Y-137258421D01*
X162513555Y-137159819D01*
X162330561Y-137052720D01*
X162168089Y-136956584D01*
X162031661Y-136874728D01*
X161926800Y-136810469D01*
X161859028Y-136767124D01*
X161833866Y-136748010D01*
X161842773Y-136728023D01*
X161877462Y-136662788D01*
X161936600Y-136555470D01*
X162018377Y-136409255D01*
X162120979Y-136227330D01*
X162242596Y-136012882D01*
X162381415Y-135769098D01*
X162535625Y-135499165D01*
X162703413Y-135206268D01*
X162882970Y-134893596D01*
X163072481Y-134564335D01*
X163270137Y-134221671D01*
X163430770Y-133943411D01*
X163624258Y-133608030D01*
X163809132Y-133287352D01*
X163983478Y-132984710D01*
X164145382Y-132703433D01*
X164292929Y-132446854D01*
X164424205Y-132218302D01*
X164537297Y-132021109D01*
X164630289Y-131858605D01*
X164701268Y-131734122D01*
X164748320Y-131650990D01*
X164769531Y-131612541D01*
X164824271Y-131505240D01*
X166016778Y-131505240D01*
X167209285Y-131505240D01*
X167169513Y-131581495D01*
G37*
G36*
X196547374Y-131609224D02*
G01*
X196539678Y-131623273D01*
X196504520Y-131685514D01*
X196444848Y-131790079D01*
X196362841Y-131933180D01*
X196260677Y-132111031D01*
X196140537Y-132319846D01*
X196004599Y-132555838D01*
X195855042Y-132815221D01*
X195694047Y-133094209D01*
X195523791Y-133389014D01*
X195346455Y-133695851D01*
X194200163Y-135678493D01*
X194837486Y-135685950D01*
X195050351Y-135687727D01*
X195219623Y-135687302D01*
X195344401Y-135684367D01*
X195430219Y-135678695D01*
X195482613Y-135670056D01*
X195507118Y-135658220D01*
X195518039Y-135641590D01*
X195555421Y-135579772D01*
X195616862Y-135476040D01*
X195700289Y-135333952D01*
X195803633Y-135157063D01*
X195924823Y-134948932D01*
X196061789Y-134713116D01*
X196212460Y-134453171D01*
X196374767Y-134172654D01*
X196546637Y-133875124D01*
X196726001Y-133564137D01*
X197912576Y-131505240D01*
X199102357Y-131505240D01*
X199259245Y-131505421D01*
X199498774Y-131506438D01*
X199716396Y-131508262D01*
X199906518Y-131510795D01*
X200063548Y-131513937D01*
X200181896Y-131517591D01*
X200255969Y-131521657D01*
X200280175Y-131526037D01*
X200272141Y-131539948D01*
X200238917Y-131597436D01*
X200182773Y-131694564D01*
X200106588Y-131826355D01*
X200013241Y-131987827D01*
X199905609Y-132174003D01*
X199786572Y-132379902D01*
X199659009Y-132600545D01*
X199546379Y-132795430D01*
X199408782Y-133033637D01*
X199250905Y-133307050D01*
X199076472Y-133609215D01*
X198889208Y-133933679D01*
X198692835Y-134273989D01*
X198491079Y-134623692D01*
X198287663Y-134976335D01*
X198086311Y-135325465D01*
X197890747Y-135664628D01*
X197782430Y-135852449D01*
X197609611Y-136151882D01*
X197445675Y-136435643D01*
X197292710Y-136700132D01*
X197152802Y-136941752D01*
X197028040Y-137156902D01*
X196920511Y-137341985D01*
X196832303Y-137493401D01*
X196765504Y-137607552D01*
X196722200Y-137680838D01*
X196704480Y-137709661D01*
X196697055Y-137714067D01*
X196666176Y-137720632D01*
X196609349Y-137726250D01*
X196523294Y-137730980D01*
X196404733Y-137734883D01*
X196250388Y-137738020D01*
X196056979Y-137740450D01*
X195821228Y-137742235D01*
X195539856Y-137743435D01*
X195209584Y-137744111D01*
X194827134Y-137744323D01*
X192976997Y-137744323D01*
X192106130Y-137241512D01*
X191908825Y-137127531D01*
X191724594Y-137020978D01*
X191561329Y-136926425D01*
X191424445Y-136847013D01*
X191319356Y-136785884D01*
X191251479Y-136746179D01*
X191226228Y-136731040D01*
X191226260Y-136730636D01*
X191241563Y-136701019D01*
X191282670Y-136626831D01*
X191347813Y-136511167D01*
X191435219Y-136357121D01*
X191543118Y-136167787D01*
X191669741Y-135946259D01*
X191813316Y-135695633D01*
X191972073Y-135419001D01*
X192144241Y-135119459D01*
X192328050Y-134800100D01*
X192521729Y-134464019D01*
X192723508Y-134114309D01*
X194229823Y-131505240D01*
X195415912Y-131505240D01*
X196602001Y-131505240D01*
X196547374Y-131609224D01*
G37*
G36*
X181843750Y-131619513D02*
G01*
X181840877Y-131624612D01*
X181806635Y-131684545D01*
X181749385Y-131784005D01*
X181673359Y-131915666D01*
X181582792Y-132072201D01*
X181481918Y-132246286D01*
X181374972Y-132430593D01*
X181347523Y-132477913D01*
X181247060Y-132651960D01*
X181157557Y-132808344D01*
X181082421Y-132941021D01*
X181025056Y-133043950D01*
X180988868Y-133111086D01*
X180977261Y-133136386D01*
X180978023Y-133136263D01*
X181007426Y-133116975D01*
X181076208Y-133067958D01*
X181180111Y-132992351D01*
X181314878Y-132893292D01*
X181476253Y-132773919D01*
X181659977Y-132637372D01*
X181861795Y-132486788D01*
X182077449Y-132325306D01*
X183170733Y-131505240D01*
X184367681Y-131505240D01*
X184516208Y-131505420D01*
X184761793Y-131506559D01*
X184984488Y-131508651D01*
X185178864Y-131511585D01*
X185339495Y-131515252D01*
X185460951Y-131519541D01*
X185537805Y-131524342D01*
X185564629Y-131529545D01*
X185564263Y-131530537D01*
X185546411Y-131563660D01*
X185503165Y-131640769D01*
X185436527Y-131758381D01*
X185348500Y-131913016D01*
X185241085Y-132101193D01*
X185116286Y-132319431D01*
X184976104Y-132564250D01*
X184822541Y-132832168D01*
X184657601Y-133119705D01*
X184483284Y-133423379D01*
X184301594Y-133739710D01*
X184114533Y-134065218D01*
X183924103Y-134396420D01*
X183732306Y-134729836D01*
X183541145Y-135061985D01*
X183352622Y-135389387D01*
X183168739Y-135708561D01*
X182991499Y-136016025D01*
X182822904Y-136308299D01*
X182664955Y-136581901D01*
X182519656Y-136833352D01*
X182389009Y-137059169D01*
X182275015Y-137255873D01*
X182179678Y-137419982D01*
X182105000Y-137548015D01*
X182052982Y-137636492D01*
X182025628Y-137681932D01*
X181986276Y-137744323D01*
X180795337Y-137744323D01*
X179604398Y-137744323D01*
X179793640Y-137418504D01*
X179869887Y-137287171D01*
X180040047Y-136993544D01*
X180183934Y-136744353D01*
X180302891Y-136537215D01*
X180398263Y-136369746D01*
X180471392Y-136239563D01*
X180523621Y-136144283D01*
X180556294Y-136081522D01*
X180570754Y-136048898D01*
X180568345Y-136044026D01*
X180565837Y-136045967D01*
X180528263Y-136074382D01*
X180451576Y-136132051D01*
X180340153Y-136215691D01*
X180198372Y-136322022D01*
X180030608Y-136447762D01*
X179841239Y-136589629D01*
X179634641Y-136744341D01*
X179415192Y-136908618D01*
X178298615Y-137744323D01*
X177118285Y-137744323D01*
X177042710Y-137744281D01*
X176776114Y-137743410D01*
X176539002Y-137741479D01*
X176335701Y-137738583D01*
X176170542Y-137734812D01*
X176047852Y-137730262D01*
X175971962Y-137725024D01*
X175947198Y-137719191D01*
X175947846Y-137717865D01*
X175967386Y-137682906D01*
X176012730Y-137603303D01*
X176082229Y-137481916D01*
X176174236Y-137321608D01*
X176287103Y-137125242D01*
X176419182Y-136895678D01*
X176568825Y-136635781D01*
X176734385Y-136348411D01*
X176914213Y-136036430D01*
X177106661Y-135702702D01*
X177310082Y-135350087D01*
X177522829Y-134981449D01*
X177743252Y-134599649D01*
X179530062Y-131505240D01*
X180718989Y-131505240D01*
X181907915Y-131505240D01*
X181843750Y-131619513D01*
G37*
G36*
X217121566Y-130380907D02*
G01*
X217178471Y-130411008D01*
X217269159Y-130461196D01*
X217384758Y-130526535D01*
X217516394Y-130602091D01*
X217599854Y-130650454D01*
X217718773Y-130720611D01*
X217799113Y-130771232D01*
X217847130Y-130807369D01*
X217869078Y-130834073D01*
X217871213Y-130856394D01*
X217859790Y-130879383D01*
X217857104Y-130883723D01*
X217830278Y-130929086D01*
X217779404Y-131016248D01*
X217707352Y-131140237D01*
X217616990Y-131296083D01*
X217511188Y-131478813D01*
X217392814Y-131683455D01*
X217264737Y-131905039D01*
X217129826Y-132138593D01*
X216990950Y-132379145D01*
X216850978Y-132621723D01*
X216712779Y-132861355D01*
X216579222Y-133093071D01*
X216453175Y-133311899D01*
X216337507Y-133512866D01*
X216235088Y-133691002D01*
X216148787Y-133841335D01*
X216081471Y-133958892D01*
X216036011Y-134038704D01*
X216015275Y-134075797D01*
X216006590Y-134095470D01*
X216000478Y-134143284D01*
X216013870Y-134210269D01*
X216048970Y-134311858D01*
X216079743Y-134390458D01*
X216180083Y-134613946D01*
X216291979Y-134822590D01*
X216409376Y-135006603D01*
X216526220Y-135156197D01*
X216636456Y-135261585D01*
X216641451Y-135265368D01*
X216826591Y-135373577D01*
X217022618Y-135432277D01*
X217221354Y-135442041D01*
X217414622Y-135403442D01*
X217594246Y-135317053D01*
X217752048Y-135183446D01*
X217773537Y-135159802D01*
X217808387Y-135119831D01*
X217843442Y-135076538D01*
X217880985Y-135026190D01*
X217923296Y-134965055D01*
X217972659Y-134889400D01*
X218031354Y-134795493D01*
X218101663Y-134679602D01*
X218185868Y-134537994D01*
X218286251Y-134366938D01*
X218405094Y-134162700D01*
X218544678Y-133921549D01*
X218707285Y-133639751D01*
X218895197Y-133313576D01*
X219032971Y-133075146D01*
X219174109Y-132832672D01*
X219305260Y-132609172D01*
X219423922Y-132408817D01*
X219527596Y-132235779D01*
X219613782Y-132094226D01*
X219679982Y-131988330D01*
X219723693Y-131922261D01*
X219742418Y-131900189D01*
X219753499Y-131904789D01*
X219807269Y-131932199D01*
X219895473Y-131979729D01*
X220008961Y-132042413D01*
X220138586Y-132115283D01*
X220242611Y-132175062D01*
X220363783Y-132248506D01*
X220442959Y-132302998D01*
X220484834Y-132341883D01*
X220494107Y-132368508D01*
X220493802Y-132369411D01*
X220475892Y-132404138D01*
X220432367Y-132483074D01*
X220365195Y-132602772D01*
X220276345Y-132759781D01*
X220167783Y-132950655D01*
X220041480Y-133171944D01*
X219899401Y-133420200D01*
X219743516Y-133691974D01*
X219575792Y-133983817D01*
X219398197Y-134292282D01*
X219212700Y-134613918D01*
X219210663Y-134617448D01*
X219022905Y-134943310D01*
X218841585Y-135259100D01*
X218668843Y-135561029D01*
X218506819Y-135845306D01*
X218357653Y-136108142D01*
X218223484Y-136345749D01*
X218106453Y-136554336D01*
X218008699Y-136730114D01*
X217932361Y-136869295D01*
X217879581Y-136968087D01*
X217852497Y-137022703D01*
X217827395Y-137085035D01*
X217781436Y-137211395D01*
X217728525Y-137367439D01*
X217673387Y-137539105D01*
X217620747Y-137712330D01*
X217581758Y-137841568D01*
X217530936Y-138001415D01*
X217483030Y-138143299D01*
X217442059Y-138255408D01*
X217412040Y-138325929D01*
X217339150Y-138445677D01*
X217206613Y-138590824D01*
X217051816Y-138692244D01*
X216906518Y-138732263D01*
X216754491Y-138724659D01*
X216609693Y-138672994D01*
X216484342Y-138581653D01*
X216390652Y-138455018D01*
X216361792Y-138385021D01*
X216334170Y-138227125D01*
X216346130Y-138062073D01*
X216397413Y-137910698D01*
X216412630Y-137885322D01*
X216472615Y-137805809D01*
X216562443Y-137701488D01*
X216674454Y-137581046D01*
X216800989Y-137453165D01*
X216910073Y-137345301D01*
X217070318Y-137181491D01*
X217202413Y-137036849D01*
X217315101Y-136900547D01*
X217417123Y-136761754D01*
X217517220Y-136609639D01*
X217624136Y-136433372D01*
X217702276Y-136300914D01*
X217529250Y-136318428D01*
X217347596Y-136323164D01*
X217099201Y-136284530D01*
X216864172Y-136195550D01*
X216647916Y-136059125D01*
X216455838Y-135878155D01*
X216293346Y-135655539D01*
X216241887Y-135565018D01*
X216127306Y-135328441D01*
X216019875Y-135059410D01*
X215926212Y-134773820D01*
X215898589Y-134679835D01*
X215866390Y-134571030D01*
X215842128Y-134489922D01*
X215829603Y-134449280D01*
X215819260Y-134441999D01*
X215782672Y-134466279D01*
X215725922Y-134532238D01*
X215669162Y-134599559D01*
X215530666Y-134727925D01*
X215375985Y-134834677D01*
X215224581Y-134905333D01*
X215085429Y-134936842D01*
X214883195Y-134942068D01*
X214678916Y-134906868D01*
X214491015Y-134833056D01*
X214343944Y-134738470D01*
X214195902Y-134605378D01*
X214079568Y-134457205D01*
X214006381Y-134306382D01*
X213990414Y-134249726D01*
X213962704Y-134040469D01*
X213973236Y-133810102D01*
X214020669Y-133571948D01*
X214103664Y-133339331D01*
X214167358Y-133196231D01*
X214255140Y-133250106D01*
X214342922Y-133303982D01*
X214289802Y-133474658D01*
X214279408Y-133510539D01*
X214250045Y-133657808D01*
X214238685Y-133804500D01*
X214245873Y-133933520D01*
X214272156Y-134027770D01*
X214291680Y-134059494D01*
X214375718Y-134141141D01*
X214484612Y-134200059D01*
X214595875Y-134222707D01*
X214654788Y-134216358D01*
X214763068Y-134170346D01*
X214875395Y-134077055D01*
X214996330Y-133933188D01*
X215016085Y-133904078D01*
X215066363Y-133824062D01*
X215139944Y-133703185D01*
X215234292Y-133545741D01*
X215346871Y-133356024D01*
X215475146Y-133138327D01*
X215616582Y-132896944D01*
X215768641Y-132636169D01*
X215928790Y-132360295D01*
X216094492Y-132073615D01*
X216223643Y-131850180D01*
X216380660Y-131579903D01*
X216528262Y-131327333D01*
X216664182Y-131096272D01*
X216786153Y-130890523D01*
X216891907Y-130713889D01*
X216979178Y-130570173D01*
X217045698Y-130463179D01*
X217089199Y-130396708D01*
X217107415Y-130374565D01*
X217121566Y-130380907D01*
G37*
G36*
X222330645Y-126203878D02*
G01*
X222249684Y-126510646D01*
X222163488Y-126836712D01*
X222073107Y-127178080D01*
X221482017Y-129408890D01*
X221791708Y-129715307D01*
X221824227Y-129747711D01*
X221951702Y-129878431D01*
X222078374Y-130013360D01*
X222191130Y-130138338D01*
X222276860Y-130239206D01*
X222343541Y-130323351D01*
X222680649Y-130800436D01*
X222975730Y-131309828D01*
X223225647Y-131844948D01*
X223427262Y-132399219D01*
X223577438Y-132966063D01*
X223608015Y-133111359D01*
X223657129Y-133373063D01*
X223691637Y-133611052D01*
X223713596Y-133844574D01*
X223725067Y-134092879D01*
X223727846Y-134351047D01*
X223728106Y-134375218D01*
X223722496Y-134680839D01*
X223697132Y-135064658D01*
X223648726Y-135431078D01*
X223574431Y-135800270D01*
X223471397Y-136192400D01*
X223443670Y-136289907D01*
X223414658Y-136395586D01*
X223394868Y-136472167D01*
X223387508Y-136507593D01*
X223394090Y-136516455D01*
X223434781Y-136560992D01*
X223510138Y-136640080D01*
X223617278Y-136750782D01*
X223753319Y-136890164D01*
X223915378Y-137055293D01*
X224100572Y-137243233D01*
X224306019Y-137451049D01*
X224528836Y-137675809D01*
X224766141Y-137914576D01*
X225015050Y-138164416D01*
X225165932Y-138315795D01*
X225407126Y-138558262D01*
X225634478Y-138787402D01*
X225845167Y-139000340D01*
X225864354Y-139019794D01*
X226036370Y-139194202D01*
X226205268Y-139366113D01*
X226349037Y-139513200D01*
X226464858Y-139632587D01*
X226549909Y-139721402D01*
X226601369Y-139776768D01*
X226616415Y-139795814D01*
X226610927Y-139795521D01*
X226599716Y-139794002D01*
X226581362Y-139790407D01*
X226552547Y-139783867D01*
X226509951Y-139773515D01*
X226450257Y-139758487D01*
X226370144Y-139737913D01*
X226266294Y-139710929D01*
X226135389Y-139676666D01*
X225974108Y-139634259D01*
X225779135Y-139582840D01*
X225547149Y-139521544D01*
X225274832Y-139449502D01*
X224958865Y-139365849D01*
X224595929Y-139269717D01*
X224182705Y-139160240D01*
X222163554Y-138625268D01*
X221893870Y-138899515D01*
X221704717Y-139085129D01*
X221246879Y-139482324D01*
X220765021Y-139829716D01*
X220257802Y-140128044D01*
X219723878Y-140378053D01*
X219540470Y-140444119D01*
X219161908Y-140580482D01*
X218570548Y-140736075D01*
X218364492Y-140778490D01*
X218104122Y-140822558D01*
X217851522Y-140852319D01*
X217591073Y-140869080D01*
X217307154Y-140874147D01*
X216984144Y-140868828D01*
X216957634Y-140868040D01*
X216672092Y-140856024D01*
X216423172Y-140837208D01*
X216193647Y-140809061D01*
X215966293Y-140769053D01*
X215723885Y-140714652D01*
X215449197Y-140643329D01*
X215067281Y-140539497D01*
X213965682Y-141621816D01*
X213928289Y-141658561D01*
X213699091Y-141884055D01*
X213464851Y-142114926D01*
X213231950Y-142344862D01*
X213006766Y-142567549D01*
X212795678Y-142776675D01*
X212605065Y-142965927D01*
X212441307Y-143128992D01*
X212310783Y-143259556D01*
X212284602Y-143285823D01*
X212143754Y-143426585D01*
X212016995Y-143552376D01*
X211909315Y-143658310D01*
X211825701Y-143739503D01*
X211771141Y-143791068D01*
X211750626Y-143808121D01*
X211752735Y-143796978D01*
X211767045Y-143738020D01*
X211793905Y-143631875D01*
X211832291Y-143482480D01*
X211881175Y-143293771D01*
X211939532Y-143069686D01*
X212006336Y-142814162D01*
X212030328Y-142722678D01*
X212550193Y-142722678D01*
X212553265Y-142723435D01*
X212587382Y-142699497D01*
X212657459Y-142638508D01*
X212761450Y-142542426D01*
X212897311Y-142413211D01*
X213062995Y-142252818D01*
X213256458Y-142063208D01*
X213475654Y-141846338D01*
X213718538Y-141604166D01*
X214878015Y-140444119D01*
X214489295Y-140219817D01*
X214393628Y-140165232D01*
X214257498Y-140091007D01*
X214161638Y-140044523D01*
X214102191Y-140023989D01*
X214075302Y-140027615D01*
X214072090Y-140032457D01*
X214045391Y-140076709D01*
X213995300Y-140161625D01*
X213925000Y-140281710D01*
X213837673Y-140431468D01*
X213736500Y-140605406D01*
X213624665Y-140798028D01*
X213505348Y-141003839D01*
X213381734Y-141217344D01*
X213257003Y-141433048D01*
X213134337Y-141645456D01*
X213016920Y-141849074D01*
X212907932Y-142038405D01*
X212810557Y-142207956D01*
X212727977Y-142352231D01*
X212663373Y-142465735D01*
X212639326Y-142509316D01*
X212590910Y-142605529D01*
X212559223Y-142681136D01*
X212550193Y-142722678D01*
X212030328Y-142722678D01*
X212080560Y-142531134D01*
X212161179Y-142224540D01*
X212247167Y-141898316D01*
X212337497Y-141556399D01*
X212931225Y-139311534D01*
X212605008Y-138978529D01*
X212470484Y-138840204D01*
X212327544Y-138689181D01*
X212208555Y-138556705D01*
X212104405Y-138431746D01*
X212005984Y-138303275D01*
X211904182Y-138160262D01*
X211789888Y-137991677D01*
X211633515Y-137746719D01*
X211360838Y-137251956D01*
X211135603Y-136739390D01*
X210954727Y-136201550D01*
X210815124Y-135630966D01*
X210804867Y-135579851D01*
X210749972Y-135267325D01*
X210713630Y-134971124D01*
X210693524Y-134667730D01*
X210689369Y-134443365D01*
X211822235Y-134443365D01*
X211847003Y-134900034D01*
X211912796Y-135331877D01*
X211926555Y-135395927D01*
X211942295Y-135463471D01*
X211951003Y-135493222D01*
X211964136Y-135492135D01*
X212022486Y-135479750D01*
X212119177Y-135456451D01*
X212245137Y-135424447D01*
X212391299Y-135385949D01*
X212490772Y-135359718D01*
X212625253Y-135325632D01*
X212733877Y-135299780D01*
X212807437Y-135284322D01*
X212836730Y-135281417D01*
X212841810Y-135292459D01*
X212859731Y-135347224D01*
X212885830Y-135436344D01*
X212916397Y-135547433D01*
X212984490Y-135801876D01*
X212896557Y-135826031D01*
X212892726Y-135827080D01*
X212828117Y-135844487D01*
X212724675Y-135872077D01*
X212595846Y-135906274D01*
X212455077Y-135943499D01*
X212426108Y-135951230D01*
X212299017Y-135987311D01*
X212195929Y-136020055D01*
X212126786Y-136046126D01*
X212101529Y-136062185D01*
X212102083Y-136068080D01*
X212117657Y-136122460D01*
X212151226Y-136213676D01*
X212198184Y-136330772D01*
X212253928Y-136462791D01*
X212313856Y-136598775D01*
X212373362Y-136727769D01*
X212427843Y-136838814D01*
X212476129Y-136930292D01*
X212699142Y-137299977D01*
X212959968Y-137661470D01*
X213250188Y-138005351D01*
X213561388Y-138322200D01*
X213885152Y-138602596D01*
X214213063Y-138837118D01*
X214286496Y-138883903D01*
X214382646Y-138723119D01*
X214424334Y-138652552D01*
X214489316Y-138541312D01*
X214569465Y-138403307D01*
X214658402Y-138249521D01*
X214749749Y-138090938D01*
X214761259Y-138070917D01*
X214843904Y-137927386D01*
X214916258Y-137802111D01*
X214973993Y-137702554D01*
X215012785Y-137636178D01*
X215028307Y-137610445D01*
X215028911Y-137610300D01*
X215058099Y-137622779D01*
X215121386Y-137654963D01*
X215206128Y-137699976D01*
X215299681Y-137750938D01*
X215389401Y-137800971D01*
X215462645Y-137843197D01*
X215506770Y-137870738D01*
X215497394Y-137892014D01*
X215463608Y-137955282D01*
X215408732Y-138054191D01*
X215336332Y-138182383D01*
X215249974Y-138333499D01*
X215153222Y-138501183D01*
X215064534Y-138655016D01*
X214975991Y-138810397D01*
X214900706Y-138944445D01*
X214842365Y-139050526D01*
X214804656Y-139122007D01*
X214791267Y-139152255D01*
X214801765Y-139165759D01*
X214855606Y-139200017D01*
X214947802Y-139247069D01*
X215070058Y-139303002D01*
X215214076Y-139363904D01*
X215371560Y-139425864D01*
X215518994Y-139476985D01*
X215751937Y-139545152D01*
X216005993Y-139608044D01*
X216261484Y-139660893D01*
X216498735Y-139698932D01*
X216735737Y-139722649D01*
X217031184Y-139736468D01*
X217337417Y-139736514D01*
X217638213Y-139723186D01*
X217917349Y-139696884D01*
X218158603Y-139658008D01*
X218185438Y-139652260D01*
X218263406Y-139630803D01*
X218298774Y-139608293D01*
X218301617Y-139579178D01*
X218273660Y-139480823D01*
X218239627Y-139355550D01*
X218203926Y-139219857D01*
X218169246Y-139084405D01*
X218138276Y-138959853D01*
X218113706Y-138856861D01*
X218098223Y-138786088D01*
X218094518Y-138758194D01*
X218105369Y-138753552D01*
X218159792Y-138736460D01*
X218248672Y-138711107D01*
X218359696Y-138681075D01*
X218614479Y-138613750D01*
X218670744Y-138823742D01*
X218671073Y-138824970D01*
X218707631Y-138961649D01*
X218749350Y-139117974D01*
X218787265Y-139260346D01*
X218847522Y-139486959D01*
X219086261Y-139402696D01*
X219450948Y-139254890D01*
X219871191Y-139038570D01*
X220278228Y-138780759D01*
X220660830Y-138488664D01*
X221007767Y-138169492D01*
X221076251Y-138098954D01*
X221216130Y-137948861D01*
X221349058Y-137798750D01*
X221469726Y-137655227D01*
X221572822Y-137524897D01*
X221634961Y-137439272D01*
X222838753Y-137439272D01*
X222840783Y-137465780D01*
X222855821Y-137482128D01*
X222867310Y-137489194D01*
X222923281Y-137522264D01*
X223020301Y-137578948D01*
X223153798Y-137656594D01*
X223319200Y-137752554D01*
X223511937Y-137864175D01*
X223727437Y-137988807D01*
X223961128Y-138123798D01*
X224208441Y-138266499D01*
X224343303Y-138344113D01*
X224583875Y-138481748D01*
X224808580Y-138609273D01*
X225012835Y-138724149D01*
X225192062Y-138823834D01*
X225341677Y-138905789D01*
X225457101Y-138967473D01*
X225533753Y-139006346D01*
X225567050Y-139019869D01*
X225567751Y-139019794D01*
X225557983Y-138998326D01*
X225509345Y-138939393D01*
X225422794Y-138843999D01*
X225299289Y-138713145D01*
X225139788Y-138547837D01*
X224945247Y-138349076D01*
X224716626Y-138117865D01*
X224454882Y-137855209D01*
X224255486Y-137656246D01*
X224056000Y-137458193D01*
X223871210Y-137275743D01*
X223704600Y-137112289D01*
X223559656Y-136971222D01*
X223439862Y-136855931D01*
X223348704Y-136769808D01*
X223289665Y-136716243D01*
X223266231Y-136698628D01*
X223257281Y-136707441D01*
X223222750Y-136756172D01*
X223169095Y-136839961D01*
X223101658Y-136950359D01*
X223025780Y-137078918D01*
X223023237Y-137083296D01*
X222941973Y-137224614D01*
X222886222Y-137326105D01*
X222852857Y-137395185D01*
X222838753Y-137439272D01*
X221634961Y-137439272D01*
X221653037Y-137414364D01*
X221705060Y-137330235D01*
X221723581Y-137279114D01*
X221701607Y-137259051D01*
X221637545Y-137215230D01*
X221537657Y-137151741D01*
X221408220Y-137072489D01*
X221255511Y-136981380D01*
X221085808Y-136882319D01*
X220919816Y-136785603D01*
X220766697Y-136694751D01*
X220636689Y-136615912D01*
X220536062Y-136552942D01*
X220471087Y-136509699D01*
X220448035Y-136490039D01*
X220451259Y-136479118D01*
X220475779Y-136427109D01*
X220519158Y-136345338D01*
X220575101Y-136245898D01*
X220605673Y-136193449D01*
X220658520Y-136108631D01*
X220695917Y-136061952D01*
X220724864Y-136045776D01*
X220752360Y-136052465D01*
X220777049Y-136066264D01*
X220846281Y-136105688D01*
X220950891Y-136165610D01*
X221083734Y-136241928D01*
X221237666Y-136330544D01*
X221405542Y-136427355D01*
X221541739Y-136505665D01*
X221693360Y-136592069D01*
X221823013Y-136665095D01*
X221924205Y-136721118D01*
X221990443Y-136756514D01*
X222015232Y-136767659D01*
X222026390Y-136751172D01*
X222060501Y-136686134D01*
X222106277Y-136588050D01*
X222158227Y-136469289D01*
X222210862Y-136342221D01*
X222258690Y-136219213D01*
X222296273Y-136115464D01*
X222424741Y-135693918D01*
X222513712Y-135268476D01*
X222565566Y-134825424D01*
X222582680Y-134351047D01*
X222581301Y-134223845D01*
X222574944Y-134042218D01*
X222564244Y-133860646D01*
X222550106Y-133688361D01*
X222533438Y-133534594D01*
X222515144Y-133408579D01*
X222496129Y-133319548D01*
X222477300Y-133276732D01*
X222470002Y-133275385D01*
X222418931Y-133282025D01*
X222328633Y-133300942D01*
X222209069Y-133329932D01*
X222070197Y-133366793D01*
X221936391Y-133403412D01*
X221801443Y-133438733D01*
X221706468Y-133460202D01*
X221643910Y-133468716D01*
X221606210Y-133465171D01*
X221585813Y-133450464D01*
X221575160Y-133425491D01*
X221544032Y-133308977D01*
X221512459Y-133178750D01*
X221489633Y-133070291D01*
X221477730Y-132994115D01*
X221478929Y-132960736D01*
X221488800Y-132955904D01*
X221543753Y-132937437D01*
X221637725Y-132909438D01*
X221760989Y-132874758D01*
X221903821Y-132836244D01*
X221979265Y-132816149D01*
X222112533Y-132779820D01*
X222220882Y-132749191D01*
X222294724Y-132727002D01*
X222324473Y-132715993D01*
X222324251Y-132690752D01*
X222305417Y-132622689D01*
X222270225Y-132522246D01*
X222222548Y-132399047D01*
X222166259Y-132262717D01*
X222105231Y-132122878D01*
X222043338Y-131989155D01*
X221984452Y-131871171D01*
X221788861Y-131527566D01*
X221505183Y-131113690D01*
X221180734Y-130726557D01*
X220808515Y-130357156D01*
X220772579Y-130324953D01*
X220670689Y-130237969D01*
X220556999Y-130145549D01*
X220440554Y-130054545D01*
X220330396Y-129971808D01*
X220235571Y-129904189D01*
X220165121Y-129858539D01*
X220128092Y-129841710D01*
X220113820Y-129855662D01*
X220074231Y-129911596D01*
X220014536Y-130004260D01*
X219938799Y-130127157D01*
X219851082Y-130273790D01*
X219755447Y-130437663D01*
X219680546Y-130566869D01*
X219592085Y-130717644D01*
X219515497Y-130846140D01*
X219454687Y-130945885D01*
X219413561Y-131010410D01*
X219396023Y-131033241D01*
X219384781Y-131028839D01*
X219333690Y-131002457D01*
X219252476Y-130957598D01*
X219152464Y-130900437D01*
X218924470Y-130768233D01*
X219259377Y-130188580D01*
X219323644Y-130077131D01*
X219412100Y-129922978D01*
X219488733Y-129788532D01*
X219549540Y-129680856D01*
X219590516Y-129607016D01*
X219607657Y-129574076D01*
X219603522Y-129558278D01*
X219558495Y-129521385D01*
X219472389Y-129474029D01*
X219352888Y-129419157D01*
X219207676Y-129359717D01*
X219044437Y-129298659D01*
X218870857Y-129238930D01*
X218694618Y-129183480D01*
X218523405Y-129135258D01*
X218364902Y-129097210D01*
X218283296Y-129080216D01*
X218041949Y-129036600D01*
X217812325Y-129007164D01*
X217577808Y-128990587D01*
X217321783Y-128985544D01*
X217027632Y-128990713D01*
X216876262Y-128996877D01*
X216683865Y-129008803D01*
X216503590Y-129024250D01*
X216344100Y-129042211D01*
X216214059Y-129061680D01*
X216122129Y-129081651D01*
X216076974Y-129101119D01*
X216077255Y-129110960D01*
X216088013Y-129165136D01*
X216110040Y-129258175D01*
X216141072Y-129380687D01*
X216178841Y-129523281D01*
X216199668Y-129601675D01*
X216234059Y-129737771D01*
X216260241Y-129850414D01*
X216275956Y-129929625D01*
X216278943Y-129965420D01*
X216276665Y-129968298D01*
X216238113Y-129987785D01*
X216164098Y-130014815D01*
X216069262Y-130045101D01*
X215968248Y-130074357D01*
X215875700Y-130098295D01*
X215806261Y-130112629D01*
X215774573Y-130113073D01*
X215764531Y-130084893D01*
X215743081Y-130013476D01*
X215713177Y-129909295D01*
X215677744Y-129782801D01*
X215639710Y-129644443D01*
X215602001Y-129504670D01*
X215567544Y-129373933D01*
X215558021Y-129338560D01*
X215536520Y-129282736D01*
X215508008Y-129263540D01*
X215459544Y-129268320D01*
X215424553Y-129278133D01*
X215340883Y-129307652D01*
X215231205Y-129350339D01*
X215110106Y-129400667D01*
X215019812Y-129440241D01*
X214541873Y-129681206D01*
X214100624Y-129960694D01*
X213689467Y-130283277D01*
X213301802Y-130653528D01*
X213244667Y-130714815D01*
X213142272Y-130830658D01*
X213037844Y-130955026D01*
X212937857Y-131079583D01*
X212848785Y-131195996D01*
X212808062Y-131252769D01*
X212777102Y-131295932D01*
X212729281Y-131371055D01*
X212711798Y-131413032D01*
X212726958Y-131429084D01*
X212784257Y-131470412D01*
X212878139Y-131531667D01*
X213002144Y-131608764D01*
X213149812Y-131697621D01*
X213314684Y-131794153D01*
X213446358Y-131870313D01*
X213602427Y-131960758D01*
X213738280Y-132039684D01*
X213846963Y-132103041D01*
X213921519Y-132146782D01*
X213954993Y-132166858D01*
X213967070Y-132188997D01*
X213957515Y-132232517D01*
X213923232Y-132305636D01*
X213861130Y-132416577D01*
X213828232Y-132471758D01*
X213771959Y-132559315D01*
X213727596Y-132619658D01*
X213702625Y-132642139D01*
X213677179Y-132631283D01*
X213609298Y-132595916D01*
X213506171Y-132539582D01*
X213374454Y-132465970D01*
X213220806Y-132378766D01*
X213051882Y-132281659D01*
X212898282Y-132193053D01*
X212744691Y-132104955D01*
X212613176Y-132030052D01*
X212510205Y-131972011D01*
X212442248Y-131934498D01*
X212415775Y-131921179D01*
X212409008Y-131926185D01*
X212381800Y-131970536D01*
X212341404Y-132052693D01*
X212292021Y-132162830D01*
X212237851Y-132291117D01*
X212183094Y-132427728D01*
X212131950Y-132562834D01*
X212088621Y-132686609D01*
X211986357Y-133040625D01*
X211892684Y-133502037D01*
X211837720Y-133973491D01*
X211822235Y-134443365D01*
X210689369Y-134443365D01*
X210687336Y-134333624D01*
X210693470Y-134039941D01*
X210738904Y-133489758D01*
X210827639Y-132961111D01*
X210958532Y-132461899D01*
X211037043Y-132212336D01*
X209420633Y-130578255D01*
X209276407Y-130432371D01*
X209035663Y-130188492D01*
X208808327Y-129957735D01*
X208597248Y-129743018D01*
X208564020Y-129709134D01*
X208858348Y-129709134D01*
X208873546Y-129735471D01*
X208927215Y-129798722D01*
X209018053Y-129897538D01*
X209144762Y-130030567D01*
X209306042Y-130196457D01*
X209500593Y-130393859D01*
X209727115Y-130621422D01*
X209984309Y-130877793D01*
X210051086Y-130944133D01*
X210284848Y-131176266D01*
X210483123Y-131372777D01*
X210648962Y-131536427D01*
X210785416Y-131669978D01*
X210895538Y-131776191D01*
X210982378Y-131857828D01*
X211048988Y-131917649D01*
X211098419Y-131958417D01*
X211133724Y-131982892D01*
X211157954Y-131993837D01*
X211174160Y-131994012D01*
X211185394Y-131986179D01*
X211194708Y-131973099D01*
X211218394Y-131935295D01*
X211290779Y-131815281D01*
X211364607Y-131687332D01*
X211434904Y-131560712D01*
X211496701Y-131444683D01*
X211545024Y-131348508D01*
X211574901Y-131281449D01*
X211581361Y-131252769D01*
X211549238Y-131230563D01*
X211474250Y-131184294D01*
X211362299Y-131117550D01*
X211218698Y-131033343D01*
X211048758Y-130934688D01*
X210857789Y-130824597D01*
X210651105Y-130706084D01*
X210434015Y-130582163D01*
X210211833Y-130455847D01*
X209989869Y-130330150D01*
X209773435Y-130208084D01*
X209567842Y-130092665D01*
X209378402Y-129986904D01*
X209210426Y-129893817D01*
X209069227Y-129816415D01*
X208960115Y-129757713D01*
X208888403Y-129720725D01*
X208859401Y-129708462D01*
X208858348Y-129709134D01*
X208564020Y-129709134D01*
X208405276Y-129547257D01*
X208235261Y-129373369D01*
X208090053Y-129224271D01*
X207972501Y-129102881D01*
X207885456Y-129012113D01*
X207831766Y-128954886D01*
X207814282Y-128934116D01*
X207823092Y-128935369D01*
X207878501Y-128948136D01*
X207981350Y-128973569D01*
X208127667Y-129010638D01*
X208313478Y-129058314D01*
X208534810Y-129115567D01*
X208787687Y-129181369D01*
X209068137Y-129254689D01*
X209372186Y-129334498D01*
X209695860Y-129419766D01*
X210035186Y-129509465D01*
X212246032Y-130094872D01*
X212610516Y-129738112D01*
X212855095Y-129508232D01*
X213305793Y-129133535D01*
X213771009Y-128809822D01*
X214255526Y-128534507D01*
X214764126Y-128305002D01*
X214876346Y-128266107D01*
X219560699Y-128266107D01*
X219574916Y-128280740D01*
X219628461Y-128318753D01*
X219712520Y-128372462D01*
X219817195Y-128435336D01*
X219888886Y-128477205D01*
X220011158Y-128548471D01*
X220120110Y-128611811D01*
X220198472Y-128657178D01*
X220323253Y-128729094D01*
X220885751Y-127753248D01*
X220895774Y-127735859D01*
X221028947Y-127504894D01*
X221162292Y-127273743D01*
X221291166Y-127050446D01*
X221410927Y-126843044D01*
X221516931Y-126659575D01*
X221604537Y-126508082D01*
X221669102Y-126396602D01*
X221714027Y-126318120D01*
X221783754Y-126191768D01*
X221839537Y-126084856D01*
X221876547Y-126006776D01*
X221889957Y-125966923D01*
X221883992Y-125967341D01*
X221844396Y-125997617D01*
X221769798Y-126063794D01*
X221662664Y-126163508D01*
X221525463Y-126294396D01*
X221360661Y-126454095D01*
X221170727Y-126640241D01*
X220958126Y-126850472D01*
X220725328Y-127082423D01*
X220526523Y-127281469D01*
X220328056Y-127480774D01*
X220144968Y-127665244D01*
X219980675Y-127831408D01*
X219838593Y-127975793D01*
X219722138Y-128094927D01*
X219634727Y-128185339D01*
X219579775Y-128243557D01*
X219560699Y-128266107D01*
X214876346Y-128266107D01*
X215301592Y-128118718D01*
X215872708Y-127973069D01*
X215928318Y-127961337D01*
X216158744Y-127917354D01*
X216375404Y-127885151D01*
X216592073Y-127863621D01*
X216822525Y-127851658D01*
X217080534Y-127848157D01*
X217379874Y-127852009D01*
X217439757Y-127853474D01*
X217794193Y-127869358D01*
X218111585Y-127898105D01*
X218407008Y-127941874D01*
X218695538Y-128002827D01*
X218992249Y-128083125D01*
X219046982Y-128099239D01*
X219159673Y-128131691D01*
X219250958Y-128157030D01*
X219304989Y-128170813D01*
X219307001Y-128171112D01*
X219324635Y-128167116D01*
X219352426Y-128151281D01*
X219392783Y-128121313D01*
X219448113Y-128074917D01*
X219520824Y-128009799D01*
X219613326Y-127923665D01*
X219728027Y-127814219D01*
X219867334Y-127679168D01*
X220033657Y-127516216D01*
X220229404Y-127323071D01*
X220456983Y-127097436D01*
X220718802Y-126837018D01*
X221017271Y-126539522D01*
X221183423Y-126373914D01*
X221426547Y-126132065D01*
X221656194Y-125904186D01*
X221869508Y-125693084D01*
X222063630Y-125501565D01*
X222235702Y-125332438D01*
X222382866Y-125188509D01*
X222502264Y-125072585D01*
X222591039Y-124987472D01*
X222646332Y-124935978D01*
X222665286Y-124920910D01*
X222662773Y-124932408D01*
X222647799Y-124992235D01*
X222620253Y-125099323D01*
X222581185Y-125249679D01*
X222531642Y-125439308D01*
X222472673Y-125664213D01*
X222405324Y-125920402D01*
X222393068Y-125966923D01*
X222330645Y-126203878D01*
G37*
G36*
X253433566Y-134672927D02*
G01*
X253433566Y-138121586D01*
X251909566Y-138121586D01*
X250385566Y-138121586D01*
X250385566Y-137613586D01*
X250385566Y-137105586D01*
X251333182Y-137105586D01*
X252280797Y-137105586D01*
X252280797Y-136118894D01*
X252280797Y-135132202D01*
X251499258Y-135132202D01*
X250717720Y-135132202D01*
X250717720Y-134624202D01*
X250717720Y-134116202D01*
X251499258Y-134116202D01*
X252280797Y-134116202D01*
X252280797Y-133178355D01*
X252280797Y-132240509D01*
X251342621Y-132240509D01*
X250404445Y-132240509D01*
X250409659Y-131737394D01*
X250414874Y-131234278D01*
X251924220Y-131229273D01*
X253433566Y-131224268D01*
X253433566Y-134672927D01*
G37*
G36*
X259944758Y-131229099D02*
G01*
X260516258Y-131234278D01*
X260521273Y-134653509D01*
X260521458Y-134784550D01*
X260521896Y-135143849D01*
X260522218Y-135492019D01*
X260522427Y-135827064D01*
X260522525Y-136146986D01*
X260522514Y-136449790D01*
X260522398Y-136733480D01*
X260522179Y-136996060D01*
X260521859Y-137235532D01*
X260521440Y-137449902D01*
X260520925Y-137637172D01*
X260520318Y-137795346D01*
X260519619Y-137922429D01*
X260518832Y-138016423D01*
X260517958Y-138075333D01*
X260517002Y-138097163D01*
X260508751Y-138103332D01*
X260481139Y-138109498D01*
X260431135Y-138114227D01*
X260355404Y-138117658D01*
X260250609Y-138119935D01*
X260113415Y-138121197D01*
X259940487Y-138121586D01*
X259373258Y-138121586D01*
X259373258Y-134672753D01*
X259373258Y-131223919D01*
X259944758Y-131229099D01*
G37*
G36*
X279737220Y-131229099D02*
G01*
X280308720Y-131234278D01*
X280313735Y-134653509D01*
X280313920Y-134784550D01*
X280314358Y-135143849D01*
X280314679Y-135492019D01*
X280314888Y-135827064D01*
X280314986Y-136146986D01*
X280314976Y-136449790D01*
X280314860Y-136733480D01*
X280314640Y-136996060D01*
X280314320Y-137235532D01*
X280313901Y-137449902D01*
X280313387Y-137637172D01*
X280312779Y-137795346D01*
X280312080Y-137922429D01*
X280311293Y-138016423D01*
X280310420Y-138075333D01*
X280309463Y-138097163D01*
X280301213Y-138103332D01*
X280273601Y-138109498D01*
X280223597Y-138114227D01*
X280147865Y-138117658D01*
X280043070Y-138119935D01*
X279905877Y-138121197D01*
X279732949Y-138121586D01*
X279165720Y-138121586D01*
X279165720Y-134672753D01*
X279165720Y-131223919D01*
X279737220Y-131229099D01*
G37*
G36*
X272136758Y-131229273D02*
G01*
X273646105Y-131234278D01*
X273651119Y-134653509D01*
X273651305Y-134784550D01*
X273651742Y-135143849D01*
X273652064Y-135492019D01*
X273652273Y-135827064D01*
X273652371Y-136146986D01*
X273652360Y-136449790D01*
X273652244Y-136733480D01*
X273652025Y-136996060D01*
X273651705Y-137235532D01*
X273651286Y-137449902D01*
X273650772Y-137637172D01*
X273650164Y-137795346D01*
X273649465Y-137922429D01*
X273648678Y-138016423D01*
X273647805Y-138075333D01*
X273646848Y-138097163D01*
X273643038Y-138100058D01*
X273624115Y-138104365D01*
X273587595Y-138108098D01*
X273531328Y-138111294D01*
X273453169Y-138113985D01*
X273350968Y-138116207D01*
X273222578Y-138117993D01*
X273065852Y-138119378D01*
X272878640Y-138120395D01*
X272658796Y-138121080D01*
X272404172Y-138121465D01*
X272112619Y-138121586D01*
X270587676Y-138121586D01*
X270592890Y-137618471D01*
X270598105Y-137115355D01*
X271550605Y-137110285D01*
X272503105Y-137105214D01*
X272503105Y-136118708D01*
X272503105Y-135132202D01*
X271711467Y-135132202D01*
X270919830Y-135132202D01*
X270925044Y-134629086D01*
X270930258Y-134125971D01*
X271716682Y-134120864D01*
X272503105Y-134115758D01*
X272503105Y-133178134D01*
X272503105Y-132240509D01*
X271565258Y-132240509D01*
X270627412Y-132240509D01*
X270627412Y-131732389D01*
X270627412Y-131224268D01*
X272136758Y-131229273D01*
G37*
G36*
X275125592Y-131224704D02*
G01*
X275270229Y-131225727D01*
X275381544Y-131227759D01*
X275462914Y-131230948D01*
X275517718Y-131235441D01*
X275549334Y-131241387D01*
X275561140Y-131248932D01*
X275561247Y-131249299D01*
X275565753Y-131274268D01*
X275575853Y-131335344D01*
X275591182Y-131430201D01*
X275611373Y-131556516D01*
X275636060Y-131711964D01*
X275664877Y-131894221D01*
X275697457Y-132100963D01*
X275733433Y-132329865D01*
X275772441Y-132578603D01*
X275814112Y-132844854D01*
X275858082Y-133126291D01*
X275903983Y-133420592D01*
X275951449Y-133725432D01*
X275954303Y-133743775D01*
X276001793Y-134048814D01*
X276047748Y-134343646D01*
X276091797Y-134625905D01*
X276133568Y-134893222D01*
X276172689Y-135143231D01*
X276208788Y-135373565D01*
X276241495Y-135581855D01*
X276270436Y-135765736D01*
X276295241Y-135922838D01*
X276315538Y-136050795D01*
X276330954Y-136147241D01*
X276341119Y-136209806D01*
X276345661Y-136236125D01*
X276348848Y-136232719D01*
X276358111Y-136194628D01*
X276373048Y-136118399D01*
X276393609Y-136004324D01*
X276419747Y-135852698D01*
X276451413Y-135663813D01*
X276488557Y-135437964D01*
X276531132Y-135175443D01*
X276579089Y-134876544D01*
X276632379Y-134541559D01*
X276690955Y-134170783D01*
X276754766Y-133764509D01*
X276769441Y-133670837D01*
X276817429Y-133364550D01*
X276863626Y-133069712D01*
X276907679Y-132788586D01*
X276949233Y-132523436D01*
X276987933Y-132276525D01*
X277023424Y-132050116D01*
X277055351Y-131846471D01*
X277083360Y-131667854D01*
X277107095Y-131516528D01*
X277126203Y-131394756D01*
X277140328Y-131304801D01*
X277149115Y-131248926D01*
X277152209Y-131229394D01*
X277154141Y-131229002D01*
X277184263Y-131227800D01*
X277247140Y-131226724D01*
X277337944Y-131225816D01*
X277451848Y-131225117D01*
X277584024Y-131224668D01*
X277729643Y-131224509D01*
X277743335Y-131224510D01*
X277907673Y-131224757D01*
X278037205Y-131225579D01*
X278135905Y-131227178D01*
X278207747Y-131229759D01*
X278256706Y-131233523D01*
X278286757Y-131238675D01*
X278301872Y-131245416D01*
X278306028Y-131253950D01*
X278305719Y-131256339D01*
X278300129Y-131288509D01*
X278287865Y-131356018D01*
X278269371Y-131456501D01*
X278245091Y-131587590D01*
X278215471Y-131746921D01*
X278180956Y-131932126D01*
X278141991Y-132140839D01*
X278099020Y-132370694D01*
X278052489Y-132619325D01*
X278002843Y-132884365D01*
X277950525Y-133163449D01*
X277895982Y-133454210D01*
X277839659Y-133754282D01*
X277782000Y-134061298D01*
X277723449Y-134372893D01*
X277664453Y-134686701D01*
X277605456Y-135000354D01*
X277546903Y-135311486D01*
X277489239Y-135617733D01*
X277432909Y-135916726D01*
X277378357Y-136206101D01*
X277326029Y-136483490D01*
X277276370Y-136746528D01*
X277229824Y-136992848D01*
X277186837Y-137220084D01*
X277147853Y-137425870D01*
X277113318Y-137607840D01*
X277083676Y-137763627D01*
X277059372Y-137890865D01*
X277040851Y-137987188D01*
X277028559Y-138050230D01*
X277022939Y-138077625D01*
X277012253Y-138121586D01*
X276383315Y-138121586D01*
X275754376Y-138121586D01*
X275113485Y-134717009D01*
X275082895Y-134554519D01*
X275016052Y-134199523D01*
X274951245Y-133855434D01*
X274888844Y-133524217D01*
X274829220Y-133207835D01*
X274772743Y-132908252D01*
X274719786Y-132627433D01*
X274670717Y-132367341D01*
X274625908Y-132129941D01*
X274585730Y-131917196D01*
X274550552Y-131731070D01*
X274520747Y-131573528D01*
X274496683Y-131446533D01*
X274478733Y-131352049D01*
X274467267Y-131292040D01*
X274462654Y-131268471D01*
X274452715Y-131224509D01*
X275002523Y-131224509D01*
X275125592Y-131224704D01*
G37*
G36*
X258103258Y-134672335D02*
G01*
X258103258Y-138124514D01*
X257033528Y-138115957D01*
X257033184Y-138115954D01*
X256786179Y-138113868D01*
X256574503Y-138111668D01*
X256394412Y-138109060D01*
X256242163Y-138105746D01*
X256114013Y-138101432D01*
X256006219Y-138095822D01*
X255915037Y-138088620D01*
X255836725Y-138079531D01*
X255767538Y-138068259D01*
X255703735Y-138054509D01*
X255641571Y-138037986D01*
X255577304Y-138018392D01*
X255507190Y-137995434D01*
X255481589Y-137986671D01*
X255271243Y-137894097D01*
X255088989Y-137774528D01*
X254935459Y-137628672D01*
X254811284Y-137457236D01*
X254717097Y-137260927D01*
X254653531Y-137040454D01*
X254649988Y-137020774D01*
X254645894Y-136989160D01*
X254642286Y-136948410D01*
X254639145Y-136896384D01*
X254636450Y-136830945D01*
X254634181Y-136749953D01*
X254632317Y-136651271D01*
X254630839Y-136532759D01*
X254629726Y-136392279D01*
X254628957Y-136227692D01*
X254628512Y-136036860D01*
X254628371Y-135817645D01*
X254628514Y-135567907D01*
X254628711Y-135430630D01*
X255761284Y-135430630D01*
X255761600Y-135703024D01*
X255762422Y-135939484D01*
X255763757Y-136140914D01*
X255765611Y-136308215D01*
X255767992Y-136442292D01*
X255770906Y-136544046D01*
X255774361Y-136614382D01*
X255778362Y-136654201D01*
X255791684Y-136718387D01*
X255838684Y-136849117D01*
X255908922Y-136950172D01*
X256004691Y-137024305D01*
X256128285Y-137074269D01*
X256180572Y-137086045D01*
X256250077Y-137095213D01*
X256339796Y-137101250D01*
X256456000Y-137104571D01*
X256604963Y-137105586D01*
X256970028Y-137105586D01*
X256970028Y-134671073D01*
X256970028Y-132236561D01*
X256564605Y-132243420D01*
X256459885Y-132245260D01*
X256348808Y-132247781D01*
X256265693Y-132251059D01*
X256204171Y-132255858D01*
X256157876Y-132262940D01*
X256120439Y-132273070D01*
X256085494Y-132287010D01*
X256046673Y-132305526D01*
X256039501Y-132309096D01*
X255937305Y-132375131D01*
X255861325Y-132460285D01*
X255802989Y-132574005D01*
X255797654Y-132589066D01*
X255792545Y-132608866D01*
X255788037Y-132634720D01*
X255784082Y-132668985D01*
X255780633Y-132714020D01*
X255777643Y-132772185D01*
X255775066Y-132845837D01*
X255772853Y-132937337D01*
X255770958Y-133049043D01*
X255769334Y-133183313D01*
X255767933Y-133342508D01*
X255766709Y-133528984D01*
X255765614Y-133745102D01*
X255764602Y-133993221D01*
X255763624Y-134275698D01*
X255762635Y-134594894D01*
X255762141Y-134774431D01*
X255761466Y-135121400D01*
X255761284Y-135430630D01*
X254628711Y-135430630D01*
X254628919Y-135285509D01*
X254629567Y-134968311D01*
X254630438Y-134614175D01*
X254630896Y-134440978D01*
X254631818Y-134110724D01*
X254632738Y-133816300D01*
X254633692Y-133555517D01*
X254634720Y-133326186D01*
X254635857Y-133126119D01*
X254637144Y-132953127D01*
X254638616Y-132805021D01*
X254640312Y-132679613D01*
X254642269Y-132574714D01*
X254644526Y-132488136D01*
X254647119Y-132417689D01*
X254650087Y-132361184D01*
X254653468Y-132316434D01*
X254657299Y-132281249D01*
X254661618Y-132253442D01*
X254666462Y-132230822D01*
X254671870Y-132211202D01*
X254675558Y-132199172D01*
X254757967Y-131989982D01*
X254867308Y-131807383D01*
X255004397Y-131650722D01*
X255170051Y-131519344D01*
X255365087Y-131412595D01*
X255590319Y-131329822D01*
X255846566Y-131270371D01*
X255868772Y-131266731D01*
X255921827Y-131259917D01*
X255986892Y-131254043D01*
X256067351Y-131248996D01*
X256166586Y-131244662D01*
X256287982Y-131240930D01*
X256434922Y-131237685D01*
X256610788Y-131234815D01*
X256818965Y-131232206D01*
X257062835Y-131229747D01*
X258103258Y-131220157D01*
X258103258Y-134671073D01*
X258103258Y-134672335D01*
G37*
G36*
X285022428Y-134677932D02*
G01*
X285027367Y-138121586D01*
X284450928Y-138121586D01*
X283874489Y-138121586D01*
X283874489Y-136744125D01*
X283874489Y-135366663D01*
X283601638Y-135366663D01*
X283529310Y-135366842D01*
X283440618Y-135368207D01*
X283380798Y-135371549D01*
X283343557Y-135377609D01*
X283322604Y-135387131D01*
X283311645Y-135400855D01*
X283305170Y-135418490D01*
X283287401Y-135471265D01*
X283259627Y-135555704D01*
X283222826Y-135668772D01*
X283177979Y-135807431D01*
X283126065Y-135968645D01*
X283068063Y-136149378D01*
X283004954Y-136346592D01*
X282937716Y-136557250D01*
X282867330Y-136778317D01*
X282440156Y-138121586D01*
X281855924Y-138121586D01*
X281821421Y-138121576D01*
X281655442Y-138121121D01*
X281524593Y-138119892D01*
X281425543Y-138117745D01*
X281354960Y-138114541D01*
X281309512Y-138110136D01*
X281285870Y-138104391D01*
X281280700Y-138097163D01*
X281280779Y-138096949D01*
X281295124Y-138056350D01*
X281319896Y-137984355D01*
X281353948Y-137884385D01*
X281396138Y-137759863D01*
X281445319Y-137614209D01*
X281500348Y-137450845D01*
X281560080Y-137273193D01*
X281623371Y-137084674D01*
X281689076Y-136888710D01*
X281756050Y-136688723D01*
X281823149Y-136488134D01*
X281889228Y-136290364D01*
X281953143Y-136098836D01*
X282013749Y-135916970D01*
X282069902Y-135748189D01*
X282120457Y-135595914D01*
X282164269Y-135463566D01*
X282200194Y-135354568D01*
X282227088Y-135272340D01*
X282243806Y-135220304D01*
X282249202Y-135201883D01*
X282248127Y-135201166D01*
X282224550Y-135186777D01*
X282177606Y-135158649D01*
X282116028Y-135122020D01*
X282000922Y-135043601D01*
X281848607Y-134901830D01*
X281721563Y-134733840D01*
X281622916Y-134544014D01*
X281555790Y-134336730D01*
X281554484Y-134331105D01*
X281546092Y-134290883D01*
X281539168Y-134247424D01*
X281533575Y-134196746D01*
X281529175Y-134134866D01*
X281525829Y-134057802D01*
X281523401Y-133961573D01*
X281521752Y-133842195D01*
X281520745Y-133695688D01*
X281520496Y-133607724D01*
X282664495Y-133607724D01*
X282665314Y-133719405D01*
X282667473Y-133807079D01*
X282671136Y-133875471D01*
X282676466Y-133929304D01*
X282683627Y-133973302D01*
X282692783Y-134012188D01*
X282700757Y-134039343D01*
X282758957Y-134164004D01*
X282845441Y-134261704D01*
X282960216Y-134332449D01*
X282966847Y-134335370D01*
X283004096Y-134350304D01*
X283042237Y-134361555D01*
X283087635Y-134369795D01*
X283146653Y-134375693D01*
X283225655Y-134379920D01*
X283331005Y-134383146D01*
X283469066Y-134386041D01*
X283874489Y-134393689D01*
X283874489Y-133315391D01*
X283874489Y-132237094D01*
X283469066Y-132245589D01*
X283428309Y-132246511D01*
X283263989Y-132251966D01*
X283135413Y-132259424D01*
X283043680Y-132268805D01*
X282989886Y-132280032D01*
X282971629Y-132287083D01*
X282873369Y-132345360D01*
X282785221Y-132429405D01*
X282719238Y-132528167D01*
X282710430Y-132546266D01*
X282699415Y-132572157D01*
X282690705Y-132600673D01*
X282683970Y-132636370D01*
X282678880Y-132683805D01*
X282675105Y-132747533D01*
X282672318Y-132832111D01*
X282670187Y-132942095D01*
X282668384Y-133082043D01*
X282666579Y-133256509D01*
X282666220Y-133293449D01*
X282664852Y-133467313D01*
X282664495Y-133607724D01*
X281520496Y-133607724D01*
X281520242Y-133518069D01*
X281520105Y-133305355D01*
X281520107Y-133273171D01*
X281520287Y-133065633D01*
X281520853Y-132892630D01*
X281521942Y-132750179D01*
X281523692Y-132634298D01*
X281526241Y-132541004D01*
X281529726Y-132466316D01*
X281534286Y-132406252D01*
X281540058Y-132356830D01*
X281547180Y-132314067D01*
X281555790Y-132273981D01*
X281558724Y-132261718D01*
X281628658Y-132050829D01*
X281729487Y-131860714D01*
X281858996Y-131694245D01*
X282014974Y-131554297D01*
X282195206Y-131443742D01*
X282210787Y-131436100D01*
X282304228Y-131393671D01*
X282399709Y-131357012D01*
X282500595Y-131325763D01*
X282610247Y-131299565D01*
X282732029Y-131278057D01*
X282869304Y-131260881D01*
X283025435Y-131247676D01*
X283203786Y-131238083D01*
X283407719Y-131231743D01*
X283640597Y-131228295D01*
X283905784Y-131227380D01*
X284206643Y-131228638D01*
X285017489Y-131234278D01*
X285020474Y-133315391D01*
X285022428Y-134677932D01*
G37*
G36*
X269547967Y-134677932D02*
G01*
X269552905Y-138121586D01*
X268976467Y-138121586D01*
X268400028Y-138121586D01*
X268400028Y-136744125D01*
X268400028Y-135366663D01*
X268126070Y-135366663D01*
X268093313Y-135366674D01*
X267994240Y-135367164D01*
X267926033Y-135369097D01*
X267882225Y-135373441D01*
X267856346Y-135381164D01*
X267841927Y-135393236D01*
X267832500Y-135410625D01*
X267827004Y-135425728D01*
X267809940Y-135476457D01*
X267782771Y-135559071D01*
X267746498Y-135670468D01*
X267702123Y-135807550D01*
X267650645Y-135967216D01*
X267593067Y-136146366D01*
X267530388Y-136341900D01*
X267463609Y-136550718D01*
X267393732Y-136769720D01*
X267341293Y-136934118D01*
X267274059Y-137144488D01*
X267210856Y-137341792D01*
X267152659Y-137523008D01*
X267100442Y-137685113D01*
X267055183Y-137825087D01*
X267017856Y-137939906D01*
X266989437Y-138026549D01*
X266970902Y-138081994D01*
X266963226Y-138103220D01*
X266960833Y-138104360D01*
X266929691Y-138108040D01*
X266867429Y-138111434D01*
X266779897Y-138114486D01*
X266672943Y-138117141D01*
X266552415Y-138119345D01*
X266424164Y-138121043D01*
X266294036Y-138122180D01*
X266167882Y-138122700D01*
X266051550Y-138122549D01*
X265950888Y-138121671D01*
X265871745Y-138120013D01*
X265819970Y-138117519D01*
X265801412Y-138114134D01*
X265801921Y-138112284D01*
X265811407Y-138082957D01*
X265832163Y-138020225D01*
X265863245Y-137926906D01*
X265903709Y-137805817D01*
X265952611Y-137659776D01*
X266009007Y-137491600D01*
X266071953Y-137304106D01*
X266140505Y-137100112D01*
X266213719Y-136882435D01*
X266290651Y-136653893D01*
X266298365Y-136630979D01*
X266378051Y-136393365D01*
X266452456Y-136169849D01*
X266520765Y-135962974D01*
X266582160Y-135775282D01*
X266635825Y-135609315D01*
X266680942Y-135467616D01*
X266716695Y-135352727D01*
X266742267Y-135267190D01*
X266756841Y-135213547D01*
X266759600Y-135194341D01*
X266753679Y-135191630D01*
X266719068Y-135171684D01*
X266664102Y-135137559D01*
X266597631Y-135094699D01*
X266447303Y-134981818D01*
X266317373Y-134847121D01*
X266214331Y-134691222D01*
X266132313Y-134506715D01*
X266110052Y-134442667D01*
X266090924Y-134378639D01*
X266075272Y-134312279D01*
X266062808Y-134239506D01*
X266053245Y-134156238D01*
X266046295Y-134058394D01*
X266041669Y-133941891D01*
X266039080Y-133802649D01*
X266038239Y-133636584D01*
X266038859Y-133439616D01*
X266039821Y-133315125D01*
X267188643Y-133315125D01*
X267188658Y-133365107D01*
X267189220Y-133551536D01*
X267191133Y-133704266D01*
X267195121Y-133827635D01*
X267201908Y-133925982D01*
X267212219Y-134003646D01*
X267226777Y-134064967D01*
X267246308Y-134114283D01*
X267271535Y-134155932D01*
X267303183Y-134194254D01*
X267341976Y-134233587D01*
X267387953Y-134273499D01*
X267454079Y-134319838D01*
X267511028Y-134348556D01*
X267516527Y-134350308D01*
X267578557Y-134362010D01*
X267678714Y-134371605D01*
X267817297Y-134379117D01*
X267994605Y-134384567D01*
X268400028Y-134393689D01*
X268400028Y-133315391D01*
X268400028Y-132237094D01*
X267994605Y-132245589D01*
X267840703Y-132249503D01*
X267716228Y-132255045D01*
X267619252Y-132263489D01*
X267543921Y-132276190D01*
X267484382Y-132294503D01*
X267434781Y-132319782D01*
X267389263Y-132353384D01*
X267341976Y-132396662D01*
X267332024Y-132406378D01*
X267295003Y-132445076D01*
X267264954Y-132483798D01*
X267241153Y-132526883D01*
X267222876Y-132578671D01*
X267209398Y-132643501D01*
X267199994Y-132725710D01*
X267193942Y-132829638D01*
X267190515Y-132959624D01*
X267188990Y-133120007D01*
X267188643Y-133315125D01*
X266039821Y-133315125D01*
X266040651Y-133207663D01*
X266042426Y-133021778D01*
X266044721Y-132833250D01*
X266047697Y-132675982D01*
X266051861Y-132545731D01*
X266057719Y-132438253D01*
X266065777Y-132349302D01*
X266076542Y-132274633D01*
X266090521Y-132210003D01*
X266108219Y-132151166D01*
X266130144Y-132093878D01*
X266156802Y-132033895D01*
X266188699Y-131966971D01*
X266192161Y-131959890D01*
X266287103Y-131806656D01*
X266412353Y-131663798D01*
X266559563Y-131539558D01*
X266720381Y-131442176D01*
X266730762Y-131437096D01*
X266824332Y-131394575D01*
X266920030Y-131357814D01*
X267021212Y-131326457D01*
X267131233Y-131300147D01*
X267253446Y-131278528D01*
X267391209Y-131261244D01*
X267547875Y-131247939D01*
X267726799Y-131238258D01*
X267931337Y-131231843D01*
X268164843Y-131228338D01*
X268430673Y-131227389D01*
X268732182Y-131228638D01*
X269543028Y-131234278D01*
X269546013Y-133315391D01*
X269547967Y-134677932D01*
G37*
G36*
X263586373Y-131167830D02*
G01*
X263649901Y-131173272D01*
X263920239Y-131213907D01*
X264162998Y-131280533D01*
X264377621Y-131372742D01*
X264563549Y-131490129D01*
X264720226Y-131632288D01*
X264847094Y-131798814D01*
X264943594Y-131989299D01*
X265009170Y-132203338D01*
X265016493Y-132239598D01*
X265023707Y-132286576D01*
X265029267Y-132341283D01*
X265033306Y-132408197D01*
X265035958Y-132491795D01*
X265037356Y-132596554D01*
X265037633Y-132726951D01*
X265036922Y-132887463D01*
X265035358Y-133082569D01*
X265034331Y-133194479D01*
X265032647Y-133362310D01*
X265030864Y-133497888D01*
X265028698Y-133605558D01*
X265025862Y-133689663D01*
X265022072Y-133754548D01*
X265017040Y-133804555D01*
X265010483Y-133844029D01*
X265002113Y-133877314D01*
X264991645Y-133908754D01*
X264978794Y-133942692D01*
X264977309Y-133946530D01*
X264919514Y-134079774D01*
X264854902Y-134192746D01*
X264774590Y-134298927D01*
X264669696Y-134411801D01*
X264661352Y-134420131D01*
X264599416Y-134478609D01*
X264530951Y-134536868D01*
X264452454Y-134597214D01*
X264360419Y-134661951D01*
X264251341Y-134733385D01*
X264121715Y-134813822D01*
X263968037Y-134905566D01*
X263786802Y-135010924D01*
X263574504Y-135132202D01*
X263423704Y-135218488D01*
X263272707Y-135307162D01*
X263149893Y-135382802D01*
X263051714Y-135448089D01*
X262974624Y-135505706D01*
X262915075Y-135558336D01*
X262869519Y-135608661D01*
X262834410Y-135659362D01*
X262806199Y-135713122D01*
X262801534Y-135723371D01*
X262789452Y-135753106D01*
X262780209Y-135784861D01*
X262773428Y-135823931D01*
X262768729Y-135875610D01*
X262765734Y-135945190D01*
X262764063Y-136037966D01*
X262763339Y-136159231D01*
X262763182Y-136314278D01*
X262763182Y-136822278D01*
X262816240Y-136922878D01*
X262871541Y-137009336D01*
X262965196Y-137100928D01*
X263081341Y-137162562D01*
X263221789Y-137195115D01*
X263388357Y-137199465D01*
X263452271Y-137195059D01*
X263526946Y-137184060D01*
X263588881Y-137164272D01*
X263653912Y-137131650D01*
X263699270Y-137102494D01*
X263765096Y-137048726D01*
X263812889Y-136996097D01*
X263838260Y-136957087D01*
X263863702Y-136907905D01*
X263883788Y-136852395D01*
X263899123Y-136785878D01*
X263910312Y-136703681D01*
X263917961Y-136601126D01*
X263922675Y-136473537D01*
X263925060Y-136316240D01*
X263925720Y-136124558D01*
X263925720Y-135562048D01*
X264482566Y-135562048D01*
X265039412Y-135562048D01*
X265039412Y-136283252D01*
X265039107Y-136472164D01*
X265037782Y-136654551D01*
X265035038Y-136806467D01*
X265030480Y-136932489D01*
X265023712Y-137037197D01*
X265014339Y-137125168D01*
X265001966Y-137200983D01*
X264986197Y-137269218D01*
X264966637Y-137334454D01*
X264942892Y-137401268D01*
X264931135Y-137430346D01*
X264869530Y-137548630D01*
X264788567Y-137668812D01*
X264697907Y-137777636D01*
X264607213Y-137861845D01*
X264577274Y-137884407D01*
X264458817Y-137962813D01*
X264333257Y-138027267D01*
X264194227Y-138079902D01*
X264035359Y-138122850D01*
X263850287Y-138158242D01*
X263632643Y-138188211D01*
X263629778Y-138188538D01*
X263558175Y-138192708D01*
X263457543Y-138193589D01*
X263337248Y-138191574D01*
X263206656Y-138187057D01*
X263075131Y-138180433D01*
X262952040Y-138172095D01*
X262846747Y-138162438D01*
X262768619Y-138151856D01*
X262586425Y-138109902D01*
X262388436Y-138041136D01*
X262209238Y-137953531D01*
X262055222Y-137850278D01*
X261932777Y-137734567D01*
X261921203Y-137720796D01*
X261842936Y-137608620D01*
X261769717Y-137473397D01*
X261708350Y-137329012D01*
X261665636Y-137189345D01*
X261663087Y-137178251D01*
X261654304Y-137134691D01*
X261647196Y-137087181D01*
X261641593Y-137031331D01*
X261637321Y-136962750D01*
X261634211Y-136877047D01*
X261632090Y-136769831D01*
X261630787Y-136636712D01*
X261630131Y-136473299D01*
X261629951Y-136275202D01*
X261629952Y-136251242D01*
X261630200Y-136046386D01*
X261631234Y-135875660D01*
X261633569Y-135734594D01*
X261637716Y-135618718D01*
X261644191Y-135523562D01*
X261653506Y-135444655D01*
X261666175Y-135377527D01*
X261682711Y-135317706D01*
X261703630Y-135260724D01*
X261729442Y-135202109D01*
X261760664Y-135137390D01*
X261786533Y-135090089D01*
X261865510Y-134976266D01*
X261967252Y-134858096D01*
X262083429Y-134744787D01*
X262205709Y-134645545D01*
X262239708Y-134621577D01*
X262332702Y-134560439D01*
X262456351Y-134483740D01*
X262611464Y-134390998D01*
X262798850Y-134281735D01*
X263019320Y-134155468D01*
X263273683Y-134011717D01*
X263421791Y-133926908D01*
X263564976Y-133838527D01*
X263678779Y-133756600D01*
X263766417Y-133675626D01*
X263831108Y-133590104D01*
X263876068Y-133494535D01*
X263904517Y-133383419D01*
X263919670Y-133251254D01*
X263924746Y-133092540D01*
X263922963Y-132901779D01*
X263922190Y-132863219D01*
X263919492Y-132745739D01*
X263916223Y-132658346D01*
X263911412Y-132593995D01*
X263904085Y-132545643D01*
X263893270Y-132506244D01*
X263877994Y-132468753D01*
X263857284Y-132426127D01*
X263795359Y-132326836D01*
X263716090Y-132246866D01*
X263664736Y-132214192D01*
X263552328Y-132170099D01*
X263426355Y-132148090D01*
X263294962Y-132147277D01*
X263166293Y-132166772D01*
X263048492Y-132205688D01*
X262949705Y-132263137D01*
X262878075Y-132338230D01*
X262852244Y-132379432D01*
X262828310Y-132425742D01*
X262809693Y-132476048D01*
X262795737Y-132535359D01*
X262785787Y-132608688D01*
X262779189Y-132701044D01*
X262775287Y-132817438D01*
X262773426Y-132962881D01*
X262772951Y-133142384D01*
X262772951Y-133686355D01*
X262204644Y-133686355D01*
X261636337Y-133686355D01*
X261644975Y-132987855D01*
X261646251Y-132888902D01*
X261649234Y-132701924D01*
X261653041Y-132547097D01*
X261658288Y-132419688D01*
X261665594Y-132314964D01*
X261675577Y-132228195D01*
X261688854Y-132154648D01*
X261706044Y-132089591D01*
X261727765Y-132028292D01*
X261754633Y-131966019D01*
X261787267Y-131898040D01*
X261851423Y-131785727D01*
X261978984Y-131624951D01*
X262136755Y-131485095D01*
X262321889Y-131368164D01*
X262531539Y-131276163D01*
X262762859Y-131211095D01*
X262860244Y-131193774D01*
X263030936Y-131174002D01*
X263217786Y-131162618D01*
X263407397Y-131160326D01*
X263586373Y-131167830D01*
G37*
G36*
X299114434Y-135811163D02*
G01*
X299114434Y-135943315D01*
X299114412Y-136495353D01*
X299114347Y-137009882D01*
X299114233Y-137488176D01*
X299114063Y-137931511D01*
X299113831Y-138341161D01*
X299113530Y-138718400D01*
X299113154Y-139064504D01*
X299112697Y-139380749D01*
X299112152Y-139668407D01*
X299111513Y-139928755D01*
X299110773Y-140163067D01*
X299109926Y-140372618D01*
X299108966Y-140558683D01*
X299107887Y-140722536D01*
X299106681Y-140865454D01*
X299105342Y-140988709D01*
X299103865Y-141093578D01*
X299102242Y-141181335D01*
X299100468Y-141253255D01*
X299098535Y-141310612D01*
X299096438Y-141354682D01*
X299094170Y-141386740D01*
X299091725Y-141408060D01*
X299089096Y-141419917D01*
X299086276Y-141423586D01*
X299069396Y-141420327D01*
X299015995Y-141408839D01*
X298928021Y-141389476D01*
X298807361Y-141362663D01*
X298655900Y-141328825D01*
X298475523Y-141288387D01*
X298268114Y-141241774D01*
X298035560Y-141189411D01*
X297779745Y-141131722D01*
X297502554Y-141069132D01*
X297205872Y-141002066D01*
X296891585Y-140930950D01*
X296561578Y-140856207D01*
X296217735Y-140778263D01*
X295861942Y-140697543D01*
X295496084Y-140614471D01*
X295239464Y-140556180D01*
X294816997Y-140460221D01*
X294380321Y-140361039D01*
X293933459Y-140259548D01*
X293480436Y-140156662D01*
X293025276Y-140053295D01*
X292572003Y-139950360D01*
X292124642Y-139848772D01*
X291687217Y-139749443D01*
X291263753Y-139653289D01*
X290858272Y-139561222D01*
X290474801Y-139474157D01*
X290117362Y-139393008D01*
X289789981Y-139318688D01*
X289496682Y-139252111D01*
X287059258Y-138698867D01*
X287059258Y-135308048D01*
X289069574Y-135308048D01*
X289076073Y-136211702D01*
X289076881Y-136322820D01*
X289078405Y-136516312D01*
X289079979Y-136676494D01*
X289081794Y-136807202D01*
X289084040Y-136912271D01*
X289086910Y-136995538D01*
X289090594Y-137060840D01*
X289095284Y-137112011D01*
X289101170Y-137152890D01*
X289108444Y-137187310D01*
X289117297Y-137219110D01*
X289127920Y-137252125D01*
X289173687Y-137374583D01*
X289273385Y-137569312D01*
X289397868Y-137735762D01*
X289548681Y-137875250D01*
X289727365Y-137989091D01*
X289935463Y-138078602D01*
X290174518Y-138145098D01*
X290189201Y-138148106D01*
X290288565Y-138162851D01*
X290415956Y-138175058D01*
X290562114Y-138184438D01*
X290717776Y-138190701D01*
X290873683Y-138193555D01*
X291020573Y-138192713D01*
X291149185Y-138187883D01*
X291250258Y-138178776D01*
X291443138Y-138145874D01*
X291665451Y-138085746D01*
X291859756Y-138004418D01*
X292029716Y-137900284D01*
X292178993Y-137771738D01*
X292267574Y-137675393D01*
X292363150Y-137543856D01*
X292436279Y-137400460D01*
X292494743Y-137231900D01*
X292539797Y-137076278D01*
X292539797Y-135059508D01*
X293627292Y-135059508D01*
X293627578Y-135408624D01*
X293628238Y-135723349D01*
X293629270Y-136003097D01*
X293630672Y-136247283D01*
X293632440Y-136455322D01*
X293634572Y-136626626D01*
X293637064Y-136760612D01*
X293639913Y-136856694D01*
X293643118Y-136914286D01*
X293669915Y-137115595D01*
X293722874Y-137326116D01*
X293800292Y-137510345D01*
X293903618Y-137671613D01*
X294034303Y-137813250D01*
X294075187Y-137848908D01*
X294247378Y-137967299D01*
X294449653Y-138062269D01*
X294680670Y-138133276D01*
X294939090Y-138179775D01*
X294940008Y-138179890D01*
X295037037Y-138188308D01*
X295161792Y-138193827D01*
X295303159Y-138196463D01*
X295450026Y-138196232D01*
X295591279Y-138193150D01*
X295715804Y-138187234D01*
X295812489Y-138178499D01*
X295956765Y-138155729D01*
X296202396Y-138093646D01*
X296418736Y-138005928D01*
X296605678Y-137892658D01*
X296763118Y-137753919D01*
X296890951Y-137589795D01*
X296989073Y-137400370D01*
X297057378Y-137185727D01*
X297060653Y-137171023D01*
X297065092Y-137147383D01*
X297069096Y-137119624D01*
X297072689Y-137085806D01*
X297075892Y-137043985D01*
X297078727Y-136992220D01*
X297081216Y-136928569D01*
X297083383Y-136851089D01*
X297085248Y-136757838D01*
X297086835Y-136646874D01*
X297088166Y-136516255D01*
X297089261Y-136364038D01*
X297090145Y-136188282D01*
X297090839Y-135987044D01*
X297091365Y-135758382D01*
X297091746Y-135500355D01*
X297092004Y-135211019D01*
X297092160Y-134888432D01*
X297092238Y-134530654D01*
X297092258Y-134135740D01*
X297092258Y-131234278D01*
X296525643Y-131234278D01*
X295959028Y-131234278D01*
X295949258Y-134028278D01*
X295939489Y-136822278D01*
X295880874Y-136939509D01*
X295839902Y-137011596D01*
X295791319Y-137068157D01*
X295726433Y-137115148D01*
X295720672Y-137118644D01*
X295675476Y-137143824D01*
X295633013Y-137160411D01*
X295582831Y-137170630D01*
X295514477Y-137176702D01*
X295417500Y-137180851D01*
X295311497Y-137182420D01*
X295196177Y-137176065D01*
X295105151Y-137158400D01*
X295030442Y-137127690D01*
X294964076Y-137082200D01*
X294888717Y-137001648D01*
X294834160Y-136897587D01*
X294798268Y-136764339D01*
X294796825Y-136753757D01*
X294793550Y-136706015D01*
X294790586Y-136626473D01*
X294787928Y-136514467D01*
X294785571Y-136369338D01*
X294783510Y-136190422D01*
X294781740Y-135977061D01*
X294780256Y-135728590D01*
X294779053Y-135444351D01*
X294778126Y-135123681D01*
X294777470Y-134765918D01*
X294777080Y-134370402D01*
X294776951Y-133936472D01*
X294776951Y-131223919D01*
X294205451Y-131229099D01*
X293633951Y-131234278D01*
X293628398Y-133959894D01*
X293628247Y-134044267D01*
X293627859Y-134260443D01*
X293627385Y-134676585D01*
X293627292Y-135059508D01*
X292539797Y-135059508D01*
X292539797Y-134692586D01*
X292539831Y-134374424D01*
X292539894Y-134044267D01*
X292539879Y-133749083D01*
X292539681Y-133486683D01*
X292539194Y-133254874D01*
X292538311Y-133051464D01*
X292536926Y-132874263D01*
X292534934Y-132721080D01*
X292532228Y-132589721D01*
X292528701Y-132477997D01*
X292524249Y-132383716D01*
X292518764Y-132304685D01*
X292512141Y-132238715D01*
X292504274Y-132183612D01*
X292495055Y-132137187D01*
X292484381Y-132097246D01*
X292472143Y-132061600D01*
X292458236Y-132028056D01*
X292442554Y-131994423D01*
X292424990Y-131958510D01*
X292405440Y-131918125D01*
X292391245Y-131889079D01*
X292290731Y-131722995D01*
X292166933Y-131581242D01*
X292015029Y-131459070D01*
X291830194Y-131351729D01*
X291828632Y-131350949D01*
X291646476Y-131277035D01*
X291436937Y-131220759D01*
X291207478Y-131182209D01*
X290965562Y-131161473D01*
X290718651Y-131158640D01*
X290474207Y-131173797D01*
X290239692Y-131207033D01*
X290022570Y-131258436D01*
X289830301Y-131328095D01*
X289803747Y-131340251D01*
X289619264Y-131446017D01*
X289456568Y-131577564D01*
X289320875Y-131730039D01*
X289217398Y-131898586D01*
X289198369Y-131937677D01*
X289170285Y-131997761D01*
X289147161Y-132053492D01*
X289128477Y-132109213D01*
X289113713Y-132169268D01*
X289102348Y-132237998D01*
X289093863Y-132319747D01*
X289087737Y-132418858D01*
X289083451Y-132539674D01*
X289080484Y-132686538D01*
X289078317Y-132863791D01*
X289076429Y-133075778D01*
X289069717Y-133881740D01*
X289635735Y-133881740D01*
X290201752Y-133881740D01*
X290209390Y-133232086D01*
X290210019Y-133179885D01*
X290212433Y-133007421D01*
X290215115Y-132868515D01*
X290218309Y-132758812D01*
X290222257Y-132673954D01*
X290227202Y-132609586D01*
X290233387Y-132561350D01*
X290241055Y-132524891D01*
X290250449Y-132495851D01*
X290308783Y-132380518D01*
X290389337Y-132290187D01*
X290495938Y-132223511D01*
X290535330Y-132205986D01*
X290586729Y-132188307D01*
X290641912Y-132178053D01*
X290712633Y-132173303D01*
X290810643Y-132172140D01*
X290898681Y-132172907D01*
X290969860Y-132176806D01*
X291024199Y-132185890D01*
X291073393Y-132202200D01*
X291129139Y-132227780D01*
X291220612Y-132283611D01*
X291291673Y-132357768D01*
X291305340Y-132378222D01*
X291320206Y-132401106D01*
X291333369Y-132424148D01*
X291344932Y-132449637D01*
X291354999Y-132479862D01*
X291363673Y-132517113D01*
X291371058Y-132563679D01*
X291377257Y-132621849D01*
X291382374Y-132693913D01*
X291386512Y-132782161D01*
X291389775Y-132888880D01*
X291392266Y-133016362D01*
X291394089Y-133166895D01*
X291395348Y-133342769D01*
X291396146Y-133546273D01*
X291396586Y-133779696D01*
X291396772Y-134045328D01*
X291396808Y-134345458D01*
X291396797Y-134682376D01*
X291396797Y-134693166D01*
X291396813Y-135031701D01*
X291396780Y-135333475D01*
X291396581Y-135600739D01*
X291396099Y-135835742D01*
X291395218Y-136040734D01*
X291393822Y-136217964D01*
X291391793Y-136369681D01*
X291389015Y-136498135D01*
X291385372Y-136605575D01*
X291380747Y-136694251D01*
X291375023Y-136766412D01*
X291368084Y-136824307D01*
X291359813Y-136870186D01*
X291350094Y-136906299D01*
X291338810Y-136934894D01*
X291325844Y-136958221D01*
X291311081Y-136978530D01*
X291294402Y-136998069D01*
X291275693Y-137019090D01*
X291231142Y-137065149D01*
X291162632Y-137116056D01*
X291082594Y-137149909D01*
X290982045Y-137170122D01*
X290852000Y-137180110D01*
X290821282Y-137181126D01*
X290665341Y-137176701D01*
X290539449Y-137153511D01*
X290439065Y-137109697D01*
X290359648Y-137043401D01*
X290296656Y-136952763D01*
X290291316Y-136942741D01*
X290269160Y-136894709D01*
X290251047Y-136841086D01*
X290236591Y-136777688D01*
X290225407Y-136700330D01*
X290217111Y-136604829D01*
X290211317Y-136487000D01*
X290207640Y-136342658D01*
X290205696Y-136167620D01*
X290205098Y-135957702D01*
X290204951Y-135308048D01*
X289637262Y-135308048D01*
X289069574Y-135308048D01*
X287059258Y-135308048D01*
X287059258Y-133582910D01*
X287059261Y-133257662D01*
X287059283Y-132751660D01*
X287059335Y-132282510D01*
X287059424Y-131848826D01*
X287059562Y-131449223D01*
X287059756Y-131082316D01*
X287060017Y-130746719D01*
X287060353Y-130441046D01*
X287060775Y-130163913D01*
X287061290Y-129913934D01*
X287061909Y-129689724D01*
X287062641Y-129489897D01*
X287063495Y-129313068D01*
X287064480Y-129157851D01*
X287065605Y-129022861D01*
X287066881Y-128906713D01*
X287068315Y-128808022D01*
X287069918Y-128725401D01*
X287071698Y-128657465D01*
X287073666Y-128602830D01*
X287075829Y-128560110D01*
X287078198Y-128527918D01*
X287080782Y-128504871D01*
X287083590Y-128489583D01*
X287086631Y-128480667D01*
X287089915Y-128476739D01*
X287093451Y-128476414D01*
X287098380Y-128477280D01*
X287136770Y-128483128D01*
X287211712Y-128494192D01*
X287321722Y-128510257D01*
X287465318Y-128531111D01*
X287641018Y-128556541D01*
X287847340Y-128586334D01*
X288082801Y-128620277D01*
X288345920Y-128658158D01*
X288635212Y-128699762D01*
X288949198Y-128744878D01*
X289286393Y-128793292D01*
X289645315Y-128844792D01*
X290024483Y-128899164D01*
X290422414Y-128956195D01*
X290837626Y-129015673D01*
X291268635Y-129077385D01*
X291713961Y-129141117D01*
X292172120Y-129206657D01*
X292641631Y-129273791D01*
X293121010Y-129342307D01*
X299114378Y-130198740D01*
X299114388Y-131234278D01*
X299114434Y-135811163D01*
G37*
G36*
X259558566Y-110172927D02*
G01*
X259558566Y-113621586D01*
X258034566Y-113621586D01*
X256510566Y-113621586D01*
X256510566Y-113113586D01*
X256510566Y-112605586D01*
X257458182Y-112605586D01*
X258405797Y-112605586D01*
X258405797Y-111618894D01*
X258405797Y-110632202D01*
X257624258Y-110632202D01*
X256842720Y-110632202D01*
X256842720Y-110124202D01*
X256842720Y-109616202D01*
X257624258Y-109616202D01*
X258405797Y-109616202D01*
X258405797Y-108678355D01*
X258405797Y-107740509D01*
X257467621Y-107740509D01*
X256529445Y-107740509D01*
X256534659Y-107237394D01*
X256539874Y-106734278D01*
X258049220Y-106729273D01*
X259558566Y-106724268D01*
X259558566Y-110172927D01*
G37*
G36*
X266069758Y-106729099D02*
G01*
X266641258Y-106734278D01*
X266646273Y-110153509D01*
X266646458Y-110284550D01*
X266646896Y-110643849D01*
X266647218Y-110992019D01*
X266647427Y-111327064D01*
X266647525Y-111646986D01*
X266647514Y-111949790D01*
X266647398Y-112233480D01*
X266647179Y-112496060D01*
X266646859Y-112735532D01*
X266646440Y-112949902D01*
X266645925Y-113137172D01*
X266645318Y-113295346D01*
X266644619Y-113422429D01*
X266643832Y-113516423D01*
X266642958Y-113575333D01*
X266642002Y-113597163D01*
X266633751Y-113603332D01*
X266606139Y-113609498D01*
X266556135Y-113614227D01*
X266480404Y-113617658D01*
X266375609Y-113619935D01*
X266238415Y-113621197D01*
X266065487Y-113621586D01*
X265498258Y-113621586D01*
X265498258Y-110172753D01*
X265498258Y-106723919D01*
X266069758Y-106729099D01*
G37*
G36*
X285862220Y-106729099D02*
G01*
X286433720Y-106734278D01*
X286438735Y-110153509D01*
X286438920Y-110284550D01*
X286439358Y-110643849D01*
X286439679Y-110992019D01*
X286439888Y-111327064D01*
X286439986Y-111646986D01*
X286439976Y-111949790D01*
X286439860Y-112233480D01*
X286439640Y-112496060D01*
X286439320Y-112735532D01*
X286438901Y-112949902D01*
X286438387Y-113137172D01*
X286437779Y-113295346D01*
X286437080Y-113422429D01*
X286436293Y-113516423D01*
X286435420Y-113575333D01*
X286434463Y-113597163D01*
X286426213Y-113603332D01*
X286398601Y-113609498D01*
X286348597Y-113614227D01*
X286272865Y-113617658D01*
X286168070Y-113619935D01*
X286030877Y-113621197D01*
X285857949Y-113621586D01*
X285290720Y-113621586D01*
X285290720Y-110172753D01*
X285290720Y-106723919D01*
X285862220Y-106729099D01*
G37*
G36*
X278261758Y-106729273D02*
G01*
X279771105Y-106734278D01*
X279776119Y-110153509D01*
X279776305Y-110284550D01*
X279776742Y-110643849D01*
X279777064Y-110992019D01*
X279777273Y-111327064D01*
X279777371Y-111646986D01*
X279777360Y-111949790D01*
X279777244Y-112233480D01*
X279777025Y-112496060D01*
X279776705Y-112735532D01*
X279776286Y-112949902D01*
X279775772Y-113137172D01*
X279775164Y-113295346D01*
X279774465Y-113422429D01*
X279773678Y-113516423D01*
X279772805Y-113575333D01*
X279771848Y-113597163D01*
X279768038Y-113600058D01*
X279749115Y-113604365D01*
X279712595Y-113608098D01*
X279656328Y-113611294D01*
X279578169Y-113613985D01*
X279475968Y-113616207D01*
X279347578Y-113617993D01*
X279190852Y-113619378D01*
X279003640Y-113620395D01*
X278783796Y-113621080D01*
X278529172Y-113621465D01*
X278237619Y-113621586D01*
X276712676Y-113621586D01*
X276717890Y-113118471D01*
X276723105Y-112615355D01*
X277675605Y-112610285D01*
X278628105Y-112605214D01*
X278628105Y-111618708D01*
X278628105Y-110632202D01*
X277836467Y-110632202D01*
X277044830Y-110632202D01*
X277050044Y-110129086D01*
X277055258Y-109625971D01*
X277841682Y-109620864D01*
X278628105Y-109615758D01*
X278628105Y-108678134D01*
X278628105Y-107740509D01*
X277690258Y-107740509D01*
X276752412Y-107740509D01*
X276752412Y-107232389D01*
X276752412Y-106724268D01*
X278261758Y-106729273D01*
G37*
G36*
X281250592Y-106724704D02*
G01*
X281395229Y-106725727D01*
X281506544Y-106727759D01*
X281587914Y-106730948D01*
X281642718Y-106735441D01*
X281674334Y-106741387D01*
X281686140Y-106748932D01*
X281686247Y-106749299D01*
X281690753Y-106774268D01*
X281700853Y-106835344D01*
X281716182Y-106930201D01*
X281736373Y-107056516D01*
X281761060Y-107211964D01*
X281789877Y-107394221D01*
X281822457Y-107600963D01*
X281858433Y-107829865D01*
X281897441Y-108078603D01*
X281939112Y-108344854D01*
X281983082Y-108626291D01*
X282028983Y-108920592D01*
X282076449Y-109225432D01*
X282079303Y-109243775D01*
X282126793Y-109548814D01*
X282172748Y-109843646D01*
X282216797Y-110125905D01*
X282258568Y-110393222D01*
X282297689Y-110643231D01*
X282333788Y-110873565D01*
X282366495Y-111081855D01*
X282395436Y-111265736D01*
X282420241Y-111422838D01*
X282440538Y-111550795D01*
X282455954Y-111647241D01*
X282466119Y-111709806D01*
X282470661Y-111736125D01*
X282473848Y-111732719D01*
X282483111Y-111694628D01*
X282498048Y-111618399D01*
X282518609Y-111504324D01*
X282544747Y-111352698D01*
X282576413Y-111163813D01*
X282613557Y-110937964D01*
X282656132Y-110675443D01*
X282704089Y-110376544D01*
X282757379Y-110041559D01*
X282815955Y-109670783D01*
X282879766Y-109264509D01*
X282894441Y-109170837D01*
X282942429Y-108864550D01*
X282988626Y-108569712D01*
X283032679Y-108288586D01*
X283074233Y-108023436D01*
X283112933Y-107776525D01*
X283148424Y-107550116D01*
X283180351Y-107346471D01*
X283208360Y-107167854D01*
X283232095Y-107016528D01*
X283251203Y-106894756D01*
X283265328Y-106804801D01*
X283274115Y-106748926D01*
X283277209Y-106729394D01*
X283279141Y-106729002D01*
X283309263Y-106727800D01*
X283372140Y-106726724D01*
X283462944Y-106725816D01*
X283576848Y-106725117D01*
X283709024Y-106724668D01*
X283854643Y-106724509D01*
X283868335Y-106724510D01*
X284032673Y-106724757D01*
X284162205Y-106725579D01*
X284260905Y-106727178D01*
X284332747Y-106729759D01*
X284381706Y-106733523D01*
X284411757Y-106738675D01*
X284426872Y-106745416D01*
X284431028Y-106753950D01*
X284430719Y-106756339D01*
X284425129Y-106788509D01*
X284412865Y-106856018D01*
X284394371Y-106956501D01*
X284370091Y-107087590D01*
X284340471Y-107246921D01*
X284305956Y-107432126D01*
X284266991Y-107640839D01*
X284224020Y-107870694D01*
X284177489Y-108119325D01*
X284127843Y-108384365D01*
X284075525Y-108663449D01*
X284020982Y-108954210D01*
X283964659Y-109254282D01*
X283907000Y-109561298D01*
X283848449Y-109872893D01*
X283789453Y-110186701D01*
X283730456Y-110500354D01*
X283671903Y-110811486D01*
X283614239Y-111117733D01*
X283557909Y-111416726D01*
X283503357Y-111706101D01*
X283451029Y-111983490D01*
X283401370Y-112246528D01*
X283354824Y-112492848D01*
X283311837Y-112720084D01*
X283272853Y-112925870D01*
X283238318Y-113107840D01*
X283208676Y-113263627D01*
X283184372Y-113390865D01*
X283165851Y-113487188D01*
X283153559Y-113550230D01*
X283147939Y-113577625D01*
X283137253Y-113621586D01*
X282508315Y-113621586D01*
X281879376Y-113621586D01*
X281238485Y-110217009D01*
X281207895Y-110054519D01*
X281141052Y-109699523D01*
X281076245Y-109355434D01*
X281013844Y-109024217D01*
X280954220Y-108707835D01*
X280897743Y-108408252D01*
X280844786Y-108127433D01*
X280795717Y-107867341D01*
X280750908Y-107629941D01*
X280710730Y-107417196D01*
X280675552Y-107231070D01*
X280645747Y-107073528D01*
X280621683Y-106946533D01*
X280603733Y-106852049D01*
X280592267Y-106792040D01*
X280587654Y-106768471D01*
X280577715Y-106724509D01*
X281127523Y-106724509D01*
X281250592Y-106724704D01*
G37*
G36*
X264228258Y-110172335D02*
G01*
X264228258Y-113624514D01*
X263158528Y-113615957D01*
X263158184Y-113615954D01*
X262911179Y-113613868D01*
X262699503Y-113611668D01*
X262519412Y-113609060D01*
X262367163Y-113605746D01*
X262239013Y-113601432D01*
X262131219Y-113595822D01*
X262040037Y-113588620D01*
X261961725Y-113579531D01*
X261892538Y-113568259D01*
X261828735Y-113554509D01*
X261766571Y-113537986D01*
X261702304Y-113518392D01*
X261632190Y-113495434D01*
X261606589Y-113486671D01*
X261396243Y-113394097D01*
X261213989Y-113274528D01*
X261060459Y-113128672D01*
X260936284Y-112957236D01*
X260842097Y-112760927D01*
X260778531Y-112540454D01*
X260774988Y-112520774D01*
X260770894Y-112489160D01*
X260767286Y-112448410D01*
X260764145Y-112396384D01*
X260761450Y-112330945D01*
X260759181Y-112249953D01*
X260757317Y-112151271D01*
X260755839Y-112032759D01*
X260754726Y-111892279D01*
X260753957Y-111727692D01*
X260753512Y-111536860D01*
X260753371Y-111317645D01*
X260753514Y-111067907D01*
X260753711Y-110930630D01*
X261886284Y-110930630D01*
X261886600Y-111203024D01*
X261887422Y-111439484D01*
X261888757Y-111640914D01*
X261890611Y-111808215D01*
X261892992Y-111942292D01*
X261895906Y-112044046D01*
X261899361Y-112114382D01*
X261903362Y-112154201D01*
X261916684Y-112218387D01*
X261963684Y-112349117D01*
X262033922Y-112450172D01*
X262129691Y-112524305D01*
X262253285Y-112574269D01*
X262305572Y-112586045D01*
X262375077Y-112595213D01*
X262464796Y-112601250D01*
X262581000Y-112604571D01*
X262729963Y-112605586D01*
X263095028Y-112605586D01*
X263095028Y-110171073D01*
X263095028Y-107736561D01*
X262689605Y-107743420D01*
X262584885Y-107745260D01*
X262473808Y-107747781D01*
X262390693Y-107751059D01*
X262329171Y-107755858D01*
X262282876Y-107762940D01*
X262245439Y-107773070D01*
X262210494Y-107787010D01*
X262171673Y-107805526D01*
X262164501Y-107809096D01*
X262062305Y-107875131D01*
X261986325Y-107960285D01*
X261927989Y-108074005D01*
X261922654Y-108089066D01*
X261917545Y-108108866D01*
X261913037Y-108134720D01*
X261909082Y-108168985D01*
X261905633Y-108214020D01*
X261902643Y-108272185D01*
X261900066Y-108345837D01*
X261897853Y-108437337D01*
X261895958Y-108549043D01*
X261894334Y-108683313D01*
X261892933Y-108842508D01*
X261891709Y-109028984D01*
X261890614Y-109245102D01*
X261889602Y-109493221D01*
X261888624Y-109775698D01*
X261887635Y-110094894D01*
X261887141Y-110274431D01*
X261886466Y-110621400D01*
X261886284Y-110930630D01*
X260753711Y-110930630D01*
X260753919Y-110785509D01*
X260754567Y-110468311D01*
X260755438Y-110114175D01*
X260755896Y-109940978D01*
X260756818Y-109610724D01*
X260757738Y-109316300D01*
X260758692Y-109055517D01*
X260759720Y-108826186D01*
X260760857Y-108626119D01*
X260762144Y-108453127D01*
X260763616Y-108305021D01*
X260765312Y-108179613D01*
X260767269Y-108074714D01*
X260769526Y-107988136D01*
X260772119Y-107917689D01*
X260775087Y-107861184D01*
X260778468Y-107816434D01*
X260782299Y-107781249D01*
X260786618Y-107753442D01*
X260791462Y-107730822D01*
X260796870Y-107711202D01*
X260800558Y-107699172D01*
X260882967Y-107489982D01*
X260992308Y-107307383D01*
X261129397Y-107150722D01*
X261295051Y-107019344D01*
X261490087Y-106912595D01*
X261715319Y-106829822D01*
X261971566Y-106770371D01*
X261993772Y-106766731D01*
X262046827Y-106759917D01*
X262111892Y-106754043D01*
X262192351Y-106748996D01*
X262291586Y-106744662D01*
X262412982Y-106740930D01*
X262559922Y-106737685D01*
X262735788Y-106734815D01*
X262943965Y-106732206D01*
X263187835Y-106729747D01*
X264228258Y-106720157D01*
X264228258Y-110171073D01*
X264228258Y-110172335D01*
G37*
G36*
X291147428Y-110177932D02*
G01*
X291152367Y-113621586D01*
X290575928Y-113621586D01*
X289999489Y-113621586D01*
X289999489Y-112244125D01*
X289999489Y-110866663D01*
X289726638Y-110866663D01*
X289654310Y-110866842D01*
X289565618Y-110868207D01*
X289505798Y-110871549D01*
X289468557Y-110877609D01*
X289447604Y-110887131D01*
X289436645Y-110900855D01*
X289430170Y-110918490D01*
X289412401Y-110971265D01*
X289384627Y-111055704D01*
X289347826Y-111168772D01*
X289302979Y-111307431D01*
X289251065Y-111468645D01*
X289193063Y-111649378D01*
X289129954Y-111846592D01*
X289062716Y-112057250D01*
X288992330Y-112278317D01*
X288565156Y-113621586D01*
X287980924Y-113621586D01*
X287946421Y-113621576D01*
X287780442Y-113621121D01*
X287649593Y-113619892D01*
X287550543Y-113617745D01*
X287479960Y-113614541D01*
X287434512Y-113610136D01*
X287410870Y-113604391D01*
X287405700Y-113597163D01*
X287405779Y-113596949D01*
X287420124Y-113556350D01*
X287444896Y-113484355D01*
X287478948Y-113384385D01*
X287521138Y-113259863D01*
X287570319Y-113114209D01*
X287625348Y-112950845D01*
X287685080Y-112773193D01*
X287748371Y-112584674D01*
X287814076Y-112388710D01*
X287881050Y-112188723D01*
X287948149Y-111988134D01*
X288014228Y-111790364D01*
X288078143Y-111598836D01*
X288138749Y-111416970D01*
X288194902Y-111248189D01*
X288245457Y-111095914D01*
X288289269Y-110963566D01*
X288325194Y-110854568D01*
X288352088Y-110772340D01*
X288368806Y-110720304D01*
X288374202Y-110701883D01*
X288373127Y-110701166D01*
X288349550Y-110686777D01*
X288302606Y-110658649D01*
X288241028Y-110622020D01*
X288125922Y-110543601D01*
X287973607Y-110401830D01*
X287846563Y-110233840D01*
X287747916Y-110044014D01*
X287680790Y-109836730D01*
X287679484Y-109831105D01*
X287671092Y-109790883D01*
X287664168Y-109747424D01*
X287658575Y-109696746D01*
X287654175Y-109634866D01*
X287650829Y-109557802D01*
X287648401Y-109461573D01*
X287646752Y-109342195D01*
X287645745Y-109195688D01*
X287645496Y-109107724D01*
X288789495Y-109107724D01*
X288790314Y-109219405D01*
X288792473Y-109307079D01*
X288796136Y-109375471D01*
X288801466Y-109429304D01*
X288808627Y-109473302D01*
X288817783Y-109512188D01*
X288825757Y-109539343D01*
X288883957Y-109664004D01*
X288970441Y-109761704D01*
X289085216Y-109832449D01*
X289091847Y-109835370D01*
X289129096Y-109850304D01*
X289167237Y-109861555D01*
X289212635Y-109869795D01*
X289271653Y-109875693D01*
X289350655Y-109879920D01*
X289456005Y-109883146D01*
X289594066Y-109886041D01*
X289999489Y-109893689D01*
X289999489Y-108815391D01*
X289999489Y-107737094D01*
X289594066Y-107745589D01*
X289553309Y-107746511D01*
X289388989Y-107751966D01*
X289260413Y-107759424D01*
X289168680Y-107768805D01*
X289114886Y-107780032D01*
X289096629Y-107787083D01*
X288998369Y-107845360D01*
X288910221Y-107929405D01*
X288844238Y-108028167D01*
X288835430Y-108046266D01*
X288824415Y-108072157D01*
X288815705Y-108100673D01*
X288808970Y-108136370D01*
X288803880Y-108183805D01*
X288800105Y-108247533D01*
X288797318Y-108332111D01*
X288795187Y-108442095D01*
X288793384Y-108582043D01*
X288791579Y-108756509D01*
X288791220Y-108793449D01*
X288789852Y-108967313D01*
X288789495Y-109107724D01*
X287645496Y-109107724D01*
X287645242Y-109018069D01*
X287645105Y-108805355D01*
X287645107Y-108773171D01*
X287645287Y-108565633D01*
X287645853Y-108392630D01*
X287646942Y-108250179D01*
X287648692Y-108134298D01*
X287651241Y-108041004D01*
X287654726Y-107966316D01*
X287659286Y-107906252D01*
X287665058Y-107856830D01*
X287672180Y-107814067D01*
X287680790Y-107773981D01*
X287683724Y-107761718D01*
X287753658Y-107550829D01*
X287854487Y-107360714D01*
X287983996Y-107194245D01*
X288139974Y-107054297D01*
X288320206Y-106943742D01*
X288335787Y-106936100D01*
X288429228Y-106893671D01*
X288524709Y-106857012D01*
X288625595Y-106825763D01*
X288735247Y-106799565D01*
X288857029Y-106778057D01*
X288994304Y-106760881D01*
X289150435Y-106747676D01*
X289328786Y-106738083D01*
X289532719Y-106731743D01*
X289765597Y-106728295D01*
X290030784Y-106727380D01*
X290331643Y-106728638D01*
X291142489Y-106734278D01*
X291145474Y-108815391D01*
X291147428Y-110177932D01*
G37*
G36*
X275672967Y-110177932D02*
G01*
X275677905Y-113621586D01*
X275101467Y-113621586D01*
X274525028Y-113621586D01*
X274525028Y-112244125D01*
X274525028Y-110866663D01*
X274251070Y-110866663D01*
X274218313Y-110866674D01*
X274119240Y-110867164D01*
X274051033Y-110869097D01*
X274007225Y-110873441D01*
X273981346Y-110881164D01*
X273966927Y-110893236D01*
X273957500Y-110910625D01*
X273952004Y-110925728D01*
X273934940Y-110976457D01*
X273907771Y-111059071D01*
X273871498Y-111170468D01*
X273827123Y-111307550D01*
X273775645Y-111467216D01*
X273718067Y-111646366D01*
X273655388Y-111841900D01*
X273588609Y-112050718D01*
X273518732Y-112269720D01*
X273466293Y-112434118D01*
X273399059Y-112644488D01*
X273335856Y-112841792D01*
X273277659Y-113023008D01*
X273225442Y-113185113D01*
X273180183Y-113325087D01*
X273142856Y-113439906D01*
X273114437Y-113526549D01*
X273095902Y-113581994D01*
X273088226Y-113603220D01*
X273085833Y-113604360D01*
X273054691Y-113608040D01*
X272992429Y-113611434D01*
X272904897Y-113614486D01*
X272797943Y-113617141D01*
X272677415Y-113619345D01*
X272549164Y-113621043D01*
X272419036Y-113622180D01*
X272292882Y-113622700D01*
X272176550Y-113622549D01*
X272075888Y-113621671D01*
X271996745Y-113620013D01*
X271944970Y-113617519D01*
X271926412Y-113614134D01*
X271926921Y-113612284D01*
X271936407Y-113582957D01*
X271957163Y-113520225D01*
X271988245Y-113426906D01*
X272028709Y-113305817D01*
X272077611Y-113159776D01*
X272134007Y-112991600D01*
X272196953Y-112804106D01*
X272265505Y-112600112D01*
X272338719Y-112382435D01*
X272415651Y-112153893D01*
X272423365Y-112130979D01*
X272503051Y-111893365D01*
X272577456Y-111669849D01*
X272645765Y-111462974D01*
X272707160Y-111275282D01*
X272760825Y-111109315D01*
X272805942Y-110967616D01*
X272841695Y-110852727D01*
X272867267Y-110767190D01*
X272881841Y-110713547D01*
X272884600Y-110694341D01*
X272878679Y-110691630D01*
X272844068Y-110671684D01*
X272789102Y-110637559D01*
X272722631Y-110594699D01*
X272572303Y-110481818D01*
X272442373Y-110347121D01*
X272339331Y-110191222D01*
X272257313Y-110006715D01*
X272235052Y-109942667D01*
X272215924Y-109878639D01*
X272200272Y-109812279D01*
X272187808Y-109739506D01*
X272178245Y-109656238D01*
X272171295Y-109558394D01*
X272166669Y-109441891D01*
X272164080Y-109302649D01*
X272163239Y-109136584D01*
X272163859Y-108939616D01*
X272164821Y-108815125D01*
X273313643Y-108815125D01*
X273313658Y-108865107D01*
X273314220Y-109051536D01*
X273316133Y-109204266D01*
X273320121Y-109327635D01*
X273326908Y-109425982D01*
X273337219Y-109503646D01*
X273351777Y-109564967D01*
X273371308Y-109614283D01*
X273396535Y-109655932D01*
X273428183Y-109694254D01*
X273466976Y-109733587D01*
X273512953Y-109773499D01*
X273579079Y-109819838D01*
X273636028Y-109848556D01*
X273641527Y-109850308D01*
X273703557Y-109862010D01*
X273803714Y-109871605D01*
X273942297Y-109879117D01*
X274119605Y-109884567D01*
X274525028Y-109893689D01*
X274525028Y-108815391D01*
X274525028Y-107737094D01*
X274119605Y-107745589D01*
X273965703Y-107749503D01*
X273841228Y-107755045D01*
X273744252Y-107763489D01*
X273668921Y-107776190D01*
X273609382Y-107794503D01*
X273559781Y-107819782D01*
X273514263Y-107853384D01*
X273466976Y-107896662D01*
X273457024Y-107906378D01*
X273420003Y-107945076D01*
X273389954Y-107983798D01*
X273366153Y-108026883D01*
X273347876Y-108078671D01*
X273334398Y-108143501D01*
X273324994Y-108225710D01*
X273318942Y-108329638D01*
X273315515Y-108459624D01*
X273313990Y-108620007D01*
X273313643Y-108815125D01*
X272164821Y-108815125D01*
X272165651Y-108707663D01*
X272167426Y-108521778D01*
X272169721Y-108333250D01*
X272172697Y-108175982D01*
X272176861Y-108045731D01*
X272182719Y-107938253D01*
X272190777Y-107849302D01*
X272201542Y-107774633D01*
X272215521Y-107710003D01*
X272233219Y-107651166D01*
X272255144Y-107593878D01*
X272281802Y-107533895D01*
X272313699Y-107466971D01*
X272317161Y-107459890D01*
X272412103Y-107306656D01*
X272537353Y-107163798D01*
X272684563Y-107039558D01*
X272845381Y-106942176D01*
X272855762Y-106937096D01*
X272949332Y-106894575D01*
X273045030Y-106857814D01*
X273146212Y-106826457D01*
X273256233Y-106800147D01*
X273378446Y-106778528D01*
X273516209Y-106761244D01*
X273672875Y-106747939D01*
X273851799Y-106738258D01*
X274056337Y-106731843D01*
X274289843Y-106728338D01*
X274555673Y-106727389D01*
X274857182Y-106728638D01*
X275668028Y-106734278D01*
X275671013Y-108815391D01*
X275672967Y-110177932D01*
G37*
G36*
X269711373Y-106667830D02*
G01*
X269774901Y-106673272D01*
X270045239Y-106713907D01*
X270287998Y-106780533D01*
X270502621Y-106872742D01*
X270688549Y-106990129D01*
X270845226Y-107132288D01*
X270972094Y-107298814D01*
X271068594Y-107489299D01*
X271134170Y-107703338D01*
X271141493Y-107739598D01*
X271148707Y-107786576D01*
X271154267Y-107841283D01*
X271158306Y-107908197D01*
X271160958Y-107991795D01*
X271162356Y-108096554D01*
X271162633Y-108226951D01*
X271161922Y-108387463D01*
X271160358Y-108582569D01*
X271159331Y-108694479D01*
X271157647Y-108862310D01*
X271155864Y-108997888D01*
X271153698Y-109105558D01*
X271150862Y-109189663D01*
X271147072Y-109254548D01*
X271142040Y-109304555D01*
X271135483Y-109344029D01*
X271127113Y-109377314D01*
X271116645Y-109408754D01*
X271103794Y-109442692D01*
X271102309Y-109446530D01*
X271044514Y-109579774D01*
X270979902Y-109692746D01*
X270899590Y-109798927D01*
X270794696Y-109911801D01*
X270786352Y-109920131D01*
X270724416Y-109978609D01*
X270655951Y-110036868D01*
X270577454Y-110097214D01*
X270485419Y-110161951D01*
X270376341Y-110233385D01*
X270246715Y-110313822D01*
X270093037Y-110405566D01*
X269911802Y-110510924D01*
X269699504Y-110632202D01*
X269548704Y-110718488D01*
X269397707Y-110807162D01*
X269274893Y-110882802D01*
X269176714Y-110948089D01*
X269099624Y-111005706D01*
X269040075Y-111058336D01*
X268994519Y-111108661D01*
X268959410Y-111159362D01*
X268931199Y-111213122D01*
X268926534Y-111223371D01*
X268914452Y-111253106D01*
X268905209Y-111284861D01*
X268898428Y-111323931D01*
X268893729Y-111375610D01*
X268890734Y-111445190D01*
X268889063Y-111537966D01*
X268888339Y-111659231D01*
X268888182Y-111814278D01*
X268888182Y-112322278D01*
X268941240Y-112422878D01*
X268996541Y-112509336D01*
X269090196Y-112600928D01*
X269206341Y-112662562D01*
X269346789Y-112695115D01*
X269513357Y-112699465D01*
X269577271Y-112695059D01*
X269651946Y-112684060D01*
X269713881Y-112664272D01*
X269778912Y-112631650D01*
X269824270Y-112602494D01*
X269890096Y-112548726D01*
X269937889Y-112496097D01*
X269963260Y-112457087D01*
X269988702Y-112407905D01*
X270008788Y-112352395D01*
X270024123Y-112285878D01*
X270035312Y-112203681D01*
X270042961Y-112101126D01*
X270047675Y-111973537D01*
X270050060Y-111816240D01*
X270050720Y-111624558D01*
X270050720Y-111062048D01*
X270607566Y-111062048D01*
X271164412Y-111062048D01*
X271164412Y-111783252D01*
X271164107Y-111972164D01*
X271162782Y-112154551D01*
X271160038Y-112306467D01*
X271155480Y-112432489D01*
X271148712Y-112537197D01*
X271139339Y-112625168D01*
X271126966Y-112700983D01*
X271111197Y-112769218D01*
X271091637Y-112834454D01*
X271067892Y-112901268D01*
X271056135Y-112930346D01*
X270994530Y-113048630D01*
X270913567Y-113168812D01*
X270822907Y-113277636D01*
X270732213Y-113361845D01*
X270702274Y-113384407D01*
X270583817Y-113462813D01*
X270458257Y-113527267D01*
X270319227Y-113579902D01*
X270160359Y-113622850D01*
X269975287Y-113658242D01*
X269757643Y-113688211D01*
X269754778Y-113688538D01*
X269683175Y-113692708D01*
X269582543Y-113693589D01*
X269462248Y-113691574D01*
X269331656Y-113687057D01*
X269200131Y-113680433D01*
X269077040Y-113672095D01*
X268971747Y-113662438D01*
X268893619Y-113651856D01*
X268711425Y-113609902D01*
X268513436Y-113541136D01*
X268334238Y-113453531D01*
X268180222Y-113350278D01*
X268057777Y-113234567D01*
X268046203Y-113220796D01*
X267967936Y-113108620D01*
X267894717Y-112973397D01*
X267833350Y-112829012D01*
X267790636Y-112689345D01*
X267788087Y-112678251D01*
X267779304Y-112634691D01*
X267772196Y-112587181D01*
X267766593Y-112531331D01*
X267762321Y-112462750D01*
X267759211Y-112377047D01*
X267757090Y-112269831D01*
X267755787Y-112136712D01*
X267755131Y-111973299D01*
X267754951Y-111775202D01*
X267754952Y-111751242D01*
X267755200Y-111546386D01*
X267756234Y-111375660D01*
X267758569Y-111234594D01*
X267762716Y-111118718D01*
X267769191Y-111023562D01*
X267778506Y-110944655D01*
X267791175Y-110877527D01*
X267807711Y-110817706D01*
X267828630Y-110760724D01*
X267854442Y-110702109D01*
X267885664Y-110637390D01*
X267911533Y-110590089D01*
X267990510Y-110476266D01*
X268092252Y-110358096D01*
X268208429Y-110244787D01*
X268330709Y-110145545D01*
X268364708Y-110121577D01*
X268457702Y-110060439D01*
X268581351Y-109983740D01*
X268736464Y-109890998D01*
X268923850Y-109781735D01*
X269144320Y-109655468D01*
X269398683Y-109511717D01*
X269546791Y-109426908D01*
X269689976Y-109338527D01*
X269803779Y-109256600D01*
X269891417Y-109175626D01*
X269956108Y-109090104D01*
X270001068Y-108994535D01*
X270029517Y-108883419D01*
X270044670Y-108751254D01*
X270049746Y-108592540D01*
X270047963Y-108401779D01*
X270047190Y-108363219D01*
X270044492Y-108245739D01*
X270041223Y-108158346D01*
X270036412Y-108093995D01*
X270029085Y-108045643D01*
X270018270Y-108006244D01*
X270002994Y-107968753D01*
X269982284Y-107926127D01*
X269920359Y-107826836D01*
X269841090Y-107746866D01*
X269789736Y-107714192D01*
X269677328Y-107670099D01*
X269551355Y-107648090D01*
X269419962Y-107647277D01*
X269291293Y-107666772D01*
X269173492Y-107705688D01*
X269074705Y-107763137D01*
X269003075Y-107838230D01*
X268977244Y-107879432D01*
X268953310Y-107925742D01*
X268934693Y-107976048D01*
X268920737Y-108035359D01*
X268910787Y-108108688D01*
X268904189Y-108201044D01*
X268900287Y-108317438D01*
X268898426Y-108462881D01*
X268897951Y-108642384D01*
X268897951Y-109186355D01*
X268329644Y-109186355D01*
X267761337Y-109186355D01*
X267769975Y-108487855D01*
X267771251Y-108388902D01*
X267774234Y-108201924D01*
X267778041Y-108047097D01*
X267783288Y-107919688D01*
X267790594Y-107814964D01*
X267800577Y-107728195D01*
X267813854Y-107654648D01*
X267831044Y-107589591D01*
X267852765Y-107528292D01*
X267879633Y-107466019D01*
X267912267Y-107398040D01*
X267976423Y-107285727D01*
X268103984Y-107124951D01*
X268261755Y-106985095D01*
X268446889Y-106868164D01*
X268656539Y-106776163D01*
X268887859Y-106711095D01*
X268985244Y-106693774D01*
X269155936Y-106674002D01*
X269342786Y-106662618D01*
X269532397Y-106660326D01*
X269711373Y-106667830D01*
G37*
G36*
X305239434Y-111311163D02*
G01*
X305239434Y-111443315D01*
X305239412Y-111995353D01*
X305239347Y-112509882D01*
X305239233Y-112988176D01*
X305239063Y-113431511D01*
X305238831Y-113841161D01*
X305238530Y-114218400D01*
X305238154Y-114564504D01*
X305237697Y-114880749D01*
X305237152Y-115168407D01*
X305236513Y-115428755D01*
X305235773Y-115663067D01*
X305234926Y-115872618D01*
X305233966Y-116058683D01*
X305232887Y-116222536D01*
X305231681Y-116365454D01*
X305230342Y-116488709D01*
X305228865Y-116593578D01*
X305227242Y-116681335D01*
X305225468Y-116753255D01*
X305223535Y-116810612D01*
X305221438Y-116854682D01*
X305219170Y-116886740D01*
X305216725Y-116908060D01*
X305214096Y-116919917D01*
X305211276Y-116923586D01*
X305194396Y-116920327D01*
X305140995Y-116908839D01*
X305053021Y-116889476D01*
X304932361Y-116862663D01*
X304780900Y-116828825D01*
X304600523Y-116788387D01*
X304393114Y-116741774D01*
X304160560Y-116689411D01*
X303904745Y-116631722D01*
X303627554Y-116569132D01*
X303330872Y-116502066D01*
X303016585Y-116430950D01*
X302686578Y-116356207D01*
X302342735Y-116278263D01*
X301986942Y-116197543D01*
X301621084Y-116114471D01*
X301364464Y-116056180D01*
X300941997Y-115960221D01*
X300505321Y-115861039D01*
X300058459Y-115759548D01*
X299605436Y-115656662D01*
X299150276Y-115553295D01*
X298697003Y-115450360D01*
X298249642Y-115348772D01*
X297812217Y-115249443D01*
X297388753Y-115153289D01*
X296983272Y-115061222D01*
X296599801Y-114974157D01*
X296242362Y-114893008D01*
X295914981Y-114818688D01*
X295621682Y-114752111D01*
X293184258Y-114198867D01*
X293184258Y-110808048D01*
X295194574Y-110808048D01*
X295201073Y-111711702D01*
X295201881Y-111822820D01*
X295203405Y-112016312D01*
X295204979Y-112176494D01*
X295206794Y-112307202D01*
X295209040Y-112412271D01*
X295211910Y-112495538D01*
X295215594Y-112560840D01*
X295220284Y-112612011D01*
X295226170Y-112652890D01*
X295233444Y-112687310D01*
X295242297Y-112719110D01*
X295252920Y-112752125D01*
X295298687Y-112874583D01*
X295398385Y-113069312D01*
X295522868Y-113235762D01*
X295673681Y-113375250D01*
X295852365Y-113489091D01*
X296060463Y-113578602D01*
X296299518Y-113645098D01*
X296314201Y-113648106D01*
X296413565Y-113662851D01*
X296540956Y-113675058D01*
X296687114Y-113684438D01*
X296842776Y-113690701D01*
X296998683Y-113693555D01*
X297145573Y-113692713D01*
X297274185Y-113687883D01*
X297375258Y-113678776D01*
X297568138Y-113645874D01*
X297790451Y-113585746D01*
X297984756Y-113504418D01*
X298154716Y-113400284D01*
X298303993Y-113271738D01*
X298392574Y-113175393D01*
X298488150Y-113043856D01*
X298561279Y-112900460D01*
X298619743Y-112731900D01*
X298664797Y-112576278D01*
X298664797Y-110559508D01*
X299752292Y-110559508D01*
X299752578Y-110908624D01*
X299753238Y-111223349D01*
X299754270Y-111503097D01*
X299755672Y-111747283D01*
X299757440Y-111955322D01*
X299759572Y-112126626D01*
X299762064Y-112260612D01*
X299764913Y-112356694D01*
X299768118Y-112414286D01*
X299794915Y-112615595D01*
X299847874Y-112826116D01*
X299925292Y-113010345D01*
X300028618Y-113171613D01*
X300159303Y-113313250D01*
X300200187Y-113348908D01*
X300372378Y-113467299D01*
X300574653Y-113562269D01*
X300805670Y-113633276D01*
X301064090Y-113679775D01*
X301065008Y-113679890D01*
X301162037Y-113688308D01*
X301286792Y-113693827D01*
X301428159Y-113696463D01*
X301575026Y-113696232D01*
X301716279Y-113693150D01*
X301840804Y-113687234D01*
X301937489Y-113678499D01*
X302081765Y-113655729D01*
X302327396Y-113593646D01*
X302543736Y-113505928D01*
X302730678Y-113392658D01*
X302888118Y-113253919D01*
X303015951Y-113089795D01*
X303114073Y-112900370D01*
X303182378Y-112685727D01*
X303185653Y-112671023D01*
X303190092Y-112647383D01*
X303194096Y-112619624D01*
X303197689Y-112585806D01*
X303200892Y-112543985D01*
X303203727Y-112492220D01*
X303206216Y-112428569D01*
X303208383Y-112351089D01*
X303210248Y-112257838D01*
X303211835Y-112146874D01*
X303213166Y-112016255D01*
X303214261Y-111864038D01*
X303215145Y-111688282D01*
X303215839Y-111487044D01*
X303216365Y-111258382D01*
X303216746Y-111000355D01*
X303217004Y-110711019D01*
X303217160Y-110388432D01*
X303217238Y-110030654D01*
X303217258Y-109635740D01*
X303217258Y-106734278D01*
X302650643Y-106734278D01*
X302084028Y-106734278D01*
X302074258Y-109528278D01*
X302064489Y-112322278D01*
X302005874Y-112439509D01*
X301964902Y-112511596D01*
X301916319Y-112568157D01*
X301851433Y-112615148D01*
X301845672Y-112618644D01*
X301800476Y-112643824D01*
X301758013Y-112660411D01*
X301707831Y-112670630D01*
X301639477Y-112676702D01*
X301542500Y-112680851D01*
X301436497Y-112682420D01*
X301321177Y-112676065D01*
X301230151Y-112658400D01*
X301155442Y-112627690D01*
X301089076Y-112582200D01*
X301013717Y-112501648D01*
X300959160Y-112397587D01*
X300923268Y-112264339D01*
X300921825Y-112253757D01*
X300918550Y-112206015D01*
X300915586Y-112126473D01*
X300912928Y-112014467D01*
X300910571Y-111869338D01*
X300908510Y-111690422D01*
X300906740Y-111477061D01*
X300905256Y-111228590D01*
X300904053Y-110944351D01*
X300903126Y-110623681D01*
X300902470Y-110265918D01*
X300902080Y-109870402D01*
X300901951Y-109436472D01*
X300901951Y-106723919D01*
X300330451Y-106729099D01*
X299758951Y-106734278D01*
X299753398Y-109459894D01*
X299753247Y-109544267D01*
X299752859Y-109760443D01*
X299752385Y-110176585D01*
X299752292Y-110559508D01*
X298664797Y-110559508D01*
X298664797Y-110192586D01*
X298664831Y-109874424D01*
X298664894Y-109544267D01*
X298664879Y-109249083D01*
X298664681Y-108986683D01*
X298664194Y-108754874D01*
X298663311Y-108551464D01*
X298661926Y-108374263D01*
X298659934Y-108221080D01*
X298657228Y-108089721D01*
X298653701Y-107977997D01*
X298649249Y-107883716D01*
X298643764Y-107804685D01*
X298637141Y-107738715D01*
X298629274Y-107683612D01*
X298620055Y-107637187D01*
X298609381Y-107597246D01*
X298597143Y-107561600D01*
X298583236Y-107528056D01*
X298567554Y-107494423D01*
X298549990Y-107458510D01*
X298530440Y-107418125D01*
X298516245Y-107389079D01*
X298415731Y-107222995D01*
X298291933Y-107081242D01*
X298140029Y-106959070D01*
X297955194Y-106851729D01*
X297953632Y-106850949D01*
X297771476Y-106777035D01*
X297561937Y-106720759D01*
X297332478Y-106682209D01*
X297090562Y-106661473D01*
X296843651Y-106658640D01*
X296599207Y-106673797D01*
X296364692Y-106707033D01*
X296147570Y-106758436D01*
X295955301Y-106828095D01*
X295928747Y-106840251D01*
X295744264Y-106946017D01*
X295581568Y-107077564D01*
X295445875Y-107230039D01*
X295342398Y-107398586D01*
X295323369Y-107437677D01*
X295295285Y-107497761D01*
X295272161Y-107553492D01*
X295253477Y-107609213D01*
X295238713Y-107669268D01*
X295227348Y-107737998D01*
X295218863Y-107819747D01*
X295212737Y-107918858D01*
X295208451Y-108039674D01*
X295205484Y-108186538D01*
X295203317Y-108363791D01*
X295201429Y-108575778D01*
X295194717Y-109381740D01*
X295760735Y-109381740D01*
X296326752Y-109381740D01*
X296334390Y-108732086D01*
X296335019Y-108679885D01*
X296337433Y-108507421D01*
X296340115Y-108368515D01*
X296343309Y-108258812D01*
X296347257Y-108173954D01*
X296352202Y-108109586D01*
X296358387Y-108061350D01*
X296366055Y-108024891D01*
X296375449Y-107995851D01*
X296433783Y-107880518D01*
X296514337Y-107790187D01*
X296620938Y-107723511D01*
X296660330Y-107705986D01*
X296711729Y-107688307D01*
X296766912Y-107678053D01*
X296837633Y-107673303D01*
X296935643Y-107672140D01*
X297023681Y-107672907D01*
X297094860Y-107676806D01*
X297149199Y-107685890D01*
X297198393Y-107702200D01*
X297254139Y-107727780D01*
X297345612Y-107783611D01*
X297416673Y-107857768D01*
X297430340Y-107878222D01*
X297445206Y-107901106D01*
X297458369Y-107924148D01*
X297469932Y-107949637D01*
X297479999Y-107979862D01*
X297488673Y-108017113D01*
X297496058Y-108063679D01*
X297502257Y-108121849D01*
X297507374Y-108193913D01*
X297511512Y-108282161D01*
X297514775Y-108388880D01*
X297517266Y-108516362D01*
X297519089Y-108666895D01*
X297520348Y-108842769D01*
X297521146Y-109046273D01*
X297521586Y-109279696D01*
X297521772Y-109545328D01*
X297521808Y-109845458D01*
X297521797Y-110182376D01*
X297521797Y-110193166D01*
X297521813Y-110531701D01*
X297521780Y-110833475D01*
X297521581Y-111100739D01*
X297521099Y-111335742D01*
X297520218Y-111540734D01*
X297518822Y-111717964D01*
X297516793Y-111869681D01*
X297514015Y-111998135D01*
X297510372Y-112105575D01*
X297505747Y-112194251D01*
X297500023Y-112266412D01*
X297493084Y-112324307D01*
X297484813Y-112370186D01*
X297475094Y-112406299D01*
X297463810Y-112434894D01*
X297450844Y-112458221D01*
X297436081Y-112478530D01*
X297419402Y-112498069D01*
X297400693Y-112519090D01*
X297356142Y-112565149D01*
X297287632Y-112616056D01*
X297207594Y-112649909D01*
X297107045Y-112670122D01*
X296977000Y-112680110D01*
X296946282Y-112681126D01*
X296790341Y-112676701D01*
X296664449Y-112653511D01*
X296564065Y-112609697D01*
X296484648Y-112543401D01*
X296421656Y-112452763D01*
X296416316Y-112442741D01*
X296394160Y-112394709D01*
X296376047Y-112341086D01*
X296361591Y-112277688D01*
X296350407Y-112200330D01*
X296342111Y-112104829D01*
X296336317Y-111987000D01*
X296332640Y-111842658D01*
X296330696Y-111667620D01*
X296330098Y-111457702D01*
X296329951Y-110808048D01*
X295762262Y-110808048D01*
X295194574Y-110808048D01*
X293184258Y-110808048D01*
X293184258Y-109082910D01*
X293184261Y-108757662D01*
X293184283Y-108251660D01*
X293184335Y-107782510D01*
X293184424Y-107348826D01*
X293184562Y-106949223D01*
X293184756Y-106582316D01*
X293185017Y-106246719D01*
X293185353Y-105941046D01*
X293185775Y-105663913D01*
X293186290Y-105413934D01*
X293186909Y-105189724D01*
X293187641Y-104989897D01*
X293188495Y-104813068D01*
X293189480Y-104657851D01*
X293190605Y-104522861D01*
X293191881Y-104406713D01*
X293193315Y-104308022D01*
X293194918Y-104225401D01*
X293196698Y-104157465D01*
X293198666Y-104102830D01*
X293200829Y-104060110D01*
X293203198Y-104027918D01*
X293205782Y-104004871D01*
X293208590Y-103989583D01*
X293211631Y-103980667D01*
X293214915Y-103976739D01*
X293218451Y-103976414D01*
X293223380Y-103977280D01*
X293261770Y-103983128D01*
X293336712Y-103994192D01*
X293446722Y-104010257D01*
X293590318Y-104031111D01*
X293766018Y-104056541D01*
X293972340Y-104086334D01*
X294207801Y-104120277D01*
X294470920Y-104158158D01*
X294760212Y-104199762D01*
X295074198Y-104244878D01*
X295411393Y-104293292D01*
X295770315Y-104344792D01*
X296149483Y-104399164D01*
X296547414Y-104456195D01*
X296962626Y-104515673D01*
X297393635Y-104577385D01*
X297838961Y-104641117D01*
X298297120Y-104706657D01*
X298766631Y-104773791D01*
X299246010Y-104842307D01*
X305239378Y-105698740D01*
X305239388Y-106734278D01*
X305239434Y-111311163D01*
G37*
G36*
X213429367Y-110124781D02*
G01*
X213429367Y-113244323D01*
X212389849Y-113244323D01*
X211350332Y-113244323D01*
X211343070Y-112188657D01*
X211335808Y-111132991D01*
X210726150Y-112188657D01*
X210116492Y-113244323D01*
X208917146Y-113244323D01*
X207717799Y-113244323D01*
X207710537Y-112193147D01*
X207703275Y-111141971D01*
X207096492Y-112193147D01*
X206489709Y-113244323D01*
X205300047Y-113244323D01*
X204110385Y-113244323D01*
X204143317Y-113181932D01*
X204149493Y-113170948D01*
X204180950Y-113115930D01*
X204236956Y-113018361D01*
X204315497Y-112881735D01*
X204414559Y-112709548D01*
X204532126Y-112505292D01*
X204666186Y-112272463D01*
X204814724Y-112014555D01*
X204975726Y-111735062D01*
X205147178Y-111437479D01*
X205327065Y-111125301D01*
X205513374Y-110802020D01*
X205704091Y-110471133D01*
X205897201Y-110136132D01*
X206090689Y-109800514D01*
X206282543Y-109467771D01*
X206470748Y-109141399D01*
X206653290Y-108824891D01*
X206828154Y-108521743D01*
X206993326Y-108235448D01*
X207146793Y-107969501D01*
X207286540Y-107727396D01*
X207410553Y-107512628D01*
X207516818Y-107328690D01*
X207603321Y-107179079D01*
X207703275Y-107006302D01*
X208749786Y-107005771D01*
X209796296Y-107005240D01*
X209803498Y-108323696D01*
X209810699Y-109642153D01*
X210570755Y-108323696D01*
X211330811Y-107005240D01*
X212380089Y-107005240D01*
X213429367Y-107005240D01*
X213429367Y-110124781D01*
G37*
G36*
X167056069Y-107005453D02*
G01*
X167455785Y-107006080D01*
X167832907Y-107007094D01*
X168184147Y-107008470D01*
X168506220Y-107010181D01*
X168795838Y-107012200D01*
X169049716Y-107014503D01*
X169264567Y-107017062D01*
X169437105Y-107019852D01*
X169564043Y-107022846D01*
X169642096Y-107026019D01*
X169667977Y-107029343D01*
X169663741Y-107037532D01*
X169635826Y-107087516D01*
X169584501Y-107177859D01*
X169512709Y-107303430D01*
X169423393Y-107459095D01*
X169319497Y-107639722D01*
X169203962Y-107840176D01*
X169079733Y-108055326D01*
X168500732Y-109057205D01*
X167651676Y-109058150D01*
X166802620Y-109059096D01*
X165596976Y-111151709D01*
X164391332Y-113244323D01*
X163205327Y-113244323D01*
X163053546Y-113244213D01*
X162813219Y-113243567D01*
X162594292Y-113242397D01*
X162402441Y-113240768D01*
X162243342Y-113238744D01*
X162122671Y-113236389D01*
X162046106Y-113233766D01*
X162019323Y-113230941D01*
X162027369Y-113215454D01*
X162060888Y-113155463D01*
X162118624Y-113053645D01*
X162198571Y-112913493D01*
X162298725Y-112738503D01*
X162417079Y-112532170D01*
X162551629Y-112297990D01*
X162700369Y-112039456D01*
X162861295Y-111760065D01*
X163032401Y-111463311D01*
X163211681Y-111152690D01*
X163349991Y-110913070D01*
X163523185Y-110612722D01*
X163686662Y-110328895D01*
X163838418Y-110065088D01*
X163976447Y-109824799D01*
X164098744Y-109611527D01*
X164203302Y-109428769D01*
X164288116Y-109280025D01*
X164351181Y-109168793D01*
X164390491Y-109098572D01*
X164404039Y-109072859D01*
X164379353Y-109069369D01*
X164305206Y-109065655D01*
X164187751Y-109061991D01*
X164033186Y-109058517D01*
X163847706Y-109055371D01*
X163637510Y-109052692D01*
X163408793Y-109050618D01*
X162413546Y-109043340D01*
X162960118Y-108096387D01*
X162988923Y-108046495D01*
X163109802Y-107837419D01*
X163222789Y-107642455D01*
X163324585Y-107467260D01*
X163411895Y-107317492D01*
X163481420Y-107198811D01*
X163529864Y-107116873D01*
X163553930Y-107077336D01*
X163601169Y-107005240D01*
X166639195Y-107005240D01*
X167056069Y-107005453D01*
G37*
G36*
X197284576Y-110079213D02*
G01*
X197178065Y-110263723D01*
X197003842Y-110565409D01*
X196838053Y-110852337D01*
X196682841Y-111120808D01*
X196540348Y-111367123D01*
X196412713Y-111587585D01*
X196302080Y-111778496D01*
X196210588Y-111936158D01*
X196140379Y-112056872D01*
X196093595Y-112136941D01*
X196072376Y-112172667D01*
X196064918Y-112182385D01*
X196018083Y-112223725D01*
X195932916Y-112284376D01*
X195807293Y-112365687D01*
X195639086Y-112469004D01*
X195426171Y-112595676D01*
X195166423Y-112747051D01*
X194310044Y-113242325D01*
X193026511Y-113243324D01*
X191742978Y-113244323D01*
X190869560Y-112740073D01*
X190700663Y-112642264D01*
X190492506Y-112520470D01*
X190326904Y-112421644D01*
X190200296Y-112343513D01*
X190109122Y-112283800D01*
X190049822Y-112240230D01*
X190018836Y-112210529D01*
X190012603Y-112192420D01*
X190024263Y-112170349D01*
X190062026Y-112102790D01*
X190123825Y-111993715D01*
X190207635Y-111846657D01*
X190311430Y-111665149D01*
X190433186Y-111452723D01*
X190570876Y-111212912D01*
X190582694Y-111192358D01*
X192960940Y-111192358D01*
X193607952Y-111192358D01*
X194254965Y-111192358D01*
X194864819Y-110136156D01*
X194953241Y-109982920D01*
X195075159Y-109771303D01*
X195186478Y-109577692D01*
X195284336Y-109407086D01*
X195365871Y-109264486D01*
X195428221Y-109154891D01*
X195468523Y-109083301D01*
X195483916Y-109054715D01*
X195480443Y-109051410D01*
X195435437Y-109044223D01*
X195343491Y-109038306D01*
X195210618Y-109033887D01*
X195042831Y-109031196D01*
X194846143Y-109030460D01*
X194199127Y-109031445D01*
X193686136Y-109922799D01*
X193575532Y-110115087D01*
X193457709Y-110320158D01*
X193347859Y-110511588D01*
X193249923Y-110682494D01*
X193167846Y-110825996D01*
X193105571Y-110935211D01*
X193067042Y-111003256D01*
X192960940Y-111192358D01*
X190582694Y-111192358D01*
X190722477Y-110949249D01*
X190885962Y-110665267D01*
X191059307Y-110364498D01*
X191240486Y-110050475D01*
X192451909Y-107951934D01*
X193272402Y-107478587D01*
X194092895Y-107005240D01*
X195965069Y-107005240D01*
X197837243Y-107005240D01*
X198142221Y-107535054D01*
X198447199Y-108064868D01*
X197875887Y-109054715D01*
X197284576Y-110079213D01*
G37*
G36*
X182285554Y-110613386D02*
G01*
X182275154Y-110631400D01*
X182074408Y-110979340D01*
X181881715Y-111313710D01*
X181698869Y-111631381D01*
X181527661Y-111929220D01*
X181369884Y-112204097D01*
X181227329Y-112452883D01*
X181101788Y-112672446D01*
X180995055Y-112859655D01*
X180908920Y-113011381D01*
X180845176Y-113124492D01*
X180805616Y-113195858D01*
X180792031Y-113222348D01*
X180780361Y-113225402D01*
X180720249Y-113229805D01*
X180614009Y-113233812D01*
X180467274Y-113237322D01*
X180285680Y-113240230D01*
X180074860Y-113242435D01*
X179840447Y-113243834D01*
X179588077Y-113244323D01*
X178384123Y-113244323D01*
X178716523Y-112668941D01*
X178771250Y-112574221D01*
X178866521Y-112409380D01*
X178953689Y-112258623D01*
X179027847Y-112130435D01*
X179084085Y-112033302D01*
X179117497Y-111975709D01*
X179186072Y-111857860D01*
X178535831Y-111857860D01*
X177885590Y-111857860D01*
X177487882Y-112550689D01*
X177090175Y-113243517D01*
X175902114Y-113243920D01*
X174714054Y-113244323D01*
X174782143Y-113126473D01*
X174794106Y-113105748D01*
X174834167Y-113036306D01*
X174898701Y-112924420D01*
X174985747Y-112773491D01*
X175093346Y-112586918D01*
X175219535Y-112368100D01*
X175362356Y-112120439D01*
X175519847Y-111847332D01*
X175690048Y-111552180D01*
X175870999Y-111238383D01*
X176060739Y-110909339D01*
X176257307Y-110568449D01*
X176390800Y-110337097D01*
X176582071Y-110006167D01*
X176721154Y-109766019D01*
X179100546Y-109766019D01*
X179110331Y-109768122D01*
X179166472Y-109771323D01*
X179265734Y-109774040D01*
X179400418Y-109776130D01*
X179562823Y-109777453D01*
X179745251Y-109777866D01*
X180389957Y-109777567D01*
X180603029Y-109403521D01*
X180816102Y-109029475D01*
X180168426Y-109029475D01*
X179520751Y-109029475D01*
X179310649Y-109391674D01*
X179272849Y-109457035D01*
X179204717Y-109575957D01*
X179150067Y-109672837D01*
X179113732Y-109739062D01*
X179100546Y-109766019D01*
X176721154Y-109766019D01*
X176764919Y-109690453D01*
X176937424Y-109393243D01*
X177097663Y-109117822D01*
X177243715Y-108867477D01*
X177373658Y-108645494D01*
X177485572Y-108455161D01*
X177577535Y-108299763D01*
X177647625Y-108182587D01*
X177693920Y-108106919D01*
X177714500Y-108076047D01*
X177748908Y-108050917D01*
X177825914Y-108001599D01*
X177939670Y-107931662D01*
X178084442Y-107844556D01*
X178254492Y-107743731D01*
X178444085Y-107632640D01*
X178647485Y-107514733D01*
X179530350Y-107005647D01*
X181360481Y-107005656D01*
X183190612Y-107005664D01*
X183484844Y-107516031D01*
X183779077Y-108026397D01*
X183199979Y-109029475D01*
X182285554Y-110613386D01*
G37*
G36*
X173294513Y-107081495D02*
G01*
X173285553Y-107097706D01*
X173249837Y-107160633D01*
X173189784Y-107265628D01*
X173107514Y-107409009D01*
X173005147Y-107587094D01*
X172884802Y-107796201D01*
X172748598Y-108032649D01*
X172598654Y-108292756D01*
X172437090Y-108572840D01*
X172266025Y-108869219D01*
X172087579Y-109178213D01*
X171970842Y-109380348D01*
X171798626Y-109678750D01*
X171635932Y-109960892D01*
X171484787Y-110223247D01*
X171347218Y-110462288D01*
X171225252Y-110674486D01*
X171120916Y-110856315D01*
X171036237Y-111004247D01*
X170973243Y-111114753D01*
X170933960Y-111184307D01*
X170920415Y-111209381D01*
X170930200Y-111211230D01*
X170986341Y-111214021D01*
X171085603Y-111216363D01*
X171220287Y-111218134D01*
X171382692Y-111219214D01*
X171565120Y-111219482D01*
X172209826Y-111218877D01*
X173420740Y-109118990D01*
X174631655Y-107019104D01*
X175814480Y-107011873D01*
X176077208Y-107010409D01*
X176320690Y-107009513D01*
X176517644Y-107009523D01*
X176672770Y-107010575D01*
X176790767Y-107012810D01*
X176876333Y-107016367D01*
X176934169Y-107021384D01*
X176968973Y-107028000D01*
X176985444Y-107036355D01*
X176988281Y-107046587D01*
X176987883Y-107047718D01*
X176969571Y-107082708D01*
X176925385Y-107162438D01*
X176856980Y-107284018D01*
X176766008Y-107444556D01*
X176654122Y-107641162D01*
X176522978Y-107870943D01*
X176374227Y-108131008D01*
X176209523Y-108418468D01*
X176030520Y-108730429D01*
X175838871Y-109064002D01*
X175636230Y-109416295D01*
X175424251Y-109784416D01*
X175204585Y-110165475D01*
X173429913Y-113242418D01*
X171539912Y-113243370D01*
X169649911Y-113244323D01*
X168808580Y-112758421D01*
X168638555Y-112659819D01*
X168455561Y-112552720D01*
X168293089Y-112456584D01*
X168156661Y-112374728D01*
X168051800Y-112310469D01*
X167984028Y-112267124D01*
X167958866Y-112248010D01*
X167967773Y-112228023D01*
X168002462Y-112162788D01*
X168061600Y-112055470D01*
X168143377Y-111909255D01*
X168245979Y-111727330D01*
X168367596Y-111512882D01*
X168506415Y-111269098D01*
X168660625Y-110999165D01*
X168828413Y-110706268D01*
X169007970Y-110393596D01*
X169197481Y-110064335D01*
X169395137Y-109721671D01*
X169555770Y-109443411D01*
X169749258Y-109108030D01*
X169934132Y-108787352D01*
X170108478Y-108484710D01*
X170270382Y-108203433D01*
X170417929Y-107946854D01*
X170549205Y-107718302D01*
X170662297Y-107521109D01*
X170755289Y-107358605D01*
X170826268Y-107234122D01*
X170873320Y-107150990D01*
X170894531Y-107112541D01*
X170949271Y-107005240D01*
X172141778Y-107005240D01*
X173334285Y-107005240D01*
X173294513Y-107081495D01*
G37*
G36*
X202672374Y-107109224D02*
G01*
X202664678Y-107123273D01*
X202629520Y-107185514D01*
X202569848Y-107290079D01*
X202487841Y-107433180D01*
X202385677Y-107611031D01*
X202265537Y-107819846D01*
X202129599Y-108055838D01*
X201980042Y-108315221D01*
X201819047Y-108594209D01*
X201648791Y-108889014D01*
X201471455Y-109195851D01*
X200325163Y-111178493D01*
X200962486Y-111185950D01*
X201175351Y-111187727D01*
X201344623Y-111187302D01*
X201469401Y-111184367D01*
X201555219Y-111178695D01*
X201607613Y-111170056D01*
X201632118Y-111158220D01*
X201643039Y-111141590D01*
X201680421Y-111079772D01*
X201741862Y-110976040D01*
X201825289Y-110833952D01*
X201928633Y-110657063D01*
X202049823Y-110448932D01*
X202186789Y-110213116D01*
X202337460Y-109953171D01*
X202499767Y-109672654D01*
X202671637Y-109375124D01*
X202851001Y-109064137D01*
X204037576Y-107005240D01*
X205227357Y-107005240D01*
X205384245Y-107005421D01*
X205623774Y-107006438D01*
X205841396Y-107008262D01*
X206031518Y-107010795D01*
X206188548Y-107013937D01*
X206306896Y-107017591D01*
X206380969Y-107021657D01*
X206405175Y-107026037D01*
X206397141Y-107039948D01*
X206363917Y-107097436D01*
X206307773Y-107194564D01*
X206231588Y-107326355D01*
X206138241Y-107487827D01*
X206030609Y-107674003D01*
X205911572Y-107879902D01*
X205784009Y-108100545D01*
X205671379Y-108295430D01*
X205533782Y-108533637D01*
X205375905Y-108807050D01*
X205201472Y-109109215D01*
X205014208Y-109433679D01*
X204817835Y-109773989D01*
X204616079Y-110123692D01*
X204412663Y-110476335D01*
X204211311Y-110825465D01*
X204015747Y-111164628D01*
X203907430Y-111352449D01*
X203734611Y-111651882D01*
X203570675Y-111935643D01*
X203417710Y-112200132D01*
X203277802Y-112441752D01*
X203153040Y-112656902D01*
X203045511Y-112841985D01*
X202957303Y-112993401D01*
X202890504Y-113107552D01*
X202847200Y-113180838D01*
X202829480Y-113209661D01*
X202822055Y-113214067D01*
X202791176Y-113220632D01*
X202734349Y-113226250D01*
X202648294Y-113230980D01*
X202529733Y-113234883D01*
X202375388Y-113238020D01*
X202181979Y-113240450D01*
X201946228Y-113242235D01*
X201664856Y-113243435D01*
X201334584Y-113244111D01*
X200952134Y-113244323D01*
X199101997Y-113244323D01*
X198231130Y-112741512D01*
X198033825Y-112627531D01*
X197849594Y-112520978D01*
X197686329Y-112426425D01*
X197549445Y-112347013D01*
X197444356Y-112285884D01*
X197376479Y-112246179D01*
X197351228Y-112231040D01*
X197351260Y-112230636D01*
X197366563Y-112201019D01*
X197407670Y-112126831D01*
X197472813Y-112011167D01*
X197560219Y-111857121D01*
X197668118Y-111667787D01*
X197794741Y-111446259D01*
X197938316Y-111195633D01*
X198097073Y-110919001D01*
X198269241Y-110619459D01*
X198453050Y-110300100D01*
X198646729Y-109964019D01*
X198848508Y-109614309D01*
X200354823Y-107005240D01*
X201540912Y-107005240D01*
X202727001Y-107005240D01*
X202672374Y-107109224D01*
G37*
G36*
X187968750Y-107119513D02*
G01*
X187965877Y-107124612D01*
X187931635Y-107184545D01*
X187874385Y-107284005D01*
X187798359Y-107415666D01*
X187707792Y-107572201D01*
X187606918Y-107746286D01*
X187499972Y-107930593D01*
X187472523Y-107977913D01*
X187372060Y-108151960D01*
X187282557Y-108308344D01*
X187207421Y-108441021D01*
X187150056Y-108543950D01*
X187113868Y-108611086D01*
X187102261Y-108636386D01*
X187103023Y-108636263D01*
X187132426Y-108616975D01*
X187201208Y-108567958D01*
X187305111Y-108492351D01*
X187439878Y-108393292D01*
X187601253Y-108273919D01*
X187784977Y-108137372D01*
X187986795Y-107986788D01*
X188202449Y-107825306D01*
X189295733Y-107005240D01*
X190492681Y-107005240D01*
X190641208Y-107005420D01*
X190886793Y-107006559D01*
X191109488Y-107008651D01*
X191303864Y-107011585D01*
X191464495Y-107015252D01*
X191585951Y-107019541D01*
X191662805Y-107024342D01*
X191689629Y-107029545D01*
X191689263Y-107030537D01*
X191671411Y-107063660D01*
X191628165Y-107140769D01*
X191561527Y-107258381D01*
X191473500Y-107413016D01*
X191366085Y-107601193D01*
X191241286Y-107819431D01*
X191101104Y-108064250D01*
X190947541Y-108332168D01*
X190782601Y-108619705D01*
X190608284Y-108923379D01*
X190426594Y-109239710D01*
X190239533Y-109565218D01*
X190049103Y-109896420D01*
X189857306Y-110229836D01*
X189666145Y-110561985D01*
X189477622Y-110889387D01*
X189293739Y-111208561D01*
X189116499Y-111516025D01*
X188947904Y-111808299D01*
X188789955Y-112081901D01*
X188644656Y-112333352D01*
X188514009Y-112559169D01*
X188400015Y-112755873D01*
X188304678Y-112919982D01*
X188230000Y-113048015D01*
X188177982Y-113136492D01*
X188150628Y-113181932D01*
X188111276Y-113244323D01*
X186920337Y-113244323D01*
X185729398Y-113244323D01*
X185918640Y-112918504D01*
X185994887Y-112787171D01*
X186165047Y-112493544D01*
X186308934Y-112244353D01*
X186427891Y-112037215D01*
X186523263Y-111869746D01*
X186596392Y-111739563D01*
X186648621Y-111644283D01*
X186681294Y-111581522D01*
X186695754Y-111548898D01*
X186693345Y-111544026D01*
X186690837Y-111545967D01*
X186653263Y-111574382D01*
X186576576Y-111632051D01*
X186465153Y-111715691D01*
X186323372Y-111822022D01*
X186155608Y-111947762D01*
X185966239Y-112089629D01*
X185759641Y-112244341D01*
X185540192Y-112408618D01*
X184423615Y-113244323D01*
X183243285Y-113244323D01*
X183167710Y-113244281D01*
X182901114Y-113243410D01*
X182664002Y-113241479D01*
X182460701Y-113238583D01*
X182295542Y-113234812D01*
X182172852Y-113230262D01*
X182096962Y-113225024D01*
X182072198Y-113219191D01*
X182072846Y-113217865D01*
X182092386Y-113182906D01*
X182137730Y-113103303D01*
X182207229Y-112981916D01*
X182299236Y-112821608D01*
X182412103Y-112625242D01*
X182544182Y-112395678D01*
X182693825Y-112135781D01*
X182859385Y-111848411D01*
X183039213Y-111536430D01*
X183231661Y-111202702D01*
X183435082Y-110850087D01*
X183647829Y-110481449D01*
X183868252Y-110099649D01*
X185655062Y-107005240D01*
X186843989Y-107005240D01*
X188032915Y-107005240D01*
X187968750Y-107119513D01*
G37*
G36*
X223246566Y-105880907D02*
G01*
X223303471Y-105911008D01*
X223394159Y-105961196D01*
X223509758Y-106026535D01*
X223641394Y-106102091D01*
X223724854Y-106150454D01*
X223843773Y-106220611D01*
X223924113Y-106271232D01*
X223972130Y-106307369D01*
X223994078Y-106334073D01*
X223996213Y-106356394D01*
X223984790Y-106379383D01*
X223982104Y-106383723D01*
X223955278Y-106429086D01*
X223904404Y-106516248D01*
X223832352Y-106640237D01*
X223741990Y-106796083D01*
X223636188Y-106978813D01*
X223517814Y-107183455D01*
X223389737Y-107405039D01*
X223254826Y-107638593D01*
X223115950Y-107879145D01*
X222975978Y-108121723D01*
X222837779Y-108361355D01*
X222704222Y-108593071D01*
X222578175Y-108811899D01*
X222462507Y-109012866D01*
X222360088Y-109191002D01*
X222273787Y-109341335D01*
X222206471Y-109458892D01*
X222161011Y-109538704D01*
X222140275Y-109575797D01*
X222131590Y-109595470D01*
X222125478Y-109643284D01*
X222138870Y-109710269D01*
X222173970Y-109811858D01*
X222204743Y-109890458D01*
X222305083Y-110113946D01*
X222416979Y-110322590D01*
X222534376Y-110506603D01*
X222651220Y-110656197D01*
X222761456Y-110761585D01*
X222766451Y-110765368D01*
X222951591Y-110873577D01*
X223147618Y-110932277D01*
X223346354Y-110942041D01*
X223539622Y-110903442D01*
X223719246Y-110817053D01*
X223877048Y-110683446D01*
X223898537Y-110659802D01*
X223933387Y-110619831D01*
X223968442Y-110576538D01*
X224005985Y-110526190D01*
X224048296Y-110465055D01*
X224097659Y-110389400D01*
X224156354Y-110295493D01*
X224226663Y-110179602D01*
X224310868Y-110037994D01*
X224411251Y-109866938D01*
X224530094Y-109662700D01*
X224669678Y-109421549D01*
X224832285Y-109139751D01*
X225020197Y-108813576D01*
X225157971Y-108575146D01*
X225299109Y-108332672D01*
X225430260Y-108109172D01*
X225548922Y-107908817D01*
X225652596Y-107735779D01*
X225738782Y-107594226D01*
X225804982Y-107488330D01*
X225848693Y-107422261D01*
X225867418Y-107400189D01*
X225878499Y-107404789D01*
X225932269Y-107432199D01*
X226020473Y-107479729D01*
X226133961Y-107542413D01*
X226263586Y-107615283D01*
X226367611Y-107675062D01*
X226488783Y-107748506D01*
X226567959Y-107802998D01*
X226609834Y-107841883D01*
X226619107Y-107868508D01*
X226618802Y-107869411D01*
X226600892Y-107904138D01*
X226557367Y-107983074D01*
X226490195Y-108102772D01*
X226401345Y-108259781D01*
X226292783Y-108450655D01*
X226166480Y-108671944D01*
X226024401Y-108920200D01*
X225868516Y-109191974D01*
X225700792Y-109483817D01*
X225523197Y-109792282D01*
X225337700Y-110113918D01*
X225335663Y-110117448D01*
X225147905Y-110443310D01*
X224966585Y-110759100D01*
X224793843Y-111061029D01*
X224631819Y-111345306D01*
X224482653Y-111608142D01*
X224348484Y-111845749D01*
X224231453Y-112054336D01*
X224133699Y-112230114D01*
X224057361Y-112369295D01*
X224004581Y-112468087D01*
X223977497Y-112522703D01*
X223952395Y-112585035D01*
X223906436Y-112711395D01*
X223853525Y-112867439D01*
X223798387Y-113039105D01*
X223745747Y-113212330D01*
X223706758Y-113341568D01*
X223655936Y-113501415D01*
X223608030Y-113643299D01*
X223567059Y-113755408D01*
X223537040Y-113825929D01*
X223464150Y-113945677D01*
X223331613Y-114090824D01*
X223176816Y-114192244D01*
X223031518Y-114232263D01*
X222879491Y-114224659D01*
X222734693Y-114172994D01*
X222609342Y-114081653D01*
X222515652Y-113955018D01*
X222486792Y-113885021D01*
X222459170Y-113727125D01*
X222471130Y-113562073D01*
X222522413Y-113410698D01*
X222537630Y-113385322D01*
X222597615Y-113305809D01*
X222687443Y-113201488D01*
X222799454Y-113081046D01*
X222925989Y-112953165D01*
X223035073Y-112845301D01*
X223195318Y-112681491D01*
X223327413Y-112536849D01*
X223440101Y-112400547D01*
X223542123Y-112261754D01*
X223642220Y-112109639D01*
X223749136Y-111933372D01*
X223827276Y-111800914D01*
X223654250Y-111818428D01*
X223472596Y-111823164D01*
X223224201Y-111784530D01*
X222989172Y-111695550D01*
X222772916Y-111559125D01*
X222580838Y-111378155D01*
X222418346Y-111155539D01*
X222366887Y-111065018D01*
X222252306Y-110828441D01*
X222144875Y-110559410D01*
X222051212Y-110273820D01*
X222023589Y-110179835D01*
X221991390Y-110071030D01*
X221967128Y-109989922D01*
X221954603Y-109949280D01*
X221944260Y-109941999D01*
X221907672Y-109966279D01*
X221850922Y-110032238D01*
X221794162Y-110099559D01*
X221655666Y-110227925D01*
X221500985Y-110334677D01*
X221349581Y-110405333D01*
X221210429Y-110436842D01*
X221008195Y-110442068D01*
X220803916Y-110406868D01*
X220616015Y-110333056D01*
X220468944Y-110238470D01*
X220320902Y-110105378D01*
X220204568Y-109957205D01*
X220131381Y-109806382D01*
X220115414Y-109749726D01*
X220087704Y-109540469D01*
X220098236Y-109310102D01*
X220145669Y-109071948D01*
X220228664Y-108839331D01*
X220292358Y-108696231D01*
X220380140Y-108750106D01*
X220467922Y-108803982D01*
X220414802Y-108974658D01*
X220404408Y-109010539D01*
X220375045Y-109157808D01*
X220363685Y-109304500D01*
X220370873Y-109433520D01*
X220397156Y-109527770D01*
X220416680Y-109559494D01*
X220500718Y-109641141D01*
X220609612Y-109700059D01*
X220720875Y-109722707D01*
X220779788Y-109716358D01*
X220888068Y-109670346D01*
X221000395Y-109577055D01*
X221121330Y-109433188D01*
X221141085Y-109404078D01*
X221191363Y-109324062D01*
X221264944Y-109203185D01*
X221359292Y-109045741D01*
X221471871Y-108856024D01*
X221600146Y-108638327D01*
X221741582Y-108396944D01*
X221893641Y-108136169D01*
X222053790Y-107860295D01*
X222219492Y-107573615D01*
X222348643Y-107350180D01*
X222505660Y-107079903D01*
X222653262Y-106827333D01*
X222789182Y-106596272D01*
X222911153Y-106390523D01*
X223016907Y-106213889D01*
X223104178Y-106070173D01*
X223170698Y-105963179D01*
X223214199Y-105896708D01*
X223232415Y-105874565D01*
X223246566Y-105880907D01*
G37*
G36*
X228455645Y-101703878D02*
G01*
X228374684Y-102010646D01*
X228288488Y-102336712D01*
X228198107Y-102678080D01*
X227607017Y-104908890D01*
X227916708Y-105215307D01*
X227949227Y-105247711D01*
X228076702Y-105378431D01*
X228203374Y-105513360D01*
X228316130Y-105638338D01*
X228401860Y-105739206D01*
X228468541Y-105823351D01*
X228805649Y-106300436D01*
X229100730Y-106809828D01*
X229350647Y-107344948D01*
X229552262Y-107899219D01*
X229702438Y-108466063D01*
X229733015Y-108611359D01*
X229782129Y-108873063D01*
X229816637Y-109111052D01*
X229838596Y-109344574D01*
X229850067Y-109592879D01*
X229852846Y-109851047D01*
X229853106Y-109875218D01*
X229847496Y-110180839D01*
X229822132Y-110564658D01*
X229773726Y-110931078D01*
X229699431Y-111300270D01*
X229596397Y-111692400D01*
X229568670Y-111789907D01*
X229539658Y-111895586D01*
X229519868Y-111972167D01*
X229512508Y-112007593D01*
X229519090Y-112016455D01*
X229559781Y-112060992D01*
X229635138Y-112140080D01*
X229742278Y-112250782D01*
X229878319Y-112390164D01*
X230040378Y-112555293D01*
X230225572Y-112743233D01*
X230431019Y-112951049D01*
X230653836Y-113175809D01*
X230891141Y-113414576D01*
X231140050Y-113664416D01*
X231290932Y-113815795D01*
X231532126Y-114058262D01*
X231759478Y-114287402D01*
X231970167Y-114500340D01*
X231989354Y-114519794D01*
X232161370Y-114694202D01*
X232330268Y-114866113D01*
X232474037Y-115013200D01*
X232589858Y-115132587D01*
X232674909Y-115221402D01*
X232726369Y-115276768D01*
X232741415Y-115295814D01*
X232735927Y-115295521D01*
X232724716Y-115294002D01*
X232706362Y-115290407D01*
X232677547Y-115283867D01*
X232634951Y-115273515D01*
X232575257Y-115258487D01*
X232495144Y-115237913D01*
X232391294Y-115210929D01*
X232260389Y-115176666D01*
X232099108Y-115134259D01*
X231904135Y-115082840D01*
X231672149Y-115021544D01*
X231399832Y-114949502D01*
X231083865Y-114865849D01*
X230720929Y-114769717D01*
X230307705Y-114660240D01*
X228288554Y-114125268D01*
X228018870Y-114399515D01*
X227829717Y-114585129D01*
X227371879Y-114982324D01*
X226890021Y-115329716D01*
X226382802Y-115628044D01*
X225848878Y-115878053D01*
X225665470Y-115944119D01*
X225286908Y-116080482D01*
X224695548Y-116236075D01*
X224489492Y-116278490D01*
X224229122Y-116322558D01*
X223976522Y-116352319D01*
X223716073Y-116369080D01*
X223432154Y-116374147D01*
X223109144Y-116368828D01*
X223082634Y-116368040D01*
X222797092Y-116356024D01*
X222548172Y-116337208D01*
X222318647Y-116309061D01*
X222091293Y-116269053D01*
X221848885Y-116214652D01*
X221574197Y-116143329D01*
X221192281Y-116039497D01*
X220090682Y-117121816D01*
X220053289Y-117158561D01*
X219824091Y-117384055D01*
X219589851Y-117614926D01*
X219356950Y-117844862D01*
X219131766Y-118067549D01*
X218920678Y-118276675D01*
X218730065Y-118465927D01*
X218566307Y-118628992D01*
X218435783Y-118759556D01*
X218409602Y-118785823D01*
X218268754Y-118926585D01*
X218141995Y-119052376D01*
X218034315Y-119158310D01*
X217950701Y-119239503D01*
X217896141Y-119291068D01*
X217875626Y-119308121D01*
X217877735Y-119296978D01*
X217892045Y-119238020D01*
X217918905Y-119131875D01*
X217957291Y-118982480D01*
X218006175Y-118793771D01*
X218064532Y-118569686D01*
X218131336Y-118314162D01*
X218155328Y-118222678D01*
X218675193Y-118222678D01*
X218678265Y-118223435D01*
X218712382Y-118199497D01*
X218782459Y-118138508D01*
X218886450Y-118042426D01*
X219022311Y-117913211D01*
X219187995Y-117752818D01*
X219381458Y-117563208D01*
X219600654Y-117346338D01*
X219843538Y-117104166D01*
X221003015Y-115944119D01*
X220614295Y-115719817D01*
X220518628Y-115665232D01*
X220382498Y-115591007D01*
X220286638Y-115544523D01*
X220227191Y-115523989D01*
X220200302Y-115527615D01*
X220197090Y-115532457D01*
X220170391Y-115576709D01*
X220120300Y-115661625D01*
X220050000Y-115781710D01*
X219962673Y-115931468D01*
X219861500Y-116105406D01*
X219749665Y-116298028D01*
X219630348Y-116503839D01*
X219506734Y-116717344D01*
X219382003Y-116933048D01*
X219259337Y-117145456D01*
X219141920Y-117349074D01*
X219032932Y-117538405D01*
X218935557Y-117707956D01*
X218852977Y-117852231D01*
X218788373Y-117965735D01*
X218764326Y-118009316D01*
X218715910Y-118105529D01*
X218684223Y-118181136D01*
X218675193Y-118222678D01*
X218155328Y-118222678D01*
X218205560Y-118031134D01*
X218286179Y-117724540D01*
X218372167Y-117398316D01*
X218462497Y-117056399D01*
X219056225Y-114811534D01*
X218730008Y-114478529D01*
X218595484Y-114340204D01*
X218452544Y-114189181D01*
X218333555Y-114056705D01*
X218229405Y-113931746D01*
X218130984Y-113803275D01*
X218029182Y-113660262D01*
X217914888Y-113491677D01*
X217758515Y-113246719D01*
X217485838Y-112751956D01*
X217260603Y-112239390D01*
X217079727Y-111701550D01*
X216940124Y-111130966D01*
X216929867Y-111079851D01*
X216874972Y-110767325D01*
X216838630Y-110471124D01*
X216818524Y-110167730D01*
X216814369Y-109943365D01*
X217947235Y-109943365D01*
X217972003Y-110400034D01*
X218037796Y-110831877D01*
X218051555Y-110895927D01*
X218067295Y-110963471D01*
X218076003Y-110993222D01*
X218089136Y-110992135D01*
X218147486Y-110979750D01*
X218244177Y-110956451D01*
X218370137Y-110924447D01*
X218516299Y-110885949D01*
X218615772Y-110859718D01*
X218750253Y-110825632D01*
X218858877Y-110799780D01*
X218932437Y-110784322D01*
X218961730Y-110781417D01*
X218966810Y-110792459D01*
X218984731Y-110847224D01*
X219010830Y-110936344D01*
X219041397Y-111047433D01*
X219109490Y-111301876D01*
X219021557Y-111326031D01*
X219017726Y-111327080D01*
X218953117Y-111344487D01*
X218849675Y-111372077D01*
X218720846Y-111406274D01*
X218580077Y-111443499D01*
X218551108Y-111451230D01*
X218424017Y-111487311D01*
X218320929Y-111520055D01*
X218251786Y-111546126D01*
X218226529Y-111562185D01*
X218227083Y-111568080D01*
X218242657Y-111622460D01*
X218276226Y-111713676D01*
X218323184Y-111830772D01*
X218378928Y-111962791D01*
X218438856Y-112098775D01*
X218498362Y-112227769D01*
X218552843Y-112338814D01*
X218601129Y-112430292D01*
X218824142Y-112799977D01*
X219084968Y-113161470D01*
X219375188Y-113505351D01*
X219686388Y-113822200D01*
X220010152Y-114102596D01*
X220338063Y-114337118D01*
X220411496Y-114383903D01*
X220507646Y-114223119D01*
X220549334Y-114152552D01*
X220614316Y-114041312D01*
X220694465Y-113903307D01*
X220783402Y-113749521D01*
X220874749Y-113590938D01*
X220886259Y-113570917D01*
X220968904Y-113427386D01*
X221041258Y-113302111D01*
X221098993Y-113202554D01*
X221137785Y-113136178D01*
X221153307Y-113110445D01*
X221153911Y-113110300D01*
X221183099Y-113122779D01*
X221246386Y-113154963D01*
X221331128Y-113199976D01*
X221424681Y-113250938D01*
X221514401Y-113300971D01*
X221587645Y-113343197D01*
X221631770Y-113370738D01*
X221622394Y-113392014D01*
X221588608Y-113455282D01*
X221533732Y-113554191D01*
X221461332Y-113682383D01*
X221374974Y-113833499D01*
X221278222Y-114001183D01*
X221189534Y-114155016D01*
X221100991Y-114310397D01*
X221025706Y-114444445D01*
X220967365Y-114550526D01*
X220929656Y-114622007D01*
X220916267Y-114652255D01*
X220926765Y-114665759D01*
X220980606Y-114700017D01*
X221072802Y-114747069D01*
X221195058Y-114803002D01*
X221339076Y-114863904D01*
X221496560Y-114925864D01*
X221643994Y-114976985D01*
X221876937Y-115045152D01*
X222130993Y-115108044D01*
X222386484Y-115160893D01*
X222623735Y-115198932D01*
X222860737Y-115222649D01*
X223156184Y-115236468D01*
X223462417Y-115236514D01*
X223763213Y-115223186D01*
X224042349Y-115196884D01*
X224283603Y-115158008D01*
X224310438Y-115152260D01*
X224388406Y-115130803D01*
X224423774Y-115108293D01*
X224426617Y-115079178D01*
X224398660Y-114980823D01*
X224364627Y-114855550D01*
X224328926Y-114719857D01*
X224294246Y-114584405D01*
X224263276Y-114459853D01*
X224238706Y-114356861D01*
X224223223Y-114286088D01*
X224219518Y-114258194D01*
X224230369Y-114253552D01*
X224284792Y-114236460D01*
X224373672Y-114211107D01*
X224484696Y-114181075D01*
X224739479Y-114113750D01*
X224795744Y-114323742D01*
X224796073Y-114324970D01*
X224832631Y-114461649D01*
X224874350Y-114617974D01*
X224912265Y-114760346D01*
X224972522Y-114986959D01*
X225211261Y-114902696D01*
X225575948Y-114754890D01*
X225996191Y-114538570D01*
X226403228Y-114280759D01*
X226785830Y-113988664D01*
X227132767Y-113669492D01*
X227201251Y-113598954D01*
X227341130Y-113448861D01*
X227474058Y-113298750D01*
X227594726Y-113155227D01*
X227697822Y-113024897D01*
X227759961Y-112939272D01*
X228963753Y-112939272D01*
X228965783Y-112965780D01*
X228980821Y-112982128D01*
X228992310Y-112989194D01*
X229048281Y-113022264D01*
X229145301Y-113078948D01*
X229278798Y-113156594D01*
X229444200Y-113252554D01*
X229636937Y-113364175D01*
X229852437Y-113488807D01*
X230086128Y-113623798D01*
X230333441Y-113766499D01*
X230468303Y-113844113D01*
X230708875Y-113981748D01*
X230933580Y-114109273D01*
X231137835Y-114224149D01*
X231317062Y-114323834D01*
X231466677Y-114405789D01*
X231582101Y-114467473D01*
X231658753Y-114506346D01*
X231692050Y-114519869D01*
X231692751Y-114519794D01*
X231682983Y-114498326D01*
X231634345Y-114439393D01*
X231547794Y-114343999D01*
X231424289Y-114213145D01*
X231264788Y-114047837D01*
X231070247Y-113849076D01*
X230841626Y-113617865D01*
X230579882Y-113355209D01*
X230380486Y-113156246D01*
X230181000Y-112958193D01*
X229996210Y-112775743D01*
X229829600Y-112612289D01*
X229684656Y-112471222D01*
X229564862Y-112355931D01*
X229473704Y-112269808D01*
X229414665Y-112216243D01*
X229391231Y-112198628D01*
X229382281Y-112207441D01*
X229347750Y-112256172D01*
X229294095Y-112339961D01*
X229226658Y-112450359D01*
X229150780Y-112578918D01*
X229148237Y-112583296D01*
X229066973Y-112724614D01*
X229011222Y-112826105D01*
X228977857Y-112895185D01*
X228963753Y-112939272D01*
X227759961Y-112939272D01*
X227778037Y-112914364D01*
X227830060Y-112830235D01*
X227848581Y-112779114D01*
X227826607Y-112759051D01*
X227762545Y-112715230D01*
X227662657Y-112651741D01*
X227533220Y-112572489D01*
X227380511Y-112481380D01*
X227210808Y-112382319D01*
X227044816Y-112285603D01*
X226891697Y-112194751D01*
X226761689Y-112115912D01*
X226661062Y-112052942D01*
X226596087Y-112009699D01*
X226573035Y-111990039D01*
X226576259Y-111979118D01*
X226600779Y-111927109D01*
X226644158Y-111845338D01*
X226700101Y-111745898D01*
X226730673Y-111693449D01*
X226783520Y-111608631D01*
X226820917Y-111561952D01*
X226849864Y-111545776D01*
X226877360Y-111552465D01*
X226902049Y-111566264D01*
X226971281Y-111605688D01*
X227075891Y-111665610D01*
X227208734Y-111741928D01*
X227362666Y-111830544D01*
X227530542Y-111927355D01*
X227666739Y-112005665D01*
X227818360Y-112092069D01*
X227948013Y-112165095D01*
X228049205Y-112221118D01*
X228115443Y-112256514D01*
X228140232Y-112267659D01*
X228151390Y-112251172D01*
X228185501Y-112186134D01*
X228231277Y-112088050D01*
X228283227Y-111969289D01*
X228335862Y-111842221D01*
X228383690Y-111719213D01*
X228421273Y-111615464D01*
X228549741Y-111193918D01*
X228638712Y-110768476D01*
X228690566Y-110325424D01*
X228707680Y-109851047D01*
X228706301Y-109723845D01*
X228699944Y-109542218D01*
X228689244Y-109360646D01*
X228675106Y-109188361D01*
X228658438Y-109034594D01*
X228640144Y-108908579D01*
X228621129Y-108819548D01*
X228602300Y-108776732D01*
X228595002Y-108775385D01*
X228543931Y-108782025D01*
X228453633Y-108800942D01*
X228334069Y-108829932D01*
X228195197Y-108866793D01*
X228061391Y-108903412D01*
X227926443Y-108938733D01*
X227831468Y-108960202D01*
X227768910Y-108968716D01*
X227731210Y-108965171D01*
X227710813Y-108950464D01*
X227700160Y-108925491D01*
X227669032Y-108808977D01*
X227637459Y-108678750D01*
X227614633Y-108570291D01*
X227602730Y-108494115D01*
X227603929Y-108460736D01*
X227613800Y-108455904D01*
X227668753Y-108437437D01*
X227762725Y-108409438D01*
X227885989Y-108374758D01*
X228028821Y-108336244D01*
X228104265Y-108316149D01*
X228237533Y-108279820D01*
X228345882Y-108249191D01*
X228419724Y-108227002D01*
X228449473Y-108215993D01*
X228449251Y-108190752D01*
X228430417Y-108122689D01*
X228395225Y-108022246D01*
X228347548Y-107899047D01*
X228291259Y-107762717D01*
X228230231Y-107622878D01*
X228168338Y-107489155D01*
X228109452Y-107371171D01*
X227913861Y-107027566D01*
X227630183Y-106613690D01*
X227305734Y-106226557D01*
X226933515Y-105857156D01*
X226897579Y-105824953D01*
X226795689Y-105737969D01*
X226681999Y-105645549D01*
X226565554Y-105554545D01*
X226455396Y-105471808D01*
X226360571Y-105404189D01*
X226290121Y-105358539D01*
X226253092Y-105341710D01*
X226238820Y-105355662D01*
X226199231Y-105411596D01*
X226139536Y-105504260D01*
X226063799Y-105627157D01*
X225976082Y-105773790D01*
X225880447Y-105937663D01*
X225805546Y-106066869D01*
X225717085Y-106217644D01*
X225640497Y-106346140D01*
X225579687Y-106445885D01*
X225538561Y-106510410D01*
X225521023Y-106533241D01*
X225509781Y-106528839D01*
X225458690Y-106502457D01*
X225377476Y-106457598D01*
X225277464Y-106400437D01*
X225049470Y-106268233D01*
X225384377Y-105688580D01*
X225448644Y-105577131D01*
X225537100Y-105422978D01*
X225613733Y-105288532D01*
X225674540Y-105180856D01*
X225715516Y-105107016D01*
X225732657Y-105074076D01*
X225728522Y-105058278D01*
X225683495Y-105021385D01*
X225597389Y-104974029D01*
X225477888Y-104919157D01*
X225332676Y-104859717D01*
X225169437Y-104798659D01*
X224995857Y-104738930D01*
X224819618Y-104683480D01*
X224648405Y-104635258D01*
X224489902Y-104597210D01*
X224408296Y-104580216D01*
X224166949Y-104536600D01*
X223937325Y-104507164D01*
X223702808Y-104490587D01*
X223446783Y-104485544D01*
X223152632Y-104490713D01*
X223001262Y-104496877D01*
X222808865Y-104508803D01*
X222628590Y-104524250D01*
X222469100Y-104542211D01*
X222339059Y-104561680D01*
X222247129Y-104581651D01*
X222201974Y-104601119D01*
X222202255Y-104610960D01*
X222213013Y-104665136D01*
X222235040Y-104758175D01*
X222266072Y-104880687D01*
X222303841Y-105023281D01*
X222324668Y-105101675D01*
X222359059Y-105237771D01*
X222385241Y-105350414D01*
X222400956Y-105429625D01*
X222403943Y-105465420D01*
X222401665Y-105468298D01*
X222363113Y-105487785D01*
X222289098Y-105514815D01*
X222194262Y-105545101D01*
X222093248Y-105574357D01*
X222000700Y-105598295D01*
X221931261Y-105612629D01*
X221899573Y-105613073D01*
X221889531Y-105584893D01*
X221868081Y-105513476D01*
X221838177Y-105409295D01*
X221802744Y-105282801D01*
X221764710Y-105144443D01*
X221727001Y-105004670D01*
X221692544Y-104873933D01*
X221683021Y-104838560D01*
X221661520Y-104782736D01*
X221633008Y-104763540D01*
X221584544Y-104768320D01*
X221549553Y-104778133D01*
X221465883Y-104807652D01*
X221356205Y-104850339D01*
X221235106Y-104900667D01*
X221144812Y-104940241D01*
X220666873Y-105181206D01*
X220225624Y-105460694D01*
X219814467Y-105783277D01*
X219426802Y-106153528D01*
X219369667Y-106214815D01*
X219267272Y-106330658D01*
X219162844Y-106455026D01*
X219062857Y-106579583D01*
X218973785Y-106695996D01*
X218933062Y-106752769D01*
X218902102Y-106795932D01*
X218854281Y-106871055D01*
X218836798Y-106913032D01*
X218851958Y-106929084D01*
X218909257Y-106970412D01*
X219003139Y-107031667D01*
X219127144Y-107108764D01*
X219274812Y-107197621D01*
X219439684Y-107294153D01*
X219571358Y-107370313D01*
X219727427Y-107460758D01*
X219863280Y-107539684D01*
X219971963Y-107603041D01*
X220046519Y-107646782D01*
X220079993Y-107666858D01*
X220092070Y-107688997D01*
X220082515Y-107732517D01*
X220048232Y-107805636D01*
X219986130Y-107916577D01*
X219953232Y-107971758D01*
X219896959Y-108059315D01*
X219852596Y-108119658D01*
X219827625Y-108142139D01*
X219802179Y-108131283D01*
X219734298Y-108095916D01*
X219631171Y-108039582D01*
X219499454Y-107965970D01*
X219345806Y-107878766D01*
X219176882Y-107781659D01*
X219023282Y-107693053D01*
X218869691Y-107604955D01*
X218738176Y-107530052D01*
X218635205Y-107472011D01*
X218567248Y-107434498D01*
X218540775Y-107421179D01*
X218534008Y-107426185D01*
X218506800Y-107470536D01*
X218466404Y-107552693D01*
X218417021Y-107662830D01*
X218362851Y-107791117D01*
X218308094Y-107927728D01*
X218256950Y-108062834D01*
X218213621Y-108186609D01*
X218111357Y-108540625D01*
X218017684Y-109002037D01*
X217962720Y-109473491D01*
X217947235Y-109943365D01*
X216814369Y-109943365D01*
X216812336Y-109833624D01*
X216818470Y-109539941D01*
X216863904Y-108989758D01*
X216952639Y-108461111D01*
X217083532Y-107961899D01*
X217162043Y-107712336D01*
X215545633Y-106078255D01*
X215401407Y-105932371D01*
X215160663Y-105688492D01*
X214933327Y-105457735D01*
X214722248Y-105243018D01*
X214689020Y-105209134D01*
X214983348Y-105209134D01*
X214998546Y-105235471D01*
X215052215Y-105298722D01*
X215143053Y-105397538D01*
X215269762Y-105530567D01*
X215431042Y-105696457D01*
X215625593Y-105893859D01*
X215852115Y-106121422D01*
X216109309Y-106377793D01*
X216176086Y-106444133D01*
X216409848Y-106676266D01*
X216608123Y-106872777D01*
X216773962Y-107036427D01*
X216910416Y-107169978D01*
X217020538Y-107276191D01*
X217107378Y-107357828D01*
X217173988Y-107417649D01*
X217223419Y-107458417D01*
X217258724Y-107482892D01*
X217282954Y-107493837D01*
X217299160Y-107494012D01*
X217310394Y-107486179D01*
X217319708Y-107473099D01*
X217343394Y-107435295D01*
X217415779Y-107315281D01*
X217489607Y-107187332D01*
X217559904Y-107060712D01*
X217621701Y-106944683D01*
X217670024Y-106848508D01*
X217699901Y-106781449D01*
X217706361Y-106752769D01*
X217674238Y-106730563D01*
X217599250Y-106684294D01*
X217487299Y-106617550D01*
X217343698Y-106533343D01*
X217173758Y-106434688D01*
X216982789Y-106324597D01*
X216776105Y-106206084D01*
X216559015Y-106082163D01*
X216336833Y-105955847D01*
X216114869Y-105830150D01*
X215898435Y-105708084D01*
X215692842Y-105592665D01*
X215503402Y-105486904D01*
X215335426Y-105393817D01*
X215194227Y-105316415D01*
X215085115Y-105257713D01*
X215013403Y-105220725D01*
X214984401Y-105208462D01*
X214983348Y-105209134D01*
X214689020Y-105209134D01*
X214530276Y-105047257D01*
X214360261Y-104873369D01*
X214215053Y-104724271D01*
X214097501Y-104602881D01*
X214010456Y-104512113D01*
X213956766Y-104454886D01*
X213939282Y-104434116D01*
X213948092Y-104435369D01*
X214003501Y-104448136D01*
X214106350Y-104473569D01*
X214252667Y-104510638D01*
X214438478Y-104558314D01*
X214659810Y-104615567D01*
X214912687Y-104681369D01*
X215193137Y-104754689D01*
X215497186Y-104834498D01*
X215820860Y-104919766D01*
X216160186Y-105009465D01*
X218371032Y-105594872D01*
X218735516Y-105238112D01*
X218980095Y-105008232D01*
X219430793Y-104633535D01*
X219896009Y-104309822D01*
X220380526Y-104034507D01*
X220889126Y-103805002D01*
X221001346Y-103766107D01*
X225685699Y-103766107D01*
X225699916Y-103780740D01*
X225753461Y-103818753D01*
X225837520Y-103872462D01*
X225942195Y-103935336D01*
X226013886Y-103977205D01*
X226136158Y-104048471D01*
X226245110Y-104111811D01*
X226323472Y-104157178D01*
X226448253Y-104229094D01*
X227010751Y-103253248D01*
X227020774Y-103235859D01*
X227153947Y-103004894D01*
X227287292Y-102773743D01*
X227416166Y-102550446D01*
X227535927Y-102343044D01*
X227641931Y-102159575D01*
X227729537Y-102008082D01*
X227794102Y-101896602D01*
X227839027Y-101818120D01*
X227908754Y-101691768D01*
X227964537Y-101584856D01*
X228001547Y-101506776D01*
X228014957Y-101466923D01*
X228008992Y-101467341D01*
X227969396Y-101497617D01*
X227894798Y-101563794D01*
X227787664Y-101663508D01*
X227650463Y-101794396D01*
X227485661Y-101954095D01*
X227295727Y-102140241D01*
X227083126Y-102350472D01*
X226850328Y-102582423D01*
X226651523Y-102781469D01*
X226453056Y-102980774D01*
X226269968Y-103165244D01*
X226105675Y-103331408D01*
X225963593Y-103475793D01*
X225847138Y-103594927D01*
X225759727Y-103685339D01*
X225704775Y-103743557D01*
X225685699Y-103766107D01*
X221001346Y-103766107D01*
X221426592Y-103618718D01*
X221997708Y-103473069D01*
X222053318Y-103461337D01*
X222283744Y-103417354D01*
X222500404Y-103385151D01*
X222717073Y-103363621D01*
X222947525Y-103351658D01*
X223205534Y-103348157D01*
X223504874Y-103352009D01*
X223564757Y-103353474D01*
X223919193Y-103369358D01*
X224236585Y-103398105D01*
X224532008Y-103441874D01*
X224820538Y-103502827D01*
X225117249Y-103583125D01*
X225171982Y-103599239D01*
X225284673Y-103631691D01*
X225375958Y-103657030D01*
X225429989Y-103670813D01*
X225432001Y-103671112D01*
X225449635Y-103667116D01*
X225477426Y-103651281D01*
X225517783Y-103621313D01*
X225573113Y-103574917D01*
X225645824Y-103509799D01*
X225738326Y-103423665D01*
X225853027Y-103314219D01*
X225992334Y-103179168D01*
X226158657Y-103016216D01*
X226354404Y-102823071D01*
X226581983Y-102597436D01*
X226843802Y-102337018D01*
X227142271Y-102039522D01*
X227308423Y-101873914D01*
X227551547Y-101632065D01*
X227781194Y-101404186D01*
X227994508Y-101193084D01*
X228188630Y-101001565D01*
X228360702Y-100832438D01*
X228507866Y-100688509D01*
X228627264Y-100572585D01*
X228716039Y-100487472D01*
X228771332Y-100435978D01*
X228790286Y-100420910D01*
X228787773Y-100432408D01*
X228772799Y-100492235D01*
X228745253Y-100599323D01*
X228706185Y-100749679D01*
X228656642Y-100939308D01*
X228597673Y-101164213D01*
X228530324Y-101420402D01*
X228518068Y-101466923D01*
X228455645Y-101703878D01*
G37*
D11*
%TO.C,REF\u002A\u002A*%
X83225000Y-102950000D02*
X84475000Y-102950000D01*
X83225000Y-104200000D02*
X83225000Y-102950000D01*
X83515000Y-103240000D02*
X89485000Y-103240000D01*
X83515000Y-113360000D02*
X83515000Y-103240000D01*
X83525000Y-103250000D02*
X84275000Y-103250000D01*
X83525000Y-105050000D02*
X83525000Y-103250000D01*
X83525000Y-106550000D02*
X84275000Y-106550000D01*
X83525000Y-110050000D02*
X83525000Y-106550000D01*
X83525000Y-111550000D02*
X84275000Y-111550000D01*
X83525000Y-113350000D02*
X83525000Y-111550000D01*
X84275000Y-103250000D02*
X84275000Y-105050000D01*
X84275000Y-105050000D02*
X83525000Y-105050000D01*
X84275000Y-106550000D02*
X84275000Y-110050000D01*
X84275000Y-110050000D02*
X83525000Y-110050000D01*
X84275000Y-111550000D02*
X84275000Y-113350000D01*
X84275000Y-113350000D02*
X83525000Y-113350000D01*
X85775000Y-103250000D02*
X85775000Y-104000000D01*
X85775000Y-104000000D02*
X88725000Y-104000000D01*
X85775000Y-112600000D02*
X88725000Y-112600000D01*
X85775000Y-113350000D02*
X85775000Y-112600000D01*
X88725000Y-104000000D02*
X88725000Y-108300000D01*
X88725000Y-112600000D02*
X88725000Y-108300000D01*
X89485000Y-103240000D02*
X89485000Y-113360000D01*
X89485000Y-113360000D02*
X83515000Y-113360000D01*
%TD*%
M02*
