%TF.GenerationSoftware,KiCad,Pcbnew,9.0.2*%
%TF.CreationDate,2026-06-17T11:02:43-07:00*%
%TF.ProjectId,ZDC_Even_Middle_PCB,5a44435f-4576-4656-9e5f-4d6964646c65,rev?*%
%TF.SameCoordinates,Original*%
%TF.FileFunction,Paste,Top*%
%TF.FilePolarity,Positive*%
%FSLAX46Y46*%
G04 Gerber Fmt 4.6, Leading zero omitted, Abs format (unit mm)*
G04 Created by KiCad (PCBNEW 9.0.2) date 2026-06-17 11:02:43*
%MOMM*%
%LPD*%
G01*
G04 APERTURE LIST*
G04 Aperture macros list*
%AMRoundRect*
0 Rectangle with rounded corners*
0 $1 Rounding radius*
0 $2 $3 $4 $5 $6 $7 $8 $9 X,Y pos of 4 corners*
0 Add a 4 corners polygon primitive as box body*
4,1,4,$2,$3,$4,$5,$6,$7,$8,$9,$2,$3,0*
0 Add four circle primitives for the rounded corners*
1,1,$1+$1,$2,$3*
1,1,$1+$1,$4,$5*
1,1,$1+$1,$6,$7*
1,1,$1+$1,$8,$9*
0 Add four rect primitives between the rounded corners*
20,1,$1+$1,$2,$3,$4,$5,0*
20,1,$1+$1,$4,$5,$6,$7,0*
20,1,$1+$1,$6,$7,$8,$9,0*
20,1,$1+$1,$8,$9,$2,$3,0*%
G04 Aperture macros list end*
%ADD10R,0.700000X0.700000*%
%ADD11RoundRect,0.225000X-0.225000X-0.250000X0.225000X-0.250000X0.225000X0.250000X-0.225000X0.250000X0*%
%ADD12RoundRect,0.250000X-0.325000X-1.100000X0.325000X-1.100000X0.325000X1.100000X-0.325000X1.100000X0*%
G04 APERTURE END LIST*
D10*
%TO.C,REF\u002A\u002A20*%
X120727500Y24950000D03*
X120727500Y23850000D03*
D11*
X121225000Y22500000D03*
D10*
X122752500Y24950000D03*
X122752500Y23850000D03*
D11*
X122775000Y22500000D03*
%TD*%
D10*
%TO.C,REF\u002A\u002A20*%
X71927500Y73750000D03*
X71927500Y72650000D03*
D11*
X72425000Y71300000D03*
D10*
X73952500Y73750000D03*
X73952500Y72650000D03*
D11*
X73975000Y71300000D03*
%TD*%
D10*
%TO.C,REF\u002A\u002A20*%
X71927500Y122550000D03*
X71927500Y121450000D03*
X73952500Y122550000D03*
X73952500Y121450000D03*
D11*
X73975000Y120100000D03*
X72425000Y120100000D03*
%TD*%
D12*
%TO.C,10 nF*%
X88275000Y617100000D03*
X91225000Y617100000D03*
%TD*%
%TO.C,10 nF*%
X27450000Y610600000D03*
X30400000Y610600000D03*
%TD*%
D10*
%TO.C,REF\u002A\u002A20*%
X120727500Y561750000D03*
X120727500Y560650000D03*
D11*
X121225000Y559300000D03*
D10*
X122752500Y561750000D03*
X122752500Y560650000D03*
D11*
X122775000Y559300000D03*
%TD*%
D10*
%TO.C,REF\u002A\u002A20*%
X120727500Y317750000D03*
X120727500Y316650000D03*
D11*
X121225000Y315300000D03*
D10*
X122752500Y317750000D03*
X122752500Y316650000D03*
D11*
X122775000Y315300000D03*
%TD*%
D12*
%TO.C,10 nF*%
X185875000Y617100000D03*
X188825000Y617100000D03*
%TD*%
D10*
%TO.C,REF\u002A\u002A20*%
X169527500Y268950000D03*
X169527500Y267850000D03*
D11*
X170025000Y266500000D03*
D10*
X171552500Y268950000D03*
X171552500Y267850000D03*
D11*
X171575000Y266500000D03*
%TD*%
D12*
%TO.C,10 nF*%
X131075000Y610600000D03*
X134025000Y610600000D03*
%TD*%
%TO.C,10 nF*%
X39450000Y610600000D03*
X42400000Y610600000D03*
%TD*%
%TO.C,10 nF*%
X125075000Y617100000D03*
X128025000Y617100000D03*
%TD*%
D10*
%TO.C,REF\u002A\u002A20*%
X71927500Y561750000D03*
X71927500Y560650000D03*
D11*
X72425000Y559300000D03*
D10*
X73952500Y561750000D03*
X73952500Y560650000D03*
D11*
X73975000Y559300000D03*
%TD*%
D12*
%TO.C,10 nF*%
X88250000Y610600000D03*
X91200000Y610600000D03*
%TD*%
%TO.C,10 nF*%
X33475000Y623600000D03*
X36425000Y623600000D03*
%TD*%
%TO.C,10 nF*%
X119100000Y623600000D03*
X122050000Y623600000D03*
%TD*%
%TO.C,10 nF*%
X167900000Y623600000D03*
X170850000Y623600000D03*
%TD*%
%TO.C,10 nF*%
X76275000Y617100000D03*
X79225000Y617100000D03*
%TD*%
D10*
%TO.C,REF\u002A\u002A20*%
X169527500Y24950000D03*
X169527500Y23850000D03*
D11*
X170025000Y22500000D03*
D10*
X171552500Y24950000D03*
X171552500Y23850000D03*
D11*
X171575000Y22500000D03*
%TD*%
D10*
%TO.C,REF\u002A\u002A20*%
X23127500Y317750000D03*
X23127500Y316650000D03*
D11*
X23625000Y315300000D03*
D10*
X25152500Y317750000D03*
X25152500Y316650000D03*
D11*
X25175000Y315300000D03*
%TD*%
D12*
%TO.C,10 nF*%
X119075000Y617100000D03*
X122025000Y617100000D03*
%TD*%
%TO.C,10 nF*%
X167850000Y610600000D03*
X170800000Y610600000D03*
%TD*%
D10*
%TO.C,REF\u002A\u002A20*%
X71927500Y268950000D03*
X71927500Y267850000D03*
D11*
X72425000Y266500000D03*
D10*
X73952500Y268950000D03*
X73952500Y267850000D03*
D11*
X73975000Y266500000D03*
%TD*%
D10*
%TO.C,REF\u002A\u002A20*%
X120727500Y220150000D03*
X120727500Y219050000D03*
D11*
X121225000Y217700000D03*
D10*
X122752500Y220150000D03*
X122752500Y219050000D03*
D11*
X122775000Y217700000D03*
%TD*%
D12*
%TO.C,10 nF*%
X70300000Y623600000D03*
X73250000Y623600000D03*
%TD*%
%TO.C,10 nF*%
X76275000Y623600000D03*
X79225000Y623600000D03*
%TD*%
%TO.C,10 nF*%
X33475000Y617100000D03*
X36425000Y617100000D03*
%TD*%
%TO.C,10 nF*%
X173850000Y610600000D03*
X176800000Y610600000D03*
%TD*%
%TO.C,10 nF*%
X82275000Y623600000D03*
X85225000Y623600000D03*
%TD*%
D10*
%TO.C,REF\u002A\u002A20*%
X23127500Y122550000D03*
X23127500Y121450000D03*
D11*
X23625000Y120100000D03*
D10*
X25152500Y122550000D03*
X25152500Y121450000D03*
D11*
X25175000Y120100000D03*
%TD*%
D10*
%TO.C,REF\u002A\u002A20*%
X120727500Y122550000D03*
X120727500Y121450000D03*
D11*
X121225000Y120100000D03*
D10*
X122752500Y122550000D03*
X122752500Y121450000D03*
D11*
X122775000Y120100000D03*
%TD*%
D10*
%TO.C,REF\u002A\u002A20*%
X23127500Y220150000D03*
X23127500Y219050000D03*
D11*
X23625000Y217700000D03*
D10*
X25152500Y220150000D03*
X25152500Y219050000D03*
D11*
X25175000Y217700000D03*
%TD*%
D10*
%TO.C,REF\u002A\u002A20*%
X71927500Y24950000D03*
X71927500Y23850000D03*
D11*
X72425000Y22500000D03*
D10*
X73952500Y24950000D03*
X73952500Y23850000D03*
D11*
X73975000Y22500000D03*
%TD*%
D12*
%TO.C,10 nF*%
X21500000Y623600000D03*
X24450000Y623600000D03*
%TD*%
%TO.C,10 nF*%
X76250000Y610600000D03*
X79200000Y610600000D03*
%TD*%
D10*
%TO.C,REF\u002A\u002A20*%
X169527500Y415350000D03*
X169527500Y414250000D03*
D11*
X170025000Y412900000D03*
D10*
X171552500Y415350000D03*
X171552500Y414250000D03*
D11*
X171575000Y412900000D03*
%TD*%
D10*
%TO.C,REF\u002A\u002A20*%
X120727500Y268950000D03*
X120727500Y267850000D03*
D11*
X121225000Y266500000D03*
D10*
X122752500Y268950000D03*
X122752500Y267850000D03*
D11*
X122775000Y266500000D03*
%TD*%
D10*
%TO.C,REF\u002A\u002A20*%
X71927500Y317750000D03*
X71927500Y316650000D03*
D11*
X72425000Y315300000D03*
D10*
X73952500Y317750000D03*
X73952500Y316650000D03*
D11*
X73975000Y315300000D03*
%TD*%
D10*
%TO.C,REF\u002A\u002A20*%
X71927500Y366550000D03*
X71927500Y365450000D03*
D11*
X72425000Y364100000D03*
D10*
X73952500Y366550000D03*
X73952500Y365450000D03*
D11*
X73975000Y364100000D03*
%TD*%
D10*
%TO.C,REF\u002A\u002A20*%
X23127500Y366550000D03*
X23127500Y365450000D03*
D11*
X23625000Y364100000D03*
D10*
X25152500Y366550000D03*
X25152500Y365450000D03*
D11*
X25175000Y364100000D03*
%TD*%
D12*
%TO.C,10 nF*%
X137050000Y610600000D03*
X140000000Y610600000D03*
%TD*%
%TO.C,10 nF*%
X70250000Y610600000D03*
X73200000Y610600000D03*
%TD*%
D10*
%TO.C,REF\u002A\u002A20*%
X71927500Y464150000D03*
X71927500Y463050000D03*
D11*
X72425000Y461700000D03*
D10*
X73952500Y464150000D03*
X73952500Y463050000D03*
D11*
X73975000Y461700000D03*
%TD*%
D10*
%TO.C,REF\u002A\u002A20*%
X23127500Y561750000D03*
X23127500Y560650000D03*
D11*
X23625000Y559300000D03*
D10*
X25152500Y561750000D03*
X25152500Y560650000D03*
D11*
X25175000Y559300000D03*
%TD*%
D10*
%TO.C,REF\u002A\u002A20*%
X23127500Y73750000D03*
X23127500Y72650000D03*
D11*
X23625000Y71300000D03*
D10*
X25152500Y73750000D03*
X25152500Y72650000D03*
D11*
X25175000Y71300000D03*
%TD*%
D12*
%TO.C,10 nF*%
X21475000Y617100000D03*
X24425000Y617100000D03*
%TD*%
%TO.C,10 nF*%
X82275000Y610600000D03*
X85225000Y610600000D03*
%TD*%
D10*
%TO.C,REF\u002A\u002A20*%
X169527500Y122550000D03*
X169527500Y121450000D03*
X171552500Y122550000D03*
X171552500Y121450000D03*
D11*
X171575000Y120100000D03*
X170025000Y120100000D03*
%TD*%
D12*
%TO.C,10 nF*%
X131075000Y623600000D03*
X134025000Y623600000D03*
%TD*%
%TO.C,10 nF*%
X70275000Y617100000D03*
X73225000Y617100000D03*
%TD*%
D10*
%TO.C,REF\u002A\u002A20*%
X23127500Y415350000D03*
X23127500Y414250000D03*
D11*
X23625000Y412900000D03*
D10*
X25152500Y415350000D03*
X25152500Y414250000D03*
D11*
X25175000Y412900000D03*
%TD*%
D12*
%TO.C,10 nF*%
X125050000Y610600000D03*
X128000000Y610600000D03*
%TD*%
%TO.C,10 nF*%
X173875000Y623600000D03*
X176825000Y623600000D03*
%TD*%
D10*
%TO.C,REF\u002A\u002A20*%
X120727500Y366550000D03*
X120727500Y365450000D03*
D11*
X121225000Y364100000D03*
D10*
X122752500Y366550000D03*
X122752500Y365450000D03*
D11*
X122775000Y364100000D03*
%TD*%
D10*
%TO.C,REF\u002A\u002A20*%
X169527500Y512950000D03*
X169527500Y511850000D03*
D11*
X170025000Y510500000D03*
D10*
X171552500Y512950000D03*
X171552500Y511850000D03*
D11*
X171575000Y510500000D03*
%TD*%
D12*
%TO.C,10 nF*%
X131075000Y617100000D03*
X134025000Y617100000D03*
%TD*%
%TO.C,10 nF*%
X88275000Y623600000D03*
X91225000Y623600000D03*
%TD*%
D10*
%TO.C,REF\u002A\u002A20*%
X169527500Y561750000D03*
X169527500Y560650000D03*
D11*
X170025000Y559300000D03*
D10*
X171552500Y561750000D03*
X171552500Y560650000D03*
D11*
X171575000Y559300000D03*
%TD*%
D12*
%TO.C,10 nF*%
X82275000Y617100000D03*
X85225000Y617100000D03*
%TD*%
D10*
%TO.C,REF\u002A\u002A20*%
X169527500Y220150000D03*
X169527500Y219050000D03*
D11*
X170025000Y217700000D03*
D10*
X171552500Y220150000D03*
X171552500Y219050000D03*
D11*
X171575000Y217700000D03*
%TD*%
D10*
%TO.C,REF\u002A\u002A20*%
X71927500Y512950000D03*
X71927500Y511850000D03*
D11*
X72425000Y510500000D03*
D10*
X73952500Y512950000D03*
X73952500Y511850000D03*
D11*
X73975000Y510500000D03*
%TD*%
D12*
%TO.C,10 nF*%
X137075000Y617100000D03*
X140025000Y617100000D03*
%TD*%
%TO.C,10 nF*%
X173875000Y617100000D03*
X176825000Y617100000D03*
%TD*%
D10*
%TO.C,REF\u002A\u002A20*%
X120727500Y512950000D03*
X120727500Y511850000D03*
D11*
X121225000Y510500000D03*
D10*
X122752500Y512950000D03*
X122752500Y511850000D03*
D11*
X122775000Y510500000D03*
%TD*%
D10*
%TO.C,REF\u002A\u002A20*%
X169527500Y464150000D03*
X169527500Y463050000D03*
D11*
X170025000Y461700000D03*
D10*
X171552500Y464150000D03*
X171552500Y463050000D03*
D11*
X171575000Y461700000D03*
%TD*%
D10*
%TO.C,REF\u002A\u002A20*%
X71927500Y171350000D03*
X71927500Y170250000D03*
D11*
X72425000Y168900000D03*
D10*
X73952500Y171350000D03*
X73952500Y170250000D03*
D11*
X73975000Y168900000D03*
%TD*%
D12*
%TO.C,10 nF*%
X27475000Y617100000D03*
X30425000Y617100000D03*
%TD*%
D10*
%TO.C,REF\u002A\u002A20*%
X23127500Y171350000D03*
X23127500Y170250000D03*
D11*
X23625000Y168900000D03*
D10*
X25152500Y171350000D03*
X25152500Y170250000D03*
D11*
X25175000Y168900000D03*
%TD*%
D10*
%TO.C,REF\u002A\u002A20*%
X120727500Y73750000D03*
X120727500Y72650000D03*
D11*
X121225000Y71300000D03*
D10*
X122752500Y73750000D03*
X122752500Y72650000D03*
D11*
X122775000Y71300000D03*
%TD*%
D10*
%TO.C,REF\u002A\u002A20*%
X169527500Y171350000D03*
X169527500Y170250000D03*
D11*
X170025000Y168900000D03*
D10*
X171552500Y171350000D03*
X171552500Y170250000D03*
D11*
X171575000Y168900000D03*
%TD*%
D10*
%TO.C,REF\u002A\u002A20*%
X120727500Y464150000D03*
X120727500Y463050000D03*
D11*
X121225000Y461700000D03*
D10*
X122752500Y464150000D03*
X122752500Y463050000D03*
D11*
X122775000Y461700000D03*
%TD*%
D10*
%TO.C,REF\u002A\u002A20*%
X169527500Y366550000D03*
X169527500Y365450000D03*
D11*
X170025000Y364100000D03*
D10*
X171552500Y366550000D03*
X171552500Y365450000D03*
D11*
X171575000Y364100000D03*
%TD*%
D12*
%TO.C,10 nF*%
X167875000Y617100000D03*
X170825000Y617100000D03*
%TD*%
D10*
%TO.C,REF\u002A\u002A20*%
X71927500Y220150000D03*
X71927500Y219050000D03*
D11*
X72425000Y217700000D03*
D10*
X73952500Y220150000D03*
X73952500Y219050000D03*
D11*
X73975000Y217700000D03*
%TD*%
D12*
%TO.C,10 nF*%
X33475000Y610600000D03*
X36425000Y610600000D03*
%TD*%
%TO.C,10 nF*%
X119050000Y610600000D03*
X122000000Y610600000D03*
%TD*%
%TO.C,10 nF*%
X39475000Y623600000D03*
X42425000Y623600000D03*
%TD*%
D10*
%TO.C,REF\u002A\u002A20*%
X23127500Y512950000D03*
X23127500Y511850000D03*
D11*
X23625000Y510500000D03*
D10*
X25152500Y512950000D03*
X25152500Y511850000D03*
D11*
X25175000Y510500000D03*
%TD*%
D12*
%TO.C,10 nF*%
X27475000Y623600000D03*
X30425000Y623600000D03*
%TD*%
%TO.C,10 nF*%
X185850000Y610600000D03*
X188800000Y610600000D03*
%TD*%
%TO.C,10 nF*%
X137075000Y623600000D03*
X140025000Y623600000D03*
%TD*%
D10*
%TO.C,REF\u002A\u002A20*%
X120727500Y415350000D03*
X120727500Y414250000D03*
D11*
X121225000Y412900000D03*
D10*
X122752500Y415350000D03*
X122752500Y414250000D03*
D11*
X122775000Y412900000D03*
%TD*%
D12*
%TO.C,10 nF*%
X185875000Y623600000D03*
X188825000Y623600000D03*
%TD*%
D10*
%TO.C,REF\u002A\u002A20*%
X23127500Y24950000D03*
X23127500Y23850000D03*
D11*
X23625000Y22500000D03*
D10*
X25152500Y24950000D03*
X25152500Y23850000D03*
D11*
X25175000Y22500000D03*
%TD*%
D12*
%TO.C,10 nF*%
X21450000Y610600000D03*
X24400000Y610600000D03*
%TD*%
D10*
%TO.C,REF\u002A\u002A20*%
X169527500Y317750000D03*
X169527500Y316650000D03*
D11*
X170025000Y315300000D03*
D10*
X171552500Y317750000D03*
X171552500Y316650000D03*
D11*
X171575000Y315300000D03*
%TD*%
D10*
%TO.C,REF\u002A\u002A20*%
X169527500Y73750000D03*
X169527500Y72650000D03*
D11*
X170025000Y71300000D03*
D10*
X171552500Y73750000D03*
X171552500Y72650000D03*
D11*
X171575000Y71300000D03*
%TD*%
D12*
%TO.C,10 nF*%
X39475000Y617100000D03*
X42425000Y617100000D03*
%TD*%
%TO.C,10 nF*%
X125075000Y623600000D03*
X128025000Y623600000D03*
%TD*%
D10*
%TO.C,REF\u002A\u002A20*%
X23127500Y464150000D03*
X23127500Y463050000D03*
D11*
X23625000Y461700000D03*
D10*
X25152500Y464150000D03*
X25152500Y463050000D03*
D11*
X25175000Y461700000D03*
%TD*%
D12*
%TO.C,10 nF*%
X179875000Y617100000D03*
X182825000Y617100000D03*
%TD*%
D10*
%TO.C,REF\u002A\u002A20*%
X120727500Y171350000D03*
X120727500Y170250000D03*
D11*
X121225000Y168900000D03*
D10*
X122752500Y171350000D03*
X122752500Y170250000D03*
D11*
X122775000Y168900000D03*
%TD*%
D10*
%TO.C,REF\u002A\u002A20*%
X71927500Y415350000D03*
X71927500Y414250000D03*
D11*
X72425000Y412900000D03*
D10*
X73952500Y415350000D03*
X73952500Y414250000D03*
D11*
X73975000Y412900000D03*
%TD*%
D12*
%TO.C,10 nF*%
X179875000Y610600000D03*
X182825000Y610600000D03*
%TD*%
%TO.C,10 nF*%
X179875000Y623600000D03*
X182825000Y623600000D03*
%TD*%
D10*
%TO.C,REF\u002A\u002A20*%
X23127500Y268950000D03*
X23127500Y267850000D03*
D11*
X23625000Y266500000D03*
D10*
X25152500Y268950000D03*
X25152500Y267850000D03*
D11*
X25175000Y266500000D03*
%TD*%
M02*
