%TF.GenerationSoftware,KiCad,Pcbnew,9.0.2*%
%TF.CreationDate,2025-09-12T14:39:46-07:00*%
%TF.ProjectId,Gamma-32ch-3in,47616d6d-612d-4333-9263-682d33696e2e,rev?*%
%TF.SameCoordinates,Original*%
%TF.FileFunction,Soldermask,Bot*%
%TF.FilePolarity,Negative*%
%FSLAX46Y46*%
G04 Gerber Fmt 4.6, Leading zero omitted, Abs format (unit mm)*
G04 Created by KiCad (PCBNEW 9.0.2) date 2025-09-12 14:39:46*
%MOMM*%
%LPD*%
G01*
G04 APERTURE LIST*
G04 Aperture macros list*
%AMRoundRect*
0 Rectangle with rounded corners*
0 $1 Rounding radius*
0 $2 $3 $4 $5 $6 $7 $8 $9 X,Y pos of 4 corners*
0 Add a 4 corners polygon primitive as box body*
4,1,4,$2,$3,$4,$5,$6,$7,$8,$9,$2,$3,0*
0 Add four circle primitives for the rounded corners*
1,1,$1+$1,$2,$3*
1,1,$1+$1,$4,$5*
1,1,$1+$1,$6,$7*
1,1,$1+$1,$8,$9*
0 Add four rect primitives between the rounded corners*
20,1,$1+$1,$2,$3,$4,$5,0*
20,1,$1+$1,$4,$5,$6,$7,0*
20,1,$1+$1,$6,$7,$8,$9,0*
20,1,$1+$1,$8,$9,$2,$3,0*%
G04 Aperture macros list end*
%ADD10C,2.540000*%
%ADD11C,1.270000*%
%ADD12RoundRect,0.102000X0.699000X0.699000X-0.699000X0.699000X-0.699000X-0.699000X0.699000X-0.699000X0*%
%ADD13C,1.602000*%
%ADD14RoundRect,0.250000X0.325000X1.100000X-0.325000X1.100000X-0.325000X-1.100000X0.325000X-1.100000X0*%
G04 APERTURE END LIST*
D10*
%TO.C,REF\u002A\u002A*%
X82850000Y-57650000D03*
D11*
X81350000Y-60000000D03*
X82850000Y-72600000D03*
D10*
X82850000Y-74950000D03*
%TD*%
%TO.C,REF\u002A\u002A*%
X98150000Y-77870000D03*
D11*
X96650000Y-80220000D03*
X98150000Y-92820000D03*
D10*
X98150000Y-95170000D03*
%TD*%
D12*
%TO.C,REF\u002A\u002A*%
X104420000Y-58105000D03*
D13*
X101880000Y-58105000D03*
X99340000Y-58105000D03*
%TD*%
D10*
%TO.C,REF\u002A\u002A*%
X98350000Y-110520000D03*
D11*
X96850000Y-112870000D03*
X98350000Y-125470000D03*
D10*
X98350000Y-127820000D03*
%TD*%
%TO.C,REF\u002A\u002A*%
X83000000Y-95550000D03*
D11*
X81500000Y-97900000D03*
X83000000Y-110500000D03*
D10*
X83000000Y-112850000D03*
%TD*%
D14*
%TO.C,10 nF*%
X143165000Y-62040000D03*
X140215000Y-62040000D03*
%TD*%
%TO.C,10 nF*%
X163485000Y-62040000D03*
X160535000Y-62040000D03*
%TD*%
%TO.C,10 nF*%
X163485000Y-123000000D03*
X160535000Y-123000000D03*
%TD*%
%TO.C,10 nF*%
X122845000Y-102680000D03*
X119895000Y-102680000D03*
%TD*%
%TO.C,10 nF*%
X173645000Y-112840000D03*
X170695000Y-112840000D03*
%TD*%
%TO.C,10 nF*%
X163485000Y-92520000D03*
X160535000Y-92520000D03*
%TD*%
%TO.C,10 nF*%
X163485000Y-112840000D03*
X160535000Y-112840000D03*
%TD*%
%TO.C,10 nF*%
X143165000Y-102680000D03*
X140215000Y-102680000D03*
%TD*%
%TO.C,10 nF*%
X153325000Y-102680000D03*
X150375000Y-102680000D03*
%TD*%
%TO.C,10 nF*%
X163485000Y-102680000D03*
X160535000Y-102680000D03*
%TD*%
%TO.C,10 nF*%
X173645000Y-92520000D03*
X170695000Y-92520000D03*
%TD*%
%TO.C,10 nF*%
X173645000Y-82360000D03*
X170695000Y-82360000D03*
%TD*%
%TO.C,10 nF*%
X183805000Y-82360000D03*
X180855000Y-82360000D03*
%TD*%
%TO.C,10 nF*%
X153325000Y-112840000D03*
X150375000Y-112840000D03*
%TD*%
%TO.C,10 nF*%
X173645000Y-72200000D03*
X170695000Y-72200000D03*
%TD*%
%TO.C,10 nF*%
X183805000Y-102680000D03*
X180855000Y-102680000D03*
%TD*%
%TO.C,10 nF*%
X143165000Y-82360000D03*
X140215000Y-82360000D03*
%TD*%
%TO.C,10 nF*%
X143165000Y-123000000D03*
X140215000Y-123000000D03*
%TD*%
%TO.C,10 nF*%
X133005000Y-72200000D03*
X130055000Y-72200000D03*
%TD*%
%TO.C,10 nF*%
X163485000Y-72200000D03*
X160535000Y-72200000D03*
%TD*%
%TO.C,10 nF*%
X133005000Y-102680000D03*
X130055000Y-102680000D03*
%TD*%
%TO.C,10 nF*%
X133005000Y-112840000D03*
X130055000Y-112840000D03*
%TD*%
%TO.C,10 nF*%
X122845000Y-82360000D03*
X119895000Y-82360000D03*
%TD*%
%TO.C,10 nF*%
X163485000Y-82360000D03*
X160535000Y-82360000D03*
%TD*%
%TO.C,10 nF*%
X173645000Y-102680000D03*
X170695000Y-102680000D03*
%TD*%
%TO.C,10 nF*%
X133005000Y-92520000D03*
X130055000Y-92520000D03*
%TD*%
%TO.C,10 nF*%
X143165000Y-112840000D03*
X140215000Y-112840000D03*
%TD*%
%TO.C,10 nF*%
X153325000Y-72200000D03*
X150375000Y-72200000D03*
%TD*%
%TO.C,10 nF*%
X143165000Y-92520000D03*
X140215000Y-92520000D03*
%TD*%
%TO.C,10 nF*%
X153325000Y-82360000D03*
X150375000Y-82360000D03*
%TD*%
%TO.C,10 nF*%
X133005000Y-82360000D03*
X130055000Y-82360000D03*
%TD*%
%TO.C,10 nF*%
X143165000Y-72200000D03*
X140215000Y-72200000D03*
%TD*%
M02*
