%TF.GenerationSoftware,KiCad,Pcbnew,9.0.2*%
%TF.CreationDate,2025-09-12T14:39:46-07:00*%
%TF.ProjectId,Gamma-32ch-3in,47616d6d-612d-4333-9263-682d33696e2e,rev?*%
%TF.SameCoordinates,Original*%
%TF.FileFunction,Legend,Bot*%
%TF.FilePolarity,Positive*%
%FSLAX46Y46*%
G04 Gerber Fmt 4.6, Leading zero omitted, Abs format (unit mm)*
G04 Created by KiCad (PCBNEW 9.0.2) date 2025-09-12 14:39:46*
%MOMM*%
%LPD*%
G01*
G04 APERTURE LIST*
%ADD10C,0.120000*%
G04 APERTURE END LIST*
D10*
%TO.C,10 nF*%
X142401252Y-60680000D02*
X140978748Y-60680000D01*
X142401252Y-63400000D02*
X140978748Y-63400000D01*
X162721252Y-60680000D02*
X161298748Y-60680000D01*
X162721252Y-63400000D02*
X161298748Y-63400000D01*
X162721252Y-121640000D02*
X161298748Y-121640000D01*
X162721252Y-124360000D02*
X161298748Y-124360000D01*
X122081252Y-101320000D02*
X120658748Y-101320000D01*
X122081252Y-104040000D02*
X120658748Y-104040000D01*
X172881252Y-111480000D02*
X171458748Y-111480000D01*
X172881252Y-114200000D02*
X171458748Y-114200000D01*
X162721252Y-91160000D02*
X161298748Y-91160000D01*
X162721252Y-93880000D02*
X161298748Y-93880000D01*
X162721252Y-111480000D02*
X161298748Y-111480000D01*
X162721252Y-114200000D02*
X161298748Y-114200000D01*
X142401252Y-101320000D02*
X140978748Y-101320000D01*
X142401252Y-104040000D02*
X140978748Y-104040000D01*
X152561252Y-101320000D02*
X151138748Y-101320000D01*
X152561252Y-104040000D02*
X151138748Y-104040000D01*
X162721252Y-101320000D02*
X161298748Y-101320000D01*
X162721252Y-104040000D02*
X161298748Y-104040000D01*
X172881252Y-91160000D02*
X171458748Y-91160000D01*
X172881252Y-93880000D02*
X171458748Y-93880000D01*
X172881252Y-81000000D02*
X171458748Y-81000000D01*
X172881252Y-83720000D02*
X171458748Y-83720000D01*
X183041252Y-81000000D02*
X181618748Y-81000000D01*
X183041252Y-83720000D02*
X181618748Y-83720000D01*
X152561252Y-111480000D02*
X151138748Y-111480000D01*
X152561252Y-114200000D02*
X151138748Y-114200000D01*
X172881252Y-70840000D02*
X171458748Y-70840000D01*
X172881252Y-73560000D02*
X171458748Y-73560000D01*
X183041252Y-101320000D02*
X181618748Y-101320000D01*
X183041252Y-104040000D02*
X181618748Y-104040000D01*
X142401252Y-81000000D02*
X140978748Y-81000000D01*
X142401252Y-83720000D02*
X140978748Y-83720000D01*
X142401252Y-121640000D02*
X140978748Y-121640000D01*
X142401252Y-124360000D02*
X140978748Y-124360000D01*
X132241252Y-70840000D02*
X130818748Y-70840000D01*
X132241252Y-73560000D02*
X130818748Y-73560000D01*
X162721252Y-70840000D02*
X161298748Y-70840000D01*
X162721252Y-73560000D02*
X161298748Y-73560000D01*
X132241252Y-101320000D02*
X130818748Y-101320000D01*
X132241252Y-104040000D02*
X130818748Y-104040000D01*
X132241252Y-111480000D02*
X130818748Y-111480000D01*
X132241252Y-114200000D02*
X130818748Y-114200000D01*
X122081252Y-81000000D02*
X120658748Y-81000000D01*
X122081252Y-83720000D02*
X120658748Y-83720000D01*
X162721252Y-81000000D02*
X161298748Y-81000000D01*
X162721252Y-83720000D02*
X161298748Y-83720000D01*
X172881252Y-101320000D02*
X171458748Y-101320000D01*
X172881252Y-104040000D02*
X171458748Y-104040000D01*
X132241252Y-91160000D02*
X130818748Y-91160000D01*
X132241252Y-93880000D02*
X130818748Y-93880000D01*
X142401252Y-111480000D02*
X140978748Y-111480000D01*
X142401252Y-114200000D02*
X140978748Y-114200000D01*
X152561252Y-70840000D02*
X151138748Y-70840000D01*
X152561252Y-73560000D02*
X151138748Y-73560000D01*
X142401252Y-91160000D02*
X140978748Y-91160000D01*
X142401252Y-93880000D02*
X140978748Y-93880000D01*
X152561252Y-81000000D02*
X151138748Y-81000000D01*
X152561252Y-83720000D02*
X151138748Y-83720000D01*
X132241252Y-81000000D02*
X130818748Y-81000000D01*
X132241252Y-83720000D02*
X130818748Y-83720000D01*
X142401252Y-70840000D02*
X140978748Y-70840000D01*
X142401252Y-73560000D02*
X140978748Y-73560000D01*
%TD*%
M02*
