%TF.GenerationSoftware,KiCad,Pcbnew,9.0.2*%
%TF.CreationDate,2025-09-30T13:33:20-07:00*%
%TF.ProjectId,Muon-8ch-48.8mm,4d756f6e-2d38-4636-982d-34382e386d6d,rev?*%
%TF.SameCoordinates,Original*%
%TF.FileFunction,Copper,L4,Bot*%
%TF.FilePolarity,Positive*%
%FSLAX46Y46*%
G04 Gerber Fmt 4.6, Leading zero omitted, Abs format (unit mm)*
G04 Created by KiCad (PCBNEW 9.0.2) date 2025-09-30 13:33:20*
%MOMM*%
%LPD*%
G01*
G04 APERTURE LIST*
G04 Aperture macros list*
%AMRoundRect*
0 Rectangle with rounded corners*
0 $1 Rounding radius*
0 $2 $3 $4 $5 $6 $7 $8 $9 X,Y pos of 4 corners*
0 Add a 4 corners polygon primitive as box body*
4,1,4,$2,$3,$4,$5,$6,$7,$8,$9,$2,$3,0*
0 Add four circle primitives for the rounded corners*
1,1,$1+$1,$2,$3*
1,1,$1+$1,$4,$5*
1,1,$1+$1,$6,$7*
1,1,$1+$1,$8,$9*
0 Add four rect primitives between the rounded corners*
20,1,$1+$1,$2,$3,$4,$5,0*
20,1,$1+$1,$4,$5,$6,$7,0*
20,1,$1+$1,$6,$7,$8,$9,0*
20,1,$1+$1,$8,$9,$2,$3,0*%
G04 Aperture macros list end*
%TA.AperFunction,ComponentPad*%
%ADD10C,0.800000*%
%TD*%
%TA.AperFunction,ComponentPad*%
%ADD11C,2.540000*%
%TD*%
%TA.AperFunction,ComponentPad*%
%ADD12RoundRect,0.250000X-0.725000X0.600000X-0.725000X-0.600000X0.725000X-0.600000X0.725000X0.600000X0*%
%TD*%
%TA.AperFunction,ComponentPad*%
%ADD13O,1.950000X1.700000*%
%TD*%
%TA.AperFunction,ViaPad*%
%ADD14C,0.600000*%
%TD*%
%TA.AperFunction,Conductor*%
%ADD15C,0.200000*%
%TD*%
G04 APERTURE END LIST*
D10*
%TO.P,REF\u002A\u002A24,7*%
%TO.N,K4*%
X229650000Y-82200000D03*
%TO.P,REF\u002A\u002A24,8*%
%TO.N,A4*%
X229650000Y-83700000D03*
%TO.P,REF\u002A\u002A24,9*%
%TO.N,GND*%
X230200000Y-84900000D03*
%TD*%
%TO.P,REF\u002A\u002A47,7*%
%TO.N,K7*%
X376050000Y-82200000D03*
%TO.P,REF\u002A\u002A47,8*%
%TO.N,A7*%
X376050000Y-83700000D03*
%TO.P,REF\u002A\u002A47,9*%
%TO.N,GND*%
X376600000Y-84900000D03*
%TD*%
%TO.P,REF\u002A\u002A22,7*%
%TO.N,K2*%
X132050000Y-82200000D03*
%TO.P,REF\u002A\u002A22,8*%
%TO.N,A2*%
X132050000Y-83700000D03*
%TO.P,REF\u002A\u002A22,9*%
%TO.N,GND*%
X132600000Y-84900000D03*
%TD*%
%TO.P,REF\u002A\u002A23,7*%
%TO.N,K3*%
X180850000Y-82200000D03*
%TO.P,REF\u002A\u002A23,8*%
%TO.N,A3*%
X180850000Y-83700000D03*
%TO.P,REF\u002A\u002A23,9*%
%TO.N,GND*%
X181400000Y-84900000D03*
%TD*%
%TO.P,REF\u002A\u002A46,7*%
%TO.N,K6*%
X327250000Y-82200000D03*
%TO.P,REF\u002A\u002A46,8*%
%TO.N,A6*%
X327250000Y-83700000D03*
%TO.P,REF\u002A\u002A46,9*%
%TO.N,GND*%
X327800000Y-84900000D03*
%TD*%
D11*
%TO.P,REF\u002A\u002A,*%
%TO.N,*%
X-2700000Y-63650000D03*
X-2700000Y-80950000D03*
%TD*%
D10*
%TO.P,REF\u002A\u002A20,7*%
%TO.N,K0*%
X34450000Y-82200000D03*
%TO.P,REF\u002A\u002A20,8*%
%TO.N,A0*%
X34450000Y-83700000D03*
%TO.P,REF\u002A\u002A20,9*%
%TO.N,GND*%
X35000000Y-84900000D03*
%TD*%
%TO.P,REF\u002A\u002A21,7*%
%TO.N,K1*%
X83250000Y-82200000D03*
%TO.P,REF\u002A\u002A21,8*%
%TO.N,A1*%
X83250000Y-83700000D03*
%TO.P,REF\u002A\u002A21,9*%
%TO.N,GND*%
X83800000Y-84900000D03*
%TD*%
%TO.P,REF\u002A\u002A45,7*%
%TO.N,K5*%
X278450000Y-82200000D03*
%TO.P,REF\u002A\u002A45,8*%
%TO.N,A5*%
X278450000Y-83700000D03*
%TO.P,REF\u002A\u002A45,9*%
%TO.N,GND*%
X279000000Y-84900000D03*
%TD*%
D12*
%TO.P,REF\u002A\u002A,1*%
%TO.N,GND*%
X-3000000Y-93000000D03*
D13*
%TO.P,REF\u002A\u002A,2*%
%TO.N,TEMP_OUT*%
X-3000000Y-95500000D03*
%TO.P,REF\u002A\u002A,3*%
%TO.N,HV*%
X-3000000Y-98000000D03*
%TD*%
D14*
%TO.N,K0*%
X8000000Y-61000000D03*
X-3000000Y-67000000D03*
%TO.N,A0*%
X3000000Y-62000000D03*
%TO.N,K1*%
X-3000000Y-68000000D03*
X8000000Y-65500000D03*
%TO.N,A1*%
X2000000Y-66100000D03*
%TO.N,K2*%
X-3000000Y-69000000D03*
X8000000Y-70500000D03*
%TO.N,A2*%
X8000000Y-73000000D03*
%TO.N,K3*%
X8000000Y-75500000D03*
X-3000000Y-70000000D03*
%TO.N,A3*%
X8600000Y-78000000D03*
%TO.N,K4*%
X-3000000Y-72500000D03*
X8000000Y-80500000D03*
%TO.N,A4*%
X8000000Y-82500000D03*
%TO.N,K5*%
X8000000Y-85500000D03*
X-3000000Y-73500000D03*
%TO.N,A5*%
X8000000Y-88000000D03*
%TO.N,K6*%
X8000000Y-90500000D03*
X-2972776Y-74527224D03*
%TO.N,A6*%
X8000000Y-93000000D03*
%TO.N,K7*%
X8000000Y-95500000D03*
X-3000000Y-75500000D03*
%TO.N,A7*%
X2500000Y-90500000D03*
%TD*%
D15*
%TO.N,K0*%
X-3000000Y-67000000D02*
X3000000Y-61000000D01*
X32334200Y-82200000D02*
X34450000Y-82200000D01*
X3000000Y-61000000D02*
X8000000Y-61000000D01*
X11134200Y-61000000D02*
X32334200Y-82200000D01*
X8000000Y-61000000D02*
X11134200Y-61000000D01*
%TO.N,A0*%
X11567100Y-62000000D02*
X3000000Y-62000000D01*
X33267100Y-83700000D02*
X11567100Y-62000000D01*
X34450000Y-83700000D02*
X33267100Y-83700000D01*
%TO.N,K1*%
X14500000Y-65500000D02*
X8000000Y-65500000D01*
X83250000Y-82200000D02*
X79850000Y-85600000D01*
X-3000000Y-68000000D02*
X-500000Y-65500000D01*
X-500000Y-65500000D02*
X8000000Y-65500000D01*
X79850000Y-85600000D02*
X34600000Y-85600000D01*
X34600000Y-85600000D02*
X14500000Y-65500000D01*
%TO.N,A1*%
X17466450Y-69033550D02*
X14532900Y-66100000D01*
X80975000Y-85975000D02*
X80949000Y-86001000D01*
X80975000Y-85975000D02*
X83250000Y-83700000D01*
X76000000Y-86001000D02*
X34433900Y-86001000D01*
X34433900Y-86001000D02*
X32000000Y-83567100D01*
X32000000Y-83567100D02*
X17466450Y-69033550D01*
X14532900Y-66100000D02*
X2000000Y-66100000D01*
X80949000Y-86001000D02*
X76000000Y-86001000D01*
%TO.N,K2*%
X34267800Y-86402000D02*
X18365800Y-70500000D01*
X18365800Y-70500000D02*
X8000000Y-70500000D01*
X-1500000Y-70500000D02*
X8000000Y-70500000D01*
X127848000Y-86402000D02*
X34267800Y-86402000D01*
X-3000000Y-69000000D02*
X-1500000Y-70500000D01*
X132050000Y-82200000D02*
X127848000Y-86402000D01*
%TO.N,A2*%
X26649350Y-79350650D02*
X22149350Y-74850650D01*
X20298700Y-73000000D02*
X8000000Y-73000000D01*
X34101700Y-86803000D02*
X26649350Y-79350650D01*
X35500000Y-86803000D02*
X34101700Y-86803000D01*
X22149350Y-74850650D02*
X20298700Y-73000000D01*
X128947000Y-86803000D02*
X127000000Y-86803000D01*
X127000000Y-86803000D02*
X35500000Y-86803000D01*
X132050000Y-83700000D02*
X131100000Y-84650000D01*
X132050000Y-83700000D02*
X129800000Y-85950000D01*
X129800000Y-85950000D02*
X128947000Y-86803000D01*
%TO.N,K3*%
X-3000000Y-70000000D02*
X-1500000Y-71500000D01*
X-1500000Y-71500000D02*
X4000000Y-71500000D01*
X4000000Y-71500000D02*
X8000000Y-75500000D01*
X33935600Y-87204000D02*
X22231600Y-75500000D01*
X22231600Y-75500000D02*
X8000000Y-75500000D01*
X175846000Y-87204000D02*
X33935600Y-87204000D01*
X180850000Y-82200000D02*
X175846000Y-87204000D01*
%TO.N,A3*%
X33769500Y-87605000D02*
X32332250Y-86167750D01*
X176012100Y-87605000D02*
X175500000Y-87605000D01*
X24164500Y-78000000D02*
X8600000Y-78000000D01*
X179917100Y-83700000D02*
X176012100Y-87605000D01*
X180850000Y-83700000D02*
X179917100Y-83700000D01*
X175500000Y-87605000D02*
X33769500Y-87605000D01*
X32332250Y-86167750D02*
X30082250Y-83917750D01*
X30082250Y-83917750D02*
X26082250Y-79917750D01*
X26082250Y-79917750D02*
X24164500Y-78000000D01*
%TO.N,K4*%
X33603400Y-88006000D02*
X26097400Y-80500000D01*
X8000000Y-78000000D02*
X8000000Y-80500000D01*
X-3000000Y-72500000D02*
X2500000Y-72500000D01*
X229650000Y-82200000D02*
X223844000Y-88006000D01*
X26097400Y-80500000D02*
X8000000Y-80500000D01*
X2500000Y-72500000D02*
X8000000Y-78000000D01*
X223844000Y-88006000D02*
X33603400Y-88006000D01*
%TO.N,A4*%
X224943000Y-88407000D02*
X223500000Y-88407000D01*
X33437300Y-88407000D02*
X32765150Y-87734850D01*
X32765150Y-87734850D02*
X27530300Y-82500000D01*
X223500000Y-88407000D02*
X33437300Y-88407000D01*
X229650000Y-83700000D02*
X224943000Y-88407000D01*
X27530300Y-82500000D02*
X8000000Y-82500000D01*
%TO.N,K5*%
X29963200Y-85500000D02*
X8000000Y-85500000D01*
X2333900Y-72901000D02*
X5216450Y-75783550D01*
X-2401000Y-72901000D02*
X2333900Y-72901000D01*
X271842000Y-88808000D02*
X33271200Y-88808000D01*
X278450000Y-82200000D02*
X271842000Y-88808000D01*
X-3000000Y-73500000D02*
X-2401000Y-72901000D01*
X33271200Y-88808000D02*
X29963200Y-85500000D01*
X5216450Y-82716450D02*
X8000000Y-85500000D01*
X5216450Y-75783550D02*
X5216450Y-82716450D01*
%TO.N,A5*%
X278300000Y-83700000D02*
X272791000Y-89209000D01*
X31896100Y-88000000D02*
X8000000Y-88000000D01*
X272791000Y-89209000D02*
X271000000Y-89209000D01*
X32198050Y-88301950D02*
X31896100Y-88000000D01*
X33105100Y-89209000D02*
X32198050Y-88301950D01*
X278450000Y-83700000D02*
X278300000Y-83700000D01*
X271000000Y-89209000D02*
X33105100Y-89209000D01*
%TO.N,K6*%
X327250000Y-82200000D02*
X319840000Y-89610000D01*
X4815450Y-75949650D02*
X4815450Y-87315450D01*
X12000000Y-90500000D02*
X8000000Y-90500000D01*
X-2972776Y-74472776D02*
X-1802000Y-73302000D01*
X-1802000Y-73302000D02*
X2167800Y-73302000D01*
X319840000Y-89610000D02*
X12890000Y-89610000D01*
X-2972776Y-74527224D02*
X-2972776Y-74472776D01*
X12890000Y-89610000D02*
X12000000Y-90500000D01*
X2167800Y-73302000D02*
X4815450Y-75949650D01*
X4815450Y-87315450D02*
X8000000Y-90500000D01*
%TO.N,A6*%
X320939000Y-90011000D02*
X318000000Y-90011000D01*
X33000000Y-90011000D02*
X30011000Y-93000000D01*
X327250000Y-83700000D02*
X320939000Y-90011000D01*
X318000000Y-90011000D02*
X38500000Y-90011000D01*
X30011000Y-93000000D02*
X8000000Y-93000000D01*
X38500000Y-90011000D02*
X33000000Y-90011000D01*
%TO.N,K7*%
X376050000Y-82200000D02*
X367838000Y-90412000D01*
X-1500000Y-77000000D02*
X-1500000Y-79500000D01*
X33166100Y-90412000D02*
X28078100Y-95500000D01*
X-1500000Y-79500000D02*
X4414450Y-85414450D01*
X-3000000Y-75500000D02*
X-1500000Y-77000000D01*
X367838000Y-90412000D02*
X33166100Y-90412000D01*
X28078100Y-95500000D02*
X8000000Y-95500000D01*
X4414450Y-85414450D02*
X4414450Y-91914450D01*
X4414450Y-91914450D02*
X8000000Y-95500000D01*
%TO.N,A7*%
X32072600Y-92072600D02*
X28044200Y-96101000D01*
X33332200Y-90813000D02*
X32072600Y-92072600D01*
X7751057Y-96101000D02*
X2500000Y-90849943D01*
X368937000Y-90813000D02*
X367500000Y-90813000D01*
X376050000Y-83700000D02*
X368937000Y-90813000D01*
X35000000Y-90813000D02*
X33332200Y-90813000D01*
X28044200Y-96101000D02*
X7751057Y-96101000D01*
X367500000Y-90813000D02*
X35000000Y-90813000D01*
X2500000Y-90849943D02*
X2500000Y-90500000D01*
%TD*%
%TA.AperFunction,Conductor*%
%TO.N,GND*%
G36*
X412742539Y-59120185D02*
G01*
X412788294Y-59172989D01*
X412799500Y-59224500D01*
X412799500Y-106775500D01*
X412779815Y-106842539D01*
X412727011Y-106888294D01*
X412675500Y-106899500D01*
X-6475500Y-106899500D01*
X-6542539Y-106879815D01*
X-6588294Y-106827011D01*
X-6599500Y-106775500D01*
X-6599500Y-101362332D01*
X4399500Y-101362332D01*
X4399500Y-101637667D01*
X4399501Y-101637684D01*
X4435438Y-101910655D01*
X4435439Y-101910660D01*
X4435440Y-101910666D01*
X4435441Y-101910668D01*
X4506704Y-102176630D01*
X4612075Y-102431017D01*
X4612080Y-102431028D01*
X4691809Y-102569121D01*
X4749751Y-102669479D01*
X4749753Y-102669482D01*
X4749754Y-102669483D01*
X4917370Y-102887926D01*
X4917376Y-102887933D01*
X5112066Y-103082623D01*
X5112072Y-103082628D01*
X5330521Y-103250249D01*
X5483778Y-103338732D01*
X5568971Y-103387919D01*
X5568976Y-103387921D01*
X5568979Y-103387923D01*
X5823368Y-103493295D01*
X6089334Y-103564560D01*
X6362326Y-103600500D01*
X6362333Y-103600500D01*
X6637667Y-103600500D01*
X6637674Y-103600500D01*
X6910666Y-103564560D01*
X7176632Y-103493295D01*
X7431021Y-103387923D01*
X7669479Y-103250249D01*
X7887928Y-103082628D01*
X8082628Y-102887928D01*
X8250249Y-102669479D01*
X8387923Y-102431021D01*
X8493295Y-102176632D01*
X8564560Y-101910666D01*
X8600500Y-101637674D01*
X8600500Y-101362326D01*
X8564560Y-101089334D01*
X8493295Y-100823368D01*
X8387923Y-100568979D01*
X8387921Y-100568976D01*
X8387919Y-100568971D01*
X8338732Y-100483778D01*
X8250249Y-100330521D01*
X8082628Y-100112072D01*
X8082623Y-100112066D01*
X7887933Y-99917376D01*
X7887926Y-99917370D01*
X7669483Y-99749754D01*
X7669482Y-99749753D01*
X7669479Y-99749751D01*
X7574407Y-99694861D01*
X7431028Y-99612080D01*
X7431017Y-99612075D01*
X7176630Y-99506704D01*
X7043649Y-99471072D01*
X6910666Y-99435440D01*
X6910660Y-99435439D01*
X6910655Y-99435438D01*
X6637684Y-99399501D01*
X6637679Y-99399500D01*
X6637674Y-99399500D01*
X6362326Y-99399500D01*
X6362320Y-99399500D01*
X6362315Y-99399501D01*
X6089344Y-99435438D01*
X6089337Y-99435439D01*
X6089334Y-99435440D01*
X6033125Y-99450500D01*
X5823369Y-99506704D01*
X5568982Y-99612075D01*
X5568971Y-99612080D01*
X5330516Y-99749754D01*
X5112073Y-99917370D01*
X5112066Y-99917376D01*
X4917376Y-100112066D01*
X4917370Y-100112073D01*
X4749754Y-100330516D01*
X4612080Y-100568971D01*
X4612075Y-100568982D01*
X4506704Y-100823369D01*
X4435441Y-101089331D01*
X4435438Y-101089344D01*
X4399501Y-101362315D01*
X4399500Y-101362332D01*
X-6599500Y-101362332D01*
X-6599500Y-95393713D01*
X-4475500Y-95393713D01*
X-4475500Y-95606287D01*
X-4442246Y-95816243D01*
X-4376557Y-96018412D01*
X-4280051Y-96207816D01*
X-4280048Y-96207820D01*
X-4155109Y-96379786D01*
X-4155106Y-96379788D01*
X-4155104Y-96379792D01*
X-4004792Y-96530104D01*
X-3840204Y-96649683D01*
X-3797540Y-96705011D01*
X-3791561Y-96774624D01*
X-3824166Y-96836420D01*
X-3840199Y-96850313D01*
X-4004784Y-96969890D01*
X-4004792Y-96969896D01*
X-4155109Y-97120213D01*
X-4280048Y-97292179D01*
X-4280049Y-97292181D01*
X-4280051Y-97292184D01*
X-4376557Y-97481588D01*
X-4442246Y-97683757D01*
X-4475500Y-97893713D01*
X-4475500Y-98106287D01*
X-4442246Y-98316243D01*
X-4376557Y-98518412D01*
X-4280051Y-98707816D01*
X-4280048Y-98707820D01*
X-4155109Y-98879786D01*
X-4155106Y-98879788D01*
X-4155104Y-98879792D01*
X-4004792Y-99030104D01*
X-4004788Y-99030106D01*
X-4004786Y-99030109D01*
X-3854789Y-99139086D01*
X-3832816Y-99155051D01*
X-3643412Y-99251557D01*
X-3441243Y-99317246D01*
X-3231287Y-99350500D01*
X-3231286Y-99350500D01*
X-2768714Y-99350500D01*
X-2768713Y-99350500D01*
X-2558757Y-99317246D01*
X-2356588Y-99251557D01*
X-2167184Y-99155051D01*
X-2167181Y-99155049D01*
X-2167179Y-99155048D01*
X-1995213Y-99030109D01*
X-1844890Y-98879786D01*
X-1719951Y-98707820D01*
X-1623444Y-98518414D01*
X-1557753Y-98316239D01*
X-1524500Y-98106286D01*
X-1524500Y-97893713D01*
X-1557753Y-97683760D01*
X-1623444Y-97481585D01*
X-1719951Y-97292179D01*
X-1844890Y-97120213D01*
X-1995209Y-96969894D01*
X-1995214Y-96969890D01*
X-2159793Y-96850318D01*
X-2202459Y-96794989D01*
X-2208438Y-96725375D01*
X-2175833Y-96663580D01*
X-2159793Y-96649682D01*
X-1995214Y-96530109D01*
X-1995209Y-96530105D01*
X-1844890Y-96379786D01*
X-1719951Y-96207820D01*
X-1623444Y-96018414D01*
X-1557753Y-95816239D01*
X-1524500Y-95606286D01*
X-1524500Y-95393713D01*
X-1557753Y-95183760D01*
X-1623444Y-94981585D01*
X-1719951Y-94792179D01*
X-1844889Y-94620215D01*
X-1984069Y-94481035D01*
X-2017553Y-94419712D01*
X-2012569Y-94350020D01*
X-1970697Y-94294087D01*
X-1961484Y-94287815D01*
X-1806654Y-94192315D01*
X-1682684Y-94068345D01*
X-1590643Y-93919124D01*
X-1590641Y-93919119D01*
X-1535494Y-93752697D01*
X-1535493Y-93752690D01*
X-1525000Y-93649986D01*
X-1525000Y-93250000D01*
X-2595854Y-93250000D01*
X-2557370Y-93183343D01*
X-2525000Y-93062535D01*
X-2525000Y-92937465D01*
X-2557370Y-92816657D01*
X-2595854Y-92750000D01*
X-1525001Y-92750000D01*
X-1525001Y-92350013D01*
X-1535494Y-92247302D01*
X-1590641Y-92080880D01*
X-1590643Y-92080875D01*
X-1682684Y-91931654D01*
X-1806654Y-91807684D01*
X-1955875Y-91715643D01*
X-1955880Y-91715641D01*
X-2122302Y-91660494D01*
X-2122309Y-91660493D01*
X-2225013Y-91650000D01*
X-2750000Y-91650000D01*
X-2750000Y-92595854D01*
X-2816657Y-92557370D01*
X-2937465Y-92525000D01*
X-3062535Y-92525000D01*
X-3183343Y-92557370D01*
X-3250000Y-92595854D01*
X-3250000Y-91650000D01*
X-3774971Y-91650000D01*
X-3774987Y-91650001D01*
X-3877697Y-91660494D01*
X-4044119Y-91715641D01*
X-4044124Y-91715643D01*
X-4193345Y-91807684D01*
X-4317315Y-91931654D01*
X-4409356Y-92080875D01*
X-4409358Y-92080880D01*
X-4464505Y-92247302D01*
X-4464506Y-92247309D01*
X-4474999Y-92350013D01*
X-4475000Y-92350026D01*
X-4475000Y-92750000D01*
X-3404146Y-92750000D01*
X-3442630Y-92816657D01*
X-3475000Y-92937465D01*
X-3475000Y-93062535D01*
X-3442630Y-93183343D01*
X-3404146Y-93250000D01*
X-4474999Y-93250000D01*
X-4474999Y-93649971D01*
X-4474998Y-93649986D01*
X-4464505Y-93752697D01*
X-4409358Y-93919119D01*
X-4409356Y-93919124D01*
X-4317315Y-94068345D01*
X-4193343Y-94192317D01*
X-4038516Y-94287815D01*
X-3991791Y-94339763D01*
X-3980568Y-94408725D01*
X-4008412Y-94472808D01*
X-4015931Y-94481035D01*
X-4155109Y-94620213D01*
X-4280048Y-94792179D01*
X-4280049Y-94792181D01*
X-4280051Y-94792184D01*
X-4376557Y-94981588D01*
X-4442246Y-95183757D01*
X-4475500Y-95393713D01*
X-6599500Y-95393713D01*
X-6599500Y-65912786D01*
X-5085500Y-65912786D01*
X-5085500Y-66087214D01*
X-5051471Y-66258291D01*
X-4984720Y-66419442D01*
X-4887813Y-66564474D01*
X-4764474Y-66687813D01*
X-4619442Y-66784720D01*
X-4458291Y-66851471D01*
X-4287216Y-66885499D01*
X-4287215Y-66885500D01*
X-4287214Y-66885500D01*
X-4112785Y-66885500D01*
X-4112783Y-66885499D01*
X-4031335Y-66869298D01*
X-3948691Y-66852860D01*
X-3879100Y-66859087D01*
X-3823922Y-66901950D01*
X-3800678Y-66967840D01*
X-3800500Y-66974477D01*
X-3800500Y-67078842D01*
X-3769737Y-67233497D01*
X-3709394Y-67379179D01*
X-3674694Y-67431110D01*
X-3653816Y-67497785D01*
X-3672300Y-67565165D01*
X-3674676Y-67568863D01*
X-3709394Y-67620821D01*
X-3769737Y-67766503D01*
X-3769738Y-67766510D01*
X-3800499Y-67921153D01*
X-3800500Y-67921155D01*
X-3800500Y-67921158D01*
X-3800500Y-68078842D01*
X-3769737Y-68233497D01*
X-3709394Y-68379179D01*
X-3674695Y-68431109D01*
X-3653816Y-68497785D01*
X-3672300Y-68565165D01*
X-3674676Y-68568863D01*
X-3709394Y-68620821D01*
X-3709394Y-68620822D01*
X-3709396Y-68620825D01*
X-3769735Y-68766498D01*
X-3769737Y-68766503D01*
X-3769738Y-68766508D01*
X-3769738Y-68766510D01*
X-3800499Y-68921153D01*
X-3800500Y-68921155D01*
X-3800500Y-68921158D01*
X-3800500Y-69078842D01*
X-3769737Y-69233497D01*
X-3709394Y-69379179D01*
X-3674694Y-69431110D01*
X-3653816Y-69497785D01*
X-3672300Y-69565165D01*
X-3674676Y-69568863D01*
X-3709394Y-69620821D01*
X-3709394Y-69620822D01*
X-3709396Y-69620825D01*
X-3762546Y-69749142D01*
X-3769737Y-69766503D01*
X-3791272Y-69874767D01*
X-3800499Y-69921153D01*
X-3800500Y-69921155D01*
X-3800500Y-69921158D01*
X-3800500Y-70078842D01*
X-3769737Y-70233497D01*
X-3709394Y-70379179D01*
X-3621789Y-70510289D01*
X-3510289Y-70621789D01*
X-3379179Y-70709394D01*
X-3233497Y-70769737D01*
X-3136085Y-70789113D01*
X-3078150Y-70800638D01*
X-3016239Y-70833023D01*
X-3014714Y-70834520D01*
X-2161415Y-71687819D01*
X-2150802Y-71707255D01*
X-2136302Y-71723989D01*
X-2134385Y-71737320D01*
X-2127930Y-71749142D01*
X-2129509Y-71771228D01*
X-2126358Y-71793147D01*
X-2131953Y-71805398D01*
X-2132914Y-71818834D01*
X-2146184Y-71836560D01*
X-2155383Y-71856703D01*
X-2166714Y-71863985D01*
X-2174786Y-71874767D01*
X-2195531Y-71882504D01*
X-2214161Y-71894477D01*
X-2236079Y-71897628D01*
X-2240250Y-71899184D01*
X-2249096Y-71899500D01*
X-2420234Y-71899500D01*
X-2487273Y-71879815D01*
X-2489125Y-71878602D01*
X-2620814Y-71790609D01*
X-2620827Y-71790602D01*
X-2766498Y-71730264D01*
X-2766510Y-71730261D01*
X-2921155Y-71699500D01*
X-2921158Y-71699500D01*
X-3078842Y-71699500D01*
X-3078845Y-71699500D01*
X-3233489Y-71730261D01*
X-3233501Y-71730264D01*
X-3379172Y-71790602D01*
X-3379185Y-71790609D01*
X-3510288Y-71878210D01*
X-3510292Y-71878213D01*
X-3621786Y-71989707D01*
X-3621789Y-71989711D01*
X-3709390Y-72120814D01*
X-3709397Y-72120827D01*
X-3762546Y-72249142D01*
X-3769737Y-72266503D01*
X-3774531Y-72290606D01*
X-3800499Y-72421153D01*
X-3800500Y-72421155D01*
X-3800500Y-72421158D01*
X-3800500Y-72578842D01*
X-3769737Y-72733497D01*
X-3709394Y-72879179D01*
X-3674694Y-72931110D01*
X-3653816Y-72997785D01*
X-3672300Y-73065165D01*
X-3674676Y-73068863D01*
X-3709394Y-73120821D01*
X-3769737Y-73266503D01*
X-3769738Y-73266510D01*
X-3800499Y-73421153D01*
X-3800500Y-73421155D01*
X-3800500Y-73421158D01*
X-3800500Y-73578842D01*
X-3769737Y-73733497D01*
X-3709394Y-73879179D01*
X-3709390Y-73879184D01*
X-3709389Y-73879187D01*
X-3651989Y-73965091D01*
X-3631110Y-74031768D01*
X-3649594Y-74099149D01*
X-3651988Y-74102874D01*
X-3682170Y-74148045D01*
X-3682171Y-74148047D01*
X-3682173Y-74148051D01*
X-3742511Y-74293722D01*
X-3742513Y-74293727D01*
X-3742514Y-74293734D01*
X-3773275Y-74448377D01*
X-3773276Y-74448379D01*
X-3773276Y-74448382D01*
X-3773276Y-74606066D01*
X-3742513Y-74760721D01*
X-3682170Y-74906403D01*
X-3682165Y-74906410D01*
X-3670180Y-74924348D01*
X-3649301Y-74991025D01*
X-3667785Y-75058405D01*
X-3670179Y-75062131D01*
X-3709390Y-75120814D01*
X-3709397Y-75120827D01*
X-3709397Y-75120828D01*
X-3769737Y-75266503D01*
X-3769738Y-75266508D01*
X-3769738Y-75266510D01*
X-3800499Y-75421153D01*
X-3800500Y-75421155D01*
X-3800500Y-75421158D01*
X-3800500Y-75578842D01*
X-3769737Y-75733497D01*
X-3709394Y-75879179D01*
X-3621789Y-76010289D01*
X-3510289Y-76121789D01*
X-3379179Y-76209394D01*
X-3233497Y-76269737D01*
X-3136085Y-76289113D01*
X-3078150Y-76300638D01*
X-3016239Y-76333023D01*
X-3014716Y-76334518D01*
X-2506426Y-76842809D01*
X-2136819Y-77212416D01*
X-2103334Y-77273739D01*
X-2100500Y-77300097D01*
X-2100500Y-77704641D01*
X-2120185Y-77771680D01*
X-2172989Y-77817435D01*
X-2242147Y-77827379D01*
X-2274572Y-77816748D01*
X-2274930Y-77817611D01*
X-2441708Y-77748529D01*
X-2441716Y-77748527D01*
X-2612781Y-77714500D01*
X-2612786Y-77714500D01*
X-2787214Y-77714500D01*
X-2787218Y-77714500D01*
X-2958283Y-77748527D01*
X-2958291Y-77748529D01*
X-3119439Y-77815278D01*
X-3119448Y-77815283D01*
X-3264473Y-77912186D01*
X-3264477Y-77912189D01*
X-3387810Y-78035522D01*
X-3387813Y-78035526D01*
X-3484716Y-78180551D01*
X-3484719Y-78180557D01*
X-3484720Y-78180558D01*
X-3551471Y-78341709D01*
X-3585500Y-78512786D01*
X-3585500Y-78687214D01*
X-3551471Y-78858291D01*
X-3484720Y-79019442D01*
X-3484716Y-79019447D01*
X-3484716Y-79019448D01*
X-3391136Y-79159501D01*
X-3370258Y-79226179D01*
X-3388743Y-79293559D01*
X-3440721Y-79340249D01*
X-3446785Y-79342953D01*
X-3484745Y-79358676D01*
X-3484762Y-79358685D01*
X-3685743Y-79474720D01*
X-3685745Y-79474721D01*
X-3869875Y-79616009D01*
X-3869882Y-79616015D01*
X-4033984Y-79780117D01*
X-4033990Y-79780124D01*
X-4175278Y-79964254D01*
X-4175279Y-79964256D01*
X-4265674Y-80120827D01*
X-4291320Y-80165248D01*
X-4380137Y-80379670D01*
X-4440206Y-80603851D01*
X-4470500Y-80833955D01*
X-4470500Y-81066045D01*
X-4440206Y-81296149D01*
X-4380137Y-81520330D01*
X-4291320Y-81734752D01*
X-4175276Y-81935748D01*
X-4033989Y-82119877D01*
X-3869877Y-82283989D01*
X-3685748Y-82425276D01*
X-3685745Y-82425278D01*
X-3685743Y-82425279D01*
X-3621000Y-82462658D01*
X-3484752Y-82541320D01*
X-3270330Y-82630137D01*
X-3046149Y-82690206D01*
X-2816045Y-82720500D01*
X-2816038Y-82720500D01*
X-2583962Y-82720500D01*
X-2583955Y-82720500D01*
X-2353851Y-82690206D01*
X-2129670Y-82630137D01*
X-1915248Y-82541320D01*
X-1915240Y-82541315D01*
X-1915237Y-82541314D01*
X-1714256Y-82425279D01*
X-1714254Y-82425278D01*
X-1530124Y-82283990D01*
X-1530117Y-82283984D01*
X-1366015Y-82119882D01*
X-1366009Y-82119875D01*
X-1224721Y-81935745D01*
X-1224720Y-81935743D01*
X-1108685Y-81734762D01*
X-1108677Y-81734745D01*
X-1019862Y-81520328D01*
X-960692Y-81299500D01*
X-959794Y-81296149D01*
X-945299Y-81186050D01*
X-917032Y-81122154D01*
X-858708Y-81083683D01*
X-788843Y-81082852D01*
X-734681Y-81114553D01*
X1561420Y-83410655D01*
X3777631Y-85626866D01*
X3811116Y-85688189D01*
X3813950Y-85714547D01*
X3813950Y-91015296D01*
X3794265Y-91082335D01*
X3741461Y-91128090D01*
X3672303Y-91138034D01*
X3608747Y-91109009D01*
X3602269Y-91102977D01*
X3310473Y-90811181D01*
X3276988Y-90749858D01*
X3276537Y-90699311D01*
X3291495Y-90624110D01*
X3300500Y-90578844D01*
X3300500Y-90421155D01*
X3300499Y-90421153D01*
X3269738Y-90266510D01*
X3269737Y-90266503D01*
X3246540Y-90210500D01*
X3209397Y-90120827D01*
X3209390Y-90120814D01*
X3121789Y-89989711D01*
X3121786Y-89989707D01*
X3010292Y-89878213D01*
X3010288Y-89878210D01*
X2879185Y-89790609D01*
X2879172Y-89790602D01*
X2733501Y-89730264D01*
X2733489Y-89730261D01*
X2578845Y-89699500D01*
X2578842Y-89699500D01*
X2421158Y-89699500D01*
X2421155Y-89699500D01*
X2266510Y-89730261D01*
X2266498Y-89730264D01*
X2120827Y-89790602D01*
X2120814Y-89790609D01*
X1989711Y-89878210D01*
X1989707Y-89878213D01*
X1878213Y-89989707D01*
X1878210Y-89989711D01*
X1790609Y-90120814D01*
X1790602Y-90120827D01*
X1730264Y-90266498D01*
X1730261Y-90266510D01*
X1699500Y-90421153D01*
X1699500Y-90578846D01*
X1730261Y-90733489D01*
X1730264Y-90733501D01*
X1790602Y-90879172D01*
X1790609Y-90879185D01*
X1878210Y-91010288D01*
X1878213Y-91010292D01*
X1916456Y-91048534D01*
X1936232Y-91074336D01*
X1940365Y-91081514D01*
X1940423Y-91081728D01*
X1965696Y-91125501D01*
X1992259Y-91171511D01*
X2019479Y-91218657D01*
X2019481Y-91218660D01*
X2138349Y-91337528D01*
X2138355Y-91337533D01*
X7266196Y-96465374D01*
X7266206Y-96465385D01*
X7270536Y-96469715D01*
X7270537Y-96469716D01*
X7382341Y-96581520D01*
X7469152Y-96631639D01*
X7469154Y-96631641D01*
X7500400Y-96649681D01*
X7519272Y-96660577D01*
X7672000Y-96701501D01*
X7672003Y-96701501D01*
X7837710Y-96701501D01*
X7837726Y-96701500D01*
X27957531Y-96701500D01*
X27957547Y-96701501D01*
X27965143Y-96701501D01*
X28123254Y-96701501D01*
X28123257Y-96701501D01*
X28275985Y-96660577D01*
X28326104Y-96631639D01*
X28412916Y-96581520D01*
X28524720Y-96469716D01*
X28524720Y-96469714D01*
X28534928Y-96459507D01*
X28534929Y-96459504D01*
X32553119Y-92441316D01*
X33544616Y-91449819D01*
X33605939Y-91416334D01*
X33632297Y-91413500D01*
X34920943Y-91413500D01*
X367420943Y-91413500D01*
X368850331Y-91413500D01*
X368850347Y-91413501D01*
X368857943Y-91413501D01*
X369016054Y-91413501D01*
X369016057Y-91413501D01*
X369168785Y-91372577D01*
X369241728Y-91330463D01*
X369269104Y-91314658D01*
X369305709Y-91293524D01*
X369305708Y-91293524D01*
X369305716Y-91293520D01*
X369417520Y-91181716D01*
X369417520Y-91181714D01*
X369427724Y-91171511D01*
X369427727Y-91171506D01*
X374908758Y-85690476D01*
X376163075Y-85690476D01*
X376163075Y-85690477D01*
X376173684Y-85697567D01*
X376173689Y-85697569D01*
X376337479Y-85765413D01*
X376337487Y-85765415D01*
X376511353Y-85799999D01*
X376511357Y-85800000D01*
X376688643Y-85800000D01*
X376688646Y-85799999D01*
X376862512Y-85765415D01*
X376862524Y-85765412D01*
X377026306Y-85697572D01*
X377036922Y-85690476D01*
X377036923Y-85690476D01*
X376600001Y-85253554D01*
X376600000Y-85253554D01*
X376163075Y-85690476D01*
X374908758Y-85690476D01*
X375521129Y-85078105D01*
X375582448Y-85044623D01*
X375652140Y-85049607D01*
X375708073Y-85091479D01*
X375730423Y-85141594D01*
X375734585Y-85162518D01*
X375734586Y-85162520D01*
X375802430Y-85326311D01*
X375809522Y-85336922D01*
X376286228Y-84860218D01*
X376400000Y-84860218D01*
X376400000Y-84939782D01*
X376430448Y-85013291D01*
X376486709Y-85069552D01*
X376560218Y-85100000D01*
X376639782Y-85100000D01*
X376713291Y-85069552D01*
X376769552Y-85013291D01*
X376800000Y-84939782D01*
X376800000Y-84899999D01*
X376953554Y-84899999D01*
X376953554Y-84900000D01*
X377390476Y-85336923D01*
X377390476Y-85336922D01*
X377397572Y-85326306D01*
X377465412Y-85162524D01*
X377465415Y-85162512D01*
X377499999Y-84988646D01*
X377500000Y-84988643D01*
X377500000Y-84811357D01*
X377499999Y-84811353D01*
X377465415Y-84637487D01*
X377465413Y-84637479D01*
X377397569Y-84473689D01*
X377397567Y-84473684D01*
X377390477Y-84463075D01*
X376953554Y-84899999D01*
X376800000Y-84899999D01*
X376800000Y-84860218D01*
X376769552Y-84786709D01*
X376713291Y-84730448D01*
X376639782Y-84700000D01*
X376560218Y-84700000D01*
X376486709Y-84730448D01*
X376430448Y-84786709D01*
X376400000Y-84860218D01*
X376286228Y-84860218D01*
X376385489Y-84760957D01*
X376423223Y-84723223D01*
X377036923Y-84109522D01*
X377026311Y-84102430D01*
X376992631Y-84088480D01*
X376938228Y-84044639D01*
X376916163Y-83978345D01*
X376918466Y-83949733D01*
X376939334Y-83844821D01*
X376950500Y-83788693D01*
X376950500Y-83611306D01*
X376950499Y-83611304D01*
X376915896Y-83437341D01*
X376915893Y-83437332D01*
X376848016Y-83273459D01*
X376848009Y-83273446D01*
X376749464Y-83125965D01*
X376749461Y-83125961D01*
X376661181Y-83037681D01*
X376656842Y-83029735D01*
X376649595Y-83024310D01*
X376640360Y-82999550D01*
X376627696Y-82976358D01*
X376628341Y-82967328D01*
X376625178Y-82958846D01*
X376630794Y-82933025D01*
X376632680Y-82906666D01*
X376638498Y-82897612D01*
X376640030Y-82890573D01*
X376661171Y-82862332D01*
X406199500Y-82862332D01*
X406199500Y-83137667D01*
X406199501Y-83137684D01*
X406235438Y-83410655D01*
X406235439Y-83410660D01*
X406235440Y-83410666D01*
X406235441Y-83410668D01*
X406306704Y-83676630D01*
X406412075Y-83931017D01*
X406412080Y-83931028D01*
X406477674Y-84044639D01*
X406549751Y-84169479D01*
X406549753Y-84169482D01*
X406549754Y-84169483D01*
X406717370Y-84387926D01*
X406717376Y-84387933D01*
X406912066Y-84582623D01*
X406912073Y-84582629D01*
X406983566Y-84637487D01*
X407130521Y-84750249D01*
X407249314Y-84818834D01*
X407368971Y-84887919D01*
X407368976Y-84887921D01*
X407368979Y-84887923D01*
X407623368Y-84993295D01*
X407889334Y-85064560D01*
X408162326Y-85100500D01*
X408162333Y-85100500D01*
X408437667Y-85100500D01*
X408437674Y-85100500D01*
X408710666Y-85064560D01*
X408976632Y-84993295D01*
X409231021Y-84887923D01*
X409469479Y-84750249D01*
X409687928Y-84582628D01*
X409882628Y-84387928D01*
X410050249Y-84169479D01*
X410187923Y-83931021D01*
X410293295Y-83676632D01*
X410364560Y-83410666D01*
X410400500Y-83137674D01*
X410400500Y-82862326D01*
X410364560Y-82589334D01*
X410293295Y-82323368D01*
X410187923Y-82068979D01*
X410187921Y-82068976D01*
X410187919Y-82068971D01*
X410138732Y-81983778D01*
X410050249Y-81830521D01*
X409949714Y-81699500D01*
X409882629Y-81612073D01*
X409882623Y-81612066D01*
X409687933Y-81417376D01*
X409687926Y-81417370D01*
X409469483Y-81249754D01*
X409469482Y-81249753D01*
X409469479Y-81249751D01*
X409359146Y-81186050D01*
X409231028Y-81112080D01*
X409231017Y-81112075D01*
X408976630Y-81006704D01*
X408843649Y-80971072D01*
X408710666Y-80935440D01*
X408710660Y-80935439D01*
X408710655Y-80935438D01*
X408437684Y-80899501D01*
X408437679Y-80899500D01*
X408437674Y-80899500D01*
X408162326Y-80899500D01*
X408162320Y-80899500D01*
X408162315Y-80899501D01*
X407889344Y-80935438D01*
X407889337Y-80935439D01*
X407889334Y-80935440D01*
X407833125Y-80950500D01*
X407623369Y-81006704D01*
X407368982Y-81112075D01*
X407368971Y-81112080D01*
X407130516Y-81249754D01*
X406912073Y-81417370D01*
X406912066Y-81417376D01*
X406717376Y-81612066D01*
X406717370Y-81612073D01*
X406549754Y-81830516D01*
X406412080Y-82068971D01*
X406412075Y-82068982D01*
X406306704Y-82323369D01*
X406235441Y-82589331D01*
X406235438Y-82589344D01*
X406199501Y-82862315D01*
X406199500Y-82862332D01*
X376661171Y-82862332D01*
X376661181Y-82862319D01*
X376749461Y-82774038D01*
X376749464Y-82774035D01*
X376848013Y-82626547D01*
X376915894Y-82462666D01*
X376919864Y-82442711D01*
X376950499Y-82288695D01*
X376950500Y-82288693D01*
X376950500Y-82111306D01*
X376950499Y-82111304D01*
X376915896Y-81937341D01*
X376915893Y-81937332D01*
X376848016Y-81773459D01*
X376848009Y-81773446D01*
X376749464Y-81625965D01*
X376749461Y-81625961D01*
X376624038Y-81500538D01*
X376624034Y-81500535D01*
X376476553Y-81401990D01*
X376476540Y-81401983D01*
X376312667Y-81334106D01*
X376312658Y-81334103D01*
X376138694Y-81299500D01*
X376138691Y-81299500D01*
X375961309Y-81299500D01*
X375961306Y-81299500D01*
X375787341Y-81334103D01*
X375787332Y-81334106D01*
X375623459Y-81401983D01*
X375623446Y-81401990D01*
X375475965Y-81500535D01*
X375475961Y-81500538D01*
X375350538Y-81625961D01*
X375350535Y-81625965D01*
X375251990Y-81773446D01*
X375251983Y-81773459D01*
X375184106Y-81937332D01*
X375184103Y-81937341D01*
X375149500Y-82111304D01*
X375149500Y-82199902D01*
X375129815Y-82266941D01*
X375113181Y-82287583D01*
X367625584Y-89775181D01*
X367564261Y-89808666D01*
X367537903Y-89811500D01*
X322287097Y-89811500D01*
X322220058Y-89791815D01*
X322174303Y-89739011D01*
X322164359Y-89669853D01*
X322193384Y-89606297D01*
X322199416Y-89599819D01*
X324178421Y-87620814D01*
X326108759Y-85690476D01*
X327363075Y-85690476D01*
X327363075Y-85690477D01*
X327373684Y-85697567D01*
X327373689Y-85697569D01*
X327537479Y-85765413D01*
X327537487Y-85765415D01*
X327711353Y-85799999D01*
X327711357Y-85800000D01*
X327888643Y-85800000D01*
X327888646Y-85799999D01*
X328062512Y-85765415D01*
X328062524Y-85765412D01*
X328226306Y-85697572D01*
X328236922Y-85690476D01*
X328236923Y-85690476D01*
X327800001Y-85253554D01*
X327800000Y-85253554D01*
X327363075Y-85690476D01*
X326108759Y-85690476D01*
X326721130Y-85078105D01*
X326782449Y-85044623D01*
X326852141Y-85049607D01*
X326908074Y-85091479D01*
X326930425Y-85141598D01*
X326934586Y-85162521D01*
X327002430Y-85326311D01*
X327009522Y-85336922D01*
X327486228Y-84860218D01*
X327600000Y-84860218D01*
X327600000Y-84939782D01*
X327630448Y-85013291D01*
X327686709Y-85069552D01*
X327760218Y-85100000D01*
X327839782Y-85100000D01*
X327913291Y-85069552D01*
X327969552Y-85013291D01*
X328000000Y-84939782D01*
X328000000Y-84899999D01*
X328153554Y-84899999D01*
X328153554Y-84900001D01*
X328590476Y-85336923D01*
X328590476Y-85336922D01*
X328597572Y-85326306D01*
X328665412Y-85162524D01*
X328665415Y-85162512D01*
X328699999Y-84988646D01*
X328700000Y-84988643D01*
X328700000Y-84811357D01*
X328699999Y-84811353D01*
X328665415Y-84637487D01*
X328665413Y-84637479D01*
X328597569Y-84473689D01*
X328597567Y-84473684D01*
X328590477Y-84463075D01*
X328153554Y-84899999D01*
X328000000Y-84899999D01*
X328000000Y-84860218D01*
X327969552Y-84786709D01*
X327913291Y-84730448D01*
X327839782Y-84700000D01*
X327760218Y-84700000D01*
X327686709Y-84730448D01*
X327630448Y-84786709D01*
X327600000Y-84860218D01*
X327486228Y-84860218D01*
X327585489Y-84760957D01*
X327623223Y-84723223D01*
X328236922Y-84109522D01*
X328226311Y-84102430D01*
X328192631Y-84088480D01*
X328138228Y-84044639D01*
X328116163Y-83978345D01*
X328118466Y-83949733D01*
X328139334Y-83844821D01*
X328150500Y-83788693D01*
X328150500Y-83611306D01*
X328150499Y-83611304D01*
X328115896Y-83437341D01*
X328115893Y-83437332D01*
X328048016Y-83273459D01*
X328048009Y-83273446D01*
X327949464Y-83125965D01*
X327949461Y-83125961D01*
X327861181Y-83037681D01*
X327827696Y-82976358D01*
X327832680Y-82906666D01*
X327861181Y-82862319D01*
X327949461Y-82774038D01*
X327949464Y-82774035D01*
X328048013Y-82626547D01*
X328115894Y-82462666D01*
X328119864Y-82442711D01*
X328150499Y-82288695D01*
X328150500Y-82288693D01*
X328150500Y-82111306D01*
X328150499Y-82111304D01*
X328115896Y-81937341D01*
X328115893Y-81937332D01*
X328048016Y-81773459D01*
X328048009Y-81773446D01*
X327949464Y-81625965D01*
X327949461Y-81625961D01*
X327824038Y-81500538D01*
X327824034Y-81500535D01*
X327676553Y-81401990D01*
X327676540Y-81401983D01*
X327512667Y-81334106D01*
X327512658Y-81334103D01*
X327338694Y-81299500D01*
X327338691Y-81299500D01*
X327161309Y-81299500D01*
X327161306Y-81299500D01*
X326987341Y-81334103D01*
X326987332Y-81334106D01*
X326823459Y-81401983D01*
X326823446Y-81401990D01*
X326675965Y-81500535D01*
X326675961Y-81500538D01*
X326550538Y-81625961D01*
X326550535Y-81625965D01*
X326451990Y-81773446D01*
X326451983Y-81773459D01*
X326384106Y-81937332D01*
X326384103Y-81937341D01*
X326349500Y-82111304D01*
X326349500Y-82199903D01*
X326329815Y-82266942D01*
X326313181Y-82287584D01*
X319627584Y-88973181D01*
X319566261Y-89006666D01*
X319539903Y-89009500D01*
X274139097Y-89009500D01*
X274072058Y-88989815D01*
X274026303Y-88937011D01*
X274016359Y-88867853D01*
X274045384Y-88804297D01*
X274051416Y-88797819D01*
X274853416Y-87995819D01*
X277158758Y-85690476D01*
X278563075Y-85690476D01*
X278563075Y-85690477D01*
X278573684Y-85697567D01*
X278573689Y-85697569D01*
X278737479Y-85765413D01*
X278737487Y-85765415D01*
X278911353Y-85799999D01*
X278911357Y-85800000D01*
X279088643Y-85800000D01*
X279088646Y-85799999D01*
X279262512Y-85765415D01*
X279262524Y-85765412D01*
X279426306Y-85697572D01*
X279436922Y-85690476D01*
X279436923Y-85690476D01*
X279000001Y-85253554D01*
X279000000Y-85253554D01*
X278563075Y-85690476D01*
X277158758Y-85690476D01*
X277896243Y-84952991D01*
X277957562Y-84919509D01*
X278027254Y-84924493D01*
X278083187Y-84966365D01*
X278105537Y-85016484D01*
X278134584Y-85162512D01*
X278134586Y-85162520D01*
X278202430Y-85326311D01*
X278209522Y-85336922D01*
X278686228Y-84860218D01*
X278800000Y-84860218D01*
X278800000Y-84939782D01*
X278830448Y-85013291D01*
X278886709Y-85069552D01*
X278960218Y-85100000D01*
X279039782Y-85100000D01*
X279113291Y-85069552D01*
X279169552Y-85013291D01*
X279200000Y-84939782D01*
X279200000Y-84899999D01*
X279353554Y-84899999D01*
X279353554Y-84900001D01*
X279790476Y-85336923D01*
X279790476Y-85336922D01*
X279797572Y-85326306D01*
X279865412Y-85162524D01*
X279865415Y-85162512D01*
X279899999Y-84988646D01*
X279900000Y-84988643D01*
X279900000Y-84811357D01*
X279899999Y-84811353D01*
X279865415Y-84637487D01*
X279865413Y-84637479D01*
X279797569Y-84473689D01*
X279797567Y-84473684D01*
X279790477Y-84463075D01*
X279353554Y-84899999D01*
X279200000Y-84899999D01*
X279200000Y-84860218D01*
X279169552Y-84786709D01*
X279113291Y-84730448D01*
X279039782Y-84700000D01*
X278960218Y-84700000D01*
X278886709Y-84730448D01*
X278830448Y-84786709D01*
X278800000Y-84860218D01*
X278686228Y-84860218D01*
X278785489Y-84760957D01*
X278823223Y-84723223D01*
X279436923Y-84109522D01*
X279426311Y-84102430D01*
X279392631Y-84088480D01*
X279338228Y-84044639D01*
X279316163Y-83978345D01*
X279318466Y-83949733D01*
X279339334Y-83844821D01*
X279350500Y-83788693D01*
X279350500Y-83611306D01*
X279350499Y-83611304D01*
X279315896Y-83437341D01*
X279315893Y-83437332D01*
X279248016Y-83273459D01*
X279248009Y-83273446D01*
X279149464Y-83125965D01*
X279149461Y-83125961D01*
X279061181Y-83037681D01*
X279027696Y-82976358D01*
X279032680Y-82906666D01*
X279061181Y-82862319D01*
X279149461Y-82774038D01*
X279149464Y-82774035D01*
X279248013Y-82626547D01*
X279315894Y-82462666D01*
X279319864Y-82442711D01*
X279350499Y-82288695D01*
X279350500Y-82288693D01*
X279350500Y-82111306D01*
X279350499Y-82111304D01*
X279315896Y-81937341D01*
X279315893Y-81937332D01*
X279248016Y-81773459D01*
X279248009Y-81773446D01*
X279149464Y-81625965D01*
X279149461Y-81625961D01*
X279024038Y-81500538D01*
X279024034Y-81500535D01*
X278876553Y-81401990D01*
X278876540Y-81401983D01*
X278712667Y-81334106D01*
X278712658Y-81334103D01*
X278538694Y-81299500D01*
X278538691Y-81299500D01*
X278361309Y-81299500D01*
X278361306Y-81299500D01*
X278187341Y-81334103D01*
X278187332Y-81334106D01*
X278023459Y-81401983D01*
X278023446Y-81401990D01*
X277875965Y-81500535D01*
X277875961Y-81500538D01*
X277750538Y-81625961D01*
X277750535Y-81625965D01*
X277651990Y-81773446D01*
X277651983Y-81773459D01*
X277584106Y-81937332D01*
X277584103Y-81937341D01*
X277549500Y-82111304D01*
X277549500Y-82199903D01*
X277529815Y-82266942D01*
X277513181Y-82287584D01*
X271629584Y-88171181D01*
X271568261Y-88204666D01*
X271541903Y-88207500D01*
X226291097Y-88207500D01*
X226224058Y-88187815D01*
X226178303Y-88135011D01*
X226168359Y-88065853D01*
X226197384Y-88002297D01*
X226203416Y-87995819D01*
X227183883Y-87015352D01*
X228508758Y-85690476D01*
X229763075Y-85690476D01*
X229763075Y-85690477D01*
X229773684Y-85697567D01*
X229773689Y-85697569D01*
X229937479Y-85765413D01*
X229937487Y-85765415D01*
X230111353Y-85799999D01*
X230111357Y-85800000D01*
X230288643Y-85800000D01*
X230288646Y-85799999D01*
X230462512Y-85765415D01*
X230462524Y-85765412D01*
X230626306Y-85697572D01*
X230636922Y-85690476D01*
X230636923Y-85690476D01*
X230200001Y-85253554D01*
X230200000Y-85253554D01*
X229763075Y-85690476D01*
X228508758Y-85690476D01*
X229121128Y-85078106D01*
X229182449Y-85044623D01*
X229252141Y-85049607D01*
X229308074Y-85091479D01*
X229330425Y-85141598D01*
X229334586Y-85162521D01*
X229402430Y-85326311D01*
X229409522Y-85336922D01*
X229886228Y-84860218D01*
X230000000Y-84860218D01*
X230000000Y-84939782D01*
X230030448Y-85013291D01*
X230086709Y-85069552D01*
X230160218Y-85100000D01*
X230239782Y-85100000D01*
X230313291Y-85069552D01*
X230369552Y-85013291D01*
X230400000Y-84939782D01*
X230400000Y-84899999D01*
X230553554Y-84899999D01*
X230553554Y-84900000D01*
X230990476Y-85336923D01*
X230990476Y-85336922D01*
X230997572Y-85326306D01*
X231065412Y-85162524D01*
X231065415Y-85162512D01*
X231099999Y-84988646D01*
X231100000Y-84988643D01*
X231100000Y-84811357D01*
X231099999Y-84811353D01*
X231065415Y-84637487D01*
X231065413Y-84637479D01*
X230997569Y-84473689D01*
X230997567Y-84473684D01*
X230990477Y-84463075D01*
X230990476Y-84463075D01*
X230553554Y-84899999D01*
X230400000Y-84899999D01*
X230400000Y-84860218D01*
X230369552Y-84786709D01*
X230313291Y-84730448D01*
X230239782Y-84700000D01*
X230160218Y-84700000D01*
X230086709Y-84730448D01*
X230030448Y-84786709D01*
X230000000Y-84860218D01*
X229886228Y-84860218D01*
X229985489Y-84760957D01*
X230023223Y-84723223D01*
X230636922Y-84109522D01*
X230626311Y-84102430D01*
X230592631Y-84088480D01*
X230538228Y-84044639D01*
X230516163Y-83978345D01*
X230518466Y-83949733D01*
X230539334Y-83844821D01*
X230550500Y-83788693D01*
X230550500Y-83611306D01*
X230550499Y-83611304D01*
X230515896Y-83437341D01*
X230515893Y-83437332D01*
X230448016Y-83273459D01*
X230448009Y-83273446D01*
X230349464Y-83125965D01*
X230349461Y-83125961D01*
X230261181Y-83037681D01*
X230227696Y-82976358D01*
X230232680Y-82906666D01*
X230261181Y-82862319D01*
X230349461Y-82774038D01*
X230349464Y-82774035D01*
X230448013Y-82626547D01*
X230515894Y-82462666D01*
X230519864Y-82442711D01*
X230550499Y-82288695D01*
X230550500Y-82288693D01*
X230550500Y-82111306D01*
X230550499Y-82111304D01*
X230515896Y-81937341D01*
X230515893Y-81937332D01*
X230448016Y-81773459D01*
X230448009Y-81773446D01*
X230349464Y-81625965D01*
X230349461Y-81625961D01*
X230224038Y-81500538D01*
X230224034Y-81500535D01*
X230076553Y-81401990D01*
X230076540Y-81401983D01*
X229912667Y-81334106D01*
X229912658Y-81334103D01*
X229738694Y-81299500D01*
X229738691Y-81299500D01*
X229561309Y-81299500D01*
X229561306Y-81299500D01*
X229387341Y-81334103D01*
X229387332Y-81334106D01*
X229223459Y-81401983D01*
X229223446Y-81401990D01*
X229075965Y-81500535D01*
X229075961Y-81500538D01*
X228950538Y-81625961D01*
X228950535Y-81625965D01*
X228851990Y-81773446D01*
X228851983Y-81773459D01*
X228784106Y-81937332D01*
X228784103Y-81937341D01*
X228749500Y-82111304D01*
X228749500Y-82199903D01*
X228729815Y-82266942D01*
X228713181Y-82287584D01*
X223631584Y-87369181D01*
X223570261Y-87402666D01*
X223543903Y-87405500D01*
X177360197Y-87405500D01*
X177293158Y-87385815D01*
X177247403Y-87333011D01*
X177237459Y-87263853D01*
X177266484Y-87200297D01*
X177272516Y-87193819D01*
X178074515Y-86391820D01*
X178775859Y-85690476D01*
X180963075Y-85690476D01*
X180963075Y-85690477D01*
X180973684Y-85697567D01*
X180973689Y-85697569D01*
X181137479Y-85765413D01*
X181137487Y-85765415D01*
X181311353Y-85799999D01*
X181311357Y-85800000D01*
X181488643Y-85800000D01*
X181488646Y-85799999D01*
X181662512Y-85765415D01*
X181662524Y-85765412D01*
X181826306Y-85697572D01*
X181836922Y-85690476D01*
X181836923Y-85690476D01*
X181400001Y-85253554D01*
X181400000Y-85253554D01*
X180963075Y-85690476D01*
X178775859Y-85690476D01*
X180083738Y-84382596D01*
X180145059Y-84349113D01*
X180214751Y-84354097D01*
X180259098Y-84382598D01*
X180275961Y-84399461D01*
X180275965Y-84399464D01*
X180423449Y-84498011D01*
X180423451Y-84498012D01*
X180423453Y-84498013D01*
X180457738Y-84512214D01*
X180512141Y-84556055D01*
X180534206Y-84622349D01*
X180531903Y-84650965D01*
X180500000Y-84811359D01*
X180500000Y-84988646D01*
X180534584Y-85162512D01*
X180534586Y-85162520D01*
X180602430Y-85326311D01*
X180609522Y-85336922D01*
X181086228Y-84860218D01*
X181200000Y-84860218D01*
X181200000Y-84939782D01*
X181230448Y-85013291D01*
X181286709Y-85069552D01*
X181360218Y-85100000D01*
X181439782Y-85100000D01*
X181513291Y-85069552D01*
X181569552Y-85013291D01*
X181600000Y-84939782D01*
X181600000Y-84899999D01*
X181753554Y-84899999D01*
X181753554Y-84900001D01*
X182190476Y-85336923D01*
X182190476Y-85336922D01*
X182197572Y-85326306D01*
X182265412Y-85162524D01*
X182265415Y-85162512D01*
X182299999Y-84988646D01*
X182300000Y-84988643D01*
X182300000Y-84811357D01*
X182299999Y-84811353D01*
X182265415Y-84637487D01*
X182265413Y-84637479D01*
X182197569Y-84473689D01*
X182197567Y-84473684D01*
X182190477Y-84463075D01*
X182190476Y-84463075D01*
X181753554Y-84899999D01*
X181600000Y-84899999D01*
X181600000Y-84860218D01*
X181569552Y-84786709D01*
X181513291Y-84730448D01*
X181439782Y-84700000D01*
X181360218Y-84700000D01*
X181286709Y-84730448D01*
X181230448Y-84786709D01*
X181200000Y-84860218D01*
X181086228Y-84860218D01*
X181185489Y-84760957D01*
X181223223Y-84723223D01*
X181836923Y-84109522D01*
X181826311Y-84102430D01*
X181792631Y-84088480D01*
X181738228Y-84044639D01*
X181716163Y-83978345D01*
X181718466Y-83949733D01*
X181739334Y-83844821D01*
X181750500Y-83788693D01*
X181750500Y-83611306D01*
X181750499Y-83611304D01*
X181715896Y-83437341D01*
X181715893Y-83437332D01*
X181648016Y-83273459D01*
X181648009Y-83273446D01*
X181549464Y-83125965D01*
X181549461Y-83125961D01*
X181461181Y-83037681D01*
X181427696Y-82976358D01*
X181432680Y-82906666D01*
X181461181Y-82862319D01*
X181549461Y-82774038D01*
X181549464Y-82774035D01*
X181648013Y-82626547D01*
X181715894Y-82462666D01*
X181719864Y-82442711D01*
X181750499Y-82288695D01*
X181750500Y-82288693D01*
X181750500Y-82111306D01*
X181750499Y-82111304D01*
X181715896Y-81937341D01*
X181715893Y-81937332D01*
X181648016Y-81773459D01*
X181648009Y-81773446D01*
X181549464Y-81625965D01*
X181549461Y-81625961D01*
X181424038Y-81500538D01*
X181424034Y-81500535D01*
X181276553Y-81401990D01*
X181276540Y-81401983D01*
X181112667Y-81334106D01*
X181112658Y-81334103D01*
X180938694Y-81299500D01*
X180938691Y-81299500D01*
X180761309Y-81299500D01*
X180761306Y-81299500D01*
X180587341Y-81334103D01*
X180587332Y-81334106D01*
X180423459Y-81401983D01*
X180423446Y-81401990D01*
X180275965Y-81500535D01*
X180275961Y-81500538D01*
X180150538Y-81625961D01*
X180150535Y-81625965D01*
X180051990Y-81773446D01*
X180051983Y-81773459D01*
X179984106Y-81937332D01*
X179984103Y-81937341D01*
X179949500Y-82111304D01*
X179949500Y-82199902D01*
X179929815Y-82266941D01*
X179913181Y-82287583D01*
X175633584Y-86567181D01*
X175572261Y-86600666D01*
X175545903Y-86603500D01*
X130295098Y-86603500D01*
X130273852Y-86597261D01*
X130251766Y-86595682D01*
X130240982Y-86587609D01*
X130228059Y-86583815D01*
X130213560Y-86567082D01*
X130195832Y-86553812D01*
X130191124Y-86541189D01*
X130182304Y-86531011D01*
X130179152Y-86509094D01*
X130171414Y-86488347D01*
X130174276Y-86475185D01*
X130172360Y-86461853D01*
X130181558Y-86441711D01*
X130186265Y-86420074D01*
X130199535Y-86402347D01*
X130201385Y-86398297D01*
X130207416Y-86391820D01*
X130251312Y-86347923D01*
X130280519Y-86318716D01*
X130280518Y-86318716D01*
X130908759Y-85690476D01*
X132163075Y-85690476D01*
X132163075Y-85690477D01*
X132173684Y-85697567D01*
X132173689Y-85697569D01*
X132337479Y-85765413D01*
X132337487Y-85765415D01*
X132511353Y-85799999D01*
X132511357Y-85800000D01*
X132688643Y-85800000D01*
X132688646Y-85799999D01*
X132862512Y-85765415D01*
X132862524Y-85765412D01*
X133026306Y-85697572D01*
X133036922Y-85690476D01*
X133036923Y-85690476D01*
X132600001Y-85253554D01*
X132600000Y-85253554D01*
X132163075Y-85690476D01*
X130908759Y-85690476D01*
X131521129Y-85078106D01*
X131582449Y-85044623D01*
X131652141Y-85049607D01*
X131708074Y-85091479D01*
X131730425Y-85141598D01*
X131734586Y-85162521D01*
X131802430Y-85326311D01*
X131809522Y-85336922D01*
X132286228Y-84860218D01*
X132400000Y-84860218D01*
X132400000Y-84939782D01*
X132430448Y-85013291D01*
X132486709Y-85069552D01*
X132560218Y-85100000D01*
X132639782Y-85100000D01*
X132713291Y-85069552D01*
X132769552Y-85013291D01*
X132800000Y-84939782D01*
X132800000Y-84899999D01*
X132953554Y-84899999D01*
X132953554Y-84900001D01*
X133390476Y-85336923D01*
X133390476Y-85336922D01*
X133397572Y-85326306D01*
X133465412Y-85162524D01*
X133465415Y-85162512D01*
X133499999Y-84988646D01*
X133500000Y-84988643D01*
X133500000Y-84811357D01*
X133499999Y-84811353D01*
X133465415Y-84637487D01*
X133465413Y-84637479D01*
X133397569Y-84473689D01*
X133397567Y-84473684D01*
X133390477Y-84463075D01*
X133390476Y-84463075D01*
X132953554Y-84899999D01*
X132800000Y-84899999D01*
X132800000Y-84860218D01*
X132769552Y-84786709D01*
X132713291Y-84730448D01*
X132639782Y-84700000D01*
X132560218Y-84700000D01*
X132486709Y-84730448D01*
X132430448Y-84786709D01*
X132400000Y-84860218D01*
X132286228Y-84860218D01*
X132385489Y-84760957D01*
X132423223Y-84723223D01*
X133036922Y-84109522D01*
X133026311Y-84102430D01*
X132992631Y-84088480D01*
X132938228Y-84044639D01*
X132916163Y-83978345D01*
X132918466Y-83949733D01*
X132939334Y-83844821D01*
X132950500Y-83788693D01*
X132950500Y-83611306D01*
X132950499Y-83611304D01*
X132915896Y-83437341D01*
X132915893Y-83437332D01*
X132848016Y-83273459D01*
X132848009Y-83273446D01*
X132749464Y-83125965D01*
X132749461Y-83125961D01*
X132661181Y-83037681D01*
X132627696Y-82976358D01*
X132632680Y-82906666D01*
X132661181Y-82862319D01*
X132749461Y-82774038D01*
X132749464Y-82774035D01*
X132848013Y-82626547D01*
X132915894Y-82462666D01*
X132919864Y-82442711D01*
X132950499Y-82288695D01*
X132950500Y-82288693D01*
X132950500Y-82111306D01*
X132950499Y-82111304D01*
X132915896Y-81937341D01*
X132915893Y-81937332D01*
X132848016Y-81773459D01*
X132848009Y-81773446D01*
X132749464Y-81625965D01*
X132749461Y-81625961D01*
X132624038Y-81500538D01*
X132624034Y-81500535D01*
X132476553Y-81401990D01*
X132476540Y-81401983D01*
X132312667Y-81334106D01*
X132312658Y-81334103D01*
X132138694Y-81299500D01*
X132138691Y-81299500D01*
X131961309Y-81299500D01*
X131961306Y-81299500D01*
X131787341Y-81334103D01*
X131787332Y-81334106D01*
X131623459Y-81401983D01*
X131623446Y-81401990D01*
X131475965Y-81500535D01*
X131475961Y-81500538D01*
X131350538Y-81625961D01*
X131350535Y-81625965D01*
X131251990Y-81773446D01*
X131251983Y-81773459D01*
X131184106Y-81937332D01*
X131184103Y-81937341D01*
X131149500Y-82111304D01*
X131149500Y-82199903D01*
X131129815Y-82266942D01*
X131113181Y-82287584D01*
X127635584Y-85765181D01*
X127574261Y-85798666D01*
X127547903Y-85801500D01*
X84362800Y-85801500D01*
X84295761Y-85781815D01*
X84250006Y-85729011D01*
X84244916Y-85698469D01*
X83800001Y-85253554D01*
X83800000Y-85253554D01*
X83354140Y-85699411D01*
X83347580Y-85733997D01*
X83299513Y-85784705D01*
X83237198Y-85801500D01*
X82297097Y-85801500D01*
X82230058Y-85781815D01*
X82184303Y-85729011D01*
X82174359Y-85659853D01*
X82203384Y-85596297D01*
X82209416Y-85589819D01*
X82462313Y-85336922D01*
X82721128Y-85078106D01*
X82782449Y-85044623D01*
X82852140Y-85049607D01*
X82908074Y-85091478D01*
X82930425Y-85141598D01*
X82934586Y-85162521D01*
X83002430Y-85326311D01*
X83009522Y-85336922D01*
X83486228Y-84860218D01*
X83600000Y-84860218D01*
X83600000Y-84939782D01*
X83630448Y-85013291D01*
X83686709Y-85069552D01*
X83760218Y-85100000D01*
X83839782Y-85100000D01*
X83913291Y-85069552D01*
X83969552Y-85013291D01*
X84000000Y-84939782D01*
X84000000Y-84899999D01*
X84153554Y-84899999D01*
X84153554Y-84900000D01*
X84590476Y-85336923D01*
X84590476Y-85336922D01*
X84597572Y-85326306D01*
X84665412Y-85162524D01*
X84665415Y-85162512D01*
X84699999Y-84988646D01*
X84700000Y-84988643D01*
X84700000Y-84811357D01*
X84699999Y-84811353D01*
X84665415Y-84637487D01*
X84665413Y-84637479D01*
X84597569Y-84473689D01*
X84597567Y-84473684D01*
X84590477Y-84463075D01*
X84153554Y-84899999D01*
X84000000Y-84899999D01*
X84000000Y-84860218D01*
X83969552Y-84786709D01*
X83913291Y-84730448D01*
X83839782Y-84700000D01*
X83760218Y-84700000D01*
X83686709Y-84730448D01*
X83630448Y-84786709D01*
X83600000Y-84860218D01*
X83486228Y-84860218D01*
X83585489Y-84760957D01*
X83623223Y-84723223D01*
X84236923Y-84109522D01*
X84226311Y-84102430D01*
X84192631Y-84088480D01*
X84138228Y-84044639D01*
X84116163Y-83978345D01*
X84118466Y-83949733D01*
X84139334Y-83844821D01*
X84150500Y-83788693D01*
X84150500Y-83611306D01*
X84150499Y-83611304D01*
X84115896Y-83437341D01*
X84115893Y-83437332D01*
X84048016Y-83273459D01*
X84048009Y-83273446D01*
X83949464Y-83125965D01*
X83949461Y-83125961D01*
X83861181Y-83037681D01*
X83827696Y-82976358D01*
X83832680Y-82906666D01*
X83861181Y-82862319D01*
X83949461Y-82774038D01*
X83949464Y-82774035D01*
X84048013Y-82626547D01*
X84115894Y-82462666D01*
X84119864Y-82442711D01*
X84150499Y-82288695D01*
X84150500Y-82288693D01*
X84150500Y-82111306D01*
X84150499Y-82111304D01*
X84115896Y-81937341D01*
X84115893Y-81937332D01*
X84048016Y-81773459D01*
X84048009Y-81773446D01*
X83949464Y-81625965D01*
X83949461Y-81625961D01*
X83824038Y-81500538D01*
X83824034Y-81500535D01*
X83676553Y-81401990D01*
X83676540Y-81401983D01*
X83512667Y-81334106D01*
X83512658Y-81334103D01*
X83338694Y-81299500D01*
X83338691Y-81299500D01*
X83161309Y-81299500D01*
X83161306Y-81299500D01*
X82987341Y-81334103D01*
X82987332Y-81334106D01*
X82823459Y-81401983D01*
X82823446Y-81401990D01*
X82675965Y-81500535D01*
X82675961Y-81500538D01*
X82550538Y-81625961D01*
X82550535Y-81625965D01*
X82451990Y-81773446D01*
X82451983Y-81773459D01*
X82384106Y-81937332D01*
X82384103Y-81937341D01*
X82349500Y-82111304D01*
X82349500Y-82199903D01*
X82329815Y-82266942D01*
X82313181Y-82287584D01*
X79637584Y-84963181D01*
X79576261Y-84996666D01*
X79549903Y-84999500D01*
X36024000Y-84999500D01*
X35956961Y-84979815D01*
X35911206Y-84927011D01*
X35900000Y-84875500D01*
X35900000Y-84811357D01*
X35899999Y-84811353D01*
X35865415Y-84637487D01*
X35865413Y-84637479D01*
X35797569Y-84473689D01*
X35797567Y-84473684D01*
X35790477Y-84463075D01*
X35290373Y-84963181D01*
X35263445Y-84977884D01*
X35237627Y-84994477D01*
X35231426Y-84995368D01*
X35229050Y-84996666D01*
X35202692Y-84999500D01*
X35175264Y-84999500D01*
X35200000Y-84939782D01*
X35200000Y-84860218D01*
X35169552Y-84786709D01*
X35113291Y-84730448D01*
X35039782Y-84700000D01*
X34960218Y-84700000D01*
X34886709Y-84730448D01*
X34878175Y-84738981D01*
X34882402Y-84679888D01*
X34910903Y-84635541D01*
X35436922Y-84109522D01*
X35426311Y-84102430D01*
X35392631Y-84088480D01*
X35338228Y-84044639D01*
X35316163Y-83978345D01*
X35318466Y-83949733D01*
X35339334Y-83844821D01*
X35350500Y-83788693D01*
X35350500Y-83611306D01*
X35350499Y-83611304D01*
X35315896Y-83437341D01*
X35315893Y-83437332D01*
X35248016Y-83273459D01*
X35248009Y-83273446D01*
X35149464Y-83125965D01*
X35149461Y-83125961D01*
X35061181Y-83037681D01*
X35027696Y-82976358D01*
X35032680Y-82906666D01*
X35061181Y-82862319D01*
X35149461Y-82774038D01*
X35149464Y-82774035D01*
X35248013Y-82626547D01*
X35315894Y-82462666D01*
X35319864Y-82442711D01*
X35350499Y-82288695D01*
X35350500Y-82288693D01*
X35350500Y-82111306D01*
X35350499Y-82111304D01*
X35315896Y-81937341D01*
X35315893Y-81937332D01*
X35248016Y-81773459D01*
X35248009Y-81773446D01*
X35149464Y-81625965D01*
X35149461Y-81625961D01*
X35024038Y-81500538D01*
X35024034Y-81500535D01*
X34876553Y-81401990D01*
X34876540Y-81401983D01*
X34712667Y-81334106D01*
X34712658Y-81334103D01*
X34538694Y-81299500D01*
X34538691Y-81299500D01*
X34361309Y-81299500D01*
X34361306Y-81299500D01*
X34187341Y-81334103D01*
X34187332Y-81334106D01*
X34023459Y-81401983D01*
X34023446Y-81401990D01*
X33875966Y-81500534D01*
X33856173Y-81520328D01*
X33813318Y-81563182D01*
X33751998Y-81596666D01*
X33725639Y-81599500D01*
X32634298Y-81599500D01*
X32567259Y-81579815D01*
X32546617Y-81563181D01*
X11621790Y-60638355D01*
X11621788Y-60638352D01*
X11502917Y-60519481D01*
X11502916Y-60519480D01*
X11416104Y-60469360D01*
X11416104Y-60469359D01*
X11416100Y-60469358D01*
X11365985Y-60440423D01*
X11213257Y-60399499D01*
X11055143Y-60399499D01*
X11047547Y-60399499D01*
X11047531Y-60399500D01*
X8579766Y-60399500D01*
X8512727Y-60379815D01*
X8510875Y-60378602D01*
X8379185Y-60290609D01*
X8379172Y-60290602D01*
X8233501Y-60230264D01*
X8233489Y-60230261D01*
X8078845Y-60199500D01*
X8078842Y-60199500D01*
X7921158Y-60199500D01*
X7921155Y-60199500D01*
X7766510Y-60230261D01*
X7766498Y-60230264D01*
X7620827Y-60290602D01*
X7620814Y-60290609D01*
X7489125Y-60378602D01*
X7422447Y-60399480D01*
X7420234Y-60399500D01*
X2920940Y-60399500D01*
X2880019Y-60410464D01*
X2880019Y-60410465D01*
X2842751Y-60420451D01*
X2768214Y-60440423D01*
X2768209Y-60440426D01*
X2631290Y-60519475D01*
X2631282Y-60519481D01*
X2519480Y-60631284D01*
X2519478Y-60631286D01*
X834750Y-62316015D01*
X-718839Y-63869604D01*
X-780162Y-63903089D01*
X-849854Y-63898105D01*
X-905787Y-63856233D01*
X-930204Y-63790769D01*
X-929590Y-63770108D01*
X-929766Y-63770097D01*
X-929500Y-63766038D01*
X-929500Y-63533947D01*
X-959794Y-63303851D01*
X-1019862Y-63079671D01*
X-1108677Y-62865254D01*
X-1108685Y-62865237D01*
X-1224720Y-62664256D01*
X-1224721Y-62664254D01*
X-1366009Y-62480124D01*
X-1366015Y-62480117D01*
X-1530117Y-62316015D01*
X-1530124Y-62316009D01*
X-1714254Y-62174721D01*
X-1714256Y-62174720D01*
X-1915237Y-62058685D01*
X-1915254Y-62058677D01*
X-2129671Y-61969862D01*
X-2353851Y-61909794D01*
X-2583947Y-61879500D01*
X-2583955Y-61879500D01*
X-2816045Y-61879500D01*
X-2816052Y-61879500D01*
X-3017386Y-61906007D01*
X-3046149Y-61909794D01*
X-3128203Y-61931780D01*
X-3270328Y-61969862D01*
X-3270330Y-61969863D01*
X-3484752Y-62058680D01*
X-3484754Y-62058681D01*
X-3484762Y-62058685D01*
X-3685743Y-62174720D01*
X-3685745Y-62174721D01*
X-3869875Y-62316009D01*
X-3869882Y-62316015D01*
X-4033984Y-62480117D01*
X-4033990Y-62480124D01*
X-4175278Y-62664254D01*
X-4175279Y-62664256D01*
X-4291314Y-62865237D01*
X-4291320Y-62865248D01*
X-4380137Y-63079670D01*
X-4440206Y-63303851D01*
X-4470500Y-63533955D01*
X-4470500Y-63766045D01*
X-4440206Y-63996149D01*
X-4380137Y-64220330D01*
X-4291320Y-64434752D01*
X-4175276Y-64635748D01*
X-4033989Y-64819877D01*
X-3935690Y-64918175D01*
X-3902207Y-64979496D01*
X-3907191Y-65049188D01*
X-3949062Y-65105122D01*
X-4014526Y-65129539D01*
X-4047563Y-65127473D01*
X-4095112Y-65118015D01*
X-4112786Y-65114500D01*
X-4287214Y-65114500D01*
X-4287218Y-65114500D01*
X-4458283Y-65148527D01*
X-4458291Y-65148529D01*
X-4619439Y-65215278D01*
X-4619448Y-65215283D01*
X-4764473Y-65312186D01*
X-4764477Y-65312189D01*
X-4887810Y-65435522D01*
X-4887813Y-65435526D01*
X-4984716Y-65580551D01*
X-4984717Y-65580553D01*
X-4984720Y-65580558D01*
X-5051471Y-65741709D01*
X-5085500Y-65912786D01*
X-6599500Y-65912786D01*
X-6599500Y-59224500D01*
X-6579815Y-59157461D01*
X-6527011Y-59111706D01*
X-6475500Y-59100500D01*
X412675500Y-59100500D01*
X412742539Y-59120185D01*
G37*
%TD.AperFunction*%
%TD*%
M02*
