M48
; DRILL file {KiCad 9.0.2} date 2026-06-17T11:10:56-0700
; FORMAT={-:-/ absolute / metric / decimal}
; #@! TF.CreationDate,2026-06-17T11:10:56-07:00
; #@! TF.GenerationSoftware,Kicad,Pcbnew,9.0.2
; #@! TF.FileFunction,Plated,1,2,PTH
FMAT,2
METRIC
; #@! TA.AperFunction,Plated,PTH,ViaDrill
T1C0.300
; #@! TA.AperFunction,Plated,PTH,ComponentDrill
T2C0.400
; #@! TA.AperFunction,Plated,PTH,ComponentDrill
T3C0.650
; #@! TA.AperFunction,Plated,PTH,ComponentDrill
T4C1.100
; #@! TA.AperFunction,Plated,PTH,ComponentDrill
T5C1.500
%
G90
G05
T1
X7.5Y642.0
X22.525Y623.5
X22.525Y617.0
X22.525Y610.5
X24.5Y621.5
X24.5Y615.0
X25.5Y610.5
X26.5Y534.6
X26.5Y486.1
X26.5Y437.1
X26.5Y388.6
X26.5Y339.6
X26.5Y290.6
X26.5Y242.1
X26.5Y193.1
X26.5Y144.6
X26.5Y95.6
X26.5Y47.1
X27.0Y626.0
X27.5Y534.1
X28.525Y623.5
X28.525Y617.0
X28.525Y610.5
X30.5Y621.5
X30.5Y615.0
X31.5Y610.5
X31.7Y588.5
X32.5Y588.5
X33.3Y588.5
X34.0Y512.1
X34.1Y588.5
X34.5Y631.5
X34.5Y463.6
X34.525Y623.5
X34.525Y617.0
X34.525Y610.5
X34.9Y588.5
X35.0Y414.6
X35.5Y365.6
X35.7Y588.5
X36.0Y317.1
X36.5Y588.5
X36.5Y621.5
X36.5Y615.0
X36.5Y268.1
X37.0Y219.6
X37.3Y588.5
X37.5Y610.5
X37.5Y170.6
X38.0Y121.6
X38.1Y588.5
X38.9Y588.5
X39.0Y73.1
X39.5Y632.0
X39.7Y588.5
X40.525Y623.5
X40.525Y617.0
X42.5Y621.5
X42.5Y615.0
X49.5Y642.0
X62.0Y536.1
X69.5Y625.5
X71.5Y626.0
X71.525Y623.5
X71.525Y617.0
X71.525Y610.5
X73.0Y621.5
X73.0Y619.0
X74.5Y626.5
X74.5Y610.5
X75.5Y534.6
X75.5Y486.1
X75.5Y437.1
X75.5Y388.6
X75.5Y339.6
X75.5Y290.6
X75.5Y242.1
X75.5Y193.1
X75.5Y144.6
X75.5Y95.6
X75.5Y47.1
X76.5Y627.0
X77.525Y623.5
X77.525Y617.0
X77.525Y610.5
X79.0Y628.0
X79.0Y621.5
X79.0Y619.0
X80.2Y588.5
X80.5Y610.5
X81.0Y588.5
X81.0Y628.5
X81.8Y588.5
X82.5Y512.1
X82.6Y588.5
X83.0Y463.6
X83.4Y588.5
X83.5Y629.5
X83.5Y414.6
X83.525Y623.5
X83.525Y617.0
X83.525Y610.5
X84.0Y365.6
X84.2Y588.5
X84.5Y317.1
X85.0Y588.5
X85.0Y621.5
X85.0Y619.0
X85.0Y268.1
X85.5Y219.6
X85.8Y588.5
X86.0Y629.5
X86.5Y610.5
X86.5Y170.6
X86.6Y588.5
X87.0Y121.6
X87.4Y588.5
X87.5Y73.1
X88.2Y588.5
X89.525Y623.5
X89.525Y617.0
X91.0Y621.5
X91.0Y619.0
X105.0Y642.0
X120.125Y623.5
X120.125Y617.0
X120.125Y610.5
X122.1Y621.5
X122.1Y615.0
X123.1Y610.5
X124.1Y534.6
X124.1Y486.1
X124.1Y437.1
X124.1Y388.6
X124.1Y339.6
X124.1Y290.6
X124.1Y242.1
X124.1Y193.1
X124.1Y144.6
X124.1Y95.6
X124.1Y47.1
X124.5Y626.0
X125.1Y534.1
X126.125Y623.5
X126.125Y617.0
X126.125Y610.5
X128.1Y621.5
X128.1Y615.0
X129.1Y610.5
X129.3Y588.5
X130.1Y588.5
X130.9Y588.5
X131.5Y512.1
X131.7Y588.5
X132.0Y631.5
X132.0Y463.6
X132.125Y623.5
X132.125Y617.0
X132.125Y610.5
X132.5Y588.5
X132.5Y414.6
X133.0Y365.6
X133.3Y588.5
X133.5Y317.1
X134.0Y268.1
X134.1Y588.5
X134.1Y621.5
X134.1Y615.0
X134.5Y219.6
X134.9Y588.5
X135.0Y170.6
X135.1Y610.5
X135.7Y588.5
X136.0Y121.6
X136.5Y588.5
X136.5Y73.1
X136.992Y631.0
X137.3Y588.5
X138.125Y623.5
X138.125Y617.0
X140.1Y621.5
X140.1Y615.0
X147.0Y642.0
X159.5Y535.6
X167.0Y625.5
X169.0Y626.0
X169.125Y623.5
X169.125Y617.0
X169.125Y610.5
X170.6Y621.5
X170.6Y619.0
X172.0Y626.5
X172.1Y610.5
X173.1Y534.6
X173.1Y486.1
X173.1Y437.1
X173.1Y388.6
X173.1Y339.6
X173.1Y290.6
X173.1Y242.1
X173.1Y193.1
X173.1Y144.6
X173.1Y95.6
X173.1Y47.1
X174.0Y627.0
X175.125Y623.5
X175.125Y617.0
X175.125Y610.5
X176.5Y628.0
X176.6Y621.5
X176.6Y619.0
X177.8Y588.5
X178.1Y610.5
X178.5Y628.5
X178.6Y588.5
X179.4Y588.5
X180.0Y512.1
X180.2Y588.5
X180.5Y463.6
X181.0Y588.5
X181.0Y629.5
X181.0Y414.6
X181.125Y623.5
X181.125Y617.0
X181.125Y610.5
X181.5Y365.6
X181.8Y588.5
X182.0Y317.1
X182.5Y268.1
X182.6Y588.5
X182.6Y621.5
X182.6Y619.0
X183.4Y588.5
X183.5Y629.5
X183.5Y219.6
X184.0Y170.6
X184.1Y610.5
X184.2Y588.5
X185.0Y588.5
X185.0Y121.6
X185.5Y73.1
X185.8Y588.5
X187.125Y623.5
X187.125Y617.0
X188.6Y621.5
X188.6Y619.0
X193.5Y641.5
T2
X21.55Y537.6
X21.55Y536.1
X21.55Y488.8
X21.55Y487.3
X21.55Y440.0
X21.55Y438.5
X21.55Y391.2
X21.55Y389.7
X21.55Y342.4
X21.55Y340.9
X21.55Y293.6
X21.55Y292.1
X21.55Y244.8
X21.55Y243.3
X21.55Y196.0
X21.55Y194.5
X21.55Y147.2
X21.55Y145.7
X21.55Y98.4
X21.55Y96.9
X21.55Y49.6
X21.55Y48.1
X22.1Y534.9
X22.1Y486.1
X22.1Y437.3
X22.1Y388.5
X22.1Y339.7
X22.1Y290.9
X22.1Y242.1
X22.1Y193.3
X22.1Y144.5
X22.1Y95.7
X22.1Y46.9
X70.35Y537.6
X70.35Y536.1
X70.35Y488.8
X70.35Y487.3
X70.35Y440.0
X70.35Y438.5
X70.35Y391.2
X70.35Y389.7
X70.35Y342.4
X70.35Y340.9
X70.35Y293.6
X70.35Y292.1
X70.35Y244.8
X70.35Y243.3
X70.35Y196.0
X70.35Y194.5
X70.35Y147.2
X70.35Y145.7
X70.35Y98.4
X70.35Y96.9
X70.35Y49.6
X70.35Y48.1
X70.9Y534.9
X70.9Y486.1
X70.9Y437.3
X70.9Y388.5
X70.9Y339.7
X70.9Y290.9
X70.9Y242.1
X70.9Y193.3
X70.9Y144.5
X70.9Y95.7
X70.9Y46.9
X119.15Y537.6
X119.15Y536.1
X119.15Y488.8
X119.15Y487.3
X119.15Y440.0
X119.15Y438.5
X119.15Y391.2
X119.15Y389.7
X119.15Y342.4
X119.15Y340.9
X119.15Y293.6
X119.15Y292.1
X119.15Y244.8
X119.15Y243.3
X119.15Y196.0
X119.15Y194.5
X119.15Y147.2
X119.15Y145.7
X119.15Y98.4
X119.15Y96.9
X119.15Y49.6
X119.15Y48.1
X119.7Y534.9
X119.7Y486.1
X119.7Y437.3
X119.7Y388.5
X119.7Y339.7
X119.7Y290.9
X119.7Y242.1
X119.7Y193.3
X119.7Y144.5
X119.7Y95.7
X119.7Y46.9
X167.95Y537.6
X167.95Y536.1
X167.95Y488.8
X167.95Y487.3
X167.95Y440.0
X167.95Y438.5
X167.95Y391.2
X167.95Y389.7
X167.95Y342.4
X167.95Y340.9
X167.95Y293.6
X167.95Y292.1
X167.95Y244.8
X167.95Y243.3
X167.95Y196.0
X167.95Y194.5
X167.95Y147.2
X167.95Y145.7
X167.95Y98.4
X167.95Y96.9
X167.95Y49.6
X167.95Y48.1
X168.5Y534.9
X168.5Y486.1
X168.5Y437.3
X168.5Y388.5
X168.5Y339.7
X168.5Y290.9
X168.5Y242.1
X168.5Y193.3
X168.5Y144.5
X168.5Y95.7
X168.5Y46.9
T3
X33.56Y636.87
X33.56Y635.6
X34.83Y636.87
X34.83Y635.6
X36.1Y636.87
X36.1Y635.6
X37.37Y636.87
X37.37Y635.6
X38.64Y636.87
X38.64Y635.6
X39.91Y636.87
X39.91Y635.6
X41.18Y636.87
X41.18Y635.6
X42.45Y636.87
X42.45Y635.6
X43.72Y636.87
X43.72Y635.6
X44.99Y636.87
X44.99Y635.6
X46.26Y636.87
X46.26Y635.6
X47.53Y636.87
X47.53Y635.6
X48.8Y636.87
X48.8Y635.6
X50.07Y636.87
X50.07Y635.6
X51.34Y636.87
X51.34Y635.6
X52.61Y636.87
X52.61Y635.6
X53.88Y636.87
X53.88Y635.6
X55.15Y636.87
X55.15Y635.6
X56.42Y636.87
X56.42Y635.6
X57.69Y636.87
X57.69Y635.6
X58.96Y636.87
X58.96Y635.6
X60.23Y636.87
X60.23Y635.6
X61.5Y636.87
X61.5Y635.6
X62.77Y636.87
X62.77Y635.6
X64.04Y636.87
X64.04Y635.6
X131.16Y636.87
X131.16Y635.6
X132.43Y636.87
X132.43Y635.6
X133.7Y636.87
X133.7Y635.6
X134.97Y636.87
X134.97Y635.6
X136.24Y636.87
X136.24Y635.6
X137.51Y636.87
X137.51Y635.6
X138.78Y636.87
X138.78Y635.6
X140.05Y636.87
X140.05Y635.6
X141.32Y636.87
X141.32Y635.6
X142.59Y636.87
X142.59Y635.6
X143.86Y636.87
X143.86Y635.6
X145.13Y636.87
X145.13Y635.6
X146.4Y636.87
X146.4Y635.6
X147.67Y636.87
X147.67Y635.6
X148.94Y636.87
X148.94Y635.6
X150.21Y636.87
X150.21Y635.6
X151.48Y636.87
X151.48Y635.6
X152.75Y636.87
X152.75Y635.6
X154.02Y636.87
X154.02Y635.6
X155.29Y636.87
X155.29Y635.6
X156.56Y636.87
X156.56Y635.6
X157.83Y636.87
X157.83Y635.6
X159.1Y636.87
X159.1Y635.6
X160.37Y636.87
X160.37Y635.6
X161.64Y636.87
X161.64Y635.6
T4
X7.5Y635.0
X105.1Y635.0
T5
X2.475Y640.025
X2.475Y629.975
X12.525Y640.025
X12.525Y629.975
X100.075Y640.025
X100.075Y629.975
X110.125Y640.025
X110.125Y629.975
M30
