%TF.GenerationSoftware,KiCad,Pcbnew,9.0.2*%
%TF.CreationDate,2025-09-02T14:41:16-07:00*%
%TF.ProjectId,9Ch_Edge_Card,3943685f-4564-4676-955f-436172642e6b,rev?*%
%TF.SameCoordinates,Original*%
%TF.FileFunction,Profile,NP*%
%FSLAX46Y46*%
G04 Gerber Fmt 4.6, Leading zero omitted, Abs format (unit mm)*
G04 Created by KiCad (PCBNEW 9.0.2) date 2025-09-02 14:41:16*
%MOMM*%
%LPD*%
G01*
G04 APERTURE LIST*
%TA.AperFunction,Profile*%
%ADD10C,0.050000*%
%TD*%
%TA.AperFunction,Profile*%
%ADD11C,0.120000*%
%TD*%
G04 APERTURE END LIST*
D10*
X175875000Y-102620000D02*
X188525000Y-102620000D01*
X188525000Y-109620000D02*
X188525000Y-102620000D01*
X175875000Y-109620000D02*
X175875000Y-102620000D01*
D11*
%TO.C,REF\u002A\u002A*%
X171875000Y-112400000D02*
X171875000Y-111020000D01*
X172275000Y-110620000D02*
X174875000Y-110620000D01*
X175375000Y-112400000D02*
X171875000Y-112400000D01*
X176375000Y-113400000D02*
X176375000Y-118400000D01*
X176375000Y-118400000D02*
X180605000Y-118400000D01*
X180605000Y-118400000D02*
X180605000Y-113200000D01*
X183005000Y-113200000D02*
X183005000Y-118400000D01*
X183005000Y-118400000D02*
X188025000Y-118400000D01*
X188025000Y-118400000D02*
X188025000Y-113400000D01*
X189025000Y-112400000D02*
X192525000Y-112400000D01*
X192125000Y-110620000D02*
X189525000Y-110620000D01*
X192525000Y-112400000D02*
X192525000Y-111020000D01*
X171875000Y-111020000D02*
G75*
G02*
X172275000Y-110620000I399999J1D01*
G01*
X175375000Y-112400000D02*
G75*
G02*
X176375000Y-113400000I1J-999999D01*
G01*
X175875000Y-109620000D02*
G75*
G02*
X174875000Y-110620000I-999999J-1D01*
G01*
X180605000Y-113200000D02*
G75*
G02*
X183005000Y-113200000I1200000J0D01*
G01*
X188025000Y-113400000D02*
G75*
G02*
X189025000Y-112400000I1000000J0D01*
G01*
X189525000Y-110620000D02*
G75*
G02*
X188525000Y-109620000I0J1000000D01*
G01*
X192125000Y-110620000D02*
G75*
G02*
X192525000Y-111020000I0J-400000D01*
G01*
%TD*%
M02*
