%TF.GenerationSoftware,KiCad,Pcbnew,9.0.2*%
%TF.CreationDate,2025-09-02T14:41:16-07:00*%
%TF.ProjectId,9Ch_Edge_Card,3943685f-4564-4676-955f-436172642e6b,rev?*%
%TF.SameCoordinates,Original*%
%TF.FileFunction,Copper,L1,Top*%
%TF.FilePolarity,Positive*%
%FSLAX46Y46*%
G04 Gerber Fmt 4.6, Leading zero omitted, Abs format (unit mm)*
G04 Created by KiCad (PCBNEW 9.0.2) date 2025-09-02 14:41:16*
%MOMM*%
%LPD*%
G01*
G04 APERTURE LIST*
%TA.AperFunction,ConnectorPad*%
%ADD10R,0.550000X2.800000*%
%TD*%
%TA.AperFunction,Conductor*%
%ADD11C,0.200000*%
%TD*%
G04 APERTURE END LIST*
%TA.AperFunction,Conductor*%
%TO.N,1*%
G36*
X176000000Y-103562300D02*
G01*
X176800000Y-103562300D01*
X176800000Y-106387700D01*
X176000000Y-106387700D01*
X176000000Y-103562300D01*
G37*
%TD.AperFunction*%
%TA.AperFunction,Conductor*%
%TO.N,15*%
G36*
X186300000Y-103562300D02*
G01*
X187100000Y-103562300D01*
X187100000Y-106387700D01*
X186300000Y-106387700D01*
X186300000Y-103562300D01*
G37*
%TD.AperFunction*%
%TA.AperFunction,Conductor*%
%TO.N,17*%
G36*
X187600000Y-103562300D02*
G01*
X188400000Y-103562300D01*
X188400000Y-106387700D01*
X187600000Y-106387700D01*
X187600000Y-103562300D01*
G37*
%TD.AperFunction*%
%TA.AperFunction,Conductor*%
%TO.N,5*%
G36*
X178800000Y-103562300D02*
G01*
X179600000Y-103562300D01*
X179600000Y-106387700D01*
X178800000Y-106387700D01*
X178800000Y-103562300D01*
G37*
%TD.AperFunction*%
%TA.AperFunction,Conductor*%
%TO.N,7*%
G36*
X180300000Y-103562300D02*
G01*
X181100000Y-103562300D01*
X181100000Y-106387700D01*
X180300000Y-106387700D01*
X180300000Y-103562300D01*
G37*
%TD.AperFunction*%
%TA.AperFunction,Conductor*%
%TO.N,3*%
G36*
X177300000Y-103562300D02*
G01*
X178100000Y-103562300D01*
X178100000Y-106387700D01*
X177300000Y-106387700D01*
X177300000Y-103562300D01*
G37*
%TD.AperFunction*%
%TA.AperFunction,Conductor*%
%TO.N,11*%
G36*
X183300000Y-103562300D02*
G01*
X184100000Y-103562300D01*
X184100000Y-106387700D01*
X183300000Y-106387700D01*
X183300000Y-103562300D01*
G37*
%TD.AperFunction*%
%TA.AperFunction,Conductor*%
%TO.N,9*%
G36*
X181800000Y-103562300D02*
G01*
X182600000Y-103562300D01*
X182600000Y-106387700D01*
X181800000Y-106387700D01*
X181800000Y-103562300D01*
G37*
%TD.AperFunction*%
%TA.AperFunction,Conductor*%
%TO.N,13*%
G36*
X184800000Y-103562300D02*
G01*
X185600000Y-103562300D01*
X185600000Y-106387700D01*
X184800000Y-106387700D01*
X184800000Y-103562300D01*
G37*
%TD.AperFunction*%
%TD*%
D10*
%TO.P,REF\u002A\u002A,1*%
%TO.N,N/C*%
X177400000Y-116000000D03*
%TO.P,REF\u002A\u002A,3*%
X178200000Y-116000000D03*
%TO.P,REF\u002A\u002A,5*%
X179000000Y-116000000D03*
%TO.P,REF\u002A\u002A,7*%
X179800000Y-116000000D03*
%TO.P,REF\u002A\u002A,9*%
X183800000Y-116000000D03*
%TO.P,REF\u002A\u002A,11*%
X184600000Y-116000000D03*
%TO.P,REF\u002A\u002A,13*%
X185400000Y-116000000D03*
%TO.P,REF\u002A\u002A,15*%
X186200000Y-116000000D03*
%TO.P,REF\u002A\u002A,17*%
X187000000Y-116000000D03*
%TD*%
D11*
%TO.N,1*%
X177400000Y-115075000D02*
X177400000Y-109925000D01*
X176200000Y-108725000D02*
X176200000Y-104975000D01*
X177400000Y-109925000D02*
X176200000Y-108725000D01*
%TO.N,3*%
X178200000Y-109225000D02*
X177700000Y-108725000D01*
X178200000Y-115075000D02*
X178200000Y-109225000D01*
X177700000Y-108725000D02*
X177700000Y-104975000D01*
%TO.N,5*%
X179000000Y-105175000D02*
X179200000Y-104975000D01*
X179000000Y-115075000D02*
X179000000Y-105175000D01*
%TO.N,7*%
X179800000Y-109625000D02*
X180700000Y-108725000D01*
X179800000Y-115075000D02*
X179800000Y-109625000D01*
X180700000Y-108725000D02*
X180700000Y-104975000D01*
%TO.N,9*%
X182200000Y-109225000D02*
X182200000Y-104975000D01*
X183800000Y-115075000D02*
X183800000Y-110825000D01*
X183800000Y-110825000D02*
X182200000Y-109225000D01*
%TO.N,11*%
X184600000Y-110125000D02*
X183700000Y-109225000D01*
X183700000Y-109225000D02*
X183700000Y-104975000D01*
X184600000Y-115075000D02*
X184600000Y-110125000D01*
%TO.N,13*%
X185400000Y-115075000D02*
X185400000Y-105175000D01*
X185400000Y-105175000D02*
X185200000Y-104975000D01*
%TO.N,15*%
X186200000Y-110225000D02*
X186700000Y-109725000D01*
X186700000Y-109725000D02*
X186700000Y-104975000D01*
X186200000Y-115075000D02*
X186200000Y-110225000D01*
%TO.N,17*%
X187000000Y-115075000D02*
X187000000Y-110925000D01*
X187000000Y-110925000D02*
X188200000Y-109725000D01*
X188200000Y-109725000D02*
X188200000Y-104975000D01*
%TD*%
%TA.AperFunction,NonConductor*%
G36*
X177013255Y-106869092D02*
G01*
X177071118Y-106908253D01*
X177098623Y-106972482D01*
X177099500Y-106987204D01*
X177099500Y-108475903D01*
X177079815Y-108542942D01*
X177027011Y-108588697D01*
X176957853Y-108598641D01*
X176894297Y-108569616D01*
X176887819Y-108563584D01*
X176836819Y-108512584D01*
X176803334Y-108451261D01*
X176800500Y-108424903D01*
X176800500Y-107000870D01*
X176808345Y-106974153D01*
X176812963Y-106946690D01*
X176818053Y-106941090D01*
X176820185Y-106933831D01*
X176841225Y-106915599D01*
X176859961Y-106894989D01*
X176869944Y-106890713D01*
X176872989Y-106888076D01*
X176892405Y-106881096D01*
X176897309Y-106879781D01*
X176943407Y-106867430D01*
X177013255Y-106869092D01*
G37*
%TD.AperFunction*%
%TA.AperFunction,NonConductor*%
G36*
X179964590Y-106785429D02*
G01*
X179971681Y-106784647D01*
X179985756Y-106791644D01*
X180011998Y-106799349D01*
X180037503Y-106814075D01*
X180085717Y-106864642D01*
X180099500Y-106921460D01*
X180099500Y-108424903D01*
X180079815Y-108491942D01*
X180063181Y-108512584D01*
X179812181Y-108763584D01*
X179750858Y-108797069D01*
X179681166Y-108792085D01*
X179625233Y-108750213D01*
X179600816Y-108684749D01*
X179600500Y-108675903D01*
X179600500Y-107000870D01*
X179606085Y-106981849D01*
X179606738Y-106962035D01*
X179615727Y-106949011D01*
X179620185Y-106933831D01*
X179635164Y-106920850D01*
X179646428Y-106904533D01*
X179664811Y-106895162D01*
X179672989Y-106888076D01*
X179676732Y-106886440D01*
X179684388Y-106883244D01*
X179793186Y-106854092D01*
X179894897Y-106795368D01*
X179902232Y-106792307D01*
X179929368Y-106789313D01*
X179955899Y-106782877D01*
X179964590Y-106785429D01*
G37*
%TD.AperFunction*%
%TA.AperFunction,NonConductor*%
G36*
X183011998Y-106799349D02*
G01*
X183037503Y-106814075D01*
X183085717Y-106864642D01*
X183099500Y-106921460D01*
X183099500Y-108975902D01*
X183079815Y-109042941D01*
X183027011Y-109088696D01*
X182957853Y-109098640D01*
X182894297Y-109069615D01*
X182887819Y-109063583D01*
X182836819Y-109012583D01*
X182803334Y-108951260D01*
X182800500Y-108924902D01*
X182800500Y-106921460D01*
X182803881Y-106909944D01*
X182802740Y-106897995D01*
X182813543Y-106877038D01*
X182820185Y-106854421D01*
X182830056Y-106845008D01*
X182834756Y-106835892D01*
X182862495Y-106814075D01*
X182888001Y-106799350D01*
X182955898Y-106782877D01*
X183011998Y-106799349D01*
G37*
%TD.AperFunction*%
%TA.AperFunction,NonConductor*%
G36*
X184460084Y-106784107D02*
G01*
X184463593Y-106783484D01*
X184497767Y-106792307D01*
X184505105Y-106795370D01*
X184606814Y-106854092D01*
X184715611Y-106883244D01*
X184723268Y-106886440D01*
X184744223Y-106903422D01*
X184767254Y-106917460D01*
X184770960Y-106925089D01*
X184777550Y-106930430D01*
X184785997Y-106956046D01*
X184797783Y-106980307D01*
X184796776Y-106988728D01*
X184799433Y-106996785D01*
X184799500Y-107000870D01*
X184799500Y-109175903D01*
X184779815Y-109242942D01*
X184727011Y-109288697D01*
X184657853Y-109298641D01*
X184594297Y-109269616D01*
X184587819Y-109263584D01*
X184336819Y-109012584D01*
X184303334Y-108951261D01*
X184300500Y-108924903D01*
X184300500Y-106921460D01*
X184320185Y-106854421D01*
X184362494Y-106814076D01*
X184388000Y-106799350D01*
X184391873Y-106798411D01*
X184394800Y-106795701D01*
X184425545Y-106790240D01*
X184455895Y-106782877D01*
X184460084Y-106784107D01*
G37*
%TD.AperFunction*%
%TA.AperFunction,NonConductor*%
G36*
X187456584Y-106867427D02*
G01*
X187502690Y-106879781D01*
X187507595Y-106881096D01*
X187567255Y-106917461D01*
X187597783Y-106980308D01*
X187599500Y-107000870D01*
X187599500Y-109424903D01*
X187579815Y-109491942D01*
X187563181Y-109512584D01*
X187512181Y-109563584D01*
X187450858Y-109597069D01*
X187381166Y-109592085D01*
X187325233Y-109550213D01*
X187300816Y-109484749D01*
X187300500Y-109475903D01*
X187300500Y-106987204D01*
X187320185Y-106920165D01*
X187372989Y-106874410D01*
X187442147Y-106864466D01*
X187456584Y-106867427D01*
G37*
%TD.AperFunction*%
%TA.AperFunction,NonConductor*%
G36*
X181511998Y-106799349D02*
G01*
X181537503Y-106814075D01*
X181585717Y-106864642D01*
X181599500Y-106921460D01*
X181599500Y-109138330D01*
X181599499Y-109138348D01*
X181599499Y-109304054D01*
X181599498Y-109304054D01*
X181640424Y-109456789D01*
X181640425Y-109456790D01*
X181661455Y-109493214D01*
X181661456Y-109493216D01*
X181719475Y-109593709D01*
X181719481Y-109593717D01*
X181838349Y-109712585D01*
X181838355Y-109712590D01*
X183163181Y-111037416D01*
X183196666Y-111098739D01*
X183199500Y-111125097D01*
X183199500Y-111886866D01*
X183179815Y-111953905D01*
X183127011Y-111999660D01*
X183057853Y-112009604D01*
X182994297Y-111980579D01*
X182984603Y-111971209D01*
X182964880Y-111949953D01*
X182964879Y-111949952D01*
X182964877Y-111949950D01*
X182765612Y-111791041D01*
X182544888Y-111663607D01*
X182307637Y-111570492D01*
X182307630Y-111570490D01*
X182059154Y-111513777D01*
X181805005Y-111494732D01*
X181804995Y-111494732D01*
X181550845Y-111513777D01*
X181302369Y-111570490D01*
X181302362Y-111570492D01*
X181065109Y-111663608D01*
X180844388Y-111791041D01*
X180645123Y-111949950D01*
X180645120Y-111949952D01*
X180615398Y-111981986D01*
X180555370Y-112017740D01*
X180485541Y-112015365D01*
X180428081Y-111975614D01*
X180401233Y-111911108D01*
X180400500Y-111897644D01*
X180400500Y-109925096D01*
X180420185Y-109858057D01*
X180436815Y-109837419D01*
X181058506Y-109215727D01*
X181058511Y-109215724D01*
X181068714Y-109205520D01*
X181068716Y-109205520D01*
X181180520Y-109093716D01*
X181209835Y-109042941D01*
X181238544Y-108993216D01*
X181238545Y-108993214D01*
X181259574Y-108956790D01*
X181259573Y-108956790D01*
X181259577Y-108956785D01*
X181300500Y-108804058D01*
X181300500Y-108645943D01*
X181300500Y-106921460D01*
X181303881Y-106909944D01*
X181302740Y-106897995D01*
X181313543Y-106877038D01*
X181320185Y-106854421D01*
X181330056Y-106845008D01*
X181334756Y-106835892D01*
X181362495Y-106814075D01*
X181388001Y-106799350D01*
X181455898Y-106782877D01*
X181511998Y-106799349D01*
G37*
%TD.AperFunction*%
%TA.AperFunction,NonConductor*%
G36*
X188303901Y-110549177D02*
G01*
X188325989Y-110550757D01*
X188338233Y-110559258D01*
X188349696Y-110562624D01*
X188376369Y-110585736D01*
X188461275Y-110683724D01*
X188546226Y-110757334D01*
X188623487Y-110824281D01*
X188752531Y-110907211D01*
X188804048Y-110940320D01*
X188804061Y-110940327D01*
X188999284Y-111029482D01*
X188999288Y-111029483D01*
X188999290Y-111029484D01*
X189205231Y-111089954D01*
X189205232Y-111089954D01*
X189205235Y-111089955D01*
X189266332Y-111098739D01*
X189417682Y-111120500D01*
X189459108Y-111120500D01*
X191900500Y-111120500D01*
X191967539Y-111140185D01*
X192013294Y-111192989D01*
X192024500Y-111244500D01*
X192024500Y-111775500D01*
X192004815Y-111842539D01*
X191952011Y-111888294D01*
X191900500Y-111899500D01*
X188917682Y-111899500D01*
X188705235Y-111930044D01*
X188705225Y-111930047D01*
X188499284Y-111990517D01*
X188304061Y-112079672D01*
X188304048Y-112079679D01*
X188123485Y-112195720D01*
X187961275Y-112336275D01*
X187818213Y-112501379D01*
X187759435Y-112539153D01*
X187689565Y-112539153D01*
X187630787Y-112501379D01*
X187601762Y-112437823D01*
X187600500Y-112420176D01*
X187600500Y-111225096D01*
X187620185Y-111158057D01*
X187636815Y-111137419D01*
X188194977Y-110579256D01*
X188206795Y-110572803D01*
X188215617Y-110562623D01*
X188236865Y-110556384D01*
X188256298Y-110545773D01*
X188269732Y-110546733D01*
X188282656Y-110542939D01*
X188303901Y-110549177D01*
G37*
%TD.AperFunction*%
%TA.AperFunction,NonConductor*%
G36*
X176506629Y-109891921D02*
G01*
X176542799Y-109917034D01*
X176763181Y-110137416D01*
X176796666Y-110198739D01*
X176799500Y-110225097D01*
X176799500Y-112420176D01*
X176779815Y-112487215D01*
X176727011Y-112532970D01*
X176657853Y-112542914D01*
X176594297Y-112513889D01*
X176581787Y-112501379D01*
X176438724Y-112336275D01*
X176276514Y-112195720D01*
X176276513Y-112195719D01*
X176184806Y-112136783D01*
X176095951Y-112079679D01*
X176095938Y-112079672D01*
X175900715Y-111990517D01*
X175694774Y-111930047D01*
X175694764Y-111930044D01*
X175503754Y-111902582D01*
X175482318Y-111899500D01*
X175482317Y-111899500D01*
X172499500Y-111899500D01*
X172432461Y-111879815D01*
X172386706Y-111827011D01*
X172375500Y-111775500D01*
X172375500Y-111244500D01*
X172395185Y-111177461D01*
X172447989Y-111131706D01*
X172499500Y-111120500D01*
X174982317Y-111120500D01*
X174982318Y-111120500D01*
X175152851Y-111095980D01*
X175194764Y-111089955D01*
X175194765Y-111089954D01*
X175194769Y-111089954D01*
X175400710Y-111029484D01*
X175400713Y-111029482D01*
X175400715Y-111029482D01*
X175595938Y-110940327D01*
X175595944Y-110940323D01*
X175595950Y-110940321D01*
X175776513Y-110824281D01*
X175938724Y-110683724D01*
X176079281Y-110521513D01*
X176195321Y-110340950D01*
X176195323Y-110340944D01*
X176195327Y-110340938D01*
X176284482Y-110145715D01*
X176284482Y-110145713D01*
X176284484Y-110145710D01*
X176336142Y-109969777D01*
X176373915Y-109911002D01*
X176437471Y-109881977D01*
X176506629Y-109891921D01*
G37*
%TD.AperFunction*%
M02*
