%TF.GenerationSoftware,KiCad,Pcbnew,9.0.2*%
%TF.CreationDate,2025-05-27T17:48:54-07:00*%
%TF.ProjectId,8_6mSiPMs,385f366d-5369-4504-9d73-2e6b69636164,rev?*%
%TF.SameCoordinates,Original*%
%TF.FileFunction,Copper,L2,Bot*%
%TF.FilePolarity,Positive*%
%FSLAX46Y46*%
G04 Gerber Fmt 4.6, Leading zero omitted, Abs format (unit mm)*
G04 Created by KiCad (PCBNEW 9.0.2) date 2025-05-27 17:48:54*
%MOMM*%
%LPD*%
G01*
G04 APERTURE LIST*
G04 Aperture macros list*
%AMRoundRect*
0 Rectangle with rounded corners*
0 $1 Rounding radius*
0 $2 $3 $4 $5 $6 $7 $8 $9 X,Y pos of 4 corners*
0 Add a 4 corners polygon primitive as box body*
4,1,4,$2,$3,$4,$5,$6,$7,$8,$9,$2,$3,0*
0 Add four circle primitives for the rounded corners*
1,1,$1+$1,$2,$3*
1,1,$1+$1,$4,$5*
1,1,$1+$1,$6,$7*
1,1,$1+$1,$8,$9*
0 Add four rect primitives between the rounded corners*
20,1,$1+$1,$2,$3,$4,$5,0*
20,1,$1+$1,$4,$5,$6,$7,0*
20,1,$1+$1,$6,$7,$8,$9,0*
20,1,$1+$1,$8,$9,$2,$3,0*%
G04 Aperture macros list end*
%TA.AperFunction,ComponentPad*%
%ADD10C,1.431000*%
%TD*%
%TA.AperFunction,ComponentPad*%
%ADD11R,1.398000X1.398000*%
%TD*%
%TA.AperFunction,ComponentPad*%
%ADD12C,1.398000*%
%TD*%
%TA.AperFunction,SMDPad,CuDef*%
%ADD13RoundRect,0.250000X-0.325000X-1.100000X0.325000X-1.100000X0.325000X1.100000X-0.325000X1.100000X0*%
%TD*%
%TA.AperFunction,SMDPad,CuDef*%
%ADD14RoundRect,0.250000X0.325000X1.100000X-0.325000X1.100000X-0.325000X-1.100000X0.325000X-1.100000X0*%
%TD*%
%TA.AperFunction,ViaPad*%
%ADD15C,0.800000*%
%TD*%
%TA.AperFunction,ViaPad*%
%ADD16C,0.600000*%
%TD*%
%TA.AperFunction,Conductor*%
%ADD17C,0.250000*%
%TD*%
%TA.AperFunction,Conductor*%
%ADD18C,0.200000*%
%TD*%
G04 APERTURE END LIST*
D10*
%TO.P,J\u002A\u002A,MH1*%
%TO.N,N/C*%
X126400000Y-99805000D03*
%TO.P,J\u002A\u002A,MH2*%
X126400000Y-115595000D03*
%TD*%
D11*
%TO.P,REF\u002A\u002A,1*%
%TO.N,GND*%
X115000000Y-104000000D03*
D12*
%TO.P,REF\u002A\u002A,2*%
%TO.N,TMP_OUT*%
X115000000Y-106540000D03*
%TO.P,REF\u002A\u002A,3*%
%TO.N,TMP_VDD*%
X115000000Y-109080000D03*
%TD*%
D13*
%TO.P,10 nF,1*%
%TO.N,GND*%
X164968198Y-100100000D03*
%TO.P,10 nF,2*%
%TO.N,2A*%
X167918198Y-100100000D03*
%TD*%
%TO.P,10 nF,1*%
%TO.N,GND*%
X157468198Y-100100000D03*
%TO.P,10 nF,2*%
%TO.N,1A*%
X160418198Y-100100000D03*
%TD*%
%TO.P,10 nF,1*%
%TO.N,GND*%
X149968198Y-115100000D03*
%TO.P,10 nF,2*%
%TO.N,5A*%
X152918198Y-115100000D03*
%TD*%
%TO.P,10 nF,1*%
%TO.N,GND*%
X164968198Y-115100000D03*
%TO.P,10 nF,2*%
%TO.N,7A*%
X167918198Y-115100000D03*
%TD*%
%TO.P,10 nF,1*%
%TO.N,GND*%
X153718198Y-107600000D03*
%TO.P,10 nF,2*%
%TO.N,3A*%
X156668198Y-107600000D03*
%TD*%
%TO.P,10 nF,1*%
%TO.N,GND*%
X161218198Y-107600000D03*
%TO.P,10 nF,2*%
%TO.N,4A*%
X164168198Y-107600000D03*
%TD*%
D14*
%TO.P,10 nF,1*%
%TO.N,0A*%
X152918198Y-100100000D03*
%TO.P,10 nF,2*%
%TO.N,GND*%
X149968198Y-100100000D03*
%TD*%
D13*
%TO.P,10 nF,1*%
%TO.N,GND*%
X157468198Y-115100000D03*
%TO.P,10 nF,2*%
%TO.N,6A*%
X160418198Y-115100000D03*
%TD*%
D15*
%TO.N,0A*%
X151443198Y-102300000D03*
X129500000Y-102600000D03*
%TO.N,0C*%
X126200000Y-102600000D03*
X147993198Y-98900000D03*
%TO.N,1C*%
X155393198Y-99000000D03*
X126200000Y-103600000D03*
%TO.N,1A*%
X158943198Y-102200000D03*
X130475306Y-103675305D03*
%TO.N,2C*%
X126200000Y-104600003D03*
X162993198Y-98900000D03*
%TO.N,2A*%
X131700611Y-104500611D03*
X166443198Y-102200000D03*
%TO.N,3A*%
X155343198Y-109700000D03*
X129900000Y-107125000D03*
%TO.N,3C*%
X151693198Y-106400000D03*
X126100000Y-105600000D03*
%TO.N,4A*%
X129900000Y-109000000D03*
X162743198Y-109700000D03*
%TO.N,4C*%
X126000000Y-109000000D03*
X159193198Y-106400000D03*
%TO.N,5A*%
X130999049Y-110099049D03*
X151443198Y-117200000D03*
%TO.N,5C*%
X147900000Y-112000000D03*
X126000000Y-110000003D03*
%TO.N,6A*%
X158943198Y-117200000D03*
X132277870Y-110870839D03*
%TO.N,6C*%
X126000000Y-111000006D03*
X155393198Y-114000000D03*
%TO.N,7A*%
X133712653Y-111712653D03*
X166443198Y-117200000D03*
%TO.N,7C*%
X162893198Y-114000000D03*
X126000000Y-112000009D03*
D16*
%TO.N,GND*%
X145000000Y-105000000D03*
D15*
X134900000Y-105675000D03*
%TD*%
D17*
%TO.N,0A*%
X152918198Y-100100000D02*
X151443198Y-101575000D01*
X151443198Y-101575000D02*
X151443198Y-102300000D01*
X132750000Y-99350000D02*
X129500000Y-102600000D01*
X149923098Y-102300000D02*
X146973098Y-99350000D01*
X146973098Y-99350000D02*
X146000000Y-99350000D01*
X146000000Y-99350000D02*
X132750000Y-99350000D01*
X151443198Y-102300000D02*
X149923098Y-102300000D01*
%TO.N,0C*%
X129900000Y-98900000D02*
X126200000Y-102600000D01*
X147993198Y-98900000D02*
X129900000Y-98900000D01*
%TO.N,1C*%
X129525305Y-103600000D02*
X133325305Y-99800000D01*
X133325305Y-99800000D02*
X146100000Y-99800000D01*
X146100000Y-99800000D02*
X149300000Y-103000000D01*
X149300000Y-103000000D02*
X149300000Y-103025000D01*
X152238298Y-103025000D02*
X155393198Y-99870100D01*
X149268198Y-103025000D02*
X149300000Y-103025000D01*
X126200000Y-103600000D02*
X129525305Y-103600000D01*
X149300000Y-103025000D02*
X152238298Y-103025000D01*
X155393198Y-99870100D02*
X155393198Y-99000000D01*
%TO.N,1A*%
X136000000Y-100250000D02*
X133900611Y-100250000D01*
X160418198Y-100100000D02*
X158943198Y-101575000D01*
X145856802Y-100250000D02*
X145600000Y-100250000D01*
X158943198Y-101575000D02*
X158943198Y-102200000D01*
X145600000Y-100250000D02*
X136000000Y-100250000D01*
X149081802Y-103475000D02*
X148900000Y-103293198D01*
X157668198Y-103475000D02*
X149081802Y-103475000D01*
X158943198Y-102200000D02*
X157668198Y-103475000D01*
X133900611Y-100250000D02*
X130475306Y-103675305D01*
X148900000Y-103293198D02*
X145856802Y-100250000D01*
%TO.N,2C*%
X162993198Y-99770100D02*
X162993198Y-98900000D01*
X148895406Y-103925000D02*
X158838298Y-103925000D01*
X126200000Y-104600003D02*
X130575913Y-104600003D01*
X158838298Y-103925000D02*
X162993198Y-99770100D01*
X145670406Y-100700000D02*
X148895406Y-103925000D01*
X134475916Y-100700000D02*
X145670406Y-100700000D01*
X130575913Y-104600003D02*
X134475916Y-100700000D01*
%TO.N,2A*%
X158651902Y-104375000D02*
X148709010Y-104375000D01*
X166443198Y-102200000D02*
X166300000Y-102200000D01*
X166443198Y-101575000D02*
X166443198Y-102200000D01*
X143600000Y-101150000D02*
X135051222Y-101150000D01*
X148709010Y-104375000D02*
X147317005Y-102982995D01*
X167918198Y-100100000D02*
X166443198Y-101575000D01*
X147317005Y-102982995D02*
X145484010Y-101150000D01*
X164125000Y-104375000D02*
X158651902Y-104375000D01*
X166300000Y-102200000D02*
X164125000Y-104375000D01*
X145484010Y-101150000D02*
X143600000Y-101150000D01*
X135051222Y-101150000D02*
X131700611Y-104500611D01*
%TO.N,3A*%
X156668198Y-107600000D02*
X155343198Y-108925000D01*
X155343198Y-108925000D02*
X155343198Y-109700000D01*
X153573098Y-109700000D02*
X150723098Y-106850000D01*
X130175000Y-106850000D02*
X129900000Y-107125000D01*
X150723098Y-106850000D02*
X149200000Y-106850000D01*
X155343198Y-109700000D02*
X153573098Y-109700000D01*
X149200000Y-106850000D02*
X130175000Y-106850000D01*
%TO.N,3C*%
X151693198Y-106400000D02*
X126900000Y-106400000D01*
X126900000Y-106400000D02*
X126100000Y-105600000D01*
%TO.N,4A*%
X153286702Y-110686396D02*
X150350306Y-107750000D01*
X131686396Y-107750000D02*
X131568198Y-107868198D01*
X153550306Y-110950000D02*
X153286702Y-110686396D01*
X131568198Y-107868198D02*
X130436396Y-109000000D01*
X164168198Y-107600000D02*
X162743198Y-109025000D01*
X162743198Y-109700000D02*
X161493198Y-110950000D01*
X132100000Y-107750000D02*
X131686396Y-107750000D01*
X150350306Y-107750000D02*
X146100000Y-107750000D01*
X146100000Y-107750000D02*
X132100000Y-107750000D01*
X161493198Y-110950000D02*
X153550306Y-110950000D01*
X130436396Y-109000000D02*
X129900000Y-109000000D01*
X162743198Y-109025000D02*
X162743198Y-109700000D01*
%TO.N,4C*%
X149000000Y-107300000D02*
X133200000Y-107300000D01*
X130950000Y-107850000D02*
X127050000Y-107850000D01*
X126800000Y-108100000D02*
X126000000Y-108900000D01*
X159193198Y-107320100D02*
X156013298Y-110500000D01*
X131500000Y-107300000D02*
X130950000Y-107850000D01*
X126000000Y-108900000D02*
X126000000Y-109000000D01*
X150536702Y-107300000D02*
X149000000Y-107300000D01*
X153736702Y-110500000D02*
X153123098Y-109886396D01*
X127050000Y-107850000D02*
X126800000Y-108100000D01*
X156013298Y-110500000D02*
X153736702Y-110500000D01*
X153123098Y-109886396D02*
X150536702Y-107300000D01*
X133200000Y-107300000D02*
X131500000Y-107300000D01*
X159193198Y-106400000D02*
X159193198Y-107320100D01*
%TO.N,5A*%
X143100000Y-108650000D02*
X132448098Y-108650000D01*
X132448098Y-108650000D02*
X130999049Y-110099049D01*
X151443198Y-117200000D02*
X149823098Y-117200000D01*
X146931802Y-111668198D02*
X143913604Y-108650000D01*
X146981802Y-111718198D02*
X146931802Y-111668198D01*
X152918198Y-115100000D02*
X151443198Y-116575000D01*
X151443198Y-116575000D02*
X151443198Y-117200000D01*
X149823098Y-117200000D02*
X146981802Y-114358704D01*
X143913604Y-108650000D02*
X143100000Y-108650000D01*
X146981802Y-114358704D02*
X146981802Y-111718198D01*
%TO.N,5C*%
X143000000Y-108200000D02*
X131872792Y-108200000D01*
X144100000Y-108200000D02*
X143000000Y-108200000D01*
X131872792Y-108200000D02*
X131236396Y-108836396D01*
X131236396Y-108836396D02*
X130072789Y-110000003D01*
X147900000Y-112000000D02*
X144100000Y-108200000D01*
X130072789Y-110000003D02*
X126000000Y-110000003D01*
%TO.N,6A*%
X147875153Y-116524847D02*
X146081802Y-114731496D01*
D18*
X160418198Y-116225000D02*
X160418198Y-115600000D01*
D17*
X143540812Y-109550000D02*
X141713604Y-109550000D01*
X150800000Y-118375000D02*
X149725306Y-118375000D01*
X149725306Y-118375000D02*
X147875153Y-116524847D01*
X158943198Y-117200000D02*
X157768198Y-118375000D01*
X158943198Y-116575000D02*
X158943198Y-117200000D01*
X145445406Y-111454594D02*
X143540812Y-109550000D01*
X141713604Y-109550000D02*
X133598709Y-109550000D01*
X160418198Y-115100000D02*
X158943198Y-116575000D01*
X146081802Y-114731496D02*
X146081802Y-113300000D01*
X146081802Y-112090990D02*
X145445406Y-111454594D01*
X146081802Y-113300000D02*
X146081802Y-112090990D01*
X133598709Y-109550000D02*
X132277870Y-110870839D01*
X157768198Y-118375000D02*
X150800000Y-118375000D01*
%TO.N,6C*%
X146531802Y-114545100D02*
X146531802Y-111904594D01*
X146531802Y-111904594D02*
X143727208Y-109100000D01*
X149911702Y-117925000D02*
X146531802Y-114545100D01*
X133023403Y-109100000D02*
X131123397Y-111000006D01*
X131123397Y-111000006D02*
X126000000Y-111000006D01*
X155393198Y-114000000D02*
X155393198Y-114870100D01*
X143727208Y-109100000D02*
X133023403Y-109100000D01*
X152338298Y-117925000D02*
X149911702Y-117925000D01*
X155393198Y-114870100D02*
X152338298Y-117925000D01*
%TO.N,7A*%
X167918198Y-115100000D02*
X166443198Y-116575000D01*
X145181802Y-112463782D02*
X144709010Y-111990990D01*
X148438757Y-118361243D02*
X145181802Y-115104288D01*
X134975306Y-110450000D02*
X133712653Y-111712653D01*
X144709010Y-111990990D02*
X143168020Y-110450000D01*
X166200000Y-117200000D02*
X164125000Y-119275000D01*
X159151902Y-119275000D02*
X149352514Y-119275000D01*
X166443198Y-116575000D02*
X166443198Y-117200000D01*
X145181802Y-115104288D02*
X145181802Y-113900000D01*
X166443198Y-117200000D02*
X166200000Y-117200000D01*
X164125000Y-119275000D02*
X159151902Y-119275000D01*
X149352514Y-119275000D02*
X148438757Y-118361243D01*
X145181802Y-113900000D02*
X145181802Y-112463782D01*
X141000000Y-110450000D02*
X134975306Y-110450000D01*
X143168020Y-110450000D02*
X141000000Y-110450000D01*
%TO.N,7C*%
X134400000Y-110000000D02*
X132399991Y-112000009D01*
X145631802Y-114545100D02*
X145631802Y-112277386D01*
X149538910Y-118825000D02*
X149275306Y-118561396D01*
X145631802Y-114917892D02*
X145631802Y-114545100D01*
X149275306Y-118561396D02*
X145631802Y-114917892D01*
X159338298Y-118825000D02*
X156800000Y-118825000D01*
X132399991Y-112000009D02*
X126000000Y-112000009D01*
X143354416Y-110000000D02*
X140800000Y-110000000D01*
X162893198Y-115270100D02*
X159338298Y-118825000D01*
X156800000Y-118825000D02*
X149538910Y-118825000D01*
X135300000Y-110000000D02*
X134400000Y-110000000D01*
X144677208Y-111322792D02*
X143354416Y-110000000D01*
X145631802Y-112277386D02*
X144677208Y-111322792D01*
X162893198Y-114000000D02*
X162893198Y-115270100D01*
X140800000Y-110000000D02*
X135300000Y-110000000D01*
%TO.N,GND*%
X164493198Y-113275000D02*
X164968198Y-113750000D01*
X153718198Y-106250000D02*
X153143198Y-105675000D01*
X153718198Y-107600000D02*
X155643198Y-105675000D01*
X164968198Y-100100000D02*
X164968198Y-98250000D01*
X165543198Y-106525000D02*
X165543198Y-113175000D01*
X157468198Y-115100000D02*
X157468198Y-113300000D01*
X165543198Y-113175000D02*
X164968198Y-113750000D01*
X164693198Y-105675000D02*
X165543198Y-106525000D01*
X155643198Y-105675000D02*
X161293198Y-105675000D01*
X151793198Y-113275000D02*
X157493198Y-113275000D01*
X164893198Y-98175000D02*
X168238298Y-98175000D01*
X161218198Y-107600000D02*
X161218198Y-105750000D01*
X151893198Y-98175000D02*
X157493198Y-98175000D01*
X157493198Y-113275000D02*
X164493198Y-113275000D01*
X157468198Y-100100000D02*
X157468198Y-98200000D01*
X164693198Y-105600000D02*
X164693198Y-105675000D01*
X145000000Y-105950000D02*
X135175000Y-105950000D01*
D18*
X145000000Y-105000000D02*
X145000000Y-105950000D01*
D17*
X164968198Y-113750000D02*
X164968198Y-115100000D01*
X149968198Y-100100000D02*
X151893198Y-98175000D01*
X157468198Y-98200000D02*
X157493198Y-98175000D01*
X168818198Y-98754900D02*
X168818198Y-101475000D01*
X157493198Y-98175000D02*
X164893198Y-98175000D01*
X151175000Y-105675000D02*
X150900000Y-105950000D01*
X164968198Y-98250000D02*
X164893198Y-98175000D01*
X157468198Y-113300000D02*
X157493198Y-113275000D01*
X168238298Y-98175000D02*
X168818198Y-98754900D01*
X153718198Y-107600000D02*
X153718198Y-106250000D01*
X149968198Y-115100000D02*
X151793198Y-113275000D01*
X161293198Y-105675000D02*
X164693198Y-105675000D01*
X150900000Y-105950000D02*
X145000000Y-105950000D01*
X153143198Y-105675000D02*
X151175000Y-105675000D01*
X135175000Y-105950000D02*
X134900000Y-105675000D01*
X168818198Y-101475000D02*
X164693198Y-105600000D01*
X161218198Y-105750000D02*
X161293198Y-105675000D01*
%TD*%
%TA.AperFunction,NonConductor*%
G36*
X154435737Y-98820185D02*
G01*
X154481492Y-98872989D01*
X154492698Y-98924500D01*
X154492698Y-99088695D01*
X154527301Y-99262658D01*
X154527304Y-99262667D01*
X154595181Y-99426540D01*
X154595188Y-99426552D01*
X154681632Y-99555923D01*
X154702510Y-99622600D01*
X154684026Y-99689980D01*
X154666211Y-99712495D01*
X154205378Y-100173328D01*
X154144055Y-100206813D01*
X154074363Y-100201829D01*
X154018430Y-100159957D01*
X153994013Y-100094493D01*
X153993697Y-100085647D01*
X153993697Y-98949998D01*
X153993697Y-98949992D01*
X153992380Y-98937102D01*
X154005148Y-98868411D01*
X154053028Y-98817526D01*
X154115738Y-98800500D01*
X154368698Y-98800500D01*
X154435737Y-98820185D01*
G37*
%TD.AperFunction*%
%TA.AperFunction,NonConductor*%
G36*
X161977383Y-98803050D02*
G01*
X161986345Y-98801762D01*
X162010385Y-98812740D01*
X162035737Y-98820185D01*
X162041664Y-98827025D01*
X162049901Y-98830787D01*
X162064190Y-98853021D01*
X162081492Y-98872989D01*
X162083779Y-98883503D01*
X162087675Y-98889565D01*
X162092698Y-98924500D01*
X162092698Y-98988695D01*
X162127301Y-99162658D01*
X162127304Y-99162667D01*
X162195181Y-99326540D01*
X162195188Y-99326552D01*
X162281632Y-99455923D01*
X162302510Y-99522600D01*
X162284026Y-99589980D01*
X162266211Y-99612495D01*
X161705378Y-100173329D01*
X161644055Y-100206814D01*
X161574364Y-100201830D01*
X161518430Y-100159959D01*
X161494013Y-100094494D01*
X161493697Y-100085648D01*
X161493697Y-98949998D01*
X161493697Y-98949992D01*
X161492380Y-98937102D01*
X161505148Y-98868411D01*
X161553028Y-98817526D01*
X161615738Y-98800500D01*
X161968698Y-98800500D01*
X161977383Y-98803050D01*
G37*
%TD.AperFunction*%
%TA.AperFunction,NonConductor*%
G36*
X148812032Y-99457180D02*
G01*
X148867965Y-99499052D01*
X148892382Y-99564516D01*
X148892698Y-99573362D01*
X148892698Y-100085648D01*
X148873013Y-100152687D01*
X148820209Y-100198442D01*
X148751051Y-100208386D01*
X148687495Y-100179361D01*
X148681017Y-100173329D01*
X148398275Y-99890587D01*
X148364790Y-99829264D01*
X148369774Y-99759572D01*
X148411646Y-99703639D01*
X148417065Y-99699804D01*
X148483944Y-99655116D01*
X148567233Y-99599464D01*
X148621512Y-99545185D01*
X148681017Y-99485681D01*
X148742340Y-99452196D01*
X148812032Y-99457180D01*
G37*
%TD.AperFunction*%
%TA.AperFunction,NonConductor*%
G36*
X166787696Y-98820185D02*
G01*
X166833451Y-98872989D01*
X166844014Y-98937103D01*
X166842698Y-98949988D01*
X166842698Y-98949991D01*
X166842698Y-100239547D01*
X166823013Y-100306586D01*
X166806379Y-100327228D01*
X166255378Y-100878229D01*
X166194055Y-100911714D01*
X166124363Y-100906730D01*
X166068430Y-100864858D01*
X166044013Y-100799394D01*
X166043697Y-100790548D01*
X166043697Y-98949998D01*
X166043697Y-98949992D01*
X166042380Y-98937102D01*
X166055148Y-98868411D01*
X166103028Y-98817526D01*
X166165738Y-98800500D01*
X166720657Y-98800500D01*
X166787696Y-98820185D01*
G37*
%TD.AperFunction*%
%TA.AperFunction,NonConductor*%
G36*
X159235368Y-98804819D02*
G01*
X159250690Y-98804192D01*
X159268211Y-98814463D01*
X159287696Y-98820185D01*
X159297736Y-98831772D01*
X159310966Y-98839528D01*
X159320152Y-98857642D01*
X159333451Y-98872989D01*
X159336104Y-98889094D01*
X159342569Y-98901841D01*
X159344014Y-98937100D01*
X159342698Y-98949988D01*
X159342698Y-98949991D01*
X159342698Y-100239547D01*
X159323013Y-100306586D01*
X159306379Y-100327228D01*
X158755378Y-100878229D01*
X158694055Y-100911714D01*
X158624363Y-100906730D01*
X158568430Y-100864858D01*
X158544013Y-100799394D01*
X158543697Y-100790548D01*
X158543697Y-98949998D01*
X158543697Y-98949992D01*
X158542380Y-98937102D01*
X158555148Y-98868411D01*
X158603028Y-98817526D01*
X158665738Y-98800500D01*
X159220657Y-98800500D01*
X159235368Y-98804819D01*
G37*
%TD.AperFunction*%
%TA.AperFunction,NonConductor*%
G36*
X151762032Y-99293269D02*
G01*
X151817965Y-99335141D01*
X151842382Y-99400605D01*
X151842698Y-99409451D01*
X151842698Y-100239547D01*
X151823013Y-100306586D01*
X151806379Y-100327228D01*
X151255378Y-100878229D01*
X151194055Y-100911714D01*
X151124363Y-100906730D01*
X151068430Y-100864858D01*
X151044013Y-100799394D01*
X151043697Y-100790548D01*
X151043697Y-99960452D01*
X151063382Y-99893413D01*
X151080016Y-99872771D01*
X151631017Y-99321770D01*
X151692340Y-99288285D01*
X151762032Y-99293269D01*
G37*
%TD.AperFunction*%
%TA.AperFunction,NonConductor*%
G36*
X156292081Y-99413067D02*
G01*
X156296007Y-99412818D01*
X156323343Y-99428024D01*
X156351560Y-99441524D01*
X156353626Y-99444869D01*
X156357066Y-99446783D01*
X156371843Y-99474359D01*
X156388280Y-99500967D01*
X156389011Y-99506395D01*
X156390068Y-99508368D01*
X156389774Y-99512064D01*
X156392698Y-99533773D01*
X156392698Y-101250001D01*
X156392699Y-101250018D01*
X156403198Y-101352796D01*
X156403199Y-101352799D01*
X156458383Y-101519331D01*
X156458385Y-101519336D01*
X156469040Y-101536611D01*
X156550486Y-101668656D01*
X156674542Y-101792712D01*
X156823864Y-101884814D01*
X156990401Y-101939999D01*
X157093189Y-101950500D01*
X157843206Y-101950499D01*
X157912524Y-101943418D01*
X157931520Y-101946949D01*
X157950787Y-101945460D01*
X157965164Y-101953203D01*
X157981217Y-101956188D01*
X157995288Y-101969428D01*
X158012302Y-101978592D01*
X158020209Y-101992877D01*
X158032102Y-102004068D01*
X158036781Y-102022816D01*
X158046139Y-102039722D01*
X158046394Y-102061329D01*
X158049022Y-102071858D01*
X158048859Y-102074911D01*
X158048326Y-102083013D01*
X158042698Y-102111309D01*
X158042698Y-102168621D01*
X158042431Y-102172683D01*
X158031752Y-102201822D01*
X158023013Y-102231587D01*
X158019038Y-102236519D01*
X158018391Y-102238286D01*
X158016397Y-102239795D01*
X158006379Y-102252229D01*
X157445427Y-102813181D01*
X157384104Y-102846666D01*
X157357746Y-102849500D01*
X153597750Y-102849500D01*
X153530711Y-102829815D01*
X153484956Y-102777011D01*
X153475012Y-102707853D01*
X153504037Y-102644297D01*
X153510069Y-102637819D01*
X154611278Y-101536611D01*
X155879055Y-100268834D01*
X155947509Y-100166386D01*
X155959237Y-100138072D01*
X155975613Y-100098538D01*
X155988931Y-100066385D01*
X155994661Y-100052552D01*
X156005610Y-99997508D01*
X156009987Y-99975503D01*
X156009987Y-99975500D01*
X156018698Y-99931707D01*
X156018698Y-99808494D01*
X156018698Y-99699361D01*
X156025069Y-99677663D01*
X156026860Y-99655116D01*
X156035689Y-99641495D01*
X156038383Y-99632322D01*
X156044018Y-99624273D01*
X156049091Y-99617605D01*
X156092662Y-99574035D01*
X156167711Y-99461715D01*
X156170018Y-99458685D01*
X156195203Y-99440138D01*
X156219208Y-99420077D01*
X156223111Y-99419586D01*
X156226279Y-99417254D01*
X156257498Y-99415267D01*
X156288533Y-99411370D01*
X156292081Y-99413067D01*
G37*
%TD.AperFunction*%
%TA.AperFunction,NonConductor*%
G36*
X131457587Y-99545185D02*
G01*
X131503342Y-99597989D01*
X131513286Y-99667147D01*
X131484261Y-99730703D01*
X131478229Y-99737181D01*
X129552229Y-101663181D01*
X129490906Y-101696666D01*
X129464548Y-101699500D01*
X129411306Y-101699500D01*
X129237341Y-101734103D01*
X129237332Y-101734106D01*
X129073459Y-101801983D01*
X129073446Y-101801990D01*
X128925965Y-101900535D01*
X128925961Y-101900538D01*
X128800538Y-102025961D01*
X128800535Y-102025965D01*
X128701990Y-102173446D01*
X128701983Y-102173459D01*
X128634106Y-102337332D01*
X128634103Y-102337341D01*
X128599500Y-102511304D01*
X128599500Y-102511309D01*
X128599500Y-102688691D01*
X128599500Y-102688693D01*
X128599499Y-102688693D01*
X128626874Y-102826308D01*
X128620647Y-102895900D01*
X128577784Y-102951077D01*
X128511895Y-102974322D01*
X128505257Y-102974500D01*
X127194743Y-102974500D01*
X127177946Y-102969568D01*
X127160439Y-102969661D01*
X127145116Y-102959927D01*
X127127704Y-102954815D01*
X127116240Y-102941585D01*
X127101462Y-102932198D01*
X127093834Y-102915727D01*
X127081949Y-102902011D01*
X127079388Y-102884536D01*
X127072100Y-102868797D01*
X127072805Y-102839594D01*
X127071913Y-102833504D01*
X127072411Y-102829898D01*
X127100500Y-102688691D01*
X127100500Y-102626911D01*
X127101670Y-102618456D01*
X127112651Y-102594068D01*
X127120185Y-102568413D01*
X127129294Y-102557108D01*
X127130358Y-102554747D01*
X127132121Y-102553600D01*
X127136819Y-102547771D01*
X130122771Y-99561819D01*
X130184094Y-99528334D01*
X130210452Y-99525500D01*
X131390548Y-99525500D01*
X131457587Y-99545185D01*
G37*
%TD.AperFunction*%
%TA.AperFunction,NonConductor*%
G36*
X163812032Y-99457179D02*
G01*
X163867965Y-99499051D01*
X163892382Y-99564515D01*
X163892698Y-99573361D01*
X163892698Y-101250001D01*
X163892699Y-101250018D01*
X163903198Y-101352796D01*
X163903199Y-101352799D01*
X163958383Y-101519331D01*
X163958385Y-101519336D01*
X163969040Y-101536611D01*
X164050486Y-101668656D01*
X164174542Y-101792712D01*
X164323864Y-101884814D01*
X164490401Y-101939999D01*
X164593189Y-101950500D01*
X165343206Y-101950499D01*
X165343214Y-101950498D01*
X165343217Y-101950498D01*
X165345358Y-101950279D01*
X165354763Y-101949318D01*
X165423455Y-101962083D01*
X165474343Y-102009961D01*
X165491267Y-102077750D01*
X165468855Y-102143927D01*
X165455052Y-102160356D01*
X163902229Y-103713181D01*
X163840906Y-103746666D01*
X163814548Y-103749500D01*
X160197750Y-103749500D01*
X160130711Y-103729815D01*
X160084956Y-103677011D01*
X160075012Y-103607853D01*
X160104037Y-103544297D01*
X160110069Y-103537819D01*
X160870877Y-102777011D01*
X163391927Y-100255960D01*
X163391931Y-100255958D01*
X163479056Y-100168833D01*
X163534960Y-100085167D01*
X163547510Y-100066385D01*
X163582276Y-99982451D01*
X163594661Y-99952552D01*
X163618698Y-99831706D01*
X163618698Y-99599361D01*
X163627342Y-99569920D01*
X163633866Y-99539934D01*
X163637620Y-99534918D01*
X163638383Y-99532322D01*
X163655017Y-99511680D01*
X163681017Y-99485680D01*
X163742340Y-99452195D01*
X163812032Y-99457179D01*
G37*
%TD.AperFunction*%
%TA.AperFunction,NonConductor*%
G36*
X145240597Y-101795185D02*
G01*
X145261238Y-101811818D01*
X146093716Y-102644297D01*
X146925336Y-103475917D01*
X146925341Y-103475921D01*
X148223151Y-104773732D01*
X148223152Y-104773733D01*
X148310277Y-104860858D01*
X148310278Y-104860859D01*
X148412717Y-104929307D01*
X148412723Y-104929310D01*
X148412724Y-104929311D01*
X148526558Y-104976463D01*
X148554021Y-104981925D01*
X148576822Y-104986461D01*
X148576838Y-104986464D01*
X148576858Y-104986468D01*
X148647401Y-105000499D01*
X148647402Y-105000500D01*
X150665546Y-105000500D01*
X150686791Y-105006738D01*
X150708879Y-105008318D01*
X150719662Y-105016390D01*
X150732585Y-105020185D01*
X150747083Y-105036916D01*
X150764813Y-105050189D01*
X150769520Y-105062811D01*
X150778340Y-105072989D01*
X150781491Y-105094904D01*
X150789230Y-105115653D01*
X150786367Y-105128814D01*
X150788284Y-105142147D01*
X150779085Y-105162288D01*
X150774379Y-105183926D01*
X150761107Y-105201654D01*
X150759259Y-105205703D01*
X150753229Y-105212180D01*
X150677226Y-105288182D01*
X150615906Y-105321666D01*
X150589547Y-105324500D01*
X145902730Y-105324500D01*
X145835691Y-105304815D01*
X145789936Y-105252011D01*
X145779992Y-105182853D01*
X145781113Y-105176308D01*
X145800500Y-105078844D01*
X145800500Y-104921155D01*
X145800499Y-104921153D01*
X145769737Y-104766503D01*
X145768401Y-104763277D01*
X145709397Y-104620827D01*
X145709390Y-104620814D01*
X145621789Y-104489711D01*
X145621786Y-104489707D01*
X145510292Y-104378213D01*
X145510288Y-104378210D01*
X145379185Y-104290609D01*
X145379172Y-104290602D01*
X145233501Y-104230264D01*
X145233489Y-104230261D01*
X145078845Y-104199500D01*
X145078842Y-104199500D01*
X144921158Y-104199500D01*
X144921155Y-104199500D01*
X144766510Y-104230261D01*
X144766498Y-104230264D01*
X144620827Y-104290602D01*
X144620814Y-104290609D01*
X144489711Y-104378210D01*
X144489707Y-104378213D01*
X144378213Y-104489707D01*
X144378210Y-104489711D01*
X144290609Y-104620814D01*
X144290602Y-104620827D01*
X144230264Y-104766498D01*
X144230261Y-104766510D01*
X144199500Y-104921153D01*
X144199500Y-104921158D01*
X144199500Y-105078842D01*
X144199500Y-105078844D01*
X144199499Y-105078844D01*
X144218887Y-105176308D01*
X144212660Y-105245900D01*
X144169797Y-105301077D01*
X144103907Y-105324322D01*
X144097270Y-105324500D01*
X135812367Y-105324500D01*
X135745328Y-105304815D01*
X135701057Y-105253724D01*
X135700881Y-105253819D01*
X135700464Y-105253040D01*
X135699573Y-105252011D01*
X135698071Y-105248562D01*
X135698011Y-105248449D01*
X135599464Y-105100965D01*
X135599461Y-105100961D01*
X135474038Y-104975538D01*
X135474034Y-104975535D01*
X135326553Y-104876990D01*
X135326540Y-104876983D01*
X135162667Y-104809106D01*
X135162658Y-104809103D01*
X134988694Y-104774500D01*
X134988691Y-104774500D01*
X134811309Y-104774500D01*
X134811306Y-104774500D01*
X134637341Y-104809103D01*
X134637332Y-104809106D01*
X134473459Y-104876983D01*
X134473446Y-104876990D01*
X134325965Y-104975535D01*
X134325961Y-104975538D01*
X134200538Y-105100961D01*
X134200535Y-105100965D01*
X134101990Y-105248446D01*
X134101983Y-105248459D01*
X134034106Y-105412332D01*
X134034103Y-105412341D01*
X133999500Y-105586304D01*
X133999500Y-105650500D01*
X133979815Y-105717539D01*
X133927011Y-105763294D01*
X133875500Y-105774500D01*
X127210452Y-105774500D01*
X127181011Y-105765855D01*
X127151025Y-105759332D01*
X127146009Y-105755577D01*
X127143413Y-105754815D01*
X127122771Y-105738181D01*
X127036819Y-105652229D01*
X127003334Y-105590906D01*
X127000500Y-105564548D01*
X127000500Y-105511306D01*
X126973127Y-105373695D01*
X126979354Y-105304103D01*
X127022217Y-105248926D01*
X127088107Y-105225681D01*
X127094744Y-105225503D01*
X130637520Y-105225503D01*
X130697942Y-105213484D01*
X130758365Y-105201466D01*
X130791705Y-105187655D01*
X130872199Y-105154315D01*
X130912641Y-105127291D01*
X130979314Y-105106413D01*
X131046695Y-105124896D01*
X131069212Y-105142712D01*
X131126572Y-105200072D01*
X131126576Y-105200075D01*
X131274057Y-105298620D01*
X131274070Y-105298627D01*
X131376720Y-105341145D01*
X131437945Y-105366505D01*
X131437947Y-105366505D01*
X131437952Y-105366507D01*
X131611915Y-105401110D01*
X131611918Y-105401111D01*
X131611920Y-105401111D01*
X131789304Y-105401111D01*
X131789305Y-105401110D01*
X131847293Y-105389575D01*
X131963269Y-105366507D01*
X131963272Y-105366505D01*
X131963277Y-105366505D01*
X132103146Y-105308569D01*
X132127151Y-105298627D01*
X132127151Y-105298626D01*
X132127158Y-105298624D01*
X132274646Y-105200075D01*
X132400075Y-105074646D01*
X132498624Y-104927158D01*
X132501111Y-104921155D01*
X132519407Y-104876983D01*
X132566505Y-104763277D01*
X132569768Y-104746876D01*
X132601110Y-104589306D01*
X132601111Y-104589304D01*
X132601111Y-104536063D01*
X132620796Y-104469024D01*
X132637430Y-104448382D01*
X135273994Y-101811819D01*
X135335317Y-101778334D01*
X135361675Y-101775500D01*
X143538394Y-101775500D01*
X145173558Y-101775500D01*
X145240597Y-101795185D01*
G37*
%TD.AperFunction*%
%TA.AperFunction,NonConductor*%
G36*
X155200783Y-105020185D02*
G01*
X155246538Y-105072989D01*
X155256482Y-105142147D01*
X155227457Y-105205703D01*
X155221427Y-105212180D01*
X155157340Y-105276267D01*
X154590130Y-105843477D01*
X154528807Y-105876962D01*
X154459115Y-105871978D01*
X154437353Y-105861335D01*
X154362538Y-105815189D01*
X154362533Y-105815187D01*
X154362532Y-105815186D01*
X154362529Y-105815185D01*
X154195996Y-105760001D01*
X154195988Y-105760000D01*
X154147205Y-105755016D01*
X154082513Y-105728619D01*
X154072127Y-105719339D01*
X153633396Y-105280608D01*
X153629058Y-105276270D01*
X153629056Y-105276267D01*
X153564969Y-105212180D01*
X153532100Y-105151983D01*
X153531486Y-105150858D01*
X153531486Y-105150857D01*
X153531485Y-105150856D01*
X153534545Y-105108085D01*
X153536470Y-105081166D01*
X153578342Y-105025233D01*
X153578342Y-105025232D01*
X153578343Y-105025232D01*
X153608239Y-105014081D01*
X153643806Y-105000816D01*
X153652652Y-105000500D01*
X155133744Y-105000500D01*
X155200783Y-105020185D01*
G37*
%TD.AperFunction*%
%TA.AperFunction,NonConductor*%
G36*
X158177383Y-106303050D02*
G01*
X158186345Y-106301762D01*
X158210385Y-106312740D01*
X158235737Y-106320185D01*
X158241664Y-106327025D01*
X158249901Y-106330787D01*
X158264190Y-106353021D01*
X158281492Y-106372989D01*
X158283779Y-106383503D01*
X158287675Y-106389565D01*
X158292698Y-106424500D01*
X158292698Y-106488695D01*
X158327301Y-106662658D01*
X158327304Y-106662667D01*
X158395181Y-106826540D01*
X158395188Y-106826553D01*
X158493736Y-106974039D01*
X158494982Y-106975557D01*
X158495385Y-106976507D01*
X158497118Y-106979100D01*
X158496626Y-106979428D01*
X158522293Y-107039868D01*
X158510499Y-107108735D01*
X158486807Y-107141899D01*
X157955378Y-107673328D01*
X157894055Y-107706813D01*
X157824363Y-107701829D01*
X157768430Y-107659957D01*
X157744013Y-107594493D01*
X157743697Y-107585647D01*
X157743697Y-106449998D01*
X157743697Y-106449992D01*
X157742380Y-106437102D01*
X157755148Y-106368411D01*
X157803028Y-106317526D01*
X157865738Y-106300500D01*
X158168698Y-106300500D01*
X158177383Y-106303050D01*
G37*
%TD.AperFunction*%
%TA.AperFunction,NonConductor*%
G36*
X152601560Y-106916354D02*
G01*
X152638280Y-106975797D01*
X152642698Y-107008603D01*
X152642698Y-107585647D01*
X152623013Y-107652686D01*
X152570209Y-107698441D01*
X152501051Y-107708385D01*
X152437495Y-107679360D01*
X152431017Y-107673328D01*
X152128248Y-107370559D01*
X152094763Y-107309236D01*
X152099747Y-107239544D01*
X152141619Y-107183611D01*
X152147038Y-107179776D01*
X152163652Y-107168675D01*
X152267233Y-107099464D01*
X152392662Y-106974035D01*
X152414646Y-106941134D01*
X152415596Y-106939713D01*
X152469208Y-106894907D01*
X152538533Y-106886200D01*
X152601560Y-106916354D01*
G37*
%TD.AperFunction*%
%TA.AperFunction,NonConductor*%
G36*
X162985368Y-106304819D02*
G01*
X163000690Y-106304192D01*
X163018211Y-106314463D01*
X163037696Y-106320185D01*
X163047736Y-106331772D01*
X163060966Y-106339528D01*
X163070152Y-106357642D01*
X163083451Y-106372989D01*
X163086104Y-106389094D01*
X163092569Y-106401841D01*
X163094014Y-106437100D01*
X163093147Y-106445597D01*
X163092698Y-106449991D01*
X163092698Y-107739546D01*
X163073013Y-107806585D01*
X163056379Y-107827227D01*
X162505378Y-108378228D01*
X162444055Y-108411713D01*
X162374363Y-108406729D01*
X162318430Y-108364857D01*
X162294013Y-108299393D01*
X162293697Y-108290547D01*
X162293697Y-106449998D01*
X162293697Y-106449992D01*
X162292380Y-106437102D01*
X162305148Y-106368411D01*
X162353028Y-106317526D01*
X162415738Y-106300500D01*
X162970657Y-106300500D01*
X162985368Y-106304819D01*
G37*
%TD.AperFunction*%
%TA.AperFunction,NonConductor*%
G36*
X155512032Y-106793269D02*
G01*
X155567965Y-106835141D01*
X155592382Y-106900605D01*
X155592698Y-106909451D01*
X155592698Y-107739547D01*
X155573013Y-107806586D01*
X155556379Y-107827228D01*
X155005378Y-108378229D01*
X154944055Y-108411714D01*
X154874363Y-108406730D01*
X154818430Y-108364858D01*
X154794013Y-108299394D01*
X154793697Y-108290548D01*
X154793697Y-107460452D01*
X154813382Y-107393413D01*
X154830016Y-107372771D01*
X155381017Y-106821770D01*
X155442340Y-106788285D01*
X155512032Y-106793269D01*
G37*
%TD.AperFunction*%
%TA.AperFunction,NonConductor*%
G36*
X129024021Y-108495185D02*
G01*
X129069776Y-108547989D01*
X129079720Y-108617147D01*
X129071543Y-108646952D01*
X129034106Y-108737332D01*
X129034103Y-108737341D01*
X128999500Y-108911304D01*
X128999500Y-109088695D01*
X129026874Y-109226312D01*
X129020647Y-109295903D01*
X128977784Y-109351081D01*
X128911894Y-109374325D01*
X128905257Y-109374503D01*
X126994743Y-109374503D01*
X126927704Y-109354818D01*
X126881949Y-109302014D01*
X126872005Y-109232856D01*
X126873126Y-109226312D01*
X126900499Y-109088695D01*
X126900500Y-109088693D01*
X126900500Y-108935451D01*
X126920185Y-108868412D01*
X126936814Y-108847774D01*
X127272772Y-108511818D01*
X127334095Y-108478334D01*
X127360453Y-108475500D01*
X128956982Y-108475500D01*
X129024021Y-108495185D01*
G37*
%TD.AperFunction*%
%TA.AperFunction,NonConductor*%
G36*
X160101560Y-106916354D02*
G01*
X160138280Y-106975797D01*
X160142698Y-107008603D01*
X160142698Y-108750001D01*
X160142699Y-108750018D01*
X160153198Y-108852796D01*
X160153199Y-108852799D01*
X160208383Y-109019331D01*
X160208385Y-109019336D01*
X160228533Y-109052001D01*
X160300486Y-109168656D01*
X160424542Y-109292712D01*
X160573864Y-109384814D01*
X160740401Y-109439999D01*
X160843189Y-109450500D01*
X161593206Y-109450499D01*
X161593214Y-109450498D01*
X161593217Y-109450498D01*
X161604527Y-109449342D01*
X161695995Y-109439999D01*
X161696003Y-109439996D01*
X161700456Y-109439044D01*
X161726761Y-109441012D01*
X161753074Y-109439196D01*
X161761051Y-109443577D01*
X161770131Y-109444257D01*
X161791196Y-109460135D01*
X161814314Y-109472833D01*
X161818657Y-109480833D01*
X161825926Y-109486313D01*
X161835063Y-109511058D01*
X161847646Y-109534239D01*
X161847731Y-109545367D01*
X161850128Y-109551857D01*
X161850077Y-109569450D01*
X161849515Y-109577035D01*
X161842698Y-109611309D01*
X161842698Y-109669135D01*
X161842360Y-109673702D01*
X161831614Y-109702293D01*
X161823013Y-109731587D01*
X161818501Y-109737185D01*
X161817780Y-109739105D01*
X161815716Y-109740641D01*
X161806379Y-109752229D01*
X161270427Y-110288181D01*
X161209104Y-110321666D01*
X161182746Y-110324500D01*
X157372750Y-110324500D01*
X157305711Y-110304815D01*
X157259956Y-110252011D01*
X157250012Y-110182853D01*
X157279037Y-110119297D01*
X157285069Y-110112819D01*
X158378553Y-109019336D01*
X159679056Y-107718833D01*
X159747510Y-107616385D01*
X159794661Y-107502551D01*
X159795460Y-107498537D01*
X159805280Y-107449165D01*
X159818699Y-107381706D01*
X159818699Y-107258493D01*
X159818698Y-107258487D01*
X159818698Y-107099361D01*
X159838383Y-107032322D01*
X159855018Y-107011679D01*
X159892659Y-106974038D01*
X159892662Y-106974035D01*
X159914646Y-106941134D01*
X159915596Y-106939713D01*
X159969208Y-106894907D01*
X160038533Y-106886200D01*
X160101560Y-106916354D01*
G37*
%TD.AperFunction*%
%TA.AperFunction,NonConductor*%
G36*
X154435737Y-113920185D02*
G01*
X154481492Y-113972989D01*
X154492698Y-114024500D01*
X154492698Y-114088695D01*
X154527301Y-114262658D01*
X154527304Y-114262667D01*
X154595181Y-114426540D01*
X154595188Y-114426552D01*
X154622943Y-114468090D01*
X154681004Y-114554984D01*
X154681632Y-114555923D01*
X154702510Y-114622600D01*
X154684026Y-114689980D01*
X154666211Y-114712495D01*
X154205378Y-115173329D01*
X154144055Y-115206814D01*
X154074364Y-115201830D01*
X154018430Y-115159959D01*
X153994013Y-115094494D01*
X153993697Y-115085648D01*
X153993697Y-114024500D01*
X154013382Y-113957461D01*
X154066186Y-113911706D01*
X154117697Y-113900500D01*
X154368698Y-113900500D01*
X154435737Y-113920185D01*
G37*
%TD.AperFunction*%
%TA.AperFunction,NonConductor*%
G36*
X150106893Y-108395185D02*
G01*
X150127535Y-108411819D01*
X152800845Y-111085129D01*
X153064447Y-111348732D01*
X153064448Y-111348733D01*
X153141676Y-111425961D01*
X153151574Y-111435859D01*
X153254013Y-111504307D01*
X153254019Y-111504310D01*
X153254020Y-111504311D01*
X153367854Y-111551463D01*
X153377632Y-111553407D01*
X153382181Y-111554313D01*
X153382194Y-111554315D01*
X153382208Y-111554318D01*
X153488697Y-111575499D01*
X153488698Y-111575500D01*
X153488699Y-111575500D01*
X161554806Y-111575500D01*
X161554806Y-111575499D01*
X161661296Y-111554318D01*
X161675650Y-111551463D01*
X161711341Y-111536679D01*
X161789484Y-111504312D01*
X161840707Y-111470084D01*
X161891931Y-111435858D01*
X161979056Y-111348733D01*
X161979057Y-111348731D01*
X161986123Y-111341665D01*
X161986125Y-111341661D01*
X162690969Y-110636819D01*
X162752292Y-110603334D01*
X162778650Y-110600500D01*
X162831891Y-110600500D01*
X162831892Y-110600499D01*
X162889880Y-110588964D01*
X163005856Y-110565896D01*
X163005859Y-110565894D01*
X163005864Y-110565894D01*
X163169745Y-110498013D01*
X163317233Y-110399464D01*
X163442662Y-110274035D01*
X163541211Y-110126547D01*
X163609092Y-109962666D01*
X163643698Y-109788691D01*
X163643698Y-109611309D01*
X163640689Y-109596182D01*
X163646915Y-109526593D01*
X163689777Y-109471414D01*
X163755666Y-109448168D01*
X163774901Y-109448631D01*
X163793189Y-109450500D01*
X164543206Y-109450499D01*
X164543214Y-109450498D01*
X164543217Y-109450498D01*
X164636078Y-109441012D01*
X164645995Y-109439999D01*
X164754696Y-109403978D01*
X164824522Y-109401577D01*
X164884564Y-109437308D01*
X164915757Y-109499828D01*
X164917698Y-109521685D01*
X164917698Y-112588217D01*
X164898013Y-112655256D01*
X164845209Y-112701011D01*
X164776051Y-112710955D01*
X164746249Y-112702779D01*
X164681883Y-112676119D01*
X164675650Y-112673537D01*
X164615227Y-112661518D01*
X164612807Y-112661036D01*
X164612796Y-112661034D01*
X164554808Y-112649500D01*
X164554805Y-112649500D01*
X164554804Y-112649500D01*
X157554804Y-112649500D01*
X151854805Y-112649500D01*
X151731591Y-112649500D01*
X151731587Y-112649500D01*
X151680727Y-112659616D01*
X151680721Y-112659617D01*
X151671169Y-112661518D01*
X151610746Y-112673537D01*
X151604513Y-112676119D01*
X151496913Y-112720688D01*
X151496912Y-112720689D01*
X151474608Y-112735591D01*
X151474605Y-112735593D01*
X151394466Y-112789140D01*
X151368698Y-112814909D01*
X151307340Y-112876267D01*
X150840130Y-113343477D01*
X150778807Y-113376962D01*
X150709115Y-113371978D01*
X150687353Y-113361335D01*
X150612538Y-113315189D01*
X150612533Y-113315187D01*
X150612532Y-113315186D01*
X150445995Y-113260001D01*
X150445993Y-113260000D01*
X150343208Y-113249500D01*
X149593196Y-113249500D01*
X149593178Y-113249501D01*
X149490401Y-113260000D01*
X149490398Y-113260001D01*
X149323866Y-113315185D01*
X149323861Y-113315187D01*
X149174540Y-113407289D01*
X149050487Y-113531342D01*
X148958385Y-113680663D01*
X148958384Y-113680666D01*
X148903199Y-113847203D01*
X148903199Y-113847204D01*
X148903198Y-113847204D01*
X148892698Y-113949983D01*
X148892698Y-115085647D01*
X148873013Y-115152686D01*
X148820209Y-115198441D01*
X148751051Y-115208385D01*
X148687495Y-115179360D01*
X148681017Y-115173328D01*
X147643621Y-114135932D01*
X147610136Y-114074609D01*
X147607302Y-114048251D01*
X147607302Y-113011015D01*
X147626987Y-112943976D01*
X147679791Y-112898221D01*
X147748949Y-112888277D01*
X147755494Y-112889398D01*
X147811306Y-112900500D01*
X147811309Y-112900500D01*
X147988693Y-112900500D01*
X147988694Y-112900499D01*
X148050140Y-112888277D01*
X148162658Y-112865896D01*
X148162661Y-112865894D01*
X148162666Y-112865894D01*
X148326518Y-112798025D01*
X148326540Y-112798016D01*
X148326540Y-112798015D01*
X148326547Y-112798013D01*
X148474035Y-112699464D01*
X148599464Y-112574035D01*
X148698013Y-112426547D01*
X148765894Y-112262666D01*
X148800500Y-112088691D01*
X148800500Y-111911309D01*
X148800500Y-111911306D01*
X148800499Y-111911304D01*
X148765896Y-111737341D01*
X148765893Y-111737332D01*
X148698016Y-111573459D01*
X148698009Y-111573446D01*
X148599464Y-111425965D01*
X148599461Y-111425961D01*
X148474038Y-111300538D01*
X148474034Y-111300535D01*
X148326553Y-111201990D01*
X148326540Y-111201983D01*
X148162667Y-111134106D01*
X148162658Y-111134103D01*
X147988694Y-111099500D01*
X147988691Y-111099500D01*
X147935453Y-111099500D01*
X147868414Y-111079815D01*
X147847772Y-111063181D01*
X146646013Y-109861422D01*
X145371770Y-108587180D01*
X145338286Y-108525858D01*
X145343270Y-108456166D01*
X145385142Y-108400233D01*
X145450606Y-108375816D01*
X145459452Y-108375500D01*
X146038394Y-108375500D01*
X150039854Y-108375500D01*
X150106893Y-108395185D01*
G37*
%TD.AperFunction*%
%TA.AperFunction,NonConductor*%
G36*
X161877383Y-113903050D02*
G01*
X161886345Y-113901762D01*
X161910385Y-113912740D01*
X161935737Y-113920185D01*
X161941664Y-113927025D01*
X161949901Y-113930787D01*
X161964190Y-113953021D01*
X161981492Y-113972989D01*
X161983779Y-113983503D01*
X161987675Y-113989565D01*
X161992698Y-114024500D01*
X161992698Y-114088695D01*
X162027301Y-114262658D01*
X162027304Y-114262667D01*
X162095181Y-114426540D01*
X162095188Y-114426553D01*
X162193733Y-114574034D01*
X162193736Y-114574038D01*
X162231378Y-114611679D01*
X162264864Y-114673001D01*
X162267698Y-114699361D01*
X162267698Y-114959647D01*
X162248013Y-115026686D01*
X162231379Y-115047328D01*
X161705378Y-115573329D01*
X161644055Y-115606814D01*
X161574363Y-115601830D01*
X161518430Y-115559958D01*
X161494013Y-115494494D01*
X161493697Y-115485648D01*
X161493697Y-114024500D01*
X161513382Y-113957461D01*
X161566186Y-113911706D01*
X161617697Y-113900500D01*
X161868698Y-113900500D01*
X161877383Y-113903050D01*
G37*
%TD.AperFunction*%
%TA.AperFunction,NonConductor*%
G36*
X159285737Y-113920185D02*
G01*
X159331492Y-113972989D01*
X159342698Y-114024500D01*
X159342698Y-115239547D01*
X159323013Y-115306586D01*
X159306379Y-115327228D01*
X158755378Y-115878229D01*
X158694055Y-115911714D01*
X158624363Y-115906730D01*
X158568430Y-115864858D01*
X158544013Y-115799394D01*
X158543697Y-115790548D01*
X158543697Y-114024500D01*
X158563382Y-113957461D01*
X158616186Y-113911706D01*
X158667697Y-113900500D01*
X159218698Y-113900500D01*
X159285737Y-113920185D01*
G37*
%TD.AperFunction*%
%TA.AperFunction,NonConductor*%
G36*
X151762032Y-114293269D02*
G01*
X151817965Y-114335141D01*
X151842382Y-114400605D01*
X151842698Y-114409451D01*
X151842698Y-115239547D01*
X151823013Y-115306586D01*
X151806379Y-115327228D01*
X151255378Y-115878229D01*
X151194055Y-115911714D01*
X151124363Y-115906730D01*
X151068430Y-115864858D01*
X151044013Y-115799394D01*
X151043697Y-115790548D01*
X151043697Y-114960452D01*
X151063382Y-114893413D01*
X151080016Y-114872771D01*
X151631017Y-114321770D01*
X151692340Y-114288285D01*
X151762032Y-114293269D01*
G37*
%TD.AperFunction*%
%TA.AperFunction,NonConductor*%
G36*
X156292081Y-114413067D02*
G01*
X156296007Y-114412818D01*
X156323343Y-114428024D01*
X156351560Y-114441524D01*
X156353626Y-114444869D01*
X156357066Y-114446783D01*
X156371843Y-114474359D01*
X156388280Y-114500967D01*
X156389011Y-114506395D01*
X156390068Y-114508368D01*
X156389774Y-114512064D01*
X156392698Y-114533773D01*
X156392698Y-116250001D01*
X156392699Y-116250018D01*
X156403198Y-116352796D01*
X156403199Y-116352799D01*
X156458383Y-116519331D01*
X156458384Y-116519334D01*
X156550486Y-116668656D01*
X156674542Y-116792712D01*
X156823864Y-116884814D01*
X156990401Y-116939999D01*
X157093189Y-116950500D01*
X157843206Y-116950499D01*
X157912524Y-116943418D01*
X157931520Y-116946949D01*
X157950787Y-116945460D01*
X157965164Y-116953203D01*
X157981217Y-116956188D01*
X157995288Y-116969428D01*
X158012302Y-116978592D01*
X158020209Y-116992877D01*
X158032102Y-117004068D01*
X158036781Y-117022816D01*
X158046139Y-117039722D01*
X158046394Y-117061329D01*
X158049022Y-117071858D01*
X158048859Y-117074911D01*
X158048326Y-117083013D01*
X158042698Y-117111309D01*
X158042698Y-117168621D01*
X158042431Y-117172683D01*
X158031752Y-117201822D01*
X158023013Y-117231587D01*
X158019038Y-117236519D01*
X158018391Y-117238286D01*
X158016397Y-117239795D01*
X158006379Y-117252229D01*
X157545427Y-117713181D01*
X157484104Y-117746666D01*
X157457746Y-117749500D01*
X153697750Y-117749500D01*
X153630711Y-117729815D01*
X153584956Y-117677011D01*
X153575012Y-117607853D01*
X153604037Y-117544297D01*
X153610069Y-117537819D01*
X153957690Y-117190198D01*
X155791927Y-115355960D01*
X155791931Y-115355958D01*
X155879056Y-115268833D01*
X155919374Y-115208493D01*
X155947510Y-115166386D01*
X155994661Y-115052551D01*
X155997074Y-115040423D01*
X156009192Y-114979498D01*
X156018698Y-114931707D01*
X156018698Y-114808493D01*
X156018698Y-114699361D01*
X156025069Y-114677663D01*
X156026860Y-114655116D01*
X156035689Y-114641495D01*
X156038383Y-114632322D01*
X156044018Y-114624273D01*
X156049091Y-114617605D01*
X156092662Y-114574035D01*
X156167711Y-114461715D01*
X156170018Y-114458685D01*
X156195203Y-114440138D01*
X156219208Y-114420077D01*
X156223111Y-114419586D01*
X156226279Y-114417254D01*
X156257498Y-114415267D01*
X156288533Y-114411370D01*
X156292081Y-114413067D01*
G37*
%TD.AperFunction*%
%TA.AperFunction,NonConductor*%
G36*
X163792081Y-114413067D02*
G01*
X163796007Y-114412818D01*
X163823343Y-114428024D01*
X163851560Y-114441524D01*
X163853626Y-114444869D01*
X163857066Y-114446783D01*
X163871843Y-114474359D01*
X163888280Y-114500967D01*
X163889011Y-114506395D01*
X163890068Y-114508368D01*
X163889774Y-114512064D01*
X163892698Y-114533773D01*
X163892698Y-116250001D01*
X163892699Y-116250018D01*
X163903198Y-116352796D01*
X163903199Y-116352799D01*
X163958383Y-116519331D01*
X163958384Y-116519334D01*
X164050486Y-116668656D01*
X164174542Y-116792712D01*
X164323864Y-116884814D01*
X164490401Y-116939999D01*
X164593189Y-116950500D01*
X165265548Y-116950499D01*
X165332587Y-116970183D01*
X165378342Y-117022987D01*
X165388286Y-117092146D01*
X165359261Y-117155702D01*
X165353229Y-117162180D01*
X163902229Y-118613181D01*
X163840906Y-118646666D01*
X163814548Y-118649500D01*
X160697750Y-118649500D01*
X160630711Y-118629815D01*
X160584956Y-118577011D01*
X160575012Y-118507853D01*
X160604037Y-118444297D01*
X160610069Y-118437819D01*
X161277388Y-117770500D01*
X163291927Y-115755960D01*
X163291931Y-115755958D01*
X163379056Y-115668833D01*
X163447509Y-115566386D01*
X163447510Y-115566385D01*
X163447511Y-115566382D01*
X163447513Y-115566379D01*
X163457870Y-115541372D01*
X163494661Y-115452551D01*
X163518698Y-115331707D01*
X163518698Y-115208493D01*
X163518698Y-114699361D01*
X163525069Y-114677663D01*
X163526860Y-114655116D01*
X163535689Y-114641495D01*
X163538383Y-114632322D01*
X163544018Y-114624273D01*
X163549091Y-114617605D01*
X163592662Y-114574035D01*
X163667711Y-114461715D01*
X163670018Y-114458685D01*
X163695203Y-114440138D01*
X163719208Y-114420077D01*
X163723111Y-114419586D01*
X163726279Y-114417254D01*
X163757498Y-114415267D01*
X163788533Y-114411370D01*
X163792081Y-114413067D01*
G37*
%TD.AperFunction*%
%TA.AperFunction,NonConductor*%
G36*
X171142539Y-95420185D02*
G01*
X171188294Y-95472989D01*
X171199500Y-95524500D01*
X171199500Y-119675500D01*
X171179815Y-119742539D01*
X171127011Y-119788294D01*
X171075500Y-119799500D01*
X164784451Y-119799500D01*
X164717412Y-119779815D01*
X164671657Y-119727011D01*
X164661713Y-119657853D01*
X164690738Y-119594297D01*
X164696770Y-119587819D01*
X166165498Y-118119090D01*
X166226819Y-118085607D01*
X166277369Y-118085156D01*
X166354505Y-118100500D01*
X166354507Y-118100500D01*
X166531891Y-118100500D01*
X166531892Y-118100499D01*
X166609028Y-118085156D01*
X166705856Y-118065896D01*
X166705859Y-118065894D01*
X166705864Y-118065894D01*
X166869745Y-117998013D01*
X167017233Y-117899464D01*
X167142662Y-117774035D01*
X167241211Y-117626547D01*
X167309092Y-117462666D01*
X167343698Y-117288691D01*
X167343698Y-117111309D01*
X167339652Y-117090968D01*
X167345879Y-117021377D01*
X167388741Y-116966199D01*
X167454630Y-116942954D01*
X167473866Y-116943417D01*
X167543189Y-116950500D01*
X168293206Y-116950499D01*
X168293214Y-116950498D01*
X168293217Y-116950498D01*
X168367067Y-116942954D01*
X168395995Y-116939999D01*
X168562532Y-116884814D01*
X168711854Y-116792712D01*
X168835910Y-116668656D01*
X168928012Y-116519334D01*
X168983197Y-116352797D01*
X168993698Y-116250009D01*
X168993697Y-113949992D01*
X168989745Y-113911309D01*
X168983197Y-113847203D01*
X168983196Y-113847200D01*
X168980278Y-113838394D01*
X168928012Y-113680666D01*
X168835910Y-113531344D01*
X168711854Y-113407288D01*
X168562532Y-113315186D01*
X168395995Y-113260001D01*
X168395993Y-113260000D01*
X168293208Y-113249500D01*
X167543196Y-113249500D01*
X167543178Y-113249501D01*
X167440401Y-113260000D01*
X167440398Y-113260001D01*
X167273866Y-113315185D01*
X167273861Y-113315187D01*
X167124540Y-113407289D01*
X167000487Y-113531342D01*
X166908385Y-113680663D01*
X166908384Y-113680666D01*
X166853199Y-113847203D01*
X166853199Y-113847204D01*
X166853198Y-113847204D01*
X166842698Y-113949983D01*
X166842698Y-115239547D01*
X166823013Y-115306586D01*
X166806379Y-115327228D01*
X166255378Y-115878229D01*
X166194055Y-115911714D01*
X166124363Y-115906730D01*
X166068430Y-115864858D01*
X166044013Y-115799394D01*
X166043697Y-115790548D01*
X166043697Y-113949998D01*
X166043696Y-113949981D01*
X166033197Y-113847203D01*
X166030278Y-113838394D01*
X165988158Y-113711287D01*
X165985757Y-113641461D01*
X166005100Y-113600018D01*
X166011006Y-113591782D01*
X166029056Y-113573733D01*
X166097509Y-113471286D01*
X166097510Y-113471285D01*
X166144661Y-113357451D01*
X166168698Y-113236607D01*
X166168698Y-113113393D01*
X166168698Y-106592741D01*
X166168699Y-106592720D01*
X166168699Y-106463391D01*
X166144662Y-106342553D01*
X166144659Y-106342543D01*
X166139899Y-106331052D01*
X166139879Y-106331005D01*
X166138230Y-106327025D01*
X166125130Y-106295397D01*
X166097510Y-106228715D01*
X166029056Y-106126267D01*
X166029053Y-106126263D01*
X165627969Y-105725179D01*
X165594484Y-105663856D01*
X165599468Y-105594164D01*
X165627967Y-105549819D01*
X169216927Y-101960860D01*
X169216931Y-101960858D01*
X169304056Y-101873733D01*
X169358193Y-101792712D01*
X169372510Y-101771285D01*
X169419661Y-101657451D01*
X169443698Y-101536607D01*
X169443698Y-101413393D01*
X169443698Y-98693294D01*
X169438704Y-98668189D01*
X169419661Y-98572448D01*
X169378653Y-98473446D01*
X169372510Y-98458616D01*
X169372504Y-98458605D01*
X169354920Y-98432289D01*
X169354916Y-98432284D01*
X169350963Y-98426368D01*
X169304056Y-98356167D01*
X169216931Y-98269042D01*
X169216930Y-98269041D01*
X168731225Y-97783337D01*
X168731223Y-97783334D01*
X168731223Y-97783335D01*
X168724156Y-97776268D01*
X168724156Y-97776267D01*
X168637031Y-97689142D01*
X168637030Y-97689141D01*
X168637029Y-97689140D01*
X168591623Y-97658801D01*
X168591622Y-97658800D01*
X168585807Y-97654915D01*
X168534584Y-97620688D01*
X168454090Y-97587347D01*
X168435805Y-97579773D01*
X168420751Y-97573537D01*
X168410725Y-97571543D01*
X168360327Y-97561518D01*
X168299908Y-97549500D01*
X168299905Y-97549500D01*
X168299904Y-97549500D01*
X164954805Y-97549500D01*
X164954804Y-97549500D01*
X157554804Y-97549500D01*
X151954805Y-97549500D01*
X151831591Y-97549500D01*
X151831587Y-97549500D01*
X151771169Y-97561518D01*
X151733457Y-97569019D01*
X151710748Y-97573536D01*
X151710746Y-97573537D01*
X151677405Y-97587347D01*
X151596917Y-97620684D01*
X151596903Y-97620692D01*
X151494470Y-97689138D01*
X151494462Y-97689144D01*
X150840130Y-98343477D01*
X150778807Y-98376962D01*
X150709115Y-98371978D01*
X150687353Y-98361335D01*
X150612538Y-98315189D01*
X150612533Y-98315187D01*
X150612532Y-98315186D01*
X150445995Y-98260001D01*
X150445993Y-98260000D01*
X150343208Y-98249500D01*
X149593196Y-98249500D01*
X149593178Y-98249501D01*
X149490401Y-98260000D01*
X149490398Y-98260001D01*
X149323866Y-98315185D01*
X149323861Y-98315187D01*
X149174540Y-98407289D01*
X149050486Y-98531343D01*
X149050483Y-98531347D01*
X149037020Y-98553174D01*
X148985071Y-98599898D01*
X148916108Y-98611118D01*
X148852027Y-98583273D01*
X148816923Y-98535529D01*
X148791211Y-98473453D01*
X148791207Y-98473446D01*
X148692662Y-98325965D01*
X148692659Y-98325961D01*
X148567236Y-98200538D01*
X148567232Y-98200535D01*
X148419751Y-98101990D01*
X148419738Y-98101983D01*
X148255865Y-98034106D01*
X148255856Y-98034103D01*
X148081892Y-97999500D01*
X148081889Y-97999500D01*
X147904507Y-97999500D01*
X147904504Y-97999500D01*
X147730539Y-98034103D01*
X147730530Y-98034106D01*
X147566657Y-98101983D01*
X147566644Y-98101990D01*
X147419163Y-98200535D01*
X147419159Y-98200538D01*
X147381519Y-98238180D01*
X147320197Y-98271666D01*
X147293837Y-98274500D01*
X129961607Y-98274500D01*
X129838393Y-98274500D01*
X129785394Y-98285042D01*
X129785393Y-98285041D01*
X129717555Y-98298535D01*
X129717545Y-98298538D01*
X129603716Y-98345687D01*
X129603707Y-98345692D01*
X129501268Y-98414140D01*
X129457705Y-98457703D01*
X129414142Y-98501267D01*
X129414139Y-98501270D01*
X127810821Y-100104587D01*
X127749498Y-100138072D01*
X127679806Y-100133088D01*
X127623873Y-100091216D01*
X127599456Y-100025752D01*
X127600667Y-99997508D01*
X127604153Y-99975503D01*
X127616000Y-99900701D01*
X127616000Y-99709299D01*
X127586058Y-99520253D01*
X127526911Y-99338218D01*
X127440016Y-99167677D01*
X127382630Y-99088691D01*
X127327518Y-99012835D01*
X127327514Y-99012830D01*
X127192169Y-98877485D01*
X127192164Y-98877481D01*
X127037326Y-98764986D01*
X127037325Y-98764985D01*
X127037323Y-98764984D01*
X126866782Y-98678089D01*
X126684747Y-98618942D01*
X126684745Y-98618941D01*
X126684744Y-98618941D01*
X126539523Y-98595940D01*
X126495701Y-98589000D01*
X126304299Y-98589000D01*
X126268723Y-98594634D01*
X126115255Y-98618941D01*
X126115251Y-98618942D01*
X125987817Y-98660347D01*
X125917976Y-98662342D01*
X125858143Y-98626261D01*
X125827316Y-98563560D01*
X125825500Y-98542416D01*
X125825500Y-98463843D01*
X125789933Y-98285042D01*
X125789931Y-98285037D01*
X125720168Y-98116612D01*
X125720166Y-98116608D01*
X125618886Y-97965032D01*
X125618880Y-97965024D01*
X125489975Y-97836119D01*
X125489967Y-97836113D01*
X125338391Y-97734833D01*
X125338387Y-97734831D01*
X125169962Y-97665068D01*
X125169952Y-97665065D01*
X124991156Y-97629500D01*
X124991154Y-97629500D01*
X124808846Y-97629500D01*
X124808844Y-97629500D01*
X124630047Y-97665065D01*
X124630037Y-97665068D01*
X124461612Y-97734831D01*
X124461608Y-97734833D01*
X124310032Y-97836113D01*
X124310024Y-97836119D01*
X124181119Y-97965024D01*
X124181113Y-97965032D01*
X124079833Y-98116608D01*
X124079831Y-98116612D01*
X124010068Y-98285037D01*
X124010067Y-98285042D01*
X123974500Y-98463843D01*
X123974500Y-98463846D01*
X123974500Y-98646154D01*
X123974500Y-98646156D01*
X123974499Y-98646156D01*
X124010065Y-98824952D01*
X124010068Y-98824962D01*
X124079831Y-98993387D01*
X124079833Y-98993391D01*
X124181113Y-99144967D01*
X124181119Y-99144975D01*
X124310024Y-99273880D01*
X124310032Y-99273886D01*
X124461608Y-99375166D01*
X124461612Y-99375168D01*
X124618466Y-99440138D01*
X124630042Y-99444933D01*
X124630046Y-99444933D01*
X124630047Y-99444934D01*
X124808843Y-99480500D01*
X124808846Y-99480500D01*
X124991155Y-99480500D01*
X125005846Y-99477577D01*
X125053194Y-99468159D01*
X125122783Y-99474385D01*
X125177961Y-99517248D01*
X125201207Y-99583137D01*
X125199858Y-99609173D01*
X125184000Y-99709298D01*
X125184000Y-99900700D01*
X125213941Y-100089744D01*
X125213942Y-100089747D01*
X125267947Y-100255958D01*
X125273090Y-100271784D01*
X125359986Y-100442326D01*
X125472481Y-100597164D01*
X125472485Y-100597169D01*
X125607830Y-100732514D01*
X125607835Y-100732518D01*
X125699883Y-100799394D01*
X125762677Y-100845016D01*
X125933218Y-100931911D01*
X126115253Y-100991058D01*
X126304299Y-101021000D01*
X126304300Y-101021000D01*
X126495700Y-101021000D01*
X126495701Y-101021000D01*
X126592509Y-101005667D01*
X126661803Y-101014622D01*
X126715255Y-101059618D01*
X126735894Y-101126369D01*
X126717169Y-101193683D01*
X126699588Y-101215821D01*
X126252229Y-101663181D01*
X126190906Y-101696666D01*
X126164548Y-101699500D01*
X126111306Y-101699500D01*
X125937341Y-101734103D01*
X125937332Y-101734106D01*
X125773459Y-101801983D01*
X125773446Y-101801990D01*
X125625965Y-101900535D01*
X125625961Y-101900538D01*
X125500538Y-102025961D01*
X125500535Y-102025965D01*
X125401990Y-102173446D01*
X125401983Y-102173459D01*
X125334106Y-102337332D01*
X125334103Y-102337341D01*
X125299500Y-102511304D01*
X125299500Y-102688695D01*
X125334103Y-102862658D01*
X125334106Y-102862667D01*
X125401983Y-103026540D01*
X125401990Y-103026553D01*
X125405037Y-103031113D01*
X125425912Y-103097792D01*
X125407425Y-103165171D01*
X125405037Y-103168887D01*
X125401990Y-103173446D01*
X125401983Y-103173459D01*
X125334106Y-103337332D01*
X125334103Y-103337341D01*
X125299500Y-103511304D01*
X125299500Y-103688695D01*
X125334103Y-103862658D01*
X125334106Y-103862667D01*
X125401984Y-104026542D01*
X125401987Y-104026547D01*
X125405037Y-104031112D01*
X125425914Y-104097790D01*
X125407428Y-104165170D01*
X125405039Y-104168888D01*
X125401990Y-104173450D01*
X125401983Y-104173463D01*
X125334106Y-104337335D01*
X125334103Y-104337344D01*
X125299500Y-104511307D01*
X125299500Y-104688698D01*
X125334103Y-104862661D01*
X125334106Y-104862670D01*
X125340038Y-104876990D01*
X125358332Y-104921158D01*
X125375918Y-104963613D01*
X125383387Y-105033082D01*
X125364459Y-105079956D01*
X125301990Y-105173446D01*
X125301983Y-105173459D01*
X125234106Y-105337332D01*
X125234103Y-105337341D01*
X125199500Y-105511304D01*
X125199500Y-105688695D01*
X125234103Y-105862658D01*
X125234106Y-105862667D01*
X125301983Y-106026540D01*
X125301990Y-106026553D01*
X125400535Y-106174034D01*
X125400538Y-106174038D01*
X125525961Y-106299461D01*
X125525965Y-106299464D01*
X125673446Y-106398009D01*
X125673459Y-106398016D01*
X125767828Y-106437104D01*
X125837334Y-106465894D01*
X125837336Y-106465894D01*
X125837341Y-106465896D01*
X126011304Y-106500499D01*
X126011307Y-106500500D01*
X126011309Y-106500500D01*
X126064548Y-106500500D01*
X126131587Y-106520185D01*
X126152229Y-106536819D01*
X126414139Y-106798729D01*
X126414142Y-106798733D01*
X126501267Y-106885858D01*
X126578190Y-106937256D01*
X126583990Y-106941132D01*
X126583993Y-106941134D01*
X126603710Y-106954309D01*
X126603713Y-106954311D01*
X126603715Y-106954312D01*
X126652452Y-106974499D01*
X126652453Y-106974500D01*
X126652454Y-106974500D01*
X126717548Y-107001463D01*
X126777971Y-107013481D01*
X126820944Y-107022029D01*
X126882853Y-107054413D01*
X126917427Y-107115129D01*
X126913687Y-107184898D01*
X126872820Y-107241570D01*
X126844204Y-107258206D01*
X126753714Y-107295688D01*
X126655063Y-107361606D01*
X126655057Y-107361610D01*
X126651266Y-107364142D01*
X126606319Y-107409090D01*
X126401267Y-107614143D01*
X125943650Y-108071759D01*
X125882327Y-108105244D01*
X125880161Y-108105695D01*
X125737340Y-108134104D01*
X125737332Y-108134106D01*
X125573459Y-108201983D01*
X125573446Y-108201990D01*
X125425965Y-108300535D01*
X125425961Y-108300538D01*
X125300538Y-108425961D01*
X125300535Y-108425965D01*
X125201990Y-108573446D01*
X125201983Y-108573459D01*
X125134106Y-108737332D01*
X125134103Y-108737341D01*
X125099500Y-108911304D01*
X125099500Y-109088695D01*
X125134103Y-109262658D01*
X125134106Y-109262667D01*
X125201984Y-109426542D01*
X125201987Y-109426547D01*
X125205037Y-109431112D01*
X125225914Y-109497790D01*
X125207428Y-109565170D01*
X125205039Y-109568888D01*
X125201990Y-109573450D01*
X125201983Y-109573463D01*
X125134106Y-109737335D01*
X125134103Y-109737344D01*
X125099500Y-109911307D01*
X125099500Y-110088698D01*
X125134103Y-110262661D01*
X125134106Y-110262670D01*
X125201984Y-110426545D01*
X125201987Y-110426550D01*
X125205037Y-110431115D01*
X125225914Y-110497793D01*
X125207428Y-110565173D01*
X125205039Y-110568891D01*
X125201990Y-110573453D01*
X125201983Y-110573466D01*
X125134106Y-110737338D01*
X125134103Y-110737347D01*
X125099500Y-110911310D01*
X125099500Y-111088701D01*
X125134103Y-111262664D01*
X125134106Y-111262673D01*
X125201984Y-111426548D01*
X125201987Y-111426553D01*
X125205037Y-111431118D01*
X125225914Y-111497796D01*
X125207428Y-111565176D01*
X125205039Y-111568894D01*
X125201990Y-111573456D01*
X125201983Y-111573469D01*
X125134106Y-111737341D01*
X125134103Y-111737350D01*
X125099500Y-111911313D01*
X125099500Y-112088704D01*
X125134103Y-112262667D01*
X125134106Y-112262676D01*
X125201983Y-112426549D01*
X125201990Y-112426562D01*
X125300535Y-112574043D01*
X125300538Y-112574047D01*
X125425961Y-112699470D01*
X125425965Y-112699473D01*
X125573446Y-112798018D01*
X125573459Y-112798025D01*
X125696363Y-112848932D01*
X125737334Y-112865903D01*
X125737336Y-112865903D01*
X125737341Y-112865905D01*
X125911304Y-112900508D01*
X125911307Y-112900509D01*
X125911309Y-112900509D01*
X126088693Y-112900509D01*
X126088694Y-112900508D01*
X126150185Y-112888277D01*
X126262658Y-112865905D01*
X126262661Y-112865903D01*
X126262666Y-112865903D01*
X126426547Y-112798022D01*
X126574035Y-112699473D01*
X126611679Y-112661829D01*
X126673001Y-112628343D01*
X126699361Y-112625509D01*
X132461599Y-112625509D01*
X132461599Y-112625508D01*
X132523717Y-112613153D01*
X132582443Y-112601472D01*
X132615783Y-112587661D01*
X132696277Y-112554321D01*
X132747500Y-112520093D01*
X132798724Y-112485867D01*
X132885849Y-112398742D01*
X132885850Y-112398740D01*
X132892916Y-112391674D01*
X132892919Y-112391670D01*
X132917865Y-112366723D01*
X132979186Y-112333240D01*
X133048878Y-112338224D01*
X133093225Y-112366725D01*
X133138614Y-112412114D01*
X133138618Y-112412117D01*
X133286099Y-112510662D01*
X133286112Y-112510669D01*
X133409016Y-112561576D01*
X133449987Y-112578547D01*
X133449989Y-112578547D01*
X133449994Y-112578549D01*
X133623957Y-112613152D01*
X133623960Y-112613153D01*
X133623962Y-112613153D01*
X133801346Y-112613153D01*
X133801347Y-112613152D01*
X133860068Y-112601472D01*
X133975311Y-112578549D01*
X133975314Y-112578547D01*
X133975319Y-112578547D01*
X134139200Y-112510666D01*
X134286688Y-112412117D01*
X134412117Y-112286688D01*
X134510666Y-112139200D01*
X134578547Y-111975319D01*
X134591280Y-111911309D01*
X134613152Y-111801348D01*
X134613153Y-111801346D01*
X134613153Y-111748105D01*
X134632838Y-111681066D01*
X134649472Y-111660424D01*
X135198077Y-111111819D01*
X135259400Y-111078334D01*
X135285758Y-111075500D01*
X140938394Y-111075500D01*
X142857568Y-111075500D01*
X142924607Y-111095185D01*
X142945249Y-111111819D01*
X144519983Y-112686553D01*
X144553468Y-112747876D01*
X144556302Y-112774234D01*
X144556302Y-113838394D01*
X144556302Y-115165894D01*
X144580339Y-115286740D01*
X144580340Y-115286743D01*
X144580341Y-115286748D01*
X144590670Y-115311682D01*
X144590675Y-115311693D01*
X144591976Y-115314833D01*
X144627490Y-115400574D01*
X144643418Y-115424411D01*
X144648296Y-115431712D01*
X144648298Y-115431715D01*
X144695943Y-115503020D01*
X144695946Y-115503024D01*
X144787388Y-115594466D01*
X144787410Y-115594486D01*
X147952900Y-118759976D01*
X148780741Y-119587819D01*
X148814226Y-119649142D01*
X148809242Y-119718834D01*
X148767370Y-119774767D01*
X148701906Y-119799184D01*
X148693060Y-119799500D01*
X109324500Y-119799500D01*
X109257461Y-119779815D01*
X109211706Y-119727011D01*
X109200500Y-119675500D01*
X109200500Y-117006902D01*
X113499500Y-117006902D01*
X113499500Y-117243097D01*
X113536446Y-117476368D01*
X113609433Y-117700996D01*
X113710557Y-117899461D01*
X113716657Y-117911433D01*
X113855483Y-118102510D01*
X114022490Y-118269517D01*
X114213567Y-118408343D01*
X114271417Y-118437819D01*
X114424003Y-118515566D01*
X114424005Y-118515566D01*
X114424008Y-118515568D01*
X114544412Y-118554689D01*
X114648631Y-118588553D01*
X114881903Y-118625500D01*
X114881908Y-118625500D01*
X115118097Y-118625500D01*
X115351368Y-118588553D01*
X115575992Y-118515568D01*
X115786433Y-118408343D01*
X115977510Y-118269517D01*
X116144517Y-118102510D01*
X116283343Y-117911433D01*
X116390568Y-117700992D01*
X116463553Y-117476368D01*
X116470109Y-117434975D01*
X116500500Y-117243097D01*
X116500500Y-117006902D01*
X116489295Y-116936156D01*
X123974499Y-116936156D01*
X124010065Y-117114952D01*
X124010068Y-117114962D01*
X124079831Y-117283387D01*
X124079833Y-117283391D01*
X124181113Y-117434967D01*
X124181119Y-117434975D01*
X124310024Y-117563880D01*
X124310032Y-117563886D01*
X124461608Y-117665166D01*
X124461612Y-117665168D01*
X124617686Y-117729815D01*
X124630042Y-117734933D01*
X124630046Y-117734933D01*
X124630047Y-117734934D01*
X124808843Y-117770500D01*
X124808846Y-117770500D01*
X124991156Y-117770500D01*
X125111445Y-117746572D01*
X125169958Y-117734933D01*
X125338389Y-117665167D01*
X125338391Y-117665166D01*
X125456156Y-117586478D01*
X125489972Y-117563883D01*
X125618883Y-117434972D01*
X125716623Y-117288693D01*
X125720166Y-117283391D01*
X125720168Y-117283387D01*
X125758768Y-117190198D01*
X125789933Y-117114958D01*
X125814217Y-116992877D01*
X125825500Y-116936156D01*
X125825500Y-116857582D01*
X125845185Y-116790543D01*
X125897989Y-116744788D01*
X125967147Y-116734844D01*
X125987808Y-116739648D01*
X126115253Y-116781058D01*
X126304299Y-116811000D01*
X126304300Y-116811000D01*
X126495700Y-116811000D01*
X126495701Y-116811000D01*
X126684747Y-116781058D01*
X126866782Y-116721911D01*
X127037323Y-116635016D01*
X127192171Y-116522513D01*
X127327513Y-116387171D01*
X127440016Y-116232323D01*
X127526911Y-116061782D01*
X127586058Y-115879747D01*
X127616000Y-115690701D01*
X127616000Y-115499299D01*
X127586058Y-115310253D01*
X127526911Y-115128218D01*
X127440016Y-114957677D01*
X127378329Y-114872771D01*
X127327518Y-114802835D01*
X127327514Y-114802830D01*
X127192169Y-114667485D01*
X127192164Y-114667481D01*
X127037326Y-114554986D01*
X127037325Y-114554985D01*
X127037323Y-114554984D01*
X126866782Y-114468089D01*
X126684747Y-114408942D01*
X126684745Y-114408941D01*
X126684744Y-114408941D01*
X126539523Y-114385940D01*
X126495701Y-114379000D01*
X126304299Y-114379000D01*
X126268723Y-114384634D01*
X126115255Y-114408941D01*
X125933215Y-114468090D01*
X125762673Y-114554986D01*
X125607835Y-114667481D01*
X125607830Y-114667485D01*
X125472485Y-114802830D01*
X125472481Y-114802835D01*
X125359986Y-114957673D01*
X125273090Y-115128215D01*
X125213941Y-115310255D01*
X125191404Y-115452549D01*
X125184000Y-115499299D01*
X125184000Y-115690701D01*
X125193259Y-115749159D01*
X125199858Y-115790825D01*
X125190903Y-115860119D01*
X125145907Y-115913571D01*
X125079155Y-115934210D01*
X125053194Y-115931840D01*
X124991157Y-115919500D01*
X124991154Y-115919500D01*
X124808846Y-115919500D01*
X124808844Y-115919500D01*
X124630047Y-115955065D01*
X124630037Y-115955068D01*
X124461612Y-116024831D01*
X124461608Y-116024833D01*
X124310032Y-116126113D01*
X124310024Y-116126119D01*
X124181119Y-116255024D01*
X124181113Y-116255032D01*
X124079833Y-116406608D01*
X124079831Y-116406612D01*
X124010068Y-116575037D01*
X124010065Y-116575047D01*
X123974500Y-116753843D01*
X123974500Y-116753846D01*
X123974500Y-116936154D01*
X123974500Y-116936156D01*
X123974499Y-116936156D01*
X116489295Y-116936156D01*
X116463553Y-116773631D01*
X116416810Y-116629773D01*
X116390568Y-116549008D01*
X116390566Y-116549005D01*
X116390566Y-116549003D01*
X116334002Y-116437991D01*
X116283343Y-116338567D01*
X116144517Y-116147490D01*
X115977510Y-115980483D01*
X115786433Y-115841657D01*
X115575996Y-115734433D01*
X115351368Y-115661446D01*
X115118097Y-115624500D01*
X115118092Y-115624500D01*
X114881908Y-115624500D01*
X114881903Y-115624500D01*
X114648631Y-115661446D01*
X114424003Y-115734433D01*
X114213566Y-115841657D01*
X114124002Y-115906730D01*
X114022490Y-115980483D01*
X114022488Y-115980485D01*
X114022487Y-115980485D01*
X113855485Y-116147487D01*
X113855485Y-116147488D01*
X113855483Y-116147490D01*
X113795862Y-116229550D01*
X113716657Y-116338566D01*
X113609433Y-116549003D01*
X113536446Y-116773631D01*
X113499500Y-117006902D01*
X109200500Y-117006902D01*
X109200500Y-103253135D01*
X113800500Y-103253135D01*
X113800500Y-104746870D01*
X113800501Y-104746876D01*
X113806908Y-104806483D01*
X113857202Y-104941328D01*
X113857206Y-104941335D01*
X113943452Y-105056544D01*
X113943455Y-105056547D01*
X114058664Y-105142793D01*
X114058671Y-105142797D01*
X114193517Y-105193091D01*
X114193516Y-105193091D01*
X114200444Y-105193835D01*
X114253127Y-105199500D01*
X114472257Y-105199499D01*
X114539295Y-105219183D01*
X114585050Y-105271987D01*
X114594994Y-105341145D01*
X114565969Y-105404701D01*
X114528552Y-105433983D01*
X114371326Y-105514094D01*
X114218575Y-105625075D01*
X114085075Y-105758575D01*
X113974096Y-105911324D01*
X113888381Y-106079547D01*
X113830035Y-106259115D01*
X113800500Y-106445597D01*
X113800500Y-106634402D01*
X113830035Y-106820884D01*
X113888381Y-107000452D01*
X113938831Y-107099464D01*
X113974096Y-107168675D01*
X114085073Y-107321422D01*
X114218578Y-107454927D01*
X114371325Y-107565904D01*
X114410073Y-107585647D01*
X114539547Y-107651618D01*
X114539549Y-107651618D01*
X114539552Y-107651620D01*
X114565211Y-107659957D01*
X114664040Y-107692069D01*
X114721715Y-107731507D01*
X114748913Y-107795866D01*
X114736998Y-107864712D01*
X114689754Y-107916188D01*
X114664040Y-107927931D01*
X114539547Y-107968381D01*
X114371324Y-108054096D01*
X114218575Y-108165075D01*
X114085075Y-108298575D01*
X113974096Y-108451324D01*
X113888381Y-108619547D01*
X113830035Y-108799115D01*
X113800500Y-108985597D01*
X113800500Y-109174402D01*
X113830035Y-109360884D01*
X113888381Y-109540452D01*
X113956276Y-109673702D01*
X113974096Y-109708675D01*
X114085073Y-109861422D01*
X114218578Y-109994927D01*
X114371325Y-110105904D01*
X114411851Y-110126553D01*
X114539547Y-110191618D01*
X114539549Y-110191618D01*
X114539552Y-110191620D01*
X114635802Y-110222893D01*
X114719115Y-110249964D01*
X114799281Y-110262661D01*
X114905597Y-110279500D01*
X114905598Y-110279500D01*
X115094402Y-110279500D01*
X115094403Y-110279500D01*
X115280884Y-110249964D01*
X115460448Y-110191620D01*
X115628675Y-110105904D01*
X115781422Y-109994927D01*
X115914927Y-109861422D01*
X116025904Y-109708675D01*
X116111620Y-109540448D01*
X116169964Y-109360884D01*
X116199500Y-109174403D01*
X116199500Y-108985597D01*
X116169964Y-108799116D01*
X116111620Y-108619552D01*
X116111618Y-108619549D01*
X116111618Y-108619547D01*
X116056727Y-108511818D01*
X116025904Y-108451325D01*
X115914927Y-108298578D01*
X115781422Y-108165073D01*
X115628675Y-108054096D01*
X115460452Y-107968381D01*
X115335959Y-107927931D01*
X115278284Y-107888493D01*
X115251086Y-107824134D01*
X115263001Y-107755288D01*
X115310245Y-107703812D01*
X115335959Y-107692069D01*
X115375073Y-107679360D01*
X115460448Y-107651620D01*
X115628675Y-107565904D01*
X115781422Y-107454927D01*
X115914927Y-107321422D01*
X116025904Y-107168675D01*
X116111620Y-107000448D01*
X116169964Y-106820884D01*
X116199500Y-106634403D01*
X116199500Y-106445597D01*
X116180720Y-106327025D01*
X116169964Y-106259115D01*
X116142319Y-106174034D01*
X116111620Y-106079552D01*
X116111618Y-106079549D01*
X116111618Y-106079547D01*
X116025903Y-105911324D01*
X116022971Y-105907288D01*
X115914927Y-105758578D01*
X115781422Y-105625073D01*
X115628675Y-105514096D01*
X115471445Y-105433983D01*
X115420650Y-105386009D01*
X115403855Y-105318188D01*
X115426392Y-105252054D01*
X115481107Y-105208602D01*
X115527740Y-105199499D01*
X115746872Y-105199499D01*
X115806483Y-105193091D01*
X115941331Y-105142796D01*
X116056546Y-105056546D01*
X116142796Y-104941331D01*
X116193091Y-104806483D01*
X116199500Y-104746873D01*
X116199499Y-103253128D01*
X116193091Y-103193517D01*
X116158211Y-103100000D01*
X116142797Y-103058671D01*
X116142793Y-103058664D01*
X116056547Y-102943455D01*
X116056544Y-102943452D01*
X115941335Y-102857206D01*
X115941328Y-102857202D01*
X115806482Y-102806908D01*
X115806483Y-102806908D01*
X115746883Y-102800501D01*
X115746881Y-102800500D01*
X115746873Y-102800500D01*
X115746864Y-102800500D01*
X114253129Y-102800500D01*
X114253123Y-102800501D01*
X114193516Y-102806908D01*
X114058671Y-102857202D01*
X114058664Y-102857206D01*
X113943455Y-102943452D01*
X113943452Y-102943455D01*
X113857206Y-103058664D01*
X113857202Y-103058671D01*
X113806908Y-103193517D01*
X113800501Y-103253116D01*
X113800501Y-103253123D01*
X113800500Y-103253135D01*
X109200500Y-103253135D01*
X109200500Y-97956902D01*
X113499500Y-97956902D01*
X113499500Y-98193097D01*
X113536447Y-98426368D01*
X113536446Y-98426368D01*
X113609433Y-98650996D01*
X113694285Y-98817526D01*
X113716657Y-98861433D01*
X113855483Y-99052510D01*
X114022490Y-99219517D01*
X114213567Y-99358343D01*
X114296511Y-99400605D01*
X114424003Y-99465566D01*
X114424005Y-99465566D01*
X114424008Y-99465568D01*
X114527058Y-99499051D01*
X114648631Y-99538553D01*
X114881903Y-99575500D01*
X114881908Y-99575500D01*
X115118097Y-99575500D01*
X115351368Y-99538553D01*
X115379218Y-99529504D01*
X115575992Y-99465568D01*
X115786433Y-99358343D01*
X115977510Y-99219517D01*
X116144517Y-99052510D01*
X116283343Y-98861433D01*
X116390568Y-98650992D01*
X116463553Y-98426368D01*
X116471378Y-98376962D01*
X116500500Y-98193097D01*
X116500500Y-97956902D01*
X116463553Y-97723631D01*
X116390566Y-97499003D01*
X116283342Y-97288566D01*
X116144517Y-97097490D01*
X115977510Y-96930483D01*
X115786433Y-96791657D01*
X115575996Y-96684433D01*
X115351368Y-96611446D01*
X115118097Y-96574500D01*
X115118092Y-96574500D01*
X114881908Y-96574500D01*
X114881903Y-96574500D01*
X114648631Y-96611446D01*
X114424003Y-96684433D01*
X114213566Y-96791657D01*
X114104550Y-96870862D01*
X114022490Y-96930483D01*
X114022488Y-96930485D01*
X114022487Y-96930485D01*
X113855485Y-97097487D01*
X113855485Y-97097488D01*
X113855483Y-97097490D01*
X113795862Y-97179550D01*
X113716657Y-97288566D01*
X113609433Y-97499003D01*
X113536446Y-97723631D01*
X113499500Y-97956902D01*
X109200500Y-97956902D01*
X109200500Y-95524500D01*
X109220185Y-95457461D01*
X109272989Y-95411706D01*
X109324500Y-95400500D01*
X160434108Y-95400500D01*
X160565892Y-95400500D01*
X171075500Y-95400500D01*
X171142539Y-95420185D01*
G37*
%TD.AperFunction*%
M02*
