%TF.GenerationSoftware,KiCad,Pcbnew,9.0.2*%
%TF.CreationDate,2025-05-27T17:48:54-07:00*%
%TF.ProjectId,8_6mSiPMs,385f366d-5369-4504-9d73-2e6b69636164,rev?*%
%TF.SameCoordinates,Original*%
%TF.FileFunction,Paste,Top*%
%TF.FilePolarity,Positive*%
%FSLAX46Y46*%
G04 Gerber Fmt 4.6, Leading zero omitted, Abs format (unit mm)*
G04 Created by KiCad (PCBNEW 9.0.2) date 2025-05-27 17:48:54*
%MOMM*%
%LPD*%
G01*
G04 APERTURE LIST*
G04 Aperture macros list*
%AMRoundRect*
0 Rectangle with rounded corners*
0 $1 Rounding radius*
0 $2 $3 $4 $5 $6 $7 $8 $9 X,Y pos of 4 corners*
0 Add a 4 corners polygon primitive as box body*
4,1,4,$2,$3,$4,$5,$6,$7,$8,$9,$2,$3,0*
0 Add four circle primitives for the rounded corners*
1,1,$1+$1,$2,$3*
1,1,$1+$1,$4,$5*
1,1,$1+$1,$6,$7*
1,1,$1+$1,$8,$9*
0 Add four rect primitives between the rounded corners*
20,1,$1+$1,$2,$3,$4,$5,0*
20,1,$1+$1,$4,$5,$6,$7,0*
20,1,$1+$1,$6,$7,$8,$9,0*
20,1,$1+$1,$8,$9,$2,$3,0*%
G04 Aperture macros list end*
%ADD10C,1.100000*%
%ADD11RoundRect,0.087500X-0.087500X-0.337500X0.087500X-0.337500X0.087500X0.337500X-0.087500X0.337500X0*%
%ADD12R,1.200000X0.500000*%
G04 APERTURE END LIST*
D10*
%TO.C,REF\u002A\u002A10*%
X168493198Y-98000000D03*
X163893198Y-98000000D03*
X163893198Y-102200000D03*
X168493198Y-102200000D03*
%TD*%
D11*
%TO.C,Temp*%
X142350000Y-108500000D03*
X143000000Y-108500000D03*
X143650000Y-108500000D03*
X143650000Y-106300000D03*
X142350000Y-106300000D03*
%TD*%
D12*
%TO.C,J\u002A\u002A*%
X124700000Y-102900000D03*
X128100000Y-102900000D03*
X124700000Y-103700000D03*
X128100000Y-103700000D03*
X124700000Y-104500000D03*
X128100000Y-104500000D03*
X124700000Y-105300000D03*
X128100000Y-105300000D03*
X124700000Y-109300000D03*
X128100000Y-109300000D03*
X124700000Y-110100000D03*
X128100000Y-110100000D03*
X124700000Y-110900000D03*
X128100000Y-110900000D03*
X124700000Y-111700000D03*
X128100000Y-111700000D03*
X124700000Y-112500000D03*
X128100000Y-112500000D03*
%TD*%
D10*
%TO.C,REF\u002A\u002A10*%
X160993198Y-98000000D03*
X156393198Y-98000000D03*
X156393198Y-102200000D03*
X160993198Y-102200000D03*
%TD*%
%TO.C,REF\u002A\u002A10*%
X168493198Y-113000000D03*
X163893198Y-113000000D03*
X163893198Y-117200000D03*
X168493198Y-117200000D03*
%TD*%
%TO.C,REF\u002A\u002A10*%
X153493198Y-113000000D03*
X148893198Y-113000000D03*
X148893198Y-117200000D03*
X153493198Y-117200000D03*
%TD*%
%TO.C,REF\u002A\u002A10*%
X153493198Y-98000000D03*
X148893198Y-98000000D03*
X148893198Y-102200000D03*
X153493198Y-102200000D03*
%TD*%
%TO.C,REF\u002A\u002A10*%
X164743198Y-105500000D03*
X160143198Y-105500000D03*
X160143198Y-109700000D03*
X164743198Y-109700000D03*
%TD*%
%TO.C,REF\u002A\u002A10*%
X160993198Y-113000000D03*
X156393198Y-113000000D03*
X156393198Y-117200000D03*
X160993198Y-117200000D03*
%TD*%
%TO.C,REF\u002A\u002A10*%
X157243198Y-105500000D03*
X152643198Y-105500000D03*
X152643198Y-109700000D03*
X157243198Y-109700000D03*
%TD*%
M02*
