%TF.GenerationSoftware,KiCad,Pcbnew,9.0.2*%
%TF.CreationDate,2025-05-27T11:43:51-07:00*%
%TF.ProjectId,8_6mSiPMs,385f366d-5369-4504-9d73-2e6b69636164,rev?*%
%TF.SameCoordinates,Original*%
%TF.FileFunction,Soldermask,Top*%
%TF.FilePolarity,Negative*%
%FSLAX46Y46*%
G04 Gerber Fmt 4.6, Leading zero omitted, Abs format (unit mm)*
G04 Created by KiCad (PCBNEW 9.0.2) date 2025-05-27 11:43:51*
%MOMM*%
%LPD*%
G01*
G04 APERTURE LIST*
%ADD10C,1.100000*%
%ADD11C,1.350000*%
%ADD12R,1.200000X0.500000*%
%ADD13C,1.431000*%
G04 APERTURE END LIST*
D10*
%TO.C,REF\u002A\u002A10*%
X168493198Y-98000000D03*
X163893198Y-98000000D03*
X163893198Y-102200000D03*
X168493198Y-102200000D03*
%TD*%
D11*
%TO.C,J\u002A\u002A*%
X124900000Y-98555000D03*
X124900000Y-116845000D03*
D12*
X124700000Y-102900000D03*
X128100000Y-102900000D03*
X124700000Y-103700000D03*
X128100000Y-103700000D03*
X124700000Y-104500000D03*
X128100000Y-104500000D03*
X124700000Y-105300000D03*
X128100000Y-105300000D03*
X124700000Y-109300000D03*
X128100000Y-109300000D03*
X124700000Y-110100000D03*
X128100000Y-110100000D03*
X124700000Y-110900000D03*
X128100000Y-110900000D03*
X124700000Y-111700000D03*
X128100000Y-111700000D03*
X124700000Y-112500000D03*
X128100000Y-112500000D03*
D13*
X126400000Y-99805000D03*
X126400000Y-115595000D03*
%TD*%
D10*
%TO.C,REF\u002A\u002A10*%
X160993198Y-98000000D03*
X156393198Y-98000000D03*
X156393198Y-102200000D03*
X160993198Y-102200000D03*
%TD*%
%TO.C,REF\u002A\u002A10*%
X168493198Y-113000000D03*
X163893198Y-113000000D03*
X163893198Y-117200000D03*
X168493198Y-117200000D03*
%TD*%
%TO.C,REF\u002A\u002A10*%
X153493198Y-113000000D03*
X148893198Y-113000000D03*
X148893198Y-117200000D03*
X153493198Y-117200000D03*
%TD*%
%TO.C,REF\u002A\u002A10*%
X153493198Y-98000000D03*
X148893198Y-98000000D03*
X148893198Y-102200000D03*
X153493198Y-102200000D03*
%TD*%
%TO.C,REF\u002A\u002A10*%
X164743198Y-105500000D03*
X160143198Y-105500000D03*
X160143198Y-109700000D03*
X164743198Y-109700000D03*
%TD*%
%TO.C,REF\u002A\u002A10*%
X160993198Y-113000000D03*
X156393198Y-113000000D03*
X156393198Y-117200000D03*
X160993198Y-117200000D03*
%TD*%
%TO.C,REF\u002A\u002A10*%
X157243198Y-105500000D03*
X152643198Y-105500000D03*
X152643198Y-109700000D03*
X157243198Y-109700000D03*
%TD*%
M02*
