%TF.GenerationSoftware,KiCad,Pcbnew,9.0.2*%
%TF.CreationDate,2025-05-27T17:48:54-07:00*%
%TF.ProjectId,8_6mSiPMs,385f366d-5369-4504-9d73-2e6b69636164,rev?*%
%TF.SameCoordinates,Original*%
%TF.FileFunction,Copper,L1,Top*%
%TF.FilePolarity,Positive*%
%FSLAX46Y46*%
G04 Gerber Fmt 4.6, Leading zero omitted, Abs format (unit mm)*
G04 Created by KiCad (PCBNEW 9.0.2) date 2025-05-27 17:48:54*
%MOMM*%
%LPD*%
G01*
G04 APERTURE LIST*
G04 Aperture macros list*
%AMRoundRect*
0 Rectangle with rounded corners*
0 $1 Rounding radius*
0 $2 $3 $4 $5 $6 $7 $8 $9 X,Y pos of 4 corners*
0 Add a 4 corners polygon primitive as box body*
4,1,4,$2,$3,$4,$5,$6,$7,$8,$9,$2,$3,0*
0 Add four circle primitives for the rounded corners*
1,1,$1+$1,$2,$3*
1,1,$1+$1,$4,$5*
1,1,$1+$1,$6,$7*
1,1,$1+$1,$8,$9*
0 Add four rect primitives between the rounded corners*
20,1,$1+$1,$2,$3,$4,$5,0*
20,1,$1+$1,$4,$5,$6,$7,0*
20,1,$1+$1,$6,$7,$8,$9,0*
20,1,$1+$1,$8,$9,$2,$3,0*%
G04 Aperture macros list end*
%TA.AperFunction,SMDPad,CuDef*%
%ADD10C,1.100000*%
%TD*%
%TA.AperFunction,SMDPad,CuDef*%
%ADD11RoundRect,0.087500X-0.087500X-0.337500X0.087500X-0.337500X0.087500X0.337500X-0.087500X0.337500X0*%
%TD*%
%TA.AperFunction,SMDPad,CuDef*%
%ADD12R,1.200000X0.500000*%
%TD*%
%TA.AperFunction,ComponentPad*%
%ADD13C,1.431000*%
%TD*%
%TA.AperFunction,ComponentPad*%
%ADD14R,1.398000X1.398000*%
%TD*%
%TA.AperFunction,ComponentPad*%
%ADD15C,1.398000*%
%TD*%
%TA.AperFunction,ViaPad*%
%ADD16C,0.800000*%
%TD*%
%TA.AperFunction,ViaPad*%
%ADD17C,0.600000*%
%TD*%
%TA.AperFunction,Conductor*%
%ADD18C,0.200000*%
%TD*%
%TA.AperFunction,Conductor*%
%ADD19C,0.250000*%
%TD*%
G04 APERTURE END LIST*
D10*
%TO.P,REF\u002A\u002A10,1*%
%TO.N,2C*%
X168493198Y-98000000D03*
%TO.P,REF\u002A\u002A10,2*%
X163893198Y-98000000D03*
%TO.P,REF\u002A\u002A10,3*%
%TO.N,2A*%
X163893198Y-102200000D03*
%TO.P,REF\u002A\u002A10,4*%
X168493198Y-102200000D03*
%TD*%
D11*
%TO.P,Temp,1*%
%TO.N,N/C*%
X142350000Y-108500000D03*
%TO.P,Temp,2*%
X143000000Y-108500000D03*
%TO.P,Temp,3*%
%TO.N,TMP_OUT*%
X143650000Y-108500000D03*
%TO.P,Temp,4*%
%TO.N,TMP_VDD*%
X143650000Y-106300000D03*
%TO.P,Temp,5*%
%TO.N,GND*%
X142350000Y-106300000D03*
%TD*%
D12*
%TO.P,J\u002A\u002A,1*%
%TO.N,0C*%
X124700000Y-102900000D03*
%TO.P,J\u002A\u002A,2*%
%TO.N,0A*%
X128100000Y-102900000D03*
%TO.P,J\u002A\u002A,3*%
%TO.N,1C*%
X124700000Y-103700000D03*
%TO.P,J\u002A\u002A,4*%
%TO.N,1A*%
X128100000Y-103700000D03*
%TO.P,J\u002A\u002A,5*%
%TO.N,2C*%
X124700000Y-104500000D03*
%TO.P,J\u002A\u002A,6*%
%TO.N,2A*%
X128100000Y-104500000D03*
%TO.P,J\u002A\u002A,7*%
%TO.N,3C*%
X124700000Y-105300000D03*
%TO.P,J\u002A\u002A,8*%
%TO.N,3A*%
X128100000Y-105300000D03*
%TO.P,J\u002A\u002A,9*%
%TO.N,4C*%
X124700000Y-109300000D03*
%TO.P,J\u002A\u002A,10*%
%TO.N,4A*%
X128100000Y-109300000D03*
%TO.P,J\u002A\u002A,11*%
%TO.N,5C*%
X124700000Y-110100000D03*
%TO.P,J\u002A\u002A,12*%
%TO.N,5A*%
X128100000Y-110100000D03*
%TO.P,J\u002A\u002A,13*%
%TO.N,6C*%
X124700000Y-110900000D03*
%TO.P,J\u002A\u002A,14*%
%TO.N,6A*%
X128100000Y-110900000D03*
%TO.P,J\u002A\u002A,15*%
%TO.N,7C*%
X124700000Y-111700000D03*
%TO.P,J\u002A\u002A,16*%
%TO.N,7A*%
X128100000Y-111700000D03*
%TO.P,J\u002A\u002A,17*%
%TO.N,GND*%
X124700000Y-112500000D03*
%TO.P,J\u002A\u002A,18*%
X128100000Y-112500000D03*
D13*
%TO.P,J\u002A\u002A,MH1*%
%TO.N,N/C*%
X126400000Y-99805000D03*
%TO.P,J\u002A\u002A,MH2*%
X126400000Y-115595000D03*
%TD*%
D10*
%TO.P,REF\u002A\u002A10,1*%
%TO.N,1C*%
X160993198Y-98000000D03*
%TO.P,REF\u002A\u002A10,2*%
X156393198Y-98000000D03*
%TO.P,REF\u002A\u002A10,3*%
%TO.N,1A*%
X156393198Y-102200000D03*
%TO.P,REF\u002A\u002A10,4*%
X160993198Y-102200000D03*
%TD*%
%TO.P,REF\u002A\u002A10,1*%
%TO.N,7C*%
X168493198Y-113000000D03*
%TO.P,REF\u002A\u002A10,2*%
X163893198Y-113000000D03*
%TO.P,REF\u002A\u002A10,3*%
%TO.N,7A*%
X163893198Y-117200000D03*
%TO.P,REF\u002A\u002A10,4*%
X168493198Y-117200000D03*
%TD*%
%TO.P,REF\u002A\u002A10,1*%
%TO.N,5C*%
X153493198Y-113000000D03*
%TO.P,REF\u002A\u002A10,2*%
X148893198Y-113000000D03*
%TO.P,REF\u002A\u002A10,3*%
%TO.N,5A*%
X148893198Y-117200000D03*
%TO.P,REF\u002A\u002A10,4*%
X153493198Y-117200000D03*
%TD*%
D14*
%TO.P,REF\u002A\u002A,1*%
%TO.N,GND*%
X115000000Y-104000000D03*
D15*
%TO.P,REF\u002A\u002A,2*%
%TO.N,TMP_OUT*%
X115000000Y-106540000D03*
%TO.P,REF\u002A\u002A,3*%
%TO.N,TMP_VDD*%
X115000000Y-109080000D03*
%TD*%
D10*
%TO.P,REF\u002A\u002A10,1*%
%TO.N,0C*%
X153493198Y-98000000D03*
%TO.P,REF\u002A\u002A10,2*%
X148893198Y-98000000D03*
%TO.P,REF\u002A\u002A10,3*%
%TO.N,0A*%
X148893198Y-102200000D03*
%TO.P,REF\u002A\u002A10,4*%
X153493198Y-102200000D03*
%TD*%
%TO.P,REF\u002A\u002A10,1*%
%TO.N,4C*%
X164743198Y-105500000D03*
%TO.P,REF\u002A\u002A10,2*%
X160143198Y-105500000D03*
%TO.P,REF\u002A\u002A10,3*%
%TO.N,4A*%
X160143198Y-109700000D03*
%TO.P,REF\u002A\u002A10,4*%
X164743198Y-109700000D03*
%TD*%
%TO.P,REF\u002A\u002A10,1*%
%TO.N,6C*%
X160993198Y-113000000D03*
%TO.P,REF\u002A\u002A10,2*%
X156393198Y-113000000D03*
%TO.P,REF\u002A\u002A10,3*%
%TO.N,6A*%
X156393198Y-117200000D03*
%TO.P,REF\u002A\u002A10,4*%
X160993198Y-117200000D03*
%TD*%
%TO.P,REF\u002A\u002A10,1*%
%TO.N,3C*%
X157243198Y-105500000D03*
%TO.P,REF\u002A\u002A10,2*%
X152643198Y-105500000D03*
%TO.P,REF\u002A\u002A10,3*%
%TO.N,3A*%
X152643198Y-109700000D03*
%TO.P,REF\u002A\u002A10,4*%
X157243198Y-109700000D03*
%TD*%
D16*
%TO.N,0A*%
X151443198Y-102300000D03*
X129500000Y-102600000D03*
%TO.N,0C*%
X126200000Y-102600000D03*
X147993198Y-98900000D03*
%TO.N,1C*%
X155393198Y-99000000D03*
X126200000Y-103600000D03*
%TO.N,1A*%
X158943198Y-102200000D03*
X130475306Y-103675305D03*
%TO.N,2C*%
X126200000Y-104600003D03*
X162993198Y-98900000D03*
%TO.N,2A*%
X131700611Y-104500611D03*
X166443198Y-102200000D03*
%TO.N,3A*%
X155343198Y-109700000D03*
X129900000Y-107125000D03*
%TO.N,3C*%
X151693198Y-106400000D03*
X126100000Y-105600000D03*
%TO.N,4A*%
X129900000Y-109000000D03*
X162743198Y-109700000D03*
%TO.N,4C*%
X126000000Y-109000000D03*
X159193198Y-106400000D03*
%TO.N,5A*%
X130999049Y-110099049D03*
X151443198Y-117200000D03*
%TO.N,5C*%
X147900000Y-112000000D03*
X126000000Y-110000003D03*
%TO.N,6A*%
X158943198Y-117200000D03*
X132277870Y-110870839D03*
%TO.N,6C*%
X126000000Y-111000006D03*
X155393198Y-114000000D03*
%TO.N,7A*%
X133712653Y-111712653D03*
X166443198Y-117200000D03*
%TO.N,7C*%
X162893198Y-114000000D03*
X126000000Y-112000009D03*
D17*
%TO.N,GND*%
X145000000Y-105000000D03*
D16*
X134900000Y-105675000D03*
%TD*%
D18*
%TO.N,TMP_OUT*%
X143650000Y-108500000D02*
X146002000Y-106148000D01*
X146002000Y-106148000D02*
X146002000Y-104584957D01*
X146002000Y-104584957D02*
X142915043Y-101498000D01*
X142915043Y-101498000D02*
X122002000Y-101498000D01*
X122002000Y-101498000D02*
X116960000Y-106540000D01*
X116960000Y-106540000D02*
X115000000Y-106540000D01*
%TO.N,TMP_VDD*%
X143650000Y-106300000D02*
X144549943Y-106300000D01*
X145601000Y-104751057D02*
X142748943Y-101899000D01*
X122181000Y-101899000D02*
X115000000Y-109080000D01*
X144549943Y-106300000D02*
X145601000Y-105248943D01*
X145601000Y-105248943D02*
X145601000Y-104751057D01*
X142748943Y-101899000D02*
X122181000Y-101899000D01*
%TO.N,GND*%
X145000000Y-105000000D02*
X143650000Y-105000000D01*
X143650000Y-105000000D02*
X142350000Y-106300000D01*
X142350000Y-106300000D02*
X142350000Y-108500000D01*
X143000000Y-108500000D02*
X142350000Y-108500000D01*
D19*
%TO.N,0A*%
X151443198Y-102300000D02*
X153393198Y-102300000D01*
X129200000Y-102900000D02*
X129500000Y-102600000D01*
X151443198Y-102300000D02*
X151343198Y-102200000D01*
X151343198Y-102200000D02*
X148893198Y-102200000D01*
X128100000Y-102900000D02*
X129200000Y-102900000D01*
X153393198Y-102300000D02*
X153493198Y-102200000D01*
X148893198Y-102200000D02*
X148593198Y-102200000D01*
%TO.N,0C*%
X124700000Y-102900000D02*
X125900000Y-102900000D01*
X148893198Y-98000000D02*
X147993198Y-98900000D01*
X125900000Y-102900000D02*
X126200000Y-102600000D01*
X148893198Y-98000000D02*
X153493198Y-98000000D01*
%TO.N,1C*%
X126100000Y-103700000D02*
X126200000Y-103600000D01*
X156393198Y-98000000D02*
X160993198Y-98000000D01*
X156393198Y-98000000D02*
X155393198Y-99000000D01*
X124700000Y-103700000D02*
X126100000Y-103700000D01*
%TO.N,1A*%
X158943198Y-102200000D02*
X160993198Y-102200000D01*
X128124695Y-103675305D02*
X128100000Y-103700000D01*
X130475306Y-103675305D02*
X128124695Y-103675305D01*
X158943198Y-102200000D02*
X156393198Y-102200000D01*
%TO.N,2C*%
X163893198Y-98000000D02*
X162993198Y-98900000D01*
X163893198Y-98000000D02*
X168493198Y-98000000D01*
X124700000Y-104500000D02*
X126099997Y-104500000D01*
X126099997Y-104500000D02*
X126200000Y-104600003D01*
%TO.N,2A*%
X131700000Y-104500000D02*
X128100000Y-104500000D01*
X166443198Y-102200000D02*
X168493198Y-102200000D01*
X166443198Y-102200000D02*
X163893198Y-102200000D01*
X131700611Y-104500611D02*
X131700000Y-104500000D01*
%TO.N,3A*%
X129900000Y-107100000D02*
X128100000Y-105300000D01*
X155343198Y-109700000D02*
X157243198Y-109700000D01*
X129900000Y-107125000D02*
X129900000Y-107100000D01*
X155343198Y-109700000D02*
X152643198Y-109700000D01*
%TO.N,3C*%
X125800000Y-105300000D02*
X126100000Y-105600000D01*
X124700000Y-105300000D02*
X125800000Y-105300000D01*
X152593198Y-105500000D02*
X151693198Y-106400000D01*
X152643198Y-105500000D02*
X157243198Y-105500000D01*
X152643198Y-105500000D02*
X152593198Y-105500000D01*
%TO.N,4A*%
X128400000Y-109000000D02*
X128100000Y-109300000D01*
X162743198Y-109700000D02*
X160143198Y-109700000D01*
X162743198Y-109700000D02*
X164743198Y-109700000D01*
X129900000Y-109000000D02*
X128400000Y-109000000D01*
%TO.N,4C*%
X160143198Y-105500000D02*
X160093198Y-105500000D01*
X160093198Y-105500000D02*
X159193198Y-106400000D01*
X125700000Y-109300000D02*
X126000000Y-109000000D01*
X124700000Y-109300000D02*
X125700000Y-109300000D01*
X160143198Y-105500000D02*
X164743198Y-105500000D01*
%TO.N,5A*%
X151443198Y-117200000D02*
X148893198Y-117200000D01*
X151443198Y-117200000D02*
X153493198Y-117200000D01*
X130998098Y-110100000D02*
X128100000Y-110100000D01*
X130999049Y-110099049D02*
X130998098Y-110100000D01*
%TO.N,5C*%
X124799997Y-110000003D02*
X124700000Y-110100000D01*
X148893198Y-112993198D02*
X147900000Y-112000000D01*
X148893198Y-113000000D02*
X153493198Y-113000000D01*
X148893198Y-113000000D02*
X148893198Y-112993198D01*
X126000000Y-110000003D02*
X124799997Y-110000003D01*
%TO.N,6A*%
X158943198Y-117200000D02*
X156393198Y-117200000D01*
X158943198Y-117200000D02*
X160993198Y-117200000D01*
X132277870Y-110870839D02*
X132248709Y-110900000D01*
X132248709Y-110900000D02*
X128100000Y-110900000D01*
%TO.N,6C*%
X124800006Y-111000006D02*
X124700000Y-110900000D01*
X156393198Y-113000000D02*
X155393198Y-114000000D01*
X126000000Y-111000006D02*
X124800006Y-111000006D01*
X156393198Y-113000000D02*
X160993198Y-113000000D01*
%TO.N,7A*%
X133712653Y-111712653D02*
X133700000Y-111700000D01*
X166443198Y-117200000D02*
X168493198Y-117200000D01*
X166443198Y-117200000D02*
X163893198Y-117200000D01*
X133700000Y-111700000D02*
X128100000Y-111700000D01*
%TO.N,7C*%
X125699991Y-111700000D02*
X124700000Y-111700000D01*
X163893198Y-113000000D02*
X168493198Y-113000000D01*
X163893198Y-113000000D02*
X162893198Y-114000000D01*
X126000000Y-112000009D02*
X125699991Y-111700000D01*
%TO.N,GND*%
X126400000Y-113400000D02*
X127200000Y-113400000D01*
X115000000Y-104000000D02*
X112500000Y-106500000D01*
X134900000Y-105675000D02*
X134900000Y-111550611D01*
X113900000Y-113400000D02*
X125600000Y-113400000D01*
X134900000Y-111550611D02*
X133050611Y-113400000D01*
X133050611Y-113400000D02*
X127200000Y-113400000D01*
X112500000Y-112000000D02*
X113900000Y-113400000D01*
X112500000Y-106500000D02*
X112500000Y-112000000D01*
X124700000Y-112500000D02*
X125600000Y-113400000D01*
X125600000Y-113400000D02*
X126400000Y-113400000D01*
D18*
X144900000Y-105100000D02*
X145000000Y-105000000D01*
D19*
X127200000Y-113400000D02*
X128100000Y-112500000D01*
%TD*%
%TA.AperFunction,NonConductor*%
G36*
X171142539Y-95420185D02*
G01*
X171188294Y-95472989D01*
X171199500Y-95524500D01*
X171199500Y-119675500D01*
X171179815Y-119742539D01*
X171127011Y-119788294D01*
X171075500Y-119799500D01*
X109324500Y-119799500D01*
X109257461Y-119779815D01*
X109211706Y-119727011D01*
X109200500Y-119675500D01*
X109200500Y-117006902D01*
X113499500Y-117006902D01*
X113499500Y-117243097D01*
X113536446Y-117476368D01*
X113609433Y-117700996D01*
X113693749Y-117866474D01*
X113716657Y-117911433D01*
X113855483Y-118102510D01*
X114022490Y-118269517D01*
X114213567Y-118408343D01*
X114312991Y-118459002D01*
X114424003Y-118515566D01*
X114424005Y-118515566D01*
X114424008Y-118515568D01*
X114544412Y-118554689D01*
X114648631Y-118588553D01*
X114881903Y-118625500D01*
X114881908Y-118625500D01*
X115118097Y-118625500D01*
X115351368Y-118588553D01*
X115575992Y-118515568D01*
X115786433Y-118408343D01*
X115977510Y-118269517D01*
X116144517Y-118102510D01*
X116283343Y-117911433D01*
X116390568Y-117700992D01*
X116463553Y-117476368D01*
X116470109Y-117434975D01*
X116500500Y-117243097D01*
X116500500Y-117006902D01*
X116489295Y-116936156D01*
X123974499Y-116936156D01*
X124010065Y-117114952D01*
X124010068Y-117114962D01*
X124079831Y-117283387D01*
X124079833Y-117283391D01*
X124181113Y-117434967D01*
X124181119Y-117434975D01*
X124310024Y-117563880D01*
X124310032Y-117563886D01*
X124461608Y-117665166D01*
X124461612Y-117665168D01*
X124548110Y-117700996D01*
X124630042Y-117734933D01*
X124630046Y-117734933D01*
X124630047Y-117734934D01*
X124808843Y-117770500D01*
X124808846Y-117770500D01*
X124991156Y-117770500D01*
X125111445Y-117746572D01*
X125169958Y-117734933D01*
X125338389Y-117665167D01*
X125338391Y-117665166D01*
X125456156Y-117586478D01*
X125489972Y-117563883D01*
X125618883Y-117434972D01*
X125720167Y-117283389D01*
X125736859Y-117243092D01*
X125789931Y-117114962D01*
X125789933Y-117114958D01*
X125793599Y-117096530D01*
X147842698Y-117096530D01*
X147842698Y-117303469D01*
X147883066Y-117506412D01*
X147883068Y-117506420D01*
X147948823Y-117665167D01*
X147962257Y-117697598D01*
X147987202Y-117734931D01*
X148077222Y-117869657D01*
X148223540Y-118015975D01*
X148223543Y-118015977D01*
X148395600Y-118130941D01*
X148586778Y-118210130D01*
X148789728Y-118250499D01*
X148789732Y-118250500D01*
X148789733Y-118250500D01*
X148996664Y-118250500D01*
X148996665Y-118250499D01*
X149199618Y-118210130D01*
X149390796Y-118130941D01*
X149562853Y-118015977D01*
X149580821Y-117998009D01*
X149713483Y-117865348D01*
X149714609Y-117866474D01*
X149765949Y-117831502D01*
X149804060Y-117825500D01*
X150743837Y-117825500D01*
X150810876Y-117845185D01*
X150831519Y-117861820D01*
X150869159Y-117899461D01*
X150869163Y-117899464D01*
X151016644Y-117998009D01*
X151016657Y-117998016D01*
X151060020Y-118015977D01*
X151180532Y-118065894D01*
X151180534Y-118065894D01*
X151180539Y-118065896D01*
X151354502Y-118100499D01*
X151354505Y-118100500D01*
X151354507Y-118100500D01*
X151531891Y-118100500D01*
X151531892Y-118100499D01*
X151589880Y-118088964D01*
X151705856Y-118065896D01*
X151705859Y-118065894D01*
X151705864Y-118065894D01*
X151869745Y-117998013D01*
X152017233Y-117899464D01*
X152054877Y-117861820D01*
X152116199Y-117828334D01*
X152142559Y-117825500D01*
X152582336Y-117825500D01*
X152649375Y-117845185D01*
X152672494Y-117865766D01*
X152672913Y-117865348D01*
X152823540Y-118015975D01*
X152823543Y-118015977D01*
X152995600Y-118130941D01*
X153186778Y-118210130D01*
X153389728Y-118250499D01*
X153389732Y-118250500D01*
X153389733Y-118250500D01*
X153596664Y-118250500D01*
X153596665Y-118250499D01*
X153799618Y-118210130D01*
X153990796Y-118130941D01*
X154162853Y-118015977D01*
X154309175Y-117869655D01*
X154424139Y-117697598D01*
X154503328Y-117506420D01*
X154543698Y-117303465D01*
X154543698Y-117096535D01*
X154543697Y-117096530D01*
X155342698Y-117096530D01*
X155342698Y-117303469D01*
X155383066Y-117506412D01*
X155383068Y-117506420D01*
X155448823Y-117665167D01*
X155462257Y-117697598D01*
X155487202Y-117734931D01*
X155577222Y-117869657D01*
X155723540Y-118015975D01*
X155723543Y-118015977D01*
X155895600Y-118130941D01*
X156086778Y-118210130D01*
X156289728Y-118250499D01*
X156289732Y-118250500D01*
X156289733Y-118250500D01*
X156496664Y-118250500D01*
X156496665Y-118250499D01*
X156699618Y-118210130D01*
X156890796Y-118130941D01*
X157062853Y-118015977D01*
X157080821Y-117998009D01*
X157213483Y-117865348D01*
X157214609Y-117866474D01*
X157265949Y-117831502D01*
X157304060Y-117825500D01*
X158243837Y-117825500D01*
X158310876Y-117845185D01*
X158331519Y-117861820D01*
X158369159Y-117899461D01*
X158369163Y-117899464D01*
X158516644Y-117998009D01*
X158516657Y-117998016D01*
X158560020Y-118015977D01*
X158680532Y-118065894D01*
X158680534Y-118065894D01*
X158680539Y-118065896D01*
X158854502Y-118100499D01*
X158854505Y-118100500D01*
X158854507Y-118100500D01*
X159031891Y-118100500D01*
X159031892Y-118100499D01*
X159089880Y-118088964D01*
X159205856Y-118065896D01*
X159205859Y-118065894D01*
X159205864Y-118065894D01*
X159369745Y-117998013D01*
X159517233Y-117899464D01*
X159554877Y-117861820D01*
X159616199Y-117828334D01*
X159642559Y-117825500D01*
X160082336Y-117825500D01*
X160149375Y-117845185D01*
X160172494Y-117865766D01*
X160172913Y-117865348D01*
X160323540Y-118015975D01*
X160323543Y-118015977D01*
X160495600Y-118130941D01*
X160686778Y-118210130D01*
X160889728Y-118250499D01*
X160889732Y-118250500D01*
X160889733Y-118250500D01*
X161096664Y-118250500D01*
X161096665Y-118250499D01*
X161299618Y-118210130D01*
X161490796Y-118130941D01*
X161662853Y-118015977D01*
X161809175Y-117869655D01*
X161924139Y-117697598D01*
X162003328Y-117506420D01*
X162043698Y-117303465D01*
X162043698Y-117096535D01*
X162043697Y-117096530D01*
X162842698Y-117096530D01*
X162842698Y-117303469D01*
X162883066Y-117506412D01*
X162883068Y-117506420D01*
X162948823Y-117665167D01*
X162962257Y-117697598D01*
X162987202Y-117734931D01*
X163077222Y-117869657D01*
X163223540Y-118015975D01*
X163223543Y-118015977D01*
X163395600Y-118130941D01*
X163586778Y-118210130D01*
X163789728Y-118250499D01*
X163789732Y-118250500D01*
X163789733Y-118250500D01*
X163996664Y-118250500D01*
X163996665Y-118250499D01*
X164199618Y-118210130D01*
X164390796Y-118130941D01*
X164562853Y-118015977D01*
X164580821Y-117998009D01*
X164713483Y-117865348D01*
X164714609Y-117866474D01*
X164765949Y-117831502D01*
X164804060Y-117825500D01*
X165743837Y-117825500D01*
X165810876Y-117845185D01*
X165831519Y-117861820D01*
X165869159Y-117899461D01*
X165869163Y-117899464D01*
X166016644Y-117998009D01*
X166016657Y-117998016D01*
X166060020Y-118015977D01*
X166180532Y-118065894D01*
X166180534Y-118065894D01*
X166180539Y-118065896D01*
X166354502Y-118100499D01*
X166354505Y-118100500D01*
X166354507Y-118100500D01*
X166531891Y-118100500D01*
X166531892Y-118100499D01*
X166589880Y-118088964D01*
X166705856Y-118065896D01*
X166705859Y-118065894D01*
X166705864Y-118065894D01*
X166869745Y-117998013D01*
X167017233Y-117899464D01*
X167054877Y-117861820D01*
X167116199Y-117828334D01*
X167142559Y-117825500D01*
X167582336Y-117825500D01*
X167649375Y-117845185D01*
X167672494Y-117865766D01*
X167672913Y-117865348D01*
X167823540Y-118015975D01*
X167823543Y-118015977D01*
X167995600Y-118130941D01*
X168186778Y-118210130D01*
X168389728Y-118250499D01*
X168389732Y-118250500D01*
X168389733Y-118250500D01*
X168596664Y-118250500D01*
X168596665Y-118250499D01*
X168799618Y-118210130D01*
X168990796Y-118130941D01*
X169162853Y-118015977D01*
X169309175Y-117869655D01*
X169424139Y-117697598D01*
X169503328Y-117506420D01*
X169543698Y-117303465D01*
X169543698Y-117096535D01*
X169503328Y-116893580D01*
X169424139Y-116702402D01*
X169309175Y-116530345D01*
X169309173Y-116530342D01*
X169162855Y-116384024D01*
X169036354Y-116299500D01*
X168990796Y-116269059D01*
X168956922Y-116255028D01*
X168799618Y-116189870D01*
X168799610Y-116189868D01*
X168596667Y-116149500D01*
X168596663Y-116149500D01*
X168389733Y-116149500D01*
X168389728Y-116149500D01*
X168186785Y-116189868D01*
X168186777Y-116189870D01*
X167995601Y-116269058D01*
X167823540Y-116384024D01*
X167823539Y-116384025D01*
X167672913Y-116534652D01*
X167671786Y-116533525D01*
X167620447Y-116568498D01*
X167582336Y-116574500D01*
X167142559Y-116574500D01*
X167075520Y-116554815D01*
X167054877Y-116538180D01*
X167017236Y-116500538D01*
X167017232Y-116500535D01*
X166869751Y-116401990D01*
X166869738Y-116401983D01*
X166705865Y-116334106D01*
X166705856Y-116334103D01*
X166531892Y-116299500D01*
X166531889Y-116299500D01*
X166354507Y-116299500D01*
X166354504Y-116299500D01*
X166180539Y-116334103D01*
X166180530Y-116334106D01*
X166016657Y-116401983D01*
X166016644Y-116401990D01*
X165869163Y-116500535D01*
X165869159Y-116500538D01*
X165831519Y-116538180D01*
X165770197Y-116571666D01*
X165743837Y-116574500D01*
X164804060Y-116574500D01*
X164737021Y-116554815D01*
X164713901Y-116534233D01*
X164713483Y-116534652D01*
X164562855Y-116384024D01*
X164436354Y-116299500D01*
X164390796Y-116269059D01*
X164356922Y-116255028D01*
X164199618Y-116189870D01*
X164199610Y-116189868D01*
X163996667Y-116149500D01*
X163996663Y-116149500D01*
X163789733Y-116149500D01*
X163789728Y-116149500D01*
X163586785Y-116189868D01*
X163586777Y-116189870D01*
X163395601Y-116269058D01*
X163223540Y-116384024D01*
X163077222Y-116530342D01*
X162962256Y-116702403D01*
X162883068Y-116893579D01*
X162883066Y-116893587D01*
X162842698Y-117096530D01*
X162043697Y-117096530D01*
X162003328Y-116893580D01*
X161924139Y-116702402D01*
X161809175Y-116530345D01*
X161809173Y-116530342D01*
X161662855Y-116384024D01*
X161536354Y-116299500D01*
X161490796Y-116269059D01*
X161456922Y-116255028D01*
X161299618Y-116189870D01*
X161299610Y-116189868D01*
X161096667Y-116149500D01*
X161096663Y-116149500D01*
X160889733Y-116149500D01*
X160889728Y-116149500D01*
X160686785Y-116189868D01*
X160686777Y-116189870D01*
X160495601Y-116269058D01*
X160323540Y-116384024D01*
X160323539Y-116384025D01*
X160172913Y-116534652D01*
X160171786Y-116533525D01*
X160120447Y-116568498D01*
X160082336Y-116574500D01*
X159642559Y-116574500D01*
X159575520Y-116554815D01*
X159554877Y-116538180D01*
X159517236Y-116500538D01*
X159517232Y-116500535D01*
X159369751Y-116401990D01*
X159369738Y-116401983D01*
X159205865Y-116334106D01*
X159205856Y-116334103D01*
X159031892Y-116299500D01*
X159031889Y-116299500D01*
X158854507Y-116299500D01*
X158854504Y-116299500D01*
X158680539Y-116334103D01*
X158680530Y-116334106D01*
X158516657Y-116401983D01*
X158516644Y-116401990D01*
X158369163Y-116500535D01*
X158369159Y-116500538D01*
X158331519Y-116538180D01*
X158270197Y-116571666D01*
X158243837Y-116574500D01*
X157304060Y-116574500D01*
X157237021Y-116554815D01*
X157213901Y-116534233D01*
X157213483Y-116534652D01*
X157062855Y-116384024D01*
X156936354Y-116299500D01*
X156890796Y-116269059D01*
X156856922Y-116255028D01*
X156699618Y-116189870D01*
X156699610Y-116189868D01*
X156496667Y-116149500D01*
X156496663Y-116149500D01*
X156289733Y-116149500D01*
X156289728Y-116149500D01*
X156086785Y-116189868D01*
X156086777Y-116189870D01*
X155895601Y-116269058D01*
X155723540Y-116384024D01*
X155577222Y-116530342D01*
X155462256Y-116702403D01*
X155383068Y-116893579D01*
X155383066Y-116893587D01*
X155342698Y-117096530D01*
X154543697Y-117096530D01*
X154503328Y-116893580D01*
X154424139Y-116702402D01*
X154309175Y-116530345D01*
X154309173Y-116530342D01*
X154162855Y-116384024D01*
X154036354Y-116299500D01*
X153990796Y-116269059D01*
X153956922Y-116255028D01*
X153799618Y-116189870D01*
X153799610Y-116189868D01*
X153596667Y-116149500D01*
X153596663Y-116149500D01*
X153389733Y-116149500D01*
X153389728Y-116149500D01*
X153186785Y-116189868D01*
X153186777Y-116189870D01*
X152995601Y-116269058D01*
X152823540Y-116384024D01*
X152823539Y-116384025D01*
X152672913Y-116534652D01*
X152671786Y-116533525D01*
X152620447Y-116568498D01*
X152582336Y-116574500D01*
X152142559Y-116574500D01*
X152075520Y-116554815D01*
X152054877Y-116538180D01*
X152017236Y-116500538D01*
X152017232Y-116500535D01*
X151869751Y-116401990D01*
X151869738Y-116401983D01*
X151705865Y-116334106D01*
X151705856Y-116334103D01*
X151531892Y-116299500D01*
X151531889Y-116299500D01*
X151354507Y-116299500D01*
X151354504Y-116299500D01*
X151180539Y-116334103D01*
X151180530Y-116334106D01*
X151016657Y-116401983D01*
X151016644Y-116401990D01*
X150869163Y-116500535D01*
X150869159Y-116500538D01*
X150831519Y-116538180D01*
X150770197Y-116571666D01*
X150743837Y-116574500D01*
X149804060Y-116574500D01*
X149737021Y-116554815D01*
X149713901Y-116534233D01*
X149713483Y-116534652D01*
X149562855Y-116384024D01*
X149436354Y-116299500D01*
X149390796Y-116269059D01*
X149356922Y-116255028D01*
X149199618Y-116189870D01*
X149199610Y-116189868D01*
X148996667Y-116149500D01*
X148996663Y-116149500D01*
X148789733Y-116149500D01*
X148789728Y-116149500D01*
X148586785Y-116189868D01*
X148586777Y-116189870D01*
X148395601Y-116269058D01*
X148223540Y-116384024D01*
X148077222Y-116530342D01*
X147962256Y-116702403D01*
X147883068Y-116893579D01*
X147883066Y-116893587D01*
X147842698Y-117096530D01*
X125793599Y-117096530D01*
X125825500Y-116936154D01*
X125825500Y-116850082D01*
X125826403Y-116842642D01*
X125837370Y-116817154D01*
X125845185Y-116790543D01*
X125850985Y-116785516D01*
X125854021Y-116778463D01*
X125877028Y-116762950D01*
X125897989Y-116744788D01*
X125905586Y-116743695D01*
X125911953Y-116739403D01*
X125939690Y-116738791D01*
X125967147Y-116734844D01*
X125980278Y-116737897D01*
X125981806Y-116737864D01*
X125982830Y-116738491D01*
X125987808Y-116739648D01*
X126115253Y-116781058D01*
X126304299Y-116811000D01*
X126304300Y-116811000D01*
X126495700Y-116811000D01*
X126495701Y-116811000D01*
X126684747Y-116781058D01*
X126866782Y-116721911D01*
X127037323Y-116635016D01*
X127192171Y-116522513D01*
X127327513Y-116387171D01*
X127440016Y-116232323D01*
X127526911Y-116061782D01*
X127586058Y-115879747D01*
X127616000Y-115690701D01*
X127616000Y-115499299D01*
X127586058Y-115310253D01*
X127526911Y-115128218D01*
X127440016Y-114957677D01*
X127373332Y-114865894D01*
X127327518Y-114802835D01*
X127327514Y-114802830D01*
X127192169Y-114667485D01*
X127192164Y-114667481D01*
X127037326Y-114554986D01*
X127037325Y-114554985D01*
X127037323Y-114554984D01*
X126866782Y-114468089D01*
X126684747Y-114408942D01*
X126684745Y-114408941D01*
X126684744Y-114408941D01*
X126539523Y-114385940D01*
X126495701Y-114379000D01*
X126304299Y-114379000D01*
X126268723Y-114384634D01*
X126115255Y-114408941D01*
X125933215Y-114468090D01*
X125762673Y-114554986D01*
X125607835Y-114667481D01*
X125607830Y-114667485D01*
X125472485Y-114802830D01*
X125472481Y-114802835D01*
X125359986Y-114957673D01*
X125273090Y-115128215D01*
X125213941Y-115310255D01*
X125184000Y-115499299D01*
X125184000Y-115690701D01*
X125193259Y-115749159D01*
X125199858Y-115790825D01*
X125190903Y-115860119D01*
X125145907Y-115913571D01*
X125079155Y-115934210D01*
X125053194Y-115931840D01*
X124991157Y-115919500D01*
X124991154Y-115919500D01*
X124808846Y-115919500D01*
X124808844Y-115919500D01*
X124630047Y-115955065D01*
X124630037Y-115955068D01*
X124461612Y-116024831D01*
X124461608Y-116024833D01*
X124310032Y-116126113D01*
X124310024Y-116126119D01*
X124181119Y-116255024D01*
X124181113Y-116255032D01*
X124079833Y-116406608D01*
X124079831Y-116406612D01*
X124010068Y-116575037D01*
X124010065Y-116575047D01*
X123974500Y-116753843D01*
X123974500Y-116753846D01*
X123974500Y-116936154D01*
X123974500Y-116936156D01*
X123974499Y-116936156D01*
X116489295Y-116936156D01*
X116463553Y-116773631D01*
X116416810Y-116629773D01*
X116390568Y-116549008D01*
X116390566Y-116549005D01*
X116390566Y-116549003D01*
X116334002Y-116437991D01*
X116283343Y-116338567D01*
X116144517Y-116147490D01*
X115977510Y-115980483D01*
X115786433Y-115841657D01*
X115575996Y-115734433D01*
X115351368Y-115661446D01*
X115118097Y-115624500D01*
X115118092Y-115624500D01*
X114881908Y-115624500D01*
X114881903Y-115624500D01*
X114648631Y-115661446D01*
X114424003Y-115734433D01*
X114213566Y-115841657D01*
X114114586Y-115913571D01*
X114022490Y-115980483D01*
X114022488Y-115980485D01*
X114022487Y-115980485D01*
X113855485Y-116147487D01*
X113855485Y-116147488D01*
X113855483Y-116147490D01*
X113824692Y-116189870D01*
X113716657Y-116338566D01*
X113609433Y-116549003D01*
X113536446Y-116773631D01*
X113499500Y-117006902D01*
X109200500Y-117006902D01*
X109200500Y-106438394D01*
X111874500Y-106438394D01*
X111874500Y-106445424D01*
X111874500Y-112061610D01*
X111898535Y-112182443D01*
X111898538Y-112182455D01*
X111905549Y-112199382D01*
X111907602Y-112204337D01*
X111945688Y-112296286D01*
X111979915Y-112347509D01*
X111983996Y-112353616D01*
X112014141Y-112398733D01*
X112105586Y-112490178D01*
X112105608Y-112490198D01*
X113414139Y-113798729D01*
X113414142Y-113798733D01*
X113501267Y-113885858D01*
X113539357Y-113911309D01*
X113603714Y-113954312D01*
X113603719Y-113954314D01*
X113677390Y-113984829D01*
X113677394Y-113984830D01*
X113684207Y-113987652D01*
X113717548Y-114001463D01*
X113777971Y-114013481D01*
X113838393Y-114025500D01*
X133112218Y-114025500D01*
X133172640Y-114013481D01*
X133233063Y-114001463D01*
X133266403Y-113987652D01*
X133346897Y-113954312D01*
X133411254Y-113911309D01*
X133449344Y-113885858D01*
X133536469Y-113798733D01*
X133536470Y-113798730D01*
X133543536Y-113791665D01*
X133543539Y-113791661D01*
X135298729Y-112036471D01*
X135298733Y-112036469D01*
X135385858Y-111949344D01*
X135411276Y-111911304D01*
X146999500Y-111911304D01*
X146999500Y-112088695D01*
X147034103Y-112262658D01*
X147034106Y-112262667D01*
X147101983Y-112426540D01*
X147101990Y-112426553D01*
X147200535Y-112574034D01*
X147200538Y-112574038D01*
X147325961Y-112699461D01*
X147325965Y-112699464D01*
X147473446Y-112798009D01*
X147473459Y-112798016D01*
X147550106Y-112829763D01*
X147637334Y-112865894D01*
X147742891Y-112886890D01*
X147804800Y-112919274D01*
X147839374Y-112979990D01*
X147842698Y-113008507D01*
X147842698Y-113103469D01*
X147883066Y-113306412D01*
X147883068Y-113306420D01*
X147962256Y-113497596D01*
X148077222Y-113669657D01*
X148223540Y-113815975D01*
X148223543Y-113815977D01*
X148395600Y-113930941D01*
X148586778Y-114010130D01*
X148789728Y-114050499D01*
X148789732Y-114050500D01*
X148789733Y-114050500D01*
X148996664Y-114050500D01*
X148996665Y-114050499D01*
X149199618Y-114010130D01*
X149390796Y-113930941D01*
X149562853Y-113815977D01*
X149630389Y-113748441D01*
X149713483Y-113665348D01*
X149714609Y-113666474D01*
X149765949Y-113631502D01*
X149804060Y-113625500D01*
X152582336Y-113625500D01*
X152649375Y-113645185D01*
X152672494Y-113665766D01*
X152672913Y-113665348D01*
X152823540Y-113815975D01*
X152823543Y-113815977D01*
X152995600Y-113930941D01*
X153186778Y-114010130D01*
X153389728Y-114050499D01*
X153389732Y-114050500D01*
X153389733Y-114050500D01*
X153596664Y-114050500D01*
X153596665Y-114050499D01*
X153799618Y-114010130D01*
X153990796Y-113930941D01*
X154162853Y-113815977D01*
X154309175Y-113669655D01*
X154309177Y-113669651D01*
X154309223Y-113669606D01*
X154370547Y-113636121D01*
X154440238Y-113641105D01*
X154496172Y-113682976D01*
X154520589Y-113748441D01*
X154518522Y-113781478D01*
X154492698Y-113911304D01*
X154492698Y-114088695D01*
X154527301Y-114262658D01*
X154527304Y-114262667D01*
X154595181Y-114426540D01*
X154595188Y-114426553D01*
X154693733Y-114574034D01*
X154693736Y-114574038D01*
X154819159Y-114699461D01*
X154819163Y-114699464D01*
X154966644Y-114798009D01*
X154966657Y-114798016D01*
X155089561Y-114848923D01*
X155130532Y-114865894D01*
X155130534Y-114865894D01*
X155130539Y-114865896D01*
X155304502Y-114900499D01*
X155304505Y-114900500D01*
X155304507Y-114900500D01*
X155481891Y-114900500D01*
X155481892Y-114900499D01*
X155539880Y-114888964D01*
X155655856Y-114865896D01*
X155655859Y-114865894D01*
X155655864Y-114865894D01*
X155819745Y-114798013D01*
X155967233Y-114699464D01*
X156092662Y-114574035D01*
X156191211Y-114426547D01*
X156259092Y-114262666D01*
X156259094Y-114262657D01*
X156281442Y-114150309D01*
X156313827Y-114088398D01*
X156374543Y-114053823D01*
X156403059Y-114050500D01*
X156496664Y-114050500D01*
X156496665Y-114050499D01*
X156699618Y-114010130D01*
X156890796Y-113930941D01*
X157062853Y-113815977D01*
X157130389Y-113748441D01*
X157213483Y-113665348D01*
X157214609Y-113666474D01*
X157265949Y-113631502D01*
X157304060Y-113625500D01*
X160082336Y-113625500D01*
X160149375Y-113645185D01*
X160172494Y-113665766D01*
X160172913Y-113665348D01*
X160323540Y-113815975D01*
X160323543Y-113815977D01*
X160495600Y-113930941D01*
X160686778Y-114010130D01*
X160889728Y-114050499D01*
X160889732Y-114050500D01*
X160889733Y-114050500D01*
X161096664Y-114050500D01*
X161096665Y-114050499D01*
X161299618Y-114010130D01*
X161490796Y-113930941D01*
X161662853Y-113815977D01*
X161809175Y-113669655D01*
X161809177Y-113669651D01*
X161809223Y-113669606D01*
X161870547Y-113636121D01*
X161940238Y-113641105D01*
X161996172Y-113682976D01*
X162020589Y-113748441D01*
X162018522Y-113781478D01*
X161992698Y-113911304D01*
X161992698Y-114088695D01*
X162027301Y-114262658D01*
X162027304Y-114262667D01*
X162095181Y-114426540D01*
X162095188Y-114426553D01*
X162193733Y-114574034D01*
X162193736Y-114574038D01*
X162319159Y-114699461D01*
X162319163Y-114699464D01*
X162466644Y-114798009D01*
X162466657Y-114798016D01*
X162589561Y-114848923D01*
X162630532Y-114865894D01*
X162630534Y-114865894D01*
X162630539Y-114865896D01*
X162804502Y-114900499D01*
X162804505Y-114900500D01*
X162804507Y-114900500D01*
X162981891Y-114900500D01*
X162981892Y-114900499D01*
X163039880Y-114888964D01*
X163155856Y-114865896D01*
X163155859Y-114865894D01*
X163155864Y-114865894D01*
X163319745Y-114798013D01*
X163467233Y-114699464D01*
X163592662Y-114574035D01*
X163691211Y-114426547D01*
X163759092Y-114262666D01*
X163759094Y-114262657D01*
X163781442Y-114150309D01*
X163813827Y-114088398D01*
X163874543Y-114053823D01*
X163903059Y-114050500D01*
X163996664Y-114050500D01*
X163996665Y-114050499D01*
X164199618Y-114010130D01*
X164390796Y-113930941D01*
X164562853Y-113815977D01*
X164630389Y-113748441D01*
X164713483Y-113665348D01*
X164714609Y-113666474D01*
X164765949Y-113631502D01*
X164804060Y-113625500D01*
X167582336Y-113625500D01*
X167649375Y-113645185D01*
X167672494Y-113665766D01*
X167672913Y-113665348D01*
X167823540Y-113815975D01*
X167823543Y-113815977D01*
X167995600Y-113930941D01*
X168186778Y-114010130D01*
X168389728Y-114050499D01*
X168389732Y-114050500D01*
X168389733Y-114050500D01*
X168596664Y-114050500D01*
X168596665Y-114050499D01*
X168799618Y-114010130D01*
X168990796Y-113930941D01*
X169162853Y-113815977D01*
X169309175Y-113669655D01*
X169424139Y-113497598D01*
X169503328Y-113306420D01*
X169543698Y-113103465D01*
X169543698Y-112896535D01*
X169503328Y-112693580D01*
X169424139Y-112502402D01*
X169309175Y-112330345D01*
X169309173Y-112330342D01*
X169162855Y-112184024D01*
X169020191Y-112088700D01*
X168990796Y-112069059D01*
X168981892Y-112065371D01*
X168799618Y-111989870D01*
X168799610Y-111989868D01*
X168596667Y-111949500D01*
X168596663Y-111949500D01*
X168389733Y-111949500D01*
X168389728Y-111949500D01*
X168186785Y-111989868D01*
X168186777Y-111989870D01*
X167995601Y-112069058D01*
X167823540Y-112184024D01*
X167823539Y-112184025D01*
X167672913Y-112334652D01*
X167671786Y-112333525D01*
X167620447Y-112368498D01*
X167582336Y-112374500D01*
X164804060Y-112374500D01*
X164737021Y-112354815D01*
X164713901Y-112334233D01*
X164713483Y-112334652D01*
X164562855Y-112184024D01*
X164420191Y-112088700D01*
X164390796Y-112069059D01*
X164381892Y-112065371D01*
X164199618Y-111989870D01*
X164199610Y-111989868D01*
X163996667Y-111949500D01*
X163996663Y-111949500D01*
X163789733Y-111949500D01*
X163789728Y-111949500D01*
X163586785Y-111989868D01*
X163586777Y-111989870D01*
X163395601Y-112069058D01*
X163223540Y-112184024D01*
X163077222Y-112330342D01*
X162962256Y-112502403D01*
X162883068Y-112693579D01*
X162883066Y-112693587D01*
X162842698Y-112896530D01*
X162842698Y-112990139D01*
X162823013Y-113057178D01*
X162770209Y-113102933D01*
X162742889Y-113111756D01*
X162630540Y-113134103D01*
X162630530Y-113134106D01*
X162466657Y-113201983D01*
X162466644Y-113201990D01*
X162319163Y-113300535D01*
X162215412Y-113404286D01*
X162154089Y-113437770D01*
X162084397Y-113432786D01*
X162028464Y-113390914D01*
X162004047Y-113325449D01*
X162006114Y-113292413D01*
X162024101Y-113201987D01*
X162043698Y-113103465D01*
X162043698Y-112896535D01*
X162003328Y-112693580D01*
X161924139Y-112502402D01*
X161809175Y-112330345D01*
X161809173Y-112330342D01*
X161662855Y-112184024D01*
X161520191Y-112088700D01*
X161490796Y-112069059D01*
X161481892Y-112065371D01*
X161299618Y-111989870D01*
X161299610Y-111989868D01*
X161096667Y-111949500D01*
X161096663Y-111949500D01*
X160889733Y-111949500D01*
X160889728Y-111949500D01*
X160686785Y-111989868D01*
X160686777Y-111989870D01*
X160495601Y-112069058D01*
X160323540Y-112184024D01*
X160323539Y-112184025D01*
X160172913Y-112334652D01*
X160171786Y-112333525D01*
X160120447Y-112368498D01*
X160082336Y-112374500D01*
X157304060Y-112374500D01*
X157237021Y-112354815D01*
X157213901Y-112334233D01*
X157213483Y-112334652D01*
X157062855Y-112184024D01*
X156920191Y-112088700D01*
X156890796Y-112069059D01*
X156881892Y-112065371D01*
X156699618Y-111989870D01*
X156699610Y-111989868D01*
X156496667Y-111949500D01*
X156496663Y-111949500D01*
X156289733Y-111949500D01*
X156289728Y-111949500D01*
X156086785Y-111989868D01*
X156086777Y-111989870D01*
X155895601Y-112069058D01*
X155723540Y-112184024D01*
X155577222Y-112330342D01*
X155462256Y-112502403D01*
X155383068Y-112693579D01*
X155383066Y-112693587D01*
X155342698Y-112896530D01*
X155342698Y-112990139D01*
X155323013Y-113057178D01*
X155270209Y-113102933D01*
X155242889Y-113111756D01*
X155130540Y-113134103D01*
X155130530Y-113134106D01*
X154966657Y-113201983D01*
X154966644Y-113201990D01*
X154819163Y-113300535D01*
X154715412Y-113404286D01*
X154654089Y-113437770D01*
X154584397Y-113432786D01*
X154528464Y-113390914D01*
X154504047Y-113325449D01*
X154506114Y-113292413D01*
X154524101Y-113201987D01*
X154543698Y-113103465D01*
X154543698Y-112896535D01*
X154503328Y-112693580D01*
X154424139Y-112502402D01*
X154309175Y-112330345D01*
X154309173Y-112330342D01*
X154162855Y-112184024D01*
X154020191Y-112088700D01*
X153990796Y-112069059D01*
X153981892Y-112065371D01*
X153799618Y-111989870D01*
X153799610Y-111989868D01*
X153596667Y-111949500D01*
X153596663Y-111949500D01*
X153389733Y-111949500D01*
X153389728Y-111949500D01*
X153186785Y-111989868D01*
X153186777Y-111989870D01*
X152995601Y-112069058D01*
X152823540Y-112184024D01*
X152823539Y-112184025D01*
X152672913Y-112334652D01*
X152671786Y-112333525D01*
X152620447Y-112368498D01*
X152582336Y-112374500D01*
X149804060Y-112374500D01*
X149737021Y-112354815D01*
X149713901Y-112334233D01*
X149713483Y-112334652D01*
X149562855Y-112184024D01*
X149420191Y-112088700D01*
X149390796Y-112069059D01*
X149381892Y-112065371D01*
X149199618Y-111989870D01*
X149199610Y-111989868D01*
X148996667Y-111949500D01*
X148996663Y-111949500D01*
X148909861Y-111949500D01*
X148842822Y-111929815D01*
X148797067Y-111877011D01*
X148788244Y-111849691D01*
X148765896Y-111737342D01*
X148765893Y-111737332D01*
X148764121Y-111733055D01*
X148698017Y-111573462D01*
X148698016Y-111573459D01*
X148698009Y-111573446D01*
X148599464Y-111425965D01*
X148599461Y-111425961D01*
X148474038Y-111300538D01*
X148474034Y-111300535D01*
X148326553Y-111201990D01*
X148326540Y-111201983D01*
X148162667Y-111134106D01*
X148162658Y-111134103D01*
X147988694Y-111099500D01*
X147988691Y-111099500D01*
X147811309Y-111099500D01*
X147811306Y-111099500D01*
X147637341Y-111134103D01*
X147637332Y-111134106D01*
X147473459Y-111201983D01*
X147473446Y-111201990D01*
X147325965Y-111300535D01*
X147325961Y-111300538D01*
X147200538Y-111425961D01*
X147200535Y-111425965D01*
X147101990Y-111573446D01*
X147101983Y-111573459D01*
X147034106Y-111737332D01*
X147034103Y-111737341D01*
X146999500Y-111911304D01*
X135411276Y-111911304D01*
X135430555Y-111882451D01*
X135454312Y-111846897D01*
X135494654Y-111749501D01*
X135501463Y-111733063D01*
X135510118Y-111689548D01*
X135517885Y-111650503D01*
X135517885Y-111650500D01*
X135525500Y-111612218D01*
X135525500Y-111489004D01*
X135525500Y-109596530D01*
X151592698Y-109596530D01*
X151592698Y-109803469D01*
X151633066Y-110006412D01*
X151633068Y-110006420D01*
X151712256Y-110197596D01*
X151827222Y-110369657D01*
X151973540Y-110515975D01*
X151973543Y-110515977D01*
X152145600Y-110630941D01*
X152336778Y-110710130D01*
X152473573Y-110737340D01*
X152539728Y-110750499D01*
X152539732Y-110750500D01*
X152539733Y-110750500D01*
X152746664Y-110750500D01*
X152746665Y-110750499D01*
X152949618Y-110710130D01*
X153140796Y-110630941D01*
X153312853Y-110515977D01*
X153384545Y-110444285D01*
X153463483Y-110365348D01*
X153464609Y-110366474D01*
X153515949Y-110331502D01*
X153554060Y-110325500D01*
X154643837Y-110325500D01*
X154710876Y-110345185D01*
X154731519Y-110361820D01*
X154769159Y-110399461D01*
X154769163Y-110399464D01*
X154916644Y-110498009D01*
X154916657Y-110498016D01*
X155021388Y-110541396D01*
X155080532Y-110565894D01*
X155080534Y-110565894D01*
X155080539Y-110565896D01*
X155254502Y-110600499D01*
X155254505Y-110600500D01*
X155254507Y-110600500D01*
X155431891Y-110600500D01*
X155431892Y-110600499D01*
X155489880Y-110588964D01*
X155605856Y-110565896D01*
X155605859Y-110565894D01*
X155605864Y-110565894D01*
X155769745Y-110498013D01*
X155917233Y-110399464D01*
X155954877Y-110361820D01*
X156016199Y-110328334D01*
X156042559Y-110325500D01*
X156332336Y-110325500D01*
X156399375Y-110345185D01*
X156422494Y-110365766D01*
X156422913Y-110365348D01*
X156573540Y-110515975D01*
X156573543Y-110515977D01*
X156745600Y-110630941D01*
X156936778Y-110710130D01*
X157073573Y-110737340D01*
X157139728Y-110750499D01*
X157139732Y-110750500D01*
X157139733Y-110750500D01*
X157346664Y-110750500D01*
X157346665Y-110750499D01*
X157549618Y-110710130D01*
X157740796Y-110630941D01*
X157912853Y-110515977D01*
X158059175Y-110369655D01*
X158174139Y-110197598D01*
X158253328Y-110006420D01*
X158293698Y-109803465D01*
X158293698Y-109596535D01*
X158293697Y-109596530D01*
X159092698Y-109596530D01*
X159092698Y-109803469D01*
X159133066Y-110006412D01*
X159133068Y-110006420D01*
X159212256Y-110197596D01*
X159327222Y-110369657D01*
X159473540Y-110515975D01*
X159473543Y-110515977D01*
X159645600Y-110630941D01*
X159836778Y-110710130D01*
X159973573Y-110737340D01*
X160039728Y-110750499D01*
X160039732Y-110750500D01*
X160039733Y-110750500D01*
X160246664Y-110750500D01*
X160246665Y-110750499D01*
X160449618Y-110710130D01*
X160640796Y-110630941D01*
X160812853Y-110515977D01*
X160884545Y-110444285D01*
X160963483Y-110365348D01*
X160964609Y-110366474D01*
X161015949Y-110331502D01*
X161054060Y-110325500D01*
X162043837Y-110325500D01*
X162110876Y-110345185D01*
X162131519Y-110361820D01*
X162169159Y-110399461D01*
X162169163Y-110399464D01*
X162316644Y-110498009D01*
X162316657Y-110498016D01*
X162421388Y-110541396D01*
X162480532Y-110565894D01*
X162480534Y-110565894D01*
X162480539Y-110565896D01*
X162654502Y-110600499D01*
X162654505Y-110600500D01*
X162654507Y-110600500D01*
X162831891Y-110600500D01*
X162831892Y-110600499D01*
X162889880Y-110588964D01*
X163005856Y-110565896D01*
X163005859Y-110565894D01*
X163005864Y-110565894D01*
X163169745Y-110498013D01*
X163317233Y-110399464D01*
X163354877Y-110361820D01*
X163416199Y-110328334D01*
X163442559Y-110325500D01*
X163832336Y-110325500D01*
X163899375Y-110345185D01*
X163922494Y-110365766D01*
X163922913Y-110365348D01*
X164073540Y-110515975D01*
X164073543Y-110515977D01*
X164245600Y-110630941D01*
X164436778Y-110710130D01*
X164573573Y-110737340D01*
X164639728Y-110750499D01*
X164639732Y-110750500D01*
X164639733Y-110750500D01*
X164846664Y-110750500D01*
X164846665Y-110750499D01*
X165049618Y-110710130D01*
X165240796Y-110630941D01*
X165412853Y-110515977D01*
X165559175Y-110369655D01*
X165674139Y-110197598D01*
X165753328Y-110006420D01*
X165793698Y-109803465D01*
X165793698Y-109596535D01*
X165753328Y-109393580D01*
X165674139Y-109202402D01*
X165559175Y-109030345D01*
X165559173Y-109030342D01*
X165412855Y-108884024D01*
X165245471Y-108772183D01*
X165240796Y-108769059D01*
X165164222Y-108737341D01*
X165049618Y-108689870D01*
X165049610Y-108689868D01*
X164846667Y-108649500D01*
X164846663Y-108649500D01*
X164639733Y-108649500D01*
X164639728Y-108649500D01*
X164436785Y-108689868D01*
X164436777Y-108689870D01*
X164245601Y-108769058D01*
X164073540Y-108884024D01*
X164073539Y-108884025D01*
X163922913Y-109034652D01*
X163921786Y-109033525D01*
X163870447Y-109068498D01*
X163832336Y-109074500D01*
X163442559Y-109074500D01*
X163375520Y-109054815D01*
X163354877Y-109038180D01*
X163317236Y-109000538D01*
X163317232Y-109000535D01*
X163169751Y-108901990D01*
X163169738Y-108901983D01*
X163005865Y-108834106D01*
X163005856Y-108834103D01*
X162831892Y-108799500D01*
X162831889Y-108799500D01*
X162654507Y-108799500D01*
X162654504Y-108799500D01*
X162480539Y-108834103D01*
X162480530Y-108834106D01*
X162316657Y-108901983D01*
X162316644Y-108901990D01*
X162169163Y-109000535D01*
X162169159Y-109000538D01*
X162131519Y-109038180D01*
X162070197Y-109071666D01*
X162043837Y-109074500D01*
X161054060Y-109074500D01*
X160987021Y-109054815D01*
X160963901Y-109034233D01*
X160963483Y-109034652D01*
X160812855Y-108884024D01*
X160645471Y-108772183D01*
X160640796Y-108769059D01*
X160564222Y-108737341D01*
X160449618Y-108689870D01*
X160449610Y-108689868D01*
X160246667Y-108649500D01*
X160246663Y-108649500D01*
X160039733Y-108649500D01*
X160039728Y-108649500D01*
X159836785Y-108689868D01*
X159836777Y-108689870D01*
X159645601Y-108769058D01*
X159473540Y-108884024D01*
X159327222Y-109030342D01*
X159212256Y-109202403D01*
X159133068Y-109393579D01*
X159133066Y-109393587D01*
X159092698Y-109596530D01*
X158293697Y-109596530D01*
X158253328Y-109393580D01*
X158174139Y-109202402D01*
X158059175Y-109030345D01*
X158059173Y-109030342D01*
X157912855Y-108884024D01*
X157745471Y-108772183D01*
X157740796Y-108769059D01*
X157664222Y-108737341D01*
X157549618Y-108689870D01*
X157549610Y-108689868D01*
X157346667Y-108649500D01*
X157346663Y-108649500D01*
X157139733Y-108649500D01*
X157139728Y-108649500D01*
X156936785Y-108689868D01*
X156936777Y-108689870D01*
X156745601Y-108769058D01*
X156573540Y-108884024D01*
X156573539Y-108884025D01*
X156422913Y-109034652D01*
X156421786Y-109033525D01*
X156370447Y-109068498D01*
X156332336Y-109074500D01*
X156042559Y-109074500D01*
X155975520Y-109054815D01*
X155954877Y-109038180D01*
X155917236Y-109000538D01*
X155917232Y-109000535D01*
X155769751Y-108901990D01*
X155769738Y-108901983D01*
X155605865Y-108834106D01*
X155605856Y-108834103D01*
X155431892Y-108799500D01*
X155431889Y-108799500D01*
X155254507Y-108799500D01*
X155254504Y-108799500D01*
X155080539Y-108834103D01*
X155080530Y-108834106D01*
X154916657Y-108901983D01*
X154916644Y-108901990D01*
X154769163Y-109000535D01*
X154769159Y-109000538D01*
X154731519Y-109038180D01*
X154670197Y-109071666D01*
X154643837Y-109074500D01*
X153554060Y-109074500D01*
X153487021Y-109054815D01*
X153463901Y-109034233D01*
X153463483Y-109034652D01*
X153312855Y-108884024D01*
X153145471Y-108772183D01*
X153140796Y-108769059D01*
X153064222Y-108737341D01*
X152949618Y-108689870D01*
X152949610Y-108689868D01*
X152746667Y-108649500D01*
X152746663Y-108649500D01*
X152539733Y-108649500D01*
X152539728Y-108649500D01*
X152336785Y-108689868D01*
X152336777Y-108689870D01*
X152145601Y-108769058D01*
X151973540Y-108884024D01*
X151827222Y-109030342D01*
X151712256Y-109202403D01*
X151633068Y-109393579D01*
X151633066Y-109393587D01*
X151592698Y-109596530D01*
X135525500Y-109596530D01*
X135525500Y-106374361D01*
X135545185Y-106307322D01*
X135561820Y-106286679D01*
X135599461Y-106249038D01*
X135599464Y-106249035D01*
X135698013Y-106101547D01*
X135765894Y-105937666D01*
X135768621Y-105923960D01*
X135800499Y-105763695D01*
X135800500Y-105763693D01*
X135800500Y-105586306D01*
X135800499Y-105586304D01*
X135765896Y-105412341D01*
X135765893Y-105412332D01*
X135698016Y-105248459D01*
X135698009Y-105248446D01*
X135599464Y-105100965D01*
X135599461Y-105100961D01*
X135474038Y-104975538D01*
X135474034Y-104975535D01*
X135326553Y-104876990D01*
X135326540Y-104876983D01*
X135162667Y-104809106D01*
X135162658Y-104809103D01*
X134988694Y-104774500D01*
X134988691Y-104774500D01*
X134811309Y-104774500D01*
X134811306Y-104774500D01*
X134637341Y-104809103D01*
X134637332Y-104809106D01*
X134473459Y-104876983D01*
X134473446Y-104876990D01*
X134325965Y-104975535D01*
X134325961Y-104975538D01*
X134200538Y-105100961D01*
X134200535Y-105100965D01*
X134101990Y-105248446D01*
X134101983Y-105248459D01*
X134034106Y-105412332D01*
X134034103Y-105412341D01*
X133999500Y-105586304D01*
X133999500Y-105763695D01*
X134034103Y-105937658D01*
X134034106Y-105937667D01*
X134101983Y-106101540D01*
X134101990Y-106101553D01*
X134200535Y-106249034D01*
X134200538Y-106249038D01*
X134238180Y-106286679D01*
X134271666Y-106348001D01*
X134274500Y-106374361D01*
X134274500Y-110785104D01*
X134254815Y-110852143D01*
X134202011Y-110897898D01*
X134132853Y-110907842D01*
X134103048Y-110899665D01*
X133975320Y-110846759D01*
X133975311Y-110846756D01*
X133801347Y-110812153D01*
X133801344Y-110812153D01*
X133623962Y-110812153D01*
X133623959Y-110812153D01*
X133449994Y-110846756D01*
X133449985Y-110846759D01*
X133349597Y-110888341D01*
X133280127Y-110895810D01*
X133217648Y-110864534D01*
X133181997Y-110804445D01*
X133178741Y-110785921D01*
X133178370Y-110782159D01*
X133178370Y-110782148D01*
X133164045Y-110710130D01*
X133143766Y-110608180D01*
X133143763Y-110608171D01*
X133141255Y-110602117D01*
X133105575Y-110515975D01*
X133075886Y-110444298D01*
X133075879Y-110444285D01*
X132977334Y-110296804D01*
X132977331Y-110296800D01*
X132851908Y-110171377D01*
X132851904Y-110171374D01*
X132704423Y-110072829D01*
X132704410Y-110072822D01*
X132540537Y-110004945D01*
X132540528Y-110004942D01*
X132366564Y-109970339D01*
X132366561Y-109970339D01*
X132189179Y-109970339D01*
X132189174Y-109970339D01*
X132024532Y-110003088D01*
X131954940Y-109996861D01*
X131899763Y-109953997D01*
X131878724Y-109905662D01*
X131864945Y-109836390D01*
X131864942Y-109836381D01*
X131797065Y-109672508D01*
X131797058Y-109672495D01*
X131698513Y-109525014D01*
X131698510Y-109525010D01*
X131573087Y-109399587D01*
X131573083Y-109399584D01*
X131425602Y-109301039D01*
X131425589Y-109301032D01*
X131261716Y-109233155D01*
X131261707Y-109233152D01*
X131087743Y-109198549D01*
X131087740Y-109198549D01*
X130924500Y-109198549D01*
X130857461Y-109178864D01*
X130811706Y-109126060D01*
X130800500Y-109074549D01*
X130800500Y-108911306D01*
X130800499Y-108911304D01*
X130765896Y-108737341D01*
X130765893Y-108737332D01*
X130698016Y-108573459D01*
X130698009Y-108573446D01*
X130599464Y-108425965D01*
X130599461Y-108425961D01*
X130474038Y-108300538D01*
X130474034Y-108300535D01*
X130326553Y-108201990D01*
X130326549Y-108201988D01*
X130326537Y-108201983D01*
X130266367Y-108177060D01*
X130211967Y-108133221D01*
X130189901Y-108066927D01*
X130207180Y-107999228D01*
X130258316Y-107951617D01*
X130266349Y-107947947D01*
X130326547Y-107923013D01*
X130474035Y-107824464D01*
X130599464Y-107699035D01*
X130698013Y-107551547D01*
X130765894Y-107387666D01*
X130775246Y-107340654D01*
X130800499Y-107213695D01*
X130800500Y-107213693D01*
X130800500Y-107036306D01*
X130800499Y-107036304D01*
X130765896Y-106862341D01*
X130765893Y-106862332D01*
X130698016Y-106698459D01*
X130698009Y-106698446D01*
X130599464Y-106550965D01*
X130599461Y-106550961D01*
X130474038Y-106425538D01*
X130474034Y-106425535D01*
X130326553Y-106326990D01*
X130326540Y-106326983D01*
X130162667Y-106259106D01*
X130162658Y-106259103D01*
X129988694Y-106224500D01*
X129988691Y-106224500D01*
X129960453Y-106224500D01*
X129893414Y-106204815D01*
X129872772Y-106188181D01*
X129236818Y-105552227D01*
X129222114Y-105525299D01*
X129205522Y-105499481D01*
X129204630Y-105493280D01*
X129203333Y-105490904D01*
X129200499Y-105464546D01*
X129200499Y-105249500D01*
X129220184Y-105182461D01*
X129272988Y-105136706D01*
X129324499Y-105125500D01*
X131000639Y-105125500D01*
X131067678Y-105145185D01*
X131088321Y-105161820D01*
X131126572Y-105200072D01*
X131126576Y-105200075D01*
X131274057Y-105298620D01*
X131274070Y-105298627D01*
X131396974Y-105349534D01*
X131437945Y-105366505D01*
X131437947Y-105366505D01*
X131437952Y-105366507D01*
X131611915Y-105401110D01*
X131611918Y-105401111D01*
X131611920Y-105401111D01*
X131789304Y-105401111D01*
X131789305Y-105401110D01*
X131847293Y-105389575D01*
X131963269Y-105366507D01*
X131963272Y-105366505D01*
X131963277Y-105366505D01*
X132127158Y-105298624D01*
X132274646Y-105200075D01*
X132400075Y-105074646D01*
X132498624Y-104927158D01*
X132566505Y-104763277D01*
X132601111Y-104589302D01*
X132601111Y-104411920D01*
X132601111Y-104411917D01*
X132601110Y-104411915D01*
X132566507Y-104237952D01*
X132566504Y-104237943D01*
X132498627Y-104074070D01*
X132498620Y-104074057D01*
X132400075Y-103926576D01*
X132400072Y-103926572D01*
X132274649Y-103801149D01*
X132274645Y-103801146D01*
X132127164Y-103702601D01*
X132127151Y-103702594D01*
X131963278Y-103634717D01*
X131963269Y-103634714D01*
X131789305Y-103600111D01*
X131789302Y-103600111D01*
X131611920Y-103600111D01*
X131611917Y-103600111D01*
X131508992Y-103620584D01*
X131439401Y-103614357D01*
X131384223Y-103571494D01*
X131363184Y-103523158D01*
X131341202Y-103412646D01*
X131341199Y-103412637D01*
X131336849Y-103402136D01*
X131294544Y-103300000D01*
X131273322Y-103248764D01*
X131273315Y-103248751D01*
X131174770Y-103101270D01*
X131174767Y-103101266D01*
X131049344Y-102975843D01*
X131049340Y-102975840D01*
X130901859Y-102877295D01*
X130901846Y-102877288D01*
X130737973Y-102809411D01*
X130737964Y-102809408D01*
X130564000Y-102774805D01*
X130563997Y-102774805D01*
X130524500Y-102774805D01*
X130515814Y-102772254D01*
X130506853Y-102773543D01*
X130482812Y-102762564D01*
X130457461Y-102755120D01*
X130451533Y-102748279D01*
X130443297Y-102744518D01*
X130429007Y-102722283D01*
X130411706Y-102702316D01*
X130409418Y-102691801D01*
X130405523Y-102685740D01*
X130400500Y-102650805D01*
X130400500Y-102623500D01*
X130420185Y-102556461D01*
X130472989Y-102510706D01*
X130524500Y-102499500D01*
X142448846Y-102499500D01*
X142515885Y-102519185D01*
X142536527Y-102535819D01*
X144188526Y-104187819D01*
X144222011Y-104249142D01*
X144217027Y-104318834D01*
X144175155Y-104374767D01*
X144109691Y-104399184D01*
X144100845Y-104399500D01*
X143736670Y-104399500D01*
X143736654Y-104399499D01*
X143729058Y-104399499D01*
X143570943Y-104399499D01*
X143494579Y-104419961D01*
X143418214Y-104440423D01*
X143418209Y-104440426D01*
X143281290Y-104519475D01*
X143281282Y-104519481D01*
X142462584Y-105338181D01*
X142401261Y-105371666D01*
X142374903Y-105374500D01*
X142223952Y-105374500D01*
X142121774Y-105387953D01*
X142109001Y-105389635D01*
X142109000Y-105389635D01*
X142108997Y-105389636D01*
X141965963Y-105448882D01*
X141843133Y-105543133D01*
X141748882Y-105665963D01*
X141689636Y-105808997D01*
X141689635Y-105809002D01*
X141674500Y-105923952D01*
X141674500Y-106676047D01*
X141680652Y-106722770D01*
X141689635Y-106790999D01*
X141704356Y-106826540D01*
X141740061Y-106912738D01*
X141749500Y-106960191D01*
X141749500Y-107839809D01*
X141740061Y-107887260D01*
X141728079Y-107916188D01*
X141689635Y-108009000D01*
X141689635Y-108009002D01*
X141674500Y-108123952D01*
X141674500Y-108876047D01*
X141689635Y-108990997D01*
X141689636Y-108991002D01*
X141748882Y-109134036D01*
X141748883Y-109134037D01*
X141843133Y-109256867D01*
X141965963Y-109351117D01*
X141965962Y-109351117D01*
X142024998Y-109375570D01*
X142109001Y-109410365D01*
X142223960Y-109425500D01*
X142223967Y-109425500D01*
X142476033Y-109425500D01*
X142476040Y-109425500D01*
X142590999Y-109410365D01*
X142627547Y-109395225D01*
X142697016Y-109387757D01*
X142722450Y-109395224D01*
X142759001Y-109410365D01*
X142873960Y-109425500D01*
X142873967Y-109425500D01*
X143126033Y-109425500D01*
X143126040Y-109425500D01*
X143240999Y-109410365D01*
X143277547Y-109395225D01*
X143347016Y-109387757D01*
X143372450Y-109395224D01*
X143409001Y-109410365D01*
X143523960Y-109425500D01*
X143523967Y-109425500D01*
X143776033Y-109425500D01*
X143776040Y-109425500D01*
X143890999Y-109410365D01*
X144034037Y-109351117D01*
X144156867Y-109256867D01*
X144251117Y-109134037D01*
X144310365Y-108990999D01*
X144325500Y-108876040D01*
X144325500Y-108725096D01*
X144345185Y-108658057D01*
X144361814Y-108637420D01*
X146360506Y-106638727D01*
X146360511Y-106638724D01*
X146370714Y-106628520D01*
X146370716Y-106628520D01*
X146482520Y-106516716D01*
X146535162Y-106425536D01*
X146561577Y-106379785D01*
X146579926Y-106311305D01*
X150792698Y-106311305D01*
X150792698Y-106488695D01*
X150827301Y-106662658D01*
X150827304Y-106662667D01*
X150895181Y-106826540D01*
X150895188Y-106826553D01*
X150993733Y-106974034D01*
X150993736Y-106974038D01*
X151119159Y-107099461D01*
X151119163Y-107099464D01*
X151266644Y-107198009D01*
X151266657Y-107198016D01*
X151389561Y-107248923D01*
X151430532Y-107265894D01*
X151430534Y-107265894D01*
X151430539Y-107265896D01*
X151604502Y-107300499D01*
X151604505Y-107300500D01*
X151604507Y-107300500D01*
X151781891Y-107300500D01*
X151781892Y-107300499D01*
X151845686Y-107287810D01*
X151955856Y-107265896D01*
X151955859Y-107265894D01*
X151955864Y-107265894D01*
X152119745Y-107198013D01*
X152267233Y-107099464D01*
X152392662Y-106974035D01*
X152491211Y-106826547D01*
X152559092Y-106662666D01*
X152561549Y-106650310D01*
X152593933Y-106588400D01*
X152654647Y-106553824D01*
X152683167Y-106550500D01*
X152746664Y-106550500D01*
X152746665Y-106550499D01*
X152949618Y-106510130D01*
X153140796Y-106430941D01*
X153312853Y-106315977D01*
X153379796Y-106249034D01*
X153463483Y-106165348D01*
X153464609Y-106166474D01*
X153515949Y-106131502D01*
X153554060Y-106125500D01*
X156332336Y-106125500D01*
X156399375Y-106145185D01*
X156422494Y-106165766D01*
X156422913Y-106165348D01*
X156573540Y-106315975D01*
X156573543Y-106315977D01*
X156745600Y-106430941D01*
X156936778Y-106510130D01*
X157139728Y-106550499D01*
X157139732Y-106550500D01*
X157139733Y-106550500D01*
X157346664Y-106550500D01*
X157346665Y-106550499D01*
X157549618Y-106510130D01*
X157740796Y-106430941D01*
X157912853Y-106315977D01*
X158059175Y-106169655D01*
X158085466Y-106130306D01*
X158139078Y-106085502D01*
X158208403Y-106076794D01*
X158271431Y-106106948D01*
X158308150Y-106166390D01*
X158310186Y-106223388D01*
X158292698Y-106311305D01*
X158292698Y-106488695D01*
X158327301Y-106662658D01*
X158327304Y-106662667D01*
X158395181Y-106826540D01*
X158395188Y-106826553D01*
X158493733Y-106974034D01*
X158493736Y-106974038D01*
X158619159Y-107099461D01*
X158619163Y-107099464D01*
X158766644Y-107198009D01*
X158766657Y-107198016D01*
X158889561Y-107248923D01*
X158930532Y-107265894D01*
X158930534Y-107265894D01*
X158930539Y-107265896D01*
X159104502Y-107300499D01*
X159104505Y-107300500D01*
X159104507Y-107300500D01*
X159281891Y-107300500D01*
X159281892Y-107300499D01*
X159345686Y-107287810D01*
X159455856Y-107265896D01*
X159455859Y-107265894D01*
X159455864Y-107265894D01*
X159619745Y-107198013D01*
X159767233Y-107099464D01*
X159892662Y-106974035D01*
X159991211Y-106826547D01*
X160059092Y-106662666D01*
X160061549Y-106650310D01*
X160093933Y-106588400D01*
X160154647Y-106553824D01*
X160183167Y-106550500D01*
X160246664Y-106550500D01*
X160246665Y-106550499D01*
X160449618Y-106510130D01*
X160640796Y-106430941D01*
X160812853Y-106315977D01*
X160879796Y-106249034D01*
X160963483Y-106165348D01*
X160964609Y-106166474D01*
X161015949Y-106131502D01*
X161054060Y-106125500D01*
X163832336Y-106125500D01*
X163899375Y-106145185D01*
X163922494Y-106165766D01*
X163922913Y-106165348D01*
X164073540Y-106315975D01*
X164073543Y-106315977D01*
X164245600Y-106430941D01*
X164436778Y-106510130D01*
X164639728Y-106550499D01*
X164639732Y-106550500D01*
X164639733Y-106550500D01*
X164846664Y-106550500D01*
X164846665Y-106550499D01*
X165049618Y-106510130D01*
X165240796Y-106430941D01*
X165412853Y-106315977D01*
X165559175Y-106169655D01*
X165674139Y-105997598D01*
X165753328Y-105806420D01*
X165793698Y-105603465D01*
X165793698Y-105396535D01*
X165753328Y-105193580D01*
X165674139Y-105002402D01*
X165559175Y-104830345D01*
X165559173Y-104830342D01*
X165412855Y-104684024D01*
X165271092Y-104589302D01*
X165240796Y-104569059D01*
X165121102Y-104519480D01*
X165049618Y-104489870D01*
X165049610Y-104489868D01*
X164846667Y-104449500D01*
X164846663Y-104449500D01*
X164639733Y-104449500D01*
X164639728Y-104449500D01*
X164436785Y-104489868D01*
X164436777Y-104489870D01*
X164245601Y-104569058D01*
X164073540Y-104684024D01*
X164073539Y-104684025D01*
X163922913Y-104834652D01*
X163921786Y-104833525D01*
X163870447Y-104868498D01*
X163832336Y-104874500D01*
X161054060Y-104874500D01*
X160987021Y-104854815D01*
X160963901Y-104834233D01*
X160963483Y-104834652D01*
X160812855Y-104684024D01*
X160671092Y-104589302D01*
X160640796Y-104569059D01*
X160521102Y-104519480D01*
X160449618Y-104489870D01*
X160449610Y-104489868D01*
X160246667Y-104449500D01*
X160246663Y-104449500D01*
X160039733Y-104449500D01*
X160039728Y-104449500D01*
X159836785Y-104489868D01*
X159836777Y-104489870D01*
X159645601Y-104569058D01*
X159473540Y-104684024D01*
X159327222Y-104830342D01*
X159212256Y-105002403D01*
X159133068Y-105193579D01*
X159133066Y-105193587D01*
X159092698Y-105396530D01*
X159092698Y-105400084D01*
X159092171Y-105401875D01*
X159092101Y-105402596D01*
X159091964Y-105402582D01*
X159073013Y-105467123D01*
X159020209Y-105512878D01*
X158992891Y-105521701D01*
X158930536Y-105534104D01*
X158930527Y-105534107D01*
X158766657Y-105601983D01*
X158766644Y-105601990D01*
X158619163Y-105700535D01*
X158619159Y-105700538D01*
X158493736Y-105825961D01*
X158493734Y-105825964D01*
X158492225Y-105828223D01*
X158491128Y-105829138D01*
X158489870Y-105830673D01*
X158489579Y-105830434D01*
X158438611Y-105873027D01*
X158369286Y-105881733D01*
X158306259Y-105851577D01*
X158269541Y-105792133D01*
X158267507Y-105735139D01*
X158285106Y-105646656D01*
X158293698Y-105603465D01*
X158293698Y-105396535D01*
X158253328Y-105193580D01*
X158174139Y-105002402D01*
X158059175Y-104830345D01*
X158059173Y-104830342D01*
X157912855Y-104684024D01*
X157771092Y-104589302D01*
X157740796Y-104569059D01*
X157621102Y-104519480D01*
X157549618Y-104489870D01*
X157549610Y-104489868D01*
X157346667Y-104449500D01*
X157346663Y-104449500D01*
X157139733Y-104449500D01*
X157139728Y-104449500D01*
X156936785Y-104489868D01*
X156936777Y-104489870D01*
X156745601Y-104569058D01*
X156573540Y-104684024D01*
X156573539Y-104684025D01*
X156422913Y-104834652D01*
X156421786Y-104833525D01*
X156370447Y-104868498D01*
X156332336Y-104874500D01*
X153554060Y-104874500D01*
X153487021Y-104854815D01*
X153463901Y-104834233D01*
X153463483Y-104834652D01*
X153312855Y-104684024D01*
X153171092Y-104589302D01*
X153140796Y-104569059D01*
X153021102Y-104519480D01*
X152949618Y-104489870D01*
X152949610Y-104489868D01*
X152746667Y-104449500D01*
X152746663Y-104449500D01*
X152539733Y-104449500D01*
X152539728Y-104449500D01*
X152336785Y-104489868D01*
X152336777Y-104489870D01*
X152145601Y-104569058D01*
X151973540Y-104684024D01*
X151827222Y-104830342D01*
X151712256Y-105002403D01*
X151633068Y-105193579D01*
X151633066Y-105193587D01*
X151592698Y-105396530D01*
X151592698Y-105400084D01*
X151592171Y-105401875D01*
X151592101Y-105402596D01*
X151591964Y-105402582D01*
X151573013Y-105467123D01*
X151520209Y-105512878D01*
X151492891Y-105521701D01*
X151430536Y-105534104D01*
X151430527Y-105534107D01*
X151266657Y-105601983D01*
X151266644Y-105601990D01*
X151119163Y-105700535D01*
X151119159Y-105700538D01*
X150993736Y-105825961D01*
X150993733Y-105825965D01*
X150895188Y-105973446D01*
X150895181Y-105973459D01*
X150827305Y-106137331D01*
X150827301Y-106137341D01*
X150792698Y-106311305D01*
X146579926Y-106311305D01*
X146602500Y-106227058D01*
X146602500Y-106068943D01*
X146602500Y-104505900D01*
X146602500Y-104505898D01*
X146599508Y-104494735D01*
X146599507Y-104494734D01*
X146599505Y-104494724D01*
X146584956Y-104440424D01*
X146561577Y-104353173D01*
X146541752Y-104318834D01*
X146482524Y-104216247D01*
X146482521Y-104216243D01*
X146482520Y-104216241D01*
X146370716Y-104104437D01*
X146370715Y-104104436D01*
X146366385Y-104100106D01*
X146366374Y-104100096D01*
X144362808Y-102096530D01*
X147842698Y-102096530D01*
X147842698Y-102303469D01*
X147883066Y-102506412D01*
X147883068Y-102506420D01*
X147958567Y-102688691D01*
X147962257Y-102697598D01*
X148013845Y-102774805D01*
X148077222Y-102869657D01*
X148223540Y-103015975D01*
X148223543Y-103015977D01*
X148395600Y-103130941D01*
X148586778Y-103210130D01*
X148789728Y-103250499D01*
X148789732Y-103250500D01*
X148789733Y-103250500D01*
X148996664Y-103250500D01*
X148996665Y-103250499D01*
X149199618Y-103210130D01*
X149390796Y-103130941D01*
X149562853Y-103015977D01*
X149635378Y-102943452D01*
X149713483Y-102865348D01*
X149714609Y-102866474D01*
X149765949Y-102831502D01*
X149804060Y-102825500D01*
X150645254Y-102825500D01*
X150712293Y-102845185D01*
X150741106Y-102870833D01*
X150743738Y-102874040D01*
X150869159Y-102999461D01*
X150869163Y-102999464D01*
X151016644Y-103098009D01*
X151016657Y-103098016D01*
X151096147Y-103130941D01*
X151180532Y-103165894D01*
X151180534Y-103165894D01*
X151180539Y-103165896D01*
X151354502Y-103200499D01*
X151354505Y-103200500D01*
X151354507Y-103200500D01*
X151531891Y-103200500D01*
X151531892Y-103200499D01*
X151589880Y-103188964D01*
X151705856Y-103165896D01*
X151705859Y-103165894D01*
X151705864Y-103165894D01*
X151861882Y-103101270D01*
X151869738Y-103098016D01*
X151869738Y-103098015D01*
X151869745Y-103098013D01*
X152017233Y-102999464D01*
X152054877Y-102961820D01*
X152116199Y-102928334D01*
X152142559Y-102925500D01*
X152681704Y-102925500D01*
X152748743Y-102945185D01*
X152769386Y-102961820D01*
X152823539Y-103015974D01*
X152823540Y-103015975D01*
X152823543Y-103015977D01*
X152995600Y-103130941D01*
X153186778Y-103210130D01*
X153389728Y-103250499D01*
X153389732Y-103250500D01*
X153389733Y-103250500D01*
X153596664Y-103250500D01*
X153596665Y-103250499D01*
X153799618Y-103210130D01*
X153990796Y-103130941D01*
X154162853Y-103015977D01*
X154309175Y-102869655D01*
X154424139Y-102697598D01*
X154503328Y-102506420D01*
X154543698Y-102303465D01*
X154543698Y-102096535D01*
X154543697Y-102096530D01*
X155342698Y-102096530D01*
X155342698Y-102303469D01*
X155383066Y-102506412D01*
X155383068Y-102506420D01*
X155458567Y-102688691D01*
X155462257Y-102697598D01*
X155513845Y-102774805D01*
X155577222Y-102869657D01*
X155723540Y-103015975D01*
X155723543Y-103015977D01*
X155895600Y-103130941D01*
X156086778Y-103210130D01*
X156289728Y-103250499D01*
X156289732Y-103250500D01*
X156289733Y-103250500D01*
X156496664Y-103250500D01*
X156496665Y-103250499D01*
X156699618Y-103210130D01*
X156890796Y-103130941D01*
X157062853Y-103015977D01*
X157135378Y-102943452D01*
X157213483Y-102865348D01*
X157214609Y-102866474D01*
X157265949Y-102831502D01*
X157304060Y-102825500D01*
X158243837Y-102825500D01*
X158310876Y-102845185D01*
X158331519Y-102861820D01*
X158369159Y-102899461D01*
X158369163Y-102899464D01*
X158516644Y-102998009D01*
X158516657Y-102998016D01*
X158639561Y-103048923D01*
X158680532Y-103065894D01*
X158680534Y-103065894D01*
X158680539Y-103065896D01*
X158854502Y-103100499D01*
X158854505Y-103100500D01*
X158854507Y-103100500D01*
X159031891Y-103100500D01*
X159031892Y-103100499D01*
X159089880Y-103088964D01*
X159205856Y-103065896D01*
X159205859Y-103065894D01*
X159205864Y-103065894D01*
X159369745Y-102998013D01*
X159517233Y-102899464D01*
X159554877Y-102861820D01*
X159616199Y-102828334D01*
X159642559Y-102825500D01*
X160082336Y-102825500D01*
X160149375Y-102845185D01*
X160172494Y-102865766D01*
X160172913Y-102865348D01*
X160323540Y-103015975D01*
X160323543Y-103015977D01*
X160495600Y-103130941D01*
X160686778Y-103210130D01*
X160889728Y-103250499D01*
X160889732Y-103250500D01*
X160889733Y-103250500D01*
X161096664Y-103250500D01*
X161096665Y-103250499D01*
X161299618Y-103210130D01*
X161490796Y-103130941D01*
X161662853Y-103015977D01*
X161809175Y-102869655D01*
X161924139Y-102697598D01*
X162003328Y-102506420D01*
X162043698Y-102303465D01*
X162043698Y-102096535D01*
X162043697Y-102096530D01*
X162842698Y-102096530D01*
X162842698Y-102303469D01*
X162883066Y-102506412D01*
X162883068Y-102506420D01*
X162958567Y-102688691D01*
X162962257Y-102697598D01*
X163013845Y-102774805D01*
X163077222Y-102869657D01*
X163223540Y-103015975D01*
X163223543Y-103015977D01*
X163395600Y-103130941D01*
X163586778Y-103210130D01*
X163789728Y-103250499D01*
X163789732Y-103250500D01*
X163789733Y-103250500D01*
X163996664Y-103250500D01*
X163996665Y-103250499D01*
X164199618Y-103210130D01*
X164390796Y-103130941D01*
X164562853Y-103015977D01*
X164635378Y-102943452D01*
X164713483Y-102865348D01*
X164714609Y-102866474D01*
X164765949Y-102831502D01*
X164804060Y-102825500D01*
X165743837Y-102825500D01*
X165810876Y-102845185D01*
X165831519Y-102861820D01*
X165869159Y-102899461D01*
X165869163Y-102899464D01*
X166016644Y-102998009D01*
X166016657Y-102998016D01*
X166139561Y-103048923D01*
X166180532Y-103065894D01*
X166180534Y-103065894D01*
X166180539Y-103065896D01*
X166354502Y-103100499D01*
X166354505Y-103100500D01*
X166354507Y-103100500D01*
X166531891Y-103100500D01*
X166531892Y-103100499D01*
X166589880Y-103088964D01*
X166705856Y-103065896D01*
X166705859Y-103065894D01*
X166705864Y-103065894D01*
X166869745Y-102998013D01*
X167017233Y-102899464D01*
X167054877Y-102861820D01*
X167116199Y-102828334D01*
X167142559Y-102825500D01*
X167582336Y-102825500D01*
X167649375Y-102845185D01*
X167672494Y-102865766D01*
X167672913Y-102865348D01*
X167823540Y-103015975D01*
X167823543Y-103015977D01*
X167995600Y-103130941D01*
X168186778Y-103210130D01*
X168389728Y-103250499D01*
X168389732Y-103250500D01*
X168389733Y-103250500D01*
X168596664Y-103250500D01*
X168596665Y-103250499D01*
X168799618Y-103210130D01*
X168990796Y-103130941D01*
X169162853Y-103015977D01*
X169309175Y-102869655D01*
X169424139Y-102697598D01*
X169503328Y-102506420D01*
X169543698Y-102303465D01*
X169543698Y-102096535D01*
X169503328Y-101893580D01*
X169424139Y-101702402D01*
X169309175Y-101530345D01*
X169309173Y-101530342D01*
X169162855Y-101384024D01*
X169036354Y-101299500D01*
X168990796Y-101269059D01*
X168799618Y-101189870D01*
X168799610Y-101189868D01*
X168596667Y-101149500D01*
X168596663Y-101149500D01*
X168389733Y-101149500D01*
X168389728Y-101149500D01*
X168186785Y-101189868D01*
X168186777Y-101189870D01*
X167995601Y-101269058D01*
X167823540Y-101384024D01*
X167823539Y-101384025D01*
X167672913Y-101534652D01*
X167671786Y-101533525D01*
X167620447Y-101568498D01*
X167582336Y-101574500D01*
X167142559Y-101574500D01*
X167075520Y-101554815D01*
X167054877Y-101538180D01*
X167017236Y-101500538D01*
X167017232Y-101500535D01*
X166869751Y-101401990D01*
X166869738Y-101401983D01*
X166705865Y-101334106D01*
X166705856Y-101334103D01*
X166531892Y-101299500D01*
X166531889Y-101299500D01*
X166354507Y-101299500D01*
X166354504Y-101299500D01*
X166180539Y-101334103D01*
X166180530Y-101334106D01*
X166016657Y-101401983D01*
X166016644Y-101401990D01*
X165869163Y-101500535D01*
X165869159Y-101500538D01*
X165831519Y-101538180D01*
X165770197Y-101571666D01*
X165743837Y-101574500D01*
X164804060Y-101574500D01*
X164737021Y-101554815D01*
X164713901Y-101534233D01*
X164713483Y-101534652D01*
X164562855Y-101384024D01*
X164436354Y-101299500D01*
X164390796Y-101269059D01*
X164199618Y-101189870D01*
X164199610Y-101189868D01*
X163996667Y-101149500D01*
X163996663Y-101149500D01*
X163789733Y-101149500D01*
X163789728Y-101149500D01*
X163586785Y-101189868D01*
X163586777Y-101189870D01*
X163395601Y-101269058D01*
X163223540Y-101384024D01*
X163077222Y-101530342D01*
X162962256Y-101702403D01*
X162883068Y-101893579D01*
X162883066Y-101893587D01*
X162842698Y-102096530D01*
X162043697Y-102096530D01*
X162003328Y-101893580D01*
X161924139Y-101702402D01*
X161809175Y-101530345D01*
X161809173Y-101530342D01*
X161662855Y-101384024D01*
X161536354Y-101299500D01*
X161490796Y-101269059D01*
X161299618Y-101189870D01*
X161299610Y-101189868D01*
X161096667Y-101149500D01*
X161096663Y-101149500D01*
X160889733Y-101149500D01*
X160889728Y-101149500D01*
X160686785Y-101189868D01*
X160686777Y-101189870D01*
X160495601Y-101269058D01*
X160323540Y-101384024D01*
X160323539Y-101384025D01*
X160172913Y-101534652D01*
X160171786Y-101533525D01*
X160120447Y-101568498D01*
X160082336Y-101574500D01*
X159642559Y-101574500D01*
X159575520Y-101554815D01*
X159554877Y-101538180D01*
X159517236Y-101500538D01*
X159517232Y-101500535D01*
X159369751Y-101401990D01*
X159369738Y-101401983D01*
X159205865Y-101334106D01*
X159205856Y-101334103D01*
X159031892Y-101299500D01*
X159031889Y-101299500D01*
X158854507Y-101299500D01*
X158854504Y-101299500D01*
X158680539Y-101334103D01*
X158680530Y-101334106D01*
X158516657Y-101401983D01*
X158516644Y-101401990D01*
X158369163Y-101500535D01*
X158369159Y-101500538D01*
X158331519Y-101538180D01*
X158270197Y-101571666D01*
X158243837Y-101574500D01*
X157304060Y-101574500D01*
X157237021Y-101554815D01*
X157213901Y-101534233D01*
X157213483Y-101534652D01*
X157062855Y-101384024D01*
X156936354Y-101299500D01*
X156890796Y-101269059D01*
X156699618Y-101189870D01*
X156699610Y-101189868D01*
X156496667Y-101149500D01*
X156496663Y-101149500D01*
X156289733Y-101149500D01*
X156289728Y-101149500D01*
X156086785Y-101189868D01*
X156086777Y-101189870D01*
X155895601Y-101269058D01*
X155723540Y-101384024D01*
X155577222Y-101530342D01*
X155462256Y-101702403D01*
X155383068Y-101893579D01*
X155383066Y-101893587D01*
X155342698Y-102096530D01*
X154543697Y-102096530D01*
X154503328Y-101893580D01*
X154424139Y-101702402D01*
X154309175Y-101530345D01*
X154309173Y-101530342D01*
X154162855Y-101384024D01*
X154036354Y-101299500D01*
X153990796Y-101269059D01*
X153799618Y-101189870D01*
X153799610Y-101189868D01*
X153596667Y-101149500D01*
X153596663Y-101149500D01*
X153389733Y-101149500D01*
X153389728Y-101149500D01*
X153186785Y-101189868D01*
X153186777Y-101189870D01*
X152995601Y-101269058D01*
X152823540Y-101384024D01*
X152677223Y-101530341D01*
X152677220Y-101530345D01*
X152617722Y-101619391D01*
X152564110Y-101664196D01*
X152514620Y-101674500D01*
X152142559Y-101674500D01*
X152075520Y-101654815D01*
X152054877Y-101638180D01*
X152017236Y-101600538D01*
X152017232Y-101600535D01*
X151869751Y-101501990D01*
X151869738Y-101501983D01*
X151705865Y-101434106D01*
X151705856Y-101434103D01*
X151531892Y-101399500D01*
X151531889Y-101399500D01*
X151354507Y-101399500D01*
X151354504Y-101399500D01*
X151180539Y-101434103D01*
X151180530Y-101434106D01*
X151016650Y-101501987D01*
X151016648Y-101501988D01*
X150939404Y-101553602D01*
X150872727Y-101574480D01*
X150870513Y-101574500D01*
X149804060Y-101574500D01*
X149737021Y-101554815D01*
X149713901Y-101534233D01*
X149713483Y-101534652D01*
X149562855Y-101384024D01*
X149436354Y-101299500D01*
X149390796Y-101269059D01*
X149199618Y-101189870D01*
X149199610Y-101189868D01*
X148996667Y-101149500D01*
X148996663Y-101149500D01*
X148789733Y-101149500D01*
X148789728Y-101149500D01*
X148586785Y-101189868D01*
X148586777Y-101189870D01*
X148395601Y-101269058D01*
X148223540Y-101384024D01*
X148077222Y-101530342D01*
X147962256Y-101702403D01*
X147883068Y-101893579D01*
X147883066Y-101893587D01*
X147842698Y-102096530D01*
X144362808Y-102096530D01*
X143402633Y-101136355D01*
X143402631Y-101136352D01*
X143283760Y-101017481D01*
X143283759Y-101017480D01*
X143196947Y-100967360D01*
X143196947Y-100967359D01*
X143196943Y-100967358D01*
X143146828Y-100938423D01*
X142994100Y-100897499D01*
X142835986Y-100897499D01*
X142828390Y-100897499D01*
X142828374Y-100897500D01*
X127326546Y-100897500D01*
X127259507Y-100877815D01*
X127213752Y-100825011D01*
X127203808Y-100755853D01*
X127232833Y-100692297D01*
X127238865Y-100685819D01*
X127327513Y-100597171D01*
X127440016Y-100442323D01*
X127526911Y-100271782D01*
X127586058Y-100089747D01*
X127616000Y-99900701D01*
X127616000Y-99709299D01*
X127586058Y-99520253D01*
X127526911Y-99338218D01*
X127440016Y-99167677D01*
X127382630Y-99088691D01*
X127327518Y-99012835D01*
X127327514Y-99012830D01*
X127192169Y-98877485D01*
X127192164Y-98877481D01*
X127101078Y-98811304D01*
X147092698Y-98811304D01*
X147092698Y-98988695D01*
X147127301Y-99162658D01*
X147127304Y-99162667D01*
X147195181Y-99326540D01*
X147195188Y-99326553D01*
X147293733Y-99474034D01*
X147293736Y-99474038D01*
X147419159Y-99599461D01*
X147419163Y-99599464D01*
X147566644Y-99698009D01*
X147566657Y-99698016D01*
X147689561Y-99748923D01*
X147730532Y-99765894D01*
X147730534Y-99765894D01*
X147730539Y-99765896D01*
X147904502Y-99800499D01*
X147904505Y-99800500D01*
X147904507Y-99800500D01*
X148081891Y-99800500D01*
X148081892Y-99800499D01*
X148139880Y-99788964D01*
X148255856Y-99765896D01*
X148255859Y-99765894D01*
X148255864Y-99765894D01*
X148419745Y-99698013D01*
X148567233Y-99599464D01*
X148692662Y-99474035D01*
X148791211Y-99326547D01*
X148859092Y-99162666D01*
X148861549Y-99150310D01*
X148893933Y-99088400D01*
X148954647Y-99053824D01*
X148983167Y-99050500D01*
X148996664Y-99050500D01*
X148996665Y-99050499D01*
X149199618Y-99010130D01*
X149390796Y-98930941D01*
X149562853Y-98815977D01*
X149636065Y-98742765D01*
X149713483Y-98665348D01*
X149714609Y-98666474D01*
X149765949Y-98631502D01*
X149804060Y-98625500D01*
X152582336Y-98625500D01*
X152649375Y-98645185D01*
X152672494Y-98665766D01*
X152672913Y-98665348D01*
X152823540Y-98815975D01*
X152823543Y-98815977D01*
X152995600Y-98930941D01*
X153186778Y-99010130D01*
X153389728Y-99050499D01*
X153389732Y-99050500D01*
X153389733Y-99050500D01*
X153596664Y-99050500D01*
X153596665Y-99050499D01*
X153799618Y-99010130D01*
X153990796Y-98930941D01*
X154162853Y-98815977D01*
X154309175Y-98669655D01*
X154309177Y-98669651D01*
X154309223Y-98669606D01*
X154370547Y-98636121D01*
X154440238Y-98641105D01*
X154496172Y-98682976D01*
X154520589Y-98748441D01*
X154518522Y-98781478D01*
X154492698Y-98911304D01*
X154492698Y-99088695D01*
X154527301Y-99262658D01*
X154527304Y-99262667D01*
X154595181Y-99426540D01*
X154595188Y-99426553D01*
X154693733Y-99574034D01*
X154693736Y-99574038D01*
X154819159Y-99699461D01*
X154819163Y-99699464D01*
X154966644Y-99798009D01*
X154966657Y-99798016D01*
X155089561Y-99848923D01*
X155130532Y-99865894D01*
X155130534Y-99865894D01*
X155130539Y-99865896D01*
X155304502Y-99900499D01*
X155304505Y-99900500D01*
X155304507Y-99900500D01*
X155481891Y-99900500D01*
X155481892Y-99900499D01*
X155539880Y-99888964D01*
X155655856Y-99865896D01*
X155655859Y-99865894D01*
X155655864Y-99865894D01*
X155819745Y-99798013D01*
X155967233Y-99699464D01*
X156092662Y-99574035D01*
X156191211Y-99426547D01*
X156259092Y-99262666D01*
X156277987Y-99167677D01*
X156281442Y-99150309D01*
X156313827Y-99088398D01*
X156374543Y-99053823D01*
X156403059Y-99050500D01*
X156496664Y-99050500D01*
X156496665Y-99050499D01*
X156699618Y-99010130D01*
X156890796Y-98930941D01*
X157062853Y-98815977D01*
X157136065Y-98742765D01*
X157213483Y-98665348D01*
X157214609Y-98666474D01*
X157265949Y-98631502D01*
X157304060Y-98625500D01*
X160082336Y-98625500D01*
X160149375Y-98645185D01*
X160172494Y-98665766D01*
X160172913Y-98665348D01*
X160323540Y-98815975D01*
X160323543Y-98815977D01*
X160495600Y-98930941D01*
X160686778Y-99010130D01*
X160889728Y-99050499D01*
X160889732Y-99050500D01*
X160889733Y-99050500D01*
X161096664Y-99050500D01*
X161096665Y-99050499D01*
X161299618Y-99010130D01*
X161490796Y-98930941D01*
X161662853Y-98815977D01*
X161667526Y-98811304D01*
X162092698Y-98811304D01*
X162092698Y-98988695D01*
X162127301Y-99162658D01*
X162127304Y-99162667D01*
X162195181Y-99326540D01*
X162195188Y-99326553D01*
X162293733Y-99474034D01*
X162293736Y-99474038D01*
X162419159Y-99599461D01*
X162419163Y-99599464D01*
X162566644Y-99698009D01*
X162566657Y-99698016D01*
X162689561Y-99748923D01*
X162730532Y-99765894D01*
X162730534Y-99765894D01*
X162730539Y-99765896D01*
X162904502Y-99800499D01*
X162904505Y-99800500D01*
X162904507Y-99800500D01*
X163081891Y-99800500D01*
X163081892Y-99800499D01*
X163139880Y-99788964D01*
X163255856Y-99765896D01*
X163255859Y-99765894D01*
X163255864Y-99765894D01*
X163419745Y-99698013D01*
X163567233Y-99599464D01*
X163692662Y-99474035D01*
X163791211Y-99326547D01*
X163859092Y-99162666D01*
X163861549Y-99150310D01*
X163893933Y-99088400D01*
X163954647Y-99053824D01*
X163983167Y-99050500D01*
X163996664Y-99050500D01*
X163996665Y-99050499D01*
X164199618Y-99010130D01*
X164390796Y-98930941D01*
X164562853Y-98815977D01*
X164636065Y-98742765D01*
X164713483Y-98665348D01*
X164714609Y-98666474D01*
X164765949Y-98631502D01*
X164804060Y-98625500D01*
X167582336Y-98625500D01*
X167649375Y-98645185D01*
X167672494Y-98665766D01*
X167672913Y-98665348D01*
X167823540Y-98815975D01*
X167823543Y-98815977D01*
X167995600Y-98930941D01*
X168186778Y-99010130D01*
X168389728Y-99050499D01*
X168389732Y-99050500D01*
X168389733Y-99050500D01*
X168596664Y-99050500D01*
X168596665Y-99050499D01*
X168799618Y-99010130D01*
X168990796Y-98930941D01*
X169162853Y-98815977D01*
X169309175Y-98669655D01*
X169424139Y-98497598D01*
X169503328Y-98306420D01*
X169543698Y-98103465D01*
X169543698Y-97896535D01*
X169503328Y-97693580D01*
X169424139Y-97502402D01*
X169309175Y-97330345D01*
X169309173Y-97330342D01*
X169162855Y-97184024D01*
X169033342Y-97097487D01*
X168990796Y-97069059D01*
X168799618Y-96989870D01*
X168799610Y-96989868D01*
X168596667Y-96949500D01*
X168596663Y-96949500D01*
X168389733Y-96949500D01*
X168389728Y-96949500D01*
X168186785Y-96989868D01*
X168186777Y-96989870D01*
X167995601Y-97069058D01*
X167823540Y-97184024D01*
X167823539Y-97184025D01*
X167672913Y-97334652D01*
X167671786Y-97333525D01*
X167620447Y-97368498D01*
X167582336Y-97374500D01*
X164804060Y-97374500D01*
X164737021Y-97354815D01*
X164713901Y-97334233D01*
X164713483Y-97334652D01*
X164562855Y-97184024D01*
X164433342Y-97097487D01*
X164390796Y-97069059D01*
X164199618Y-96989870D01*
X164199610Y-96989868D01*
X163996667Y-96949500D01*
X163996663Y-96949500D01*
X163789733Y-96949500D01*
X163789728Y-96949500D01*
X163586785Y-96989868D01*
X163586777Y-96989870D01*
X163395601Y-97069058D01*
X163223540Y-97184024D01*
X163077222Y-97330342D01*
X162962256Y-97502403D01*
X162883068Y-97693579D01*
X162883066Y-97693587D01*
X162842698Y-97896530D01*
X162842698Y-97910030D01*
X162823013Y-97977069D01*
X162770209Y-98022824D01*
X162742893Y-98031647D01*
X162730533Y-98034105D01*
X162730527Y-98034107D01*
X162566657Y-98101983D01*
X162566644Y-98101990D01*
X162419163Y-98200535D01*
X162419159Y-98200538D01*
X162293736Y-98325961D01*
X162293733Y-98325965D01*
X162213544Y-98445975D01*
X162213541Y-98445981D01*
X162195185Y-98473453D01*
X162128423Y-98634630D01*
X162128406Y-98634670D01*
X162127305Y-98637329D01*
X162127301Y-98637341D01*
X162092698Y-98811304D01*
X161667526Y-98811304D01*
X161809175Y-98669655D01*
X161924139Y-98497598D01*
X162003328Y-98306420D01*
X162043698Y-98103465D01*
X162043698Y-97896535D01*
X162003328Y-97693580D01*
X161924139Y-97502402D01*
X161809175Y-97330345D01*
X161809173Y-97330342D01*
X161662855Y-97184024D01*
X161533342Y-97097487D01*
X161490796Y-97069059D01*
X161299618Y-96989870D01*
X161299610Y-96989868D01*
X161096667Y-96949500D01*
X161096663Y-96949500D01*
X160889733Y-96949500D01*
X160889728Y-96949500D01*
X160686785Y-96989868D01*
X160686777Y-96989870D01*
X160495601Y-97069058D01*
X160323540Y-97184024D01*
X160323539Y-97184025D01*
X160172913Y-97334652D01*
X160171786Y-97333525D01*
X160120447Y-97368498D01*
X160082336Y-97374500D01*
X157304060Y-97374500D01*
X157237021Y-97354815D01*
X157213901Y-97334233D01*
X157213483Y-97334652D01*
X157062855Y-97184024D01*
X156933342Y-97097487D01*
X156890796Y-97069059D01*
X156699618Y-96989870D01*
X156699610Y-96989868D01*
X156496667Y-96949500D01*
X156496663Y-96949500D01*
X156289733Y-96949500D01*
X156289728Y-96949500D01*
X156086785Y-96989868D01*
X156086777Y-96989870D01*
X155895601Y-97069058D01*
X155723540Y-97184024D01*
X155577222Y-97330342D01*
X155462256Y-97502403D01*
X155383068Y-97693579D01*
X155383066Y-97693587D01*
X155342698Y-97896530D01*
X155342698Y-97990139D01*
X155323013Y-98057178D01*
X155270209Y-98102933D01*
X155242889Y-98111756D01*
X155130540Y-98134103D01*
X155130530Y-98134106D01*
X154966657Y-98201983D01*
X154966644Y-98201990D01*
X154819163Y-98300535D01*
X154715412Y-98404286D01*
X154654089Y-98437770D01*
X154584397Y-98432786D01*
X154528464Y-98390914D01*
X154504047Y-98325449D01*
X154506114Y-98292413D01*
X154524101Y-98201987D01*
X154543698Y-98103465D01*
X154543698Y-97896535D01*
X154503328Y-97693580D01*
X154424139Y-97502402D01*
X154309175Y-97330345D01*
X154309173Y-97330342D01*
X154162855Y-97184024D01*
X154033342Y-97097487D01*
X153990796Y-97069059D01*
X153799618Y-96989870D01*
X153799610Y-96989868D01*
X153596667Y-96949500D01*
X153596663Y-96949500D01*
X153389733Y-96949500D01*
X153389728Y-96949500D01*
X153186785Y-96989868D01*
X153186777Y-96989870D01*
X152995601Y-97069058D01*
X152823540Y-97184024D01*
X152823539Y-97184025D01*
X152672913Y-97334652D01*
X152671786Y-97333525D01*
X152620447Y-97368498D01*
X152582336Y-97374500D01*
X149804060Y-97374500D01*
X149737021Y-97354815D01*
X149713901Y-97334233D01*
X149713483Y-97334652D01*
X149562855Y-97184024D01*
X149433342Y-97097487D01*
X149390796Y-97069059D01*
X149199618Y-96989870D01*
X149199610Y-96989868D01*
X148996667Y-96949500D01*
X148996663Y-96949500D01*
X148789733Y-96949500D01*
X148789728Y-96949500D01*
X148586785Y-96989868D01*
X148586777Y-96989870D01*
X148395601Y-97069058D01*
X148223540Y-97184024D01*
X148077222Y-97330342D01*
X147962256Y-97502403D01*
X147883068Y-97693579D01*
X147883066Y-97693587D01*
X147842698Y-97896530D01*
X147842698Y-97910030D01*
X147823013Y-97977069D01*
X147770209Y-98022824D01*
X147742893Y-98031647D01*
X147730533Y-98034105D01*
X147730527Y-98034107D01*
X147566657Y-98101983D01*
X147566644Y-98101990D01*
X147419163Y-98200535D01*
X147419159Y-98200538D01*
X147293736Y-98325961D01*
X147293733Y-98325965D01*
X147195188Y-98473446D01*
X147195181Y-98473459D01*
X147127304Y-98637332D01*
X147127301Y-98637341D01*
X147092698Y-98811304D01*
X127101078Y-98811304D01*
X127037326Y-98764986D01*
X127037325Y-98764985D01*
X127037323Y-98764984D01*
X126866782Y-98678089D01*
X126684747Y-98618942D01*
X126684745Y-98618941D01*
X126684744Y-98618941D01*
X126539523Y-98595940D01*
X126495701Y-98589000D01*
X126304299Y-98589000D01*
X126268723Y-98594634D01*
X126115255Y-98618941D01*
X126115251Y-98618942D01*
X125987817Y-98660347D01*
X125917976Y-98662342D01*
X125858143Y-98626261D01*
X125827316Y-98563560D01*
X125825500Y-98542416D01*
X125825500Y-98463843D01*
X125789934Y-98285047D01*
X125789933Y-98285046D01*
X125789933Y-98285042D01*
X125754930Y-98200536D01*
X125720168Y-98116612D01*
X125720166Y-98116608D01*
X125618886Y-97965032D01*
X125618880Y-97965024D01*
X125489975Y-97836119D01*
X125489967Y-97836113D01*
X125338391Y-97734833D01*
X125338387Y-97734831D01*
X125169962Y-97665068D01*
X125169952Y-97665065D01*
X124991156Y-97629500D01*
X124991154Y-97629500D01*
X124808846Y-97629500D01*
X124808844Y-97629500D01*
X124630047Y-97665065D01*
X124630037Y-97665068D01*
X124461612Y-97734831D01*
X124461608Y-97734833D01*
X124310032Y-97836113D01*
X124310024Y-97836119D01*
X124181119Y-97965024D01*
X124181113Y-97965032D01*
X124079833Y-98116608D01*
X124079831Y-98116612D01*
X124010068Y-98285037D01*
X124010065Y-98285047D01*
X123974500Y-98463843D01*
X123974500Y-98463846D01*
X123974500Y-98646154D01*
X123974500Y-98646156D01*
X123974499Y-98646156D01*
X124010065Y-98824952D01*
X124010068Y-98824962D01*
X124079831Y-98993387D01*
X124079833Y-98993391D01*
X124181113Y-99144967D01*
X124181119Y-99144975D01*
X124310024Y-99273880D01*
X124310032Y-99273886D01*
X124461608Y-99375166D01*
X124461612Y-99375168D01*
X124550937Y-99412167D01*
X124630042Y-99444933D01*
X124630046Y-99444933D01*
X124630047Y-99444934D01*
X124808843Y-99480500D01*
X124808846Y-99480500D01*
X124991155Y-99480500D01*
X125005846Y-99477577D01*
X125053194Y-99468159D01*
X125122783Y-99474385D01*
X125177961Y-99517248D01*
X125201207Y-99583137D01*
X125199858Y-99609173D01*
X125184000Y-99709298D01*
X125184000Y-99900700D01*
X125213941Y-100089744D01*
X125273090Y-100271784D01*
X125359986Y-100442326D01*
X125472481Y-100597164D01*
X125472485Y-100597169D01*
X125561135Y-100685819D01*
X125594620Y-100747142D01*
X125589636Y-100816834D01*
X125547764Y-100872767D01*
X125482300Y-100897184D01*
X125473454Y-100897500D01*
X122088670Y-100897500D01*
X122088654Y-100897499D01*
X122081058Y-100897499D01*
X121922943Y-100897499D01*
X121846579Y-100917961D01*
X121770214Y-100938423D01*
X121770209Y-100938426D01*
X121633290Y-101017475D01*
X121633282Y-101017481D01*
X116747584Y-105903181D01*
X116686261Y-105936666D01*
X116659903Y-105939500D01*
X116109556Y-105939500D01*
X116042517Y-105919815D01*
X116009238Y-105888386D01*
X115998079Y-105873027D01*
X115914927Y-105758578D01*
X115781422Y-105625073D01*
X115628675Y-105514096D01*
X115604637Y-105501848D01*
X115471447Y-105433984D01*
X115420651Y-105386009D01*
X115403856Y-105318188D01*
X115426394Y-105252053D01*
X115481109Y-105208602D01*
X115527742Y-105199499D01*
X115746871Y-105199499D01*
X115746872Y-105199499D01*
X115806483Y-105193091D01*
X115941331Y-105142796D01*
X116056546Y-105056546D01*
X116142796Y-104941331D01*
X116193091Y-104806483D01*
X116199500Y-104746873D01*
X116199499Y-103253128D01*
X116193091Y-103193517D01*
X116186947Y-103177045D01*
X116142797Y-103058671D01*
X116142793Y-103058664D01*
X116056547Y-102943455D01*
X116056544Y-102943452D01*
X115941335Y-102857206D01*
X115941328Y-102857202D01*
X115806482Y-102806908D01*
X115806483Y-102806908D01*
X115746883Y-102800501D01*
X115746881Y-102800500D01*
X115746873Y-102800500D01*
X115746864Y-102800500D01*
X114253129Y-102800500D01*
X114253123Y-102800501D01*
X114193516Y-102806908D01*
X114058671Y-102857202D01*
X114058664Y-102857206D01*
X113943455Y-102943452D01*
X113943452Y-102943455D01*
X113857206Y-103058664D01*
X113857202Y-103058671D01*
X113806908Y-103193517D01*
X113800782Y-103250500D01*
X113800501Y-103253123D01*
X113800500Y-103253135D01*
X113800500Y-104263547D01*
X113780815Y-104330586D01*
X113764181Y-104351228D01*
X112103777Y-106011631D01*
X112103768Y-106011640D01*
X112101270Y-106014139D01*
X112101267Y-106014142D01*
X112014142Y-106101267D01*
X111990043Y-106137334D01*
X111985236Y-106144528D01*
X111945687Y-106203714D01*
X111945685Y-106203718D01*
X111920630Y-106264207D01*
X111920631Y-106264208D01*
X111905448Y-106300863D01*
X111905447Y-106300866D01*
X111901122Y-106311309D01*
X111898537Y-106317549D01*
X111877058Y-106425536D01*
X111874500Y-106438394D01*
X109200500Y-106438394D01*
X109200500Y-97956902D01*
X113499500Y-97956902D01*
X113499500Y-98193097D01*
X113536446Y-98426368D01*
X113609433Y-98650996D01*
X113693496Y-98815977D01*
X113716657Y-98861433D01*
X113855483Y-99052510D01*
X114022490Y-99219517D01*
X114213567Y-99358343D01*
X114312991Y-99409002D01*
X114424003Y-99465566D01*
X114424005Y-99465566D01*
X114424008Y-99465568D01*
X114544412Y-99504689D01*
X114648631Y-99538553D01*
X114881903Y-99575500D01*
X114881908Y-99575500D01*
X115118097Y-99575500D01*
X115351368Y-99538553D01*
X115407689Y-99520253D01*
X115575992Y-99465568D01*
X115786433Y-99358343D01*
X115977510Y-99219517D01*
X116144517Y-99052510D01*
X116283343Y-98861433D01*
X116390568Y-98650992D01*
X116463553Y-98426368D01*
X116482551Y-98306420D01*
X116500500Y-98193097D01*
X116500500Y-97956902D01*
X116463553Y-97723631D01*
X116391671Y-97502403D01*
X116390568Y-97499008D01*
X116390566Y-97499005D01*
X116390566Y-97499003D01*
X116283342Y-97288566D01*
X116144517Y-97097490D01*
X115977510Y-96930483D01*
X115786433Y-96791657D01*
X115575996Y-96684433D01*
X115351368Y-96611446D01*
X115118097Y-96574500D01*
X115118092Y-96574500D01*
X114881908Y-96574500D01*
X114881903Y-96574500D01*
X114648631Y-96611446D01*
X114424003Y-96684433D01*
X114213566Y-96791657D01*
X114104550Y-96870862D01*
X114022490Y-96930483D01*
X114022488Y-96930485D01*
X114022487Y-96930485D01*
X113855485Y-97097487D01*
X113855485Y-97097488D01*
X113855483Y-97097490D01*
X113795862Y-97179550D01*
X113716657Y-97288566D01*
X113609433Y-97499003D01*
X113536446Y-97723631D01*
X113499500Y-97956902D01*
X109200500Y-97956902D01*
X109200500Y-95524500D01*
X109220185Y-95457461D01*
X109272989Y-95411706D01*
X109324500Y-95400500D01*
X160434108Y-95400500D01*
X160565892Y-95400500D01*
X171075500Y-95400500D01*
X171142539Y-95420185D01*
G37*
%TD.AperFunction*%
%TA.AperFunction,NonConductor*%
G36*
X143149984Y-107062124D02*
G01*
X143265963Y-107151117D01*
X143265962Y-107151117D01*
X143308352Y-107168675D01*
X143409001Y-107210365D01*
X143523960Y-107225500D01*
X143523967Y-107225500D01*
X143775903Y-107225500D01*
X143797148Y-107231738D01*
X143819237Y-107233318D01*
X143830020Y-107241390D01*
X143842942Y-107245185D01*
X143857441Y-107261918D01*
X143875170Y-107275190D01*
X143879877Y-107287810D01*
X143888697Y-107297989D01*
X143891848Y-107319906D01*
X143899587Y-107340654D01*
X143896724Y-107353814D01*
X143898641Y-107367147D01*
X143889441Y-107387290D01*
X143884735Y-107408927D01*
X143871466Y-107426652D01*
X143869616Y-107430703D01*
X143863584Y-107437181D01*
X143762584Y-107538181D01*
X143701261Y-107571666D01*
X143674903Y-107574500D01*
X143523952Y-107574500D01*
X143421774Y-107587953D01*
X143409001Y-107589635D01*
X143409000Y-107589635D01*
X143372451Y-107604774D01*
X143302981Y-107612241D01*
X143277549Y-107604774D01*
X143260759Y-107597820D01*
X143240999Y-107589635D01*
X143226629Y-107587743D01*
X143126047Y-107574500D01*
X143126040Y-107574500D01*
X143074500Y-107574500D01*
X143007461Y-107554815D01*
X142961706Y-107502011D01*
X142950500Y-107450500D01*
X142950500Y-107160501D01*
X142970185Y-107093462D01*
X143022989Y-107047707D01*
X143092147Y-107037763D01*
X143149984Y-107062124D01*
G37*
%TD.AperFunction*%
%TA.AperFunction,NonConductor*%
G36*
X133008197Y-112345185D02*
G01*
X133053952Y-112397989D01*
X133063896Y-112467147D01*
X133034871Y-112530703D01*
X133028839Y-112537181D01*
X132827840Y-112738181D01*
X132766517Y-112771666D01*
X132740159Y-112774500D01*
X129324500Y-112774500D01*
X129315814Y-112771949D01*
X129306854Y-112773238D01*
X129282815Y-112762259D01*
X129257461Y-112754815D01*
X129251533Y-112747973D01*
X129243298Y-112744213D01*
X129229010Y-112721980D01*
X129211706Y-112702011D01*
X129209418Y-112691496D01*
X129205523Y-112685435D01*
X129200500Y-112650501D01*
X129200499Y-112449501D01*
X129220183Y-112382461D01*
X129272987Y-112336706D01*
X129324499Y-112325500D01*
X132941158Y-112325500D01*
X133008197Y-112345185D01*
G37*
%TD.AperFunction*%
%TA.AperFunction,NonConductor*%
G36*
X123542539Y-102519185D02*
G01*
X123588294Y-102571989D01*
X123599500Y-102623500D01*
X123599500Y-103197870D01*
X123599501Y-103197876D01*
X123605908Y-103257479D01*
X123607692Y-103265026D01*
X123606229Y-103265371D01*
X123610585Y-103326371D01*
X123606173Y-103341396D01*
X123605908Y-103342517D01*
X123599501Y-103402117D01*
X123599500Y-103402136D01*
X123599500Y-103997870D01*
X123599501Y-103997876D01*
X123605908Y-104057479D01*
X123607692Y-104065026D01*
X123606229Y-104065371D01*
X123610585Y-104126371D01*
X123606173Y-104141396D01*
X123605908Y-104142517D01*
X123599501Y-104202117D01*
X123599500Y-104202136D01*
X123599500Y-104797870D01*
X123599501Y-104797876D01*
X123605908Y-104857479D01*
X123607692Y-104865026D01*
X123606229Y-104865371D01*
X123610585Y-104926371D01*
X123606173Y-104941396D01*
X123605908Y-104942517D01*
X123599501Y-105002117D01*
X123599500Y-105002136D01*
X123599500Y-105597870D01*
X123599501Y-105597876D01*
X123605908Y-105657483D01*
X123656202Y-105792328D01*
X123656206Y-105792335D01*
X123742452Y-105907544D01*
X123742455Y-105907547D01*
X123857664Y-105993793D01*
X123857671Y-105993797D01*
X123992517Y-106044091D01*
X123992516Y-106044091D01*
X123999444Y-106044835D01*
X124052127Y-106050500D01*
X125251711Y-106050499D01*
X125318750Y-106070184D01*
X125354812Y-106105607D01*
X125400533Y-106174032D01*
X125400538Y-106174038D01*
X125525961Y-106299461D01*
X125525965Y-106299464D01*
X125673446Y-106398009D01*
X125673459Y-106398016D01*
X125788330Y-106445596D01*
X125837334Y-106465894D01*
X125837336Y-106465894D01*
X125837341Y-106465896D01*
X126011304Y-106500499D01*
X126011307Y-106500500D01*
X126011309Y-106500500D01*
X126188693Y-106500500D01*
X126188694Y-106500499D01*
X126248058Y-106488691D01*
X126362658Y-106465896D01*
X126362661Y-106465894D01*
X126362666Y-106465894D01*
X126526547Y-106398013D01*
X126674035Y-106299464D01*
X126799464Y-106174035D01*
X126898013Y-106026547D01*
X126933489Y-105940897D01*
X126977327Y-105886497D01*
X127043621Y-105864431D01*
X127111321Y-105881709D01*
X127134735Y-105902722D01*
X127136183Y-105901275D01*
X127142455Y-105907547D01*
X127257664Y-105993793D01*
X127257671Y-105993797D01*
X127302618Y-106010561D01*
X127392517Y-106044091D01*
X127452127Y-106050500D01*
X127914547Y-106050499D01*
X127981586Y-106070183D01*
X128002228Y-106086818D01*
X128963181Y-107047771D01*
X128996666Y-107109094D01*
X128999500Y-107135452D01*
X128999500Y-107213695D01*
X129034103Y-107387658D01*
X129034106Y-107387667D01*
X129101983Y-107551540D01*
X129101990Y-107551553D01*
X129200535Y-107699034D01*
X129200538Y-107699038D01*
X129325961Y-107824461D01*
X129325965Y-107824464D01*
X129473446Y-107923009D01*
X129473459Y-107923016D01*
X129533629Y-107947939D01*
X129588033Y-107991780D01*
X129610098Y-108058074D01*
X129592819Y-108125773D01*
X129541682Y-108173384D01*
X129533629Y-108177061D01*
X129473459Y-108201983D01*
X129473446Y-108201990D01*
X129325965Y-108300535D01*
X129325961Y-108300538D01*
X129288321Y-108338180D01*
X129226999Y-108371666D01*
X129200639Y-108374500D01*
X128338389Y-108374500D01*
X128277971Y-108386518D01*
X128240259Y-108394019D01*
X128217550Y-108398536D01*
X128217548Y-108398537D01*
X128184207Y-108412347D01*
X128103718Y-108445685D01*
X128103709Y-108445690D01*
X128057668Y-108476455D01*
X128057645Y-108476470D01*
X128056436Y-108477279D01*
X128001267Y-108514142D01*
X127994644Y-108520764D01*
X127985862Y-108526939D01*
X127962519Y-108534860D01*
X127940885Y-108546670D01*
X127921625Y-108548739D01*
X127919699Y-108549393D01*
X127918445Y-108549080D01*
X127914545Y-108549500D01*
X127452129Y-108549500D01*
X127452123Y-108549501D01*
X127392516Y-108555908D01*
X127257671Y-108606202D01*
X127257664Y-108606206D01*
X127142455Y-108692452D01*
X127082768Y-108772183D01*
X127026834Y-108814053D01*
X126957142Y-108819037D01*
X126895819Y-108785551D01*
X126869883Y-108742274D01*
X126868225Y-108742962D01*
X126798016Y-108573459D01*
X126798009Y-108573446D01*
X126699464Y-108425965D01*
X126699461Y-108425961D01*
X126574038Y-108300538D01*
X126574034Y-108300535D01*
X126426553Y-108201990D01*
X126426540Y-108201983D01*
X126262667Y-108134106D01*
X126262658Y-108134103D01*
X126088694Y-108099500D01*
X126088691Y-108099500D01*
X125911309Y-108099500D01*
X125911306Y-108099500D01*
X125737341Y-108134103D01*
X125737332Y-108134106D01*
X125573459Y-108201983D01*
X125573446Y-108201990D01*
X125425965Y-108300535D01*
X125425961Y-108300538D01*
X125300542Y-108425958D01*
X125300539Y-108425960D01*
X125254813Y-108494393D01*
X125201200Y-108539197D01*
X125151712Y-108549500D01*
X124052129Y-108549500D01*
X124052123Y-108549501D01*
X123992516Y-108555908D01*
X123857671Y-108606202D01*
X123857664Y-108606206D01*
X123742455Y-108692452D01*
X123742452Y-108692455D01*
X123656206Y-108807664D01*
X123656202Y-108807671D01*
X123605910Y-108942513D01*
X123605909Y-108942517D01*
X123599500Y-109002127D01*
X123599500Y-109002134D01*
X123599500Y-109002135D01*
X123599500Y-109597870D01*
X123599501Y-109597876D01*
X123605908Y-109657479D01*
X123607692Y-109665026D01*
X123606229Y-109665371D01*
X123610585Y-109726371D01*
X123606173Y-109741396D01*
X123605908Y-109742517D01*
X123599501Y-109802117D01*
X123599500Y-109802136D01*
X123599500Y-110397870D01*
X123599501Y-110397876D01*
X123605908Y-110457479D01*
X123607692Y-110465026D01*
X123606229Y-110465371D01*
X123610585Y-110526371D01*
X123606173Y-110541396D01*
X123605908Y-110542517D01*
X123599501Y-110602117D01*
X123599500Y-110602136D01*
X123599500Y-111197870D01*
X123599501Y-111197876D01*
X123605908Y-111257479D01*
X123607692Y-111265026D01*
X123606229Y-111265371D01*
X123610585Y-111326371D01*
X123606173Y-111341396D01*
X123605908Y-111342517D01*
X123599501Y-111402117D01*
X123599500Y-111402136D01*
X123599500Y-111997870D01*
X123599501Y-111997876D01*
X123605908Y-112057479D01*
X123607692Y-112065026D01*
X123606229Y-112065371D01*
X123610585Y-112126371D01*
X123606173Y-112141396D01*
X123605908Y-112142517D01*
X123601616Y-112182443D01*
X123599500Y-112202127D01*
X123599500Y-112485860D01*
X123599501Y-112650500D01*
X123579817Y-112717539D01*
X123527013Y-112763294D01*
X123475501Y-112774500D01*
X114210452Y-112774500D01*
X114143413Y-112754815D01*
X114122771Y-112738181D01*
X113161819Y-111777229D01*
X113128334Y-111715906D01*
X113125500Y-111689548D01*
X113125500Y-106810451D01*
X113145185Y-106743412D01*
X113161815Y-106722774D01*
X113598678Y-106285910D01*
X113660001Y-106252426D01*
X113729693Y-106257410D01*
X113785626Y-106299282D01*
X113810043Y-106364746D01*
X113808832Y-106392989D01*
X113803677Y-106425536D01*
X113800500Y-106445597D01*
X113800500Y-106634403D01*
X113801186Y-106638732D01*
X113830035Y-106820884D01*
X113888381Y-107000452D01*
X113938831Y-107099464D01*
X113974096Y-107168675D01*
X114085073Y-107321422D01*
X114218578Y-107454927D01*
X114371325Y-107565904D01*
X114382634Y-107571666D01*
X114539547Y-107651618D01*
X114539549Y-107651618D01*
X114539552Y-107651620D01*
X114607347Y-107673648D01*
X114664040Y-107692069D01*
X114721715Y-107731507D01*
X114748913Y-107795866D01*
X114736998Y-107864712D01*
X114689754Y-107916188D01*
X114664040Y-107927931D01*
X114539547Y-107968381D01*
X114371324Y-108054096D01*
X114218575Y-108165075D01*
X114085075Y-108298575D01*
X113974096Y-108451324D01*
X113888381Y-108619547D01*
X113830035Y-108799115D01*
X113800500Y-108985597D01*
X113800500Y-109174402D01*
X113830035Y-109360884D01*
X113888381Y-109540452D01*
X113952031Y-109665371D01*
X113974096Y-109708675D01*
X114085073Y-109861422D01*
X114218578Y-109994927D01*
X114371325Y-110105904D01*
X114450804Y-110146400D01*
X114539547Y-110191618D01*
X114539549Y-110191618D01*
X114539552Y-110191620D01*
X114635802Y-110222893D01*
X114719115Y-110249964D01*
X114799331Y-110262669D01*
X114905597Y-110279500D01*
X114905598Y-110279500D01*
X115094402Y-110279500D01*
X115094403Y-110279500D01*
X115280884Y-110249964D01*
X115460448Y-110191620D01*
X115628675Y-110105904D01*
X115781422Y-109994927D01*
X115914927Y-109861422D01*
X116025904Y-109708675D01*
X116111620Y-109540448D01*
X116169964Y-109360884D01*
X116199500Y-109174403D01*
X116199500Y-108985597D01*
X116174399Y-108827118D01*
X116183353Y-108757828D01*
X116209188Y-108720045D01*
X122393417Y-102535819D01*
X122454740Y-102502334D01*
X122481098Y-102499500D01*
X123475500Y-102499500D01*
X123542539Y-102519185D01*
G37*
%TD.AperFunction*%
M02*
