%TF.GenerationSoftware,KiCad,Pcbnew,9.0.2*%
%TF.CreationDate,2025-05-27T11:43:51-07:00*%
%TF.ProjectId,8_6mSiPMs,385f366d-5369-4504-9d73-2e6b69636164,rev?*%
%TF.SameCoordinates,Original*%
%TF.FileFunction,Copper,L2,Bot*%
%TF.FilePolarity,Positive*%
%FSLAX46Y46*%
G04 Gerber Fmt 4.6, Leading zero omitted, Abs format (unit mm)*
G04 Created by KiCad (PCBNEW 9.0.2) date 2025-05-27 11:43:51*
%MOMM*%
%LPD*%
G01*
G04 APERTURE LIST*
G04 Aperture macros list*
%AMRoundRect*
0 Rectangle with rounded corners*
0 $1 Rounding radius*
0 $2 $3 $4 $5 $6 $7 $8 $9 X,Y pos of 4 corners*
0 Add a 4 corners polygon primitive as box body*
4,1,4,$2,$3,$4,$5,$6,$7,$8,$9,$2,$3,0*
0 Add four circle primitives for the rounded corners*
1,1,$1+$1,$2,$3*
1,1,$1+$1,$4,$5*
1,1,$1+$1,$6,$7*
1,1,$1+$1,$8,$9*
0 Add four rect primitives between the rounded corners*
20,1,$1+$1,$2,$3,$4,$5,0*
20,1,$1+$1,$4,$5,$6,$7,0*
20,1,$1+$1,$6,$7,$8,$9,0*
20,1,$1+$1,$8,$9,$2,$3,0*%
G04 Aperture macros list end*
%TA.AperFunction,ComponentPad*%
%ADD10C,1.431000*%
%TD*%
%TA.AperFunction,SMDPad,CuDef*%
%ADD11RoundRect,0.250000X-0.325000X-1.100000X0.325000X-1.100000X0.325000X1.100000X-0.325000X1.100000X0*%
%TD*%
%TA.AperFunction,SMDPad,CuDef*%
%ADD12RoundRect,0.250000X0.325000X1.100000X-0.325000X1.100000X-0.325000X-1.100000X0.325000X-1.100000X0*%
%TD*%
%TA.AperFunction,ViaPad*%
%ADD13C,0.800000*%
%TD*%
%TA.AperFunction,Conductor*%
%ADD14C,0.250000*%
%TD*%
%TA.AperFunction,Conductor*%
%ADD15C,0.200000*%
%TD*%
G04 APERTURE END LIST*
D10*
%TO.P,J\u002A\u002A,MH1*%
%TO.N,N/C*%
X126400000Y-99805000D03*
%TO.P,J\u002A\u002A,MH2*%
X126400000Y-115595000D03*
%TD*%
D11*
%TO.P,10 nF,1*%
%TO.N,GND*%
X164968198Y-100100000D03*
%TO.P,10 nF,2*%
%TO.N,2A*%
X167918198Y-100100000D03*
%TD*%
%TO.P,10 nF,1*%
%TO.N,GND*%
X157468198Y-100100000D03*
%TO.P,10 nF,2*%
%TO.N,1A*%
X160418198Y-100100000D03*
%TD*%
%TO.P,10 nF,1*%
%TO.N,GND*%
X149968198Y-115100000D03*
%TO.P,10 nF,2*%
%TO.N,5A*%
X152918198Y-115100000D03*
%TD*%
%TO.P,10 nF,1*%
%TO.N,GND*%
X164968198Y-115100000D03*
%TO.P,10 nF,2*%
%TO.N,7A*%
X167918198Y-115100000D03*
%TD*%
%TO.P,10 nF,1*%
%TO.N,GND*%
X153718198Y-107600000D03*
%TO.P,10 nF,2*%
%TO.N,3A*%
X156668198Y-107600000D03*
%TD*%
%TO.P,10 nF,1*%
%TO.N,GND*%
X161218198Y-107600000D03*
%TO.P,10 nF,2*%
%TO.N,4A*%
X164168198Y-107600000D03*
%TD*%
D12*
%TO.P,10 nF,1*%
%TO.N,0A*%
X152918198Y-100100000D03*
%TO.P,10 nF,2*%
%TO.N,GND*%
X149968198Y-100100000D03*
%TD*%
D11*
%TO.P,10 nF,1*%
%TO.N,GND*%
X157468198Y-115100000D03*
%TO.P,10 nF,2*%
%TO.N,6A*%
X160418198Y-115100000D03*
%TD*%
D13*
%TO.N,0A*%
X151443198Y-102300000D03*
X129500000Y-102600000D03*
%TO.N,0C*%
X126200000Y-102600000D03*
X147993198Y-98900000D03*
%TO.N,1C*%
X155393198Y-99000000D03*
X126200000Y-103600000D03*
%TO.N,1A*%
X158943198Y-102200000D03*
X130475306Y-103675305D03*
%TO.N,2C*%
X126200000Y-104600003D03*
X162993198Y-98900000D03*
%TO.N,2A*%
X131700611Y-104500611D03*
X166443198Y-102200000D03*
%TO.N,3A*%
X155343198Y-109700000D03*
X129900000Y-107125000D03*
%TO.N,3C*%
X151693198Y-106400000D03*
X126100000Y-105600000D03*
%TO.N,4A*%
X129900000Y-109000000D03*
X162743198Y-109700000D03*
%TO.N,4C*%
X126000000Y-109000000D03*
X159193198Y-106400000D03*
%TO.N,5A*%
X130999049Y-110099049D03*
X151443198Y-117200000D03*
%TO.N,5C*%
X147900000Y-112000000D03*
X126000000Y-110000003D03*
%TO.N,6A*%
X158943198Y-117200000D03*
X132277870Y-110870839D03*
%TO.N,6C*%
X126000000Y-111000006D03*
X155393198Y-114000000D03*
%TO.N,7A*%
X133712653Y-111712653D03*
X166443198Y-117200000D03*
%TO.N,7C*%
X162893198Y-114000000D03*
X126000000Y-112000009D03*
%TO.N,GND*%
X134900000Y-105675000D03*
%TD*%
D14*
%TO.N,0A*%
X152918198Y-100100000D02*
X151443198Y-101575000D01*
X151443198Y-101575000D02*
X151443198Y-102300000D01*
X132750000Y-99350000D02*
X129500000Y-102600000D01*
X149923098Y-102300000D02*
X146973098Y-99350000D01*
X146973098Y-99350000D02*
X146000000Y-99350000D01*
X146000000Y-99350000D02*
X132750000Y-99350000D01*
X151443198Y-102300000D02*
X149923098Y-102300000D01*
%TO.N,0C*%
X129900000Y-98900000D02*
X126200000Y-102600000D01*
X147993198Y-98900000D02*
X129900000Y-98900000D01*
%TO.N,1C*%
X129525305Y-103600000D02*
X133325305Y-99800000D01*
X133325305Y-99800000D02*
X146100000Y-99800000D01*
X146100000Y-99800000D02*
X149300000Y-103000000D01*
X149300000Y-103000000D02*
X149300000Y-103025000D01*
X152238298Y-103025000D02*
X155393198Y-99870100D01*
X149268198Y-103025000D02*
X149300000Y-103025000D01*
X126200000Y-103600000D02*
X129525305Y-103600000D01*
X149300000Y-103025000D02*
X152238298Y-103025000D01*
X155393198Y-99870100D02*
X155393198Y-99000000D01*
%TO.N,1A*%
X136000000Y-100250000D02*
X133900611Y-100250000D01*
X160418198Y-100100000D02*
X158943198Y-101575000D01*
X145856802Y-100250000D02*
X145600000Y-100250000D01*
X158943198Y-101575000D02*
X158943198Y-102200000D01*
X145600000Y-100250000D02*
X136000000Y-100250000D01*
X149081802Y-103475000D02*
X148900000Y-103293198D01*
X157668198Y-103475000D02*
X149081802Y-103475000D01*
X158943198Y-102200000D02*
X157668198Y-103475000D01*
X133900611Y-100250000D02*
X130475306Y-103675305D01*
X148900000Y-103293198D02*
X145856802Y-100250000D01*
%TO.N,2C*%
X162993198Y-99770100D02*
X162993198Y-98900000D01*
X148895406Y-103925000D02*
X158838298Y-103925000D01*
X126200000Y-104600003D02*
X130575913Y-104600003D01*
X158838298Y-103925000D02*
X162993198Y-99770100D01*
X145670406Y-100700000D02*
X148895406Y-103925000D01*
X134475916Y-100700000D02*
X145670406Y-100700000D01*
X130575913Y-104600003D02*
X134475916Y-100700000D01*
%TO.N,2A*%
X158651902Y-104375000D02*
X148709010Y-104375000D01*
X166443198Y-102200000D02*
X166300000Y-102200000D01*
X166443198Y-101575000D02*
X166443198Y-102200000D01*
X143600000Y-101150000D02*
X135051222Y-101150000D01*
X148709010Y-104375000D02*
X147317005Y-102982995D01*
X167918198Y-100100000D02*
X166443198Y-101575000D01*
X147317005Y-102982995D02*
X145484010Y-101150000D01*
X164125000Y-104375000D02*
X158651902Y-104375000D01*
X166300000Y-102200000D02*
X164125000Y-104375000D01*
X145484010Y-101150000D02*
X143600000Y-101150000D01*
X135051222Y-101150000D02*
X131700611Y-104500611D01*
%TO.N,3A*%
X156668198Y-107600000D02*
X155343198Y-108925000D01*
X155343198Y-108925000D02*
X155343198Y-109700000D01*
X153573098Y-109700000D02*
X150723098Y-106850000D01*
X130175000Y-106850000D02*
X129900000Y-107125000D01*
X150723098Y-106850000D02*
X149200000Y-106850000D01*
X155343198Y-109700000D02*
X153573098Y-109700000D01*
X149200000Y-106850000D02*
X130175000Y-106850000D01*
%TO.N,3C*%
X151693198Y-106400000D02*
X126900000Y-106400000D01*
X126900000Y-106400000D02*
X126100000Y-105600000D01*
%TO.N,4A*%
X153286702Y-110686396D02*
X150350306Y-107750000D01*
X131686396Y-107750000D02*
X131568198Y-107868198D01*
X153550306Y-110950000D02*
X153286702Y-110686396D01*
X131568198Y-107868198D02*
X130436396Y-109000000D01*
X164168198Y-107600000D02*
X162743198Y-109025000D01*
X162743198Y-109700000D02*
X161493198Y-110950000D01*
X132100000Y-107750000D02*
X131686396Y-107750000D01*
X150350306Y-107750000D02*
X146100000Y-107750000D01*
X146100000Y-107750000D02*
X132100000Y-107750000D01*
X161493198Y-110950000D02*
X153550306Y-110950000D01*
X130436396Y-109000000D02*
X129900000Y-109000000D01*
X162743198Y-109025000D02*
X162743198Y-109700000D01*
%TO.N,4C*%
X149000000Y-107300000D02*
X133200000Y-107300000D01*
X130950000Y-107850000D02*
X127050000Y-107850000D01*
X126800000Y-108100000D02*
X126000000Y-108900000D01*
X159193198Y-107320100D02*
X156013298Y-110500000D01*
X131500000Y-107300000D02*
X130950000Y-107850000D01*
X126000000Y-108900000D02*
X126000000Y-109000000D01*
X150536702Y-107300000D02*
X149000000Y-107300000D01*
X153736702Y-110500000D02*
X153123098Y-109886396D01*
X127050000Y-107850000D02*
X126800000Y-108100000D01*
X156013298Y-110500000D02*
X153736702Y-110500000D01*
X153123098Y-109886396D02*
X150536702Y-107300000D01*
X133200000Y-107300000D02*
X131500000Y-107300000D01*
X159193198Y-106400000D02*
X159193198Y-107320100D01*
%TO.N,5A*%
X143100000Y-108650000D02*
X132448098Y-108650000D01*
X132448098Y-108650000D02*
X130999049Y-110099049D01*
X151443198Y-117200000D02*
X149823098Y-117200000D01*
X146931802Y-111668198D02*
X143913604Y-108650000D01*
X146981802Y-111718198D02*
X146931802Y-111668198D01*
X152918198Y-115100000D02*
X151443198Y-116575000D01*
X151443198Y-116575000D02*
X151443198Y-117200000D01*
X149823098Y-117200000D02*
X146981802Y-114358704D01*
X143913604Y-108650000D02*
X143100000Y-108650000D01*
X146981802Y-114358704D02*
X146981802Y-111718198D01*
%TO.N,5C*%
X143000000Y-108200000D02*
X131872792Y-108200000D01*
X144100000Y-108200000D02*
X143000000Y-108200000D01*
X131872792Y-108200000D02*
X131236396Y-108836396D01*
X131236396Y-108836396D02*
X130072789Y-110000003D01*
X147900000Y-112000000D02*
X144100000Y-108200000D01*
X130072789Y-110000003D02*
X126000000Y-110000003D01*
%TO.N,6A*%
X147875153Y-116524847D02*
X146081802Y-114731496D01*
D15*
X160418198Y-116225000D02*
X160418198Y-115600000D01*
D14*
X143540812Y-109550000D02*
X141713604Y-109550000D01*
X150800000Y-118375000D02*
X149725306Y-118375000D01*
X149725306Y-118375000D02*
X147875153Y-116524847D01*
X158943198Y-117200000D02*
X157768198Y-118375000D01*
X158943198Y-116575000D02*
X158943198Y-117200000D01*
X145445406Y-111454594D02*
X143540812Y-109550000D01*
X141713604Y-109550000D02*
X133598709Y-109550000D01*
X160418198Y-115100000D02*
X158943198Y-116575000D01*
X146081802Y-114731496D02*
X146081802Y-113300000D01*
X146081802Y-112090990D02*
X145445406Y-111454594D01*
X146081802Y-113300000D02*
X146081802Y-112090990D01*
X133598709Y-109550000D02*
X132277870Y-110870839D01*
X157768198Y-118375000D02*
X150800000Y-118375000D01*
%TO.N,6C*%
X146531802Y-114545100D02*
X146531802Y-111904594D01*
X146531802Y-111904594D02*
X143727208Y-109100000D01*
X149911702Y-117925000D02*
X146531802Y-114545100D01*
X133023403Y-109100000D02*
X131123397Y-111000006D01*
X131123397Y-111000006D02*
X126000000Y-111000006D01*
X155393198Y-114000000D02*
X155393198Y-114870100D01*
X143727208Y-109100000D02*
X133023403Y-109100000D01*
X152338298Y-117925000D02*
X149911702Y-117925000D01*
X155393198Y-114870100D02*
X152338298Y-117925000D01*
%TO.N,7A*%
X167918198Y-115100000D02*
X166443198Y-116575000D01*
X145181802Y-112463782D02*
X144709010Y-111990990D01*
X148438757Y-118361243D02*
X145181802Y-115104288D01*
X134975306Y-110450000D02*
X133712653Y-111712653D01*
X144709010Y-111990990D02*
X143168020Y-110450000D01*
X166200000Y-117200000D02*
X164125000Y-119275000D01*
X159151902Y-119275000D02*
X149352514Y-119275000D01*
X166443198Y-116575000D02*
X166443198Y-117200000D01*
X145181802Y-115104288D02*
X145181802Y-113900000D01*
X166443198Y-117200000D02*
X166200000Y-117200000D01*
X164125000Y-119275000D02*
X159151902Y-119275000D01*
X149352514Y-119275000D02*
X148438757Y-118361243D01*
X145181802Y-113900000D02*
X145181802Y-112463782D01*
X141000000Y-110450000D02*
X134975306Y-110450000D01*
X143168020Y-110450000D02*
X141000000Y-110450000D01*
%TO.N,7C*%
X134400000Y-110000000D02*
X132399991Y-112000009D01*
X145631802Y-114545100D02*
X145631802Y-112277386D01*
X149538910Y-118825000D02*
X149275306Y-118561396D01*
X145631802Y-114917892D02*
X145631802Y-114545100D01*
X149275306Y-118561396D02*
X145631802Y-114917892D01*
X159338298Y-118825000D02*
X156800000Y-118825000D01*
X132399991Y-112000009D02*
X126000000Y-112000009D01*
X143354416Y-110000000D02*
X140800000Y-110000000D01*
X162893198Y-115270100D02*
X159338298Y-118825000D01*
X156800000Y-118825000D02*
X149538910Y-118825000D01*
X135300000Y-110000000D02*
X134400000Y-110000000D01*
X144677208Y-111322792D02*
X143354416Y-110000000D01*
X145631802Y-112277386D02*
X144677208Y-111322792D01*
X162893198Y-114000000D02*
X162893198Y-115270100D01*
X140800000Y-110000000D02*
X135300000Y-110000000D01*
%TO.N,GND*%
X164493198Y-113275000D02*
X164968198Y-113750000D01*
X153718198Y-106250000D02*
X153143198Y-105675000D01*
X153718198Y-107600000D02*
X155643198Y-105675000D01*
X164968198Y-100100000D02*
X164968198Y-98250000D01*
X165543198Y-106525000D02*
X165543198Y-113175000D01*
X157468198Y-115100000D02*
X157468198Y-113300000D01*
X165543198Y-113175000D02*
X164968198Y-113750000D01*
X164693198Y-105675000D02*
X165543198Y-106525000D01*
X155643198Y-105675000D02*
X161293198Y-105675000D01*
X151793198Y-113275000D02*
X157493198Y-113275000D01*
X164893198Y-98175000D02*
X168238298Y-98175000D01*
X161218198Y-107600000D02*
X161218198Y-105750000D01*
X151893198Y-98175000D02*
X157493198Y-98175000D01*
X157493198Y-113275000D02*
X164493198Y-113275000D01*
X157468198Y-100100000D02*
X157468198Y-98200000D01*
X164693198Y-105600000D02*
X164693198Y-105675000D01*
X150900000Y-105950000D02*
X135175000Y-105950000D01*
X164968198Y-113750000D02*
X164968198Y-115100000D01*
X149968198Y-100100000D02*
X151893198Y-98175000D01*
X157468198Y-98200000D02*
X157493198Y-98175000D01*
X168818198Y-98754900D02*
X168818198Y-101475000D01*
X157493198Y-98175000D02*
X164893198Y-98175000D01*
X151175000Y-105675000D02*
X150900000Y-105950000D01*
X164968198Y-98250000D02*
X164893198Y-98175000D01*
X157468198Y-113300000D02*
X157493198Y-113275000D01*
X168238298Y-98175000D02*
X168818198Y-98754900D01*
X153718198Y-107600000D02*
X153718198Y-106250000D01*
X149968198Y-115100000D02*
X151793198Y-113275000D01*
X161293198Y-105675000D02*
X164693198Y-105675000D01*
X153143198Y-105675000D02*
X151175000Y-105675000D01*
X135175000Y-105950000D02*
X134900000Y-105675000D01*
X168818198Y-101475000D02*
X164693198Y-105600000D01*
X161218198Y-105750000D02*
X161293198Y-105675000D01*
%TD*%
%TA.AperFunction,NonConductor*%
G36*
X162027737Y-98828185D02*
G01*
X162073492Y-98880989D01*
X162084698Y-98932500D01*
X162084698Y-98989483D01*
X162119609Y-99164992D01*
X162119611Y-99165000D01*
X162188094Y-99330332D01*
X162188099Y-99330342D01*
X162271332Y-99454909D01*
X162292210Y-99521587D01*
X162273725Y-99588967D01*
X162255911Y-99611481D01*
X161713378Y-100154015D01*
X161652055Y-100187500D01*
X161582364Y-100182516D01*
X161526430Y-100140645D01*
X161502013Y-100075180D01*
X161501697Y-100066334D01*
X161501697Y-98949462D01*
X161501697Y-98949456D01*
X161501253Y-98945107D01*
X161514019Y-98876414D01*
X161561897Y-98825527D01*
X161624610Y-98808500D01*
X161960698Y-98808500D01*
X162027737Y-98828185D01*
G37*
%TD.AperFunction*%
%TA.AperFunction,NonConductor*%
G36*
X154369383Y-98811050D02*
G01*
X154378345Y-98809762D01*
X154402385Y-98820740D01*
X154427737Y-98828185D01*
X154433664Y-98835025D01*
X154441901Y-98838787D01*
X154456190Y-98861021D01*
X154473492Y-98880989D01*
X154475779Y-98891503D01*
X154479675Y-98897565D01*
X154484698Y-98932500D01*
X154484698Y-99089483D01*
X154519609Y-99264992D01*
X154519611Y-99265000D01*
X154588094Y-99430332D01*
X154588099Y-99430342D01*
X154671332Y-99554909D01*
X154692210Y-99621587D01*
X154673725Y-99688967D01*
X154655911Y-99711481D01*
X154213378Y-100154015D01*
X154152055Y-100187500D01*
X154082364Y-100182516D01*
X154026430Y-100140645D01*
X154002013Y-100075180D01*
X154001697Y-100066334D01*
X154001697Y-98949462D01*
X154001697Y-98949456D01*
X154001253Y-98945107D01*
X154014019Y-98876414D01*
X154061897Y-98825527D01*
X154124610Y-98808500D01*
X154360698Y-98808500D01*
X154369383Y-98811050D01*
G37*
%TD.AperFunction*%
%TA.AperFunction,NonConductor*%
G36*
X148804032Y-99476494D02*
G01*
X148859965Y-99518366D01*
X148884382Y-99583830D01*
X148884698Y-99592676D01*
X148884698Y-100066334D01*
X148865013Y-100133373D01*
X148812209Y-100179128D01*
X148743051Y-100189072D01*
X148679495Y-100160047D01*
X148673017Y-100154015D01*
X148410824Y-99891822D01*
X148377339Y-99830499D01*
X148382323Y-99760807D01*
X148424195Y-99704874D01*
X148429594Y-99701052D01*
X148572333Y-99605678D01*
X148617866Y-99560145D01*
X148673017Y-99504995D01*
X148734340Y-99471510D01*
X148804032Y-99476494D01*
G37*
%TD.AperFunction*%
%TA.AperFunction,NonConductor*%
G36*
X166778824Y-98828185D02*
G01*
X166824579Y-98880989D01*
X166835142Y-98945111D01*
X166834698Y-98949448D01*
X166834698Y-100236233D01*
X166815013Y-100303272D01*
X166798379Y-100323914D01*
X166263378Y-100858915D01*
X166202055Y-100892400D01*
X166132363Y-100887416D01*
X166076430Y-100845544D01*
X166052013Y-100780080D01*
X166051697Y-100771234D01*
X166051697Y-98949462D01*
X166051697Y-98949456D01*
X166051253Y-98945107D01*
X166064019Y-98876414D01*
X166111897Y-98825527D01*
X166174610Y-98808500D01*
X166711785Y-98808500D01*
X166778824Y-98828185D01*
G37*
%TD.AperFunction*%
%TA.AperFunction,NonConductor*%
G36*
X159226499Y-98812820D02*
G01*
X159241823Y-98812193D01*
X159259342Y-98822464D01*
X159278824Y-98828185D01*
X159288865Y-98839773D01*
X159302097Y-98847531D01*
X159311282Y-98865643D01*
X159324579Y-98880989D01*
X159327232Y-98897096D01*
X159333698Y-98909846D01*
X159335142Y-98945111D01*
X159334698Y-98949448D01*
X159334698Y-100236233D01*
X159315013Y-100303272D01*
X159298379Y-100323914D01*
X158763378Y-100858915D01*
X158702055Y-100892400D01*
X158632363Y-100887416D01*
X158576430Y-100845544D01*
X158552013Y-100780080D01*
X158551697Y-100771234D01*
X158551697Y-98949462D01*
X158551697Y-98949456D01*
X158551253Y-98945107D01*
X158564019Y-98876414D01*
X158611897Y-98825527D01*
X158674610Y-98808500D01*
X159211785Y-98808500D01*
X159226499Y-98812820D01*
G37*
%TD.AperFunction*%
%TA.AperFunction,NonConductor*%
G36*
X151754032Y-99312583D02*
G01*
X151809965Y-99354455D01*
X151834382Y-99419919D01*
X151834698Y-99428765D01*
X151834698Y-100236233D01*
X151815013Y-100303272D01*
X151798379Y-100323914D01*
X151263378Y-100858915D01*
X151202055Y-100892400D01*
X151132363Y-100887416D01*
X151076430Y-100845544D01*
X151052013Y-100780080D01*
X151051697Y-100771234D01*
X151051697Y-99963766D01*
X151071382Y-99896727D01*
X151088016Y-99876085D01*
X151623017Y-99341084D01*
X151684340Y-99307599D01*
X151754032Y-99312583D01*
G37*
%TD.AperFunction*%
%TA.AperFunction,NonConductor*%
G36*
X156284471Y-99439626D02*
G01*
X156288833Y-99439379D01*
X156315714Y-99454574D01*
X156343560Y-99467896D01*
X156345855Y-99471611D01*
X156349658Y-99473761D01*
X156364054Y-99501073D01*
X156380280Y-99527339D01*
X156381096Y-99533403D01*
X156382238Y-99535569D01*
X156381906Y-99539414D01*
X156384698Y-99560145D01*
X156384698Y-101250537D01*
X156384699Y-101250553D01*
X156395311Y-101354427D01*
X156451082Y-101522735D01*
X156451084Y-101522740D01*
X156460125Y-101537398D01*
X156544168Y-101673652D01*
X156669546Y-101799030D01*
X156820460Y-101892115D01*
X156988772Y-101947887D01*
X157092653Y-101958500D01*
X157843742Y-101958499D01*
X157902563Y-101952490D01*
X157971256Y-101965259D01*
X158022140Y-102013140D01*
X158039061Y-102080930D01*
X158038996Y-102082326D01*
X158038528Y-102091264D01*
X158034698Y-102110521D01*
X158034698Y-102164481D01*
X158034529Y-102167712D01*
X158023975Y-102197749D01*
X158015013Y-102228273D01*
X158011890Y-102232148D01*
X158011369Y-102233632D01*
X158009557Y-102235042D01*
X157998379Y-102248915D01*
X157442113Y-102805181D01*
X157380790Y-102838666D01*
X157354432Y-102841500D01*
X153617064Y-102841500D01*
X153550025Y-102821815D01*
X153504270Y-102769011D01*
X153494326Y-102699853D01*
X153523351Y-102636297D01*
X153529383Y-102629819D01*
X155885266Y-100273936D01*
X155885269Y-100273933D01*
X155954598Y-100170175D01*
X156002353Y-100054885D01*
X156026698Y-99932494D01*
X156026698Y-99807707D01*
X156026698Y-99702675D01*
X156033185Y-99680582D01*
X156035165Y-99657640D01*
X156043807Y-99644407D01*
X156046383Y-99635636D01*
X156052533Y-99626915D01*
X156057392Y-99620618D01*
X156098876Y-99579135D01*
X156159945Y-99487737D01*
X156162533Y-99484385D01*
X156187515Y-99466249D01*
X156211208Y-99446449D01*
X156215541Y-99445904D01*
X156219076Y-99443339D01*
X156249902Y-99441589D01*
X156280532Y-99437742D01*
X156284471Y-99439626D01*
G37*
%TD.AperFunction*%
%TA.AperFunction,NonConductor*%
G36*
X131438273Y-99553185D02*
G01*
X131484028Y-99605989D01*
X131493972Y-99675147D01*
X131464947Y-99738703D01*
X131458915Y-99745181D01*
X129548915Y-101655181D01*
X129487592Y-101688666D01*
X129461234Y-101691500D01*
X129410516Y-101691500D01*
X129235007Y-101726411D01*
X129234999Y-101726413D01*
X129069667Y-101794896D01*
X129069657Y-101794901D01*
X128920865Y-101894321D01*
X128920861Y-101894324D01*
X128794324Y-102020861D01*
X128794321Y-102020865D01*
X128694901Y-102169657D01*
X128694896Y-102169667D01*
X128626413Y-102334999D01*
X128626411Y-102335007D01*
X128591500Y-102510516D01*
X128591500Y-102689483D01*
X128617125Y-102818309D01*
X128610898Y-102887901D01*
X128568034Y-102943078D01*
X128502145Y-102966322D01*
X128495508Y-102966500D01*
X127204492Y-102966500D01*
X127187747Y-102961583D01*
X127170293Y-102961691D01*
X127154916Y-102951942D01*
X127137453Y-102946815D01*
X127126025Y-102933627D01*
X127111283Y-102924281D01*
X127103617Y-102907766D01*
X127091698Y-102894011D01*
X127089134Y-102876564D01*
X127081866Y-102860906D01*
X127082555Y-102831794D01*
X127081647Y-102825612D01*
X127082151Y-102821944D01*
X127108500Y-102689479D01*
X127108500Y-102630279D01*
X127109655Y-102621878D01*
X127120636Y-102597432D01*
X127128185Y-102571727D01*
X127137224Y-102560509D01*
X127138287Y-102558144D01*
X127140062Y-102556987D01*
X127144819Y-102551085D01*
X130126085Y-99569819D01*
X130187408Y-99536334D01*
X130213766Y-99533500D01*
X131371234Y-99533500D01*
X131438273Y-99553185D01*
G37*
%TD.AperFunction*%
%TA.AperFunction,NonConductor*%
G36*
X163804032Y-99476493D02*
G01*
X163859965Y-99518365D01*
X163884382Y-99583829D01*
X163884698Y-99592675D01*
X163884698Y-101250537D01*
X163884699Y-101250553D01*
X163895311Y-101354427D01*
X163951082Y-101522735D01*
X163951084Y-101522740D01*
X163960125Y-101537398D01*
X164044168Y-101673652D01*
X164169546Y-101799030D01*
X164320460Y-101892115D01*
X164488772Y-101947887D01*
X164592653Y-101958500D01*
X165343742Y-101958499D01*
X165346234Y-101958499D01*
X165413273Y-101978183D01*
X165459028Y-102030987D01*
X165468972Y-102100146D01*
X165439947Y-102163702D01*
X165433915Y-102170180D01*
X163898915Y-103705181D01*
X163837592Y-103738666D01*
X163811234Y-103741500D01*
X160217064Y-103741500D01*
X160150025Y-103721815D01*
X160104270Y-103669011D01*
X160094326Y-103599853D01*
X160123351Y-103536297D01*
X160129383Y-103529819D01*
X163485266Y-100173936D01*
X163485269Y-100173933D01*
X163554598Y-100070175D01*
X163602353Y-99954885D01*
X163626698Y-99832494D01*
X163626698Y-99707706D01*
X163626698Y-99602675D01*
X163635342Y-99573234D01*
X163641866Y-99543248D01*
X163645620Y-99538232D01*
X163646383Y-99535636D01*
X163663017Y-99514994D01*
X163673017Y-99504994D01*
X163734340Y-99471509D01*
X163804032Y-99476493D01*
G37*
%TD.AperFunction*%
%TA.AperFunction,NonConductor*%
G36*
X145237283Y-101803185D02*
G01*
X145257925Y-101819819D01*
X146824934Y-103386828D01*
X148305173Y-104867068D01*
X148305177Y-104867071D01*
X148408928Y-104936396D01*
X148408934Y-104936399D01*
X148408935Y-104936400D01*
X148524225Y-104984155D01*
X148646611Y-105008499D01*
X148646615Y-105008500D01*
X150646232Y-105008500D01*
X150667477Y-105014738D01*
X150689565Y-105016318D01*
X150700348Y-105024390D01*
X150713271Y-105028185D01*
X150727770Y-105044918D01*
X150745498Y-105058189D01*
X150750205Y-105070809D01*
X150759026Y-105080989D01*
X150762177Y-105102905D01*
X150769916Y-105123653D01*
X150767053Y-105136814D01*
X150768970Y-105150147D01*
X150759771Y-105170288D01*
X150755065Y-105191926D01*
X150741793Y-105209654D01*
X150739945Y-105213703D01*
X150733914Y-105220181D01*
X150673912Y-105280182D01*
X150612592Y-105313666D01*
X150586233Y-105316500D01*
X135817712Y-105316500D01*
X135750673Y-105296815D01*
X135709451Y-105249243D01*
X135707972Y-105250034D01*
X135705098Y-105244657D01*
X135605678Y-105095865D01*
X135605675Y-105095861D01*
X135479138Y-104969324D01*
X135479134Y-104969321D01*
X135330342Y-104869901D01*
X135330332Y-104869896D01*
X135165000Y-104801413D01*
X135164992Y-104801411D01*
X134989483Y-104766500D01*
X134989479Y-104766500D01*
X134810521Y-104766500D01*
X134810516Y-104766500D01*
X134635007Y-104801411D01*
X134634999Y-104801413D01*
X134469667Y-104869896D01*
X134469657Y-104869901D01*
X134320865Y-104969321D01*
X134320861Y-104969324D01*
X134194324Y-105095861D01*
X134194321Y-105095865D01*
X134094901Y-105244657D01*
X134094896Y-105244667D01*
X134026413Y-105409999D01*
X134026411Y-105410007D01*
X133991500Y-105585516D01*
X133991500Y-105642500D01*
X133971815Y-105709539D01*
X133919011Y-105755294D01*
X133867500Y-105766500D01*
X127213766Y-105766500D01*
X127184325Y-105757855D01*
X127154339Y-105751332D01*
X127149323Y-105747577D01*
X127146727Y-105746815D01*
X127126085Y-105730181D01*
X127044819Y-105648915D01*
X127011334Y-105587592D01*
X127008500Y-105561234D01*
X127008500Y-105510520D01*
X127008499Y-105510517D01*
X126982875Y-105381694D01*
X126989102Y-105312103D01*
X127031965Y-105256925D01*
X127097855Y-105233681D01*
X127104492Y-105233503D01*
X130638308Y-105233503D01*
X130638309Y-105233502D01*
X130760698Y-105209158D01*
X130875988Y-105161403D01*
X130911626Y-105137590D01*
X130978301Y-105116712D01*
X131045682Y-105135195D01*
X131068199Y-105153012D01*
X131121472Y-105206286D01*
X131121476Y-105206289D01*
X131270268Y-105305709D01*
X131270272Y-105305711D01*
X131270275Y-105305713D01*
X131435611Y-105374198D01*
X131611127Y-105409110D01*
X131611131Y-105409111D01*
X131611132Y-105409111D01*
X131790091Y-105409111D01*
X131790092Y-105409110D01*
X131965611Y-105374198D01*
X132130947Y-105305713D01*
X132279746Y-105206289D01*
X132406289Y-105079746D01*
X132505713Y-104930947D01*
X132574198Y-104765611D01*
X132609111Y-104590090D01*
X132609111Y-104539377D01*
X132628796Y-104472338D01*
X132645430Y-104451696D01*
X135277308Y-101819819D01*
X135338631Y-101786334D01*
X135364989Y-101783500D01*
X143537606Y-101783500D01*
X145170244Y-101783500D01*
X145237283Y-101803185D01*
G37*
%TD.AperFunction*%
%TA.AperFunction,NonConductor*%
G36*
X155181470Y-105028185D02*
G01*
X155227225Y-105080989D01*
X155237169Y-105150147D01*
X155208144Y-105213703D01*
X155202112Y-105220181D01*
X154588946Y-105833347D01*
X154527623Y-105866832D01*
X154457931Y-105861848D01*
X154436170Y-105851206D01*
X154365936Y-105807885D01*
X154365933Y-105807884D01*
X154197625Y-105752113D01*
X154150834Y-105747332D01*
X154086143Y-105720934D01*
X154075758Y-105711655D01*
X153584284Y-105220181D01*
X153550799Y-105158858D01*
X153555783Y-105089166D01*
X153597655Y-105033233D01*
X153663119Y-105008816D01*
X153671965Y-105008500D01*
X155114431Y-105008500D01*
X155181470Y-105028185D01*
G37*
%TD.AperFunction*%
%TA.AperFunction,NonConductor*%
G36*
X158169383Y-106311050D02*
G01*
X158178345Y-106309762D01*
X158202385Y-106320740D01*
X158227737Y-106328185D01*
X158233664Y-106335025D01*
X158241901Y-106338787D01*
X158256190Y-106361021D01*
X158273492Y-106380989D01*
X158275779Y-106391503D01*
X158279675Y-106397565D01*
X158284698Y-106432500D01*
X158284698Y-106489483D01*
X158319609Y-106664992D01*
X158319611Y-106665000D01*
X158388094Y-106830332D01*
X158388099Y-106830342D01*
X158490904Y-106984200D01*
X158488685Y-106985682D01*
X158511482Y-107039372D01*
X158499683Y-107108239D01*
X158475995Y-107141396D01*
X157963378Y-107654014D01*
X157902055Y-107687499D01*
X157832364Y-107682515D01*
X157776430Y-107640644D01*
X157752013Y-107575179D01*
X157751697Y-107566333D01*
X157751697Y-106449462D01*
X157751697Y-106449456D01*
X157751253Y-106445107D01*
X157764019Y-106376414D01*
X157811897Y-106325527D01*
X157874610Y-106308500D01*
X158160698Y-106308500D01*
X158169383Y-106311050D01*
G37*
%TD.AperFunction*%
%TA.AperFunction,NonConductor*%
G36*
X152593560Y-106942727D02*
G01*
X152630280Y-107002170D01*
X152634698Y-107034976D01*
X152634698Y-107566334D01*
X152615013Y-107633373D01*
X152562209Y-107679128D01*
X152493051Y-107689072D01*
X152429495Y-107660047D01*
X152423017Y-107654015D01*
X152140797Y-107371795D01*
X152107312Y-107310472D01*
X152112296Y-107240780D01*
X152154168Y-107184847D01*
X152159573Y-107181021D01*
X152272333Y-107105678D01*
X152398876Y-106979135D01*
X152401155Y-106975723D01*
X152407596Y-106966086D01*
X152461208Y-106921280D01*
X152530533Y-106912573D01*
X152593560Y-106942727D01*
G37*
%TD.AperFunction*%
%TA.AperFunction,NonConductor*%
G36*
X162976499Y-106312820D02*
G01*
X162991823Y-106312193D01*
X163009342Y-106322464D01*
X163028824Y-106328185D01*
X163038865Y-106339773D01*
X163052097Y-106347531D01*
X163061282Y-106365643D01*
X163074579Y-106380989D01*
X163077232Y-106397096D01*
X163083698Y-106409846D01*
X163085142Y-106445111D01*
X163084698Y-106449448D01*
X163084698Y-107736233D01*
X163065013Y-107803272D01*
X163048379Y-107823914D01*
X162513378Y-108358915D01*
X162452055Y-108392400D01*
X162382363Y-108387416D01*
X162326430Y-108345544D01*
X162302013Y-108280080D01*
X162301697Y-108271234D01*
X162301697Y-106449462D01*
X162301697Y-106449456D01*
X162301253Y-106445107D01*
X162314019Y-106376414D01*
X162361897Y-106325527D01*
X162424610Y-106308500D01*
X162961785Y-106308500D01*
X162976499Y-106312820D01*
G37*
%TD.AperFunction*%
%TA.AperFunction,NonConductor*%
G36*
X155504032Y-106812583D02*
G01*
X155559965Y-106854455D01*
X155584382Y-106919919D01*
X155584698Y-106928765D01*
X155584698Y-107736233D01*
X155565013Y-107803272D01*
X155548379Y-107823914D01*
X155013378Y-108358915D01*
X154952055Y-108392400D01*
X154882363Y-108387416D01*
X154826430Y-108345544D01*
X154802013Y-108280080D01*
X154801697Y-108271234D01*
X154801697Y-107463766D01*
X154821382Y-107396727D01*
X154838016Y-107376085D01*
X155373017Y-106841084D01*
X155434340Y-106807599D01*
X155504032Y-106812583D01*
G37*
%TD.AperFunction*%
%TA.AperFunction,NonConductor*%
G36*
X129012048Y-108503185D02*
G01*
X129057803Y-108555989D01*
X129067747Y-108625147D01*
X129059570Y-108654953D01*
X129026413Y-108734999D01*
X129026411Y-108735007D01*
X128991500Y-108910516D01*
X128991500Y-109089482D01*
X129017126Y-109218312D01*
X129010899Y-109287903D01*
X128968036Y-109343081D01*
X128902146Y-109366325D01*
X128895509Y-109366503D01*
X127004491Y-109366503D01*
X126937452Y-109346818D01*
X126891697Y-109294014D01*
X126881753Y-109224856D01*
X126882874Y-109218312D01*
X126908499Y-109089482D01*
X126908500Y-109089480D01*
X126908500Y-108938765D01*
X126928185Y-108871726D01*
X126944819Y-108851084D01*
X127276085Y-108519819D01*
X127337408Y-108486334D01*
X127363766Y-108483500D01*
X128945009Y-108483500D01*
X129012048Y-108503185D01*
G37*
%TD.AperFunction*%
%TA.AperFunction,NonConductor*%
G36*
X160038323Y-106916299D02*
G01*
X160046960Y-106916396D01*
X160069358Y-106931146D01*
X160093558Y-106942724D01*
X160098098Y-106950073D01*
X160105313Y-106954825D01*
X160116181Y-106979345D01*
X160130279Y-107002166D01*
X160132017Y-107015074D01*
X160133625Y-107018701D01*
X160133025Y-107022560D01*
X160134698Y-107034975D01*
X160134698Y-108750537D01*
X160134699Y-108750553D01*
X160145311Y-108854427D01*
X160201082Y-109022735D01*
X160201083Y-109022738D01*
X160294168Y-109173652D01*
X160419546Y-109299030D01*
X160570460Y-109392115D01*
X160738772Y-109447887D01*
X160842653Y-109458500D01*
X161593742Y-109458499D01*
X161697624Y-109447887D01*
X161697626Y-109447886D01*
X161703600Y-109447276D01*
X161722302Y-109450752D01*
X161741259Y-109449192D01*
X161755939Y-109457005D01*
X161772293Y-109460045D01*
X161786147Y-109473082D01*
X161802938Y-109482018D01*
X161811064Y-109496528D01*
X161823177Y-109507926D01*
X161827783Y-109526380D01*
X161837079Y-109542978D01*
X161837391Y-109564874D01*
X161840098Y-109575716D01*
X161839974Y-109578153D01*
X161839462Y-109586565D01*
X161834698Y-109610521D01*
X161834698Y-109664999D01*
X161834470Y-109668753D01*
X161823836Y-109698222D01*
X161815013Y-109728273D01*
X161811357Y-109732809D01*
X161810756Y-109734476D01*
X161808820Y-109735957D01*
X161798379Y-109748915D01*
X161267113Y-110280181D01*
X161205790Y-110313666D01*
X161179432Y-110316500D01*
X157392064Y-110316500D01*
X157325025Y-110296815D01*
X157279270Y-110244011D01*
X157269326Y-110174853D01*
X157298351Y-110111297D01*
X157304383Y-110104819D01*
X158470438Y-108938765D01*
X159685270Y-107723933D01*
X159754599Y-107620175D01*
X159802353Y-107504884D01*
X159810533Y-107463766D01*
X159811162Y-107460602D01*
X159826697Y-107382498D01*
X159826698Y-107382495D01*
X159826698Y-107102675D01*
X159834330Y-107076681D01*
X159838486Y-107049906D01*
X159844853Y-107040843D01*
X159846383Y-107035636D01*
X159857898Y-107020430D01*
X159860368Y-107017642D01*
X159898876Y-106979135D01*
X159912294Y-106959052D01*
X159917898Y-106952730D01*
X159940626Y-106938480D01*
X159961205Y-106921281D01*
X159969775Y-106920204D01*
X159977095Y-106915615D01*
X160003915Y-106915914D01*
X160030530Y-106912571D01*
X160038323Y-106916299D01*
G37*
%TD.AperFunction*%
%TA.AperFunction,NonConductor*%
G36*
X154369383Y-113911050D02*
G01*
X154378345Y-113909762D01*
X154402385Y-113920740D01*
X154427737Y-113928185D01*
X154433664Y-113935025D01*
X154441901Y-113938787D01*
X154456190Y-113961021D01*
X154473492Y-113980989D01*
X154475779Y-113991503D01*
X154479675Y-113997565D01*
X154484698Y-114032500D01*
X154484698Y-114089483D01*
X154519609Y-114264992D01*
X154519611Y-114265000D01*
X154588094Y-114430332D01*
X154588099Y-114430342D01*
X154671332Y-114554909D01*
X154692210Y-114621587D01*
X154673725Y-114688967D01*
X154655911Y-114711481D01*
X154213378Y-115154015D01*
X154152055Y-115187500D01*
X154082364Y-115182516D01*
X154026430Y-115140645D01*
X154002013Y-115075180D01*
X154001697Y-115066334D01*
X154001697Y-114032500D01*
X154021382Y-113965461D01*
X154074186Y-113919706D01*
X154125697Y-113908500D01*
X154360698Y-113908500D01*
X154369383Y-113911050D01*
G37*
%TD.AperFunction*%
%TA.AperFunction,NonConductor*%
G36*
X150103579Y-108403185D02*
G01*
X150124221Y-108419819D01*
X152794631Y-111090229D01*
X153058235Y-111353833D01*
X153125263Y-111420861D01*
X153146474Y-111442072D01*
X153250224Y-111511396D01*
X153250230Y-111511399D01*
X153250231Y-111511400D01*
X153365521Y-111559155D01*
X153487907Y-111583499D01*
X153487911Y-111583500D01*
X153487912Y-111583500D01*
X161555593Y-111583500D01*
X161555594Y-111583499D01*
X161677983Y-111559155D01*
X161793273Y-111511400D01*
X161897031Y-111442071D01*
X162694283Y-110644819D01*
X162755606Y-110611334D01*
X162781964Y-110608500D01*
X162832678Y-110608500D01*
X162832679Y-110608499D01*
X163008198Y-110573587D01*
X163173534Y-110505102D01*
X163322333Y-110405678D01*
X163448876Y-110279135D01*
X163548300Y-110130336D01*
X163616785Y-109965000D01*
X163651698Y-109789479D01*
X163651698Y-109610521D01*
X163650651Y-109605259D01*
X163656874Y-109535671D01*
X163699733Y-109480490D01*
X163765621Y-109457241D01*
X163784869Y-109457705D01*
X163786943Y-109457916D01*
X163792653Y-109458500D01*
X164543742Y-109458499D01*
X164647624Y-109447887D01*
X164746697Y-109415057D01*
X164816522Y-109412656D01*
X164876564Y-109448387D01*
X164907757Y-109510908D01*
X164909698Y-109532764D01*
X164909698Y-112576245D01*
X164890013Y-112643284D01*
X164837209Y-112689039D01*
X164768051Y-112698983D01*
X164738246Y-112690806D01*
X164677987Y-112665846D01*
X164677975Y-112665843D01*
X164555596Y-112641500D01*
X164555592Y-112641500D01*
X157555592Y-112641500D01*
X151855592Y-112641500D01*
X151730804Y-112641500D01*
X151730799Y-112641500D01*
X151608420Y-112665842D01*
X151608411Y-112665845D01*
X151493122Y-112713599D01*
X151493119Y-112713600D01*
X151389365Y-112782927D01*
X151389361Y-112782930D01*
X150838945Y-113333346D01*
X150777622Y-113366831D01*
X150707930Y-113361847D01*
X150686168Y-113351204D01*
X150615942Y-113307888D01*
X150615937Y-113307886D01*
X150615936Y-113307885D01*
X150615933Y-113307884D01*
X150447625Y-113252113D01*
X150343744Y-113241500D01*
X149592660Y-113241500D01*
X149592644Y-113241501D01*
X149488770Y-113252113D01*
X149320462Y-113307884D01*
X149320457Y-113307886D01*
X149169544Y-113400971D01*
X149044169Y-113526346D01*
X148951084Y-113677259D01*
X148951082Y-113677264D01*
X148895311Y-113845572D01*
X148884698Y-113949447D01*
X148884698Y-115066334D01*
X148865013Y-115133373D01*
X148812209Y-115179128D01*
X148743051Y-115189072D01*
X148679495Y-115160047D01*
X148673017Y-115154015D01*
X147651621Y-114132619D01*
X147618136Y-114071296D01*
X147615302Y-114044938D01*
X147615302Y-113020763D01*
X147634987Y-112953724D01*
X147687791Y-112907969D01*
X147756949Y-112898025D01*
X147763493Y-112899146D01*
X147793816Y-112905177D01*
X147810518Y-112908499D01*
X147810520Y-112908500D01*
X147810521Y-112908500D01*
X147989480Y-112908500D01*
X147989481Y-112908499D01*
X148165000Y-112873587D01*
X148330336Y-112805102D01*
X148479135Y-112705678D01*
X148605678Y-112579135D01*
X148705102Y-112430336D01*
X148773587Y-112265000D01*
X148808500Y-112089479D01*
X148808500Y-111910521D01*
X148773587Y-111735000D01*
X148705102Y-111569664D01*
X148705100Y-111569661D01*
X148705098Y-111569657D01*
X148605678Y-111420865D01*
X148605675Y-111420861D01*
X148479138Y-111294324D01*
X148479134Y-111294321D01*
X148330342Y-111194901D01*
X148330332Y-111194896D01*
X148165000Y-111126413D01*
X148164992Y-111126411D01*
X147989483Y-111091500D01*
X147989479Y-111091500D01*
X147938767Y-111091500D01*
X147871728Y-111071815D01*
X147851086Y-111055181D01*
X146706424Y-109910519D01*
X145391084Y-108595180D01*
X145357600Y-108533858D01*
X145362584Y-108464166D01*
X145404456Y-108408233D01*
X145469920Y-108383816D01*
X145478766Y-108383500D01*
X146037606Y-108383500D01*
X150036540Y-108383500D01*
X150103579Y-108403185D01*
G37*
%TD.AperFunction*%
%TA.AperFunction,NonConductor*%
G36*
X161869383Y-113911050D02*
G01*
X161878345Y-113909762D01*
X161902385Y-113920740D01*
X161927737Y-113928185D01*
X161933664Y-113935025D01*
X161941901Y-113938787D01*
X161956190Y-113961021D01*
X161973492Y-113980989D01*
X161975779Y-113991503D01*
X161979675Y-113997565D01*
X161984698Y-114032500D01*
X161984698Y-114089483D01*
X162019609Y-114264992D01*
X162019611Y-114265000D01*
X162088094Y-114430332D01*
X162088099Y-114430342D01*
X162187519Y-114579134D01*
X162187522Y-114579138D01*
X162223378Y-114614993D01*
X162256864Y-114676315D01*
X162259698Y-114702675D01*
X162259698Y-114956332D01*
X162240013Y-115023371D01*
X162223379Y-115044013D01*
X161713378Y-115554014D01*
X161652055Y-115587499D01*
X161582363Y-115582515D01*
X161526430Y-115540643D01*
X161502013Y-115475179D01*
X161501697Y-115466333D01*
X161501697Y-114032500D01*
X161521382Y-113965461D01*
X161574186Y-113919706D01*
X161625697Y-113908500D01*
X161860698Y-113908500D01*
X161869383Y-113911050D01*
G37*
%TD.AperFunction*%
%TA.AperFunction,NonConductor*%
G36*
X159277737Y-113928185D02*
G01*
X159323492Y-113980989D01*
X159334698Y-114032500D01*
X159334698Y-115236233D01*
X159315013Y-115303272D01*
X159298379Y-115323914D01*
X158763378Y-115858915D01*
X158702055Y-115892400D01*
X158632363Y-115887416D01*
X158576430Y-115845544D01*
X158552013Y-115780080D01*
X158551697Y-115771234D01*
X158551697Y-114032500D01*
X158571382Y-113965461D01*
X158624186Y-113919706D01*
X158675697Y-113908500D01*
X159210698Y-113908500D01*
X159277737Y-113928185D01*
G37*
%TD.AperFunction*%
%TA.AperFunction,NonConductor*%
G36*
X151754032Y-114312583D02*
G01*
X151809965Y-114354455D01*
X151834382Y-114419919D01*
X151834698Y-114428765D01*
X151834698Y-115236233D01*
X151815013Y-115303272D01*
X151798379Y-115323914D01*
X151263378Y-115858915D01*
X151202055Y-115892400D01*
X151132363Y-115887416D01*
X151076430Y-115845544D01*
X151052013Y-115780080D01*
X151051697Y-115771234D01*
X151051697Y-114963766D01*
X151071382Y-114896727D01*
X151088016Y-114876085D01*
X151436762Y-114527339D01*
X151623018Y-114341083D01*
X151684340Y-114307599D01*
X151754032Y-114312583D01*
G37*
%TD.AperFunction*%
%TA.AperFunction,NonConductor*%
G36*
X156284471Y-114439626D02*
G01*
X156288833Y-114439379D01*
X156315714Y-114454574D01*
X156343560Y-114467896D01*
X156345855Y-114471611D01*
X156349658Y-114473761D01*
X156364054Y-114501073D01*
X156380280Y-114527339D01*
X156381096Y-114533403D01*
X156382238Y-114535569D01*
X156381906Y-114539414D01*
X156384698Y-114560145D01*
X156384698Y-116250537D01*
X156384699Y-116250553D01*
X156395311Y-116354427D01*
X156451082Y-116522735D01*
X156451084Y-116522740D01*
X156483341Y-116575037D01*
X156544168Y-116673652D01*
X156669546Y-116799030D01*
X156820460Y-116892115D01*
X156988772Y-116947887D01*
X157092653Y-116958500D01*
X157843742Y-116958499D01*
X157902563Y-116952490D01*
X157971256Y-116965259D01*
X158022140Y-117013140D01*
X158039061Y-117080930D01*
X158038996Y-117082326D01*
X158038528Y-117091264D01*
X158034698Y-117110521D01*
X158034698Y-117164481D01*
X158034529Y-117167712D01*
X158023975Y-117197749D01*
X158015013Y-117228273D01*
X158011890Y-117232148D01*
X158011369Y-117233632D01*
X158009557Y-117235042D01*
X157998379Y-117248915D01*
X157542113Y-117705181D01*
X157480790Y-117738666D01*
X157454432Y-117741500D01*
X153717064Y-117741500D01*
X153650025Y-117721815D01*
X153604270Y-117669011D01*
X153594326Y-117599853D01*
X153623351Y-117536297D01*
X153629383Y-117529819D01*
X155885266Y-115273936D01*
X155885269Y-115273933D01*
X155954598Y-115170175D01*
X156002353Y-115054885D01*
X156026698Y-114932494D01*
X156026698Y-114807706D01*
X156026698Y-114702675D01*
X156033185Y-114680582D01*
X156035165Y-114657640D01*
X156043807Y-114644407D01*
X156046383Y-114635636D01*
X156052533Y-114626915D01*
X156057392Y-114620618D01*
X156098876Y-114579135D01*
X156159945Y-114487737D01*
X156162533Y-114484385D01*
X156187515Y-114466249D01*
X156211208Y-114446449D01*
X156215541Y-114445904D01*
X156219076Y-114443339D01*
X156249902Y-114441589D01*
X156280532Y-114437742D01*
X156284471Y-114439626D01*
G37*
%TD.AperFunction*%
%TA.AperFunction,NonConductor*%
G36*
X163784471Y-114439626D02*
G01*
X163788833Y-114439379D01*
X163815714Y-114454574D01*
X163843560Y-114467896D01*
X163845855Y-114471611D01*
X163849658Y-114473761D01*
X163864054Y-114501073D01*
X163880280Y-114527339D01*
X163881096Y-114533403D01*
X163882238Y-114535569D01*
X163881906Y-114539414D01*
X163884698Y-114560145D01*
X163884698Y-116250537D01*
X163884699Y-116250553D01*
X163895311Y-116354427D01*
X163951082Y-116522735D01*
X163951084Y-116522740D01*
X163983341Y-116575037D01*
X164044168Y-116673652D01*
X164169546Y-116799030D01*
X164320460Y-116892115D01*
X164488772Y-116947887D01*
X164592653Y-116958500D01*
X165246234Y-116958499D01*
X165313273Y-116978183D01*
X165359028Y-117030987D01*
X165368972Y-117100146D01*
X165339947Y-117163702D01*
X165333915Y-117170180D01*
X163898915Y-118605181D01*
X163837592Y-118638666D01*
X163811234Y-118641500D01*
X160717064Y-118641500D01*
X160650025Y-118621815D01*
X160604270Y-118569011D01*
X160594326Y-118499853D01*
X160623351Y-118436297D01*
X160629383Y-118429819D01*
X161944241Y-117114962D01*
X163385270Y-115673933D01*
X163454599Y-115570175D01*
X163502353Y-115454885D01*
X163512403Y-115404363D01*
X163526697Y-115332498D01*
X163526698Y-115332495D01*
X163526698Y-114702675D01*
X163533185Y-114680582D01*
X163535165Y-114657640D01*
X163543807Y-114644407D01*
X163546383Y-114635636D01*
X163552533Y-114626915D01*
X163557392Y-114620618D01*
X163598876Y-114579135D01*
X163659945Y-114487737D01*
X163662533Y-114484385D01*
X163687515Y-114466249D01*
X163711208Y-114446449D01*
X163715541Y-114445904D01*
X163719076Y-114443339D01*
X163749902Y-114441589D01*
X163780532Y-114437742D01*
X163784471Y-114439626D01*
G37*
%TD.AperFunction*%
%TA.AperFunction,NonConductor*%
G36*
X171142539Y-95420185D02*
G01*
X171188294Y-95472989D01*
X171199500Y-95524500D01*
X171199500Y-119675500D01*
X171179815Y-119742539D01*
X171127011Y-119788294D01*
X171075500Y-119799500D01*
X164795767Y-119799500D01*
X164728728Y-119779815D01*
X164682973Y-119727011D01*
X164673029Y-119657853D01*
X164702054Y-119594297D01*
X164708086Y-119587819D01*
X165887561Y-118408342D01*
X166168132Y-118127770D01*
X166229453Y-118094287D01*
X166279999Y-118093836D01*
X166340619Y-118105894D01*
X166353718Y-118108500D01*
X166353719Y-118108500D01*
X166532678Y-118108500D01*
X166532679Y-118108499D01*
X166708198Y-118073587D01*
X166873534Y-118005102D01*
X167022333Y-117905678D01*
X167148876Y-117779135D01*
X167248300Y-117630336D01*
X167316785Y-117465000D01*
X167351698Y-117289479D01*
X167351698Y-117110521D01*
X167349613Y-117100040D01*
X167355839Y-117030451D01*
X167398700Y-116975272D01*
X167464589Y-116952026D01*
X167483824Y-116952489D01*
X167542653Y-116958500D01*
X168293742Y-116958499D01*
X168397624Y-116947887D01*
X168565936Y-116892115D01*
X168716850Y-116799030D01*
X168842228Y-116673652D01*
X168935313Y-116522738D01*
X168991085Y-116354426D01*
X169001698Y-116250545D01*
X169001697Y-113949456D01*
X168991085Y-113845574D01*
X168935313Y-113677262D01*
X168842228Y-113526348D01*
X168716850Y-113400970D01*
X168565936Y-113307885D01*
X168565933Y-113307884D01*
X168397625Y-113252113D01*
X168293744Y-113241500D01*
X167542660Y-113241500D01*
X167542644Y-113241501D01*
X167438770Y-113252113D01*
X167270462Y-113307884D01*
X167270457Y-113307886D01*
X167119544Y-113400971D01*
X166994169Y-113526346D01*
X166901084Y-113677259D01*
X166901082Y-113677264D01*
X166845311Y-113845572D01*
X166834698Y-113949447D01*
X166834698Y-115236233D01*
X166815013Y-115303272D01*
X166798379Y-115323914D01*
X166263378Y-115858915D01*
X166202055Y-115892400D01*
X166132363Y-115887416D01*
X166076430Y-115845544D01*
X166052013Y-115780080D01*
X166051697Y-115771234D01*
X166051697Y-113949462D01*
X166051696Y-113949446D01*
X166049524Y-113928185D01*
X166041085Y-113845574D01*
X165997305Y-113713455D01*
X165994904Y-113643627D01*
X166027331Y-113586771D01*
X166035270Y-113578833D01*
X166104599Y-113475075D01*
X166152353Y-113359785D01*
X166176698Y-113237394D01*
X166176698Y-113112606D01*
X166176698Y-106462606D01*
X166152353Y-106340215D01*
X166129132Y-106284155D01*
X166129132Y-106284154D01*
X166104602Y-106224931D01*
X166104600Y-106224927D01*
X166104599Y-106224925D01*
X166074003Y-106179135D01*
X166035270Y-106121166D01*
X165639283Y-105725179D01*
X165605798Y-105663856D01*
X165610782Y-105594164D01*
X165639281Y-105549819D01*
X169310269Y-101878833D01*
X169379598Y-101775075D01*
X169427353Y-101659785D01*
X169451698Y-101537394D01*
X169451698Y-101412606D01*
X169451698Y-98692506D01*
X169427353Y-98570115D01*
X169383335Y-98463846D01*
X169379599Y-98454827D01*
X169379594Y-98454818D01*
X169310270Y-98351068D01*
X169267086Y-98307884D01*
X169222031Y-98262829D01*
X168950702Y-97991500D01*
X168642134Y-97682931D01*
X168642130Y-97682928D01*
X168538379Y-97613603D01*
X168538370Y-97613598D01*
X168423083Y-97565845D01*
X168423075Y-97565843D01*
X168300696Y-97541500D01*
X168300692Y-97541500D01*
X164955592Y-97541500D01*
X157555592Y-97541500D01*
X151955592Y-97541500D01*
X151830804Y-97541500D01*
X151830799Y-97541500D01*
X151708420Y-97565843D01*
X151708412Y-97565845D01*
X151593125Y-97613598D01*
X151593116Y-97613603D01*
X151489365Y-97682928D01*
X151489361Y-97682931D01*
X150838946Y-98333347D01*
X150777623Y-98366832D01*
X150707931Y-98361848D01*
X150686170Y-98351206D01*
X150615936Y-98307885D01*
X150564506Y-98290843D01*
X150447625Y-98252113D01*
X150343744Y-98241500D01*
X149592660Y-98241500D01*
X149592644Y-98241501D01*
X149488770Y-98252113D01*
X149320462Y-98307884D01*
X149320457Y-98307886D01*
X149169544Y-98400971D01*
X149044168Y-98526347D01*
X149044166Y-98526350D01*
X149038422Y-98535662D01*
X148986471Y-98582384D01*
X148917508Y-98593602D01*
X148853427Y-98565754D01*
X148818327Y-98518014D01*
X148798300Y-98469664D01*
X148798298Y-98469661D01*
X148798296Y-98469657D01*
X148698876Y-98320865D01*
X148698873Y-98320861D01*
X148572336Y-98194324D01*
X148572332Y-98194321D01*
X148423540Y-98094901D01*
X148423530Y-98094896D01*
X148258198Y-98026413D01*
X148258190Y-98026411D01*
X148082681Y-97991500D01*
X148082677Y-97991500D01*
X147903719Y-97991500D01*
X147903714Y-97991500D01*
X147728205Y-98026411D01*
X147728197Y-98026413D01*
X147562865Y-98094896D01*
X147562855Y-98094901D01*
X147414063Y-98194321D01*
X147414059Y-98194324D01*
X147378205Y-98230180D01*
X147316883Y-98263666D01*
X147290523Y-98266500D01*
X129837601Y-98266500D01*
X129715222Y-98290843D01*
X129715214Y-98290845D01*
X129599927Y-98338598D01*
X129599918Y-98338603D01*
X129496167Y-98407928D01*
X129496163Y-98407931D01*
X127822574Y-100081520D01*
X127761251Y-100115005D01*
X127691559Y-100110021D01*
X127635626Y-100068149D01*
X127611209Y-100002685D01*
X127612419Y-99974445D01*
X127624000Y-99901331D01*
X127624000Y-99708669D01*
X127593861Y-99518379D01*
X127534325Y-99335147D01*
X127446859Y-99163484D01*
X127333615Y-99007617D01*
X127197383Y-98871385D01*
X127041516Y-98758141D01*
X126869853Y-98670675D01*
X126686621Y-98611139D01*
X126686619Y-98611138D01*
X126686618Y-98611138D01*
X126540442Y-98587986D01*
X126496331Y-98581000D01*
X126303669Y-98581000D01*
X126267859Y-98586671D01*
X126113381Y-98611138D01*
X125987818Y-98651936D01*
X125917976Y-98653931D01*
X125858144Y-98617850D01*
X125827316Y-98555149D01*
X125825500Y-98534005D01*
X125825500Y-98463843D01*
X125789934Y-98285047D01*
X125789933Y-98285046D01*
X125789933Y-98285042D01*
X125780732Y-98262829D01*
X125720168Y-98116612D01*
X125720166Y-98116608D01*
X125618886Y-97965032D01*
X125618880Y-97965024D01*
X125489975Y-97836119D01*
X125489967Y-97836113D01*
X125338391Y-97734833D01*
X125338387Y-97734831D01*
X125169962Y-97665068D01*
X125169952Y-97665065D01*
X124991156Y-97629500D01*
X124991154Y-97629500D01*
X124808846Y-97629500D01*
X124808844Y-97629500D01*
X124630047Y-97665065D01*
X124630037Y-97665068D01*
X124461612Y-97734831D01*
X124461608Y-97734833D01*
X124310032Y-97836113D01*
X124310024Y-97836119D01*
X124181119Y-97965024D01*
X124181113Y-97965032D01*
X124079833Y-98116608D01*
X124079831Y-98116612D01*
X124010068Y-98285037D01*
X124010065Y-98285047D01*
X123974500Y-98463843D01*
X123974500Y-98463846D01*
X123974500Y-98646154D01*
X123974500Y-98646156D01*
X123974499Y-98646156D01*
X124010065Y-98824952D01*
X124010068Y-98824962D01*
X124079831Y-98993387D01*
X124079833Y-98993391D01*
X124181113Y-99144967D01*
X124181119Y-99144975D01*
X124310024Y-99273880D01*
X124310032Y-99273886D01*
X124461608Y-99375166D01*
X124461612Y-99375168D01*
X124621969Y-99441589D01*
X124630042Y-99444933D01*
X124630046Y-99444933D01*
X124630047Y-99444934D01*
X124808843Y-99480500D01*
X124808846Y-99480500D01*
X124991155Y-99480500D01*
X125013525Y-99476050D01*
X125044829Y-99469823D01*
X125114420Y-99476050D01*
X125169598Y-99518912D01*
X125192843Y-99584801D01*
X125191494Y-99610837D01*
X125176000Y-99708669D01*
X125176000Y-99708674D01*
X125176000Y-99901330D01*
X125206138Y-100091618D01*
X125206139Y-100091621D01*
X125265675Y-100274853D01*
X125353141Y-100446516D01*
X125466385Y-100602383D01*
X125602617Y-100738615D01*
X125758484Y-100851859D01*
X125930147Y-100939325D01*
X126113379Y-100998861D01*
X126303669Y-101029000D01*
X126303670Y-101029000D01*
X126496330Y-101029000D01*
X126496331Y-101029000D01*
X126569443Y-101017420D01*
X126638735Y-101026374D01*
X126692187Y-101071371D01*
X126712827Y-101138122D01*
X126694102Y-101205436D01*
X126676521Y-101227574D01*
X126248915Y-101655181D01*
X126187592Y-101688666D01*
X126161234Y-101691500D01*
X126110516Y-101691500D01*
X125935007Y-101726411D01*
X125934999Y-101726413D01*
X125769667Y-101794896D01*
X125769657Y-101794901D01*
X125620865Y-101894321D01*
X125620861Y-101894324D01*
X125494324Y-102020861D01*
X125494321Y-102020865D01*
X125394901Y-102169657D01*
X125394896Y-102169667D01*
X125326413Y-102334999D01*
X125326411Y-102335007D01*
X125291500Y-102510516D01*
X125291500Y-102689483D01*
X125326411Y-102864992D01*
X125326413Y-102865000D01*
X125394898Y-103030336D01*
X125395418Y-103031115D01*
X125395565Y-103031584D01*
X125397768Y-103035706D01*
X125396986Y-103036123D01*
X125416292Y-103097794D01*
X125397804Y-103165173D01*
X125395418Y-103168885D01*
X125394898Y-103169663D01*
X125326413Y-103334999D01*
X125326411Y-103335007D01*
X125291500Y-103510516D01*
X125291500Y-103689483D01*
X125326411Y-103864992D01*
X125326413Y-103865000D01*
X125394896Y-104030333D01*
X125394897Y-104030335D01*
X125394898Y-104030336D01*
X125395417Y-104031113D01*
X125395564Y-104031584D01*
X125397768Y-104035706D01*
X125396986Y-104036123D01*
X125416293Y-104097790D01*
X125397807Y-104165170D01*
X125395422Y-104168882D01*
X125394898Y-104169666D01*
X125326413Y-104335002D01*
X125326411Y-104335010D01*
X125291500Y-104510519D01*
X125291500Y-104689486D01*
X125326411Y-104864995D01*
X125326413Y-104865003D01*
X125366891Y-104962724D01*
X125374360Y-105032193D01*
X125355432Y-105079067D01*
X125294898Y-105169662D01*
X125226413Y-105334999D01*
X125226411Y-105335007D01*
X125191500Y-105510516D01*
X125191500Y-105689483D01*
X125226411Y-105864992D01*
X125226413Y-105865000D01*
X125294896Y-106030332D01*
X125294901Y-106030342D01*
X125394321Y-106179134D01*
X125394324Y-106179138D01*
X125520861Y-106305675D01*
X125520865Y-106305678D01*
X125669657Y-106405098D01*
X125669661Y-106405100D01*
X125669664Y-106405102D01*
X125835000Y-106473587D01*
X126010516Y-106508499D01*
X126010520Y-106508500D01*
X126010521Y-106508500D01*
X126061234Y-106508500D01*
X126128273Y-106528185D01*
X126148915Y-106544819D01*
X126496163Y-106892068D01*
X126496167Y-106892071D01*
X126599918Y-106961396D01*
X126599924Y-106961399D01*
X126599925Y-106961400D01*
X126715215Y-107009155D01*
X126763206Y-107018701D01*
X126793515Y-107024730D01*
X126855426Y-107057114D01*
X126890000Y-107117830D01*
X126886261Y-107187599D01*
X126845395Y-107244272D01*
X126816778Y-107260908D01*
X126749925Y-107288600D01*
X126749918Y-107288603D01*
X126646167Y-107357928D01*
X126646163Y-107357931D01*
X126396167Y-107607929D01*
X125939709Y-108064386D01*
X125878386Y-108097871D01*
X125876219Y-108098322D01*
X125735007Y-108126411D01*
X125734999Y-108126413D01*
X125569667Y-108194896D01*
X125569657Y-108194901D01*
X125420865Y-108294321D01*
X125420861Y-108294324D01*
X125294324Y-108420861D01*
X125294321Y-108420865D01*
X125194901Y-108569657D01*
X125194896Y-108569667D01*
X125126413Y-108734999D01*
X125126411Y-108735007D01*
X125091500Y-108910516D01*
X125091500Y-109089483D01*
X125126411Y-109264992D01*
X125126413Y-109265000D01*
X125194896Y-109430333D01*
X125194897Y-109430335D01*
X125194898Y-109430336D01*
X125195417Y-109431113D01*
X125195564Y-109431584D01*
X125197768Y-109435706D01*
X125196986Y-109436123D01*
X125216293Y-109497790D01*
X125197807Y-109565170D01*
X125195422Y-109568882D01*
X125194898Y-109569666D01*
X125126413Y-109735002D01*
X125126411Y-109735010D01*
X125091500Y-109910519D01*
X125091500Y-110089486D01*
X125126411Y-110264995D01*
X125126413Y-110265003D01*
X125194896Y-110430336D01*
X125194897Y-110430338D01*
X125194898Y-110430339D01*
X125195417Y-110431116D01*
X125195564Y-110431587D01*
X125197768Y-110435709D01*
X125196986Y-110436126D01*
X125216293Y-110497793D01*
X125197807Y-110565173D01*
X125195422Y-110568885D01*
X125194898Y-110569669D01*
X125126413Y-110735005D01*
X125126411Y-110735013D01*
X125091500Y-110910522D01*
X125091500Y-111089489D01*
X125126411Y-111264998D01*
X125126413Y-111265006D01*
X125194896Y-111430339D01*
X125194897Y-111430341D01*
X125194898Y-111430342D01*
X125195417Y-111431119D01*
X125195564Y-111431590D01*
X125197768Y-111435712D01*
X125196986Y-111436129D01*
X125216293Y-111497796D01*
X125197807Y-111565176D01*
X125195422Y-111568888D01*
X125194898Y-111569672D01*
X125126413Y-111735008D01*
X125126411Y-111735016D01*
X125091500Y-111910525D01*
X125091500Y-112089492D01*
X125126411Y-112265001D01*
X125126413Y-112265009D01*
X125194896Y-112430341D01*
X125194901Y-112430351D01*
X125294321Y-112579143D01*
X125294324Y-112579147D01*
X125420861Y-112705684D01*
X125420865Y-112705687D01*
X125569657Y-112805107D01*
X125569661Y-112805109D01*
X125569664Y-112805111D01*
X125735000Y-112873596D01*
X125863450Y-112899146D01*
X125910516Y-112908508D01*
X125910520Y-112908509D01*
X125910521Y-112908509D01*
X126089480Y-112908509D01*
X126089481Y-112908508D01*
X126265000Y-112873596D01*
X126430336Y-112805111D01*
X126579135Y-112705687D01*
X126614993Y-112669829D01*
X126676315Y-112636343D01*
X126702675Y-112633509D01*
X132462386Y-112633509D01*
X132462387Y-112633508D01*
X132584776Y-112609164D01*
X132700066Y-112561409D01*
X132803824Y-112492080D01*
X132917863Y-112378039D01*
X132979186Y-112344554D01*
X133048878Y-112349538D01*
X133093227Y-112378040D01*
X133133514Y-112418328D01*
X133133518Y-112418331D01*
X133282310Y-112517751D01*
X133282314Y-112517753D01*
X133282317Y-112517755D01*
X133447653Y-112586240D01*
X133562896Y-112609163D01*
X133623169Y-112621152D01*
X133623173Y-112621153D01*
X133623174Y-112621153D01*
X133802133Y-112621153D01*
X133802134Y-112621152D01*
X133977653Y-112586240D01*
X134142989Y-112517755D01*
X134291788Y-112418331D01*
X134418331Y-112291788D01*
X134517755Y-112142989D01*
X134586240Y-111977653D01*
X134621153Y-111802132D01*
X134621153Y-111751419D01*
X134640838Y-111684380D01*
X134657472Y-111663738D01*
X135201391Y-111119819D01*
X135262714Y-111086334D01*
X135289072Y-111083500D01*
X140937606Y-111083500D01*
X142854254Y-111083500D01*
X142921293Y-111103185D01*
X142941935Y-111119819D01*
X144511983Y-112689867D01*
X144545468Y-112751190D01*
X144548302Y-112777548D01*
X144548302Y-115166686D01*
X144572645Y-115289065D01*
X144572647Y-115289073D01*
X144620400Y-115404360D01*
X144620405Y-115404369D01*
X144689730Y-115508120D01*
X144689733Y-115508124D01*
X147946686Y-118765076D01*
X148769427Y-119587819D01*
X148802912Y-119649142D01*
X148797928Y-119718834D01*
X148756056Y-119774767D01*
X148690592Y-119799184D01*
X148681746Y-119799500D01*
X119624500Y-119799500D01*
X119557461Y-119779815D01*
X119511706Y-119727011D01*
X119500500Y-119675500D01*
X119500500Y-117995551D01*
X119520185Y-117928512D01*
X119572989Y-117882757D01*
X119642147Y-117872813D01*
X119705703Y-117901838D01*
X119724815Y-117922662D01*
X119855483Y-118102510D01*
X120022490Y-118269517D01*
X120213567Y-118408343D01*
X120268430Y-118436297D01*
X120424003Y-118515566D01*
X120424005Y-118515566D01*
X120424008Y-118515568D01*
X120544412Y-118554689D01*
X120648631Y-118588553D01*
X120881903Y-118625500D01*
X120881908Y-118625500D01*
X121118097Y-118625500D01*
X121351368Y-118588553D01*
X121575992Y-118515568D01*
X121786433Y-118408343D01*
X121977510Y-118269517D01*
X122144517Y-118102510D01*
X122283343Y-117911433D01*
X122390568Y-117700992D01*
X122463553Y-117476368D01*
X122470109Y-117434975D01*
X122500500Y-117243097D01*
X122500500Y-117006902D01*
X122489295Y-116936156D01*
X123974499Y-116936156D01*
X124010065Y-117114952D01*
X124010068Y-117114962D01*
X124079831Y-117283387D01*
X124079833Y-117283391D01*
X124181113Y-117434967D01*
X124181119Y-117434975D01*
X124310024Y-117563880D01*
X124310032Y-117563886D01*
X124461608Y-117665166D01*
X124461612Y-117665168D01*
X124598372Y-117721815D01*
X124630042Y-117734933D01*
X124630046Y-117734933D01*
X124630047Y-117734934D01*
X124808843Y-117770500D01*
X124808846Y-117770500D01*
X124991156Y-117770500D01*
X125151191Y-117738666D01*
X125169958Y-117734933D01*
X125338389Y-117665167D01*
X125338391Y-117665166D01*
X125456156Y-117586478D01*
X125489972Y-117563883D01*
X125618883Y-117434972D01*
X125720167Y-117283389D01*
X125736859Y-117243092D01*
X125768082Y-117167712D01*
X125789933Y-117114958D01*
X125801572Y-117056445D01*
X125825500Y-116936156D01*
X125825500Y-116865994D01*
X125845185Y-116798955D01*
X125897989Y-116753200D01*
X125967147Y-116743256D01*
X125987812Y-116748061D01*
X126113379Y-116788861D01*
X126303669Y-116819000D01*
X126303670Y-116819000D01*
X126496330Y-116819000D01*
X126496331Y-116819000D01*
X126686621Y-116788861D01*
X126869853Y-116729325D01*
X127041516Y-116641859D01*
X127197383Y-116528615D01*
X127333615Y-116392383D01*
X127446859Y-116236516D01*
X127534325Y-116064853D01*
X127593861Y-115881621D01*
X127624000Y-115691331D01*
X127624000Y-115498669D01*
X127593861Y-115308379D01*
X127534325Y-115125147D01*
X127446859Y-114953484D01*
X127333615Y-114797617D01*
X127197383Y-114661385D01*
X127041516Y-114548141D01*
X126869853Y-114460675D01*
X126686621Y-114401139D01*
X126686619Y-114401138D01*
X126686618Y-114401138D01*
X126540442Y-114377986D01*
X126496331Y-114371000D01*
X126303669Y-114371000D01*
X126267859Y-114376671D01*
X126113381Y-114401138D01*
X125930144Y-114460676D01*
X125758483Y-114548141D01*
X125715824Y-114579135D01*
X125602617Y-114661385D01*
X125602615Y-114661387D01*
X125602614Y-114661387D01*
X125466387Y-114797614D01*
X125466387Y-114797615D01*
X125466385Y-114797617D01*
X125459055Y-114807706D01*
X125353141Y-114953483D01*
X125265676Y-115125144D01*
X125206138Y-115308381D01*
X125179720Y-115475179D01*
X125176000Y-115498669D01*
X125176000Y-115691331D01*
X125191495Y-115789162D01*
X125182539Y-115858456D01*
X125137542Y-115911907D01*
X125070791Y-115932546D01*
X125044830Y-115930176D01*
X124991158Y-115919500D01*
X124991154Y-115919500D01*
X124808846Y-115919500D01*
X124808844Y-115919500D01*
X124630047Y-115955065D01*
X124630037Y-115955068D01*
X124461612Y-116024831D01*
X124461608Y-116024833D01*
X124310032Y-116126113D01*
X124310024Y-116126119D01*
X124181119Y-116255024D01*
X124181113Y-116255032D01*
X124079833Y-116406608D01*
X124079831Y-116406612D01*
X124010068Y-116575037D01*
X124010065Y-116575047D01*
X123974500Y-116753843D01*
X123974500Y-116753846D01*
X123974500Y-116936154D01*
X123974500Y-116936156D01*
X123974499Y-116936156D01*
X122489295Y-116936156D01*
X122463553Y-116773631D01*
X122416810Y-116629773D01*
X122390568Y-116549008D01*
X122390566Y-116549005D01*
X122390566Y-116549003D01*
X122334002Y-116437991D01*
X122283343Y-116338567D01*
X122144517Y-116147490D01*
X121977510Y-115980483D01*
X121786433Y-115841657D01*
X121575996Y-115734433D01*
X121351368Y-115661446D01*
X121118097Y-115624500D01*
X121118092Y-115624500D01*
X120881908Y-115624500D01*
X120881903Y-115624500D01*
X120648631Y-115661446D01*
X120424003Y-115734433D01*
X120213566Y-115841657D01*
X120158561Y-115881621D01*
X120022490Y-115980483D01*
X120022488Y-115980485D01*
X120022487Y-115980485D01*
X119855485Y-116147487D01*
X119855485Y-116147488D01*
X119855483Y-116147490D01*
X119790802Y-116236516D01*
X119724818Y-116327334D01*
X119669488Y-116369999D01*
X119599874Y-116375978D01*
X119538079Y-116343372D01*
X119503722Y-116282533D01*
X119500500Y-116254448D01*
X119500500Y-98945551D01*
X119520185Y-98878512D01*
X119572989Y-98832757D01*
X119642147Y-98822813D01*
X119705703Y-98851838D01*
X119724815Y-98872662D01*
X119855483Y-99052510D01*
X120022490Y-99219517D01*
X120213567Y-99358343D01*
X120312991Y-99409002D01*
X120424003Y-99465566D01*
X120424005Y-99465566D01*
X120424008Y-99465568D01*
X120481921Y-99484385D01*
X120648631Y-99538553D01*
X120881903Y-99575500D01*
X120881908Y-99575500D01*
X121118097Y-99575500D01*
X121351368Y-99538553D01*
X121358197Y-99536334D01*
X121575992Y-99465568D01*
X121786433Y-99358343D01*
X121977510Y-99219517D01*
X122144517Y-99052510D01*
X122283343Y-98861433D01*
X122390568Y-98650992D01*
X122463553Y-98426368D01*
X122467221Y-98403207D01*
X122500500Y-98193097D01*
X122500500Y-97956902D01*
X122463553Y-97723631D01*
X122412284Y-97565843D01*
X122390568Y-97499008D01*
X122390566Y-97499005D01*
X122390566Y-97499003D01*
X122283342Y-97288566D01*
X122144517Y-97097490D01*
X121977510Y-96930483D01*
X121786433Y-96791657D01*
X121575996Y-96684433D01*
X121351368Y-96611446D01*
X121118097Y-96574500D01*
X121118092Y-96574500D01*
X120881908Y-96574500D01*
X120881903Y-96574500D01*
X120648631Y-96611446D01*
X120424003Y-96684433D01*
X120213566Y-96791657D01*
X120104550Y-96870862D01*
X120022490Y-96930483D01*
X120022488Y-96930485D01*
X120022487Y-96930485D01*
X119855485Y-97097487D01*
X119855485Y-97097488D01*
X119855483Y-97097490D01*
X119777773Y-97204448D01*
X119724818Y-97277334D01*
X119669488Y-97319999D01*
X119599874Y-97325978D01*
X119538079Y-97293372D01*
X119503722Y-97232533D01*
X119500500Y-97204448D01*
X119500500Y-95524500D01*
X119520185Y-95457461D01*
X119572989Y-95411706D01*
X119624500Y-95400500D01*
X158934108Y-95400500D01*
X160434108Y-95400500D01*
X160565892Y-95400500D01*
X171075500Y-95400500D01*
X171142539Y-95420185D01*
G37*
%TD.AperFunction*%
M02*
