%TF.GenerationSoftware,KiCad,Pcbnew,9.0.2*%
%TF.CreationDate,2025-05-27T11:43:51-07:00*%
%TF.ProjectId,8_6mSiPMs,385f366d-5369-4504-9d73-2e6b69636164,rev?*%
%TF.SameCoordinates,Original*%
%TF.FileFunction,Legend,Top*%
%TF.FilePolarity,Positive*%
%FSLAX46Y46*%
G04 Gerber Fmt 4.6, Leading zero omitted, Abs format (unit mm)*
G04 Created by KiCad (PCBNEW 9.0.2) date 2025-05-27 11:43:51*
%MOMM*%
%LPD*%
G01*
G04 APERTURE LIST*
%ADD10C,0.150000*%
%ADD11C,0.125000*%
%ADD12C,0.100000*%
%ADD13C,0.120000*%
%ADD14C,0.200000*%
G04 APERTURE END LIST*
D10*
X171650000Y-107600000D02*
G75*
G02*
X146250000Y-107600000I-12700000J0D01*
G01*
X146250000Y-107600000D02*
G75*
G02*
X171650000Y-107600000I12700000J0D01*
G01*
D11*
X121432309Y-114098716D02*
X120932309Y-114098716D01*
X121170404Y-114098716D02*
X121170404Y-113813002D01*
X121432309Y-113813002D02*
X120932309Y-113813002D01*
X121408500Y-113598715D02*
X121432309Y-113527287D01*
X121432309Y-113527287D02*
X121432309Y-113408239D01*
X121432309Y-113408239D02*
X121408500Y-113360620D01*
X121408500Y-113360620D02*
X121384690Y-113336811D01*
X121384690Y-113336811D02*
X121337071Y-113313001D01*
X121337071Y-113313001D02*
X121289452Y-113313001D01*
X121289452Y-113313001D02*
X121241833Y-113336811D01*
X121241833Y-113336811D02*
X121218023Y-113360620D01*
X121218023Y-113360620D02*
X121194214Y-113408239D01*
X121194214Y-113408239D02*
X121170404Y-113503477D01*
X121170404Y-113503477D02*
X121146595Y-113551096D01*
X121146595Y-113551096D02*
X121122785Y-113574906D01*
X121122785Y-113574906D02*
X121075166Y-113598715D01*
X121075166Y-113598715D02*
X121027547Y-113598715D01*
X121027547Y-113598715D02*
X120979928Y-113574906D01*
X120979928Y-113574906D02*
X120956119Y-113551096D01*
X120956119Y-113551096D02*
X120932309Y-113503477D01*
X120932309Y-113503477D02*
X120932309Y-113384430D01*
X120932309Y-113384430D02*
X120956119Y-113313001D01*
X121170404Y-113098716D02*
X121170404Y-112932049D01*
X121432309Y-112860621D02*
X121432309Y-113098716D01*
X121432309Y-113098716D02*
X120932309Y-113098716D01*
X120932309Y-113098716D02*
X120932309Y-112860621D01*
X121384690Y-112360621D02*
X121408500Y-112384430D01*
X121408500Y-112384430D02*
X121432309Y-112455859D01*
X121432309Y-112455859D02*
X121432309Y-112503478D01*
X121432309Y-112503478D02*
X121408500Y-112574906D01*
X121408500Y-112574906D02*
X121360880Y-112622525D01*
X121360880Y-112622525D02*
X121313261Y-112646335D01*
X121313261Y-112646335D02*
X121218023Y-112670144D01*
X121218023Y-112670144D02*
X121146595Y-112670144D01*
X121146595Y-112670144D02*
X121051357Y-112646335D01*
X121051357Y-112646335D02*
X121003738Y-112622525D01*
X121003738Y-112622525D02*
X120956119Y-112574906D01*
X120956119Y-112574906D02*
X120932309Y-112503478D01*
X120932309Y-112503478D02*
X120932309Y-112455859D01*
X120932309Y-112455859D02*
X120956119Y-112384430D01*
X120956119Y-112384430D02*
X120979928Y-112360621D01*
X121146595Y-112074906D02*
X121122785Y-112122525D01*
X121122785Y-112122525D02*
X121098976Y-112146335D01*
X121098976Y-112146335D02*
X121051357Y-112170144D01*
X121051357Y-112170144D02*
X121027547Y-112170144D01*
X121027547Y-112170144D02*
X120979928Y-112146335D01*
X120979928Y-112146335D02*
X120956119Y-112122525D01*
X120956119Y-112122525D02*
X120932309Y-112074906D01*
X120932309Y-112074906D02*
X120932309Y-111979668D01*
X120932309Y-111979668D02*
X120956119Y-111932049D01*
X120956119Y-111932049D02*
X120979928Y-111908240D01*
X120979928Y-111908240D02*
X121027547Y-111884430D01*
X121027547Y-111884430D02*
X121051357Y-111884430D01*
X121051357Y-111884430D02*
X121098976Y-111908240D01*
X121098976Y-111908240D02*
X121122785Y-111932049D01*
X121122785Y-111932049D02*
X121146595Y-111979668D01*
X121146595Y-111979668D02*
X121146595Y-112074906D01*
X121146595Y-112074906D02*
X121170404Y-112122525D01*
X121170404Y-112122525D02*
X121194214Y-112146335D01*
X121194214Y-112146335D02*
X121241833Y-112170144D01*
X121241833Y-112170144D02*
X121337071Y-112170144D01*
X121337071Y-112170144D02*
X121384690Y-112146335D01*
X121384690Y-112146335D02*
X121408500Y-112122525D01*
X121408500Y-112122525D02*
X121432309Y-112074906D01*
X121432309Y-112074906D02*
X121432309Y-111979668D01*
X121432309Y-111979668D02*
X121408500Y-111932049D01*
X121408500Y-111932049D02*
X121384690Y-111908240D01*
X121384690Y-111908240D02*
X121337071Y-111884430D01*
X121337071Y-111884430D02*
X121241833Y-111884430D01*
X121241833Y-111884430D02*
X121194214Y-111908240D01*
X121194214Y-111908240D02*
X121170404Y-111932049D01*
X121170404Y-111932049D02*
X121146595Y-111979668D01*
X121241833Y-111670145D02*
X121241833Y-111289193D01*
X121432309Y-110789192D02*
X121432309Y-111074906D01*
X121432309Y-110932049D02*
X120932309Y-110932049D01*
X120932309Y-110932049D02*
X121003738Y-110979668D01*
X121003738Y-110979668D02*
X121051357Y-111027287D01*
X121051357Y-111027287D02*
X121075166Y-111074906D01*
X120932309Y-110479669D02*
X120932309Y-110432050D01*
X120932309Y-110432050D02*
X120956119Y-110384431D01*
X120956119Y-110384431D02*
X120979928Y-110360621D01*
X120979928Y-110360621D02*
X121027547Y-110336812D01*
X121027547Y-110336812D02*
X121122785Y-110313002D01*
X121122785Y-110313002D02*
X121241833Y-110313002D01*
X121241833Y-110313002D02*
X121337071Y-110336812D01*
X121337071Y-110336812D02*
X121384690Y-110360621D01*
X121384690Y-110360621D02*
X121408500Y-110384431D01*
X121408500Y-110384431D02*
X121432309Y-110432050D01*
X121432309Y-110432050D02*
X121432309Y-110479669D01*
X121432309Y-110479669D02*
X121408500Y-110527288D01*
X121408500Y-110527288D02*
X121384690Y-110551097D01*
X121384690Y-110551097D02*
X121337071Y-110574907D01*
X121337071Y-110574907D02*
X121241833Y-110598716D01*
X121241833Y-110598716D02*
X121122785Y-110598716D01*
X121122785Y-110598716D02*
X121027547Y-110574907D01*
X121027547Y-110574907D02*
X120979928Y-110551097D01*
X120979928Y-110551097D02*
X120956119Y-110527288D01*
X120956119Y-110527288D02*
X120932309Y-110479669D01*
X121432309Y-110074907D02*
X121432309Y-109979669D01*
X121432309Y-109979669D02*
X121408500Y-109932050D01*
X121408500Y-109932050D02*
X121384690Y-109908241D01*
X121384690Y-109908241D02*
X121313261Y-109860622D01*
X121313261Y-109860622D02*
X121218023Y-109836812D01*
X121218023Y-109836812D02*
X121027547Y-109836812D01*
X121027547Y-109836812D02*
X120979928Y-109860622D01*
X120979928Y-109860622D02*
X120956119Y-109884431D01*
X120956119Y-109884431D02*
X120932309Y-109932050D01*
X120932309Y-109932050D02*
X120932309Y-110027288D01*
X120932309Y-110027288D02*
X120956119Y-110074907D01*
X120956119Y-110074907D02*
X120979928Y-110098717D01*
X120979928Y-110098717D02*
X121027547Y-110122526D01*
X121027547Y-110122526D02*
X121146595Y-110122526D01*
X121146595Y-110122526D02*
X121194214Y-110098717D01*
X121194214Y-110098717D02*
X121218023Y-110074907D01*
X121218023Y-110074907D02*
X121241833Y-110027288D01*
X121241833Y-110027288D02*
X121241833Y-109932050D01*
X121241833Y-109932050D02*
X121218023Y-109884431D01*
X121218023Y-109884431D02*
X121194214Y-109860622D01*
X121194214Y-109860622D02*
X121146595Y-109836812D01*
X121241833Y-109622527D02*
X121241833Y-109241575D01*
X120932309Y-108908241D02*
X120932309Y-108860622D01*
X120932309Y-108860622D02*
X120956119Y-108813003D01*
X120956119Y-108813003D02*
X120979928Y-108789193D01*
X120979928Y-108789193D02*
X121027547Y-108765384D01*
X121027547Y-108765384D02*
X121122785Y-108741574D01*
X121122785Y-108741574D02*
X121241833Y-108741574D01*
X121241833Y-108741574D02*
X121337071Y-108765384D01*
X121337071Y-108765384D02*
X121384690Y-108789193D01*
X121384690Y-108789193D02*
X121408500Y-108813003D01*
X121408500Y-108813003D02*
X121432309Y-108860622D01*
X121432309Y-108860622D02*
X121432309Y-108908241D01*
X121432309Y-108908241D02*
X121408500Y-108955860D01*
X121408500Y-108955860D02*
X121384690Y-108979669D01*
X121384690Y-108979669D02*
X121337071Y-109003479D01*
X121337071Y-109003479D02*
X121241833Y-109027288D01*
X121241833Y-109027288D02*
X121122785Y-109027288D01*
X121122785Y-109027288D02*
X121027547Y-109003479D01*
X121027547Y-109003479D02*
X120979928Y-108979669D01*
X120979928Y-108979669D02*
X120956119Y-108955860D01*
X120956119Y-108955860D02*
X120932309Y-108908241D01*
X121432309Y-108265384D02*
X121432309Y-108551098D01*
X121432309Y-108408241D02*
X120932309Y-108408241D01*
X120932309Y-108408241D02*
X121003738Y-108455860D01*
X121003738Y-108455860D02*
X121051357Y-108503479D01*
X121051357Y-108503479D02*
X121075166Y-108551098D01*
X121241833Y-108051099D02*
X121241833Y-107670147D01*
X121432309Y-107193956D02*
X121432309Y-107432051D01*
X121432309Y-107432051D02*
X120932309Y-107432051D01*
X121241833Y-107027289D02*
X121241833Y-106646337D01*
X121432309Y-106408241D02*
X120932309Y-106408241D01*
X120932309Y-106408241D02*
X120932309Y-106289193D01*
X120932309Y-106289193D02*
X120956119Y-106217765D01*
X120956119Y-106217765D02*
X121003738Y-106170146D01*
X121003738Y-106170146D02*
X121051357Y-106146336D01*
X121051357Y-106146336D02*
X121146595Y-106122527D01*
X121146595Y-106122527D02*
X121218023Y-106122527D01*
X121218023Y-106122527D02*
X121313261Y-106146336D01*
X121313261Y-106146336D02*
X121360880Y-106170146D01*
X121360880Y-106170146D02*
X121408500Y-106217765D01*
X121408500Y-106217765D02*
X121432309Y-106289193D01*
X121432309Y-106289193D02*
X121432309Y-106408241D01*
X120932309Y-105979669D02*
X121432309Y-105813003D01*
X121432309Y-105813003D02*
X120932309Y-105646336D01*
X121241833Y-105479670D02*
X121241833Y-105098718D01*
X121289452Y-104884431D02*
X121289452Y-104646336D01*
X121432309Y-104932050D02*
X120932309Y-104765384D01*
X120932309Y-104765384D02*
X121432309Y-104598717D01*
X121241833Y-104432051D02*
X121241833Y-104051099D01*
X121432309Y-103574908D02*
X121432309Y-103813003D01*
X121432309Y-103813003D02*
X120932309Y-103813003D01*
X120979928Y-103432050D02*
X120956119Y-103408241D01*
X120956119Y-103408241D02*
X120932309Y-103360622D01*
X120932309Y-103360622D02*
X120932309Y-103241574D01*
X120932309Y-103241574D02*
X120956119Y-103193955D01*
X120956119Y-103193955D02*
X120979928Y-103170146D01*
X120979928Y-103170146D02*
X121027547Y-103146336D01*
X121027547Y-103146336D02*
X121075166Y-103146336D01*
X121075166Y-103146336D02*
X121146595Y-103170146D01*
X121146595Y-103170146D02*
X121432309Y-103455860D01*
X121432309Y-103455860D02*
X121432309Y-103146336D01*
X121241833Y-102932051D02*
X121241833Y-102551099D01*
X121432309Y-102313003D02*
X120932309Y-102313003D01*
X121432309Y-102027289D02*
X121146595Y-102241574D01*
X120932309Y-102027289D02*
X121218023Y-102313003D01*
X121241833Y-101813003D02*
X121241833Y-101432051D01*
X120932309Y-101265383D02*
X120932309Y-100979669D01*
X121432309Y-101122526D02*
X120932309Y-101122526D01*
X121432309Y-100527289D02*
X121194214Y-100693955D01*
X121432309Y-100813003D02*
X120932309Y-100813003D01*
X120932309Y-100813003D02*
X120932309Y-100622527D01*
X120932309Y-100622527D02*
X120956119Y-100574908D01*
X120956119Y-100574908D02*
X120979928Y-100551098D01*
X120979928Y-100551098D02*
X121027547Y-100527289D01*
X121027547Y-100527289D02*
X121098976Y-100527289D01*
X121098976Y-100527289D02*
X121146595Y-100551098D01*
X121146595Y-100551098D02*
X121170404Y-100574908D01*
X121170404Y-100574908D02*
X121194214Y-100622527D01*
X121194214Y-100622527D02*
X121194214Y-100813003D01*
D10*
X131303445Y-117237152D02*
X131227255Y-117199057D01*
X131227255Y-117199057D02*
X131189160Y-117160961D01*
X131189160Y-117160961D02*
X131151064Y-117084771D01*
X131151064Y-117084771D02*
X131151064Y-117046676D01*
X131151064Y-117046676D02*
X131189160Y-116970485D01*
X131189160Y-116970485D02*
X131227255Y-116932390D01*
X131227255Y-116932390D02*
X131303445Y-116894295D01*
X131303445Y-116894295D02*
X131455826Y-116894295D01*
X131455826Y-116894295D02*
X131532017Y-116932390D01*
X131532017Y-116932390D02*
X131570112Y-116970485D01*
X131570112Y-116970485D02*
X131608207Y-117046676D01*
X131608207Y-117046676D02*
X131608207Y-117084771D01*
X131608207Y-117084771D02*
X131570112Y-117160961D01*
X131570112Y-117160961D02*
X131532017Y-117199057D01*
X131532017Y-117199057D02*
X131455826Y-117237152D01*
X131455826Y-117237152D02*
X131303445Y-117237152D01*
X131303445Y-117237152D02*
X131227255Y-117275247D01*
X131227255Y-117275247D02*
X131189160Y-117313342D01*
X131189160Y-117313342D02*
X131151064Y-117389533D01*
X131151064Y-117389533D02*
X131151064Y-117541914D01*
X131151064Y-117541914D02*
X131189160Y-117618104D01*
X131189160Y-117618104D02*
X131227255Y-117656200D01*
X131227255Y-117656200D02*
X131303445Y-117694295D01*
X131303445Y-117694295D02*
X131455826Y-117694295D01*
X131455826Y-117694295D02*
X131532017Y-117656200D01*
X131532017Y-117656200D02*
X131570112Y-117618104D01*
X131570112Y-117618104D02*
X131608207Y-117541914D01*
X131608207Y-117541914D02*
X131608207Y-117389533D01*
X131608207Y-117389533D02*
X131570112Y-117313342D01*
X131570112Y-117313342D02*
X131532017Y-117275247D01*
X131532017Y-117275247D02*
X131455826Y-117237152D01*
X132903446Y-116894295D02*
X132751065Y-116894295D01*
X132751065Y-116894295D02*
X132674874Y-116932390D01*
X132674874Y-116932390D02*
X132636779Y-116970485D01*
X132636779Y-116970485D02*
X132560589Y-117084771D01*
X132560589Y-117084771D02*
X132522493Y-117237152D01*
X132522493Y-117237152D02*
X132522493Y-117541914D01*
X132522493Y-117541914D02*
X132560589Y-117618104D01*
X132560589Y-117618104D02*
X132598684Y-117656200D01*
X132598684Y-117656200D02*
X132674874Y-117694295D01*
X132674874Y-117694295D02*
X132827255Y-117694295D01*
X132827255Y-117694295D02*
X132903446Y-117656200D01*
X132903446Y-117656200D02*
X132941541Y-117618104D01*
X132941541Y-117618104D02*
X132979636Y-117541914D01*
X132979636Y-117541914D02*
X132979636Y-117351438D01*
X132979636Y-117351438D02*
X132941541Y-117275247D01*
X132941541Y-117275247D02*
X132903446Y-117237152D01*
X132903446Y-117237152D02*
X132827255Y-117199057D01*
X132827255Y-117199057D02*
X132674874Y-117199057D01*
X132674874Y-117199057D02*
X132598684Y-117237152D01*
X132598684Y-117237152D02*
X132560589Y-117275247D01*
X132560589Y-117275247D02*
X132522493Y-117351438D01*
X133322494Y-117694295D02*
X133322494Y-117160961D01*
X133322494Y-117237152D02*
X133360589Y-117199057D01*
X133360589Y-117199057D02*
X133436779Y-117160961D01*
X133436779Y-117160961D02*
X133551065Y-117160961D01*
X133551065Y-117160961D02*
X133627256Y-117199057D01*
X133627256Y-117199057D02*
X133665351Y-117275247D01*
X133665351Y-117275247D02*
X133665351Y-117694295D01*
X133665351Y-117275247D02*
X133703446Y-117199057D01*
X133703446Y-117199057D02*
X133779637Y-117160961D01*
X133779637Y-117160961D02*
X133893922Y-117160961D01*
X133893922Y-117160961D02*
X133970113Y-117199057D01*
X133970113Y-117199057D02*
X134008208Y-117275247D01*
X134008208Y-117275247D02*
X134008208Y-117694295D01*
X134389161Y-117694295D02*
X134389161Y-117160961D01*
X134389161Y-117237152D02*
X134427256Y-117199057D01*
X134427256Y-117199057D02*
X134503446Y-117160961D01*
X134503446Y-117160961D02*
X134617732Y-117160961D01*
X134617732Y-117160961D02*
X134693923Y-117199057D01*
X134693923Y-117199057D02*
X134732018Y-117275247D01*
X134732018Y-117275247D02*
X134732018Y-117694295D01*
X134732018Y-117275247D02*
X134770113Y-117199057D01*
X134770113Y-117199057D02*
X134846304Y-117160961D01*
X134846304Y-117160961D02*
X134960589Y-117160961D01*
X134960589Y-117160961D02*
X135036780Y-117199057D01*
X135036780Y-117199057D02*
X135074875Y-117275247D01*
X135074875Y-117275247D02*
X135074875Y-117694295D01*
X136027256Y-117656200D02*
X136141542Y-117694295D01*
X136141542Y-117694295D02*
X136332018Y-117694295D01*
X136332018Y-117694295D02*
X136408209Y-117656200D01*
X136408209Y-117656200D02*
X136446304Y-117618104D01*
X136446304Y-117618104D02*
X136484399Y-117541914D01*
X136484399Y-117541914D02*
X136484399Y-117465723D01*
X136484399Y-117465723D02*
X136446304Y-117389533D01*
X136446304Y-117389533D02*
X136408209Y-117351438D01*
X136408209Y-117351438D02*
X136332018Y-117313342D01*
X136332018Y-117313342D02*
X136179637Y-117275247D01*
X136179637Y-117275247D02*
X136103447Y-117237152D01*
X136103447Y-117237152D02*
X136065352Y-117199057D01*
X136065352Y-117199057D02*
X136027256Y-117122866D01*
X136027256Y-117122866D02*
X136027256Y-117046676D01*
X136027256Y-117046676D02*
X136065352Y-116970485D01*
X136065352Y-116970485D02*
X136103447Y-116932390D01*
X136103447Y-116932390D02*
X136179637Y-116894295D01*
X136179637Y-116894295D02*
X136370114Y-116894295D01*
X136370114Y-116894295D02*
X136484399Y-116932390D01*
X136827257Y-117694295D02*
X136827257Y-117160961D01*
X136827257Y-116894295D02*
X136789161Y-116932390D01*
X136789161Y-116932390D02*
X136827257Y-116970485D01*
X136827257Y-116970485D02*
X136865352Y-116932390D01*
X136865352Y-116932390D02*
X136827257Y-116894295D01*
X136827257Y-116894295D02*
X136827257Y-116970485D01*
X137208209Y-117694295D02*
X137208209Y-116894295D01*
X137208209Y-116894295D02*
X137512971Y-116894295D01*
X137512971Y-116894295D02*
X137589161Y-116932390D01*
X137589161Y-116932390D02*
X137627256Y-116970485D01*
X137627256Y-116970485D02*
X137665352Y-117046676D01*
X137665352Y-117046676D02*
X137665352Y-117160961D01*
X137665352Y-117160961D02*
X137627256Y-117237152D01*
X137627256Y-117237152D02*
X137589161Y-117275247D01*
X137589161Y-117275247D02*
X137512971Y-117313342D01*
X137512971Y-117313342D02*
X137208209Y-117313342D01*
X138008209Y-117694295D02*
X138008209Y-116894295D01*
X138008209Y-116894295D02*
X138274875Y-117465723D01*
X138274875Y-117465723D02*
X138541542Y-116894295D01*
X138541542Y-116894295D02*
X138541542Y-117694295D01*
X139798685Y-117275247D02*
X139912971Y-117313342D01*
X139912971Y-117313342D02*
X139951066Y-117351438D01*
X139951066Y-117351438D02*
X139989162Y-117427628D01*
X139989162Y-117427628D02*
X139989162Y-117541914D01*
X139989162Y-117541914D02*
X139951066Y-117618104D01*
X139951066Y-117618104D02*
X139912971Y-117656200D01*
X139912971Y-117656200D02*
X139836781Y-117694295D01*
X139836781Y-117694295D02*
X139532019Y-117694295D01*
X139532019Y-117694295D02*
X139532019Y-116894295D01*
X139532019Y-116894295D02*
X139798685Y-116894295D01*
X139798685Y-116894295D02*
X139874876Y-116932390D01*
X139874876Y-116932390D02*
X139912971Y-116970485D01*
X139912971Y-116970485D02*
X139951066Y-117046676D01*
X139951066Y-117046676D02*
X139951066Y-117122866D01*
X139951066Y-117122866D02*
X139912971Y-117199057D01*
X139912971Y-117199057D02*
X139874876Y-117237152D01*
X139874876Y-117237152D02*
X139798685Y-117275247D01*
X139798685Y-117275247D02*
X139532019Y-117275247D01*
X140446304Y-117694295D02*
X140370114Y-117656200D01*
X140370114Y-117656200D02*
X140332019Y-117618104D01*
X140332019Y-117618104D02*
X140293923Y-117541914D01*
X140293923Y-117541914D02*
X140293923Y-117313342D01*
X140293923Y-117313342D02*
X140332019Y-117237152D01*
X140332019Y-117237152D02*
X140370114Y-117199057D01*
X140370114Y-117199057D02*
X140446304Y-117160961D01*
X140446304Y-117160961D02*
X140560590Y-117160961D01*
X140560590Y-117160961D02*
X140636781Y-117199057D01*
X140636781Y-117199057D02*
X140674876Y-117237152D01*
X140674876Y-117237152D02*
X140712971Y-117313342D01*
X140712971Y-117313342D02*
X140712971Y-117541914D01*
X140712971Y-117541914D02*
X140674876Y-117618104D01*
X140674876Y-117618104D02*
X140636781Y-117656200D01*
X140636781Y-117656200D02*
X140560590Y-117694295D01*
X140560590Y-117694295D02*
X140446304Y-117694295D01*
X141398686Y-117694295D02*
X141398686Y-117275247D01*
X141398686Y-117275247D02*
X141360591Y-117199057D01*
X141360591Y-117199057D02*
X141284400Y-117160961D01*
X141284400Y-117160961D02*
X141132019Y-117160961D01*
X141132019Y-117160961D02*
X141055829Y-117199057D01*
X141398686Y-117656200D02*
X141322495Y-117694295D01*
X141322495Y-117694295D02*
X141132019Y-117694295D01*
X141132019Y-117694295D02*
X141055829Y-117656200D01*
X141055829Y-117656200D02*
X141017733Y-117580009D01*
X141017733Y-117580009D02*
X141017733Y-117503819D01*
X141017733Y-117503819D02*
X141055829Y-117427628D01*
X141055829Y-117427628D02*
X141132019Y-117389533D01*
X141132019Y-117389533D02*
X141322495Y-117389533D01*
X141322495Y-117389533D02*
X141398686Y-117351438D01*
X141779639Y-117694295D02*
X141779639Y-117160961D01*
X141779639Y-117313342D02*
X141817734Y-117237152D01*
X141817734Y-117237152D02*
X141855829Y-117199057D01*
X141855829Y-117199057D02*
X141932020Y-117160961D01*
X141932020Y-117160961D02*
X142008210Y-117160961D01*
X142617734Y-117694295D02*
X142617734Y-116894295D01*
X142617734Y-117656200D02*
X142541543Y-117694295D01*
X142541543Y-117694295D02*
X142389162Y-117694295D01*
X142389162Y-117694295D02*
X142312972Y-117656200D01*
X142312972Y-117656200D02*
X142274877Y-117618104D01*
X142274877Y-117618104D02*
X142236781Y-117541914D01*
X142236781Y-117541914D02*
X142236781Y-117313342D01*
X142236781Y-117313342D02*
X142274877Y-117237152D01*
X142274877Y-117237152D02*
X142312972Y-117199057D01*
X142312972Y-117199057D02*
X142389162Y-117160961D01*
X142389162Y-117160961D02*
X142541543Y-117160961D01*
X142541543Y-117160961D02*
X142617734Y-117199057D01*
X143532020Y-117160961D02*
X143722496Y-117694295D01*
X143722496Y-117694295D02*
X143912973Y-117160961D01*
X144179639Y-116970485D02*
X144217735Y-116932390D01*
X144217735Y-116932390D02*
X144293925Y-116894295D01*
X144293925Y-116894295D02*
X144484401Y-116894295D01*
X144484401Y-116894295D02*
X144560592Y-116932390D01*
X144560592Y-116932390D02*
X144598687Y-116970485D01*
X144598687Y-116970485D02*
X144636782Y-117046676D01*
X144636782Y-117046676D02*
X144636782Y-117122866D01*
X144636782Y-117122866D02*
X144598687Y-117237152D01*
X144598687Y-117237152D02*
X144141544Y-117694295D01*
X144141544Y-117694295D02*
X144636782Y-117694295D01*
X131289160Y-115222200D02*
X131432017Y-115269819D01*
X131432017Y-115269819D02*
X131670112Y-115269819D01*
X131670112Y-115269819D02*
X131765350Y-115222200D01*
X131765350Y-115222200D02*
X131812969Y-115174580D01*
X131812969Y-115174580D02*
X131860588Y-115079342D01*
X131860588Y-115079342D02*
X131860588Y-114984104D01*
X131860588Y-114984104D02*
X131812969Y-114888866D01*
X131812969Y-114888866D02*
X131765350Y-114841247D01*
X131765350Y-114841247D02*
X131670112Y-114793628D01*
X131670112Y-114793628D02*
X131479636Y-114746009D01*
X131479636Y-114746009D02*
X131384398Y-114698390D01*
X131384398Y-114698390D02*
X131336779Y-114650771D01*
X131336779Y-114650771D02*
X131289160Y-114555533D01*
X131289160Y-114555533D02*
X131289160Y-114460295D01*
X131289160Y-114460295D02*
X131336779Y-114365057D01*
X131336779Y-114365057D02*
X131384398Y-114317438D01*
X131384398Y-114317438D02*
X131479636Y-114269819D01*
X131479636Y-114269819D02*
X131717731Y-114269819D01*
X131717731Y-114269819D02*
X131860588Y-114317438D01*
X132812969Y-115269819D02*
X132241541Y-115269819D01*
X132527255Y-115269819D02*
X132527255Y-114269819D01*
X132527255Y-114269819D02*
X132432017Y-114412676D01*
X132432017Y-114412676D02*
X132336779Y-114507914D01*
X132336779Y-114507914D02*
X132241541Y-114555533D01*
X133146303Y-114269819D02*
X133765350Y-114269819D01*
X133765350Y-114269819D02*
X133432017Y-114650771D01*
X133432017Y-114650771D02*
X133574874Y-114650771D01*
X133574874Y-114650771D02*
X133670112Y-114698390D01*
X133670112Y-114698390D02*
X133717731Y-114746009D01*
X133717731Y-114746009D02*
X133765350Y-114841247D01*
X133765350Y-114841247D02*
X133765350Y-115079342D01*
X133765350Y-115079342D02*
X133717731Y-115174580D01*
X133717731Y-115174580D02*
X133670112Y-115222200D01*
X133670112Y-115222200D02*
X133574874Y-115269819D01*
X133574874Y-115269819D02*
X133289160Y-115269819D01*
X133289160Y-115269819D02*
X133193922Y-115222200D01*
X133193922Y-115222200D02*
X133146303Y-115174580D01*
X134098684Y-114269819D02*
X134717731Y-114269819D01*
X134717731Y-114269819D02*
X134384398Y-114650771D01*
X134384398Y-114650771D02*
X134527255Y-114650771D01*
X134527255Y-114650771D02*
X134622493Y-114698390D01*
X134622493Y-114698390D02*
X134670112Y-114746009D01*
X134670112Y-114746009D02*
X134717731Y-114841247D01*
X134717731Y-114841247D02*
X134717731Y-115079342D01*
X134717731Y-115079342D02*
X134670112Y-115174580D01*
X134670112Y-115174580D02*
X134622493Y-115222200D01*
X134622493Y-115222200D02*
X134527255Y-115269819D01*
X134527255Y-115269819D02*
X134241541Y-115269819D01*
X134241541Y-115269819D02*
X134146303Y-115222200D01*
X134146303Y-115222200D02*
X134098684Y-115174580D01*
X135574874Y-114269819D02*
X135384398Y-114269819D01*
X135384398Y-114269819D02*
X135289160Y-114317438D01*
X135289160Y-114317438D02*
X135241541Y-114365057D01*
X135241541Y-114365057D02*
X135146303Y-114507914D01*
X135146303Y-114507914D02*
X135098684Y-114698390D01*
X135098684Y-114698390D02*
X135098684Y-115079342D01*
X135098684Y-115079342D02*
X135146303Y-115174580D01*
X135146303Y-115174580D02*
X135193922Y-115222200D01*
X135193922Y-115222200D02*
X135289160Y-115269819D01*
X135289160Y-115269819D02*
X135479636Y-115269819D01*
X135479636Y-115269819D02*
X135574874Y-115222200D01*
X135574874Y-115222200D02*
X135622493Y-115174580D01*
X135622493Y-115174580D02*
X135670112Y-115079342D01*
X135670112Y-115079342D02*
X135670112Y-114841247D01*
X135670112Y-114841247D02*
X135622493Y-114746009D01*
X135622493Y-114746009D02*
X135574874Y-114698390D01*
X135574874Y-114698390D02*
X135479636Y-114650771D01*
X135479636Y-114650771D02*
X135289160Y-114650771D01*
X135289160Y-114650771D02*
X135193922Y-114698390D01*
X135193922Y-114698390D02*
X135146303Y-114746009D01*
X135146303Y-114746009D02*
X135098684Y-114841247D01*
X136289160Y-114269819D02*
X136384398Y-114269819D01*
X136384398Y-114269819D02*
X136479636Y-114317438D01*
X136479636Y-114317438D02*
X136527255Y-114365057D01*
X136527255Y-114365057D02*
X136574874Y-114460295D01*
X136574874Y-114460295D02*
X136622493Y-114650771D01*
X136622493Y-114650771D02*
X136622493Y-114888866D01*
X136622493Y-114888866D02*
X136574874Y-115079342D01*
X136574874Y-115079342D02*
X136527255Y-115174580D01*
X136527255Y-115174580D02*
X136479636Y-115222200D01*
X136479636Y-115222200D02*
X136384398Y-115269819D01*
X136384398Y-115269819D02*
X136289160Y-115269819D01*
X136289160Y-115269819D02*
X136193922Y-115222200D01*
X136193922Y-115222200D02*
X136146303Y-115174580D01*
X136146303Y-115174580D02*
X136098684Y-115079342D01*
X136098684Y-115079342D02*
X136051065Y-114888866D01*
X136051065Y-114888866D02*
X136051065Y-114650771D01*
X136051065Y-114650771D02*
X136098684Y-114460295D01*
X136098684Y-114460295D02*
X136146303Y-114365057D01*
X136146303Y-114365057D02*
X136193922Y-114317438D01*
X136193922Y-114317438D02*
X136289160Y-114269819D01*
X137051065Y-114888866D02*
X137812970Y-114888866D01*
X138717731Y-114269819D02*
X138527255Y-114269819D01*
X138527255Y-114269819D02*
X138432017Y-114317438D01*
X138432017Y-114317438D02*
X138384398Y-114365057D01*
X138384398Y-114365057D02*
X138289160Y-114507914D01*
X138289160Y-114507914D02*
X138241541Y-114698390D01*
X138241541Y-114698390D02*
X138241541Y-115079342D01*
X138241541Y-115079342D02*
X138289160Y-115174580D01*
X138289160Y-115174580D02*
X138336779Y-115222200D01*
X138336779Y-115222200D02*
X138432017Y-115269819D01*
X138432017Y-115269819D02*
X138622493Y-115269819D01*
X138622493Y-115269819D02*
X138717731Y-115222200D01*
X138717731Y-115222200D02*
X138765350Y-115174580D01*
X138765350Y-115174580D02*
X138812969Y-115079342D01*
X138812969Y-115079342D02*
X138812969Y-114841247D01*
X138812969Y-114841247D02*
X138765350Y-114746009D01*
X138765350Y-114746009D02*
X138717731Y-114698390D01*
X138717731Y-114698390D02*
X138622493Y-114650771D01*
X138622493Y-114650771D02*
X138432017Y-114650771D01*
X138432017Y-114650771D02*
X138336779Y-114698390D01*
X138336779Y-114698390D02*
X138289160Y-114746009D01*
X138289160Y-114746009D02*
X138241541Y-114841247D01*
X139432017Y-114269819D02*
X139527255Y-114269819D01*
X139527255Y-114269819D02*
X139622493Y-114317438D01*
X139622493Y-114317438D02*
X139670112Y-114365057D01*
X139670112Y-114365057D02*
X139717731Y-114460295D01*
X139717731Y-114460295D02*
X139765350Y-114650771D01*
X139765350Y-114650771D02*
X139765350Y-114888866D01*
X139765350Y-114888866D02*
X139717731Y-115079342D01*
X139717731Y-115079342D02*
X139670112Y-115174580D01*
X139670112Y-115174580D02*
X139622493Y-115222200D01*
X139622493Y-115222200D02*
X139527255Y-115269819D01*
X139527255Y-115269819D02*
X139432017Y-115269819D01*
X139432017Y-115269819D02*
X139336779Y-115222200D01*
X139336779Y-115222200D02*
X139289160Y-115174580D01*
X139289160Y-115174580D02*
X139241541Y-115079342D01*
X139241541Y-115079342D02*
X139193922Y-114888866D01*
X139193922Y-114888866D02*
X139193922Y-114650771D01*
X139193922Y-114650771D02*
X139241541Y-114460295D01*
X139241541Y-114460295D02*
X139289160Y-114365057D01*
X139289160Y-114365057D02*
X139336779Y-114317438D01*
X139336779Y-114317438D02*
X139432017Y-114269819D01*
X140146303Y-114365057D02*
X140193922Y-114317438D01*
X140193922Y-114317438D02*
X140289160Y-114269819D01*
X140289160Y-114269819D02*
X140527255Y-114269819D01*
X140527255Y-114269819D02*
X140622493Y-114317438D01*
X140622493Y-114317438D02*
X140670112Y-114365057D01*
X140670112Y-114365057D02*
X140717731Y-114460295D01*
X140717731Y-114460295D02*
X140717731Y-114555533D01*
X140717731Y-114555533D02*
X140670112Y-114698390D01*
X140670112Y-114698390D02*
X140098684Y-115269819D01*
X140098684Y-115269819D02*
X140717731Y-115269819D01*
X141622493Y-114269819D02*
X141146303Y-114269819D01*
X141146303Y-114269819D02*
X141098684Y-114746009D01*
X141098684Y-114746009D02*
X141146303Y-114698390D01*
X141146303Y-114698390D02*
X141241541Y-114650771D01*
X141241541Y-114650771D02*
X141479636Y-114650771D01*
X141479636Y-114650771D02*
X141574874Y-114698390D01*
X141574874Y-114698390D02*
X141622493Y-114746009D01*
X141622493Y-114746009D02*
X141670112Y-114841247D01*
X141670112Y-114841247D02*
X141670112Y-115079342D01*
X141670112Y-115079342D02*
X141622493Y-115174580D01*
X141622493Y-115174580D02*
X141574874Y-115222200D01*
X141574874Y-115222200D02*
X141479636Y-115269819D01*
X141479636Y-115269819D02*
X141241541Y-115269819D01*
X141241541Y-115269819D02*
X141146303Y-115222200D01*
X141146303Y-115222200D02*
X141098684Y-115174580D01*
X142098684Y-115269819D02*
X142098684Y-114269819D01*
X142098684Y-114269819D02*
X142479636Y-114269819D01*
X142479636Y-114269819D02*
X142574874Y-114317438D01*
X142574874Y-114317438D02*
X142622493Y-114365057D01*
X142622493Y-114365057D02*
X142670112Y-114460295D01*
X142670112Y-114460295D02*
X142670112Y-114603152D01*
X142670112Y-114603152D02*
X142622493Y-114698390D01*
X142622493Y-114698390D02*
X142574874Y-114746009D01*
X142574874Y-114746009D02*
X142479636Y-114793628D01*
X142479636Y-114793628D02*
X142098684Y-114793628D01*
X143051065Y-115222200D02*
X143193922Y-115269819D01*
X143193922Y-115269819D02*
X143432017Y-115269819D01*
X143432017Y-115269819D02*
X143527255Y-115222200D01*
X143527255Y-115222200D02*
X143574874Y-115174580D01*
X143574874Y-115174580D02*
X143622493Y-115079342D01*
X143622493Y-115079342D02*
X143622493Y-114984104D01*
X143622493Y-114984104D02*
X143574874Y-114888866D01*
X143574874Y-114888866D02*
X143527255Y-114841247D01*
X143527255Y-114841247D02*
X143432017Y-114793628D01*
X143432017Y-114793628D02*
X143241541Y-114746009D01*
X143241541Y-114746009D02*
X143146303Y-114698390D01*
X143146303Y-114698390D02*
X143098684Y-114650771D01*
X143098684Y-114650771D02*
X143051065Y-114555533D01*
X143051065Y-114555533D02*
X143051065Y-114460295D01*
X143051065Y-114460295D02*
X143098684Y-114365057D01*
X143098684Y-114365057D02*
X143146303Y-114317438D01*
X143146303Y-114317438D02*
X143241541Y-114269819D01*
X143241541Y-114269819D02*
X143479636Y-114269819D01*
X143479636Y-114269819D02*
X143622493Y-114317438D01*
X142683333Y-118604819D02*
X142207143Y-118604819D01*
X142207143Y-118604819D02*
X142159524Y-119081009D01*
X142159524Y-119081009D02*
X142207143Y-119033390D01*
X142207143Y-119033390D02*
X142302381Y-118985771D01*
X142302381Y-118985771D02*
X142540476Y-118985771D01*
X142540476Y-118985771D02*
X142635714Y-119033390D01*
X142635714Y-119033390D02*
X142683333Y-119081009D01*
X142683333Y-119081009D02*
X142730952Y-119176247D01*
X142730952Y-119176247D02*
X142730952Y-119414342D01*
X142730952Y-119414342D02*
X142683333Y-119509580D01*
X142683333Y-119509580D02*
X142635714Y-119557200D01*
X142635714Y-119557200D02*
X142540476Y-119604819D01*
X142540476Y-119604819D02*
X142302381Y-119604819D01*
X142302381Y-119604819D02*
X142207143Y-119557200D01*
X142207143Y-119557200D02*
X142159524Y-119509580D01*
X143111905Y-118700057D02*
X143159524Y-118652438D01*
X143159524Y-118652438D02*
X143254762Y-118604819D01*
X143254762Y-118604819D02*
X143492857Y-118604819D01*
X143492857Y-118604819D02*
X143588095Y-118652438D01*
X143588095Y-118652438D02*
X143635714Y-118700057D01*
X143635714Y-118700057D02*
X143683333Y-118795295D01*
X143683333Y-118795295D02*
X143683333Y-118890533D01*
X143683333Y-118890533D02*
X143635714Y-119033390D01*
X143635714Y-119033390D02*
X143064286Y-119604819D01*
X143064286Y-119604819D02*
X143683333Y-119604819D01*
X144111905Y-119509580D02*
X144159524Y-119557200D01*
X144159524Y-119557200D02*
X144111905Y-119604819D01*
X144111905Y-119604819D02*
X144064286Y-119557200D01*
X144064286Y-119557200D02*
X144111905Y-119509580D01*
X144111905Y-119509580D02*
X144111905Y-119604819D01*
X144492857Y-118604819D02*
X145159523Y-118604819D01*
X145159523Y-118604819D02*
X144730952Y-119604819D01*
X146302381Y-119604819D02*
X146302381Y-118938152D01*
X146302381Y-119033390D02*
X146350000Y-118985771D01*
X146350000Y-118985771D02*
X146445238Y-118938152D01*
X146445238Y-118938152D02*
X146588095Y-118938152D01*
X146588095Y-118938152D02*
X146683333Y-118985771D01*
X146683333Y-118985771D02*
X146730952Y-119081009D01*
X146730952Y-119081009D02*
X146730952Y-119604819D01*
X146730952Y-119081009D02*
X146778571Y-118985771D01*
X146778571Y-118985771D02*
X146873809Y-118938152D01*
X146873809Y-118938152D02*
X147016666Y-118938152D01*
X147016666Y-118938152D02*
X147111905Y-118985771D01*
X147111905Y-118985771D02*
X147159524Y-119081009D01*
X147159524Y-119081009D02*
X147159524Y-119604819D01*
X147635714Y-119604819D02*
X147635714Y-118938152D01*
X147635714Y-119033390D02*
X147683333Y-118985771D01*
X147683333Y-118985771D02*
X147778571Y-118938152D01*
X147778571Y-118938152D02*
X147921428Y-118938152D01*
X147921428Y-118938152D02*
X148016666Y-118985771D01*
X148016666Y-118985771D02*
X148064285Y-119081009D01*
X148064285Y-119081009D02*
X148064285Y-119604819D01*
X148064285Y-119081009D02*
X148111904Y-118985771D01*
X148111904Y-118985771D02*
X148207142Y-118938152D01*
X148207142Y-118938152D02*
X148349999Y-118938152D01*
X148349999Y-118938152D02*
X148445238Y-118985771D01*
X148445238Y-118985771D02*
X148492857Y-119081009D01*
X148492857Y-119081009D02*
X148492857Y-119604819D01*
D12*
X171700000Y-120900000D02*
X171700000Y-119713580D01*
X119000000Y-120900000D02*
X119000000Y-119713580D01*
X171700000Y-120300000D02*
X119000000Y-120300000D01*
X171700000Y-120300000D02*
X170573496Y-120886421D01*
X171700000Y-120300000D02*
X170573496Y-119713579D01*
X119000000Y-120300000D02*
X120126504Y-119713579D01*
X119000000Y-120300000D02*
X120126504Y-120886421D01*
D10*
X145504819Y-109099999D02*
X145504819Y-109671427D01*
X145504819Y-109385713D02*
X144504819Y-109385713D01*
X144504819Y-109385713D02*
X144647676Y-109480951D01*
X144647676Y-109480951D02*
X144742914Y-109576189D01*
X144742914Y-109576189D02*
X144790533Y-109671427D01*
X145409580Y-108671427D02*
X145457200Y-108623808D01*
X145457200Y-108623808D02*
X145504819Y-108671427D01*
X145504819Y-108671427D02*
X145457200Y-108719046D01*
X145457200Y-108719046D02*
X145409580Y-108671427D01*
X145409580Y-108671427D02*
X145504819Y-108671427D01*
X144504819Y-108004761D02*
X144504819Y-107909523D01*
X144504819Y-107909523D02*
X144552438Y-107814285D01*
X144552438Y-107814285D02*
X144600057Y-107766666D01*
X144600057Y-107766666D02*
X144695295Y-107719047D01*
X144695295Y-107719047D02*
X144885771Y-107671428D01*
X144885771Y-107671428D02*
X145123866Y-107671428D01*
X145123866Y-107671428D02*
X145314342Y-107719047D01*
X145314342Y-107719047D02*
X145409580Y-107766666D01*
X145409580Y-107766666D02*
X145457200Y-107814285D01*
X145457200Y-107814285D02*
X145504819Y-107909523D01*
X145504819Y-107909523D02*
X145504819Y-108004761D01*
X145504819Y-108004761D02*
X145457200Y-108099999D01*
X145457200Y-108099999D02*
X145409580Y-108147618D01*
X145409580Y-108147618D02*
X145314342Y-108195237D01*
X145314342Y-108195237D02*
X145123866Y-108242856D01*
X145123866Y-108242856D02*
X144885771Y-108242856D01*
X144885771Y-108242856D02*
X144695295Y-108195237D01*
X144695295Y-108195237D02*
X144600057Y-108147618D01*
X144600057Y-108147618D02*
X144552438Y-108099999D01*
X144552438Y-108099999D02*
X144504819Y-108004761D01*
X145504819Y-106480951D02*
X144838152Y-106480951D01*
X144504819Y-106480951D02*
X144552438Y-106528570D01*
X144552438Y-106528570D02*
X144600057Y-106480951D01*
X144600057Y-106480951D02*
X144552438Y-106433332D01*
X144552438Y-106433332D02*
X144504819Y-106480951D01*
X144504819Y-106480951D02*
X144600057Y-106480951D01*
X144838152Y-106004761D02*
X145504819Y-106004761D01*
X144933390Y-106004761D02*
X144885771Y-105957142D01*
X144885771Y-105957142D02*
X144838152Y-105861904D01*
X144838152Y-105861904D02*
X144838152Y-105719047D01*
X144838152Y-105719047D02*
X144885771Y-105623809D01*
X144885771Y-105623809D02*
X144981009Y-105576190D01*
X144981009Y-105576190D02*
X145504819Y-105576190D01*
D12*
X171200000Y-120300000D02*
X145613580Y-120300000D01*
X171200000Y-94900000D02*
X145613580Y-94900000D01*
X146200000Y-120300000D02*
X146200000Y-94900000D01*
X146200000Y-120300000D02*
X145613579Y-119173496D01*
X146200000Y-120300000D02*
X146786421Y-119173496D01*
X146200000Y-94900000D02*
X146786421Y-96026504D01*
X146200000Y-94900000D02*
X145613579Y-96026504D01*
%TO.C,REF\u002A\u002A10*%
D13*
X163443198Y-97100000D02*
X169443198Y-97100000D01*
X169443198Y-103100000D01*
X163443198Y-103100000D01*
X163443198Y-97100000D01*
X162518198Y-96675000D02*
X169868198Y-96675000D01*
X169868198Y-103525000D01*
X162518198Y-103525000D01*
X162518198Y-96675000D01*
D14*
%TO.C,J\u002A\u002A*%
X121900000Y-102800000D02*
X121900000Y-102800000D01*
X121900000Y-102800000D02*
X121900000Y-102800000D01*
X121900000Y-102900000D02*
X121900000Y-102900000D01*
D12*
X122900000Y-97270000D02*
X129900000Y-97270000D01*
X122900000Y-118130000D02*
X122900000Y-97270000D01*
X129900000Y-97270000D02*
X129900000Y-118130000D01*
X129900000Y-118130000D02*
X122900000Y-118130000D01*
D14*
X121900000Y-102800000D02*
G75*
G02*
X121900000Y-102900000I0J-50000D01*
G01*
X121900000Y-102900000D02*
G75*
G02*
X121900000Y-102800000I0J50000D01*
G01*
X121900000Y-102900000D02*
G75*
G02*
X121900000Y-102800000I0J50000D01*
G01*
%TO.C,REF\u002A\u002A10*%
D13*
X155943198Y-97100000D02*
X161943198Y-97100000D01*
X161943198Y-103100000D01*
X155943198Y-103100000D01*
X155943198Y-97100000D01*
X155018198Y-96675000D02*
X162368198Y-96675000D01*
X162368198Y-103525000D01*
X155018198Y-103525000D01*
X155018198Y-96675000D01*
%TO.C,REF\u002A\u002A*%
X150243198Y-109100000D02*
X150243198Y-106100000D01*
X150843198Y-108000000D02*
X149543198Y-108000000D01*
X150243198Y-108000000D02*
X149643198Y-107000000D01*
X150843198Y-107000000D01*
X150243198Y-108000000D01*
G36*
X150243198Y-108000000D02*
G01*
X149643198Y-107000000D01*
X150843198Y-107000000D01*
X150243198Y-108000000D01*
G37*
%TO.C,REF\u002A\u002A10*%
X163443198Y-112100000D02*
X169443198Y-112100000D01*
X169443198Y-118100000D01*
X163443198Y-118100000D01*
X163443198Y-112100000D01*
X162518198Y-111675000D02*
X169868198Y-111675000D01*
X169868198Y-118525000D01*
X162518198Y-118525000D01*
X162518198Y-111675000D01*
X148443198Y-112100000D02*
X154443198Y-112100000D01*
X154443198Y-118100000D01*
X148443198Y-118100000D01*
X148443198Y-112100000D01*
X147518198Y-111675000D02*
X154868198Y-111675000D01*
X154868198Y-118525000D01*
X147518198Y-118525000D01*
X147518198Y-111675000D01*
X148443198Y-97100000D02*
X154443198Y-97100000D01*
X154443198Y-103100000D01*
X148443198Y-103100000D01*
X148443198Y-97100000D01*
X147518198Y-96675000D02*
X154868198Y-96675000D01*
X154868198Y-103525000D01*
X147518198Y-103525000D01*
X147518198Y-96675000D01*
X159693198Y-104600000D02*
X165693198Y-104600000D01*
X165693198Y-110600000D01*
X159693198Y-110600000D01*
X159693198Y-104600000D01*
X158768198Y-104175000D02*
X166118198Y-104175000D01*
X166118198Y-111025000D01*
X158768198Y-111025000D01*
X158768198Y-104175000D01*
X155943198Y-112100000D02*
X161943198Y-112100000D01*
X161943198Y-118100000D01*
X155943198Y-118100000D01*
X155943198Y-112100000D01*
X155018198Y-111675000D02*
X162368198Y-111675000D01*
X162368198Y-118525000D01*
X155018198Y-118525000D01*
X155018198Y-111675000D01*
X152193198Y-104600000D02*
X158193198Y-104600000D01*
X158193198Y-110600000D01*
X152193198Y-110600000D01*
X152193198Y-104600000D01*
X151268198Y-104175000D02*
X158618198Y-104175000D01*
X158618198Y-111025000D01*
X151268198Y-111025000D01*
X151268198Y-104175000D01*
%TD*%
M02*
