%TF.GenerationSoftware,KiCad,Pcbnew,9.0.2*%
%TF.CreationDate,2025-05-28T10:28:05-07:00*%
%TF.ProjectId,8_Ch_Connector_CAEN_Adapter,385f4368-5f43-46f6-9e6e-6563746f725f,rev?*%
%TF.SameCoordinates,Original*%
%TF.FileFunction,Paste,Bot*%
%TF.FilePolarity,Positive*%
%FSLAX46Y46*%
G04 Gerber Fmt 4.6, Leading zero omitted, Abs format (unit mm)*
G04 Created by KiCad (PCBNEW 9.0.2) date 2025-05-28 10:28:05*
%MOMM*%
%LPD*%
G01*
G04 APERTURE LIST*
G04 Aperture macros list*
%AMRoundRect*
0 Rectangle with rounded corners*
0 $1 Rounding radius*
0 $2 $3 $4 $5 $6 $7 $8 $9 X,Y pos of 4 corners*
0 Add a 4 corners polygon primitive as box body*
4,1,4,$2,$3,$4,$5,$6,$7,$8,$9,$2,$3,0*
0 Add four circle primitives for the rounded corners*
1,1,$1+$1,$2,$3*
1,1,$1+$1,$4,$5*
1,1,$1+$1,$6,$7*
1,1,$1+$1,$8,$9*
0 Add four rect primitives between the rounded corners*
20,1,$1+$1,$2,$3,$4,$5,0*
20,1,$1+$1,$4,$5,$6,$7,0*
20,1,$1+$1,$6,$7,$8,$9,0*
20,1,$1+$1,$8,$9,$2,$3,0*%
G04 Aperture macros list end*
%ADD10RoundRect,0.125000X-0.125000X-0.475000X0.125000X-0.475000X0.125000X0.475000X-0.125000X0.475000X0*%
G04 APERTURE END LIST*
D10*
%TO.C,REF\u002A\u002A*%
X134100000Y-83200000D03*
X134100000Y-86600000D03*
X134900000Y-83200000D03*
X134900000Y-86600000D03*
X135700000Y-83200000D03*
X135700000Y-86600000D03*
X136500000Y-83200000D03*
X136500000Y-86600000D03*
X137300000Y-83200000D03*
X137300000Y-86600000D03*
X138100000Y-83200000D03*
X138100000Y-86600000D03*
X138900000Y-83200000D03*
X138900000Y-86600000D03*
X139700000Y-83200000D03*
X139700000Y-86600000D03*
X140500000Y-83200000D03*
X140500000Y-86600000D03*
X141300000Y-83200000D03*
X141300000Y-86600000D03*
X142100000Y-83200000D03*
X142100000Y-86600000D03*
X142900000Y-83200000D03*
X142900000Y-86600000D03*
X143700000Y-83200000D03*
X143700000Y-86600000D03*
X144500000Y-83200000D03*
X144500000Y-86600000D03*
X145300000Y-83200000D03*
X145300000Y-86600000D03*
X146100000Y-83200000D03*
X146100000Y-86600000D03*
X146900000Y-83200000D03*
X146900000Y-86600000D03*
X147700000Y-83200000D03*
X147700000Y-86600000D03*
X148500000Y-83200000D03*
X148500000Y-86600000D03*
X149300000Y-83200000D03*
X149300000Y-86600000D03*
X150100000Y-83200000D03*
X150100000Y-86600000D03*
X150900000Y-83200000D03*
X150900000Y-86600000D03*
X151700000Y-83200000D03*
X151700000Y-86600000D03*
X152500000Y-83200000D03*
X152500000Y-86600000D03*
X153300000Y-83200000D03*
X153300000Y-86600000D03*
X154100000Y-83200000D03*
X154100000Y-86600000D03*
X154900000Y-83200000D03*
X154900000Y-86600000D03*
X155700000Y-83200000D03*
X155700000Y-86600000D03*
X156500000Y-83200000D03*
X156500000Y-86600000D03*
X157300000Y-83200000D03*
X157300000Y-86600000D03*
X158100000Y-83200000D03*
X158100000Y-86600000D03*
X158900000Y-83200000D03*
X158900000Y-86600000D03*
X162900000Y-83200000D03*
X162900000Y-86600000D03*
X163700000Y-83200000D03*
X163700000Y-86600000D03*
X164500000Y-83200000D03*
X164500000Y-86600000D03*
X165300000Y-83200000D03*
X165300000Y-86600000D03*
X166100000Y-83200000D03*
X166100000Y-86600000D03*
X166900000Y-83200000D03*
X166900000Y-86600000D03*
X167700000Y-83200000D03*
X167700000Y-86600000D03*
X168500000Y-83200000D03*
X168500000Y-86600000D03*
X169300000Y-83200000D03*
X169300000Y-86600000D03*
X170100000Y-83200000D03*
X170100000Y-86600000D03*
X170900000Y-83200000D03*
X170900000Y-86600000D03*
X171700000Y-83200000D03*
X171700000Y-86600000D03*
X172500000Y-83200000D03*
X172500000Y-86600000D03*
X173300000Y-83200000D03*
X173300000Y-86600000D03*
X174100000Y-83200000D03*
X174100000Y-86600000D03*
X174900000Y-83200000D03*
X174900000Y-86600000D03*
X175700000Y-83200000D03*
X175700000Y-86600000D03*
X176500000Y-83200000D03*
X176500000Y-86600000D03*
X177300000Y-83200000D03*
X177300000Y-86600000D03*
X178100000Y-83200000D03*
X178100000Y-86600000D03*
X178900000Y-83200000D03*
X178900000Y-86600000D03*
X179700000Y-83200000D03*
X179700000Y-86600000D03*
X180500000Y-83200000D03*
X180500000Y-86600000D03*
X181300000Y-83200000D03*
X181300000Y-86600000D03*
X182100000Y-83200000D03*
X182100000Y-86600000D03*
X182900000Y-83200000D03*
X182900000Y-86600000D03*
X183700000Y-83200000D03*
X183700000Y-86600000D03*
X184500000Y-83200000D03*
X184500000Y-86600000D03*
X185300000Y-83200000D03*
X185300000Y-86600000D03*
X186100000Y-83200000D03*
X186100000Y-86600000D03*
X186900000Y-83200000D03*
X186900000Y-86600000D03*
X187700000Y-83200000D03*
X187700000Y-86600000D03*
X188500000Y-83200000D03*
X188500000Y-86600000D03*
X189300000Y-83200000D03*
X189300000Y-86600000D03*
X190100000Y-83200000D03*
X190100000Y-86600000D03*
X190900000Y-83200000D03*
X190900000Y-86600000D03*
X191700000Y-83200000D03*
X191700000Y-86600000D03*
X192500000Y-83200000D03*
X192500000Y-86600000D03*
%TD*%
M02*
