%TF.GenerationSoftware,KiCad,Pcbnew,9.0.2*%
%TF.CreationDate,2025-09-03T12:41:14-07:00*%
%TF.ProjectId,8_Ch_Connector_CAEN_Adapter,385f4368-5f43-46f6-9e6e-6563746f725f,rev?*%
%TF.SameCoordinates,Original*%
%TF.FileFunction,Profile,NP*%
%FSLAX46Y46*%
G04 Gerber Fmt 4.6, Leading zero omitted, Abs format (unit mm)*
G04 Created by KiCad (PCBNEW 9.0.2) date 2025-09-03 12:41:14*
%MOMM*%
%LPD*%
G01*
G04 APERTURE LIST*
%TA.AperFunction,Profile*%
%ADD10C,0.050000*%
%TD*%
G04 APERTURE END LIST*
D10*
X185100000Y-110500000D02*
G75*
G02*
X181900000Y-110500000I-1600000J0D01*
G01*
X181900000Y-110500000D02*
G75*
G02*
X185100000Y-110500000I1600000J0D01*
G01*
X190000000Y-115000000D02*
X190000000Y-125000000D01*
X159100000Y-110500000D02*
G75*
G02*
X155900000Y-110500000I-1600000J0D01*
G01*
X155900000Y-110500000D02*
G75*
G02*
X159100000Y-110500000I1600000J0D01*
G01*
X135000000Y-55000000D02*
X125000000Y-55000000D01*
X135000000Y-55000000D02*
X135000000Y-45000000D01*
X208500000Y-75000000D02*
X208500000Y-95000000D01*
X135000000Y-125000000D02*
X135000000Y-115000000D01*
X200000000Y-55000000D02*
X190000000Y-55000000D01*
X200000000Y-115000000D02*
X190000000Y-115000000D01*
X159100000Y-60500000D02*
G75*
G02*
X155900000Y-60500000I-1600000J0D01*
G01*
X155900000Y-60500000D02*
G75*
G02*
X159100000Y-60500000I1600000J0D01*
G01*
X190000000Y-45000000D02*
X190000000Y-55000000D01*
X200000000Y-55000000D02*
X200000000Y-75000000D01*
X185100000Y-60500000D02*
G75*
G02*
X181900000Y-60500000I-1600000J0D01*
G01*
X181900000Y-60500000D02*
G75*
G02*
X185100000Y-60500000I1600000J0D01*
G01*
X135000000Y-45000000D02*
X190000000Y-45000000D01*
X200000000Y-95000000D02*
X200000000Y-115000000D01*
X125000000Y-115000000D02*
X125000000Y-55000000D01*
X208500000Y-75000000D02*
X200000000Y-75000000D01*
X135000000Y-115000000D02*
X125000000Y-115000000D01*
X190000000Y-125000000D02*
X135000000Y-125000000D01*
X200000000Y-95000000D02*
X208500000Y-95000000D01*
M02*
