%TF.GenerationSoftware,KiCad,Pcbnew,9.0.2*%
%TF.CreationDate,2025-09-03T12:41:14-07:00*%
%TF.ProjectId,8_Ch_Connector_CAEN_Adapter,385f4368-5f43-46f6-9e6e-6563746f725f,rev?*%
%TF.SameCoordinates,Original*%
%TF.FileFunction,Paste,Top*%
%TF.FilePolarity,Positive*%
%FSLAX46Y46*%
G04 Gerber Fmt 4.6, Leading zero omitted, Abs format (unit mm)*
G04 Created by KiCad (PCBNEW 9.0.2) date 2025-09-03 12:41:14*
%MOMM*%
%LPD*%
G01*
G04 APERTURE LIST*
G04 Aperture macros list*
%AMRoundRect*
0 Rectangle with rounded corners*
0 $1 Rounding radius*
0 $2 $3 $4 $5 $6 $7 $8 $9 X,Y pos of 4 corners*
0 Add a 4 corners polygon primitive as box body*
4,1,4,$2,$3,$4,$5,$6,$7,$8,$9,$2,$3,0*
0 Add four circle primitives for the rounded corners*
1,1,$1+$1,$2,$3*
1,1,$1+$1,$4,$5*
1,1,$1+$1,$6,$7*
1,1,$1+$1,$8,$9*
0 Add four rect primitives between the rounded corners*
20,1,$1+$1,$2,$3,$4,$5,0*
20,1,$1+$1,$4,$5,$6,$7,0*
20,1,$1+$1,$6,$7,$8,$9,0*
20,1,$1+$1,$8,$9,$2,$3,0*%
G04 Aperture macros list end*
%ADD10C,2.540000*%
%ADD11RoundRect,0.125000X-0.125000X-0.475000X0.125000X-0.475000X0.125000X0.475000X-0.125000X0.475000X0*%
%ADD12RoundRect,0.125000X0.475000X-0.125000X0.475000X0.125000X-0.475000X0.125000X-0.475000X-0.125000X0*%
%ADD13RoundRect,0.125000X-0.475000X0.125000X-0.475000X-0.125000X0.475000X-0.125000X0.475000X0.125000X0*%
G04 APERTURE END LIST*
D10*
%TO.C,REF\u002A\u002A*%
X167250000Y-51300000D03*
X184550000Y-51300000D03*
D11*
X171100000Y-53000000D03*
X171100000Y-49600000D03*
X171900000Y-53000000D03*
X171900000Y-49600000D03*
X172700000Y-53000000D03*
X172700000Y-49600000D03*
X173500000Y-53000000D03*
X173500000Y-49600000D03*
X177500000Y-53000000D03*
X177500000Y-49600000D03*
X178300000Y-53000000D03*
X178300000Y-49600000D03*
X179100000Y-53000000D03*
X179100000Y-49600000D03*
X179900000Y-53000000D03*
X179900000Y-49600000D03*
X180700000Y-53000000D03*
X180700000Y-49600000D03*
%TD*%
D10*
%TO.C,REF\u002A\u002A*%
X139700000Y-119000000D03*
X157000000Y-119000000D03*
D11*
X143550000Y-120700000D03*
X143550000Y-117300000D03*
X144350000Y-120700000D03*
X144350000Y-117300000D03*
X145150000Y-120700000D03*
X145150000Y-117300000D03*
X145950000Y-120700000D03*
X145950000Y-117300000D03*
X149950000Y-120700000D03*
X149950000Y-117300000D03*
X150750000Y-120700000D03*
X150750000Y-117300000D03*
X151550000Y-120700000D03*
X151550000Y-117300000D03*
X152350000Y-120700000D03*
X152350000Y-117300000D03*
X153150000Y-120700000D03*
X153150000Y-117300000D03*
%TD*%
D10*
%TO.C,REF\u002A\u002A*%
X132800000Y-77750000D03*
X132800000Y-60450000D03*
D12*
X134500000Y-73900000D03*
X131100000Y-73900000D03*
X134500000Y-73100000D03*
X131100000Y-73100000D03*
X134500000Y-72300000D03*
X131100000Y-72300000D03*
X134500000Y-71500000D03*
X131100000Y-71500000D03*
X134500000Y-67500000D03*
X131100000Y-67500000D03*
X134500000Y-66700000D03*
X131100000Y-66700000D03*
X134500000Y-65900000D03*
X131100000Y-65900000D03*
X134500000Y-65100000D03*
X131100000Y-65100000D03*
X134500000Y-64300000D03*
X131100000Y-64300000D03*
%TD*%
D10*
%TO.C,REF\u002A\u002A*%
X133000000Y-91750000D03*
X133000000Y-109050000D03*
D13*
X131300000Y-95600000D03*
X134700000Y-95600000D03*
X131300000Y-96400000D03*
X134700000Y-96400000D03*
X131300000Y-97200000D03*
X134700000Y-97200000D03*
X131300000Y-98000000D03*
X134700000Y-98000000D03*
X131300000Y-102000000D03*
X134700000Y-102000000D03*
X131300000Y-102800000D03*
X134700000Y-102800000D03*
X131300000Y-103600000D03*
X134700000Y-103600000D03*
X131300000Y-104400000D03*
X134700000Y-104400000D03*
X131300000Y-105200000D03*
X134700000Y-105200000D03*
%TD*%
D10*
%TO.C,REF\u002A\u002A*%
X167350000Y-119000000D03*
X184650000Y-119000000D03*
D11*
X171200000Y-120700000D03*
X171200000Y-117300000D03*
X172000000Y-120700000D03*
X172000000Y-117300000D03*
X172800000Y-120700000D03*
X172800000Y-117300000D03*
X173600000Y-120700000D03*
X173600000Y-117300000D03*
X177600000Y-120700000D03*
X177600000Y-117300000D03*
X178400000Y-120700000D03*
X178400000Y-117300000D03*
X179200000Y-120700000D03*
X179200000Y-117300000D03*
X180000000Y-120700000D03*
X180000000Y-117300000D03*
X180800000Y-120700000D03*
X180800000Y-117300000D03*
%TD*%
D10*
%TO.C,REF\u002A\u002A*%
X192800000Y-60350000D03*
X192800000Y-77650000D03*
D13*
X191100000Y-64200000D03*
X194500000Y-64200000D03*
X191100000Y-65000000D03*
X194500000Y-65000000D03*
X191100000Y-65800000D03*
X194500000Y-65800000D03*
X191100000Y-66600000D03*
X194500000Y-66600000D03*
X191100000Y-70600000D03*
X194500000Y-70600000D03*
X191100000Y-71400000D03*
X194500000Y-71400000D03*
X191100000Y-72200000D03*
X194500000Y-72200000D03*
X191100000Y-73000000D03*
X194500000Y-73000000D03*
X191100000Y-73800000D03*
X194500000Y-73800000D03*
%TD*%
D10*
%TO.C,REF\u002A\u002A*%
X139950000Y-51300000D03*
X157250000Y-51300000D03*
D11*
X143800000Y-53000000D03*
X143800000Y-49600000D03*
X144600000Y-53000000D03*
X144600000Y-49600000D03*
X145400000Y-53000000D03*
X145400000Y-49600000D03*
X146200000Y-53000000D03*
X146200000Y-49600000D03*
X150200000Y-53000000D03*
X150200000Y-49600000D03*
X151000000Y-53000000D03*
X151000000Y-49600000D03*
X151800000Y-53000000D03*
X151800000Y-49600000D03*
X152600000Y-53000000D03*
X152600000Y-49600000D03*
X153400000Y-53000000D03*
X153400000Y-49600000D03*
%TD*%
D10*
%TO.C,REF\u002A\u002A*%
X192300000Y-109250000D03*
X192300000Y-91950000D03*
D12*
X194000000Y-105400000D03*
X190600000Y-105400000D03*
X194000000Y-104600000D03*
X190600000Y-104600000D03*
X194000000Y-103800000D03*
X190600000Y-103800000D03*
X194000000Y-103000000D03*
X190600000Y-103000000D03*
X194000000Y-99000000D03*
X190600000Y-99000000D03*
X194000000Y-98200000D03*
X190600000Y-98200000D03*
X194000000Y-97400000D03*
X190600000Y-97400000D03*
X194000000Y-96600000D03*
X190600000Y-96600000D03*
X194000000Y-95800000D03*
X190600000Y-95800000D03*
%TD*%
M02*
