M48
; DRILL file {KiCad 9.0.2} date 2026-01-05T15:34:43-0800
; FORMAT={-:-/ absolute / metric / decimal}
; #@! TF.CreationDate,2026-01-05T15:34:43-08:00
; #@! TF.GenerationSoftware,Kicad,Pcbnew,9.0.2
; #@! TF.FileFunction,Plated,1,2,PTH
FMAT,2
METRIC
; #@! TA.AperFunction,Plated,PTH,ViaDrill
T1C0.300
; #@! TA.AperFunction,Plated,PTH,ComponentDrill
T2C0.840
; #@! TA.AperFunction,Plated,PTH,ComponentDrill
T3C0.950
%
G90
G05
T1
X-3.0Y-67.0
X-3.0Y-68.0
X-3.0Y-69.0
X-3.0Y-70.0
X-3.0Y-72.5
X-3.0Y-73.5
X-3.0Y-75.5
X-2.973Y-74.527
X2.0Y-66.1
X2.5Y-90.5
X3.0Y-62.0
X8.0Y-61.0
X8.0Y-65.5
X8.0Y-70.5
X8.0Y-73.0
X8.0Y-75.5
X8.0Y-80.5
X8.0Y-82.5
X8.0Y-85.5
X8.0Y-88.0
X8.0Y-90.5
X8.0Y-93.0
X8.0Y-95.5
X8.6Y-78.0
T2
X-2.7Y-63.65
X-2.7Y-80.95
T3
X-3.0Y-93.0
X-3.0Y-95.5
X-3.0Y-98.0
X37.3Y-81.55
X37.3Y-84.55
X86.1Y-81.5
X86.1Y-84.5
X134.9Y-81.5
X134.9Y-84.5
X183.7Y-81.5
X183.7Y-84.5
X232.5Y-81.5
X232.5Y-84.5
X281.3Y-81.5
X281.3Y-84.5
X330.1Y-81.5
X330.1Y-84.5
X378.9Y-81.5
X378.9Y-84.5
M30
