%TF.GenerationSoftware,KiCad,Pcbnew,9.0.2*%
%TF.CreationDate,2026-01-05T15:34:45-08:00*%
%TF.ProjectId,Muon-8ch-48.8mm-S13360-1325CS-01,4d756f6e-2d38-4636-982d-34382e386d6d,rev?*%
%TF.SameCoordinates,Original*%
%TF.FileFunction,Copper,L2,Bot*%
%TF.FilePolarity,Positive*%
%FSLAX46Y46*%
G04 Gerber Fmt 4.6, Leading zero omitted, Abs format (unit mm)*
G04 Created by KiCad (PCBNEW 9.0.2) date 2026-01-05 15:34:45*
%MOMM*%
%LPD*%
G01*
G04 APERTURE LIST*
G04 Aperture macros list*
%AMRoundRect*
0 Rectangle with rounded corners*
0 $1 Rounding radius*
0 $2 $3 $4 $5 $6 $7 $8 $9 X,Y pos of 4 corners*
0 Add a 4 corners polygon primitive as box body*
4,1,4,$2,$3,$4,$5,$6,$7,$8,$9,$2,$3,0*
0 Add four circle primitives for the rounded corners*
1,1,$1+$1,$2,$3*
1,1,$1+$1,$4,$5*
1,1,$1+$1,$6,$7*
1,1,$1+$1,$8,$9*
0 Add four rect primitives between the rounded corners*
20,1,$1+$1,$2,$3,$4,$5,0*
20,1,$1+$1,$4,$5,$6,$7,0*
20,1,$1+$1,$6,$7,$8,$9,0*
20,1,$1+$1,$8,$9,$2,$3,0*%
G04 Aperture macros list end*
%TA.AperFunction,ComponentPad*%
%ADD10RoundRect,0.250000X-0.725000X0.600000X-0.725000X-0.600000X0.725000X-0.600000X0.725000X0.600000X0*%
%TD*%
%TA.AperFunction,ComponentPad*%
%ADD11O,1.950000X1.700000*%
%TD*%
%TA.AperFunction,ComponentPad*%
%ADD12C,1.200000*%
%TD*%
%TA.AperFunction,ComponentPad*%
%ADD13C,2.540000*%
%TD*%
%TA.AperFunction,ViaPad*%
%ADD14C,0.600000*%
%TD*%
%TA.AperFunction,Conductor*%
%ADD15C,0.200000*%
%TD*%
G04 APERTURE END LIST*
D10*
%TO.P,REF\u002A\u002A,1*%
%TO.N,GND*%
X-3000000Y-93000000D03*
D11*
%TO.P,REF\u002A\u002A,2*%
%TO.N,TEMP_OUT*%
X-3000000Y-95500000D03*
%TO.P,REF\u002A\u002A,3*%
%TO.N,HV*%
X-3000000Y-98000000D03*
%TD*%
D12*
%TO.P,REF\u002A\u002A20,1*%
%TO.N,A4*%
X232500000Y-84500000D03*
%TO.P,REF\u002A\u002A20,2*%
%TO.N,K4*%
X232500000Y-81500000D03*
%TD*%
%TO.P,REF\u002A\u002A20,1*%
%TO.N,A5*%
X281300000Y-84500000D03*
%TO.P,REF\u002A\u002A20,2*%
%TO.N,K5*%
X281300000Y-81500000D03*
%TD*%
%TO.P,REF\u002A\u002A20,1*%
%TO.N,A2*%
X134900000Y-84500000D03*
%TO.P,REF\u002A\u002A20,2*%
%TO.N,K2*%
X134900000Y-81500000D03*
%TD*%
D13*
%TO.P,REF\u002A\u002A,*%
%TO.N,*%
X-2700000Y-63650000D03*
X-2700000Y-80950000D03*
%TD*%
D12*
%TO.P,REF\u002A\u002A20,1*%
%TO.N,A6*%
X330100000Y-84500000D03*
%TO.P,REF\u002A\u002A20,2*%
%TO.N,K6*%
X330100000Y-81500000D03*
%TD*%
%TO.P,REF\u002A\u002A20,1*%
%TO.N,A1*%
X86100000Y-84500000D03*
%TO.P,REF\u002A\u002A20,2*%
%TO.N,K1*%
X86100000Y-81500000D03*
%TD*%
%TO.P,REF\u002A\u002A20,1*%
%TO.N,A7*%
X378900000Y-84500000D03*
%TO.P,REF\u002A\u002A20,2*%
%TO.N,K7*%
X378900000Y-81500000D03*
%TD*%
%TO.P,REF\u002A\u002A20,1*%
%TO.N,A3*%
X183700000Y-84500000D03*
%TO.P,REF\u002A\u002A20,2*%
%TO.N,K3*%
X183700000Y-81500000D03*
%TD*%
%TO.P,REF\u002A\u002A20,1*%
%TO.N,A0*%
X37300000Y-84550000D03*
%TO.P,REF\u002A\u002A20,2*%
%TO.N,K0*%
X37300000Y-81550000D03*
%TD*%
D14*
%TO.N,K0*%
X8000000Y-61000000D03*
X-3000000Y-67000000D03*
%TO.N,A0*%
X3000000Y-62000000D03*
%TO.N,K1*%
X-3000000Y-68000000D03*
X8000000Y-65500000D03*
%TO.N,A1*%
X2000000Y-66100000D03*
%TO.N,K2*%
X-3000000Y-69000000D03*
X8000000Y-70500000D03*
%TO.N,A2*%
X8000000Y-73000000D03*
%TO.N,K3*%
X8000000Y-75500000D03*
X-3000000Y-70000000D03*
%TO.N,A3*%
X8600000Y-78000000D03*
%TO.N,K4*%
X-3000000Y-72500000D03*
X8000000Y-80500000D03*
%TO.N,A4*%
X8000000Y-82500000D03*
%TO.N,K5*%
X8000000Y-85500000D03*
X-3000000Y-73500000D03*
%TO.N,A5*%
X8000000Y-88000000D03*
%TO.N,K6*%
X8000000Y-90500000D03*
X-2972776Y-74527224D03*
%TO.N,A6*%
X8000000Y-93000000D03*
%TO.N,K7*%
X8000000Y-95500000D03*
X-3000000Y-75500000D03*
%TO.N,A7*%
X2500000Y-90500000D03*
%TD*%
D15*
%TO.N,K0*%
X-3000000Y-67000000D02*
X3000000Y-61000000D01*
X11134200Y-61000000D02*
X32334200Y-82200000D01*
X3000000Y-61000000D02*
X8000000Y-61000000D01*
X32334200Y-82200000D02*
X36650000Y-82200000D01*
X8000000Y-61000000D02*
X11134200Y-61000000D01*
X36650000Y-82200000D02*
X37300000Y-81550000D01*
%TO.N,A0*%
X33267100Y-83700000D02*
X36450000Y-83700000D01*
X36450000Y-83700000D02*
X37300000Y-84550000D01*
X3000000Y-62000000D02*
X11567100Y-62000000D01*
X11567100Y-62000000D02*
X33267100Y-83700000D01*
%TO.N,K1*%
X14500000Y-65500000D02*
X8000000Y-65500000D01*
X83250000Y-82200000D02*
X79850000Y-85600000D01*
X-3000000Y-68000000D02*
X-500000Y-65500000D01*
X85400000Y-82200000D02*
X86100000Y-81500000D01*
X-500000Y-65500000D02*
X8000000Y-65500000D01*
X83250000Y-82200000D02*
X85400000Y-82200000D01*
X79850000Y-85600000D02*
X34600000Y-85600000D01*
X34600000Y-85600000D02*
X14500000Y-65500000D01*
%TO.N,A1*%
X80949000Y-86001000D02*
X34433900Y-86001000D01*
X82450000Y-84500000D02*
X80949000Y-86001000D01*
X34433900Y-86001000D02*
X14532900Y-66100000D01*
X86100000Y-84500000D02*
X82450000Y-84500000D01*
X14532900Y-66100000D02*
X2000000Y-66100000D01*
%TO.N,K2*%
X134125000Y-82275000D02*
X134900000Y-81500000D01*
X131975000Y-82275000D02*
X134125000Y-82275000D01*
X34267800Y-86402000D02*
X127848000Y-86402000D01*
X-1500000Y-70500000D02*
X8000000Y-70500000D01*
X-3000000Y-69000000D02*
X-1500000Y-70500000D01*
X131675000Y-82575000D02*
X131975000Y-82275000D01*
X127848000Y-86402000D02*
X131675000Y-82575000D01*
X8000000Y-70500000D02*
X18365800Y-70500000D01*
X18365800Y-70500000D02*
X34267800Y-86402000D01*
%TO.N,A2*%
X34101700Y-86803000D02*
X128947000Y-86803000D01*
X131250000Y-84500000D02*
X134900000Y-84500000D01*
X20298700Y-73000000D02*
X34101700Y-86803000D01*
X128947000Y-86803000D02*
X131250000Y-84500000D01*
X8000000Y-73000000D02*
X20298700Y-73000000D01*
%TO.N,K3*%
X-3000000Y-70000000D02*
X-1500000Y-71500000D01*
X-1500000Y-71500000D02*
X4000000Y-71500000D01*
X4000000Y-71500000D02*
X8000000Y-75500000D01*
X33935600Y-87204000D02*
X175846000Y-87204000D01*
X22231600Y-75500000D02*
X33935600Y-87204000D01*
X181550000Y-81500000D02*
X183700000Y-81500000D01*
X175846000Y-87204000D02*
X181550000Y-81500000D01*
X8000000Y-75500000D02*
X22231600Y-75500000D01*
%TO.N,A3*%
X179117100Y-84500000D02*
X179083550Y-84533550D01*
X179083550Y-84533550D02*
X176012100Y-87605000D01*
X33769500Y-87605000D02*
X32332250Y-86167750D01*
X176012100Y-87605000D02*
X175500000Y-87605000D01*
X24164500Y-78000000D02*
X8600000Y-78000000D01*
X175500000Y-87605000D02*
X33769500Y-87605000D01*
X32332250Y-86167750D02*
X30082250Y-83917750D01*
X183700000Y-84500000D02*
X179117100Y-84500000D01*
X30082250Y-83917750D02*
X26082250Y-79917750D01*
X26082250Y-79917750D02*
X24164500Y-78000000D01*
%TO.N,K4*%
X8000000Y-78000000D02*
X8000000Y-80500000D01*
X230350000Y-81500000D02*
X223844000Y-88006000D01*
X-3000000Y-72500000D02*
X2500000Y-72500000D01*
X33603400Y-88006000D02*
X26097400Y-80500000D01*
X232500000Y-81500000D02*
X230350000Y-81500000D01*
X223844000Y-88006000D02*
X33603400Y-88006000D01*
X2500000Y-72500000D02*
X8000000Y-78000000D01*
X26097400Y-80500000D02*
X8000000Y-80500000D01*
%TO.N,A4*%
X228850000Y-84500000D02*
X232500000Y-84500000D01*
X8000000Y-82500000D02*
X27530300Y-82500000D01*
X224943000Y-88407000D02*
X228850000Y-84500000D01*
X27530300Y-82500000D02*
X33437300Y-88407000D01*
X33437300Y-88407000D02*
X224943000Y-88407000D01*
%TO.N,K5*%
X33271200Y-88808000D02*
X271842000Y-88808000D01*
X2333900Y-72901000D02*
X5216450Y-75783550D01*
X-2401000Y-72901000D02*
X2333900Y-72901000D01*
X29963200Y-85500000D02*
X33271200Y-88808000D01*
X271842000Y-88808000D02*
X279150000Y-81500000D01*
X8000000Y-85500000D02*
X29963200Y-85500000D01*
X279150000Y-81500000D02*
X281300000Y-81500000D01*
X-3000000Y-73500000D02*
X-2401000Y-72901000D01*
X5216450Y-82716450D02*
X8000000Y-85500000D01*
X5216450Y-75783550D02*
X5216450Y-82716450D01*
%TO.N,A5*%
X281300000Y-84500000D02*
X277500000Y-84500000D01*
X31896100Y-88000000D02*
X8000000Y-88000000D01*
X272791000Y-89209000D02*
X271000000Y-89209000D01*
X32198050Y-88301950D02*
X31896100Y-88000000D01*
X33105100Y-89209000D02*
X32198050Y-88301950D01*
X277500000Y-84500000D02*
X277475000Y-84525000D01*
X277475000Y-84525000D02*
X272791000Y-89209000D01*
X271000000Y-89209000D02*
X33105100Y-89209000D01*
%TO.N,K6*%
X4815450Y-75949650D02*
X4815450Y-87315450D01*
X12000000Y-90500000D02*
X12890000Y-89610000D01*
X-2972776Y-74472776D02*
X-1802000Y-73302000D01*
X-1802000Y-73302000D02*
X2167800Y-73302000D01*
X12890000Y-89610000D02*
X319840000Y-89610000D01*
X-2972776Y-74527224D02*
X-2972776Y-74472776D01*
X327950000Y-81500000D02*
X330100000Y-81500000D01*
X2167800Y-73302000D02*
X4815450Y-75949650D01*
X319840000Y-89610000D02*
X327950000Y-81500000D01*
X4815450Y-87315450D02*
X8000000Y-90500000D01*
X8000000Y-90500000D02*
X12000000Y-90500000D01*
%TO.N,A6*%
X320939000Y-90011000D02*
X318000000Y-90011000D01*
X33000000Y-90011000D02*
X30011000Y-93000000D01*
X326450000Y-84500000D02*
X326375000Y-84575000D01*
X318000000Y-90011000D02*
X38500000Y-90011000D01*
X330100000Y-84500000D02*
X326450000Y-84500000D01*
X30011000Y-93000000D02*
X8000000Y-93000000D01*
X38500000Y-90011000D02*
X33000000Y-90011000D01*
X326375000Y-84575000D02*
X320939000Y-90011000D01*
%TO.N,K7*%
X367838000Y-90412000D02*
X33166100Y-90412000D01*
X376750000Y-81500000D02*
X367838000Y-90412000D01*
X-1500000Y-77000000D02*
X-1500000Y-79500000D01*
X33166100Y-90412000D02*
X28078100Y-95500000D01*
X378900000Y-81500000D02*
X376750000Y-81500000D01*
X-1500000Y-79500000D02*
X4414450Y-85414450D01*
X-3000000Y-75500000D02*
X-1500000Y-77000000D01*
X4414450Y-85414450D02*
X4414450Y-91914450D01*
X4414450Y-91914450D02*
X8000000Y-95500000D01*
X28078100Y-95500000D02*
X8000000Y-95500000D01*
%TO.N,A7*%
X32072600Y-92072600D02*
X28044200Y-96101000D01*
X33332200Y-90813000D02*
X32072600Y-92072600D01*
X7751057Y-96101000D02*
X2500000Y-90849943D01*
X368937000Y-90813000D02*
X367500000Y-90813000D01*
X375250000Y-84500000D02*
X374800000Y-84950000D01*
X378900000Y-84500000D02*
X375250000Y-84500000D01*
X35000000Y-90813000D02*
X33332200Y-90813000D01*
X28044200Y-96101000D02*
X7751057Y-96101000D01*
X367500000Y-90813000D02*
X35000000Y-90813000D01*
X374800000Y-84950000D02*
X368937000Y-90813000D01*
X2500000Y-90849943D02*
X2500000Y-90500000D01*
%TD*%
%TA.AperFunction,Conductor*%
%TO.N,GND*%
G36*
X412742539Y-59120185D02*
G01*
X412788294Y-59172989D01*
X412799500Y-59224500D01*
X412799500Y-106775500D01*
X412779815Y-106842539D01*
X412727011Y-106888294D01*
X412675500Y-106899500D01*
X-6475500Y-106899500D01*
X-6542539Y-106879815D01*
X-6588294Y-106827011D01*
X-6599500Y-106775500D01*
X-6599500Y-101362332D01*
X4399500Y-101362332D01*
X4399500Y-101637667D01*
X4399501Y-101637684D01*
X4435438Y-101910655D01*
X4435439Y-101910660D01*
X4435440Y-101910666D01*
X4435441Y-101910668D01*
X4506704Y-102176630D01*
X4612075Y-102431017D01*
X4612080Y-102431028D01*
X4691809Y-102569121D01*
X4749751Y-102669479D01*
X4749753Y-102669482D01*
X4749754Y-102669483D01*
X4917370Y-102887926D01*
X4917376Y-102887933D01*
X5112066Y-103082623D01*
X5112072Y-103082628D01*
X5330521Y-103250249D01*
X5483778Y-103338732D01*
X5568971Y-103387919D01*
X5568976Y-103387921D01*
X5568979Y-103387923D01*
X5823368Y-103493295D01*
X6089334Y-103564560D01*
X6362326Y-103600500D01*
X6362333Y-103600500D01*
X6637667Y-103600500D01*
X6637674Y-103600500D01*
X6910666Y-103564560D01*
X7176632Y-103493295D01*
X7431021Y-103387923D01*
X7669479Y-103250249D01*
X7887928Y-103082628D01*
X8082628Y-102887928D01*
X8250249Y-102669479D01*
X8387923Y-102431021D01*
X8493295Y-102176632D01*
X8564560Y-101910666D01*
X8600500Y-101637674D01*
X8600500Y-101362326D01*
X8564560Y-101089334D01*
X8493295Y-100823368D01*
X8387923Y-100568979D01*
X8387921Y-100568976D01*
X8387919Y-100568971D01*
X8338732Y-100483778D01*
X8250249Y-100330521D01*
X8082628Y-100112072D01*
X8082623Y-100112066D01*
X7887933Y-99917376D01*
X7887926Y-99917370D01*
X7669483Y-99749754D01*
X7669482Y-99749753D01*
X7669479Y-99749751D01*
X7574407Y-99694861D01*
X7431028Y-99612080D01*
X7431017Y-99612075D01*
X7176630Y-99506704D01*
X7043649Y-99471072D01*
X6910666Y-99435440D01*
X6910660Y-99435439D01*
X6910655Y-99435438D01*
X6637684Y-99399501D01*
X6637679Y-99399500D01*
X6637674Y-99399500D01*
X6362326Y-99399500D01*
X6362320Y-99399500D01*
X6362315Y-99399501D01*
X6089344Y-99435438D01*
X6089337Y-99435439D01*
X6089334Y-99435440D01*
X6033125Y-99450500D01*
X5823369Y-99506704D01*
X5568982Y-99612075D01*
X5568971Y-99612080D01*
X5330516Y-99749754D01*
X5112073Y-99917370D01*
X5112066Y-99917376D01*
X4917376Y-100112066D01*
X4917370Y-100112073D01*
X4749754Y-100330516D01*
X4612080Y-100568971D01*
X4612075Y-100568982D01*
X4506704Y-100823369D01*
X4435441Y-101089331D01*
X4435438Y-101089344D01*
X4399501Y-101362315D01*
X4399500Y-101362332D01*
X-6599500Y-101362332D01*
X-6599500Y-95393713D01*
X-4475500Y-95393713D01*
X-4475500Y-95606287D01*
X-4442246Y-95816243D01*
X-4376557Y-96018412D01*
X-4280051Y-96207816D01*
X-4280048Y-96207820D01*
X-4155109Y-96379786D01*
X-4155106Y-96379788D01*
X-4155104Y-96379792D01*
X-4004792Y-96530104D01*
X-3840204Y-96649683D01*
X-3797540Y-96705011D01*
X-3791561Y-96774624D01*
X-3824166Y-96836420D01*
X-3840199Y-96850313D01*
X-4004784Y-96969890D01*
X-4004792Y-96969896D01*
X-4155109Y-97120213D01*
X-4280048Y-97292179D01*
X-4280049Y-97292181D01*
X-4280051Y-97292184D01*
X-4376557Y-97481588D01*
X-4442246Y-97683757D01*
X-4475500Y-97893713D01*
X-4475500Y-98106287D01*
X-4442246Y-98316243D01*
X-4376557Y-98518412D01*
X-4280051Y-98707816D01*
X-4280048Y-98707820D01*
X-4155109Y-98879786D01*
X-4155106Y-98879788D01*
X-4155104Y-98879792D01*
X-4004792Y-99030104D01*
X-4004788Y-99030106D01*
X-4004786Y-99030109D01*
X-3854789Y-99139086D01*
X-3832816Y-99155051D01*
X-3643412Y-99251557D01*
X-3441243Y-99317246D01*
X-3231287Y-99350500D01*
X-3231286Y-99350500D01*
X-2768714Y-99350500D01*
X-2768713Y-99350500D01*
X-2558757Y-99317246D01*
X-2356588Y-99251557D01*
X-2167184Y-99155051D01*
X-2167181Y-99155049D01*
X-2167179Y-99155048D01*
X-1995213Y-99030109D01*
X-1844890Y-98879786D01*
X-1719951Y-98707820D01*
X-1623444Y-98518414D01*
X-1557753Y-98316239D01*
X-1524500Y-98106286D01*
X-1524500Y-97893713D01*
X-1557753Y-97683760D01*
X-1623444Y-97481585D01*
X-1719951Y-97292179D01*
X-1844890Y-97120213D01*
X-1995209Y-96969894D01*
X-1995214Y-96969890D01*
X-2159793Y-96850318D01*
X-2202459Y-96794989D01*
X-2208438Y-96725375D01*
X-2175833Y-96663580D01*
X-2159793Y-96649682D01*
X-1995214Y-96530109D01*
X-1995209Y-96530105D01*
X-1844890Y-96379786D01*
X-1719951Y-96207820D01*
X-1623444Y-96018414D01*
X-1557753Y-95816239D01*
X-1524500Y-95606286D01*
X-1524500Y-95393713D01*
X-1557753Y-95183760D01*
X-1623444Y-94981585D01*
X-1719951Y-94792179D01*
X-1844889Y-94620215D01*
X-1984069Y-94481035D01*
X-2017553Y-94419712D01*
X-2012569Y-94350020D01*
X-1970697Y-94294087D01*
X-1961484Y-94287815D01*
X-1806654Y-94192315D01*
X-1682684Y-94068345D01*
X-1590643Y-93919124D01*
X-1590641Y-93919119D01*
X-1535494Y-93752697D01*
X-1535493Y-93752690D01*
X-1525000Y-93649986D01*
X-1525000Y-93250000D01*
X-2595854Y-93250000D01*
X-2557370Y-93183343D01*
X-2525000Y-93062535D01*
X-2525000Y-92937465D01*
X-2557370Y-92816657D01*
X-2595854Y-92750000D01*
X-1525001Y-92750000D01*
X-1525001Y-92350013D01*
X-1535494Y-92247302D01*
X-1590641Y-92080880D01*
X-1590643Y-92080875D01*
X-1682684Y-91931654D01*
X-1806654Y-91807684D01*
X-1955875Y-91715643D01*
X-1955880Y-91715641D01*
X-2122302Y-91660494D01*
X-2122309Y-91660493D01*
X-2225013Y-91650000D01*
X-2750000Y-91650000D01*
X-2750000Y-92595854D01*
X-2816657Y-92557370D01*
X-2937465Y-92525000D01*
X-3062535Y-92525000D01*
X-3183343Y-92557370D01*
X-3250000Y-92595854D01*
X-3250000Y-91650000D01*
X-3774971Y-91650000D01*
X-3774987Y-91650001D01*
X-3877697Y-91660494D01*
X-4044119Y-91715641D01*
X-4044124Y-91715643D01*
X-4193345Y-91807684D01*
X-4317315Y-91931654D01*
X-4409356Y-92080875D01*
X-4409358Y-92080880D01*
X-4464505Y-92247302D01*
X-4464506Y-92247309D01*
X-4474999Y-92350013D01*
X-4475000Y-92350026D01*
X-4475000Y-92750000D01*
X-3404146Y-92750000D01*
X-3442630Y-92816657D01*
X-3475000Y-92937465D01*
X-3475000Y-93062535D01*
X-3442630Y-93183343D01*
X-3404146Y-93250000D01*
X-4474999Y-93250000D01*
X-4474999Y-93649971D01*
X-4474998Y-93649986D01*
X-4464505Y-93752697D01*
X-4409358Y-93919119D01*
X-4409356Y-93919124D01*
X-4317315Y-94068345D01*
X-4193343Y-94192317D01*
X-4038516Y-94287815D01*
X-3991791Y-94339763D01*
X-3980568Y-94408725D01*
X-4008412Y-94472808D01*
X-4015931Y-94481035D01*
X-4155109Y-94620213D01*
X-4280048Y-94792179D01*
X-4280049Y-94792181D01*
X-4280051Y-94792184D01*
X-4376557Y-94981588D01*
X-4442246Y-95183757D01*
X-4475500Y-95393713D01*
X-6599500Y-95393713D01*
X-6599500Y-65912786D01*
X-5085500Y-65912786D01*
X-5085500Y-66087214D01*
X-5051471Y-66258291D01*
X-4984720Y-66419442D01*
X-4887813Y-66564474D01*
X-4764474Y-66687813D01*
X-4619442Y-66784720D01*
X-4458291Y-66851471D01*
X-4287216Y-66885499D01*
X-4287215Y-66885500D01*
X-4287214Y-66885500D01*
X-4112785Y-66885500D01*
X-4112783Y-66885499D01*
X-4031335Y-66869298D01*
X-3948691Y-66852860D01*
X-3879100Y-66859087D01*
X-3823922Y-66901950D01*
X-3800678Y-66967840D01*
X-3800500Y-66974477D01*
X-3800500Y-67078842D01*
X-3769737Y-67233497D01*
X-3709394Y-67379179D01*
X-3674694Y-67431110D01*
X-3653816Y-67497785D01*
X-3672300Y-67565165D01*
X-3674676Y-67568863D01*
X-3709394Y-67620821D01*
X-3769737Y-67766503D01*
X-3769738Y-67766510D01*
X-3800499Y-67921153D01*
X-3800500Y-67921155D01*
X-3800500Y-67921158D01*
X-3800500Y-68078842D01*
X-3769737Y-68233497D01*
X-3709394Y-68379179D01*
X-3674695Y-68431109D01*
X-3653816Y-68497785D01*
X-3672300Y-68565165D01*
X-3674676Y-68568863D01*
X-3709394Y-68620821D01*
X-3709394Y-68620822D01*
X-3709396Y-68620825D01*
X-3769735Y-68766498D01*
X-3769737Y-68766503D01*
X-3769738Y-68766508D01*
X-3769738Y-68766510D01*
X-3800499Y-68921153D01*
X-3800500Y-68921155D01*
X-3800500Y-68921158D01*
X-3800500Y-69078842D01*
X-3769737Y-69233497D01*
X-3709394Y-69379179D01*
X-3674694Y-69431110D01*
X-3653816Y-69497785D01*
X-3672300Y-69565165D01*
X-3674676Y-69568863D01*
X-3709394Y-69620821D01*
X-3709394Y-69620822D01*
X-3709396Y-69620825D01*
X-3762546Y-69749142D01*
X-3769737Y-69766503D01*
X-3791272Y-69874767D01*
X-3800499Y-69921153D01*
X-3800500Y-69921155D01*
X-3800500Y-69921158D01*
X-3800500Y-70078842D01*
X-3769737Y-70233497D01*
X-3709394Y-70379179D01*
X-3621789Y-70510289D01*
X-3510289Y-70621789D01*
X-3379179Y-70709394D01*
X-3233497Y-70769737D01*
X-3136085Y-70789113D01*
X-3078150Y-70800638D01*
X-3016239Y-70833023D01*
X-3014714Y-70834520D01*
X-2161415Y-71687819D01*
X-2150802Y-71707255D01*
X-2136302Y-71723989D01*
X-2134385Y-71737320D01*
X-2127930Y-71749142D01*
X-2129509Y-71771228D01*
X-2126358Y-71793147D01*
X-2131953Y-71805398D01*
X-2132914Y-71818834D01*
X-2146184Y-71836560D01*
X-2155383Y-71856703D01*
X-2166714Y-71863985D01*
X-2174786Y-71874767D01*
X-2195531Y-71882504D01*
X-2214161Y-71894477D01*
X-2236079Y-71897628D01*
X-2240250Y-71899184D01*
X-2249096Y-71899500D01*
X-2420234Y-71899500D01*
X-2487273Y-71879815D01*
X-2489125Y-71878602D01*
X-2620814Y-71790609D01*
X-2620827Y-71790602D01*
X-2766498Y-71730264D01*
X-2766510Y-71730261D01*
X-2921155Y-71699500D01*
X-2921158Y-71699500D01*
X-3078842Y-71699500D01*
X-3078845Y-71699500D01*
X-3233489Y-71730261D01*
X-3233501Y-71730264D01*
X-3379172Y-71790602D01*
X-3379185Y-71790609D01*
X-3510288Y-71878210D01*
X-3510292Y-71878213D01*
X-3621786Y-71989707D01*
X-3621789Y-71989711D01*
X-3709390Y-72120814D01*
X-3709397Y-72120827D01*
X-3762546Y-72249142D01*
X-3769737Y-72266503D01*
X-3774531Y-72290606D01*
X-3800499Y-72421153D01*
X-3800500Y-72421155D01*
X-3800500Y-72421158D01*
X-3800500Y-72578842D01*
X-3769737Y-72733497D01*
X-3709394Y-72879179D01*
X-3674694Y-72931110D01*
X-3653816Y-72997785D01*
X-3672300Y-73065165D01*
X-3674676Y-73068863D01*
X-3709394Y-73120821D01*
X-3769737Y-73266503D01*
X-3769738Y-73266510D01*
X-3800499Y-73421153D01*
X-3800500Y-73421155D01*
X-3800500Y-73421158D01*
X-3800500Y-73578842D01*
X-3769737Y-73733497D01*
X-3709394Y-73879179D01*
X-3709390Y-73879184D01*
X-3709389Y-73879187D01*
X-3651989Y-73965091D01*
X-3631110Y-74031768D01*
X-3649594Y-74099149D01*
X-3651988Y-74102874D01*
X-3682170Y-74148045D01*
X-3682171Y-74148047D01*
X-3682173Y-74148051D01*
X-3742511Y-74293722D01*
X-3742513Y-74293727D01*
X-3742514Y-74293734D01*
X-3773275Y-74448377D01*
X-3773276Y-74448379D01*
X-3773276Y-74448382D01*
X-3773276Y-74606066D01*
X-3742513Y-74760721D01*
X-3682170Y-74906403D01*
X-3682165Y-74906410D01*
X-3670180Y-74924348D01*
X-3649301Y-74991025D01*
X-3667785Y-75058405D01*
X-3670179Y-75062131D01*
X-3709390Y-75120814D01*
X-3709397Y-75120827D01*
X-3709397Y-75120828D01*
X-3769737Y-75266503D01*
X-3769738Y-75266508D01*
X-3769738Y-75266510D01*
X-3800499Y-75421153D01*
X-3800500Y-75421155D01*
X-3800500Y-75421158D01*
X-3800500Y-75578842D01*
X-3769737Y-75733497D01*
X-3709394Y-75879179D01*
X-3621789Y-76010289D01*
X-3510289Y-76121789D01*
X-3379179Y-76209394D01*
X-3233497Y-76269737D01*
X-3136085Y-76289113D01*
X-3078150Y-76300638D01*
X-3016239Y-76333023D01*
X-3014716Y-76334518D01*
X-2506426Y-76842809D01*
X-2136819Y-77212416D01*
X-2103334Y-77273739D01*
X-2100500Y-77300097D01*
X-2100500Y-77704641D01*
X-2120185Y-77771680D01*
X-2172989Y-77817435D01*
X-2242147Y-77827379D01*
X-2274572Y-77816748D01*
X-2274930Y-77817611D01*
X-2441708Y-77748529D01*
X-2441716Y-77748527D01*
X-2612781Y-77714500D01*
X-2612786Y-77714500D01*
X-2787214Y-77714500D01*
X-2787218Y-77714500D01*
X-2958283Y-77748527D01*
X-2958291Y-77748529D01*
X-3119439Y-77815278D01*
X-3119448Y-77815283D01*
X-3264473Y-77912186D01*
X-3264477Y-77912189D01*
X-3387810Y-78035522D01*
X-3387813Y-78035526D01*
X-3484716Y-78180551D01*
X-3484719Y-78180557D01*
X-3484720Y-78180558D01*
X-3551471Y-78341709D01*
X-3585500Y-78512786D01*
X-3585500Y-78687214D01*
X-3551471Y-78858291D01*
X-3484720Y-79019442D01*
X-3484716Y-79019447D01*
X-3484716Y-79019448D01*
X-3391136Y-79159501D01*
X-3370258Y-79226179D01*
X-3388743Y-79293559D01*
X-3440721Y-79340249D01*
X-3446785Y-79342953D01*
X-3484745Y-79358676D01*
X-3484762Y-79358685D01*
X-3685743Y-79474720D01*
X-3685745Y-79474721D01*
X-3869875Y-79616009D01*
X-3869882Y-79616015D01*
X-4033984Y-79780117D01*
X-4033990Y-79780124D01*
X-4175278Y-79964254D01*
X-4175279Y-79964256D01*
X-4265674Y-80120827D01*
X-4291320Y-80165248D01*
X-4380137Y-80379670D01*
X-4440206Y-80603851D01*
X-4463801Y-80783070D01*
X-4470383Y-80833070D01*
X-4470500Y-80833955D01*
X-4470500Y-81066045D01*
X-4440206Y-81296149D01*
X-4380137Y-81520330D01*
X-4291320Y-81734752D01*
X-4249203Y-81807701D01*
X-4182957Y-81922445D01*
X-4175276Y-81935748D01*
X-4033989Y-82119877D01*
X-3869877Y-82283989D01*
X-3685748Y-82425276D01*
X-3685745Y-82425278D01*
X-3685743Y-82425279D01*
X-3618749Y-82463957D01*
X-3484752Y-82541320D01*
X-3270330Y-82630137D01*
X-3046149Y-82690206D01*
X-2816045Y-82720500D01*
X-2816038Y-82720500D01*
X-2583962Y-82720500D01*
X-2583955Y-82720500D01*
X-2353851Y-82690206D01*
X-2129670Y-82630137D01*
X-1915248Y-82541320D01*
X-1915240Y-82541315D01*
X-1915237Y-82541314D01*
X-1714256Y-82425279D01*
X-1714254Y-82425278D01*
X-1530124Y-82283990D01*
X-1530117Y-82283984D01*
X-1366015Y-82119882D01*
X-1366009Y-82119875D01*
X-1224721Y-81935745D01*
X-1224720Y-81935743D01*
X-1108685Y-81734762D01*
X-1108677Y-81734745D01*
X-1019862Y-81520328D01*
X-960960Y-81300499D01*
X-959794Y-81296149D01*
X-945299Y-81186050D01*
X-917032Y-81122154D01*
X-858708Y-81083683D01*
X-788843Y-81082852D01*
X-734681Y-81114553D01*
X1550265Y-83399500D01*
X3777631Y-85626866D01*
X3811116Y-85688189D01*
X3813950Y-85714547D01*
X3813950Y-91015296D01*
X3794265Y-91082335D01*
X3741461Y-91128090D01*
X3672303Y-91138034D01*
X3608747Y-91109009D01*
X3602269Y-91102977D01*
X3310473Y-90811181D01*
X3276988Y-90749858D01*
X3276537Y-90699311D01*
X3291495Y-90624110D01*
X3300500Y-90578844D01*
X3300500Y-90421155D01*
X3300499Y-90421153D01*
X3269738Y-90266510D01*
X3269737Y-90266503D01*
X3246540Y-90210500D01*
X3209397Y-90120827D01*
X3209390Y-90120814D01*
X3121789Y-89989711D01*
X3121786Y-89989707D01*
X3010292Y-89878213D01*
X3010288Y-89878210D01*
X2879185Y-89790609D01*
X2879172Y-89790602D01*
X2733501Y-89730264D01*
X2733489Y-89730261D01*
X2578845Y-89699500D01*
X2578842Y-89699500D01*
X2421158Y-89699500D01*
X2421155Y-89699500D01*
X2266510Y-89730261D01*
X2266498Y-89730264D01*
X2120827Y-89790602D01*
X2120814Y-89790609D01*
X1989711Y-89878210D01*
X1989707Y-89878213D01*
X1878213Y-89989707D01*
X1878210Y-89989711D01*
X1790609Y-90120814D01*
X1790602Y-90120827D01*
X1730264Y-90266498D01*
X1730261Y-90266510D01*
X1699500Y-90421153D01*
X1699500Y-90578846D01*
X1730261Y-90733489D01*
X1730264Y-90733501D01*
X1790602Y-90879172D01*
X1790609Y-90879185D01*
X1878210Y-91010288D01*
X1878213Y-91010292D01*
X1916456Y-91048534D01*
X1936232Y-91074336D01*
X1940365Y-91081514D01*
X1940423Y-91081728D01*
X1965696Y-91125501D01*
X1992259Y-91171511D01*
X2019479Y-91218657D01*
X2019481Y-91218660D01*
X2138349Y-91337528D01*
X2138355Y-91337533D01*
X7266196Y-96465374D01*
X7266206Y-96465385D01*
X7270536Y-96469715D01*
X7270537Y-96469716D01*
X7382341Y-96581520D01*
X7469152Y-96631639D01*
X7469154Y-96631641D01*
X7500400Y-96649681D01*
X7519272Y-96660577D01*
X7672000Y-96701501D01*
X7672003Y-96701501D01*
X7837710Y-96701501D01*
X7837726Y-96701500D01*
X27957531Y-96701500D01*
X27957547Y-96701501D01*
X27965143Y-96701501D01*
X28123254Y-96701501D01*
X28123257Y-96701501D01*
X28275985Y-96660577D01*
X28326104Y-96631639D01*
X28412916Y-96581520D01*
X28524720Y-96469716D01*
X28524720Y-96469714D01*
X28534928Y-96459507D01*
X28534929Y-96459504D01*
X32553119Y-92441316D01*
X33544616Y-91449819D01*
X33605939Y-91416334D01*
X33632297Y-91413500D01*
X34920943Y-91413500D01*
X367420943Y-91413500D01*
X368850331Y-91413500D01*
X368850347Y-91413501D01*
X368857943Y-91413501D01*
X369016054Y-91413501D01*
X369016057Y-91413501D01*
X369168785Y-91372577D01*
X369241728Y-91330463D01*
X369269104Y-91314658D01*
X369305709Y-91293524D01*
X369305708Y-91293524D01*
X369305716Y-91293520D01*
X369417520Y-91181716D01*
X369417520Y-91181714D01*
X369427724Y-91171511D01*
X369427727Y-91171506D01*
X375280519Y-85318716D01*
X375462416Y-85136819D01*
X375523739Y-85103334D01*
X375550097Y-85100500D01*
X377912815Y-85100500D01*
X377979854Y-85120185D01*
X378013131Y-85151612D01*
X378060586Y-85216928D01*
X378183072Y-85339414D01*
X378323212Y-85441232D01*
X378477555Y-85519873D01*
X378642299Y-85573402D01*
X378813389Y-85600500D01*
X378813390Y-85600500D01*
X378986610Y-85600500D01*
X378986611Y-85600500D01*
X379157701Y-85573402D01*
X379322445Y-85519873D01*
X379476788Y-85441232D01*
X379616928Y-85339414D01*
X379739414Y-85216928D01*
X379841232Y-85076788D01*
X379919873Y-84922445D01*
X379973402Y-84757701D01*
X380000500Y-84586611D01*
X380000500Y-84413389D01*
X379973402Y-84242299D01*
X379919873Y-84077555D01*
X379841232Y-83923212D01*
X379739414Y-83783072D01*
X379616928Y-83660586D01*
X379476788Y-83558768D01*
X379322445Y-83480127D01*
X379157701Y-83426598D01*
X379157699Y-83426597D01*
X379157698Y-83426597D01*
X379026271Y-83405781D01*
X378986611Y-83399500D01*
X378813389Y-83399500D01*
X378773728Y-83405781D01*
X378642302Y-83426597D01*
X378477552Y-83480128D01*
X378323211Y-83558768D01*
X378254393Y-83608768D01*
X378183072Y-83660586D01*
X378183070Y-83660588D01*
X378183069Y-83660588D01*
X378060588Y-83783069D01*
X378060588Y-83783070D01*
X378060586Y-83783072D01*
X378024259Y-83833072D01*
X378013133Y-83848386D01*
X377957803Y-83891051D01*
X377912815Y-83899500D01*
X375499097Y-83899500D01*
X375432058Y-83879815D01*
X375386303Y-83827011D01*
X375376359Y-83757853D01*
X375405384Y-83694297D01*
X375411416Y-83687819D01*
X376236903Y-82862332D01*
X406199500Y-82862332D01*
X406199500Y-83137667D01*
X406199501Y-83137684D01*
X406235438Y-83410655D01*
X406235439Y-83410660D01*
X406235440Y-83410666D01*
X406254052Y-83480127D01*
X406306704Y-83676630D01*
X406412075Y-83931017D01*
X406412080Y-83931028D01*
X406489168Y-84064547D01*
X406549751Y-84169479D01*
X406549753Y-84169482D01*
X406549754Y-84169483D01*
X406717370Y-84387926D01*
X406717376Y-84387933D01*
X406912066Y-84582623D01*
X406912073Y-84582629D01*
X406982423Y-84636610D01*
X407130521Y-84750249D01*
X407249314Y-84818834D01*
X407368971Y-84887919D01*
X407368976Y-84887921D01*
X407368979Y-84887923D01*
X407623368Y-84993295D01*
X407889334Y-85064560D01*
X408162326Y-85100500D01*
X408162333Y-85100500D01*
X408437667Y-85100500D01*
X408437674Y-85100500D01*
X408710666Y-85064560D01*
X408976632Y-84993295D01*
X409231021Y-84887923D01*
X409469479Y-84750249D01*
X409687928Y-84582628D01*
X409882628Y-84387928D01*
X410050249Y-84169479D01*
X410187923Y-83931021D01*
X410293295Y-83676632D01*
X410364560Y-83410666D01*
X410400500Y-83137674D01*
X410400500Y-82862326D01*
X410364560Y-82589334D01*
X410293295Y-82323368D01*
X410187923Y-82068979D01*
X410187921Y-82068976D01*
X410187919Y-82068971D01*
X410110999Y-81935743D01*
X410050249Y-81830521D01*
X409949714Y-81699500D01*
X409882629Y-81612073D01*
X409882623Y-81612066D01*
X409687933Y-81417376D01*
X409687926Y-81417370D01*
X409469483Y-81249754D01*
X409469482Y-81249753D01*
X409469479Y-81249751D01*
X409359146Y-81186050D01*
X409231028Y-81112080D01*
X409231017Y-81112075D01*
X408976630Y-81006704D01*
X408843649Y-80971072D01*
X408710666Y-80935440D01*
X408710660Y-80935439D01*
X408710655Y-80935438D01*
X408437684Y-80899501D01*
X408437679Y-80899500D01*
X408437674Y-80899500D01*
X408162326Y-80899500D01*
X408162320Y-80899500D01*
X408162315Y-80899501D01*
X407889344Y-80935438D01*
X407889337Y-80935439D01*
X407889334Y-80935440D01*
X407870730Y-80940425D01*
X407623369Y-81006704D01*
X407368982Y-81112075D01*
X407368971Y-81112080D01*
X407130516Y-81249754D01*
X406912073Y-81417370D01*
X406912066Y-81417376D01*
X406717376Y-81612066D01*
X406717370Y-81612073D01*
X406549754Y-81830516D01*
X406549751Y-81830520D01*
X406549751Y-81830521D01*
X406549309Y-81831286D01*
X406412080Y-82068971D01*
X406412075Y-82068982D01*
X406306704Y-82323369D01*
X406261726Y-82491231D01*
X406235563Y-82588877D01*
X406235441Y-82589331D01*
X406235438Y-82589344D01*
X406199501Y-82862315D01*
X406199500Y-82862332D01*
X376236903Y-82862332D01*
X376962416Y-82136819D01*
X377023739Y-82103334D01*
X377050097Y-82100500D01*
X377912815Y-82100500D01*
X377979854Y-82120185D01*
X378013131Y-82151612D01*
X378060586Y-82216928D01*
X378183072Y-82339414D01*
X378323212Y-82441232D01*
X378477555Y-82519873D01*
X378642299Y-82573402D01*
X378813389Y-82600500D01*
X378813390Y-82600500D01*
X378986610Y-82600500D01*
X378986611Y-82600500D01*
X379157701Y-82573402D01*
X379322445Y-82519873D01*
X379476788Y-82441232D01*
X379616928Y-82339414D01*
X379739414Y-82216928D01*
X379841232Y-82076788D01*
X379919873Y-81922445D01*
X379973402Y-81757701D01*
X380000500Y-81586611D01*
X380000500Y-81413389D01*
X379973402Y-81242299D01*
X379919873Y-81077555D01*
X379841232Y-80923212D01*
X379739414Y-80783072D01*
X379616928Y-80660586D01*
X379476788Y-80558768D01*
X379322445Y-80480127D01*
X379157701Y-80426598D01*
X379157699Y-80426597D01*
X379157698Y-80426597D01*
X379026271Y-80405781D01*
X378986611Y-80399500D01*
X378813389Y-80399500D01*
X378773728Y-80405781D01*
X378642302Y-80426597D01*
X378477552Y-80480128D01*
X378323211Y-80558768D01*
X378261161Y-80603851D01*
X378183072Y-80660586D01*
X378183070Y-80660588D01*
X378183069Y-80660588D01*
X378060588Y-80783069D01*
X378060588Y-80783070D01*
X378060586Y-80783072D01*
X378023613Y-80833961D01*
X378013133Y-80848386D01*
X377957803Y-80891051D01*
X377912815Y-80899500D01*
X376829057Y-80899500D01*
X376670942Y-80899500D01*
X376518215Y-80940423D01*
X376518214Y-80940423D01*
X376518212Y-80940424D01*
X376518209Y-80940425D01*
X376468096Y-80969359D01*
X376468095Y-80969360D01*
X376424689Y-80994420D01*
X376381285Y-81019479D01*
X376381282Y-81019481D01*
X376269478Y-81131286D01*
X367625584Y-89775181D01*
X367564261Y-89808666D01*
X367537903Y-89811500D01*
X322287097Y-89811500D01*
X322220058Y-89791815D01*
X322174303Y-89739011D01*
X322164359Y-89669853D01*
X322193384Y-89606297D01*
X322199416Y-89599819D01*
X326662416Y-85136819D01*
X326723739Y-85103334D01*
X326750097Y-85100500D01*
X329112815Y-85100500D01*
X329179854Y-85120185D01*
X329213131Y-85151612D01*
X329260586Y-85216928D01*
X329383072Y-85339414D01*
X329523212Y-85441232D01*
X329677555Y-85519873D01*
X329842299Y-85573402D01*
X330013389Y-85600500D01*
X330013390Y-85600500D01*
X330186610Y-85600500D01*
X330186611Y-85600500D01*
X330357701Y-85573402D01*
X330522445Y-85519873D01*
X330676788Y-85441232D01*
X330816928Y-85339414D01*
X330939414Y-85216928D01*
X331041232Y-85076788D01*
X331119873Y-84922445D01*
X331173402Y-84757701D01*
X331200500Y-84586611D01*
X331200500Y-84413389D01*
X331173402Y-84242299D01*
X331119873Y-84077555D01*
X331041232Y-83923212D01*
X330939414Y-83783072D01*
X330816928Y-83660586D01*
X330676788Y-83558768D01*
X330522445Y-83480127D01*
X330357701Y-83426598D01*
X330357699Y-83426597D01*
X330357698Y-83426597D01*
X330226271Y-83405781D01*
X330186611Y-83399500D01*
X330013389Y-83399500D01*
X329973728Y-83405781D01*
X329842302Y-83426597D01*
X329677552Y-83480128D01*
X329523211Y-83558768D01*
X329454393Y-83608768D01*
X329383072Y-83660586D01*
X329383070Y-83660588D01*
X329383069Y-83660588D01*
X329260588Y-83783069D01*
X329260588Y-83783070D01*
X329260586Y-83783072D01*
X329224259Y-83833072D01*
X329213133Y-83848386D01*
X329157803Y-83891051D01*
X329112815Y-83899500D01*
X326699097Y-83899500D01*
X326632058Y-83879815D01*
X326586303Y-83827011D01*
X326576359Y-83757853D01*
X326605384Y-83694297D01*
X326611416Y-83687819D01*
X328162416Y-82136819D01*
X328223739Y-82103334D01*
X328250097Y-82100500D01*
X329112815Y-82100500D01*
X329179854Y-82120185D01*
X329213131Y-82151612D01*
X329260586Y-82216928D01*
X329383072Y-82339414D01*
X329523212Y-82441232D01*
X329677555Y-82519873D01*
X329842299Y-82573402D01*
X330013389Y-82600500D01*
X330013390Y-82600500D01*
X330186610Y-82600500D01*
X330186611Y-82600500D01*
X330357701Y-82573402D01*
X330522445Y-82519873D01*
X330676788Y-82441232D01*
X330816928Y-82339414D01*
X330939414Y-82216928D01*
X331041232Y-82076788D01*
X331119873Y-81922445D01*
X331173402Y-81757701D01*
X331200500Y-81586611D01*
X331200500Y-81413389D01*
X331173402Y-81242299D01*
X331119873Y-81077555D01*
X331041232Y-80923212D01*
X330939414Y-80783072D01*
X330816928Y-80660586D01*
X330676788Y-80558768D01*
X330522445Y-80480127D01*
X330357701Y-80426598D01*
X330357699Y-80426597D01*
X330357698Y-80426597D01*
X330226271Y-80405781D01*
X330186611Y-80399500D01*
X330013389Y-80399500D01*
X329973728Y-80405781D01*
X329842302Y-80426597D01*
X329677552Y-80480128D01*
X329523211Y-80558768D01*
X329461161Y-80603851D01*
X329383072Y-80660586D01*
X329383070Y-80660588D01*
X329383069Y-80660588D01*
X329260588Y-80783069D01*
X329260588Y-80783070D01*
X329260586Y-80783072D01*
X329223613Y-80833961D01*
X329213133Y-80848386D01*
X329157803Y-80891051D01*
X329112815Y-80899500D01*
X328036669Y-80899500D01*
X328036653Y-80899499D01*
X328029057Y-80899499D01*
X327870943Y-80899499D01*
X327763587Y-80928265D01*
X327718210Y-80940424D01*
X327718209Y-80940425D01*
X327668096Y-80969359D01*
X327668095Y-80969360D01*
X327624689Y-80994420D01*
X327581285Y-81019479D01*
X327581282Y-81019481D01*
X327523212Y-81077552D01*
X327469480Y-81131284D01*
X327469478Y-81131286D01*
X323536204Y-85064561D01*
X319627584Y-88973181D01*
X319566261Y-89006666D01*
X319539903Y-89009500D01*
X274139097Y-89009500D01*
X274072058Y-88989815D01*
X274026303Y-88937011D01*
X274016359Y-88867853D01*
X274045384Y-88804297D01*
X274051416Y-88797819D01*
X277712416Y-85136819D01*
X277773739Y-85103334D01*
X277800097Y-85100500D01*
X280312815Y-85100500D01*
X280379854Y-85120185D01*
X280413131Y-85151612D01*
X280460586Y-85216928D01*
X280583072Y-85339414D01*
X280723212Y-85441232D01*
X280877555Y-85519873D01*
X281042299Y-85573402D01*
X281213389Y-85600500D01*
X281213390Y-85600500D01*
X281386610Y-85600500D01*
X281386611Y-85600500D01*
X281557701Y-85573402D01*
X281722445Y-85519873D01*
X281876788Y-85441232D01*
X282016928Y-85339414D01*
X282139414Y-85216928D01*
X282241232Y-85076788D01*
X282319873Y-84922445D01*
X282373402Y-84757701D01*
X282400500Y-84586611D01*
X282400500Y-84413389D01*
X282373402Y-84242299D01*
X282319873Y-84077555D01*
X282241232Y-83923212D01*
X282139414Y-83783072D01*
X282016928Y-83660586D01*
X281876788Y-83558768D01*
X281722445Y-83480127D01*
X281557701Y-83426598D01*
X281557699Y-83426597D01*
X281557698Y-83426597D01*
X281426271Y-83405781D01*
X281386611Y-83399500D01*
X281213389Y-83399500D01*
X281173728Y-83405781D01*
X281042302Y-83426597D01*
X280877552Y-83480128D01*
X280723211Y-83558768D01*
X280654393Y-83608768D01*
X280583072Y-83660586D01*
X280583070Y-83660588D01*
X280583069Y-83660588D01*
X280460588Y-83783069D01*
X280460588Y-83783070D01*
X280460586Y-83783072D01*
X280424259Y-83833072D01*
X280413133Y-83848386D01*
X280357803Y-83891051D01*
X280312815Y-83899500D01*
X277899098Y-83899500D01*
X277832059Y-83879815D01*
X277786304Y-83827011D01*
X277776360Y-83757853D01*
X277805385Y-83694297D01*
X277811417Y-83687819D01*
X279362417Y-82136819D01*
X279423740Y-82103334D01*
X279450098Y-82100500D01*
X280312815Y-82100500D01*
X280379854Y-82120185D01*
X280413131Y-82151612D01*
X280460586Y-82216928D01*
X280583072Y-82339414D01*
X280723212Y-82441232D01*
X280877555Y-82519873D01*
X281042299Y-82573402D01*
X281213389Y-82600500D01*
X281213390Y-82600500D01*
X281386610Y-82600500D01*
X281386611Y-82600500D01*
X281557701Y-82573402D01*
X281722445Y-82519873D01*
X281876788Y-82441232D01*
X282016928Y-82339414D01*
X282139414Y-82216928D01*
X282241232Y-82076788D01*
X282319873Y-81922445D01*
X282373402Y-81757701D01*
X282400500Y-81586611D01*
X282400500Y-81413389D01*
X282373402Y-81242299D01*
X282319873Y-81077555D01*
X282241232Y-80923212D01*
X282139414Y-80783072D01*
X282016928Y-80660586D01*
X281876788Y-80558768D01*
X281722445Y-80480127D01*
X281557701Y-80426598D01*
X281557699Y-80426597D01*
X281557698Y-80426597D01*
X281426271Y-80405781D01*
X281386611Y-80399500D01*
X281213389Y-80399500D01*
X281173728Y-80405781D01*
X281042302Y-80426597D01*
X280877552Y-80480128D01*
X280723211Y-80558768D01*
X280661161Y-80603851D01*
X280583072Y-80660586D01*
X280583070Y-80660588D01*
X280583069Y-80660588D01*
X280460588Y-80783069D01*
X280460588Y-80783070D01*
X280460586Y-80783072D01*
X280423613Y-80833961D01*
X280413133Y-80848386D01*
X280357803Y-80891051D01*
X280312815Y-80899500D01*
X279236670Y-80899500D01*
X279236654Y-80899499D01*
X279229058Y-80899499D01*
X279070943Y-80899499D01*
X278995423Y-80919735D01*
X278918214Y-80940423D01*
X278918209Y-80940426D01*
X278781290Y-81019475D01*
X278781282Y-81019481D01*
X271629584Y-88171181D01*
X271568261Y-88204666D01*
X271541903Y-88207500D01*
X226291097Y-88207500D01*
X226224058Y-88187815D01*
X226178303Y-88135011D01*
X226168359Y-88065853D01*
X226197384Y-88002297D01*
X226203416Y-87995819D01*
X229062416Y-85136819D01*
X229123739Y-85103334D01*
X229150097Y-85100500D01*
X231512815Y-85100500D01*
X231579854Y-85120185D01*
X231613131Y-85151612D01*
X231660586Y-85216928D01*
X231783072Y-85339414D01*
X231923212Y-85441232D01*
X232077555Y-85519873D01*
X232242299Y-85573402D01*
X232413389Y-85600500D01*
X232413390Y-85600500D01*
X232586610Y-85600500D01*
X232586611Y-85600500D01*
X232757701Y-85573402D01*
X232922445Y-85519873D01*
X233076788Y-85441232D01*
X233216928Y-85339414D01*
X233339414Y-85216928D01*
X233441232Y-85076788D01*
X233519873Y-84922445D01*
X233573402Y-84757701D01*
X233600500Y-84586611D01*
X233600500Y-84413389D01*
X233573402Y-84242299D01*
X233519873Y-84077555D01*
X233441232Y-83923212D01*
X233339414Y-83783072D01*
X233216928Y-83660586D01*
X233076788Y-83558768D01*
X232922445Y-83480127D01*
X232757701Y-83426598D01*
X232757699Y-83426597D01*
X232757698Y-83426597D01*
X232626271Y-83405781D01*
X232586611Y-83399500D01*
X232413389Y-83399500D01*
X232373728Y-83405781D01*
X232242302Y-83426597D01*
X232077552Y-83480128D01*
X231923211Y-83558768D01*
X231854393Y-83608768D01*
X231783072Y-83660586D01*
X231783070Y-83660588D01*
X231783069Y-83660588D01*
X231660588Y-83783069D01*
X231660588Y-83783070D01*
X231660586Y-83783072D01*
X231624259Y-83833072D01*
X231613133Y-83848386D01*
X231557803Y-83891051D01*
X231512815Y-83899500D01*
X229099097Y-83899500D01*
X229032058Y-83879815D01*
X228986303Y-83827011D01*
X228976359Y-83757853D01*
X229005384Y-83694297D01*
X229011416Y-83687819D01*
X230562416Y-82136819D01*
X230623739Y-82103334D01*
X230650097Y-82100500D01*
X231512815Y-82100500D01*
X231579854Y-82120185D01*
X231613131Y-82151612D01*
X231660586Y-82216928D01*
X231783072Y-82339414D01*
X231923212Y-82441232D01*
X232077555Y-82519873D01*
X232242299Y-82573402D01*
X232413389Y-82600500D01*
X232413390Y-82600500D01*
X232586610Y-82600500D01*
X232586611Y-82600500D01*
X232757701Y-82573402D01*
X232922445Y-82519873D01*
X233076788Y-82441232D01*
X233216928Y-82339414D01*
X233339414Y-82216928D01*
X233441232Y-82076788D01*
X233519873Y-81922445D01*
X233573402Y-81757701D01*
X233600500Y-81586611D01*
X233600500Y-81413389D01*
X233573402Y-81242299D01*
X233519873Y-81077555D01*
X233441232Y-80923212D01*
X233339414Y-80783072D01*
X233216928Y-80660586D01*
X233076788Y-80558768D01*
X232922445Y-80480127D01*
X232757701Y-80426598D01*
X232757699Y-80426597D01*
X232757698Y-80426597D01*
X232626271Y-80405781D01*
X232586611Y-80399500D01*
X232413389Y-80399500D01*
X232373728Y-80405781D01*
X232242302Y-80426597D01*
X232077552Y-80480128D01*
X231923211Y-80558768D01*
X231861161Y-80603851D01*
X231783072Y-80660586D01*
X231783070Y-80660588D01*
X231783069Y-80660588D01*
X231660588Y-80783069D01*
X231660588Y-80783070D01*
X231660586Y-80783072D01*
X231623613Y-80833961D01*
X231613133Y-80848386D01*
X231557803Y-80891051D01*
X231512815Y-80899500D01*
X230270940Y-80899500D01*
X230230019Y-80910464D01*
X230230019Y-80910465D01*
X230192751Y-80920451D01*
X230118214Y-80940423D01*
X230118209Y-80940426D01*
X229981290Y-81019475D01*
X229981282Y-81019481D01*
X229869478Y-81131286D01*
X223631584Y-87369181D01*
X223570261Y-87402666D01*
X223543903Y-87405500D01*
X177360197Y-87405500D01*
X177293158Y-87385815D01*
X177247403Y-87333011D01*
X177237459Y-87263853D01*
X177266484Y-87200297D01*
X177272516Y-87193819D01*
X179329516Y-85136819D01*
X179390839Y-85103334D01*
X179417197Y-85100500D01*
X182712815Y-85100500D01*
X182779854Y-85120185D01*
X182813131Y-85151612D01*
X182860586Y-85216928D01*
X182983072Y-85339414D01*
X183123212Y-85441232D01*
X183277555Y-85519873D01*
X183442299Y-85573402D01*
X183613389Y-85600500D01*
X183613390Y-85600500D01*
X183786610Y-85600500D01*
X183786611Y-85600500D01*
X183957701Y-85573402D01*
X184122445Y-85519873D01*
X184276788Y-85441232D01*
X184416928Y-85339414D01*
X184539414Y-85216928D01*
X184641232Y-85076788D01*
X184719873Y-84922445D01*
X184773402Y-84757701D01*
X184800500Y-84586611D01*
X184800500Y-84413389D01*
X184773402Y-84242299D01*
X184719873Y-84077555D01*
X184641232Y-83923212D01*
X184539414Y-83783072D01*
X184416928Y-83660586D01*
X184276788Y-83558768D01*
X184122445Y-83480127D01*
X183957701Y-83426598D01*
X183957699Y-83426597D01*
X183957698Y-83426597D01*
X183826271Y-83405781D01*
X183786611Y-83399500D01*
X183613389Y-83399500D01*
X183573728Y-83405781D01*
X183442302Y-83426597D01*
X183277552Y-83480128D01*
X183123211Y-83558768D01*
X183054393Y-83608768D01*
X182983072Y-83660586D01*
X182983070Y-83660588D01*
X182983069Y-83660588D01*
X182860588Y-83783069D01*
X182860588Y-83783070D01*
X182860586Y-83783072D01*
X182824259Y-83833072D01*
X182813133Y-83848386D01*
X182757803Y-83891051D01*
X182712815Y-83899500D01*
X180299097Y-83899500D01*
X180232058Y-83879815D01*
X180186303Y-83827011D01*
X180176359Y-83757853D01*
X180205384Y-83694297D01*
X180211416Y-83687819D01*
X181762416Y-82136819D01*
X181823739Y-82103334D01*
X181850097Y-82100500D01*
X182712815Y-82100500D01*
X182779854Y-82120185D01*
X182813131Y-82151612D01*
X182860586Y-82216928D01*
X182983072Y-82339414D01*
X183123212Y-82441232D01*
X183277555Y-82519873D01*
X183442299Y-82573402D01*
X183613389Y-82600500D01*
X183613390Y-82600500D01*
X183786610Y-82600500D01*
X183786611Y-82600500D01*
X183957701Y-82573402D01*
X184122445Y-82519873D01*
X184276788Y-82441232D01*
X184416928Y-82339414D01*
X184539414Y-82216928D01*
X184641232Y-82076788D01*
X184719873Y-81922445D01*
X184773402Y-81757701D01*
X184800500Y-81586611D01*
X184800500Y-81413389D01*
X184773402Y-81242299D01*
X184719873Y-81077555D01*
X184641232Y-80923212D01*
X184539414Y-80783072D01*
X184416928Y-80660586D01*
X184276788Y-80558768D01*
X184122445Y-80480127D01*
X183957701Y-80426598D01*
X183957699Y-80426597D01*
X183957698Y-80426597D01*
X183826271Y-80405781D01*
X183786611Y-80399500D01*
X183613389Y-80399500D01*
X183573728Y-80405781D01*
X183442302Y-80426597D01*
X183277552Y-80480128D01*
X183123211Y-80558768D01*
X183061161Y-80603851D01*
X182983072Y-80660586D01*
X182983070Y-80660588D01*
X182983069Y-80660588D01*
X182860588Y-80783069D01*
X182860588Y-80783070D01*
X182860586Y-80783072D01*
X182823613Y-80833961D01*
X182813133Y-80848386D01*
X182757803Y-80891051D01*
X182712815Y-80899500D01*
X181629057Y-80899500D01*
X181470943Y-80899500D01*
X181318215Y-80940423D01*
X181318214Y-80940423D01*
X181318212Y-80940424D01*
X181318209Y-80940425D01*
X181268096Y-80969359D01*
X181268095Y-80969360D01*
X181224689Y-80994420D01*
X181181285Y-81019479D01*
X181181282Y-81019481D01*
X181069478Y-81131286D01*
X175633584Y-86567181D01*
X175572261Y-86600666D01*
X175545903Y-86603500D01*
X130295097Y-86603500D01*
X130228058Y-86583815D01*
X130182303Y-86531011D01*
X130172359Y-86461853D01*
X130201384Y-86398297D01*
X130207416Y-86391819D01*
X131462416Y-85136819D01*
X131523739Y-85103334D01*
X131550097Y-85100500D01*
X133912815Y-85100500D01*
X133979854Y-85120185D01*
X134013131Y-85151612D01*
X134060586Y-85216928D01*
X134183072Y-85339414D01*
X134323212Y-85441232D01*
X134477555Y-85519873D01*
X134642299Y-85573402D01*
X134813389Y-85600500D01*
X134813390Y-85600500D01*
X134986610Y-85600500D01*
X134986611Y-85600500D01*
X135157701Y-85573402D01*
X135322445Y-85519873D01*
X135476788Y-85441232D01*
X135616928Y-85339414D01*
X135739414Y-85216928D01*
X135841232Y-85076788D01*
X135919873Y-84922445D01*
X135973402Y-84757701D01*
X136000500Y-84586611D01*
X136000500Y-84413389D01*
X135973402Y-84242299D01*
X135919873Y-84077555D01*
X135841232Y-83923212D01*
X135739414Y-83783072D01*
X135616928Y-83660586D01*
X135476788Y-83558768D01*
X135322445Y-83480127D01*
X135157701Y-83426598D01*
X135157699Y-83426597D01*
X135157698Y-83426597D01*
X135026271Y-83405781D01*
X134986611Y-83399500D01*
X134813389Y-83399500D01*
X134773728Y-83405781D01*
X134642302Y-83426597D01*
X134477552Y-83480128D01*
X134323211Y-83558768D01*
X134254393Y-83608768D01*
X134183072Y-83660586D01*
X134183070Y-83660588D01*
X134183069Y-83660588D01*
X134060588Y-83783069D01*
X134060588Y-83783070D01*
X134060586Y-83783072D01*
X134024259Y-83833072D01*
X134013133Y-83848386D01*
X133957803Y-83891051D01*
X133912815Y-83899500D01*
X131499097Y-83899500D01*
X131432058Y-83879815D01*
X131386303Y-83827011D01*
X131376359Y-83757853D01*
X131405384Y-83694297D01*
X131411416Y-83687819D01*
X132187416Y-82911819D01*
X132248739Y-82878334D01*
X132275097Y-82875500D01*
X134038331Y-82875500D01*
X134038347Y-82875501D01*
X134045943Y-82875501D01*
X134204054Y-82875501D01*
X134204057Y-82875501D01*
X134356785Y-82834577D01*
X134415806Y-82800501D01*
X134493716Y-82755520D01*
X134605520Y-82643716D01*
X134605520Y-82643714D01*
X134615724Y-82633511D01*
X134615730Y-82633504D01*
X134626572Y-82622662D01*
X134687895Y-82589177D01*
X134733647Y-82587870D01*
X134813389Y-82600500D01*
X134813391Y-82600500D01*
X134986610Y-82600500D01*
X134986611Y-82600500D01*
X135157701Y-82573402D01*
X135322445Y-82519873D01*
X135476788Y-82441232D01*
X135616928Y-82339414D01*
X135739414Y-82216928D01*
X135841232Y-82076788D01*
X135919873Y-81922445D01*
X135973402Y-81757701D01*
X136000500Y-81586611D01*
X136000500Y-81413389D01*
X135973402Y-81242299D01*
X135919873Y-81077555D01*
X135841232Y-80923212D01*
X135739414Y-80783072D01*
X135616928Y-80660586D01*
X135476788Y-80558768D01*
X135322445Y-80480127D01*
X135157701Y-80426598D01*
X135157699Y-80426597D01*
X135157698Y-80426597D01*
X135026271Y-80405781D01*
X134986611Y-80399500D01*
X134813389Y-80399500D01*
X134773728Y-80405781D01*
X134642302Y-80426597D01*
X134477552Y-80480128D01*
X134323211Y-80558768D01*
X134261161Y-80603851D01*
X134183072Y-80660586D01*
X134183070Y-80660588D01*
X134183069Y-80660588D01*
X134060588Y-80783069D01*
X134060588Y-80783070D01*
X134060586Y-80783072D01*
X134024261Y-80833069D01*
X133958768Y-80923211D01*
X133880128Y-81077552D01*
X133826597Y-81242302D01*
X133799500Y-81413389D01*
X133799500Y-81550500D01*
X133779815Y-81617539D01*
X133727011Y-81663294D01*
X133675500Y-81674500D01*
X132054057Y-81674500D01*
X131895943Y-81674500D01*
X131743215Y-81715423D01*
X131736187Y-81719481D01*
X131709735Y-81734753D01*
X131709734Y-81734752D01*
X131606287Y-81794477D01*
X131606282Y-81794481D01*
X131494478Y-81906286D01*
X131306284Y-82094481D01*
X127635584Y-85765181D01*
X127574261Y-85798666D01*
X127547903Y-85801500D01*
X86438591Y-85801500D01*
X86371552Y-85781815D01*
X86325797Y-85729011D01*
X86315853Y-85659853D01*
X86344878Y-85596297D01*
X86400271Y-85559569D01*
X86522445Y-85519873D01*
X86676788Y-85441232D01*
X86816928Y-85339414D01*
X86939414Y-85216928D01*
X87041232Y-85076788D01*
X87119873Y-84922445D01*
X87173402Y-84757701D01*
X87200500Y-84586611D01*
X87200500Y-84413389D01*
X87173402Y-84242299D01*
X87119873Y-84077555D01*
X87041232Y-83923212D01*
X86939414Y-83783072D01*
X86816928Y-83660586D01*
X86676788Y-83558768D01*
X86522445Y-83480127D01*
X86357701Y-83426598D01*
X86357699Y-83426597D01*
X86357698Y-83426597D01*
X86226271Y-83405781D01*
X86186611Y-83399500D01*
X86013389Y-83399500D01*
X85973728Y-83405781D01*
X85842302Y-83426597D01*
X85677552Y-83480128D01*
X85523211Y-83558768D01*
X85454393Y-83608768D01*
X85383072Y-83660586D01*
X85383070Y-83660588D01*
X85383069Y-83660588D01*
X85260588Y-83783069D01*
X85260588Y-83783070D01*
X85260586Y-83783072D01*
X85224259Y-83833072D01*
X85213133Y-83848386D01*
X85157803Y-83891051D01*
X85112815Y-83899500D01*
X82699097Y-83899500D01*
X82632058Y-83879815D01*
X82586303Y-83827011D01*
X82576359Y-83757853D01*
X82605384Y-83694297D01*
X82611416Y-83687819D01*
X83462416Y-82836819D01*
X83523739Y-82803334D01*
X83550097Y-82800500D01*
X85313331Y-82800500D01*
X85313347Y-82800501D01*
X85320943Y-82800501D01*
X85479054Y-82800501D01*
X85479057Y-82800501D01*
X85631785Y-82759577D01*
X85699468Y-82720500D01*
X85768716Y-82680520D01*
X85832267Y-82616967D01*
X85838643Y-82612063D01*
X85864008Y-82602219D01*
X85887894Y-82589177D01*
X85898392Y-82588877D01*
X85903781Y-82586786D01*
X85912118Y-82588485D01*
X85933647Y-82587870D01*
X86013389Y-82600500D01*
X86013391Y-82600500D01*
X86186610Y-82600500D01*
X86186611Y-82600500D01*
X86357701Y-82573402D01*
X86522445Y-82519873D01*
X86676788Y-82441232D01*
X86816928Y-82339414D01*
X86939414Y-82216928D01*
X87041232Y-82076788D01*
X87119873Y-81922445D01*
X87173402Y-81757701D01*
X87200500Y-81586611D01*
X87200500Y-81413389D01*
X87173402Y-81242299D01*
X87119873Y-81077555D01*
X87041232Y-80923212D01*
X86939414Y-80783072D01*
X86816928Y-80660586D01*
X86676788Y-80558768D01*
X86522445Y-80480127D01*
X86357701Y-80426598D01*
X86357699Y-80426597D01*
X86357698Y-80426597D01*
X86226271Y-80405781D01*
X86186611Y-80399500D01*
X86013389Y-80399500D01*
X85973728Y-80405781D01*
X85842302Y-80426597D01*
X85677552Y-80480128D01*
X85523211Y-80558768D01*
X85461161Y-80603851D01*
X85383072Y-80660586D01*
X85383070Y-80660588D01*
X85383069Y-80660588D01*
X85260588Y-80783069D01*
X85260588Y-80783070D01*
X85260586Y-80783072D01*
X85224261Y-80833069D01*
X85158768Y-80923211D01*
X85080128Y-81077552D01*
X85026597Y-81242302D01*
X84999500Y-81413389D01*
X84999500Y-81475500D01*
X84979815Y-81542539D01*
X84927011Y-81588294D01*
X84875500Y-81599500D01*
X83170943Y-81599500D01*
X83018214Y-81640423D01*
X82975649Y-81664999D01*
X82975648Y-81664999D01*
X82881287Y-81719477D01*
X82881282Y-81719481D01*
X82810162Y-81790602D01*
X82769480Y-81831284D01*
X82769478Y-81831286D01*
X81190097Y-83410668D01*
X79637584Y-84963181D01*
X79576261Y-84996666D01*
X79549903Y-84999500D01*
X38481754Y-84999500D01*
X38414715Y-84979815D01*
X38368960Y-84927011D01*
X38359016Y-84857853D01*
X38363823Y-84837183D01*
X38367150Y-84826941D01*
X38373402Y-84807701D01*
X38400500Y-84636611D01*
X38400500Y-84463389D01*
X38373402Y-84292299D01*
X38319873Y-84127555D01*
X38241232Y-83973212D01*
X38139414Y-83833072D01*
X38016928Y-83710586D01*
X37876788Y-83608768D01*
X37722445Y-83530127D01*
X37557701Y-83476598D01*
X37557699Y-83476597D01*
X37557698Y-83476597D01*
X37409801Y-83453173D01*
X37386611Y-83449500D01*
X37213389Y-83449500D01*
X37213383Y-83449500D01*
X37133651Y-83462128D01*
X37128227Y-83461427D01*
X37123101Y-83463339D01*
X37093942Y-83456996D01*
X37064358Y-83453173D01*
X37058755Y-83449342D01*
X37054828Y-83448488D01*
X37026573Y-83427337D01*
X36930521Y-83331286D01*
X36930519Y-83331283D01*
X36818717Y-83219481D01*
X36818716Y-83219480D01*
X36731904Y-83169360D01*
X36731904Y-83169359D01*
X36731900Y-83169358D01*
X36681785Y-83140423D01*
X36529057Y-83099499D01*
X36370943Y-83099499D01*
X36363339Y-83099499D01*
X36363331Y-83099500D01*
X33567197Y-83099500D01*
X33500158Y-83079815D01*
X33479516Y-83063181D01*
X33428516Y-83012181D01*
X33395031Y-82950858D01*
X33400015Y-82881166D01*
X33441887Y-82825233D01*
X33507351Y-82800816D01*
X33516197Y-82800500D01*
X36563331Y-82800500D01*
X36563347Y-82800501D01*
X36570943Y-82800501D01*
X36729054Y-82800501D01*
X36729057Y-82800501D01*
X36881785Y-82759577D01*
X36949468Y-82720500D01*
X37018716Y-82680520D01*
X37035551Y-82663683D01*
X37046157Y-82656715D01*
X37067920Y-82650083D01*
X37087887Y-82639179D01*
X37105343Y-82638679D01*
X37112992Y-82636349D01*
X37119778Y-82638266D01*
X37133647Y-82637870D01*
X37213389Y-82650500D01*
X37213391Y-82650500D01*
X37386610Y-82650500D01*
X37386611Y-82650500D01*
X37557701Y-82623402D01*
X37722445Y-82569873D01*
X37876788Y-82491232D01*
X38016928Y-82389414D01*
X38139414Y-82266928D01*
X38241232Y-82126788D01*
X38319873Y-81972445D01*
X38373402Y-81807701D01*
X38400500Y-81636611D01*
X38400500Y-81463389D01*
X38373402Y-81292299D01*
X38319873Y-81127555D01*
X38241232Y-80973212D01*
X38139414Y-80833072D01*
X38016928Y-80710586D01*
X37876788Y-80608768D01*
X37722445Y-80530127D01*
X37557701Y-80476598D01*
X37557699Y-80476597D01*
X37557698Y-80476597D01*
X37426271Y-80455781D01*
X37386611Y-80449500D01*
X37213389Y-80449500D01*
X37173728Y-80455781D01*
X37042302Y-80476597D01*
X36877552Y-80530128D01*
X36723211Y-80608768D01*
X36651891Y-80660586D01*
X36583072Y-80710586D01*
X36583070Y-80710588D01*
X36583069Y-80710588D01*
X36460588Y-80833069D01*
X36460588Y-80833070D01*
X36460586Y-80833072D01*
X36449460Y-80848386D01*
X36358768Y-80973211D01*
X36280128Y-81127552D01*
X36226597Y-81292302D01*
X36199500Y-81463389D01*
X36199500Y-81475500D01*
X36179815Y-81542539D01*
X36127011Y-81588294D01*
X36075500Y-81599500D01*
X32634298Y-81599500D01*
X32567259Y-81579815D01*
X32546617Y-81563181D01*
X11621790Y-60638355D01*
X11621788Y-60638352D01*
X11502917Y-60519481D01*
X11502916Y-60519480D01*
X11416104Y-60469360D01*
X11416104Y-60469359D01*
X11416100Y-60469358D01*
X11365985Y-60440423D01*
X11213257Y-60399499D01*
X11055143Y-60399499D01*
X11047547Y-60399499D01*
X11047531Y-60399500D01*
X8579766Y-60399500D01*
X8512727Y-60379815D01*
X8510875Y-60378602D01*
X8379185Y-60290609D01*
X8379172Y-60290602D01*
X8233501Y-60230264D01*
X8233489Y-60230261D01*
X8078845Y-60199500D01*
X8078842Y-60199500D01*
X7921158Y-60199500D01*
X7921155Y-60199500D01*
X7766510Y-60230261D01*
X7766498Y-60230264D01*
X7620827Y-60290602D01*
X7620814Y-60290609D01*
X7489125Y-60378602D01*
X7422447Y-60399480D01*
X7420234Y-60399500D01*
X2920940Y-60399500D01*
X2880019Y-60410464D01*
X2880019Y-60410465D01*
X2842751Y-60420451D01*
X2768214Y-60440423D01*
X2768209Y-60440426D01*
X2631290Y-60519475D01*
X2631282Y-60519481D01*
X2519480Y-60631284D01*
X2519478Y-60631286D01*
X834750Y-62316015D01*
X-718839Y-63869604D01*
X-780162Y-63903089D01*
X-849854Y-63898105D01*
X-905787Y-63856233D01*
X-930204Y-63790769D01*
X-929590Y-63770108D01*
X-929766Y-63770097D01*
X-929500Y-63766038D01*
X-929500Y-63533947D01*
X-959794Y-63303851D01*
X-1019862Y-63079671D01*
X-1108677Y-62865254D01*
X-1108685Y-62865237D01*
X-1224720Y-62664256D01*
X-1224721Y-62664254D01*
X-1366009Y-62480124D01*
X-1366015Y-62480117D01*
X-1530117Y-62316015D01*
X-1530124Y-62316009D01*
X-1714254Y-62174721D01*
X-1714256Y-62174720D01*
X-1915237Y-62058685D01*
X-1915254Y-62058677D01*
X-2129671Y-61969862D01*
X-2353851Y-61909794D01*
X-2583947Y-61879500D01*
X-2583955Y-61879500D01*
X-2816045Y-61879500D01*
X-2816052Y-61879500D01*
X-3017386Y-61906007D01*
X-3046149Y-61909794D01*
X-3128203Y-61931780D01*
X-3270328Y-61969862D01*
X-3270330Y-61969863D01*
X-3484752Y-62058680D01*
X-3484754Y-62058681D01*
X-3484762Y-62058685D01*
X-3685743Y-62174720D01*
X-3685745Y-62174721D01*
X-3869875Y-62316009D01*
X-3869882Y-62316015D01*
X-4033984Y-62480117D01*
X-4033990Y-62480124D01*
X-4175278Y-62664254D01*
X-4175279Y-62664256D01*
X-4291314Y-62865237D01*
X-4291320Y-62865248D01*
X-4380137Y-63079670D01*
X-4440206Y-63303851D01*
X-4470500Y-63533955D01*
X-4470500Y-63766045D01*
X-4440206Y-63996149D01*
X-4380137Y-64220330D01*
X-4291320Y-64434752D01*
X-4175276Y-64635748D01*
X-4033989Y-64819877D01*
X-3935690Y-64918175D01*
X-3902207Y-64979496D01*
X-3907191Y-65049188D01*
X-3949062Y-65105122D01*
X-4014526Y-65129539D01*
X-4047563Y-65127473D01*
X-4095112Y-65118015D01*
X-4112786Y-65114500D01*
X-4287214Y-65114500D01*
X-4287218Y-65114500D01*
X-4458283Y-65148527D01*
X-4458291Y-65148529D01*
X-4619439Y-65215278D01*
X-4619448Y-65215283D01*
X-4764473Y-65312186D01*
X-4764477Y-65312189D01*
X-4887810Y-65435522D01*
X-4887813Y-65435526D01*
X-4984716Y-65580551D01*
X-4984717Y-65580553D01*
X-4984720Y-65580558D01*
X-5051471Y-65741709D01*
X-5085500Y-65912786D01*
X-6599500Y-65912786D01*
X-6599500Y-59224500D01*
X-6579815Y-59157461D01*
X-6527011Y-59111706D01*
X-6475500Y-59100500D01*
X412675500Y-59100500D01*
X412742539Y-59120185D01*
G37*
%TD.AperFunction*%
%TD*%
M02*
