%TF.GenerationSoftware,KiCad,Pcbnew,9.0.2*%
%TF.CreationDate,2026-01-05T15:34:45-08:00*%
%TF.ProjectId,Muon-8ch-48.8mm-S13360-1325CS-01,4d756f6e-2d38-4636-982d-34382e386d6d,rev?*%
%TF.SameCoordinates,Original*%
%TF.FileFunction,Copper,L1,Top*%
%TF.FilePolarity,Positive*%
%FSLAX46Y46*%
G04 Gerber Fmt 4.6, Leading zero omitted, Abs format (unit mm)*
G04 Created by KiCad (PCBNEW 9.0.2) date 2026-01-05 15:34:45*
%MOMM*%
%LPD*%
G01*
G04 APERTURE LIST*
G04 Aperture macros list*
%AMRoundRect*
0 Rectangle with rounded corners*
0 $1 Rounding radius*
0 $2 $3 $4 $5 $6 $7 $8 $9 X,Y pos of 4 corners*
0 Add a 4 corners polygon primitive as box body*
4,1,4,$2,$3,$4,$5,$6,$7,$8,$9,$2,$3,0*
0 Add four circle primitives for the rounded corners*
1,1,$1+$1,$2,$3*
1,1,$1+$1,$4,$5*
1,1,$1+$1,$6,$7*
1,1,$1+$1,$8,$9*
0 Add four rect primitives between the rounded corners*
20,1,$1+$1,$2,$3,$4,$5,0*
20,1,$1+$1,$4,$5,$6,$7,0*
20,1,$1+$1,$6,$7,$8,$9,0*
20,1,$1+$1,$8,$9,$2,$3,0*%
G04 Aperture macros list end*
%TA.AperFunction,SMDPad,CuDef*%
%ADD10RoundRect,0.087500X-0.087500X-0.337500X0.087500X-0.337500X0.087500X0.337500X-0.087500X0.337500X0*%
%TD*%
%TA.AperFunction,SMDPad,CuDef*%
%ADD11RoundRect,0.250000X-0.325000X-1.100000X0.325000X-1.100000X0.325000X1.100000X-0.325000X1.100000X0*%
%TD*%
%TA.AperFunction,ComponentPad*%
%ADD12RoundRect,0.250000X-0.725000X0.600000X-0.725000X-0.600000X0.725000X-0.600000X0.725000X0.600000X0*%
%TD*%
%TA.AperFunction,ComponentPad*%
%ADD13O,1.950000X1.700000*%
%TD*%
%TA.AperFunction,ComponentPad*%
%ADD14C,1.200000*%
%TD*%
%TA.AperFunction,ComponentPad*%
%ADD15C,2.540000*%
%TD*%
%TA.AperFunction,SMDPad,CuDef*%
%ADD16RoundRect,0.125000X-0.475000X0.125000X-0.475000X-0.125000X0.475000X-0.125000X0.475000X0.125000X0*%
%TD*%
%TA.AperFunction,ViaPad*%
%ADD17C,0.600000*%
%TD*%
%TA.AperFunction,Conductor*%
%ADD18C,0.200000*%
%TD*%
%TA.AperFunction,Conductor*%
%ADD19C,0.250000*%
%TD*%
G04 APERTURE END LIST*
D10*
%TO.P,REF\u002A\u002A,1*%
%TO.N,GND*%
X2600000Y-96900000D03*
%TO.P,REF\u002A\u002A,2*%
X3250000Y-96900000D03*
%TO.P,REF\u002A\u002A,3*%
%TO.N,TEMP_OUT*%
X3900000Y-96900000D03*
%TO.P,REF\u002A\u002A,4*%
%TO.N,HV*%
X3900000Y-94700000D03*
%TO.P,REF\u002A\u002A,5*%
%TO.N,GND*%
X2600000Y-94700000D03*
%TD*%
D11*
%TO.P,10 nF,1*%
%TO.N,K1*%
X6500000Y-65500000D03*
%TO.P,10 nF,2*%
%TO.N,GND*%
X9450000Y-65500000D03*
%TD*%
%TO.P,10 nF,1*%
%TO.N,K2*%
X6500000Y-70500000D03*
%TO.P,10 nF,2*%
%TO.N,GND*%
X9450000Y-70500000D03*
%TD*%
D12*
%TO.P,REF\u002A\u002A,1*%
%TO.N,GND*%
X-3000000Y-93000000D03*
D13*
%TO.P,REF\u002A\u002A,2*%
%TO.N,TEMP_OUT*%
X-3000000Y-95500000D03*
%TO.P,REF\u002A\u002A,3*%
%TO.N,HV*%
X-3000000Y-98000000D03*
%TD*%
D11*
%TO.P,10 nF,1*%
%TO.N,K3*%
X6500000Y-75500000D03*
%TO.P,10 nF,2*%
%TO.N,GND*%
X9450000Y-75500000D03*
%TD*%
%TO.P,10 nF,1*%
%TO.N,K4*%
X6500000Y-80500000D03*
%TO.P,10 nF,2*%
%TO.N,GND*%
X9450000Y-80500000D03*
%TD*%
%TO.P,10 nF,1*%
%TO.N,K7*%
X6500000Y-95500000D03*
%TO.P,10 nF,2*%
%TO.N,GND*%
X9450000Y-95500000D03*
%TD*%
D14*
%TO.P,REF\u002A\u002A20,1*%
%TO.N,A4*%
X232500000Y-84500000D03*
%TO.P,REF\u002A\u002A20,2*%
%TO.N,K4*%
X232500000Y-81500000D03*
%TD*%
%TO.P,REF\u002A\u002A20,1*%
%TO.N,A5*%
X281300000Y-84500000D03*
%TO.P,REF\u002A\u002A20,2*%
%TO.N,K5*%
X281300000Y-81500000D03*
%TD*%
D11*
%TO.P,10 nF,1*%
%TO.N,K5*%
X6500000Y-85500000D03*
%TO.P,10 nF,2*%
%TO.N,GND*%
X9450000Y-85500000D03*
%TD*%
%TO.P,10 nF,1*%
%TO.N,K6*%
X6500000Y-90500000D03*
%TO.P,10 nF,2*%
%TO.N,GND*%
X9450000Y-90500000D03*
%TD*%
D14*
%TO.P,REF\u002A\u002A20,1*%
%TO.N,A2*%
X134900000Y-84500000D03*
%TO.P,REF\u002A\u002A20,2*%
%TO.N,K2*%
X134900000Y-81500000D03*
%TD*%
D15*
%TO.P,REF\u002A\u002A,*%
%TO.N,*%
X-2700000Y-63650000D03*
X-2700000Y-80950000D03*
D16*
%TO.P,REF\u002A\u002A,1*%
%TO.N,K0*%
X-4400000Y-67500000D03*
%TO.P,REF\u002A\u002A,2*%
%TO.N,A0*%
X-1000000Y-67500000D03*
%TO.P,REF\u002A\u002A,3*%
%TO.N,K1*%
X-4400000Y-68300000D03*
%TO.P,REF\u002A\u002A,4*%
%TO.N,A1*%
X-1000000Y-68300000D03*
%TO.P,REF\u002A\u002A,5*%
%TO.N,K2*%
X-4400000Y-69100000D03*
%TO.P,REF\u002A\u002A,6*%
%TO.N,A2*%
X-1000000Y-69100000D03*
%TO.P,REF\u002A\u002A,7*%
%TO.N,K3*%
X-4400000Y-69900000D03*
%TO.P,REF\u002A\u002A,8*%
%TO.N,A3*%
X-1000000Y-69900000D03*
%TO.P,REF\u002A\u002A,9*%
%TO.N,K4*%
X-4400000Y-73900000D03*
%TO.P,REF\u002A\u002A,10*%
%TO.N,A4*%
X-1000000Y-73900000D03*
%TO.P,REF\u002A\u002A,11*%
%TO.N,K5*%
X-4400000Y-74700000D03*
%TO.P,REF\u002A\u002A,12*%
%TO.N,A5*%
X-1000000Y-74700000D03*
%TO.P,REF\u002A\u002A,13*%
%TO.N,K6*%
X-4400000Y-75500000D03*
%TO.P,REF\u002A\u002A,14*%
%TO.N,A6*%
X-1000000Y-75500000D03*
%TO.P,REF\u002A\u002A,15*%
%TO.N,K7*%
X-4400000Y-76300000D03*
%TO.P,REF\u002A\u002A,16*%
%TO.N,A7*%
X-1000000Y-76300000D03*
%TO.P,REF\u002A\u002A,17*%
%TO.N,GND*%
X-4400000Y-77100000D03*
%TO.P,REF\u002A\u002A,18*%
X-1000000Y-77100000D03*
%TD*%
D14*
%TO.P,REF\u002A\u002A20,1*%
%TO.N,A6*%
X330100000Y-84500000D03*
%TO.P,REF\u002A\u002A20,2*%
%TO.N,K6*%
X330100000Y-81500000D03*
%TD*%
%TO.P,REF\u002A\u002A20,1*%
%TO.N,A1*%
X86100000Y-84500000D03*
%TO.P,REF\u002A\u002A20,2*%
%TO.N,K1*%
X86100000Y-81500000D03*
%TD*%
%TO.P,REF\u002A\u002A20,1*%
%TO.N,A7*%
X378900000Y-84500000D03*
%TO.P,REF\u002A\u002A20,2*%
%TO.N,K7*%
X378900000Y-81500000D03*
%TD*%
%TO.P,REF\u002A\u002A20,1*%
%TO.N,A3*%
X183700000Y-84500000D03*
%TO.P,REF\u002A\u002A20,2*%
%TO.N,K3*%
X183700000Y-81500000D03*
%TD*%
%TO.P,REF\u002A\u002A20,1*%
%TO.N,A0*%
X37300000Y-84550000D03*
%TO.P,REF\u002A\u002A20,2*%
%TO.N,K0*%
X37300000Y-81550000D03*
%TD*%
D11*
%TO.P,10 nF,1*%
%TO.N,K0*%
X6550000Y-61000000D03*
%TO.P,10 nF,2*%
%TO.N,GND*%
X9500000Y-61000000D03*
%TD*%
D17*
%TO.N,K0*%
X8000000Y-61000000D03*
X-3000000Y-67000000D03*
%TO.N,A0*%
X3000000Y-62000000D03*
%TO.N,K1*%
X-3000000Y-68000000D03*
X8000000Y-65500000D03*
%TO.N,A1*%
X2000000Y-66100000D03*
%TO.N,K2*%
X-3000000Y-69000000D03*
X8000000Y-70500000D03*
%TO.N,A2*%
X8000000Y-73000000D03*
%TO.N,K3*%
X8000000Y-75500000D03*
X-3000000Y-70000000D03*
%TO.N,A3*%
X8600000Y-78000000D03*
%TO.N,K4*%
X-3000000Y-72500000D03*
X8000000Y-80500000D03*
%TO.N,A4*%
X8000000Y-82500000D03*
%TO.N,K5*%
X8000000Y-85500000D03*
X-3000000Y-73500000D03*
%TO.N,A5*%
X8000000Y-88000000D03*
%TO.N,K6*%
X8000000Y-90500000D03*
X-2972776Y-74527224D03*
%TO.N,A6*%
X8000000Y-93000000D03*
%TO.N,K7*%
X8000000Y-95500000D03*
X-3000000Y-75500000D03*
%TO.N,A7*%
X2500000Y-90500000D03*
%TD*%
D18*
%TO.N,GND*%
X-2399000Y-73500000D02*
X-1899000Y-73000000D01*
X-4400000Y-77100000D02*
X-1000000Y-77100000D01*
X8849000Y-79899000D02*
X9450000Y-80500000D01*
X2600000Y-94700000D02*
X2600000Y-96900000D01*
X-2371776Y-76328223D02*
X-2371776Y-73527224D01*
X8120740Y-79899000D02*
X8849000Y-79899000D01*
X-1899000Y-73000000D02*
X1221740Y-73000000D01*
X9450000Y-85500000D02*
X9450000Y-80500000D01*
X9500000Y-61000000D02*
X9500000Y-65450000D01*
X9450000Y-95500000D02*
X9450000Y-90500000D01*
D19*
X8000000Y-99000000D02*
X6209447Y-99000000D01*
X9450000Y-97550000D02*
X9450000Y-95500000D01*
X4802000Y-97592553D02*
X4802000Y-94589798D01*
D18*
X3250000Y-96900000D02*
X2600000Y-96900000D01*
D19*
X4802000Y-94589798D02*
X4161202Y-93949000D01*
D18*
X9450000Y-65500000D02*
X9450000Y-70500000D01*
X9450000Y-70500000D02*
X9450000Y-75500000D01*
X9500000Y-65450000D02*
X9450000Y-65500000D01*
D19*
X4161202Y-93949000D02*
X3351000Y-93949000D01*
D18*
X9450000Y-80500000D02*
X9450000Y-75500000D01*
D19*
X3351000Y-93949000D02*
X2600000Y-94700000D01*
D18*
X-1599999Y-77100000D02*
X-2371776Y-76328223D01*
X9450000Y-90500000D02*
X9450000Y-85500000D01*
X-2371776Y-73527224D02*
X-2399000Y-73500000D01*
D19*
X6209447Y-99000000D02*
X4802000Y-97592553D01*
D18*
X1221740Y-73000000D02*
X8120740Y-79899000D01*
D19*
X8000000Y-99000000D02*
X9450000Y-97550000D01*
D18*
X-1000000Y-77100000D02*
X-1599999Y-77100000D01*
%TO.N,K0*%
X-4400000Y-67500000D02*
X-3500000Y-67500000D01*
X-3500000Y-67500000D02*
X-3000000Y-67000000D01*
X6550000Y-61000000D02*
X8000000Y-61000000D01*
%TO.N,A0*%
X0Y-66500000D02*
X-1000000Y-67500000D01*
X0Y-65000000D02*
X0Y-66500000D01*
X3000000Y-62000000D02*
X0Y-65000000D01*
%TO.N,K1*%
X6500000Y-65500000D02*
X8000000Y-65500000D01*
X-4400000Y-68300000D02*
X-3300000Y-68300000D01*
X-3300000Y-68300000D02*
X-3000000Y-68000000D01*
%TO.N,A1*%
X-200000Y-68300000D02*
X-1000000Y-68300000D01*
X2000000Y-66100000D02*
X-200000Y-68300000D01*
%TO.N,K2*%
X6500000Y-70500000D02*
X8000000Y-70500000D01*
X-4400000Y-69100000D02*
X-3100000Y-69100000D01*
X-3100000Y-69100000D02*
X-3000000Y-69000000D01*
%TO.N,A2*%
X8000000Y-73000000D02*
X6500000Y-73000000D01*
X2600000Y-69100000D02*
X-1000000Y-69100000D01*
X6500000Y-73000000D02*
X2600000Y-69100000D01*
%TO.N,K3*%
X-4400000Y-69900000D02*
X-3100000Y-69900000D01*
X6500000Y-75500000D02*
X8000000Y-75500000D01*
X-3100000Y-69900000D02*
X-3000000Y-70000000D01*
%TO.N,A3*%
X-1000000Y-70211160D02*
X-1000000Y-69900000D01*
X6788840Y-78000000D02*
X-1000000Y-70211160D01*
X8600000Y-78000000D02*
X6788840Y-78000000D01*
%TO.N,K4*%
X6500000Y-80500000D02*
X8000000Y-80500000D01*
X-4400000Y-73900000D02*
X-3000000Y-72500000D01*
%TO.N,A4*%
X5500000Y-79800001D02*
X-400001Y-73900000D01*
X5500000Y-81711160D02*
X5500000Y-79800001D01*
X-400001Y-73900000D02*
X-1000000Y-73900000D01*
X8000000Y-82500000D02*
X6288840Y-82500000D01*
X6288840Y-82500000D02*
X5500000Y-81711160D01*
%TO.N,K5*%
X6500000Y-85500000D02*
X8000000Y-85500000D01*
X-3000000Y-73705918D02*
X-3000000Y-73500000D01*
X-4400000Y-74700000D02*
X-3994082Y-74700000D01*
X-3994082Y-74700000D02*
X-3000000Y-73705918D01*
%TO.N,A5*%
X8000000Y-88000000D02*
X6788840Y-88000000D01*
X4316449Y-79183550D02*
X-167101Y-74700000D01*
X-167101Y-74700000D02*
X-1000000Y-74700000D01*
X6788840Y-88000000D02*
X4316449Y-85527609D01*
X4316449Y-85527609D02*
X4316449Y-79183550D01*
%TO.N,K6*%
X-4400000Y-75500000D02*
X-3945552Y-75500000D01*
X-3945552Y-75500000D02*
X-2972776Y-74527224D01*
X6500000Y-90500000D02*
X8000000Y-90500000D01*
%TO.N,A6*%
X3915449Y-90126609D02*
X3915449Y-79349650D01*
X65799Y-75500000D02*
X-1000000Y-75500000D01*
X8000000Y-93000000D02*
X6788840Y-93000000D01*
X3915449Y-79349650D02*
X65799Y-75500000D01*
X6788840Y-93000000D02*
X3915449Y-90126609D01*
%TO.N,K7*%
X-4400000Y-76300000D02*
X-3800000Y-76300000D01*
X6500000Y-95500000D02*
X8000000Y-95500000D01*
X-3800000Y-76300000D02*
X-3000000Y-75500000D01*
%TO.N,A7*%
X2500000Y-79200001D02*
X-400001Y-76300000D01*
X-400001Y-76300000D02*
X-1000000Y-76300000D01*
X2500000Y-90500000D02*
X2500000Y-79200001D01*
%TO.N,HV*%
X-2500000Y-98500000D02*
X-3000000Y-98000000D01*
X4376000Y-95176000D02*
X4376000Y-97416099D01*
X3292099Y-98500000D02*
X-2500000Y-98500000D01*
X4376000Y-97416099D02*
X3292099Y-98500000D01*
X3900000Y-94700000D02*
X4376000Y-95176000D01*
%TO.N,TEMP_OUT*%
X3900000Y-97324999D02*
X3598999Y-97626000D01*
X3598999Y-97626000D02*
X-874000Y-97626000D01*
X-874000Y-97626000D02*
X-3000000Y-95500000D01*
X3900000Y-96900000D02*
X3900000Y-97324999D01*
%TD*%
%TA.AperFunction,NonConductor*%
G36*
X8680809Y-59120185D02*
G01*
X8726564Y-59172989D01*
X8736508Y-59242147D01*
X8707483Y-59305703D01*
X8701451Y-59312181D01*
X8582289Y-59431342D01*
X8490187Y-59580663D01*
X8490186Y-59580666D01*
X8435001Y-59747203D01*
X8435001Y-59747204D01*
X8435000Y-59747204D01*
X8424500Y-59849983D01*
X8424500Y-60123799D01*
X8404815Y-60190838D01*
X8352011Y-60236593D01*
X8282853Y-60246537D01*
X8253051Y-60238362D01*
X8242654Y-60234056D01*
X8233497Y-60230263D01*
X8233493Y-60230262D01*
X8233489Y-60230261D01*
X8078845Y-60199500D01*
X8078842Y-60199500D01*
X7921158Y-60199500D01*
X7921153Y-60199500D01*
X7773690Y-60228832D01*
X7704098Y-60222605D01*
X7648921Y-60179741D01*
X7625677Y-60113852D01*
X7625499Y-60107215D01*
X7625499Y-59849998D01*
X7625498Y-59849981D01*
X7614999Y-59747203D01*
X7614998Y-59747200D01*
X7559814Y-59580666D01*
X7467712Y-59431344D01*
X7348549Y-59312181D01*
X7315064Y-59250858D01*
X7320048Y-59181166D01*
X7361920Y-59125233D01*
X7427384Y-59100816D01*
X7436230Y-59100500D01*
X8613770Y-59100500D01*
X8680809Y-59120185D01*
G37*
%TD.AperFunction*%
%TA.AperFunction,NonConductor*%
G36*
X7746949Y-71261637D02*
G01*
X7766503Y-71269737D01*
X7921153Y-71300499D01*
X7921156Y-71300500D01*
X7921158Y-71300500D01*
X8078844Y-71300500D01*
X8226308Y-71271167D01*
X8295900Y-71277394D01*
X8351077Y-71320257D01*
X8374322Y-71386146D01*
X8374500Y-71392784D01*
X8374500Y-71650000D01*
X8374501Y-71650019D01*
X8385000Y-71752796D01*
X8385001Y-71752799D01*
X8440185Y-71919331D01*
X8440187Y-71919336D01*
X8532289Y-72068657D01*
X8619240Y-72155608D01*
X8652725Y-72216931D01*
X8647741Y-72286623D01*
X8605869Y-72342556D01*
X8540405Y-72366973D01*
X8472132Y-72352121D01*
X8462668Y-72346391D01*
X8379185Y-72290609D01*
X8379172Y-72290602D01*
X8233501Y-72230264D01*
X8233489Y-72230261D01*
X8078845Y-72199500D01*
X8078842Y-72199500D01*
X7921158Y-72199500D01*
X7921155Y-72199500D01*
X7766510Y-72230261D01*
X7766498Y-72230264D01*
X7620827Y-72290602D01*
X7620814Y-72290609D01*
X7489125Y-72378602D01*
X7471078Y-72384252D01*
X7455169Y-72394477D01*
X7424207Y-72398928D01*
X7422447Y-72399480D01*
X7420234Y-72399500D01*
X7386230Y-72399500D01*
X7319191Y-72379815D01*
X7273436Y-72327011D01*
X7263492Y-72257853D01*
X7292517Y-72194297D01*
X7298549Y-72187819D01*
X7330760Y-72155608D01*
X7417712Y-72068656D01*
X7509814Y-71919334D01*
X7564999Y-71752797D01*
X7575500Y-71650009D01*
X7575499Y-71376197D01*
X7595183Y-71309160D01*
X7647987Y-71263405D01*
X7717146Y-71253461D01*
X7746949Y-71261637D01*
G37*
%TD.AperFunction*%
%TA.AperFunction,NonConductor*%
G36*
X7487273Y-73620185D02*
G01*
X7489125Y-73621398D01*
X7620814Y-73709390D01*
X7620827Y-73709397D01*
X7749463Y-73762679D01*
X7766503Y-73769737D01*
X7921153Y-73800499D01*
X7921156Y-73800500D01*
X7921158Y-73800500D01*
X8078844Y-73800500D01*
X8078845Y-73800499D01*
X8233497Y-73769737D01*
X8373281Y-73711837D01*
X8379172Y-73709397D01*
X8379172Y-73709396D01*
X8379179Y-73709394D01*
X8462669Y-73653607D01*
X8529345Y-73632730D01*
X8596725Y-73651214D01*
X8643416Y-73703193D01*
X8654592Y-73772162D01*
X8626707Y-73836226D01*
X8619241Y-73844391D01*
X8532287Y-73931345D01*
X8440187Y-74080663D01*
X8440185Y-74080668D01*
X8425950Y-74123627D01*
X8385001Y-74247203D01*
X8385001Y-74247204D01*
X8385000Y-74247204D01*
X8374500Y-74349983D01*
X8374500Y-74607215D01*
X8354815Y-74674254D01*
X8302011Y-74720009D01*
X8232853Y-74729953D01*
X8226309Y-74728832D01*
X8078846Y-74699500D01*
X8078842Y-74699500D01*
X7921158Y-74699500D01*
X7921155Y-74699500D01*
X7766510Y-74730261D01*
X7766502Y-74730263D01*
X7746950Y-74738362D01*
X7677480Y-74745829D01*
X7615002Y-74714554D01*
X7579350Y-74654464D01*
X7575499Y-74623800D01*
X7575499Y-74349998D01*
X7575498Y-74349981D01*
X7564999Y-74247203D01*
X7564998Y-74247200D01*
X7509814Y-74080666D01*
X7417712Y-73931344D01*
X7298549Y-73812181D01*
X7287936Y-73792744D01*
X7273436Y-73776011D01*
X7271519Y-73762679D01*
X7265064Y-73750858D01*
X7266643Y-73728771D01*
X7263492Y-73706853D01*
X7269087Y-73694601D01*
X7270048Y-73681166D01*
X7283318Y-73663439D01*
X7292517Y-73643297D01*
X7303848Y-73636014D01*
X7311920Y-73625233D01*
X7332665Y-73617495D01*
X7351295Y-73605523D01*
X7373213Y-73602371D01*
X7377384Y-73600816D01*
X7386230Y-73600500D01*
X7420234Y-73600500D01*
X7487273Y-73620185D01*
G37*
%TD.AperFunction*%
%TA.AperFunction,NonConductor*%
G36*
X2366942Y-69720185D02*
G01*
X2387584Y-69736819D01*
X6019478Y-73368713D01*
X6019480Y-73368716D01*
X6099500Y-73448736D01*
X6132984Y-73510057D01*
X6132983Y-73510058D01*
X6132984Y-73510059D01*
X6128000Y-73579750D01*
X6112230Y-73600816D01*
X6088340Y-73632730D01*
X6086128Y-73635684D01*
X6086093Y-73635697D01*
X6028715Y-73658099D01*
X6028819Y-73658585D01*
X6025834Y-73659223D01*
X6024428Y-73659773D01*
X6022208Y-73659999D01*
X6022200Y-73660001D01*
X5855668Y-73715185D01*
X5855663Y-73715187D01*
X5706342Y-73807289D01*
X5582289Y-73931342D01*
X5490187Y-74080663D01*
X5490185Y-74080668D01*
X5475950Y-74123627D01*
X5435001Y-74247203D01*
X5435001Y-74247204D01*
X5435000Y-74247204D01*
X5424500Y-74349983D01*
X5424500Y-75487063D01*
X5404815Y-75554102D01*
X5352011Y-75599857D01*
X5282853Y-75609801D01*
X5219297Y-75580776D01*
X5212819Y-75574744D01*
X69546Y-70431471D01*
X36061Y-70370148D01*
X41045Y-70300456D01*
X50493Y-70280672D01*
X53618Y-70275390D01*
X97709Y-70123627D01*
X100500Y-70088163D01*
X100499Y-69824498D01*
X120183Y-69757461D01*
X172987Y-69711706D01*
X224499Y-69700500D01*
X2299903Y-69700500D01*
X2366942Y-69720185D01*
G37*
%TD.AperFunction*%
%TA.AperFunction,NonConductor*%
G36*
X7746949Y-76261637D02*
G01*
X7766503Y-76269737D01*
X7921153Y-76300499D01*
X7921156Y-76300500D01*
X7921158Y-76300500D01*
X8078844Y-76300500D01*
X8226308Y-76271167D01*
X8295900Y-76277394D01*
X8351077Y-76320257D01*
X8374322Y-76386146D01*
X8374500Y-76392784D01*
X8374500Y-76650000D01*
X8374501Y-76650019D01*
X8385000Y-76752796D01*
X8385001Y-76752799D01*
X8440185Y-76919331D01*
X8440189Y-76919340D01*
X8509266Y-77031332D01*
X8527706Y-77098724D01*
X8506783Y-77165388D01*
X8453141Y-77210157D01*
X8427920Y-77218045D01*
X8366507Y-77230261D01*
X8366498Y-77230264D01*
X8220827Y-77290602D01*
X8220814Y-77290609D01*
X8089125Y-77378602D01*
X8022447Y-77399480D01*
X8020234Y-77399500D01*
X7386230Y-77399500D01*
X7319191Y-77379815D01*
X7273436Y-77327011D01*
X7263492Y-77257853D01*
X7292517Y-77194297D01*
X7298549Y-77187819D01*
X7320980Y-77165388D01*
X7417712Y-77068656D01*
X7509814Y-76919334D01*
X7564999Y-76752797D01*
X7575500Y-76650009D01*
X7575499Y-76376197D01*
X7595183Y-76309160D01*
X7647987Y-76263405D01*
X7717146Y-76253461D01*
X7746949Y-76261637D01*
G37*
%TD.AperFunction*%
%TA.AperFunction,NonConductor*%
G36*
X988682Y-73620185D02*
G01*
X1009324Y-73636819D01*
X5888682Y-78516177D01*
X5922167Y-78577500D01*
X5917183Y-78647192D01*
X5875311Y-78703125D01*
X5861727Y-78711257D01*
X5861813Y-78711395D01*
X5855667Y-78715185D01*
X5855666Y-78715186D01*
X5767224Y-78769737D01*
X5706342Y-78807289D01*
X5619114Y-78894518D01*
X5557791Y-78928003D01*
X5488099Y-78923019D01*
X5443752Y-78894518D01*
X361415Y-73812181D01*
X327930Y-73750858D01*
X332914Y-73681166D01*
X374786Y-73625233D01*
X440250Y-73600816D01*
X449096Y-73600500D01*
X921643Y-73600500D01*
X988682Y-73620185D01*
G37*
%TD.AperFunction*%
%TA.AperFunction,NonConductor*%
G36*
X8087273Y-78620185D02*
G01*
X8089125Y-78621398D01*
X8220814Y-78709390D01*
X8220827Y-78709397D01*
X8366498Y-78769735D01*
X8366503Y-78769737D01*
X8366507Y-78769737D01*
X8366508Y-78769738D01*
X8427919Y-78781954D01*
X8452349Y-78794733D01*
X8478170Y-78804403D01*
X8482869Y-78810697D01*
X8489830Y-78814339D01*
X8503474Y-78838300D01*
X8519966Y-78860392D01*
X8520515Y-78868227D01*
X8524404Y-78875055D01*
X8522927Y-78902591D01*
X8524858Y-78930090D01*
X8520933Y-78939800D01*
X8520664Y-78944824D01*
X8512480Y-78963143D01*
X8510937Y-78965958D01*
X8440186Y-79080666D01*
X8428061Y-79117256D01*
X8422651Y-79127133D01*
X8405565Y-79144172D01*
X8391830Y-79164011D01*
X8381274Y-79168399D01*
X8373180Y-79176472D01*
X8349595Y-79181569D01*
X8327314Y-79190833D01*
X8316060Y-79188817D01*
X8304887Y-79191233D01*
X8282288Y-79182770D01*
X8258539Y-79178517D01*
X8245109Y-79168846D01*
X8239455Y-79166729D01*
X8236300Y-79162502D01*
X8226217Y-79155242D01*
X7883156Y-78812181D01*
X7849671Y-78750858D01*
X7854655Y-78681166D01*
X7896527Y-78625233D01*
X7961991Y-78600816D01*
X7970837Y-78600500D01*
X8020234Y-78600500D01*
X8087273Y-78620185D01*
G37*
%TD.AperFunction*%
%TA.AperFunction,NonConductor*%
G36*
X7715718Y-81253666D02*
G01*
X7717146Y-81253461D01*
X7746949Y-81261637D01*
X7766503Y-81269737D01*
X7899279Y-81296148D01*
X7921153Y-81300499D01*
X7921156Y-81300500D01*
X7921158Y-81300500D01*
X8078844Y-81300500D01*
X8226308Y-81271167D01*
X8247292Y-81273044D01*
X8268147Y-81270046D01*
X8281394Y-81276096D01*
X8295900Y-81277394D01*
X8312537Y-81290318D01*
X8331703Y-81299071D01*
X8339577Y-81311323D01*
X8351077Y-81320257D01*
X8358085Y-81340123D01*
X8369477Y-81357849D01*
X8373011Y-81382431D01*
X8374322Y-81386146D01*
X8374500Y-81392784D01*
X8374500Y-81607215D01*
X8354815Y-81674254D01*
X8302011Y-81720009D01*
X8232853Y-81729953D01*
X8226309Y-81728832D01*
X8078846Y-81699500D01*
X8078842Y-81699500D01*
X7921158Y-81699500D01*
X7921155Y-81699500D01*
X7766510Y-81730261D01*
X7766502Y-81730263D01*
X7746950Y-81738362D01*
X7677480Y-81745829D01*
X7615002Y-81714554D01*
X7579350Y-81654464D01*
X7575499Y-81623807D01*
X7575499Y-81376197D01*
X7584740Y-81344724D01*
X7592858Y-81312924D01*
X7594538Y-81311359D01*
X7595184Y-81309160D01*
X7619964Y-81287687D01*
X7643996Y-81265314D01*
X7646255Y-81264906D01*
X7647988Y-81263405D01*
X7680462Y-81258735D01*
X7712756Y-81252910D01*
X7715718Y-81253666D01*
G37*
%TD.AperFunction*%
%TA.AperFunction,NonConductor*%
G36*
X5122152Y-82182994D02*
G01*
X5128630Y-82189026D01*
X5138349Y-82198745D01*
X5138355Y-82198750D01*
X5803979Y-82864374D01*
X5803989Y-82864385D01*
X5808319Y-82868715D01*
X5808320Y-82868716D01*
X5920124Y-82980520D01*
X6006935Y-83030639D01*
X6006937Y-83030641D01*
X6057053Y-83059576D01*
X6057055Y-83059577D01*
X6209782Y-83100500D01*
X6209783Y-83100500D01*
X7420234Y-83100500D01*
X7487273Y-83120185D01*
X7489125Y-83121398D01*
X7620814Y-83209390D01*
X7620827Y-83209397D01*
X7734963Y-83256673D01*
X7766503Y-83269737D01*
X7921153Y-83300499D01*
X7921156Y-83300500D01*
X7921158Y-83300500D01*
X8078844Y-83300500D01*
X8078845Y-83300499D01*
X8233497Y-83269737D01*
X8379179Y-83209394D01*
X8510289Y-83121789D01*
X8621789Y-83010289D01*
X8622397Y-83009378D01*
X8622839Y-83009008D01*
X8625653Y-83005581D01*
X8626303Y-83006114D01*
X8676010Y-82964573D01*
X8745334Y-82955866D01*
X8808362Y-82986020D01*
X8845082Y-83045463D01*
X8849500Y-83078269D01*
X8849500Y-83618942D01*
X8829815Y-83685981D01*
X8790598Y-83724479D01*
X8704209Y-83777764D01*
X8656342Y-83807289D01*
X8532289Y-83931342D01*
X8440187Y-84080663D01*
X8440186Y-84080666D01*
X8385001Y-84247203D01*
X8385001Y-84247204D01*
X8385000Y-84247204D01*
X8374500Y-84349983D01*
X8374500Y-84607215D01*
X8354815Y-84674254D01*
X8302011Y-84720009D01*
X8232853Y-84729953D01*
X8226309Y-84728832D01*
X8078846Y-84699500D01*
X8078842Y-84699500D01*
X7921158Y-84699500D01*
X7921155Y-84699500D01*
X7766510Y-84730261D01*
X7766502Y-84730263D01*
X7746950Y-84738362D01*
X7677480Y-84745829D01*
X7615002Y-84714554D01*
X7579350Y-84654464D01*
X7575499Y-84623800D01*
X7575499Y-84349998D01*
X7575498Y-84349981D01*
X7564999Y-84247203D01*
X7564998Y-84247200D01*
X7539245Y-84169483D01*
X7509814Y-84080666D01*
X7417712Y-83931344D01*
X7293656Y-83807288D01*
X7144334Y-83715186D01*
X6977797Y-83660001D01*
X6977795Y-83660000D01*
X6875010Y-83649500D01*
X6124998Y-83649500D01*
X6124980Y-83649501D01*
X6022203Y-83660000D01*
X6022200Y-83660001D01*
X5855668Y-83715185D01*
X5855663Y-83715187D01*
X5706342Y-83807289D01*
X5582289Y-83931342D01*
X5490187Y-84080663D01*
X5490186Y-84080666D01*
X5435001Y-84247203D01*
X5435001Y-84247204D01*
X5435000Y-84247204D01*
X5424500Y-84349983D01*
X5424500Y-85487063D01*
X5404815Y-85554102D01*
X5352011Y-85599857D01*
X5282853Y-85609801D01*
X5219297Y-85580776D01*
X5212819Y-85574744D01*
X4953268Y-85315193D01*
X4919783Y-85253870D01*
X4916949Y-85227512D01*
X4916949Y-82276707D01*
X4936634Y-82209668D01*
X4989438Y-82163913D01*
X5058596Y-82153969D01*
X5122152Y-82182994D01*
G37*
%TD.AperFunction*%
%TA.AperFunction,NonConductor*%
G36*
X7746949Y-86261637D02*
G01*
X7766503Y-86269737D01*
X7921153Y-86300499D01*
X7921156Y-86300500D01*
X7921158Y-86300500D01*
X8078844Y-86300500D01*
X8226308Y-86271167D01*
X8295900Y-86277394D01*
X8351077Y-86320257D01*
X8374322Y-86386146D01*
X8374500Y-86392784D01*
X8374500Y-86650000D01*
X8374501Y-86650019D01*
X8385000Y-86752796D01*
X8385001Y-86752799D01*
X8440185Y-86919331D01*
X8440187Y-86919336D01*
X8532289Y-87068657D01*
X8619240Y-87155608D01*
X8652725Y-87216931D01*
X8647741Y-87286623D01*
X8605869Y-87342556D01*
X8540405Y-87366973D01*
X8472132Y-87352121D01*
X8462668Y-87346391D01*
X8379185Y-87290609D01*
X8379172Y-87290602D01*
X8233501Y-87230264D01*
X8233489Y-87230261D01*
X8078845Y-87199500D01*
X8078842Y-87199500D01*
X7921158Y-87199500D01*
X7921155Y-87199500D01*
X7766510Y-87230261D01*
X7766498Y-87230264D01*
X7620827Y-87290602D01*
X7620814Y-87290609D01*
X7489125Y-87378602D01*
X7471078Y-87384252D01*
X7455169Y-87394477D01*
X7424207Y-87398928D01*
X7422447Y-87399480D01*
X7420234Y-87399500D01*
X7386230Y-87399500D01*
X7319191Y-87379815D01*
X7273436Y-87327011D01*
X7263492Y-87257853D01*
X7292517Y-87194297D01*
X7298549Y-87187819D01*
X7330760Y-87155608D01*
X7417712Y-87068656D01*
X7509814Y-86919334D01*
X7564999Y-86752797D01*
X7575500Y-86650009D01*
X7575499Y-86376197D01*
X7595183Y-86309160D01*
X7647987Y-86263405D01*
X7717146Y-86253461D01*
X7746949Y-86261637D01*
G37*
%TD.AperFunction*%
%TA.AperFunction,NonConductor*%
G36*
X7487273Y-88620185D02*
G01*
X7489125Y-88621398D01*
X7620814Y-88709390D01*
X7620827Y-88709397D01*
X7749463Y-88762679D01*
X7766503Y-88769737D01*
X7921153Y-88800499D01*
X7921156Y-88800500D01*
X7921158Y-88800500D01*
X8078844Y-88800500D01*
X8078845Y-88800499D01*
X8233497Y-88769737D01*
X8379179Y-88709394D01*
X8462669Y-88653607D01*
X8529345Y-88632730D01*
X8596725Y-88651214D01*
X8643416Y-88703193D01*
X8654592Y-88772162D01*
X8626707Y-88836226D01*
X8619241Y-88844391D01*
X8532287Y-88931345D01*
X8440187Y-89080663D01*
X8440186Y-89080666D01*
X8385001Y-89247203D01*
X8385001Y-89247204D01*
X8385000Y-89247204D01*
X8374500Y-89349983D01*
X8374500Y-89607215D01*
X8354815Y-89674254D01*
X8302011Y-89720009D01*
X8232853Y-89729953D01*
X8226309Y-89728832D01*
X8078846Y-89699500D01*
X8078842Y-89699500D01*
X7921158Y-89699500D01*
X7921155Y-89699500D01*
X7766510Y-89730261D01*
X7766502Y-89730263D01*
X7746950Y-89738362D01*
X7677480Y-89745829D01*
X7615002Y-89714554D01*
X7579350Y-89654464D01*
X7575499Y-89623800D01*
X7575499Y-89349998D01*
X7575498Y-89349981D01*
X7564999Y-89247203D01*
X7564998Y-89247200D01*
X7509814Y-89080666D01*
X7417712Y-88931344D01*
X7298549Y-88812181D01*
X7287936Y-88792744D01*
X7273436Y-88776011D01*
X7271519Y-88762679D01*
X7265064Y-88750858D01*
X7266643Y-88728771D01*
X7263492Y-88706853D01*
X7269087Y-88694601D01*
X7270048Y-88681166D01*
X7283318Y-88663439D01*
X7292517Y-88643297D01*
X7303848Y-88636014D01*
X7311920Y-88625233D01*
X7332665Y-88617495D01*
X7351295Y-88605523D01*
X7373213Y-88602371D01*
X7377384Y-88600816D01*
X7386230Y-88600500D01*
X7420234Y-88600500D01*
X7487273Y-88620185D01*
G37*
%TD.AperFunction*%
%TA.AperFunction,NonConductor*%
G36*
X4721152Y-86781993D02*
G01*
X4727630Y-86788025D01*
X6308318Y-88368713D01*
X6308320Y-88368716D01*
X6377424Y-88437820D01*
X6410908Y-88499141D01*
X6405924Y-88568833D01*
X6378459Y-88605523D01*
X6364052Y-88624768D01*
X6334155Y-88635918D01*
X6298589Y-88649184D01*
X6289743Y-88649500D01*
X6124999Y-88649500D01*
X6124980Y-88649501D01*
X6022203Y-88660000D01*
X6022200Y-88660001D01*
X5855668Y-88715185D01*
X5855663Y-88715187D01*
X5706342Y-88807289D01*
X5582289Y-88931342D01*
X5490187Y-89080663D01*
X5490186Y-89080666D01*
X5435001Y-89247203D01*
X5435001Y-89247204D01*
X5435000Y-89247204D01*
X5424500Y-89349983D01*
X5424500Y-90487062D01*
X5404815Y-90554101D01*
X5352011Y-90599856D01*
X5282853Y-90609800D01*
X5219297Y-90580775D01*
X5212819Y-90574743D01*
X4552268Y-89914192D01*
X4518783Y-89852869D01*
X4515949Y-89826511D01*
X4515949Y-86875706D01*
X4535634Y-86808667D01*
X4588438Y-86762912D01*
X4657596Y-86752968D01*
X4721152Y-86781993D01*
G37*
%TD.AperFunction*%
%TA.AperFunction,NonConductor*%
G36*
X7746949Y-91261637D02*
G01*
X7766503Y-91269737D01*
X7921153Y-91300499D01*
X7921156Y-91300500D01*
X7921158Y-91300500D01*
X8078844Y-91300500D01*
X8226308Y-91271167D01*
X8295900Y-91277394D01*
X8351077Y-91320257D01*
X8374322Y-91386146D01*
X8374500Y-91392784D01*
X8374500Y-91650000D01*
X8374501Y-91650019D01*
X8385000Y-91752796D01*
X8385001Y-91752799D01*
X8440185Y-91919331D01*
X8440187Y-91919336D01*
X8532289Y-92068657D01*
X8619240Y-92155608D01*
X8652725Y-92216931D01*
X8647741Y-92286623D01*
X8605869Y-92342556D01*
X8540405Y-92366973D01*
X8472132Y-92352121D01*
X8462668Y-92346391D01*
X8379185Y-92290609D01*
X8379172Y-92290602D01*
X8233501Y-92230264D01*
X8233489Y-92230261D01*
X8078845Y-92199500D01*
X8078842Y-92199500D01*
X7921158Y-92199500D01*
X7921155Y-92199500D01*
X7766510Y-92230261D01*
X7766498Y-92230264D01*
X7620827Y-92290602D01*
X7620814Y-92290609D01*
X7489125Y-92378602D01*
X7471078Y-92384252D01*
X7455169Y-92394477D01*
X7424207Y-92398928D01*
X7422447Y-92399480D01*
X7420234Y-92399500D01*
X7386230Y-92399500D01*
X7319191Y-92379815D01*
X7273436Y-92327011D01*
X7263492Y-92257853D01*
X7292517Y-92194297D01*
X7298549Y-92187819D01*
X7330760Y-92155608D01*
X7417712Y-92068656D01*
X7509814Y-91919334D01*
X7564999Y-91752797D01*
X7575500Y-91650009D01*
X7575499Y-91376197D01*
X7595183Y-91309160D01*
X7647987Y-91263405D01*
X7717146Y-91253461D01*
X7746949Y-91261637D01*
G37*
%TD.AperFunction*%
%TA.AperFunction,NonConductor*%
G36*
X7438377Y-93605827D02*
G01*
X7457287Y-93606165D01*
X7485504Y-93619665D01*
X7487273Y-93620185D01*
X7489125Y-93621398D01*
X7620814Y-93709390D01*
X7620827Y-93709397D01*
X7766498Y-93769735D01*
X7766503Y-93769737D01*
X7921153Y-93800499D01*
X7921156Y-93800500D01*
X7921158Y-93800500D01*
X8078844Y-93800500D01*
X8078845Y-93800499D01*
X8233497Y-93769737D01*
X8379179Y-93709394D01*
X8462669Y-93653607D01*
X8529345Y-93632730D01*
X8596725Y-93651214D01*
X8643416Y-93703193D01*
X8654592Y-93772162D01*
X8626707Y-93836226D01*
X8619241Y-93844391D01*
X8532287Y-93931345D01*
X8440187Y-94080663D01*
X8440185Y-94080668D01*
X8432474Y-94103940D01*
X8385001Y-94247203D01*
X8385001Y-94247204D01*
X8385000Y-94247204D01*
X8374500Y-94349983D01*
X8374500Y-94607215D01*
X8354815Y-94674254D01*
X8302011Y-94720009D01*
X8232853Y-94729953D01*
X8226309Y-94728832D01*
X8078846Y-94699500D01*
X8078842Y-94699500D01*
X7921158Y-94699500D01*
X7921155Y-94699500D01*
X7766510Y-94730261D01*
X7766502Y-94730263D01*
X7746950Y-94738362D01*
X7677480Y-94745829D01*
X7615002Y-94714554D01*
X7579350Y-94654464D01*
X7575499Y-94623800D01*
X7575499Y-94349998D01*
X7575498Y-94349981D01*
X7564999Y-94247203D01*
X7564998Y-94247200D01*
X7509814Y-94080666D01*
X7417712Y-93931344D01*
X7298549Y-93812181D01*
X7265064Y-93750858D01*
X7270048Y-93681166D01*
X7311920Y-93625233D01*
X7377384Y-93600816D01*
X7386230Y-93600500D01*
X7420234Y-93600500D01*
X7438377Y-93605827D01*
G37*
%TD.AperFunction*%
%TA.AperFunction,NonConductor*%
G36*
X3399984Y-95462124D02*
G01*
X3515963Y-95551117D01*
X3515962Y-95551117D01*
X3594189Y-95583519D01*
X3659001Y-95610365D01*
X3667684Y-95611508D01*
X3668385Y-95611818D01*
X3669147Y-95611709D01*
X3700314Y-95625942D01*
X3731581Y-95639774D01*
X3732003Y-95640414D01*
X3732703Y-95640734D01*
X3751212Y-95669535D01*
X3770053Y-95698098D01*
X3770200Y-95699081D01*
X3770477Y-95699512D01*
X3775500Y-95734447D01*
X3775500Y-95865552D01*
X3755815Y-95932591D01*
X3703011Y-95978346D01*
X3667692Y-95988490D01*
X3659006Y-95989633D01*
X3659000Y-95989635D01*
X3622451Y-96004774D01*
X3552981Y-96012241D01*
X3527549Y-96004774D01*
X3510759Y-95997820D01*
X3490999Y-95989635D01*
X3476629Y-95987743D01*
X3376047Y-95974500D01*
X3376040Y-95974500D01*
X3324500Y-95974500D01*
X3257461Y-95954815D01*
X3211706Y-95902011D01*
X3200500Y-95850500D01*
X3200500Y-95560501D01*
X3220185Y-95493462D01*
X3272989Y-95447707D01*
X3342147Y-95437763D01*
X3399984Y-95462124D01*
G37*
%TD.AperFunction*%
%TA.AperFunction,NonConductor*%
G36*
X7746949Y-96261637D02*
G01*
X7766503Y-96269737D01*
X7854607Y-96287262D01*
X7921153Y-96300499D01*
X7921156Y-96300500D01*
X7921158Y-96300500D01*
X8078844Y-96300500D01*
X8226308Y-96271167D01*
X8295900Y-96277394D01*
X8351077Y-96320257D01*
X8374322Y-96386146D01*
X8374500Y-96392784D01*
X8374500Y-96650000D01*
X8374501Y-96650019D01*
X8385000Y-96752796D01*
X8385001Y-96752799D01*
X8434276Y-96901500D01*
X8440186Y-96919334D01*
X8505669Y-97025500D01*
X8532289Y-97068657D01*
X8656344Y-97192712D01*
X8687607Y-97211995D01*
X8734332Y-97263943D01*
X8745555Y-97332905D01*
X8717712Y-97396987D01*
X8710192Y-97405215D01*
X7777229Y-98338181D01*
X7715906Y-98371666D01*
X7689548Y-98374500D01*
X6519900Y-98374500D01*
X6452861Y-98354815D01*
X6432219Y-98338181D01*
X5463819Y-97369781D01*
X5449115Y-97342853D01*
X5432523Y-97317035D01*
X5431631Y-97310834D01*
X5430334Y-97308458D01*
X5427500Y-97282100D01*
X5427500Y-97213230D01*
X5447185Y-97146191D01*
X5499989Y-97100436D01*
X5569147Y-97090492D01*
X5632703Y-97119517D01*
X5639181Y-97125549D01*
X5706344Y-97192712D01*
X5855666Y-97284814D01*
X6022203Y-97339999D01*
X6124991Y-97350500D01*
X6875008Y-97350499D01*
X6875016Y-97350498D01*
X6875019Y-97350498D01*
X6949858Y-97342853D01*
X6977797Y-97339999D01*
X7144334Y-97284814D01*
X7293656Y-97192712D01*
X7417712Y-97068656D01*
X7509814Y-96919334D01*
X7564999Y-96752797D01*
X7575500Y-96650009D01*
X7575499Y-96376197D01*
X7595183Y-96309160D01*
X7647987Y-96263405D01*
X7717146Y-96253461D01*
X7746949Y-96261637D01*
G37*
%TD.AperFunction*%
%TA.AperFunction,NonConductor*%
G36*
X5730809Y-59120185D02*
G01*
X5776564Y-59172989D01*
X5786508Y-59242147D01*
X5757483Y-59305703D01*
X5751451Y-59312181D01*
X5632289Y-59431342D01*
X5540187Y-59580663D01*
X5540186Y-59580666D01*
X5485001Y-59747203D01*
X5485001Y-59747204D01*
X5485000Y-59747204D01*
X5474500Y-59849983D01*
X5474500Y-62150001D01*
X5474501Y-62150018D01*
X5485000Y-62252796D01*
X5485001Y-62252799D01*
X5526880Y-62379179D01*
X5540186Y-62419334D01*
X5632288Y-62568656D01*
X5756344Y-62692712D01*
X5905666Y-62784814D01*
X6072203Y-62839999D01*
X6174991Y-62850500D01*
X6925008Y-62850499D01*
X6925016Y-62850498D01*
X6925019Y-62850498D01*
X6981302Y-62844748D01*
X7027797Y-62839999D01*
X7194334Y-62784814D01*
X7343656Y-62692712D01*
X7467712Y-62568656D01*
X7559814Y-62419334D01*
X7614999Y-62252797D01*
X7625500Y-62150009D01*
X7625499Y-61892782D01*
X7645183Y-61825745D01*
X7697987Y-61779990D01*
X7767146Y-61770046D01*
X7773691Y-61771167D01*
X7921155Y-61800500D01*
X7921158Y-61800500D01*
X8078844Y-61800500D01*
X8078845Y-61800499D01*
X8233497Y-61769737D01*
X8253048Y-61761638D01*
X8322513Y-61754169D01*
X8384993Y-61785441D01*
X8420647Y-61845529D01*
X8424500Y-61876199D01*
X8424500Y-62150000D01*
X8424501Y-62150019D01*
X8435000Y-62252796D01*
X8435001Y-62252799D01*
X8476880Y-62379179D01*
X8490186Y-62419334D01*
X8582288Y-62568656D01*
X8706344Y-62692712D01*
X8840597Y-62775519D01*
X8887321Y-62827465D01*
X8899500Y-62881057D01*
X8899500Y-63594551D01*
X8879815Y-63661590D01*
X8827011Y-63707345D01*
X8814507Y-63712256D01*
X8805667Y-63715185D01*
X8656342Y-63807289D01*
X8532289Y-63931342D01*
X8440187Y-64080663D01*
X8440186Y-64080666D01*
X8385001Y-64247203D01*
X8385001Y-64247204D01*
X8385000Y-64247204D01*
X8374500Y-64349983D01*
X8374500Y-64607215D01*
X8354815Y-64674254D01*
X8302011Y-64720009D01*
X8232853Y-64729953D01*
X8226309Y-64728832D01*
X8078846Y-64699500D01*
X8078842Y-64699500D01*
X7921158Y-64699500D01*
X7921155Y-64699500D01*
X7766510Y-64730261D01*
X7766502Y-64730263D01*
X7746950Y-64738362D01*
X7677480Y-64745829D01*
X7615002Y-64714554D01*
X7579350Y-64654464D01*
X7575499Y-64623800D01*
X7575499Y-64349998D01*
X7575498Y-64349981D01*
X7564999Y-64247203D01*
X7564998Y-64247200D01*
X7556093Y-64220328D01*
X7509814Y-64080666D01*
X7417712Y-63931344D01*
X7293656Y-63807288D01*
X7144334Y-63715186D01*
X6977797Y-63660001D01*
X6977795Y-63660000D01*
X6875010Y-63649500D01*
X6124998Y-63649500D01*
X6124980Y-63649501D01*
X6022203Y-63660000D01*
X6022200Y-63660001D01*
X5855668Y-63715185D01*
X5855663Y-63715187D01*
X5706342Y-63807289D01*
X5582289Y-63931342D01*
X5490187Y-64080663D01*
X5490186Y-64080666D01*
X5435001Y-64247203D01*
X5435001Y-64247204D01*
X5435000Y-64247204D01*
X5424500Y-64349983D01*
X5424500Y-66650001D01*
X5424501Y-66650018D01*
X5435000Y-66752796D01*
X5435001Y-66752799D01*
X5476103Y-66876834D01*
X5490186Y-66919334D01*
X5582288Y-67068656D01*
X5706344Y-67192712D01*
X5855666Y-67284814D01*
X6022203Y-67339999D01*
X6124991Y-67350500D01*
X6875008Y-67350499D01*
X6875016Y-67350498D01*
X6875019Y-67350498D01*
X6931302Y-67344748D01*
X6977797Y-67339999D01*
X7144334Y-67284814D01*
X7293656Y-67192712D01*
X7417712Y-67068656D01*
X7509814Y-66919334D01*
X7564999Y-66752797D01*
X7575500Y-66650009D01*
X7575499Y-66376197D01*
X7595183Y-66309160D01*
X7647987Y-66263405D01*
X7717146Y-66253461D01*
X7746949Y-66261637D01*
X7766503Y-66269737D01*
X7921153Y-66300499D01*
X7921156Y-66300500D01*
X7921158Y-66300500D01*
X8078844Y-66300500D01*
X8226308Y-66271167D01*
X8295900Y-66277394D01*
X8351077Y-66320257D01*
X8374322Y-66386146D01*
X8374500Y-66392784D01*
X8374500Y-66650000D01*
X8374501Y-66650019D01*
X8385000Y-66752796D01*
X8385001Y-66752799D01*
X8426103Y-66876834D01*
X8440186Y-66919334D01*
X8532288Y-67068656D01*
X8656344Y-67192712D01*
X8790597Y-67275519D01*
X8837321Y-67327465D01*
X8849500Y-67381057D01*
X8849500Y-68618942D01*
X8829815Y-68685981D01*
X8790598Y-68724479D01*
X8704209Y-68777764D01*
X8656342Y-68807289D01*
X8532289Y-68931342D01*
X8440187Y-69080663D01*
X8440186Y-69080666D01*
X8385001Y-69247203D01*
X8385001Y-69247204D01*
X8385000Y-69247204D01*
X8374500Y-69349983D01*
X8374500Y-69607215D01*
X8354815Y-69674254D01*
X8302011Y-69720009D01*
X8232853Y-69729953D01*
X8226309Y-69728832D01*
X8078846Y-69699500D01*
X8078842Y-69699500D01*
X7921158Y-69699500D01*
X7921155Y-69699500D01*
X7766510Y-69730261D01*
X7766502Y-69730263D01*
X7746950Y-69738362D01*
X7677480Y-69745829D01*
X7615002Y-69714554D01*
X7579350Y-69654464D01*
X7575499Y-69623800D01*
X7575499Y-69349998D01*
X7575498Y-69349981D01*
X7564999Y-69247203D01*
X7564998Y-69247200D01*
X7560457Y-69233497D01*
X7509814Y-69080666D01*
X7417712Y-68931344D01*
X7293656Y-68807288D01*
X7175801Y-68734595D01*
X7144336Y-68715187D01*
X7144331Y-68715185D01*
X7142862Y-68714698D01*
X6977797Y-68660001D01*
X6977795Y-68660000D01*
X6875010Y-68649500D01*
X6124998Y-68649500D01*
X6124980Y-68649501D01*
X6022203Y-68660000D01*
X6022200Y-68660001D01*
X5855668Y-68715185D01*
X5855663Y-68715187D01*
X5706342Y-68807289D01*
X5582289Y-68931342D01*
X5490187Y-69080663D01*
X5490186Y-69080666D01*
X5435001Y-69247203D01*
X5435001Y-69247204D01*
X5435000Y-69247204D01*
X5424500Y-69349983D01*
X5424500Y-70775903D01*
X5404815Y-70842942D01*
X5352011Y-70888697D01*
X5282853Y-70898641D01*
X5219297Y-70869616D01*
X5212819Y-70863584D01*
X3087590Y-68738355D01*
X3087588Y-68738352D01*
X2968717Y-68619481D01*
X2968716Y-68619480D01*
X2881904Y-68569360D01*
X2881904Y-68569359D01*
X2881900Y-68569358D01*
X2831785Y-68540423D01*
X2679057Y-68499499D01*
X2520943Y-68499499D01*
X2513347Y-68499499D01*
X2513331Y-68499500D01*
X749097Y-68499500D01*
X682058Y-68479815D01*
X636303Y-68427011D01*
X626359Y-68357853D01*
X655384Y-68294297D01*
X661416Y-68287819D01*
X1328414Y-67620821D01*
X2014662Y-66934572D01*
X2075983Y-66901089D01*
X2078150Y-66900638D01*
X2136085Y-66889113D01*
X2233497Y-66869737D01*
X2379179Y-66809394D01*
X2510289Y-66721789D01*
X2621789Y-66610289D01*
X2709394Y-66479179D01*
X2712340Y-66472068D01*
X2752049Y-66376199D01*
X2769737Y-66333497D01*
X2800500Y-66178842D01*
X2800500Y-66021158D01*
X2800500Y-66021155D01*
X2800499Y-66021153D01*
X2769738Y-65866510D01*
X2769738Y-65866508D01*
X2769737Y-65866503D01*
X2718046Y-65741708D01*
X2709397Y-65720827D01*
X2709390Y-65720814D01*
X2621789Y-65589711D01*
X2621786Y-65589707D01*
X2510292Y-65478213D01*
X2510288Y-65478210D01*
X2379185Y-65390609D01*
X2379172Y-65390602D01*
X2233501Y-65330264D01*
X2233489Y-65330261D01*
X2078845Y-65299500D01*
X2078842Y-65299500D01*
X1921158Y-65299500D01*
X1921155Y-65299500D01*
X1766510Y-65330261D01*
X1766498Y-65330264D01*
X1620827Y-65390602D01*
X1620814Y-65390609D01*
X1489711Y-65478210D01*
X1489707Y-65478213D01*
X1378213Y-65589707D01*
X1378210Y-65589711D01*
X1290609Y-65720814D01*
X1290602Y-65720827D01*
X1230264Y-65866498D01*
X1230261Y-65866508D01*
X1199361Y-66021850D01*
X1166976Y-66083761D01*
X1165425Y-66085339D01*
X812181Y-66438583D01*
X750858Y-66472068D01*
X681166Y-66467084D01*
X625233Y-66425212D01*
X600816Y-66359748D01*
X600500Y-66350902D01*
X600500Y-65300097D01*
X620185Y-65233058D01*
X636819Y-65212416D01*
X1768572Y-64080663D01*
X3014664Y-62834571D01*
X3075985Y-62801088D01*
X3078152Y-62800637D01*
X3078841Y-62800500D01*
X3078842Y-62800500D01*
X3233497Y-62769737D01*
X3379179Y-62709394D01*
X3510289Y-62621789D01*
X3621789Y-62510289D01*
X3709394Y-62379179D01*
X3769737Y-62233497D01*
X3800500Y-62078842D01*
X3800500Y-61921158D01*
X3800500Y-61921155D01*
X3800499Y-61921153D01*
X3773504Y-61785441D01*
X3769737Y-61766503D01*
X3733538Y-61679110D01*
X3709397Y-61620827D01*
X3709390Y-61620814D01*
X3621789Y-61489711D01*
X3621786Y-61489707D01*
X3510292Y-61378213D01*
X3510288Y-61378210D01*
X3379185Y-61290609D01*
X3379172Y-61290602D01*
X3233501Y-61230264D01*
X3233489Y-61230261D01*
X3078845Y-61199500D01*
X3078842Y-61199500D01*
X2921158Y-61199500D01*
X2921155Y-61199500D01*
X2766510Y-61230261D01*
X2766498Y-61230264D01*
X2620827Y-61290602D01*
X2620814Y-61290609D01*
X2489711Y-61378210D01*
X2489707Y-61378213D01*
X2378213Y-61489707D01*
X2378210Y-61489711D01*
X2290609Y-61620814D01*
X2290602Y-61620827D01*
X2230264Y-61766498D01*
X2230261Y-61766508D01*
X2199362Y-61921848D01*
X2166977Y-61983759D01*
X2165426Y-61985337D01*
X-364374Y-64515139D01*
X-364384Y-64515149D01*
X-364385Y-64515149D01*
X-480521Y-64631285D01*
X-493903Y-64654464D01*
X-519904Y-64699500D01*
X-559577Y-64768215D01*
X-600501Y-64920943D01*
X-600501Y-64920945D01*
X-600501Y-65089046D01*
X-600500Y-65089059D01*
X-600500Y-66199902D01*
X-620185Y-66266941D01*
X-636819Y-66287583D01*
X-1062416Y-66713181D01*
X-1123739Y-66746666D01*
X-1150097Y-66749500D01*
X-1538150Y-66749500D01*
X-1538175Y-66749501D01*
X-1573627Y-66752291D01*
X-1725385Y-66796380D01*
X-1725390Y-66796382D01*
X-1861416Y-66876827D01*
X-1861425Y-66876834D01*
X-1973166Y-66988575D01*
X-1977520Y-66994188D01*
X-2034163Y-67035095D01*
X-2103930Y-67038885D01*
X-2164670Y-67004354D01*
X-2197100Y-66942467D01*
X-2198610Y-66927189D01*
X-2198903Y-66927218D01*
X-2199500Y-66921153D01*
X-2230261Y-66766510D01*
X-2230264Y-66766498D01*
X-2290602Y-66620827D01*
X-2290609Y-66620814D01*
X-2378210Y-66489711D01*
X-2378213Y-66489707D01*
X-2489707Y-66378213D01*
X-2489711Y-66378210D01*
X-2620814Y-66290609D01*
X-2620827Y-66290602D01*
X-2766498Y-66230264D01*
X-2766510Y-66230261D01*
X-2921155Y-66199500D01*
X-2921158Y-66199500D01*
X-3078842Y-66199500D01*
X-3078845Y-66199500D01*
X-3166507Y-66216937D01*
X-3236098Y-66210710D01*
X-3291276Y-66167847D01*
X-3314520Y-66101957D01*
X-3314328Y-66093306D01*
X-3314500Y-66093306D01*
X-3314500Y-65912781D01*
X-3348527Y-65741716D01*
X-3348529Y-65741708D01*
X-3415278Y-65580560D01*
X-3415282Y-65580553D01*
X-3475006Y-65491170D01*
X-3495883Y-65424493D01*
X-3477398Y-65357113D01*
X-3425419Y-65310423D01*
X-3356449Y-65299247D01*
X-3324456Y-65307717D01*
X-3270330Y-65330137D01*
X-3046149Y-65390206D01*
X-2816045Y-65420500D01*
X-2816038Y-65420500D01*
X-2583962Y-65420500D01*
X-2583955Y-65420500D01*
X-2353851Y-65390206D01*
X-2129670Y-65330137D01*
X-1915248Y-65241320D01*
X-1915240Y-65241315D01*
X-1915237Y-65241314D01*
X-1714256Y-65125279D01*
X-1714254Y-65125278D01*
X-1530124Y-64983990D01*
X-1530117Y-64983984D01*
X-1366015Y-64819882D01*
X-1366009Y-64819875D01*
X-1224721Y-64635745D01*
X-1224720Y-64635743D01*
X-1108685Y-64434762D01*
X-1108677Y-64434745D01*
X-1019862Y-64220328D01*
X-959794Y-63996148D01*
X-929500Y-63766052D01*
X-929500Y-63533947D01*
X-959794Y-63303851D01*
X-1019862Y-63079671D01*
X-1108677Y-62865254D01*
X-1108685Y-62865237D01*
X-1224720Y-62664256D01*
X-1224721Y-62664254D01*
X-1366009Y-62480124D01*
X-1366015Y-62480117D01*
X-1530117Y-62316015D01*
X-1530124Y-62316009D01*
X-1714254Y-62174721D01*
X-1714256Y-62174720D01*
X-1915237Y-62058685D01*
X-1915254Y-62058677D01*
X-2129671Y-61969862D01*
X-2353851Y-61909794D01*
X-2583947Y-61879500D01*
X-2583955Y-61879500D01*
X-2816045Y-61879500D01*
X-2816052Y-61879500D01*
X-3017386Y-61906007D01*
X-3046149Y-61909794D01*
X-3088560Y-61921158D01*
X-3270328Y-61969862D01*
X-3484745Y-62058677D01*
X-3484752Y-62058680D01*
X-3484754Y-62058681D01*
X-3484762Y-62058685D01*
X-3685743Y-62174720D01*
X-3685745Y-62174721D01*
X-3869875Y-62316009D01*
X-3869882Y-62316015D01*
X-4033984Y-62480117D01*
X-4033990Y-62480124D01*
X-4175278Y-62664254D01*
X-4175279Y-62664256D01*
X-4291314Y-62865237D01*
X-4291320Y-62865248D01*
X-4380137Y-63079670D01*
X-4440206Y-63303851D01*
X-4470500Y-63533955D01*
X-4470500Y-63766045D01*
X-4440206Y-63996149D01*
X-4380137Y-64220330D01*
X-4291320Y-64434752D01*
X-4175276Y-64635748D01*
X-4033989Y-64819877D01*
X-3935690Y-64918175D01*
X-3902207Y-64979496D01*
X-3907191Y-65049188D01*
X-3949062Y-65105122D01*
X-4014526Y-65129539D01*
X-4047563Y-65127473D01*
X-4095112Y-65118015D01*
X-4112786Y-65114500D01*
X-4287214Y-65114500D01*
X-4287218Y-65114500D01*
X-4458283Y-65148527D01*
X-4458291Y-65148529D01*
X-4619439Y-65215278D01*
X-4619448Y-65215283D01*
X-4764473Y-65312186D01*
X-4764477Y-65312189D01*
X-4887810Y-65435522D01*
X-4887813Y-65435526D01*
X-4984716Y-65580551D01*
X-4984717Y-65580553D01*
X-4984720Y-65580558D01*
X-5051471Y-65741709D01*
X-5085500Y-65912786D01*
X-5085500Y-66087214D01*
X-5051471Y-66258291D01*
X-4984720Y-66419442D01*
X-4890174Y-66560939D01*
X-4869297Y-66627615D01*
X-4887781Y-66694995D01*
X-4939760Y-66741686D01*
X-4971001Y-66751812D01*
X-4973633Y-66752292D01*
X-5125385Y-66796380D01*
X-5125390Y-66796382D01*
X-5261416Y-66876827D01*
X-5261425Y-66876834D01*
X-5373165Y-66988574D01*
X-5373168Y-66988578D01*
X-5373170Y-66988580D01*
X-5453618Y-67124610D01*
X-5497709Y-67276373D01*
X-5500500Y-67311837D01*
X-5500499Y-67688162D01*
X-5497709Y-67723627D01*
X-5485252Y-67766503D01*
X-5456519Y-67865405D01*
X-5456519Y-67934595D01*
X-5497709Y-68076373D01*
X-5500500Y-68111837D01*
X-5500499Y-68488162D01*
X-5497709Y-68523627D01*
X-5461140Y-68649500D01*
X-5456519Y-68665405D01*
X-5456519Y-68734595D01*
X-5457611Y-68738355D01*
X-5497709Y-68876373D01*
X-5500500Y-68911837D01*
X-5500499Y-69288162D01*
X-5497709Y-69323627D01*
X-5460409Y-69452014D01*
X-5456519Y-69465405D01*
X-5456519Y-69534595D01*
X-5497709Y-69676373D01*
X-5500500Y-69711837D01*
X-5500499Y-70088162D01*
X-5497709Y-70123627D01*
X-5453618Y-70275390D01*
X-5373170Y-70411420D01*
X-5261420Y-70523170D01*
X-5125390Y-70603618D01*
X-4973627Y-70647709D01*
X-4938163Y-70650500D01*
X-3861838Y-70650499D01*
X-3861826Y-70650498D01*
X-3861824Y-70650498D01*
X-3858310Y-70650221D01*
X-3826373Y-70647709D01*
X-3674610Y-70603618D01*
X-3665561Y-70598266D01*
X-3597843Y-70581083D01*
X-3531579Y-70603240D01*
X-3514760Y-70617317D01*
X-3510289Y-70621789D01*
X-3510286Y-70621791D01*
X-3390419Y-70701884D01*
X-3379179Y-70709394D01*
X-3233497Y-70769737D01*
X-3078845Y-70800499D01*
X-3078844Y-70800500D01*
X-3078842Y-70800500D01*
X-2921156Y-70800500D01*
X-2921153Y-70800499D01*
X-2766503Y-70769737D01*
X-2766498Y-70769735D01*
X-2620827Y-70709397D01*
X-2620814Y-70709390D01*
X-2489711Y-70621789D01*
X-2489707Y-70621786D01*
X-2378213Y-70510292D01*
X-2378210Y-70510288D01*
X-2290609Y-70379185D01*
X-2290602Y-70379172D01*
X-2262675Y-70311748D01*
X-2218835Y-70257344D01*
X-2152540Y-70235279D01*
X-2084841Y-70252558D01*
X-2041383Y-70296077D01*
X-1973170Y-70411420D01*
X-1861420Y-70523170D01*
X-1725390Y-70603618D01*
X-1573627Y-70647709D01*
X-1538163Y-70650500D01*
X-1461259Y-70650499D01*
X-1431824Y-70659142D01*
X-1401843Y-70665661D01*
X-1396822Y-70669419D01*
X-1394221Y-70670183D01*
X-1373590Y-70686805D01*
X-1368716Y-70691680D01*
X-1368713Y-70691681D01*
X-182185Y-71878210D01*
X127424Y-72187819D01*
X160909Y-72249142D01*
X155925Y-72318834D01*
X114053Y-72374767D01*
X48589Y-72399184D01*
X39743Y-72399500D01*
X-1812330Y-72399500D01*
X-1812346Y-72399499D01*
X-1819942Y-72399499D01*
X-1978057Y-72399499D01*
X-2064503Y-72422662D01*
X-2134353Y-72420999D01*
X-2192215Y-72381836D01*
X-2218213Y-72327079D01*
X-2230261Y-72266508D01*
X-2230264Y-72266498D01*
X-2290602Y-72120827D01*
X-2290609Y-72120814D01*
X-2378210Y-71989711D01*
X-2378213Y-71989707D01*
X-2489707Y-71878213D01*
X-2489711Y-71878210D01*
X-2620814Y-71790609D01*
X-2620827Y-71790602D01*
X-2766498Y-71730264D01*
X-2766510Y-71730261D01*
X-2921155Y-71699500D01*
X-2921158Y-71699500D01*
X-3078842Y-71699500D01*
X-3078845Y-71699500D01*
X-3233489Y-71730261D01*
X-3233501Y-71730264D01*
X-3379172Y-71790602D01*
X-3379185Y-71790609D01*
X-3510288Y-71878210D01*
X-3510292Y-71878213D01*
X-3621786Y-71989707D01*
X-3621789Y-71989711D01*
X-3709390Y-72120814D01*
X-3709397Y-72120827D01*
X-3762546Y-72249142D01*
X-3769737Y-72266503D01*
X-3779188Y-72314018D01*
X-3800638Y-72421849D01*
X-3833023Y-72483760D01*
X-3834574Y-72485339D01*
X-4462416Y-73113181D01*
X-4523739Y-73146666D01*
X-4550097Y-73149500D01*
X-4938150Y-73149500D01*
X-4938175Y-73149501D01*
X-4973627Y-73152291D01*
X-5125385Y-73196380D01*
X-5125390Y-73196382D01*
X-5261416Y-73276827D01*
X-5261425Y-73276834D01*
X-5373165Y-73388574D01*
X-5373168Y-73388578D01*
X-5373170Y-73388580D01*
X-5453618Y-73524610D01*
X-5477125Y-73605523D01*
X-5492726Y-73659223D01*
X-5497709Y-73676373D01*
X-5500500Y-73711837D01*
X-5500499Y-74088162D01*
X-5497709Y-74123627D01*
X-5461808Y-74247200D01*
X-5456519Y-74265405D01*
X-5456519Y-74334595D01*
X-5460992Y-74349991D01*
X-5497709Y-74476373D01*
X-5500500Y-74511837D01*
X-5500499Y-74888162D01*
X-5497709Y-74923627D01*
X-5460409Y-75052014D01*
X-5456519Y-75065405D01*
X-5456519Y-75134595D01*
X-5497709Y-75276373D01*
X-5500500Y-75311837D01*
X-5500499Y-75688162D01*
X-5497709Y-75723627D01*
X-5460409Y-75852014D01*
X-5456519Y-75865405D01*
X-5456519Y-75934595D01*
X-5497709Y-76076373D01*
X-5500500Y-76111837D01*
X-5500499Y-76488162D01*
X-5497709Y-76523627D01*
X-5460994Y-76650000D01*
X-5456519Y-76665405D01*
X-5456519Y-76734595D01*
X-5461807Y-76752796D01*
X-5497709Y-76876373D01*
X-5500500Y-76911837D01*
X-5500499Y-77288162D01*
X-5497709Y-77323627D01*
X-5453618Y-77475390D01*
X-5373170Y-77611420D01*
X-5261420Y-77723170D01*
X-5125390Y-77803618D01*
X-4973627Y-77847709D01*
X-4938163Y-77850500D01*
X-3861838Y-77850499D01*
X-3861826Y-77850498D01*
X-3861824Y-77850498D01*
X-3858310Y-77850221D01*
X-3826373Y-77847709D01*
X-3674610Y-77803618D01*
X-3538580Y-77723170D01*
X-3531865Y-77719199D01*
X-3530430Y-77721623D01*
X-3521325Y-77718049D01*
X-3501834Y-77705523D01*
X-3482241Y-77702706D01*
X-3477858Y-77700985D01*
X-3466899Y-77700500D01*
X-3352150Y-77700500D01*
X-3285111Y-77720185D01*
X-3239356Y-77772989D01*
X-3229412Y-77842147D01*
X-3258437Y-77905703D01*
X-3264469Y-77912181D01*
X-3387810Y-78035522D01*
X-3387813Y-78035526D01*
X-3484716Y-78180551D01*
X-3484719Y-78180557D01*
X-3484720Y-78180558D01*
X-3551471Y-78341709D01*
X-3585500Y-78512786D01*
X-3585500Y-78687214D01*
X-3551471Y-78858291D01*
X-3484720Y-79019442D01*
X-3484716Y-79019447D01*
X-3484716Y-79019448D01*
X-3391136Y-79159501D01*
X-3370258Y-79226179D01*
X-3388743Y-79293559D01*
X-3440721Y-79340249D01*
X-3446785Y-79342953D01*
X-3484745Y-79358676D01*
X-3484762Y-79358685D01*
X-3685743Y-79474720D01*
X-3685745Y-79474721D01*
X-3869875Y-79616009D01*
X-3869882Y-79616015D01*
X-4033984Y-79780117D01*
X-4033990Y-79780124D01*
X-4175278Y-79964254D01*
X-4175279Y-79964256D01*
X-4291314Y-80165237D01*
X-4291320Y-80165248D01*
X-4380137Y-80379670D01*
X-4440206Y-80603851D01*
X-4463801Y-80783070D01*
X-4470383Y-80833070D01*
X-4470500Y-80833955D01*
X-4470500Y-81066045D01*
X-4440206Y-81296149D01*
X-4380137Y-81520330D01*
X-4291320Y-81734752D01*
X-4249203Y-81807701D01*
X-4182957Y-81922445D01*
X-4175276Y-81935748D01*
X-4033989Y-82119877D01*
X-3869877Y-82283989D01*
X-3685748Y-82425276D01*
X-3484752Y-82541320D01*
X-3270330Y-82630137D01*
X-3046149Y-82690206D01*
X-2816045Y-82720500D01*
X-2816038Y-82720500D01*
X-2583962Y-82720500D01*
X-2583955Y-82720500D01*
X-2353851Y-82690206D01*
X-2129670Y-82630137D01*
X-1915248Y-82541320D01*
X-1915240Y-82541315D01*
X-1915237Y-82541314D01*
X-1714256Y-82425279D01*
X-1714254Y-82425278D01*
X-1530124Y-82283990D01*
X-1530117Y-82283984D01*
X-1366015Y-82119882D01*
X-1366009Y-82119875D01*
X-1224721Y-81935745D01*
X-1224720Y-81935743D01*
X-1108685Y-81734762D01*
X-1108677Y-81734745D01*
X-1019862Y-81520328D01*
X-964289Y-81312924D01*
X-959794Y-81296149D01*
X-953686Y-81249754D01*
X-929500Y-81066052D01*
X-929500Y-80833947D01*
X-959794Y-80603851D01*
X-1019862Y-80379671D01*
X-1108677Y-80165254D01*
X-1108685Y-80165237D01*
X-1224720Y-79964256D01*
X-1224721Y-79964254D01*
X-1366009Y-79780124D01*
X-1366015Y-79780117D01*
X-1530117Y-79616015D01*
X-1530124Y-79616009D01*
X-1714254Y-79474721D01*
X-1714256Y-79474720D01*
X-1915237Y-79358685D01*
X-1915262Y-79358672D01*
X-1953215Y-79342952D01*
X-2007618Y-79299111D01*
X-2029682Y-79232816D01*
X-2012402Y-79165117D01*
X-2008863Y-79159502D01*
X-1915286Y-79019453D01*
X-1915278Y-79019439D01*
X-1848529Y-78858291D01*
X-1848527Y-78858283D01*
X-1814500Y-78687218D01*
X-1814500Y-78512781D01*
X-1848527Y-78341716D01*
X-1848529Y-78341708D01*
X-1915278Y-78180560D01*
X-1915283Y-78180551D01*
X-2012186Y-78035526D01*
X-2012189Y-78035522D01*
X-2135531Y-77912181D01*
X-2146143Y-77892744D01*
X-2160644Y-77876011D01*
X-2162560Y-77862679D01*
X-2169016Y-77850858D01*
X-2167436Y-77828771D01*
X-2170588Y-77806853D01*
X-2164992Y-77794601D01*
X-2164032Y-77781166D01*
X-2150761Y-77763439D01*
X-2141563Y-77743297D01*
X-2130231Y-77736014D01*
X-2122160Y-77725233D01*
X-2101414Y-77717495D01*
X-2082785Y-77705523D01*
X-2060866Y-77702371D01*
X-2056696Y-77700816D01*
X-2047850Y-77700500D01*
X-1933101Y-77700500D01*
X-1868325Y-77719520D01*
X-1868135Y-77719199D01*
X-1866867Y-77719948D01*
X-1866062Y-77720185D01*
X-1863985Y-77721653D01*
X-1861420Y-77723169D01*
X-1861420Y-77723170D01*
X-1725390Y-77803618D01*
X-1573627Y-77847709D01*
X-1538163Y-77850500D01*
X-461838Y-77850499D01*
X-461826Y-77850498D01*
X-461824Y-77850498D01*
X-458310Y-77850221D01*
X-426373Y-77847709D01*
X-274610Y-77803618D01*
X-138580Y-77723170D01*
X-70002Y-77654592D01*
X-8682Y-77621109D01*
X61010Y-77626093D01*
X105358Y-77654594D01*
X1863181Y-79412417D01*
X1896666Y-79473740D01*
X1899500Y-79500098D01*
X1899500Y-89920234D01*
X1879815Y-89987273D01*
X1878602Y-89989125D01*
X1790609Y-90120814D01*
X1790602Y-90120827D01*
X1730264Y-90266498D01*
X1730261Y-90266510D01*
X1699500Y-90421153D01*
X1699500Y-90578846D01*
X1730261Y-90733489D01*
X1730264Y-90733501D01*
X1790602Y-90879172D01*
X1790609Y-90879185D01*
X1878210Y-91010288D01*
X1878213Y-91010292D01*
X1989707Y-91121786D01*
X1989711Y-91121789D01*
X2120814Y-91209390D01*
X2120827Y-91209397D01*
X2251216Y-91263405D01*
X2266503Y-91269737D01*
X2421153Y-91300499D01*
X2421156Y-91300500D01*
X2421158Y-91300500D01*
X2578844Y-91300500D01*
X2578845Y-91300499D01*
X2733497Y-91269737D01*
X2879179Y-91209394D01*
X3010289Y-91121789D01*
X3121789Y-91010289D01*
X3209394Y-90879179D01*
X3269737Y-90733497D01*
X3291401Y-90624584D01*
X3296111Y-90615580D01*
X3296836Y-90605444D01*
X3312030Y-90585146D01*
X3323785Y-90562674D01*
X3332617Y-90557644D01*
X3338707Y-90549510D01*
X3362464Y-90540648D01*
X3384501Y-90528100D01*
X3394648Y-90528643D01*
X3404171Y-90525092D01*
X3428950Y-90530482D01*
X3454270Y-90531839D01*
X3464330Y-90538178D01*
X3472444Y-90539943D01*
X3500695Y-90561092D01*
X3500698Y-90561094D01*
X3546733Y-90607129D01*
X3546734Y-90607129D01*
X3553802Y-90614197D01*
X3553804Y-90614199D01*
X6377423Y-93437819D01*
X6410908Y-93499142D01*
X6405924Y-93568834D01*
X6364052Y-93624767D01*
X6298588Y-93649184D01*
X6289743Y-93649500D01*
X6124999Y-93649500D01*
X6124980Y-93649501D01*
X6022203Y-93660000D01*
X6022200Y-93660001D01*
X5855668Y-93715185D01*
X5855663Y-93715187D01*
X5706342Y-93807289D01*
X5582289Y-93931342D01*
X5490187Y-94080663D01*
X5490183Y-94080672D01*
X5475584Y-94124729D01*
X5474230Y-94126683D01*
X5474061Y-94129055D01*
X5454445Y-94155259D01*
X5435811Y-94182173D01*
X5433615Y-94183085D01*
X5432191Y-94184989D01*
X5401513Y-94196431D01*
X5371294Y-94208995D01*
X5368954Y-94208576D01*
X5366727Y-94209407D01*
X5334739Y-94202448D01*
X5302519Y-94196679D01*
X5300054Y-94194904D01*
X5298454Y-94194556D01*
X5270198Y-94173404D01*
X5265851Y-94169057D01*
X5221522Y-94124729D01*
X5200733Y-94103940D01*
X5200729Y-94103937D01*
X4651400Y-93554608D01*
X4651380Y-93554586D01*
X4559935Y-93463141D01*
X4514527Y-93432801D01*
X4514526Y-93432800D01*
X4508711Y-93428915D01*
X4457488Y-93394688D01*
X4376994Y-93361347D01*
X4361659Y-93354995D01*
X4343655Y-93347537D01*
X4333629Y-93345543D01*
X4283231Y-93335518D01*
X4277510Y-93334380D01*
X4222812Y-93323500D01*
X4222809Y-93323500D01*
X4222808Y-93323500D01*
X3412606Y-93323500D01*
X3289393Y-93323500D01*
X3289389Y-93323500D01*
X3234687Y-93334380D01*
X3234676Y-93334383D01*
X3228971Y-93335518D01*
X3168548Y-93347537D01*
X3117418Y-93368716D01*
X3111542Y-93371149D01*
X3111535Y-93371152D01*
X3054715Y-93394687D01*
X2952265Y-93463142D01*
X2952262Y-93463145D01*
X2677228Y-93738181D01*
X2615905Y-93771666D01*
X2589547Y-93774500D01*
X2473952Y-93774500D01*
X2371774Y-93787953D01*
X2359001Y-93789635D01*
X2359000Y-93789635D01*
X2358997Y-93789636D01*
X2215963Y-93848882D01*
X2093133Y-93943133D01*
X1998882Y-94065963D01*
X1939637Y-94208995D01*
X1939635Y-94209002D01*
X1924500Y-94323952D01*
X1924500Y-95076047D01*
X1939635Y-95190997D01*
X1939635Y-95190999D01*
X1990061Y-95312738D01*
X1999500Y-95360191D01*
X1999500Y-96239809D01*
X1990061Y-96287260D01*
X1980990Y-96309160D01*
X1939635Y-96409000D01*
X1939635Y-96409002D01*
X1924500Y-96523952D01*
X1924500Y-96901500D01*
X1904815Y-96968539D01*
X1852011Y-97014294D01*
X1800500Y-97025500D01*
X-573903Y-97025500D01*
X-640942Y-97005815D01*
X-661584Y-96989181D01*
X-1571896Y-96078867D01*
X-1605381Y-96017544D01*
X-1602146Y-95952868D01*
X-1557753Y-95816240D01*
X-1524500Y-95606286D01*
X-1524500Y-95393713D01*
X-1557753Y-95183760D01*
X-1623444Y-94981585D01*
X-1719951Y-94792179D01*
X-1844889Y-94620215D01*
X-1983706Y-94481398D01*
X-2017190Y-94420075D01*
X-2012206Y-94350383D01*
X-1970334Y-94294450D01*
X-1961120Y-94288178D01*
X-1894688Y-94247203D01*
X-1806344Y-94192712D01*
X-1682288Y-94068656D01*
X-1597594Y-93931344D01*
X-1590187Y-93919336D01*
X-1590185Y-93919331D01*
X-1566841Y-93848883D01*
X-1535001Y-93752797D01*
X-1535001Y-93752795D01*
X-1535000Y-93752795D01*
X-1524500Y-93650016D01*
X-1524500Y-92349998D01*
X-1524501Y-92349981D01*
X-1535000Y-92247203D01*
X-1535001Y-92247200D01*
X-1590185Y-92080668D01*
X-1590187Y-92080663D01*
X-1682289Y-91931342D01*
X-1806342Y-91807289D01*
X-1955663Y-91715187D01*
X-1955668Y-91715185D01*
X-2039670Y-91687349D01*
X-2122203Y-91660001D01*
X-2122204Y-91660000D01*
X-2224989Y-91649500D01*
X-3775001Y-91649500D01*
X-3775018Y-91649501D01*
X-3877796Y-91660000D01*
X-3877799Y-91660001D01*
X-4044331Y-91715185D01*
X-4044334Y-91715186D01*
X-4193656Y-91807288D01*
X-4317712Y-91931344D01*
X-4409814Y-92080666D01*
X-4464999Y-92247203D01*
X-4475500Y-92349991D01*
X-4475499Y-93650008D01*
X-4464999Y-93752797D01*
X-4409814Y-93919334D01*
X-4317712Y-94068656D01*
X-4193656Y-94192712D01*
X-4044334Y-94284814D01*
X-4044331Y-94284814D01*
X-4038879Y-94288178D01*
X-3992154Y-94340126D01*
X-3980931Y-94409088D01*
X-4008774Y-94473170D01*
X-4016294Y-94481398D01*
X-4155109Y-94620213D01*
X-4280048Y-94792179D01*
X-4280049Y-94792181D01*
X-4280051Y-94792184D01*
X-4376557Y-94981588D01*
X-4442246Y-95183757D01*
X-4475500Y-95393713D01*
X-4475500Y-95606287D01*
X-4442246Y-95816243D01*
X-4376557Y-96018412D01*
X-4280051Y-96207816D01*
X-4277497Y-96211331D01*
X-4155109Y-96379786D01*
X-4155106Y-96379788D01*
X-4155104Y-96379792D01*
X-4004792Y-96530104D01*
X-3840204Y-96649683D01*
X-3797540Y-96705011D01*
X-3791561Y-96774624D01*
X-3824166Y-96836420D01*
X-3840199Y-96850313D01*
X-4002924Y-96968539D01*
X-4004792Y-96969896D01*
X-4155109Y-97120213D01*
X-4280048Y-97292179D01*
X-4280049Y-97292181D01*
X-4280051Y-97292184D01*
X-4376557Y-97481588D01*
X-4442246Y-97683757D01*
X-4475500Y-97893713D01*
X-4475500Y-98106287D01*
X-4442246Y-98316243D01*
X-4376557Y-98518412D01*
X-4280051Y-98707816D01*
X-4280048Y-98707820D01*
X-4155109Y-98879786D01*
X-4155106Y-98879788D01*
X-4155104Y-98879792D01*
X-4054378Y-98980518D01*
X-4004792Y-99030104D01*
X-4004786Y-99030109D01*
X-3964226Y-99059577D01*
X-3832816Y-99155051D01*
X-3643412Y-99251557D01*
X-3441243Y-99317246D01*
X-3231287Y-99350500D01*
X-3231286Y-99350500D01*
X-2768714Y-99350500D01*
X-2768713Y-99350500D01*
X-2558757Y-99317246D01*
X-2356588Y-99251557D01*
X-2167184Y-99155051D01*
X-2149537Y-99142230D01*
X-2124694Y-99124181D01*
X-2058887Y-99100702D01*
X-2051810Y-99100500D01*
X3205430Y-99100500D01*
X3205446Y-99100501D01*
X3213042Y-99100501D01*
X3371153Y-99100501D01*
X3371156Y-99100501D01*
X3523884Y-99059577D01*
X3574932Y-99030104D01*
X3660815Y-98980520D01*
X3772619Y-98868716D01*
X3772619Y-98868714D01*
X3782823Y-98858511D01*
X3782827Y-98858506D01*
X4395415Y-98245917D01*
X4456736Y-98212434D01*
X4526428Y-98217418D01*
X4570775Y-98245919D01*
X5697936Y-99373081D01*
X5731421Y-99434404D01*
X5726437Y-99504096D01*
X5684565Y-99560029D01*
X5657709Y-99575323D01*
X5568978Y-99612077D01*
X5568971Y-99612080D01*
X5330516Y-99749754D01*
X5112073Y-99917370D01*
X5112066Y-99917376D01*
X4917376Y-100112066D01*
X4917370Y-100112073D01*
X4749754Y-100330516D01*
X4612080Y-100568971D01*
X4612075Y-100568982D01*
X4506704Y-100823369D01*
X4435441Y-101089331D01*
X4435438Y-101089344D01*
X4399501Y-101362315D01*
X4399500Y-101362332D01*
X4399500Y-101637667D01*
X4399501Y-101637684D01*
X4435438Y-101910655D01*
X4435439Y-101910660D01*
X4435440Y-101910666D01*
X4435441Y-101910668D01*
X4506704Y-102176630D01*
X4612075Y-102431017D01*
X4612080Y-102431028D01*
X4691809Y-102569121D01*
X4749751Y-102669479D01*
X4749753Y-102669482D01*
X4749754Y-102669483D01*
X4917370Y-102887926D01*
X4917376Y-102887933D01*
X5112066Y-103082623D01*
X5112072Y-103082628D01*
X5330521Y-103250249D01*
X5483778Y-103338732D01*
X5568971Y-103387919D01*
X5568976Y-103387921D01*
X5568979Y-103387923D01*
X5823368Y-103493295D01*
X6089334Y-103564560D01*
X6362326Y-103600500D01*
X6362333Y-103600500D01*
X6637667Y-103600500D01*
X6637674Y-103600500D01*
X6910666Y-103564560D01*
X7176632Y-103493295D01*
X7431021Y-103387923D01*
X7669479Y-103250249D01*
X7887928Y-103082628D01*
X8082628Y-102887928D01*
X8250249Y-102669479D01*
X8387923Y-102431021D01*
X8493295Y-102176632D01*
X8564560Y-101910666D01*
X8600500Y-101637674D01*
X8600500Y-101362326D01*
X8564560Y-101089334D01*
X8493295Y-100823368D01*
X8387923Y-100568979D01*
X8387921Y-100568976D01*
X8387919Y-100568971D01*
X8338732Y-100483778D01*
X8250249Y-100330521D01*
X8082628Y-100112072D01*
X8082623Y-100112066D01*
X7887933Y-99917376D01*
X7887926Y-99917370D01*
X7797359Y-99847876D01*
X7756156Y-99791448D01*
X7752001Y-99721702D01*
X7786213Y-99660782D01*
X7847930Y-99628029D01*
X7872845Y-99625500D01*
X8061608Y-99625500D01*
X8061608Y-99625499D01*
X8129090Y-99612077D01*
X8182452Y-99601463D01*
X8215792Y-99587652D01*
X8296286Y-99554312D01*
X8367533Y-99506705D01*
X8398733Y-99485858D01*
X8485858Y-99398733D01*
X8485858Y-99398731D01*
X8496066Y-99388524D01*
X8496067Y-99388521D01*
X9935858Y-97948733D01*
X10004312Y-97846285D01*
X10036649Y-97768215D01*
X10051463Y-97732452D01*
X10061149Y-97683757D01*
X10075501Y-97611606D01*
X10075501Y-97488393D01*
X10075501Y-97483283D01*
X10075500Y-97483257D01*
X10075500Y-97365638D01*
X10095185Y-97298599D01*
X10134401Y-97260100D01*
X10243656Y-97192712D01*
X10367712Y-97068656D01*
X10459814Y-96919334D01*
X10514999Y-96752797D01*
X10525500Y-96650009D01*
X10525499Y-94349992D01*
X10514999Y-94247203D01*
X10459814Y-94080666D01*
X10367712Y-93931344D01*
X10243656Y-93807288D01*
X10109402Y-93724480D01*
X10062679Y-93672533D01*
X10050500Y-93618942D01*
X10050500Y-92381057D01*
X10070185Y-92314018D01*
X10109401Y-92275520D01*
X10243656Y-92192712D01*
X10367712Y-92068656D01*
X10459814Y-91919334D01*
X10514999Y-91752797D01*
X10525500Y-91650009D01*
X10525499Y-89349992D01*
X10514999Y-89247203D01*
X10459814Y-89080666D01*
X10367712Y-88931344D01*
X10243656Y-88807288D01*
X10109402Y-88724480D01*
X10062679Y-88672533D01*
X10050500Y-88618942D01*
X10050500Y-87381057D01*
X10070185Y-87314018D01*
X10109401Y-87275520D01*
X10243656Y-87192712D01*
X10367712Y-87068656D01*
X10459814Y-86919334D01*
X10514999Y-86752797D01*
X10525500Y-86650009D01*
X10525499Y-84463389D01*
X36199500Y-84463389D01*
X36199500Y-84636611D01*
X36226598Y-84807701D01*
X36252664Y-84887924D01*
X36280128Y-84972447D01*
X36327061Y-85064558D01*
X36358768Y-85126788D01*
X36460586Y-85266928D01*
X36583072Y-85389414D01*
X36723212Y-85491232D01*
X36877555Y-85569873D01*
X37042299Y-85623402D01*
X37213389Y-85650500D01*
X37213390Y-85650500D01*
X37386610Y-85650500D01*
X37386611Y-85650500D01*
X37557701Y-85623402D01*
X37722445Y-85569873D01*
X37876788Y-85491232D01*
X38016928Y-85389414D01*
X38139414Y-85266928D01*
X38241232Y-85126788D01*
X38319873Y-84972445D01*
X38373402Y-84807701D01*
X38400500Y-84636611D01*
X38400500Y-84463389D01*
X38392581Y-84413389D01*
X84999500Y-84413389D01*
X84999500Y-84586610D01*
X85025417Y-84750249D01*
X85026598Y-84757701D01*
X85080127Y-84922445D01*
X85158768Y-85076788D01*
X85260586Y-85216928D01*
X85383072Y-85339414D01*
X85523212Y-85441232D01*
X85677555Y-85519873D01*
X85842299Y-85573402D01*
X86013389Y-85600500D01*
X86013390Y-85600500D01*
X86186610Y-85600500D01*
X86186611Y-85600500D01*
X86357701Y-85573402D01*
X86522445Y-85519873D01*
X86676788Y-85441232D01*
X86816928Y-85339414D01*
X86939414Y-85216928D01*
X87041232Y-85076788D01*
X87119873Y-84922445D01*
X87173402Y-84757701D01*
X87200500Y-84586611D01*
X87200500Y-84413389D01*
X133799500Y-84413389D01*
X133799500Y-84586610D01*
X133825417Y-84750249D01*
X133826598Y-84757701D01*
X133880127Y-84922445D01*
X133958768Y-85076788D01*
X134060586Y-85216928D01*
X134183072Y-85339414D01*
X134323212Y-85441232D01*
X134477555Y-85519873D01*
X134642299Y-85573402D01*
X134813389Y-85600500D01*
X134813390Y-85600500D01*
X134986610Y-85600500D01*
X134986611Y-85600500D01*
X135157701Y-85573402D01*
X135322445Y-85519873D01*
X135476788Y-85441232D01*
X135616928Y-85339414D01*
X135739414Y-85216928D01*
X135841232Y-85076788D01*
X135919873Y-84922445D01*
X135973402Y-84757701D01*
X136000500Y-84586611D01*
X136000500Y-84413389D01*
X182599500Y-84413389D01*
X182599500Y-84586610D01*
X182625417Y-84750249D01*
X182626598Y-84757701D01*
X182680127Y-84922445D01*
X182758768Y-85076788D01*
X182860586Y-85216928D01*
X182983072Y-85339414D01*
X183123212Y-85441232D01*
X183277555Y-85519873D01*
X183442299Y-85573402D01*
X183613389Y-85600500D01*
X183613390Y-85600500D01*
X183786610Y-85600500D01*
X183786611Y-85600500D01*
X183957701Y-85573402D01*
X184122445Y-85519873D01*
X184276788Y-85441232D01*
X184416928Y-85339414D01*
X184539414Y-85216928D01*
X184641232Y-85076788D01*
X184719873Y-84922445D01*
X184773402Y-84757701D01*
X184800500Y-84586611D01*
X184800500Y-84413389D01*
X231399500Y-84413389D01*
X231399500Y-84586610D01*
X231425417Y-84750249D01*
X231426598Y-84757701D01*
X231480127Y-84922445D01*
X231558768Y-85076788D01*
X231660586Y-85216928D01*
X231783072Y-85339414D01*
X231923212Y-85441232D01*
X232077555Y-85519873D01*
X232242299Y-85573402D01*
X232413389Y-85600500D01*
X232413390Y-85600500D01*
X232586610Y-85600500D01*
X232586611Y-85600500D01*
X232757701Y-85573402D01*
X232922445Y-85519873D01*
X233076788Y-85441232D01*
X233216928Y-85339414D01*
X233339414Y-85216928D01*
X233441232Y-85076788D01*
X233519873Y-84922445D01*
X233573402Y-84757701D01*
X233600500Y-84586611D01*
X233600500Y-84413389D01*
X280199500Y-84413389D01*
X280199500Y-84586610D01*
X280225417Y-84750249D01*
X280226598Y-84757701D01*
X280280127Y-84922445D01*
X280358768Y-85076788D01*
X280460586Y-85216928D01*
X280583072Y-85339414D01*
X280723212Y-85441232D01*
X280877555Y-85519873D01*
X281042299Y-85573402D01*
X281213389Y-85600500D01*
X281213390Y-85600500D01*
X281386610Y-85600500D01*
X281386611Y-85600500D01*
X281557701Y-85573402D01*
X281722445Y-85519873D01*
X281876788Y-85441232D01*
X282016928Y-85339414D01*
X282139414Y-85216928D01*
X282241232Y-85076788D01*
X282319873Y-84922445D01*
X282373402Y-84757701D01*
X282400500Y-84586611D01*
X282400500Y-84413389D01*
X328999500Y-84413389D01*
X328999500Y-84586610D01*
X329025417Y-84750249D01*
X329026598Y-84757701D01*
X329080127Y-84922445D01*
X329158768Y-85076788D01*
X329260586Y-85216928D01*
X329383072Y-85339414D01*
X329523212Y-85441232D01*
X329677555Y-85519873D01*
X329842299Y-85573402D01*
X330013389Y-85600500D01*
X330013390Y-85600500D01*
X330186610Y-85600500D01*
X330186611Y-85600500D01*
X330357701Y-85573402D01*
X330522445Y-85519873D01*
X330676788Y-85441232D01*
X330816928Y-85339414D01*
X330939414Y-85216928D01*
X331041232Y-85076788D01*
X331119873Y-84922445D01*
X331173402Y-84757701D01*
X331200500Y-84586611D01*
X331200500Y-84413389D01*
X377799500Y-84413389D01*
X377799500Y-84586610D01*
X377825417Y-84750249D01*
X377826598Y-84757701D01*
X377880127Y-84922445D01*
X377958768Y-85076788D01*
X378060586Y-85216928D01*
X378183072Y-85339414D01*
X378323212Y-85441232D01*
X378477555Y-85519873D01*
X378642299Y-85573402D01*
X378813389Y-85600500D01*
X378813390Y-85600500D01*
X378986610Y-85600500D01*
X378986611Y-85600500D01*
X379157701Y-85573402D01*
X379322445Y-85519873D01*
X379476788Y-85441232D01*
X379616928Y-85339414D01*
X379739414Y-85216928D01*
X379841232Y-85076788D01*
X379919873Y-84922445D01*
X379973402Y-84757701D01*
X380000500Y-84586611D01*
X380000500Y-84413389D01*
X379973402Y-84242299D01*
X379919873Y-84077555D01*
X379841232Y-83923212D01*
X379739414Y-83783072D01*
X379616928Y-83660586D01*
X379476788Y-83558768D01*
X379322445Y-83480127D01*
X379157701Y-83426598D01*
X379157699Y-83426597D01*
X379157698Y-83426597D01*
X379026271Y-83405781D01*
X378986611Y-83399500D01*
X378813389Y-83399500D01*
X378773728Y-83405781D01*
X378642302Y-83426597D01*
X378477552Y-83480128D01*
X378323211Y-83558768D01*
X378254393Y-83608768D01*
X378183072Y-83660586D01*
X378183070Y-83660588D01*
X378183069Y-83660588D01*
X378060588Y-83783069D01*
X378060588Y-83783070D01*
X378060586Y-83783072D01*
X378016859Y-83843256D01*
X377958768Y-83923211D01*
X377880128Y-84077552D01*
X377826597Y-84242302D01*
X377799500Y-84413389D01*
X331200500Y-84413389D01*
X331173402Y-84242299D01*
X331119873Y-84077555D01*
X331041232Y-83923212D01*
X330939414Y-83783072D01*
X330816928Y-83660586D01*
X330676788Y-83558768D01*
X330522445Y-83480127D01*
X330357701Y-83426598D01*
X330357699Y-83426597D01*
X330357698Y-83426597D01*
X330226271Y-83405781D01*
X330186611Y-83399500D01*
X330013389Y-83399500D01*
X329973728Y-83405781D01*
X329842302Y-83426597D01*
X329677552Y-83480128D01*
X329523211Y-83558768D01*
X329454393Y-83608768D01*
X329383072Y-83660586D01*
X329383070Y-83660588D01*
X329383069Y-83660588D01*
X329260588Y-83783069D01*
X329260588Y-83783070D01*
X329260586Y-83783072D01*
X329216859Y-83843256D01*
X329158768Y-83923211D01*
X329080128Y-84077552D01*
X329026597Y-84242302D01*
X328999500Y-84413389D01*
X282400500Y-84413389D01*
X282373402Y-84242299D01*
X282319873Y-84077555D01*
X282241232Y-83923212D01*
X282139414Y-83783072D01*
X282016928Y-83660586D01*
X281876788Y-83558768D01*
X281722445Y-83480127D01*
X281557701Y-83426598D01*
X281557699Y-83426597D01*
X281557698Y-83426597D01*
X281426271Y-83405781D01*
X281386611Y-83399500D01*
X281213389Y-83399500D01*
X281173728Y-83405781D01*
X281042302Y-83426597D01*
X280877552Y-83480128D01*
X280723211Y-83558768D01*
X280654393Y-83608768D01*
X280583072Y-83660586D01*
X280583070Y-83660588D01*
X280583069Y-83660588D01*
X280460588Y-83783069D01*
X280460588Y-83783070D01*
X280460586Y-83783072D01*
X280416859Y-83843256D01*
X280358768Y-83923211D01*
X280280128Y-84077552D01*
X280226597Y-84242302D01*
X280199500Y-84413389D01*
X233600500Y-84413389D01*
X233573402Y-84242299D01*
X233519873Y-84077555D01*
X233441232Y-83923212D01*
X233339414Y-83783072D01*
X233216928Y-83660586D01*
X233076788Y-83558768D01*
X232922445Y-83480127D01*
X232757701Y-83426598D01*
X232757699Y-83426597D01*
X232757698Y-83426597D01*
X232626271Y-83405781D01*
X232586611Y-83399500D01*
X232413389Y-83399500D01*
X232373728Y-83405781D01*
X232242302Y-83426597D01*
X232077552Y-83480128D01*
X231923211Y-83558768D01*
X231854393Y-83608768D01*
X231783072Y-83660586D01*
X231783070Y-83660588D01*
X231783069Y-83660588D01*
X231660588Y-83783069D01*
X231660588Y-83783070D01*
X231660586Y-83783072D01*
X231616859Y-83843256D01*
X231558768Y-83923211D01*
X231480128Y-84077552D01*
X231426597Y-84242302D01*
X231399500Y-84413389D01*
X184800500Y-84413389D01*
X184773402Y-84242299D01*
X184719873Y-84077555D01*
X184641232Y-83923212D01*
X184539414Y-83783072D01*
X184416928Y-83660586D01*
X184276788Y-83558768D01*
X184122445Y-83480127D01*
X183957701Y-83426598D01*
X183957699Y-83426597D01*
X183957698Y-83426597D01*
X183826271Y-83405781D01*
X183786611Y-83399500D01*
X183613389Y-83399500D01*
X183573728Y-83405781D01*
X183442302Y-83426597D01*
X183277552Y-83480128D01*
X183123211Y-83558768D01*
X183054393Y-83608768D01*
X182983072Y-83660586D01*
X182983070Y-83660588D01*
X182983069Y-83660588D01*
X182860588Y-83783069D01*
X182860588Y-83783070D01*
X182860586Y-83783072D01*
X182816859Y-83843256D01*
X182758768Y-83923211D01*
X182680128Y-84077552D01*
X182626597Y-84242302D01*
X182599500Y-84413389D01*
X136000500Y-84413389D01*
X135973402Y-84242299D01*
X135919873Y-84077555D01*
X135841232Y-83923212D01*
X135739414Y-83783072D01*
X135616928Y-83660586D01*
X135476788Y-83558768D01*
X135322445Y-83480127D01*
X135157701Y-83426598D01*
X135157699Y-83426597D01*
X135157698Y-83426597D01*
X135026271Y-83405781D01*
X134986611Y-83399500D01*
X134813389Y-83399500D01*
X134773728Y-83405781D01*
X134642302Y-83426597D01*
X134477552Y-83480128D01*
X134323211Y-83558768D01*
X134254393Y-83608768D01*
X134183072Y-83660586D01*
X134183070Y-83660588D01*
X134183069Y-83660588D01*
X134060588Y-83783069D01*
X134060588Y-83783070D01*
X134060586Y-83783072D01*
X134016859Y-83843256D01*
X133958768Y-83923211D01*
X133880128Y-84077552D01*
X133826597Y-84242302D01*
X133799500Y-84413389D01*
X87200500Y-84413389D01*
X87173402Y-84242299D01*
X87119873Y-84077555D01*
X87041232Y-83923212D01*
X86939414Y-83783072D01*
X86816928Y-83660586D01*
X86676788Y-83558768D01*
X86522445Y-83480127D01*
X86357701Y-83426598D01*
X86357699Y-83426597D01*
X86357698Y-83426597D01*
X86226271Y-83405781D01*
X86186611Y-83399500D01*
X86013389Y-83399500D01*
X85973728Y-83405781D01*
X85842302Y-83426597D01*
X85677552Y-83480128D01*
X85523211Y-83558768D01*
X85454393Y-83608768D01*
X85383072Y-83660586D01*
X85383070Y-83660588D01*
X85383069Y-83660588D01*
X85260588Y-83783069D01*
X85260588Y-83783070D01*
X85260586Y-83783072D01*
X85216859Y-83843256D01*
X85158768Y-83923211D01*
X85080128Y-84077552D01*
X85026597Y-84242302D01*
X84999500Y-84413389D01*
X38392581Y-84413389D01*
X38373402Y-84292299D01*
X38319873Y-84127555D01*
X38241232Y-83973212D01*
X38139414Y-83833072D01*
X38016928Y-83710586D01*
X37876788Y-83608768D01*
X37722445Y-83530127D01*
X37557701Y-83476598D01*
X37557699Y-83476597D01*
X37557698Y-83476597D01*
X37426271Y-83455781D01*
X37386611Y-83449500D01*
X37213389Y-83449500D01*
X37173728Y-83455781D01*
X37042302Y-83476597D01*
X36877552Y-83530128D01*
X36723211Y-83608768D01*
X36667149Y-83649500D01*
X36583072Y-83710586D01*
X36583070Y-83710588D01*
X36583069Y-83710588D01*
X36460588Y-83833069D01*
X36460588Y-83833070D01*
X36460586Y-83833072D01*
X36458411Y-83836066D01*
X36358768Y-83973211D01*
X36280128Y-84127552D01*
X36226597Y-84292302D01*
X36217460Y-84349991D01*
X36199500Y-84463389D01*
X10525499Y-84463389D01*
X10525499Y-84349992D01*
X10514999Y-84247203D01*
X10459814Y-84080666D01*
X10367712Y-83931344D01*
X10243656Y-83807288D01*
X10109402Y-83724480D01*
X10062679Y-83672533D01*
X10050500Y-83618942D01*
X10050500Y-82862332D01*
X406199500Y-82862332D01*
X406199500Y-83137667D01*
X406199501Y-83137684D01*
X406235438Y-83410655D01*
X406235439Y-83410660D01*
X406235440Y-83410666D01*
X406254052Y-83480127D01*
X406306704Y-83676630D01*
X406412075Y-83931017D01*
X406412080Y-83931028D01*
X406491809Y-84069121D01*
X406549751Y-84169479D01*
X406549753Y-84169482D01*
X406549754Y-84169483D01*
X406717370Y-84387926D01*
X406717376Y-84387933D01*
X406912066Y-84582623D01*
X406912073Y-84582629D01*
X406982423Y-84636610D01*
X407130521Y-84750249D01*
X407230024Y-84807697D01*
X407368971Y-84887919D01*
X407368976Y-84887921D01*
X407368979Y-84887923D01*
X407623368Y-84993295D01*
X407889334Y-85064560D01*
X408162326Y-85100500D01*
X408162333Y-85100500D01*
X408437667Y-85100500D01*
X408437674Y-85100500D01*
X408710666Y-85064560D01*
X408976632Y-84993295D01*
X409231021Y-84887923D01*
X409469479Y-84750249D01*
X409687928Y-84582628D01*
X409882628Y-84387928D01*
X410050249Y-84169479D01*
X410187923Y-83931021D01*
X410293295Y-83676632D01*
X410364560Y-83410666D01*
X410400500Y-83137674D01*
X410400500Y-82862326D01*
X410364560Y-82589334D01*
X410293295Y-82323368D01*
X410187923Y-82068979D01*
X410187921Y-82068976D01*
X410187919Y-82068971D01*
X410110999Y-81935743D01*
X410050249Y-81830521D01*
X409930342Y-81674254D01*
X409882629Y-81612073D01*
X409882623Y-81612066D01*
X409687933Y-81417376D01*
X409687926Y-81417370D01*
X409469483Y-81249754D01*
X409469482Y-81249753D01*
X409469479Y-81249751D01*
X409347127Y-81179111D01*
X409231028Y-81112080D01*
X409231017Y-81112075D01*
X408976630Y-81006704D01*
X408843649Y-80971072D01*
X408710666Y-80935440D01*
X408710660Y-80935439D01*
X408710655Y-80935438D01*
X408437684Y-80899501D01*
X408437679Y-80899500D01*
X408437674Y-80899500D01*
X408162326Y-80899500D01*
X408162320Y-80899500D01*
X408162315Y-80899501D01*
X407889344Y-80935438D01*
X407889337Y-80935439D01*
X407889334Y-80935440D01*
X407833125Y-80950500D01*
X407623369Y-81006704D01*
X407368982Y-81112075D01*
X407368971Y-81112080D01*
X407130516Y-81249754D01*
X406912073Y-81417370D01*
X406912066Y-81417376D01*
X406717376Y-81612066D01*
X406717370Y-81612073D01*
X406549754Y-81830516D01*
X406412080Y-82068971D01*
X406412075Y-82068982D01*
X406306704Y-82323369D01*
X406235441Y-82589331D01*
X406235438Y-82589344D01*
X406199501Y-82862315D01*
X406199500Y-82862332D01*
X10050500Y-82862332D01*
X10050500Y-82381057D01*
X10070185Y-82314018D01*
X10109401Y-82275520D01*
X10243656Y-82192712D01*
X10367712Y-82068656D01*
X10459814Y-81919334D01*
X10514999Y-81752797D01*
X10525500Y-81650009D01*
X10525500Y-81463389D01*
X36199500Y-81463389D01*
X36199500Y-81636610D01*
X36226384Y-81806354D01*
X36226598Y-81807701D01*
X36280127Y-81972445D01*
X36358768Y-82126788D01*
X36460586Y-82266928D01*
X36583072Y-82389414D01*
X36723212Y-82491232D01*
X36877555Y-82569873D01*
X37042299Y-82623402D01*
X37213389Y-82650500D01*
X37213390Y-82650500D01*
X37386610Y-82650500D01*
X37386611Y-82650500D01*
X37557701Y-82623402D01*
X37722445Y-82569873D01*
X37876788Y-82491232D01*
X38016928Y-82389414D01*
X38139414Y-82266928D01*
X38241232Y-82126788D01*
X38319873Y-81972445D01*
X38373402Y-81807701D01*
X38400500Y-81636611D01*
X38400500Y-81463389D01*
X38392581Y-81413389D01*
X84999500Y-81413389D01*
X84999500Y-81586610D01*
X85024717Y-81745829D01*
X85026598Y-81757701D01*
X85080127Y-81922445D01*
X85158768Y-82076788D01*
X85260586Y-82216928D01*
X85383072Y-82339414D01*
X85523212Y-82441232D01*
X85677555Y-82519873D01*
X85842299Y-82573402D01*
X86013389Y-82600500D01*
X86013390Y-82600500D01*
X86186610Y-82600500D01*
X86186611Y-82600500D01*
X86357701Y-82573402D01*
X86522445Y-82519873D01*
X86676788Y-82441232D01*
X86816928Y-82339414D01*
X86939414Y-82216928D01*
X87041232Y-82076788D01*
X87119873Y-81922445D01*
X87173402Y-81757701D01*
X87200500Y-81586611D01*
X87200500Y-81413389D01*
X133799500Y-81413389D01*
X133799500Y-81586610D01*
X133824717Y-81745829D01*
X133826598Y-81757701D01*
X133880127Y-81922445D01*
X133958768Y-82076788D01*
X134060586Y-82216928D01*
X134183072Y-82339414D01*
X134323212Y-82441232D01*
X134477555Y-82519873D01*
X134642299Y-82573402D01*
X134813389Y-82600500D01*
X134813390Y-82600500D01*
X134986610Y-82600500D01*
X134986611Y-82600500D01*
X135157701Y-82573402D01*
X135322445Y-82519873D01*
X135476788Y-82441232D01*
X135616928Y-82339414D01*
X135739414Y-82216928D01*
X135841232Y-82076788D01*
X135919873Y-81922445D01*
X135973402Y-81757701D01*
X136000500Y-81586611D01*
X136000500Y-81413389D01*
X182599500Y-81413389D01*
X182599500Y-81586610D01*
X182624717Y-81745829D01*
X182626598Y-81757701D01*
X182680127Y-81922445D01*
X182758768Y-82076788D01*
X182860586Y-82216928D01*
X182983072Y-82339414D01*
X183123212Y-82441232D01*
X183277555Y-82519873D01*
X183442299Y-82573402D01*
X183613389Y-82600500D01*
X183613390Y-82600500D01*
X183786610Y-82600500D01*
X183786611Y-82600500D01*
X183957701Y-82573402D01*
X184122445Y-82519873D01*
X184276788Y-82441232D01*
X184416928Y-82339414D01*
X184539414Y-82216928D01*
X184641232Y-82076788D01*
X184719873Y-81922445D01*
X184773402Y-81757701D01*
X184800500Y-81586611D01*
X184800500Y-81413389D01*
X231399500Y-81413389D01*
X231399500Y-81586610D01*
X231424717Y-81745829D01*
X231426598Y-81757701D01*
X231480127Y-81922445D01*
X231558768Y-82076788D01*
X231660586Y-82216928D01*
X231783072Y-82339414D01*
X231923212Y-82441232D01*
X232077555Y-82519873D01*
X232242299Y-82573402D01*
X232413389Y-82600500D01*
X232413390Y-82600500D01*
X232586610Y-82600500D01*
X232586611Y-82600500D01*
X232757701Y-82573402D01*
X232922445Y-82519873D01*
X233076788Y-82441232D01*
X233216928Y-82339414D01*
X233339414Y-82216928D01*
X233441232Y-82076788D01*
X233519873Y-81922445D01*
X233573402Y-81757701D01*
X233600500Y-81586611D01*
X233600500Y-81413389D01*
X280199500Y-81413389D01*
X280199500Y-81586610D01*
X280224717Y-81745829D01*
X280226598Y-81757701D01*
X280280127Y-81922445D01*
X280358768Y-82076788D01*
X280460586Y-82216928D01*
X280583072Y-82339414D01*
X280723212Y-82441232D01*
X280877555Y-82519873D01*
X281042299Y-82573402D01*
X281213389Y-82600500D01*
X281213390Y-82600500D01*
X281386610Y-82600500D01*
X281386611Y-82600500D01*
X281557701Y-82573402D01*
X281722445Y-82519873D01*
X281876788Y-82441232D01*
X282016928Y-82339414D01*
X282139414Y-82216928D01*
X282241232Y-82076788D01*
X282319873Y-81922445D01*
X282373402Y-81757701D01*
X282400500Y-81586611D01*
X282400500Y-81413389D01*
X328999500Y-81413389D01*
X328999500Y-81586610D01*
X329024717Y-81745829D01*
X329026598Y-81757701D01*
X329080127Y-81922445D01*
X329158768Y-82076788D01*
X329260586Y-82216928D01*
X329383072Y-82339414D01*
X329523212Y-82441232D01*
X329677555Y-82519873D01*
X329842299Y-82573402D01*
X330013389Y-82600500D01*
X330013390Y-82600500D01*
X330186610Y-82600500D01*
X330186611Y-82600500D01*
X330357701Y-82573402D01*
X330522445Y-82519873D01*
X330676788Y-82441232D01*
X330816928Y-82339414D01*
X330939414Y-82216928D01*
X331041232Y-82076788D01*
X331119873Y-81922445D01*
X331173402Y-81757701D01*
X331200500Y-81586611D01*
X331200500Y-81413389D01*
X377799500Y-81413389D01*
X377799500Y-81586610D01*
X377824717Y-81745829D01*
X377826598Y-81757701D01*
X377880127Y-81922445D01*
X377958768Y-82076788D01*
X378060586Y-82216928D01*
X378183072Y-82339414D01*
X378323212Y-82441232D01*
X378477555Y-82519873D01*
X378642299Y-82573402D01*
X378813389Y-82600500D01*
X378813390Y-82600500D01*
X378986610Y-82600500D01*
X378986611Y-82600500D01*
X379157701Y-82573402D01*
X379322445Y-82519873D01*
X379476788Y-82441232D01*
X379616928Y-82339414D01*
X379739414Y-82216928D01*
X379841232Y-82076788D01*
X379919873Y-81922445D01*
X379973402Y-81757701D01*
X380000500Y-81586611D01*
X380000500Y-81413389D01*
X379973402Y-81242299D01*
X379919873Y-81077555D01*
X379841232Y-80923212D01*
X379739414Y-80783072D01*
X379616928Y-80660586D01*
X379476788Y-80558768D01*
X379322445Y-80480127D01*
X379157701Y-80426598D01*
X379157699Y-80426597D01*
X379157698Y-80426597D01*
X379026271Y-80405781D01*
X378986611Y-80399500D01*
X378813389Y-80399500D01*
X378773728Y-80405781D01*
X378642302Y-80426597D01*
X378477552Y-80480128D01*
X378323211Y-80558768D01*
X378261161Y-80603851D01*
X378183072Y-80660586D01*
X378183070Y-80660588D01*
X378183069Y-80660588D01*
X378060588Y-80783069D01*
X378060588Y-80783070D01*
X378060586Y-80783072D01*
X378024261Y-80833069D01*
X377958768Y-80923211D01*
X377880128Y-81077552D01*
X377826597Y-81242302D01*
X377799500Y-81413389D01*
X331200500Y-81413389D01*
X331173402Y-81242299D01*
X331119873Y-81077555D01*
X331041232Y-80923212D01*
X330939414Y-80783072D01*
X330816928Y-80660586D01*
X330676788Y-80558768D01*
X330522445Y-80480127D01*
X330357701Y-80426598D01*
X330357699Y-80426597D01*
X330357698Y-80426597D01*
X330226271Y-80405781D01*
X330186611Y-80399500D01*
X330013389Y-80399500D01*
X329973728Y-80405781D01*
X329842302Y-80426597D01*
X329677552Y-80480128D01*
X329523211Y-80558768D01*
X329461161Y-80603851D01*
X329383072Y-80660586D01*
X329383070Y-80660588D01*
X329383069Y-80660588D01*
X329260588Y-80783069D01*
X329260588Y-80783070D01*
X329260586Y-80783072D01*
X329224261Y-80833069D01*
X329158768Y-80923211D01*
X329080128Y-81077552D01*
X329026597Y-81242302D01*
X328999500Y-81413389D01*
X282400500Y-81413389D01*
X282373402Y-81242299D01*
X282319873Y-81077555D01*
X282241232Y-80923212D01*
X282139414Y-80783072D01*
X282016928Y-80660586D01*
X281876788Y-80558768D01*
X281722445Y-80480127D01*
X281557701Y-80426598D01*
X281557699Y-80426597D01*
X281557698Y-80426597D01*
X281426271Y-80405781D01*
X281386611Y-80399500D01*
X281213389Y-80399500D01*
X281173728Y-80405781D01*
X281042302Y-80426597D01*
X280877552Y-80480128D01*
X280723211Y-80558768D01*
X280661161Y-80603851D01*
X280583072Y-80660586D01*
X280583070Y-80660588D01*
X280583069Y-80660588D01*
X280460588Y-80783069D01*
X280460588Y-80783070D01*
X280460586Y-80783072D01*
X280424261Y-80833069D01*
X280358768Y-80923211D01*
X280280128Y-81077552D01*
X280226597Y-81242302D01*
X280199500Y-81413389D01*
X233600500Y-81413389D01*
X233573402Y-81242299D01*
X233519873Y-81077555D01*
X233441232Y-80923212D01*
X233339414Y-80783072D01*
X233216928Y-80660586D01*
X233076788Y-80558768D01*
X232922445Y-80480127D01*
X232757701Y-80426598D01*
X232757699Y-80426597D01*
X232757698Y-80426597D01*
X232626271Y-80405781D01*
X232586611Y-80399500D01*
X232413389Y-80399500D01*
X232373728Y-80405781D01*
X232242302Y-80426597D01*
X232077552Y-80480128D01*
X231923211Y-80558768D01*
X231861161Y-80603851D01*
X231783072Y-80660586D01*
X231783070Y-80660588D01*
X231783069Y-80660588D01*
X231660588Y-80783069D01*
X231660588Y-80783070D01*
X231660586Y-80783072D01*
X231624261Y-80833069D01*
X231558768Y-80923211D01*
X231480128Y-81077552D01*
X231426597Y-81242302D01*
X231399500Y-81413389D01*
X184800500Y-81413389D01*
X184773402Y-81242299D01*
X184719873Y-81077555D01*
X184641232Y-80923212D01*
X184539414Y-80783072D01*
X184416928Y-80660586D01*
X184276788Y-80558768D01*
X184122445Y-80480127D01*
X183957701Y-80426598D01*
X183957699Y-80426597D01*
X183957698Y-80426597D01*
X183826271Y-80405781D01*
X183786611Y-80399500D01*
X183613389Y-80399500D01*
X183573728Y-80405781D01*
X183442302Y-80426597D01*
X183277552Y-80480128D01*
X183123211Y-80558768D01*
X183061161Y-80603851D01*
X182983072Y-80660586D01*
X182983070Y-80660588D01*
X182983069Y-80660588D01*
X182860588Y-80783069D01*
X182860588Y-80783070D01*
X182860586Y-80783072D01*
X182824261Y-80833069D01*
X182758768Y-80923211D01*
X182680128Y-81077552D01*
X182626597Y-81242302D01*
X182599500Y-81413389D01*
X136000500Y-81413389D01*
X135973402Y-81242299D01*
X135919873Y-81077555D01*
X135841232Y-80923212D01*
X135739414Y-80783072D01*
X135616928Y-80660586D01*
X135476788Y-80558768D01*
X135322445Y-80480127D01*
X135157701Y-80426598D01*
X135157699Y-80426597D01*
X135157698Y-80426597D01*
X135026271Y-80405781D01*
X134986611Y-80399500D01*
X134813389Y-80399500D01*
X134773728Y-80405781D01*
X134642302Y-80426597D01*
X134477552Y-80480128D01*
X134323211Y-80558768D01*
X134261161Y-80603851D01*
X134183072Y-80660586D01*
X134183070Y-80660588D01*
X134183069Y-80660588D01*
X134060588Y-80783069D01*
X134060588Y-80783070D01*
X134060586Y-80783072D01*
X134024261Y-80833069D01*
X133958768Y-80923211D01*
X133880128Y-81077552D01*
X133826597Y-81242302D01*
X133799500Y-81413389D01*
X87200500Y-81413389D01*
X87173402Y-81242299D01*
X87119873Y-81077555D01*
X87041232Y-80923212D01*
X86939414Y-80783072D01*
X86816928Y-80660586D01*
X86676788Y-80558768D01*
X86522445Y-80480127D01*
X86357701Y-80426598D01*
X86357699Y-80426597D01*
X86357698Y-80426597D01*
X86226271Y-80405781D01*
X86186611Y-80399500D01*
X86013389Y-80399500D01*
X85973728Y-80405781D01*
X85842302Y-80426597D01*
X85677552Y-80480128D01*
X85523211Y-80558768D01*
X85461161Y-80603851D01*
X85383072Y-80660586D01*
X85383070Y-80660588D01*
X85383069Y-80660588D01*
X85260588Y-80783069D01*
X85260588Y-80783070D01*
X85260586Y-80783072D01*
X85224261Y-80833069D01*
X85158768Y-80923211D01*
X85080128Y-81077552D01*
X85026597Y-81242302D01*
X84999500Y-81413389D01*
X38392581Y-81413389D01*
X38373402Y-81292299D01*
X38319873Y-81127555D01*
X38241232Y-80973212D01*
X38139414Y-80833072D01*
X38016928Y-80710586D01*
X37876788Y-80608768D01*
X37722445Y-80530127D01*
X37557701Y-80476598D01*
X37557699Y-80476597D01*
X37557698Y-80476597D01*
X37426271Y-80455781D01*
X37386611Y-80449500D01*
X37213389Y-80449500D01*
X37173728Y-80455781D01*
X37042302Y-80476597D01*
X36877552Y-80530128D01*
X36723211Y-80608768D01*
X36651891Y-80660586D01*
X36583072Y-80710586D01*
X36583070Y-80710588D01*
X36583069Y-80710588D01*
X36460588Y-80833069D01*
X36460588Y-80833070D01*
X36460586Y-80833072D01*
X36416859Y-80893256D01*
X36358768Y-80973211D01*
X36280128Y-81127552D01*
X36226597Y-81292302D01*
X36199500Y-81463389D01*
X10525500Y-81463389D01*
X10525499Y-80480128D01*
X10525499Y-79349998D01*
X10525498Y-79349981D01*
X10514999Y-79247203D01*
X10514998Y-79247200D01*
X10493250Y-79181569D01*
X10459814Y-79080666D01*
X10367712Y-78931344D01*
X10243656Y-78807288D01*
X10109402Y-78724480D01*
X10062679Y-78672533D01*
X10050500Y-78618942D01*
X10050500Y-77381057D01*
X10070185Y-77314018D01*
X10109401Y-77275520D01*
X10243656Y-77192712D01*
X10367712Y-77068656D01*
X10459814Y-76919334D01*
X10514999Y-76752797D01*
X10525500Y-76650009D01*
X10525499Y-74349992D01*
X10514999Y-74247203D01*
X10459814Y-74080666D01*
X10367712Y-73931344D01*
X10243656Y-73807288D01*
X10109402Y-73724480D01*
X10062679Y-73672533D01*
X10050500Y-73618942D01*
X10050500Y-72381057D01*
X10070185Y-72314018D01*
X10109401Y-72275520D01*
X10243656Y-72192712D01*
X10367712Y-72068656D01*
X10459814Y-71919334D01*
X10514999Y-71752797D01*
X10525500Y-71650009D01*
X10525499Y-69349992D01*
X10514999Y-69247203D01*
X10459814Y-69080666D01*
X10367712Y-68931344D01*
X10243656Y-68807288D01*
X10109402Y-68724480D01*
X10062679Y-68672533D01*
X10050500Y-68618942D01*
X10050500Y-67381057D01*
X10070185Y-67314018D01*
X10109401Y-67275520D01*
X10243656Y-67192712D01*
X10367712Y-67068656D01*
X10459814Y-66919334D01*
X10514999Y-66752797D01*
X10525500Y-66650009D01*
X10525499Y-64349992D01*
X10514999Y-64247203D01*
X10459814Y-64080666D01*
X10367712Y-63931344D01*
X10243656Y-63807288D01*
X10243652Y-63807285D01*
X10159403Y-63755319D01*
X10112678Y-63703371D01*
X10100500Y-63649781D01*
X10100500Y-62881057D01*
X10120185Y-62814018D01*
X10159401Y-62775520D01*
X10293656Y-62692712D01*
X10417712Y-62568656D01*
X10509814Y-62419334D01*
X10564999Y-62252797D01*
X10575500Y-62150009D01*
X10575499Y-59849992D01*
X10564999Y-59747203D01*
X10509814Y-59580666D01*
X10417712Y-59431344D01*
X10298549Y-59312181D01*
X10265064Y-59250858D01*
X10270048Y-59181166D01*
X10311920Y-59125233D01*
X10377384Y-59100816D01*
X10386230Y-59100500D01*
X412675500Y-59100500D01*
X412742539Y-59120185D01*
X412788294Y-59172989D01*
X412799500Y-59224500D01*
X412799500Y-106775500D01*
X412779815Y-106842539D01*
X412727011Y-106888294D01*
X412675500Y-106899500D01*
X-6475500Y-106899500D01*
X-6542539Y-106879815D01*
X-6588294Y-106827011D01*
X-6599500Y-106775500D01*
X-6599500Y-59224500D01*
X-6579815Y-59157461D01*
X-6527011Y-59111706D01*
X-6475500Y-59100500D01*
X5663770Y-59100500D01*
X5730809Y-59120185D01*
G37*
%TD.AperFunction*%
M02*
