%TF.GenerationSoftware,KiCad,Pcbnew,9.0.2*%
%TF.CreationDate,2026-06-17T11:06:57-07:00*%
%TF.ProjectId,ZDC_Odd_Left_PCB,5a44435f-4f64-4645-9f4c-6566745f5043,rev?*%
%TF.SameCoordinates,Original*%
%TF.FileFunction,Soldermask,Top*%
%TF.FilePolarity,Negative*%
%FSLAX46Y46*%
G04 Gerber Fmt 4.6, Leading zero omitted, Abs format (unit mm)*
G04 Created by KiCad (PCBNEW 9.0.2) date 2026-06-17 11:06:57*
%MOMM*%
%LPD*%
G01*
G04 APERTURE LIST*
G04 Aperture macros list*
%AMRoundRect*
0 Rectangle with rounded corners*
0 $1 Rounding radius*
0 $2 $3 $4 $5 $6 $7 $8 $9 X,Y pos of 4 corners*
0 Add a 4 corners polygon primitive as box body*
4,1,4,$2,$3,$4,$5,$6,$7,$8,$9,$2,$3,0*
0 Add four circle primitives for the rounded corners*
1,1,$1+$1,$2,$3*
1,1,$1+$1,$4,$5*
1,1,$1+$1,$6,$7*
1,1,$1+$1,$8,$9*
0 Add four rect primitives between the rounded corners*
20,1,$1+$1,$2,$3,$4,$5,0*
20,1,$1+$1,$4,$5,$6,$7,0*
20,1,$1+$1,$6,$7,$8,$9,0*
20,1,$1+$1,$8,$9,$2,$3,0*%
G04 Aperture macros list end*
%ADD10R,0.700000X0.700000*%
%ADD11RoundRect,0.225000X-0.225000X-0.250000X0.225000X-0.250000X0.225000X0.250000X-0.225000X0.250000X0*%
%ADD12RoundRect,0.250000X-0.325000X-1.100000X0.325000X-1.100000X0.325000X1.100000X-0.325000X1.100000X0*%
%ADD13R,3.500000X3.500000*%
%ADD14C,4.000000*%
%ADD15R,1.000000X1.000000*%
%ADD16C,1.000000*%
G04 APERTURE END LIST*
D10*
%TO.C,REF\u002A\u002A20*%
X71927500Y49350000D03*
X71927500Y48250000D03*
D11*
X72425000Y46900000D03*
D10*
X73952500Y49350000D03*
X73952500Y48250000D03*
D11*
X73975000Y46900000D03*
%TD*%
D10*
%TO.C,REF\u002A\u002A20*%
X71927500Y98150000D03*
X71927500Y97050000D03*
X73952500Y98150000D03*
X73952500Y97050000D03*
D11*
X73975000Y95700000D03*
X72425000Y95700000D03*
%TD*%
D12*
%TO.C,10 nF*%
X88275000Y617100000D03*
X91225000Y617100000D03*
%TD*%
D10*
%TO.C,REF\u002A\u002A20*%
X120727500Y537350000D03*
X120727500Y536250000D03*
D11*
X121225000Y534900000D03*
D10*
X122752500Y537350000D03*
X122752500Y536250000D03*
D11*
X122775000Y534900000D03*
%TD*%
D10*
%TO.C,REF\u002A\u002A20*%
X120727500Y293350000D03*
X120727500Y292250000D03*
D11*
X121225000Y290900000D03*
D10*
X122752500Y293350000D03*
X122752500Y292250000D03*
D11*
X122775000Y290900000D03*
%TD*%
D12*
%TO.C,10 nF*%
X185875000Y617100000D03*
X188825000Y617100000D03*
%TD*%
D10*
%TO.C,REF\u002A\u002A20*%
X169527500Y244550000D03*
X169527500Y243450000D03*
D11*
X170025000Y242100000D03*
D10*
X171552500Y244550000D03*
X171552500Y243450000D03*
D11*
X171575000Y242100000D03*
%TD*%
D12*
%TO.C,10 nF*%
X131075000Y610600000D03*
X134025000Y610600000D03*
%TD*%
%TO.C,10 nF*%
X125075000Y617100000D03*
X128025000Y617100000D03*
%TD*%
D13*
%TO.C,REF\u002A\u002A*%
X105100000Y635000000D03*
D14*
X100075000Y640025000D03*
X100075000Y629975000D03*
X110125000Y640025000D03*
X110125000Y629975000D03*
%TD*%
D10*
%TO.C,REF\u002A\u002A20*%
X71927500Y537350000D03*
X71927500Y536250000D03*
D11*
X72425000Y534900000D03*
D10*
X73952500Y537350000D03*
X73952500Y536250000D03*
D11*
X73975000Y534900000D03*
%TD*%
D12*
%TO.C,10 nF*%
X119100000Y623600000D03*
X122050000Y623600000D03*
%TD*%
D15*
%TO.C,REF\u002A\u002A*%
X47420000Y635600000D03*
D16*
X47420000Y636870000D03*
X48690000Y635600000D03*
X48690000Y636870000D03*
X49960000Y635600000D03*
X49960000Y636870000D03*
X51230000Y635600000D03*
X51230000Y636870000D03*
X52500000Y635600000D03*
X52500000Y636870000D03*
X53770000Y635600000D03*
X53770000Y636870000D03*
X55040000Y635600000D03*
X55040000Y636870000D03*
X56310000Y635600000D03*
X56310000Y636870000D03*
X57580000Y635600000D03*
X57580000Y636870000D03*
X58850000Y635600000D03*
X58850000Y636870000D03*
X60120000Y635600000D03*
X60120000Y636870000D03*
X61390000Y635600000D03*
X61390000Y636870000D03*
X62660000Y635600000D03*
X62660000Y636870000D03*
%TD*%
D12*
%TO.C,10 nF*%
X167900000Y623600000D03*
X170850000Y623600000D03*
%TD*%
%TO.C,10 nF*%
X76275000Y617100000D03*
X79225000Y617100000D03*
%TD*%
%TO.C,10 nF*%
X119075000Y617100000D03*
X122025000Y617100000D03*
%TD*%
%TO.C,10 nF*%
X167850000Y610600000D03*
X170800000Y610600000D03*
%TD*%
D10*
%TO.C,REF\u002A\u002A20*%
X71927500Y244550000D03*
X71927500Y243450000D03*
D11*
X72425000Y242100000D03*
D10*
X73952500Y244550000D03*
X73952500Y243450000D03*
D11*
X73975000Y242100000D03*
%TD*%
D10*
%TO.C,REF\u002A\u002A20*%
X120727500Y195750000D03*
X120727500Y194650000D03*
D11*
X121225000Y193300000D03*
D10*
X122752500Y195750000D03*
X122752500Y194650000D03*
D11*
X122775000Y193300000D03*
%TD*%
D12*
%TO.C,10 nF*%
X70300000Y623600000D03*
X73250000Y623600000D03*
%TD*%
%TO.C,10 nF*%
X76275000Y623600000D03*
X79225000Y623600000D03*
%TD*%
%TO.C,10 nF*%
X173850000Y610600000D03*
X176800000Y610600000D03*
%TD*%
%TO.C,10 nF*%
X82275000Y623600000D03*
X85225000Y623600000D03*
%TD*%
D10*
%TO.C,REF\u002A\u002A20*%
X120727500Y98150000D03*
X120727500Y97050000D03*
D11*
X121225000Y95700000D03*
D10*
X122752500Y98150000D03*
X122752500Y97050000D03*
D11*
X122775000Y95700000D03*
%TD*%
D15*
%TO.C,REF\u002A\u002A*%
X131160000Y635600000D03*
D16*
X131160000Y636870000D03*
X132430000Y635600000D03*
X132430000Y636870000D03*
X133700000Y635600000D03*
X133700000Y636870000D03*
X134970000Y635600000D03*
X134970000Y636870000D03*
X136240000Y635600000D03*
X136240000Y636870000D03*
X137510000Y635600000D03*
X137510000Y636870000D03*
X138780000Y635600000D03*
X138780000Y636870000D03*
X140050000Y635600000D03*
X140050000Y636870000D03*
X141320000Y635600000D03*
X141320000Y636870000D03*
X142590000Y635600000D03*
X142590000Y636870000D03*
X143860000Y635600000D03*
X143860000Y636870000D03*
X145130000Y635600000D03*
X145130000Y636870000D03*
X146400000Y635600000D03*
X146400000Y636870000D03*
X147670000Y635600000D03*
X147670000Y636870000D03*
X148940000Y635600000D03*
X148940000Y636870000D03*
X150210000Y635600000D03*
X150210000Y636870000D03*
X151480000Y635600000D03*
X151480000Y636870000D03*
X152750000Y635600000D03*
X152750000Y636870000D03*
X154020000Y635600000D03*
X154020000Y636870000D03*
X155290000Y635600000D03*
X155290000Y636870000D03*
X156560000Y635600000D03*
X156560000Y636870000D03*
X157830000Y635600000D03*
X157830000Y636870000D03*
X159100000Y635600000D03*
X159100000Y636870000D03*
X160370000Y635600000D03*
X160370000Y636870000D03*
X161640000Y635600000D03*
X161640000Y636870000D03*
%TD*%
D12*
%TO.C,10 nF*%
X76250000Y610600000D03*
X79200000Y610600000D03*
%TD*%
D10*
%TO.C,REF\u002A\u002A20*%
X169527500Y390950000D03*
X169527500Y389850000D03*
D11*
X170025000Y388500000D03*
D10*
X171552500Y390950000D03*
X171552500Y389850000D03*
D11*
X171575000Y388500000D03*
%TD*%
D10*
%TO.C,REF\u002A\u002A20*%
X120727500Y244550000D03*
X120727500Y243450000D03*
D11*
X121225000Y242100000D03*
D10*
X122752500Y244550000D03*
X122752500Y243450000D03*
D11*
X122775000Y242100000D03*
%TD*%
D10*
%TO.C,REF\u002A\u002A20*%
X71927500Y293350000D03*
X71927500Y292250000D03*
D11*
X72425000Y290900000D03*
D10*
X73952500Y293350000D03*
X73952500Y292250000D03*
D11*
X73975000Y290900000D03*
%TD*%
D10*
%TO.C,REF\u002A\u002A20*%
X71927500Y342150000D03*
X71927500Y341050000D03*
D11*
X72425000Y339700000D03*
D10*
X73952500Y342150000D03*
X73952500Y341050000D03*
D11*
X73975000Y339700000D03*
%TD*%
D12*
%TO.C,10 nF*%
X70250000Y610600000D03*
X73200000Y610600000D03*
%TD*%
D10*
%TO.C,REF\u002A\u002A20*%
X71927500Y439750000D03*
X71927500Y438650000D03*
D11*
X72425000Y437300000D03*
D10*
X73952500Y439750000D03*
X73952500Y438650000D03*
D11*
X73975000Y437300000D03*
%TD*%
D12*
%TO.C,10 nF*%
X82275000Y610600000D03*
X85225000Y610600000D03*
%TD*%
D10*
%TO.C,REF\u002A\u002A20*%
X169527500Y98150000D03*
X169527500Y97050000D03*
X171552500Y98150000D03*
X171552500Y97050000D03*
D11*
X171575000Y95700000D03*
X170025000Y95700000D03*
%TD*%
D12*
%TO.C,10 nF*%
X131075000Y623600000D03*
X134025000Y623600000D03*
%TD*%
%TO.C,10 nF*%
X70275000Y617100000D03*
X73225000Y617100000D03*
%TD*%
%TO.C,10 nF*%
X125050000Y610600000D03*
X128000000Y610600000D03*
%TD*%
%TO.C,10 nF*%
X173875000Y623600000D03*
X176825000Y623600000D03*
%TD*%
D10*
%TO.C,REF\u002A\u002A20*%
X120727500Y342150000D03*
X120727500Y341050000D03*
D11*
X121225000Y339700000D03*
D10*
X122752500Y342150000D03*
X122752500Y341050000D03*
D11*
X122775000Y339700000D03*
%TD*%
D10*
%TO.C,REF\u002A\u002A20*%
X169527500Y488550000D03*
X169527500Y487450000D03*
D11*
X170025000Y486100000D03*
D10*
X171552500Y488550000D03*
X171552500Y487450000D03*
D11*
X171575000Y486100000D03*
%TD*%
D12*
%TO.C,10 nF*%
X131075000Y617100000D03*
X134025000Y617100000D03*
%TD*%
%TO.C,10 nF*%
X88275000Y623600000D03*
X91225000Y623600000D03*
%TD*%
D10*
%TO.C,REF\u002A\u002A20*%
X169527500Y537350000D03*
X169527500Y536250000D03*
D11*
X170025000Y534900000D03*
D10*
X171552500Y537350000D03*
X171552500Y536250000D03*
D11*
X171575000Y534900000D03*
%TD*%
D12*
%TO.C,10 nF*%
X82275000Y617100000D03*
X85225000Y617100000D03*
%TD*%
D10*
%TO.C,REF\u002A\u002A20*%
X169527500Y195750000D03*
X169527500Y194650000D03*
D11*
X170025000Y193300000D03*
D10*
X171552500Y195750000D03*
X171552500Y194650000D03*
D11*
X171575000Y193300000D03*
%TD*%
D10*
%TO.C,REF\u002A\u002A20*%
X71927500Y488550000D03*
X71927500Y487450000D03*
D11*
X72425000Y486100000D03*
D10*
X73952500Y488550000D03*
X73952500Y487450000D03*
D11*
X73975000Y486100000D03*
%TD*%
D12*
%TO.C,10 nF*%
X137075000Y617100000D03*
X140025000Y617100000D03*
%TD*%
%TO.C,10 nF*%
X173875000Y617100000D03*
X176825000Y617100000D03*
%TD*%
D10*
%TO.C,REF\u002A\u002A20*%
X120727500Y488550000D03*
X120727500Y487450000D03*
D11*
X121225000Y486100000D03*
D10*
X122752500Y488550000D03*
X122752500Y487450000D03*
D11*
X122775000Y486100000D03*
%TD*%
D10*
%TO.C,REF\u002A\u002A20*%
X169527500Y439750000D03*
X169527500Y438650000D03*
D11*
X170025000Y437300000D03*
D10*
X171552500Y439750000D03*
X171552500Y438650000D03*
D11*
X171575000Y437300000D03*
%TD*%
D10*
%TO.C,REF\u002A\u002A20*%
X71927500Y146950000D03*
X71927500Y145850000D03*
D11*
X72425000Y144500000D03*
D10*
X73952500Y146950000D03*
X73952500Y145850000D03*
D11*
X73975000Y144500000D03*
%TD*%
D10*
%TO.C,REF\u002A\u002A20*%
X120727500Y49350000D03*
X120727500Y48250000D03*
D11*
X121225000Y46900000D03*
D10*
X122752500Y49350000D03*
X122752500Y48250000D03*
D11*
X122775000Y46900000D03*
%TD*%
D10*
%TO.C,REF\u002A\u002A20*%
X169527500Y146950000D03*
X169527500Y145850000D03*
D11*
X170025000Y144500000D03*
D10*
X171552500Y146950000D03*
X171552500Y145850000D03*
D11*
X171575000Y144500000D03*
%TD*%
D10*
%TO.C,REF\u002A\u002A20*%
X120727500Y439750000D03*
X120727500Y438650000D03*
D11*
X121225000Y437300000D03*
D10*
X122752500Y439750000D03*
X122752500Y438650000D03*
D11*
X122775000Y437300000D03*
%TD*%
D10*
%TO.C,REF\u002A\u002A20*%
X169527500Y342150000D03*
X169527500Y341050000D03*
D11*
X170025000Y339700000D03*
D10*
X171552500Y342150000D03*
X171552500Y341050000D03*
D11*
X171575000Y339700000D03*
%TD*%
D12*
%TO.C,10 nF*%
X167875000Y617100000D03*
X170825000Y617100000D03*
%TD*%
D10*
%TO.C,REF\u002A\u002A20*%
X71927500Y195750000D03*
X71927500Y194650000D03*
D11*
X72425000Y193300000D03*
D10*
X73952500Y195750000D03*
X73952500Y194650000D03*
D11*
X73975000Y193300000D03*
%TD*%
D12*
%TO.C,10 nF*%
X119050000Y610600000D03*
X122000000Y610600000D03*
%TD*%
%TO.C,10 nF*%
X137075000Y623600000D03*
X140025000Y623600000D03*
%TD*%
D10*
%TO.C,REF\u002A\u002A20*%
X120727500Y390950000D03*
X120727500Y389850000D03*
D11*
X121225000Y388500000D03*
D10*
X122752500Y390950000D03*
X122752500Y389850000D03*
D11*
X122775000Y388500000D03*
%TD*%
D12*
%TO.C,10 nF*%
X185875000Y623600000D03*
X188825000Y623600000D03*
%TD*%
D10*
%TO.C,REF\u002A\u002A20*%
X169527500Y293350000D03*
X169527500Y292250000D03*
D11*
X170025000Y290900000D03*
D10*
X171552500Y293350000D03*
X171552500Y292250000D03*
D11*
X171575000Y290900000D03*
%TD*%
D10*
%TO.C,REF\u002A\u002A20*%
X169527500Y49350000D03*
X169527500Y48250000D03*
D11*
X170025000Y46900000D03*
D10*
X171552500Y49350000D03*
X171552500Y48250000D03*
D11*
X171575000Y46900000D03*
%TD*%
D12*
%TO.C,10 nF*%
X125075000Y623600000D03*
X128025000Y623600000D03*
%TD*%
%TO.C,10 nF*%
X179875000Y617100000D03*
X182825000Y617100000D03*
%TD*%
D10*
%TO.C,REF\u002A\u002A20*%
X120727500Y146950000D03*
X120727500Y145850000D03*
D11*
X121225000Y144500000D03*
D10*
X122752500Y146950000D03*
X122752500Y145850000D03*
D11*
X122775000Y144500000D03*
%TD*%
D13*
%TO.C,REF\u002A\u002A*%
X25500000Y635000000D03*
D14*
X20475000Y640025000D03*
X20475000Y629975000D03*
X30525000Y640025000D03*
X30525000Y629975000D03*
%TD*%
D10*
%TO.C,REF\u002A\u002A20*%
X71927500Y390950000D03*
X71927500Y389850000D03*
D11*
X72425000Y388500000D03*
D10*
X73952500Y390950000D03*
X73952500Y389850000D03*
D11*
X73975000Y388500000D03*
%TD*%
D12*
%TO.C,10 nF*%
X179875000Y610600000D03*
X182825000Y610600000D03*
%TD*%
%TO.C,10 nF*%
X179875000Y623600000D03*
X182825000Y623600000D03*
%TD*%
M02*
