%TF.GenerationSoftware,KiCad,Pcbnew,9.0.2*%
%TF.CreationDate,2025-09-18T18:03:26-07:00*%
%TF.ProjectId,IV_Board_9ch_latch,49565f42-6f61-4726-945f-3963685f6c61,rev?*%
%TF.SameCoordinates,Original*%
%TF.FileFunction,Copper,L1,Top*%
%TF.FilePolarity,Positive*%
%FSLAX46Y46*%
G04 Gerber Fmt 4.6, Leading zero omitted, Abs format (unit mm)*
G04 Created by KiCad (PCBNEW 9.0.2) date 2025-09-18 18:03:26*
%MOMM*%
%LPD*%
G01*
G04 APERTURE LIST*
G04 Aperture macros list*
%AMRoundRect*
0 Rectangle with rounded corners*
0 $1 Rounding radius*
0 $2 $3 $4 $5 $6 $7 $8 $9 X,Y pos of 4 corners*
0 Add a 4 corners polygon primitive as box body*
4,1,4,$2,$3,$4,$5,$6,$7,$8,$9,$2,$3,0*
0 Add four circle primitives for the rounded corners*
1,1,$1+$1,$2,$3*
1,1,$1+$1,$4,$5*
1,1,$1+$1,$6,$7*
1,1,$1+$1,$8,$9*
0 Add four rect primitives between the rounded corners*
20,1,$1+$1,$2,$3,$4,$5,0*
20,1,$1+$1,$4,$5,$6,$7,0*
20,1,$1+$1,$6,$7,$8,$9,0*
20,1,$1+$1,$8,$9,$2,$3,0*%
G04 Aperture macros list end*
%TA.AperFunction,ComponentPad*%
%ADD10C,2.540000*%
%TD*%
%TA.AperFunction,SMDPad,CuDef*%
%ADD11RoundRect,0.125000X-0.125000X-0.475000X0.125000X-0.475000X0.125000X0.475000X-0.125000X0.475000X0*%
%TD*%
%TA.AperFunction,ComponentPad*%
%ADD12C,2.050000*%
%TD*%
%TA.AperFunction,ComponentPad*%
%ADD13C,2.250000*%
%TD*%
%TA.AperFunction,ViaPad*%
%ADD14C,0.600000*%
%TD*%
%TA.AperFunction,Conductor*%
%ADD15C,0.200000*%
%TD*%
G04 APERTURE END LIST*
D10*
%TO.P,REF\u002A\u002A,*%
%TO.N,*%
X165350000Y-95200000D03*
X182650000Y-95200000D03*
D11*
%TO.P,REF\u002A\u002A,1*%
%TO.N,A32*%
X169200000Y-96900000D03*
%TO.P,REF\u002A\u002A,2*%
%TO.N,K32*%
X169200000Y-93500000D03*
%TO.P,REF\u002A\u002A,3*%
%TO.N,A33*%
X170000000Y-96900000D03*
%TO.P,REF\u002A\u002A,4*%
%TO.N,K33*%
X170000000Y-93500000D03*
%TO.P,REF\u002A\u002A,5*%
%TO.N,A34*%
X170800000Y-96900000D03*
%TO.P,REF\u002A\u002A,6*%
%TO.N,K34*%
X170800000Y-93500000D03*
%TO.P,REF\u002A\u002A,7*%
%TO.N,A35*%
X171600000Y-96900000D03*
%TO.P,REF\u002A\u002A,8*%
%TO.N,K35*%
X171600000Y-93500000D03*
%TO.P,REF\u002A\u002A,9*%
%TO.N,A36*%
X175600000Y-96900000D03*
%TO.P,REF\u002A\u002A,10*%
%TO.N,K36*%
X175600000Y-93500000D03*
%TO.P,REF\u002A\u002A,11*%
%TO.N,A37*%
X176400000Y-96900000D03*
%TO.P,REF\u002A\u002A,12*%
%TO.N,K37*%
X176400000Y-93500000D03*
%TO.P,REF\u002A\u002A,13*%
%TO.N,A38*%
X177200000Y-96900000D03*
%TO.P,REF\u002A\u002A,14*%
%TO.N,K38*%
X177200000Y-93500000D03*
%TO.P,REF\u002A\u002A,15*%
%TO.N,A39*%
X178000000Y-96900000D03*
%TO.P,REF\u002A\u002A,16*%
%TO.N,K39*%
X178000000Y-93500000D03*
%TO.P,REF\u002A\u002A,17*%
%TO.N,GND*%
X178800000Y-96900000D03*
%TO.P,REF\u002A\u002A,18*%
X178800000Y-93500000D03*
%TD*%
D12*
%TO.P,REF\u002A\u002A6,1*%
%TO.N,A5*%
X218200000Y-97000000D03*
D13*
%TO.P,REF\u002A\u002A6,2*%
%TO.N,K5*%
X215660000Y-94460000D03*
%TO.N,N/C*%
X215660000Y-99540000D03*
X220740000Y-94460000D03*
X220740000Y-99540000D03*
%TD*%
D12*
%TO.P,REF\u002A\u002A7,1*%
%TO.N,A6*%
X130200000Y-109000000D03*
D13*
%TO.P,REF\u002A\u002A7,2*%
%TO.N,K6*%
X127660000Y-106460000D03*
%TO.N,N/C*%
X127660000Y-111540000D03*
X132740000Y-106460000D03*
X132740000Y-111540000D03*
%TD*%
D12*
%TO.P,REF\u002A\u002A2,1*%
%TO.N,A1*%
X142200000Y-97000000D03*
D13*
%TO.P,REF\u002A\u002A2,2*%
%TO.N,K1*%
X139660000Y-94460000D03*
%TO.N,N/C*%
X139660000Y-99540000D03*
X144740000Y-94460000D03*
X144740000Y-99540000D03*
%TD*%
D12*
%TO.P,REF\u002A\u002A8,1*%
%TO.N,A7*%
X142200000Y-109000000D03*
D13*
%TO.P,REF\u002A\u002A8,2*%
%TO.N,K7*%
X139660000Y-106460000D03*
%TO.N,N/C*%
X139660000Y-111540000D03*
X144740000Y-106460000D03*
X144740000Y-111540000D03*
%TD*%
D12*
%TO.P,REF\u002A\u002A1,1*%
%TO.N,A0*%
X130200000Y-97000000D03*
D13*
%TO.P,REF\u002A\u002A1,2*%
%TO.N,K0*%
X127660000Y-94460000D03*
%TO.N,N/C*%
X127660000Y-99540000D03*
X132740000Y-94460000D03*
X132740000Y-99540000D03*
%TD*%
D12*
%TO.P,REF\u002A\u002A4,1*%
%TO.N,A3*%
X194200000Y-97000000D03*
D13*
%TO.P,REF\u002A\u002A4,2*%
%TO.N,K3*%
X191660000Y-94460000D03*
%TO.N,N/C*%
X191660000Y-99540000D03*
X196740000Y-94460000D03*
X196740000Y-99540000D03*
%TD*%
D12*
%TO.P,REF\u002A\u002A9,1*%
%TO.N,A8*%
X154500000Y-109000000D03*
D13*
%TO.P,REF\u002A\u002A9,2*%
%TO.N,K8*%
X151960000Y-106460000D03*
%TO.N,N/C*%
X151960000Y-111540000D03*
X157040000Y-106460000D03*
X157040000Y-111540000D03*
%TD*%
D12*
%TO.P,REF\u002A\u002A5,1*%
%TO.N,A4*%
X206200000Y-97000000D03*
D13*
%TO.P,REF\u002A\u002A5,2*%
%TO.N,K4*%
X203660000Y-94460000D03*
%TO.N,N/C*%
X203660000Y-99540000D03*
X208740000Y-94460000D03*
X208740000Y-99540000D03*
%TD*%
D12*
%TO.P,REF\u002A\u002A3,1*%
%TO.N,A2*%
X154200000Y-97000000D03*
D13*
%TO.P,REF\u002A\u002A3,2*%
%TO.N,K2*%
X151660000Y-94460000D03*
%TO.N,N/C*%
X151660000Y-99540000D03*
X156740000Y-94460000D03*
X156740000Y-99540000D03*
%TD*%
D14*
%TO.N,A1*%
X170000000Y-98500000D03*
%TO.N,K1*%
X169375735Y-92200000D03*
%TO.N,K2*%
X166000000Y-91600000D03*
%TO.N,A8*%
X179200000Y-98500000D03*
%TO.N,K6*%
X173801000Y-100000000D03*
%TO.N,K7*%
X174401000Y-99256705D03*
%TO.N,K8*%
X178600000Y-95000000D03*
%TO.N,A3*%
X173000000Y-98500000D03*
X177024265Y-100024265D03*
%TO.N,A4*%
X176174265Y-98325735D03*
X177589952Y-99458577D03*
%TO.N,K4*%
X190800000Y-92000000D03*
%TO.N,K5*%
X177074265Y-92274265D03*
%TD*%
D15*
%TO.N,A0*%
X164250000Y-91600000D02*
X131200000Y-91600000D01*
X130200000Y-92600000D02*
X130200000Y-97000000D01*
X169300000Y-97000000D02*
X169300000Y-96650000D01*
X131200000Y-91600000D02*
X130200000Y-92600000D01*
X169300000Y-96650000D02*
X164250000Y-91600000D01*
%TO.N,K0*%
X166817100Y-93600000D02*
X164217100Y-91000000D01*
X169300000Y-93600000D02*
X166817100Y-93600000D01*
X164217100Y-91000000D02*
X131120000Y-91000000D01*
X131120000Y-91000000D02*
X127660000Y-94460000D01*
%TO.N,A1*%
X170100000Y-98400000D02*
X170000000Y-98500000D01*
X170100000Y-97000000D02*
X170100000Y-98400000D01*
%TO.N,K1*%
X169375735Y-92200000D02*
X170100000Y-92924265D01*
X170100000Y-92924265D02*
X170100000Y-93600000D01*
%TO.N,A2*%
X157000000Y-101800000D02*
X167600000Y-101800000D01*
X154200000Y-101000000D02*
X156200000Y-101000000D01*
X167600000Y-101800000D02*
X170900000Y-98500000D01*
X154200000Y-97000000D02*
X154200000Y-101000000D01*
X156200000Y-101000000D02*
X157000000Y-101800000D01*
X170900000Y-98500000D02*
X170900000Y-97000000D01*
%TO.N,K2*%
X170900000Y-92800000D02*
X170900000Y-93600000D01*
X169700000Y-91600000D02*
X170900000Y-92800000D01*
X166000000Y-91600000D02*
X169700000Y-91600000D01*
%TO.N,A6*%
X177300000Y-98100000D02*
X172800000Y-102600000D01*
X130200000Y-105400000D02*
X130000000Y-105200000D01*
X130000000Y-105200000D02*
X132600000Y-102600000D01*
X130200000Y-109000000D02*
X130200000Y-105400000D01*
X132600000Y-102600000D02*
X172800000Y-102600000D01*
X177300000Y-97000000D02*
X177300000Y-98100000D01*
%TO.N,A7*%
X142200000Y-109000000D02*
X142200000Y-103400000D01*
X142200000Y-103400000D02*
X142600000Y-103000000D01*
X173200000Y-103000000D02*
X178100000Y-98100000D01*
X142600000Y-103000000D02*
X173200000Y-103000000D01*
X178100000Y-98100000D02*
X178100000Y-97000000D01*
%TO.N,A8*%
X178900000Y-98200000D02*
X179200000Y-98500000D01*
X178900000Y-97000000D02*
X178900000Y-98200000D01*
%TO.N,K6*%
X173801000Y-96199000D02*
X175000000Y-95000000D01*
X175000000Y-95000000D02*
X177000000Y-95000000D01*
X177300000Y-94700000D02*
X177300000Y-93600000D01*
X177000000Y-95000000D02*
X177300000Y-94700000D01*
X173801000Y-100000000D02*
X173801000Y-96199000D01*
%TO.N,K7*%
X178000000Y-93700000D02*
X178100000Y-93600000D01*
X175180900Y-95500000D02*
X174401000Y-96279900D01*
X178000000Y-95000000D02*
X177500000Y-95500000D01*
X177500000Y-95500000D02*
X175180900Y-95500000D01*
X174401000Y-96279900D02*
X174401000Y-99256705D01*
X178000000Y-95000000D02*
X178000000Y-93700000D01*
%TO.N,K8*%
X178900000Y-93600000D02*
X178900000Y-94700000D01*
X178900000Y-94700000D02*
X178600000Y-95000000D01*
%TO.N,A3*%
X190165000Y-100965000D02*
X189400000Y-100200000D01*
X192507628Y-100707628D02*
X192250256Y-100965000D01*
X185050000Y-100200000D02*
X177200000Y-100200000D01*
X194200000Y-97000000D02*
X194200000Y-99015255D01*
X173000000Y-98500000D02*
X171700000Y-97200000D01*
X189400000Y-100200000D02*
X185050000Y-100200000D01*
X177200000Y-100200000D02*
X177024265Y-100024265D01*
X194200000Y-99015255D02*
X192507628Y-100707628D01*
X171700000Y-97200000D02*
X171700000Y-97000000D01*
X192250256Y-100965000D02*
X190165000Y-100965000D01*
%TO.N,A4*%
X186111423Y-99458577D02*
X177589952Y-99458577D01*
X175700000Y-97851470D02*
X175700000Y-97000000D01*
X195000000Y-95675000D02*
X196325000Y-97000000D01*
X193525000Y-95675000D02*
X195000000Y-95675000D01*
X196325000Y-97000000D02*
X206200000Y-97000000D01*
X187485000Y-98115000D02*
X191085000Y-98115000D01*
X186985000Y-98585000D02*
X187000000Y-98600000D01*
X186985000Y-98585000D02*
X186111423Y-99458577D01*
X187000000Y-98600000D02*
X187485000Y-98115000D01*
X191085000Y-98115000D02*
X193525000Y-95675000D01*
X176174265Y-98325735D02*
X175700000Y-97851470D01*
%TO.N,A5*%
X205525000Y-95675000D02*
X207875000Y-95675000D01*
X188000000Y-96200000D02*
X192434314Y-96200000D01*
X176749000Y-96099000D02*
X179758451Y-96099000D01*
X186926000Y-95126000D02*
X188000000Y-96200000D01*
X176500000Y-96348000D02*
X176749000Y-96099000D01*
X195200000Y-95275000D02*
X195810000Y-95885000D01*
X186083500Y-94283500D02*
X186926000Y-95126000D01*
X181573951Y-94283500D02*
X186083500Y-94283500D01*
X192434314Y-96200000D02*
X193359314Y-95275000D01*
X179758451Y-96099000D02*
X181573951Y-94283500D01*
X207875000Y-95675000D02*
X209200000Y-97000000D01*
X209200000Y-97000000D02*
X218200000Y-97000000D01*
X195810000Y-95885000D02*
X205315000Y-95885000D01*
X176500000Y-97000000D02*
X176500000Y-96348000D01*
X193359314Y-95275000D02*
X195200000Y-95275000D01*
X205315000Y-95885000D02*
X205525000Y-95675000D01*
%TO.N,K3*%
X191660000Y-94460000D02*
X191660000Y-91660000D01*
X191660000Y-91660000D02*
X191200000Y-91200000D01*
X191200000Y-91200000D02*
X174100000Y-91200000D01*
X174100000Y-91200000D02*
X171700000Y-93600000D01*
%TO.N,K4*%
X190800000Y-92000000D02*
X190400000Y-91600000D01*
X190400000Y-91600000D02*
X176900000Y-91600000D01*
X176900000Y-91600000D02*
X175700000Y-92800000D01*
X175700000Y-92800000D02*
X175700000Y-93600000D01*
%TO.N,K5*%
X176500000Y-92848530D02*
X176500000Y-93600000D01*
X177074265Y-92274265D02*
X176500000Y-92848530D01*
%TD*%
%TA.AperFunction,NonConductor*%
G36*
X223473695Y-89720185D02*
G01*
X223519450Y-89772989D01*
X223530656Y-89824500D01*
X223530656Y-113744344D01*
X223510971Y-113811383D01*
X223458167Y-113857138D01*
X223406656Y-113868344D01*
X125424500Y-113868344D01*
X125357461Y-113848659D01*
X125311706Y-113795855D01*
X125300500Y-113744344D01*
X125300500Y-111412070D01*
X126034500Y-111412070D01*
X126034500Y-111667929D01*
X126074526Y-111920640D01*
X126153588Y-112163972D01*
X126153589Y-112163975D01*
X126269750Y-112391950D01*
X126420132Y-112598935D01*
X126420136Y-112598940D01*
X126601059Y-112779863D01*
X126601064Y-112779867D01*
X126781607Y-112911038D01*
X126808053Y-112930252D01*
X126957080Y-113006185D01*
X127036024Y-113046410D01*
X127036027Y-113046411D01*
X127157693Y-113085942D01*
X127279361Y-113125474D01*
X127532070Y-113165500D01*
X127532071Y-113165500D01*
X127787929Y-113165500D01*
X127787930Y-113165500D01*
X128040639Y-113125474D01*
X128283975Y-113046410D01*
X128511947Y-112930252D01*
X128718942Y-112779862D01*
X128899862Y-112598942D01*
X129050252Y-112391947D01*
X129166410Y-112163975D01*
X129245474Y-111920639D01*
X129285500Y-111667930D01*
X129285500Y-111412070D01*
X131114500Y-111412070D01*
X131114500Y-111667929D01*
X131154526Y-111920640D01*
X131233588Y-112163972D01*
X131233589Y-112163975D01*
X131349750Y-112391950D01*
X131500132Y-112598935D01*
X131500136Y-112598940D01*
X131681059Y-112779863D01*
X131681064Y-112779867D01*
X131861607Y-112911038D01*
X131888053Y-112930252D01*
X132037080Y-113006185D01*
X132116024Y-113046410D01*
X132116027Y-113046411D01*
X132237693Y-113085942D01*
X132359361Y-113125474D01*
X132612070Y-113165500D01*
X132612071Y-113165500D01*
X132867929Y-113165500D01*
X132867930Y-113165500D01*
X133120639Y-113125474D01*
X133363975Y-113046410D01*
X133591947Y-112930252D01*
X133798942Y-112779862D01*
X133979862Y-112598942D01*
X134130252Y-112391947D01*
X134246410Y-112163975D01*
X134325474Y-111920639D01*
X134365500Y-111667930D01*
X134365500Y-111412070D01*
X138034500Y-111412070D01*
X138034500Y-111667929D01*
X138074526Y-111920640D01*
X138153588Y-112163972D01*
X138153589Y-112163975D01*
X138269750Y-112391950D01*
X138420132Y-112598935D01*
X138420136Y-112598940D01*
X138601059Y-112779863D01*
X138601064Y-112779867D01*
X138781607Y-112911038D01*
X138808053Y-112930252D01*
X138957080Y-113006185D01*
X139036024Y-113046410D01*
X139036027Y-113046411D01*
X139157693Y-113085942D01*
X139279361Y-113125474D01*
X139532070Y-113165500D01*
X139532071Y-113165500D01*
X139787929Y-113165500D01*
X139787930Y-113165500D01*
X140040639Y-113125474D01*
X140283975Y-113046410D01*
X140511947Y-112930252D01*
X140718942Y-112779862D01*
X140899862Y-112598942D01*
X141050252Y-112391947D01*
X141166410Y-112163975D01*
X141245474Y-111920639D01*
X141285500Y-111667930D01*
X141285500Y-111412070D01*
X143114500Y-111412070D01*
X143114500Y-111667929D01*
X143154526Y-111920640D01*
X143233588Y-112163972D01*
X143233589Y-112163975D01*
X143349750Y-112391950D01*
X143500132Y-112598935D01*
X143500136Y-112598940D01*
X143681059Y-112779863D01*
X143681064Y-112779867D01*
X143861607Y-112911038D01*
X143888053Y-112930252D01*
X144037080Y-113006185D01*
X144116024Y-113046410D01*
X144116027Y-113046411D01*
X144237693Y-113085942D01*
X144359361Y-113125474D01*
X144612070Y-113165500D01*
X144612071Y-113165500D01*
X144867929Y-113165500D01*
X144867930Y-113165500D01*
X145120639Y-113125474D01*
X145363975Y-113046410D01*
X145591947Y-112930252D01*
X145798942Y-112779862D01*
X145979862Y-112598942D01*
X146130252Y-112391947D01*
X146246410Y-112163975D01*
X146325474Y-111920639D01*
X146365500Y-111667930D01*
X146365500Y-111412070D01*
X150334500Y-111412070D01*
X150334500Y-111667929D01*
X150374526Y-111920640D01*
X150453588Y-112163972D01*
X150453589Y-112163975D01*
X150569750Y-112391950D01*
X150720132Y-112598935D01*
X150720136Y-112598940D01*
X150901059Y-112779863D01*
X150901064Y-112779867D01*
X151081607Y-112911038D01*
X151108053Y-112930252D01*
X151257080Y-113006185D01*
X151336024Y-113046410D01*
X151336027Y-113046411D01*
X151457693Y-113085942D01*
X151579361Y-113125474D01*
X151832070Y-113165500D01*
X151832071Y-113165500D01*
X152087929Y-113165500D01*
X152087930Y-113165500D01*
X152340639Y-113125474D01*
X152583975Y-113046410D01*
X152811947Y-112930252D01*
X153018942Y-112779862D01*
X153199862Y-112598942D01*
X153350252Y-112391947D01*
X153466410Y-112163975D01*
X153545474Y-111920639D01*
X153585500Y-111667930D01*
X153585500Y-111412070D01*
X155414500Y-111412070D01*
X155414500Y-111667929D01*
X155454526Y-111920640D01*
X155533588Y-112163972D01*
X155533589Y-112163975D01*
X155649750Y-112391950D01*
X155800132Y-112598935D01*
X155800136Y-112598940D01*
X155981059Y-112779863D01*
X155981064Y-112779867D01*
X156161607Y-112911038D01*
X156188053Y-112930252D01*
X156337080Y-113006185D01*
X156416024Y-113046410D01*
X156416027Y-113046411D01*
X156537693Y-113085942D01*
X156659361Y-113125474D01*
X156912070Y-113165500D01*
X156912071Y-113165500D01*
X157167929Y-113165500D01*
X157167930Y-113165500D01*
X157420639Y-113125474D01*
X157663975Y-113046410D01*
X157891947Y-112930252D01*
X158098942Y-112779862D01*
X158279862Y-112598942D01*
X158430252Y-112391947D01*
X158546410Y-112163975D01*
X158625474Y-111920639D01*
X158665500Y-111667930D01*
X158665500Y-111412070D01*
X158625474Y-111159361D01*
X158546410Y-110916025D01*
X158546410Y-110916024D01*
X158506185Y-110837080D01*
X158430252Y-110688053D01*
X158284860Y-110487937D01*
X158279867Y-110481064D01*
X158279863Y-110481059D01*
X158098940Y-110300136D01*
X158098935Y-110300132D01*
X157891950Y-110149750D01*
X157891949Y-110149749D01*
X157891947Y-110149748D01*
X157818910Y-110112533D01*
X157663975Y-110033589D01*
X157663972Y-110033588D01*
X157420640Y-109954526D01*
X157294284Y-109934513D01*
X157167930Y-109914500D01*
X156912070Y-109914500D01*
X156827833Y-109927842D01*
X156659359Y-109954526D01*
X156416027Y-110033588D01*
X156416024Y-110033589D01*
X156188049Y-110149750D01*
X155981064Y-110300132D01*
X155981059Y-110300136D01*
X155800136Y-110481059D01*
X155800132Y-110481064D01*
X155649750Y-110688049D01*
X155533589Y-110916024D01*
X155533588Y-110916027D01*
X155454526Y-111159359D01*
X155414500Y-111412070D01*
X153585500Y-111412070D01*
X153545474Y-111159361D01*
X153466410Y-110916025D01*
X153466410Y-110916024D01*
X153426185Y-110837080D01*
X153350252Y-110688053D01*
X153204860Y-110487937D01*
X153199867Y-110481064D01*
X153199863Y-110481059D01*
X153018940Y-110300136D01*
X153018935Y-110300132D01*
X152811950Y-110149750D01*
X152811949Y-110149749D01*
X152811947Y-110149748D01*
X152738910Y-110112533D01*
X152583975Y-110033589D01*
X152583972Y-110033588D01*
X152340640Y-109954526D01*
X152214284Y-109934513D01*
X152087930Y-109914500D01*
X151832070Y-109914500D01*
X151747833Y-109927842D01*
X151579359Y-109954526D01*
X151336027Y-110033588D01*
X151336024Y-110033589D01*
X151108049Y-110149750D01*
X150901064Y-110300132D01*
X150901059Y-110300136D01*
X150720136Y-110481059D01*
X150720132Y-110481064D01*
X150569750Y-110688049D01*
X150453589Y-110916024D01*
X150453588Y-110916027D01*
X150374526Y-111159359D01*
X150334500Y-111412070D01*
X146365500Y-111412070D01*
X146325474Y-111159361D01*
X146246410Y-110916025D01*
X146246410Y-110916024D01*
X146206185Y-110837080D01*
X146130252Y-110688053D01*
X145984860Y-110487937D01*
X145979867Y-110481064D01*
X145979863Y-110481059D01*
X145798940Y-110300136D01*
X145798935Y-110300132D01*
X145591950Y-110149750D01*
X145591949Y-110149749D01*
X145591947Y-110149748D01*
X145518910Y-110112533D01*
X145363975Y-110033589D01*
X145363972Y-110033588D01*
X145120640Y-109954526D01*
X144994284Y-109934513D01*
X144867930Y-109914500D01*
X144612070Y-109914500D01*
X144527833Y-109927842D01*
X144359359Y-109954526D01*
X144116027Y-110033588D01*
X144116024Y-110033589D01*
X143888049Y-110149750D01*
X143681064Y-110300132D01*
X143681059Y-110300136D01*
X143500136Y-110481059D01*
X143500132Y-110481064D01*
X143349750Y-110688049D01*
X143233589Y-110916024D01*
X143233588Y-110916027D01*
X143154526Y-111159359D01*
X143114500Y-111412070D01*
X141285500Y-111412070D01*
X141245474Y-111159361D01*
X141166410Y-110916025D01*
X141166410Y-110916024D01*
X141126185Y-110837080D01*
X141050252Y-110688053D01*
X140904860Y-110487937D01*
X140899867Y-110481064D01*
X140899863Y-110481059D01*
X140718940Y-110300136D01*
X140718935Y-110300132D01*
X140511950Y-110149750D01*
X140511949Y-110149749D01*
X140511947Y-110149748D01*
X140438910Y-110112533D01*
X140283975Y-110033589D01*
X140283972Y-110033588D01*
X140040640Y-109954526D01*
X139914284Y-109934513D01*
X139787930Y-109914500D01*
X139532070Y-109914500D01*
X139447833Y-109927842D01*
X139279359Y-109954526D01*
X139036027Y-110033588D01*
X139036024Y-110033589D01*
X138808049Y-110149750D01*
X138601064Y-110300132D01*
X138601059Y-110300136D01*
X138420136Y-110481059D01*
X138420132Y-110481064D01*
X138269750Y-110688049D01*
X138153589Y-110916024D01*
X138153588Y-110916027D01*
X138074526Y-111159359D01*
X138034500Y-111412070D01*
X134365500Y-111412070D01*
X134325474Y-111159361D01*
X134246410Y-110916025D01*
X134246410Y-110916024D01*
X134206185Y-110837080D01*
X134130252Y-110688053D01*
X133984860Y-110487937D01*
X133979867Y-110481064D01*
X133979863Y-110481059D01*
X133798940Y-110300136D01*
X133798935Y-110300132D01*
X133591950Y-110149750D01*
X133591949Y-110149749D01*
X133591947Y-110149748D01*
X133518910Y-110112533D01*
X133363975Y-110033589D01*
X133363972Y-110033588D01*
X133120640Y-109954526D01*
X132994284Y-109934513D01*
X132867930Y-109914500D01*
X132612070Y-109914500D01*
X132527833Y-109927842D01*
X132359359Y-109954526D01*
X132116027Y-110033588D01*
X132116024Y-110033589D01*
X131888049Y-110149750D01*
X131681064Y-110300132D01*
X131681059Y-110300136D01*
X131500136Y-110481059D01*
X131500132Y-110481064D01*
X131349750Y-110688049D01*
X131233589Y-110916024D01*
X131233588Y-110916027D01*
X131154526Y-111159359D01*
X131114500Y-111412070D01*
X129285500Y-111412070D01*
X129245474Y-111159361D01*
X129166410Y-110916025D01*
X129166410Y-110916024D01*
X129126185Y-110837080D01*
X129050252Y-110688053D01*
X128904860Y-110487937D01*
X128899867Y-110481064D01*
X128899863Y-110481059D01*
X128718940Y-110300136D01*
X128718935Y-110300132D01*
X128511950Y-110149750D01*
X128511949Y-110149749D01*
X128511947Y-110149748D01*
X128438910Y-110112533D01*
X128283975Y-110033589D01*
X128283972Y-110033588D01*
X128040640Y-109954526D01*
X127914284Y-109934513D01*
X127787930Y-109914500D01*
X127532070Y-109914500D01*
X127447833Y-109927842D01*
X127279359Y-109954526D01*
X127036027Y-110033588D01*
X127036024Y-110033589D01*
X126808049Y-110149750D01*
X126601064Y-110300132D01*
X126601059Y-110300136D01*
X126420136Y-110481059D01*
X126420132Y-110481064D01*
X126269750Y-110688049D01*
X126153589Y-110916024D01*
X126153588Y-110916027D01*
X126074526Y-111159359D01*
X126034500Y-111412070D01*
X125300500Y-111412070D01*
X125300500Y-106332070D01*
X126034500Y-106332070D01*
X126034500Y-106587929D01*
X126074526Y-106840640D01*
X126153588Y-107083972D01*
X126153589Y-107083975D01*
X126269750Y-107311950D01*
X126420132Y-107518935D01*
X126420136Y-107518940D01*
X126601059Y-107699863D01*
X126601064Y-107699867D01*
X126781607Y-107831038D01*
X126808053Y-107850252D01*
X126957080Y-107926185D01*
X127036024Y-107966410D01*
X127036027Y-107966411D01*
X127157693Y-108005942D01*
X127279361Y-108045474D01*
X127532070Y-108085500D01*
X127532071Y-108085500D01*
X127787929Y-108085500D01*
X127787930Y-108085500D01*
X128040639Y-108045474D01*
X128283975Y-107966410D01*
X128511947Y-107850252D01*
X128718942Y-107699862D01*
X128899862Y-107518942D01*
X129050252Y-107311947D01*
X129166410Y-107083975D01*
X129245474Y-106840639D01*
X129285500Y-106587930D01*
X129285500Y-106332070D01*
X129245474Y-106079361D01*
X129166410Y-105836025D01*
X129166410Y-105836024D01*
X129097151Y-105700097D01*
X129050252Y-105608053D01*
X128963799Y-105489060D01*
X128899867Y-105401064D01*
X128899863Y-105401059D01*
X128718940Y-105220136D01*
X128718935Y-105220132D01*
X128511950Y-105069750D01*
X128511949Y-105069749D01*
X128511947Y-105069748D01*
X128438910Y-105032533D01*
X128283975Y-104953589D01*
X128283972Y-104953588D01*
X128040640Y-104874526D01*
X127914284Y-104854513D01*
X127787930Y-104834500D01*
X127532070Y-104834500D01*
X127447833Y-104847842D01*
X127279359Y-104874526D01*
X127036027Y-104953588D01*
X127036024Y-104953589D01*
X126808049Y-105069750D01*
X126601064Y-105220132D01*
X126601059Y-105220136D01*
X126420136Y-105401059D01*
X126420132Y-105401064D01*
X126269750Y-105608049D01*
X126153589Y-105836024D01*
X126153588Y-105836027D01*
X126074526Y-106079359D01*
X126034500Y-106332070D01*
X125300500Y-106332070D01*
X125300500Y-99412070D01*
X126034500Y-99412070D01*
X126034500Y-99667930D01*
X126035268Y-99672781D01*
X126074526Y-99920640D01*
X126153588Y-100163972D01*
X126153589Y-100163975D01*
X126181731Y-100219205D01*
X126263566Y-100379815D01*
X126269750Y-100391950D01*
X126420132Y-100598935D01*
X126420136Y-100598940D01*
X126601059Y-100779863D01*
X126601064Y-100779867D01*
X126781607Y-100911038D01*
X126808053Y-100930252D01*
X126933748Y-100994297D01*
X127036024Y-101046410D01*
X127036027Y-101046411D01*
X127128150Y-101076343D01*
X127279361Y-101125474D01*
X127532070Y-101165500D01*
X127532071Y-101165500D01*
X127787929Y-101165500D01*
X127787930Y-101165500D01*
X128040639Y-101125474D01*
X128283975Y-101046410D01*
X128511947Y-100930252D01*
X128718942Y-100779862D01*
X128899862Y-100598942D01*
X129050252Y-100391947D01*
X129166410Y-100163975D01*
X129245474Y-99920639D01*
X129285500Y-99667930D01*
X129285500Y-99412070D01*
X131114500Y-99412070D01*
X131114500Y-99667930D01*
X131115268Y-99672781D01*
X131154526Y-99920640D01*
X131233588Y-100163972D01*
X131233589Y-100163975D01*
X131261731Y-100219205D01*
X131343566Y-100379815D01*
X131349750Y-100391950D01*
X131500132Y-100598935D01*
X131500136Y-100598940D01*
X131681059Y-100779863D01*
X131681064Y-100779867D01*
X131861607Y-100911038D01*
X131888053Y-100930252D01*
X132013748Y-100994297D01*
X132116024Y-101046410D01*
X132116027Y-101046411D01*
X132208150Y-101076343D01*
X132359361Y-101125474D01*
X132612070Y-101165500D01*
X132612071Y-101165500D01*
X132867929Y-101165500D01*
X132867930Y-101165500D01*
X133120639Y-101125474D01*
X133363975Y-101046410D01*
X133591947Y-100930252D01*
X133798942Y-100779862D01*
X133979862Y-100598942D01*
X134130252Y-100391947D01*
X134246410Y-100163975D01*
X134325474Y-99920639D01*
X134365500Y-99667930D01*
X134365500Y-99412070D01*
X138034500Y-99412070D01*
X138034500Y-99667930D01*
X138035268Y-99672781D01*
X138074526Y-99920640D01*
X138153588Y-100163972D01*
X138153589Y-100163975D01*
X138181731Y-100219205D01*
X138263566Y-100379815D01*
X138269750Y-100391950D01*
X138420132Y-100598935D01*
X138420136Y-100598940D01*
X138601059Y-100779863D01*
X138601064Y-100779867D01*
X138781607Y-100911038D01*
X138808053Y-100930252D01*
X138933748Y-100994297D01*
X139036024Y-101046410D01*
X139036027Y-101046411D01*
X139128150Y-101076343D01*
X139279361Y-101125474D01*
X139532070Y-101165500D01*
X139532071Y-101165500D01*
X139787929Y-101165500D01*
X139787930Y-101165500D01*
X140040639Y-101125474D01*
X140283975Y-101046410D01*
X140511947Y-100930252D01*
X140718942Y-100779862D01*
X140899862Y-100598942D01*
X141050252Y-100391947D01*
X141166410Y-100163975D01*
X141245474Y-99920639D01*
X141285500Y-99667930D01*
X141285500Y-99412070D01*
X143114500Y-99412070D01*
X143114500Y-99667930D01*
X143115268Y-99672781D01*
X143154526Y-99920640D01*
X143233588Y-100163972D01*
X143233589Y-100163975D01*
X143261731Y-100219205D01*
X143343566Y-100379815D01*
X143349750Y-100391950D01*
X143500132Y-100598935D01*
X143500136Y-100598940D01*
X143681059Y-100779863D01*
X143681064Y-100779867D01*
X143861607Y-100911038D01*
X143888053Y-100930252D01*
X144013748Y-100994297D01*
X144116024Y-101046410D01*
X144116027Y-101046411D01*
X144208150Y-101076343D01*
X144359361Y-101125474D01*
X144612070Y-101165500D01*
X144612071Y-101165500D01*
X144867929Y-101165500D01*
X144867930Y-101165500D01*
X145120639Y-101125474D01*
X145363975Y-101046410D01*
X145591947Y-100930252D01*
X145798942Y-100779862D01*
X145979862Y-100598942D01*
X146130252Y-100391947D01*
X146246410Y-100163975D01*
X146325474Y-99920639D01*
X146365500Y-99667930D01*
X146365500Y-99412070D01*
X150034500Y-99412070D01*
X150034500Y-99667930D01*
X150035268Y-99672781D01*
X150074526Y-99920640D01*
X150153588Y-100163972D01*
X150153589Y-100163975D01*
X150181731Y-100219205D01*
X150263566Y-100379815D01*
X150269750Y-100391950D01*
X150420132Y-100598935D01*
X150420136Y-100598940D01*
X150601059Y-100779863D01*
X150601064Y-100779867D01*
X150781607Y-100911038D01*
X150808053Y-100930252D01*
X150933748Y-100994297D01*
X151036024Y-101046410D01*
X151036027Y-101046411D01*
X151128150Y-101076343D01*
X151279361Y-101125474D01*
X151532070Y-101165500D01*
X151532071Y-101165500D01*
X151787929Y-101165500D01*
X151787930Y-101165500D01*
X152040639Y-101125474D01*
X152283975Y-101046410D01*
X152511947Y-100930252D01*
X152718942Y-100779862D01*
X152899862Y-100598942D01*
X153050252Y-100391947D01*
X153166410Y-100163975D01*
X153245474Y-99920639D01*
X153285500Y-99667930D01*
X153285500Y-99412070D01*
X153245474Y-99159361D01*
X153185382Y-98974414D01*
X153166411Y-98916027D01*
X153166410Y-98916024D01*
X153118378Y-98821758D01*
X153050252Y-98688053D01*
X152970909Y-98578846D01*
X152899867Y-98481064D01*
X152899863Y-98481059D01*
X152718940Y-98300136D01*
X152718935Y-98300132D01*
X152511950Y-98149750D01*
X152511949Y-98149749D01*
X152511947Y-98149748D01*
X152381448Y-98083255D01*
X152283975Y-98033589D01*
X152283972Y-98033588D01*
X152040640Y-97954526D01*
X151863769Y-97926512D01*
X151787930Y-97914500D01*
X151532070Y-97914500D01*
X151456231Y-97926512D01*
X151279359Y-97954526D01*
X151036027Y-98033588D01*
X151036024Y-98033589D01*
X150808049Y-98149750D01*
X150601064Y-98300132D01*
X150601059Y-98300136D01*
X150420136Y-98481059D01*
X150420132Y-98481064D01*
X150269750Y-98688049D01*
X150153589Y-98916024D01*
X150153588Y-98916027D01*
X150074526Y-99159359D01*
X150053738Y-99290606D01*
X150034500Y-99412070D01*
X146365500Y-99412070D01*
X146325474Y-99159361D01*
X146265382Y-98974414D01*
X146246411Y-98916027D01*
X146246410Y-98916024D01*
X146198378Y-98821758D01*
X146130252Y-98688053D01*
X146050909Y-98578846D01*
X145979867Y-98481064D01*
X145979863Y-98481059D01*
X145798940Y-98300136D01*
X145798935Y-98300132D01*
X145591950Y-98149750D01*
X145591949Y-98149749D01*
X145591947Y-98149748D01*
X145461448Y-98083255D01*
X145363975Y-98033589D01*
X145363972Y-98033588D01*
X145120640Y-97954526D01*
X144943769Y-97926512D01*
X144867930Y-97914500D01*
X144612070Y-97914500D01*
X144536231Y-97926512D01*
X144359359Y-97954526D01*
X144116027Y-98033588D01*
X144116024Y-98033589D01*
X143888049Y-98149750D01*
X143681064Y-98300132D01*
X143681059Y-98300136D01*
X143500136Y-98481059D01*
X143500132Y-98481064D01*
X143349750Y-98688049D01*
X143233589Y-98916024D01*
X143233588Y-98916027D01*
X143154526Y-99159359D01*
X143133738Y-99290606D01*
X143114500Y-99412070D01*
X141285500Y-99412070D01*
X141245474Y-99159361D01*
X141185382Y-98974414D01*
X141166411Y-98916027D01*
X141166410Y-98916024D01*
X141118378Y-98821758D01*
X141050252Y-98688053D01*
X140970909Y-98578846D01*
X140899867Y-98481064D01*
X140899863Y-98481059D01*
X140718940Y-98300136D01*
X140718935Y-98300132D01*
X140511950Y-98149750D01*
X140511949Y-98149749D01*
X140511947Y-98149748D01*
X140381448Y-98083255D01*
X140283975Y-98033589D01*
X140283972Y-98033588D01*
X140040640Y-97954526D01*
X139863769Y-97926512D01*
X139787930Y-97914500D01*
X139532070Y-97914500D01*
X139456231Y-97926512D01*
X139279359Y-97954526D01*
X139036027Y-98033588D01*
X139036024Y-98033589D01*
X138808049Y-98149750D01*
X138601064Y-98300132D01*
X138601059Y-98300136D01*
X138420136Y-98481059D01*
X138420132Y-98481064D01*
X138269750Y-98688049D01*
X138153589Y-98916024D01*
X138153588Y-98916027D01*
X138074526Y-99159359D01*
X138053738Y-99290606D01*
X138034500Y-99412070D01*
X134365500Y-99412070D01*
X134325474Y-99159361D01*
X134265382Y-98974414D01*
X134246411Y-98916027D01*
X134246410Y-98916024D01*
X134198378Y-98821758D01*
X134130252Y-98688053D01*
X134050909Y-98578846D01*
X133979867Y-98481064D01*
X133979863Y-98481059D01*
X133798940Y-98300136D01*
X133798935Y-98300132D01*
X133591950Y-98149750D01*
X133591949Y-98149749D01*
X133591947Y-98149748D01*
X133461448Y-98083255D01*
X133363975Y-98033589D01*
X133363972Y-98033588D01*
X133120640Y-97954526D01*
X132943769Y-97926512D01*
X132867930Y-97914500D01*
X132612070Y-97914500D01*
X132536231Y-97926512D01*
X132359359Y-97954526D01*
X132116027Y-98033588D01*
X132116024Y-98033589D01*
X131888049Y-98149750D01*
X131681064Y-98300132D01*
X131681059Y-98300136D01*
X131500136Y-98481059D01*
X131500132Y-98481064D01*
X131349750Y-98688049D01*
X131233589Y-98916024D01*
X131233588Y-98916027D01*
X131154526Y-99159359D01*
X131133738Y-99290606D01*
X131114500Y-99412070D01*
X129285500Y-99412070D01*
X129245474Y-99159361D01*
X129185382Y-98974414D01*
X129166411Y-98916027D01*
X129166410Y-98916024D01*
X129118378Y-98821758D01*
X129050252Y-98688053D01*
X128970909Y-98578846D01*
X128899867Y-98481064D01*
X128899863Y-98481059D01*
X128718940Y-98300136D01*
X128718935Y-98300132D01*
X128511950Y-98149750D01*
X128511949Y-98149749D01*
X128511947Y-98149748D01*
X128381448Y-98083255D01*
X128283975Y-98033589D01*
X128283972Y-98033588D01*
X128040640Y-97954526D01*
X127863769Y-97926512D01*
X127787930Y-97914500D01*
X127532070Y-97914500D01*
X127456231Y-97926512D01*
X127279359Y-97954526D01*
X127036027Y-98033588D01*
X127036024Y-98033589D01*
X126808049Y-98149750D01*
X126601064Y-98300132D01*
X126601059Y-98300136D01*
X126420136Y-98481059D01*
X126420132Y-98481064D01*
X126269750Y-98688049D01*
X126153589Y-98916024D01*
X126153588Y-98916027D01*
X126074526Y-99159359D01*
X126053738Y-99290606D01*
X126034500Y-99412070D01*
X125300500Y-99412070D01*
X125300500Y-94332070D01*
X126034500Y-94332070D01*
X126034500Y-94587930D01*
X126048212Y-94674500D01*
X126074526Y-94840640D01*
X126153588Y-95083972D01*
X126153589Y-95083975D01*
X126198886Y-95172873D01*
X126252385Y-95277871D01*
X126269750Y-95311950D01*
X126420132Y-95518935D01*
X126420136Y-95518940D01*
X126601059Y-95699863D01*
X126601064Y-95699867D01*
X126742040Y-95802291D01*
X126808053Y-95850252D01*
X126935673Y-95915278D01*
X127036024Y-95966410D01*
X127036027Y-95966411D01*
X127092476Y-95984752D01*
X127279361Y-96045474D01*
X127532070Y-96085500D01*
X127532071Y-96085500D01*
X127787929Y-96085500D01*
X127787930Y-96085500D01*
X128040639Y-96045474D01*
X128283975Y-95966410D01*
X128511947Y-95850252D01*
X128718942Y-95699862D01*
X128899862Y-95518942D01*
X129050252Y-95311947D01*
X129166410Y-95083975D01*
X129166417Y-95083955D01*
X129196465Y-94991475D01*
X129245474Y-94840639D01*
X129285500Y-94587930D01*
X129285500Y-94332070D01*
X129245474Y-94079361D01*
X129181747Y-93883230D01*
X129179753Y-93813393D01*
X129211996Y-93757237D01*
X129387820Y-93581414D01*
X129449142Y-93547930D01*
X129518834Y-93552914D01*
X129574767Y-93594786D01*
X129599184Y-93660250D01*
X129599500Y-93669096D01*
X129599500Y-95517873D01*
X129579815Y-95584912D01*
X129531796Y-95628357D01*
X129400466Y-95695274D01*
X129206201Y-95836416D01*
X129036416Y-96006201D01*
X128895276Y-96200463D01*
X128786265Y-96414406D01*
X128712063Y-96642777D01*
X128674500Y-96879941D01*
X128674500Y-97120058D01*
X128712063Y-97357222D01*
X128786265Y-97585593D01*
X128867933Y-97745873D01*
X128895276Y-97799536D01*
X129036414Y-97993796D01*
X129206204Y-98163586D01*
X129400464Y-98304724D01*
X129467842Y-98339055D01*
X129614406Y-98413734D01*
X129614408Y-98413734D01*
X129614411Y-98413736D01*
X129842778Y-98487937D01*
X130079941Y-98525500D01*
X130079942Y-98525500D01*
X130320058Y-98525500D01*
X130320059Y-98525500D01*
X130557222Y-98487937D01*
X130785589Y-98413736D01*
X130786353Y-98413347D01*
X130803564Y-98404577D01*
X130999536Y-98304724D01*
X131193796Y-98163586D01*
X131363586Y-97993796D01*
X131504724Y-97799536D01*
X131613736Y-97585589D01*
X131687937Y-97357222D01*
X131725500Y-97120059D01*
X131725500Y-96879941D01*
X140674500Y-96879941D01*
X140674500Y-97120058D01*
X140712063Y-97357222D01*
X140786265Y-97585593D01*
X140867933Y-97745873D01*
X140895276Y-97799536D01*
X141036414Y-97993796D01*
X141206204Y-98163586D01*
X141400464Y-98304724D01*
X141467842Y-98339055D01*
X141614406Y-98413734D01*
X141614408Y-98413734D01*
X141614411Y-98413736D01*
X141842778Y-98487937D01*
X142079941Y-98525500D01*
X142079942Y-98525500D01*
X142320058Y-98525500D01*
X142320059Y-98525500D01*
X142557222Y-98487937D01*
X142785589Y-98413736D01*
X142786353Y-98413347D01*
X142803564Y-98404577D01*
X142999536Y-98304724D01*
X143193796Y-98163586D01*
X143363586Y-97993796D01*
X143504724Y-97799536D01*
X143613736Y-97585589D01*
X143687937Y-97357222D01*
X143725500Y-97120059D01*
X143725500Y-96879941D01*
X143687937Y-96642778D01*
X143613736Y-96414411D01*
X143613734Y-96414408D01*
X143613734Y-96414406D01*
X143504723Y-96200463D01*
X143494030Y-96185745D01*
X143363586Y-96006204D01*
X143193796Y-95836414D01*
X142999536Y-95695276D01*
X142999532Y-95695274D01*
X142785593Y-95586265D01*
X142557222Y-95512063D01*
X142320059Y-95474500D01*
X142079941Y-95474500D01*
X141961359Y-95493281D01*
X141842777Y-95512063D01*
X141614406Y-95586265D01*
X141400463Y-95695276D01*
X141206201Y-95836416D01*
X141036416Y-96006201D01*
X140895276Y-96200463D01*
X140786265Y-96414406D01*
X140712063Y-96642777D01*
X140674500Y-96879941D01*
X131725500Y-96879941D01*
X131687937Y-96642778D01*
X131613736Y-96414411D01*
X131613734Y-96414408D01*
X131613734Y-96414406D01*
X131504723Y-96200463D01*
X131494030Y-96185745D01*
X131363586Y-96006204D01*
X131193796Y-95836414D01*
X130999536Y-95695276D01*
X130999535Y-95695275D01*
X130999533Y-95695274D01*
X130868204Y-95628357D01*
X130817409Y-95580382D01*
X130800500Y-95517873D01*
X130800500Y-94332070D01*
X131114500Y-94332070D01*
X131114500Y-94587930D01*
X131128212Y-94674500D01*
X131154526Y-94840640D01*
X131233588Y-95083972D01*
X131233589Y-95083975D01*
X131278886Y-95172873D01*
X131332385Y-95277871D01*
X131349750Y-95311950D01*
X131500132Y-95518935D01*
X131500136Y-95518940D01*
X131681059Y-95699863D01*
X131681064Y-95699867D01*
X131822040Y-95802291D01*
X131888053Y-95850252D01*
X132015673Y-95915278D01*
X132116024Y-95966410D01*
X132116027Y-95966411D01*
X132172476Y-95984752D01*
X132359361Y-96045474D01*
X132612070Y-96085500D01*
X132612071Y-96085500D01*
X132867929Y-96085500D01*
X132867930Y-96085500D01*
X133120639Y-96045474D01*
X133363975Y-95966410D01*
X133591947Y-95850252D01*
X133798942Y-95699862D01*
X133979862Y-95518942D01*
X134130252Y-95311947D01*
X134246410Y-95083975D01*
X134246417Y-95083955D01*
X134276465Y-94991475D01*
X134325474Y-94840639D01*
X134365500Y-94587930D01*
X134365500Y-94332070D01*
X138034500Y-94332070D01*
X138034500Y-94587930D01*
X138048212Y-94674500D01*
X138074526Y-94840640D01*
X138153588Y-95083972D01*
X138153589Y-95083975D01*
X138198886Y-95172873D01*
X138252385Y-95277871D01*
X138269750Y-95311950D01*
X138420132Y-95518935D01*
X138420136Y-95518940D01*
X138601059Y-95699863D01*
X138601064Y-95699867D01*
X138742040Y-95802291D01*
X138808053Y-95850252D01*
X138935673Y-95915278D01*
X139036024Y-95966410D01*
X139036027Y-95966411D01*
X139092476Y-95984752D01*
X139279361Y-96045474D01*
X139532070Y-96085500D01*
X139532071Y-96085500D01*
X139787929Y-96085500D01*
X139787930Y-96085500D01*
X140040639Y-96045474D01*
X140283975Y-95966410D01*
X140511947Y-95850252D01*
X140718942Y-95699862D01*
X140899862Y-95518942D01*
X141050252Y-95311947D01*
X141166410Y-95083975D01*
X141166417Y-95083955D01*
X141196465Y-94991475D01*
X141245474Y-94840639D01*
X141285500Y-94587930D01*
X141285500Y-94332070D01*
X143114500Y-94332070D01*
X143114500Y-94587930D01*
X143128212Y-94674500D01*
X143154526Y-94840640D01*
X143233588Y-95083972D01*
X143233589Y-95083975D01*
X143278886Y-95172873D01*
X143332385Y-95277871D01*
X143349750Y-95311950D01*
X143500132Y-95518935D01*
X143500136Y-95518940D01*
X143681059Y-95699863D01*
X143681064Y-95699867D01*
X143822040Y-95802291D01*
X143888053Y-95850252D01*
X144015673Y-95915278D01*
X144116024Y-95966410D01*
X144116027Y-95966411D01*
X144172476Y-95984752D01*
X144359361Y-96045474D01*
X144612070Y-96085500D01*
X144612071Y-96085500D01*
X144867929Y-96085500D01*
X144867930Y-96085500D01*
X145120639Y-96045474D01*
X145363975Y-95966410D01*
X145591947Y-95850252D01*
X145798942Y-95699862D01*
X145979862Y-95518942D01*
X146130252Y-95311947D01*
X146246410Y-95083975D01*
X146246417Y-95083955D01*
X146276465Y-94991475D01*
X146325474Y-94840639D01*
X146365500Y-94587930D01*
X146365500Y-94332070D01*
X150034500Y-94332070D01*
X150034500Y-94587930D01*
X150048212Y-94674500D01*
X150074526Y-94840640D01*
X150153588Y-95083972D01*
X150153589Y-95083975D01*
X150198886Y-95172873D01*
X150252385Y-95277871D01*
X150269750Y-95311950D01*
X150420132Y-95518935D01*
X150420136Y-95518940D01*
X150601059Y-95699863D01*
X150601064Y-95699867D01*
X150742040Y-95802291D01*
X150808053Y-95850252D01*
X150935673Y-95915278D01*
X151036024Y-95966410D01*
X151036027Y-95966411D01*
X151092476Y-95984752D01*
X151279361Y-96045474D01*
X151532070Y-96085500D01*
X151532071Y-96085500D01*
X151787929Y-96085500D01*
X151787930Y-96085500D01*
X152040639Y-96045474D01*
X152283975Y-95966410D01*
X152511947Y-95850252D01*
X152718942Y-95699862D01*
X152899862Y-95518942D01*
X153050252Y-95311947D01*
X153166410Y-95083975D01*
X153166417Y-95083955D01*
X153196465Y-94991475D01*
X153245474Y-94840639D01*
X153285500Y-94587930D01*
X153285500Y-94332070D01*
X155114500Y-94332070D01*
X155114500Y-94587930D01*
X155128212Y-94674500D01*
X155154526Y-94840640D01*
X155233588Y-95083972D01*
X155233589Y-95083975D01*
X155278886Y-95172873D01*
X155332385Y-95277871D01*
X155349750Y-95311950D01*
X155500132Y-95518935D01*
X155500136Y-95518940D01*
X155681059Y-95699863D01*
X155681064Y-95699867D01*
X155822040Y-95802291D01*
X155888053Y-95850252D01*
X156015673Y-95915278D01*
X156116024Y-95966410D01*
X156116027Y-95966411D01*
X156172476Y-95984752D01*
X156359361Y-96045474D01*
X156612070Y-96085500D01*
X156612071Y-96085500D01*
X156867929Y-96085500D01*
X156867930Y-96085500D01*
X157120639Y-96045474D01*
X157363975Y-95966410D01*
X157591947Y-95850252D01*
X157798942Y-95699862D01*
X157979862Y-95518942D01*
X158130252Y-95311947D01*
X158246410Y-95083975D01*
X158246417Y-95083955D01*
X158276465Y-94991475D01*
X158325474Y-94840639D01*
X158365500Y-94587930D01*
X158365500Y-94332070D01*
X158325474Y-94079361D01*
X158272000Y-93914784D01*
X158246411Y-93836027D01*
X158246410Y-93836024D01*
X158189699Y-93724724D01*
X158130252Y-93608053D01*
X158000838Y-93429929D01*
X157979867Y-93401064D01*
X157979863Y-93401059D01*
X157798940Y-93220136D01*
X157798935Y-93220132D01*
X157591950Y-93069750D01*
X157591949Y-93069749D01*
X157591947Y-93069748D01*
X157518910Y-93032533D01*
X157363975Y-92953589D01*
X157363972Y-92953588D01*
X157120640Y-92874526D01*
X156957804Y-92848735D01*
X156867930Y-92834500D01*
X156612070Y-92834500D01*
X156527833Y-92847842D01*
X156359359Y-92874526D01*
X156116027Y-92953588D01*
X156116024Y-92953589D01*
X155888049Y-93069750D01*
X155681064Y-93220132D01*
X155681059Y-93220136D01*
X155500136Y-93401059D01*
X155500132Y-93401064D01*
X155349750Y-93608049D01*
X155233589Y-93836024D01*
X155233588Y-93836027D01*
X155154526Y-94079359D01*
X155123672Y-94274160D01*
X155114500Y-94332070D01*
X153285500Y-94332070D01*
X153245474Y-94079361D01*
X153192000Y-93914784D01*
X153166411Y-93836027D01*
X153166410Y-93836024D01*
X153109699Y-93724724D01*
X153050252Y-93608053D01*
X152920838Y-93429929D01*
X152899867Y-93401064D01*
X152899863Y-93401059D01*
X152718940Y-93220136D01*
X152718935Y-93220132D01*
X152511950Y-93069750D01*
X152511949Y-93069749D01*
X152511947Y-93069748D01*
X152438910Y-93032533D01*
X152283975Y-92953589D01*
X152283972Y-92953588D01*
X152040640Y-92874526D01*
X151877804Y-92848735D01*
X151787930Y-92834500D01*
X151532070Y-92834500D01*
X151447833Y-92847842D01*
X151279359Y-92874526D01*
X151036027Y-92953588D01*
X151036024Y-92953589D01*
X150808049Y-93069750D01*
X150601064Y-93220132D01*
X150601059Y-93220136D01*
X150420136Y-93401059D01*
X150420132Y-93401064D01*
X150269750Y-93608049D01*
X150153589Y-93836024D01*
X150153588Y-93836027D01*
X150074526Y-94079359D01*
X150043672Y-94274160D01*
X150034500Y-94332070D01*
X146365500Y-94332070D01*
X146325474Y-94079361D01*
X146272000Y-93914784D01*
X146246411Y-93836027D01*
X146246410Y-93836024D01*
X146189699Y-93724724D01*
X146130252Y-93608053D01*
X146000838Y-93429929D01*
X145979867Y-93401064D01*
X145979863Y-93401059D01*
X145798940Y-93220136D01*
X145798935Y-93220132D01*
X145591950Y-93069750D01*
X145591949Y-93069749D01*
X145591947Y-93069748D01*
X145518910Y-93032533D01*
X145363975Y-92953589D01*
X145363972Y-92953588D01*
X145120640Y-92874526D01*
X144957804Y-92848735D01*
X144867930Y-92834500D01*
X144612070Y-92834500D01*
X144527833Y-92847842D01*
X144359359Y-92874526D01*
X144116027Y-92953588D01*
X144116024Y-92953589D01*
X143888049Y-93069750D01*
X143681064Y-93220132D01*
X143681059Y-93220136D01*
X143500136Y-93401059D01*
X143500132Y-93401064D01*
X143349750Y-93608049D01*
X143233589Y-93836024D01*
X143233588Y-93836027D01*
X143154526Y-94079359D01*
X143123672Y-94274160D01*
X143114500Y-94332070D01*
X141285500Y-94332070D01*
X141245474Y-94079361D01*
X141192000Y-93914784D01*
X141166411Y-93836027D01*
X141166410Y-93836024D01*
X141109699Y-93724724D01*
X141050252Y-93608053D01*
X140920838Y-93429929D01*
X140899867Y-93401064D01*
X140899863Y-93401059D01*
X140718940Y-93220136D01*
X140718935Y-93220132D01*
X140511950Y-93069750D01*
X140511949Y-93069749D01*
X140511947Y-93069748D01*
X140438910Y-93032533D01*
X140283975Y-92953589D01*
X140283972Y-92953588D01*
X140040640Y-92874526D01*
X139877804Y-92848735D01*
X139787930Y-92834500D01*
X139532070Y-92834500D01*
X139447833Y-92847842D01*
X139279359Y-92874526D01*
X139036027Y-92953588D01*
X139036024Y-92953589D01*
X138808049Y-93069750D01*
X138601064Y-93220132D01*
X138601059Y-93220136D01*
X138420136Y-93401059D01*
X138420132Y-93401064D01*
X138269750Y-93608049D01*
X138153589Y-93836024D01*
X138153588Y-93836027D01*
X138074526Y-94079359D01*
X138043672Y-94274160D01*
X138034500Y-94332070D01*
X134365500Y-94332070D01*
X134325474Y-94079361D01*
X134272000Y-93914784D01*
X134246411Y-93836027D01*
X134246410Y-93836024D01*
X134189699Y-93724724D01*
X134130252Y-93608053D01*
X134000838Y-93429929D01*
X133979867Y-93401064D01*
X133979863Y-93401059D01*
X133798940Y-93220136D01*
X133798935Y-93220132D01*
X133591950Y-93069750D01*
X133591949Y-93069749D01*
X133591947Y-93069748D01*
X133518910Y-93032533D01*
X133363975Y-92953589D01*
X133363972Y-92953588D01*
X133120640Y-92874526D01*
X132957804Y-92848735D01*
X132867930Y-92834500D01*
X132612070Y-92834500D01*
X132527833Y-92847842D01*
X132359359Y-92874526D01*
X132116027Y-92953588D01*
X132116024Y-92953589D01*
X131888049Y-93069750D01*
X131681064Y-93220132D01*
X131681059Y-93220136D01*
X131500136Y-93401059D01*
X131500132Y-93401064D01*
X131349750Y-93608049D01*
X131233589Y-93836024D01*
X131233588Y-93836027D01*
X131154526Y-94079359D01*
X131123672Y-94274160D01*
X131114500Y-94332070D01*
X130800500Y-94332070D01*
X130800500Y-92900097D01*
X130820185Y-92833058D01*
X130836819Y-92812416D01*
X131412417Y-92236819D01*
X131473740Y-92203334D01*
X131500098Y-92200500D01*
X163949903Y-92200500D01*
X164016942Y-92220185D01*
X164037584Y-92236819D01*
X165054442Y-93253677D01*
X165087927Y-93315000D01*
X165082943Y-93384692D01*
X165041071Y-93440625D01*
X164998856Y-93461132D01*
X164878142Y-93493477D01*
X164779669Y-93519863D01*
X164565254Y-93608677D01*
X164565237Y-93608685D01*
X164364256Y-93724720D01*
X164364254Y-93724721D01*
X164180124Y-93866009D01*
X164180117Y-93866015D01*
X164016015Y-94030117D01*
X164016009Y-94030124D01*
X163874721Y-94214254D01*
X163874720Y-94214256D01*
X163758685Y-94415237D01*
X163758677Y-94415254D01*
X163669862Y-94629671D01*
X163609794Y-94853851D01*
X163579500Y-95083947D01*
X163579500Y-95316052D01*
X163600349Y-95474406D01*
X163609794Y-95546149D01*
X163620250Y-95585170D01*
X163669862Y-95770328D01*
X163758677Y-95984745D01*
X163758685Y-95984762D01*
X163874720Y-96185743D01*
X163874721Y-96185745D01*
X164016009Y-96369875D01*
X164016015Y-96369882D01*
X164180117Y-96533984D01*
X164180124Y-96533990D01*
X164364254Y-96675278D01*
X164364256Y-96675279D01*
X164565237Y-96791314D01*
X164565240Y-96791315D01*
X164565248Y-96791320D01*
X164779670Y-96880137D01*
X165003851Y-96940206D01*
X165233955Y-96970500D01*
X165233962Y-96970500D01*
X165466038Y-96970500D01*
X165466045Y-96970500D01*
X165696149Y-96940206D01*
X165920330Y-96880137D01*
X166134752Y-96791320D01*
X166335748Y-96675276D01*
X166519877Y-96533989D01*
X166618175Y-96435690D01*
X166679496Y-96402207D01*
X166749188Y-96407191D01*
X166805122Y-96449062D01*
X166829539Y-96514526D01*
X166827473Y-96547563D01*
X166814500Y-96612787D01*
X166814500Y-96787218D01*
X166848527Y-96958283D01*
X166848529Y-96958291D01*
X166915278Y-97119439D01*
X166915283Y-97119448D01*
X167012186Y-97264473D01*
X167012189Y-97264477D01*
X167135522Y-97387810D01*
X167135526Y-97387813D01*
X167280551Y-97484716D01*
X167280557Y-97484719D01*
X167280558Y-97484720D01*
X167441709Y-97551471D01*
X167612781Y-97585499D01*
X167612785Y-97585500D01*
X167612786Y-97585500D01*
X167787215Y-97585500D01*
X167787216Y-97585499D01*
X167958291Y-97551471D01*
X168119442Y-97484720D01*
X168260939Y-97390174D01*
X168327615Y-97369297D01*
X168394995Y-97387781D01*
X168441686Y-97439760D01*
X168451812Y-97471001D01*
X168452292Y-97473633D01*
X168496380Y-97625385D01*
X168496382Y-97625390D01*
X168576827Y-97761416D01*
X168576834Y-97761425D01*
X168688574Y-97873165D01*
X168688578Y-97873168D01*
X168688580Y-97873170D01*
X168824610Y-97953618D01*
X168976373Y-97997709D01*
X169011837Y-98000500D01*
X169154866Y-98000499D01*
X169221904Y-98020183D01*
X169267659Y-98072987D01*
X169277603Y-98142145D01*
X169269427Y-98171950D01*
X169230263Y-98266503D01*
X169230261Y-98266510D01*
X169199500Y-98421153D01*
X169199500Y-98578846D01*
X169230261Y-98733489D01*
X169230264Y-98733501D01*
X169290602Y-98879172D01*
X169290609Y-98879185D01*
X169378211Y-99010289D01*
X169380053Y-99012534D01*
X169380650Y-99013939D01*
X169381595Y-99015354D01*
X169381326Y-99015533D01*
X169407367Y-99076843D01*
X169395577Y-99145711D01*
X169371882Y-99178881D01*
X167387584Y-101163181D01*
X167326261Y-101196666D01*
X167299903Y-101199500D01*
X157580016Y-101199500D01*
X157512977Y-101179815D01*
X157467222Y-101127011D01*
X157457278Y-101057853D01*
X157486303Y-100994297D01*
X157523721Y-100965015D01*
X157526692Y-100963501D01*
X157591947Y-100930252D01*
X157798942Y-100779862D01*
X157979862Y-100598942D01*
X158130252Y-100391947D01*
X158246410Y-100163975D01*
X158325474Y-99920639D01*
X158365500Y-99667930D01*
X158365500Y-99412070D01*
X158325474Y-99159361D01*
X158265382Y-98974414D01*
X158246411Y-98916027D01*
X158246410Y-98916024D01*
X158198378Y-98821758D01*
X158130252Y-98688053D01*
X158050909Y-98578846D01*
X157979867Y-98481064D01*
X157979863Y-98481059D01*
X157798940Y-98300136D01*
X157798935Y-98300132D01*
X157591950Y-98149750D01*
X157591949Y-98149749D01*
X157591947Y-98149748D01*
X157461448Y-98083255D01*
X157363975Y-98033589D01*
X157363972Y-98033588D01*
X157120640Y-97954526D01*
X156943769Y-97926512D01*
X156867930Y-97914500D01*
X156612070Y-97914500D01*
X156536231Y-97926512D01*
X156359359Y-97954526D01*
X156116027Y-98033588D01*
X156116024Y-98033589D01*
X155888049Y-98149750D01*
X155681064Y-98300132D01*
X155681059Y-98300136D01*
X155500136Y-98481059D01*
X155500132Y-98481064D01*
X155349750Y-98688049D01*
X155233589Y-98916024D01*
X155233588Y-98916027D01*
X155154526Y-99159359D01*
X155133738Y-99290606D01*
X155114500Y-99412070D01*
X155114500Y-99667930D01*
X155115268Y-99672781D01*
X155154526Y-99920640D01*
X155233588Y-100163972D01*
X155233589Y-100163975D01*
X155261731Y-100219205D01*
X155274627Y-100287874D01*
X155248351Y-100352615D01*
X155191244Y-100392872D01*
X155151246Y-100399500D01*
X154924500Y-100399500D01*
X154857461Y-100379815D01*
X154811706Y-100327011D01*
X154800500Y-100275500D01*
X154800500Y-98482125D01*
X154820185Y-98415086D01*
X154868203Y-98371641D01*
X154999536Y-98304724D01*
X155193796Y-98163586D01*
X155363586Y-97993796D01*
X155504724Y-97799536D01*
X155613736Y-97585589D01*
X155687937Y-97357222D01*
X155725500Y-97120059D01*
X155725500Y-96879941D01*
X155687937Y-96642778D01*
X155613736Y-96414411D01*
X155613734Y-96414408D01*
X155613734Y-96414406D01*
X155504723Y-96200463D01*
X155494030Y-96185745D01*
X155363586Y-96006204D01*
X155193796Y-95836414D01*
X154999536Y-95695276D01*
X154999532Y-95695274D01*
X154785593Y-95586265D01*
X154557222Y-95512063D01*
X154320059Y-95474500D01*
X154079941Y-95474500D01*
X153961359Y-95493281D01*
X153842777Y-95512063D01*
X153614406Y-95586265D01*
X153400463Y-95695276D01*
X153206201Y-95836416D01*
X153036416Y-96006201D01*
X152895276Y-96200463D01*
X152786265Y-96414406D01*
X152712063Y-96642777D01*
X152674500Y-96879941D01*
X152674500Y-97120058D01*
X152712063Y-97357222D01*
X152786265Y-97585593D01*
X152867933Y-97745873D01*
X152895276Y-97799536D01*
X153036414Y-97993796D01*
X153206204Y-98163586D01*
X153400464Y-98304724D01*
X153531796Y-98371641D01*
X153582591Y-98419614D01*
X153599500Y-98482125D01*
X153599500Y-101079057D01*
X153622663Y-101165500D01*
X153640423Y-101231783D01*
X153640426Y-101231790D01*
X153719475Y-101368709D01*
X153719479Y-101368714D01*
X153719480Y-101368716D01*
X153831284Y-101480520D01*
X153831286Y-101480521D01*
X153831290Y-101480524D01*
X153959481Y-101554534D01*
X153968216Y-101559577D01*
X154120943Y-101600500D01*
X154279057Y-101600500D01*
X155899903Y-101600500D01*
X155929343Y-101609144D01*
X155959330Y-101615668D01*
X155964345Y-101619422D01*
X155966942Y-101620185D01*
X155987584Y-101636819D01*
X156138584Y-101787819D01*
X156172069Y-101849142D01*
X156167085Y-101918834D01*
X156125213Y-101974767D01*
X156059749Y-101999184D01*
X156050903Y-101999500D01*
X132679057Y-101999500D01*
X132520942Y-101999500D01*
X132368215Y-102040423D01*
X132368214Y-102040423D01*
X132368212Y-102040424D01*
X132368209Y-102040425D01*
X132318096Y-102069359D01*
X132318095Y-102069360D01*
X132274689Y-102094420D01*
X132231285Y-102119479D01*
X132231282Y-102119481D01*
X132119478Y-102231286D01*
X129631284Y-104719481D01*
X129519483Y-104831281D01*
X129519481Y-104831284D01*
X129440423Y-104968214D01*
X129440423Y-104968215D01*
X129399499Y-105120943D01*
X129399499Y-105120945D01*
X129399499Y-105279054D01*
X129399498Y-105279054D01*
X129410722Y-105320942D01*
X129440423Y-105431785D01*
X129519481Y-105568716D01*
X129519483Y-105568718D01*
X129563181Y-105612416D01*
X129596666Y-105673739D01*
X129599500Y-105700097D01*
X129599500Y-107517873D01*
X129579815Y-107584912D01*
X129531796Y-107628357D01*
X129400466Y-107695274D01*
X129206201Y-107836416D01*
X129036416Y-108006201D01*
X128895276Y-108200463D01*
X128786265Y-108414406D01*
X128712063Y-108642777D01*
X128674500Y-108879941D01*
X128674500Y-109120058D01*
X128712063Y-109357222D01*
X128786265Y-109585593D01*
X128895276Y-109799536D01*
X129036414Y-109993796D01*
X129206204Y-110163586D01*
X129400464Y-110304724D01*
X129501543Y-110356226D01*
X129614406Y-110413734D01*
X129614408Y-110413734D01*
X129614411Y-110413736D01*
X129842778Y-110487937D01*
X130079941Y-110525500D01*
X130079942Y-110525500D01*
X130320058Y-110525500D01*
X130320059Y-110525500D01*
X130557222Y-110487937D01*
X130785589Y-110413736D01*
X130999536Y-110304724D01*
X131193796Y-110163586D01*
X131363586Y-109993796D01*
X131504724Y-109799536D01*
X131613736Y-109585589D01*
X131687937Y-109357222D01*
X131725500Y-109120059D01*
X131725500Y-108879941D01*
X131687937Y-108642778D01*
X131613736Y-108414411D01*
X131613734Y-108414408D01*
X131613734Y-108414406D01*
X131504723Y-108200463D01*
X131363586Y-108006204D01*
X131193796Y-107836414D01*
X130999536Y-107695276D01*
X130999535Y-107695275D01*
X130999533Y-107695274D01*
X130868204Y-107628357D01*
X130817409Y-107580382D01*
X130800500Y-107517873D01*
X130800500Y-106332070D01*
X131114500Y-106332070D01*
X131114500Y-106587929D01*
X131154526Y-106840640D01*
X131233588Y-107083972D01*
X131233589Y-107083975D01*
X131349750Y-107311950D01*
X131500132Y-107518935D01*
X131500136Y-107518940D01*
X131681059Y-107699863D01*
X131681064Y-107699867D01*
X131861607Y-107831038D01*
X131888053Y-107850252D01*
X132037080Y-107926185D01*
X132116024Y-107966410D01*
X132116027Y-107966411D01*
X132237693Y-108005942D01*
X132359361Y-108045474D01*
X132612070Y-108085500D01*
X132612071Y-108085500D01*
X132867929Y-108085500D01*
X132867930Y-108085500D01*
X133120639Y-108045474D01*
X133363975Y-107966410D01*
X133591947Y-107850252D01*
X133798942Y-107699862D01*
X133979862Y-107518942D01*
X134130252Y-107311947D01*
X134246410Y-107083975D01*
X134325474Y-106840639D01*
X134365500Y-106587930D01*
X134365500Y-106332070D01*
X138034500Y-106332070D01*
X138034500Y-106587929D01*
X138074526Y-106840640D01*
X138153588Y-107083972D01*
X138153589Y-107083975D01*
X138269750Y-107311950D01*
X138420132Y-107518935D01*
X138420136Y-107518940D01*
X138601059Y-107699863D01*
X138601064Y-107699867D01*
X138781607Y-107831038D01*
X138808053Y-107850252D01*
X138957080Y-107926185D01*
X139036024Y-107966410D01*
X139036027Y-107966411D01*
X139157693Y-108005942D01*
X139279361Y-108045474D01*
X139532070Y-108085500D01*
X139532071Y-108085500D01*
X139787929Y-108085500D01*
X139787930Y-108085500D01*
X140040639Y-108045474D01*
X140283975Y-107966410D01*
X140511947Y-107850252D01*
X140718942Y-107699862D01*
X140899862Y-107518942D01*
X141050252Y-107311947D01*
X141166410Y-107083975D01*
X141245474Y-106840639D01*
X141285500Y-106587930D01*
X141285500Y-106332070D01*
X141245474Y-106079361D01*
X141166410Y-105836025D01*
X141166410Y-105836024D01*
X141097151Y-105700097D01*
X141050252Y-105608053D01*
X140963799Y-105489060D01*
X140899867Y-105401064D01*
X140899863Y-105401059D01*
X140718940Y-105220136D01*
X140718935Y-105220132D01*
X140511950Y-105069750D01*
X140511949Y-105069749D01*
X140511947Y-105069748D01*
X140438910Y-105032533D01*
X140283975Y-104953589D01*
X140283972Y-104953588D01*
X140040640Y-104874526D01*
X139914284Y-104854513D01*
X139787930Y-104834500D01*
X139532070Y-104834500D01*
X139447833Y-104847842D01*
X139279359Y-104874526D01*
X139036027Y-104953588D01*
X139036024Y-104953589D01*
X138808049Y-105069750D01*
X138601064Y-105220132D01*
X138601059Y-105220136D01*
X138420136Y-105401059D01*
X138420132Y-105401064D01*
X138269750Y-105608049D01*
X138153589Y-105836024D01*
X138153588Y-105836027D01*
X138074526Y-106079359D01*
X138034500Y-106332070D01*
X134365500Y-106332070D01*
X134325474Y-106079361D01*
X134246410Y-105836025D01*
X134246410Y-105836024D01*
X134177151Y-105700097D01*
X134130252Y-105608053D01*
X134043799Y-105489060D01*
X133979867Y-105401064D01*
X133979863Y-105401059D01*
X133798940Y-105220136D01*
X133798935Y-105220132D01*
X133591950Y-105069750D01*
X133591949Y-105069749D01*
X133591947Y-105069748D01*
X133518910Y-105032533D01*
X133363975Y-104953589D01*
X133363972Y-104953588D01*
X133120640Y-104874526D01*
X132994284Y-104854513D01*
X132867930Y-104834500D01*
X132612070Y-104834500D01*
X132527833Y-104847842D01*
X132359359Y-104874526D01*
X132116027Y-104953588D01*
X132116024Y-104953589D01*
X131888049Y-105069750D01*
X131681064Y-105220132D01*
X131681059Y-105220136D01*
X131500136Y-105401059D01*
X131500132Y-105401064D01*
X131349750Y-105608049D01*
X131233589Y-105836024D01*
X131233588Y-105836027D01*
X131154526Y-106079359D01*
X131114500Y-106332070D01*
X130800500Y-106332070D01*
X130800500Y-105489060D01*
X130800501Y-105489047D01*
X130800501Y-105320942D01*
X130800082Y-105317760D01*
X130800501Y-105315072D01*
X130800501Y-105312815D01*
X130800853Y-105312815D01*
X130810847Y-105248725D01*
X130835337Y-105213896D01*
X132812416Y-103236819D01*
X132873739Y-103203334D01*
X132900097Y-103200500D01*
X141475499Y-103200500D01*
X141484184Y-103203050D01*
X141493145Y-103201762D01*
X141517183Y-103212740D01*
X141542538Y-103220185D01*
X141548465Y-103227026D01*
X141556701Y-103230787D01*
X141570989Y-103253020D01*
X141588293Y-103272989D01*
X141590580Y-103283502D01*
X141594476Y-103289564D01*
X141599498Y-103324497D01*
X141599499Y-103324499D01*
X141599499Y-103479057D01*
X141599499Y-103479059D01*
X141599500Y-103489053D01*
X141599500Y-107517873D01*
X141579815Y-107584912D01*
X141531796Y-107628357D01*
X141400466Y-107695274D01*
X141206201Y-107836416D01*
X141036416Y-108006201D01*
X140895276Y-108200463D01*
X140786265Y-108414406D01*
X140712063Y-108642777D01*
X140674500Y-108879941D01*
X140674500Y-109120058D01*
X140712063Y-109357222D01*
X140786265Y-109585593D01*
X140895276Y-109799536D01*
X141036414Y-109993796D01*
X141206204Y-110163586D01*
X141400464Y-110304724D01*
X141501543Y-110356226D01*
X141614406Y-110413734D01*
X141614408Y-110413734D01*
X141614411Y-110413736D01*
X141842778Y-110487937D01*
X142079941Y-110525500D01*
X142079942Y-110525500D01*
X142320058Y-110525500D01*
X142320059Y-110525500D01*
X142557222Y-110487937D01*
X142785589Y-110413736D01*
X142999536Y-110304724D01*
X143193796Y-110163586D01*
X143363586Y-109993796D01*
X143504724Y-109799536D01*
X143613736Y-109585589D01*
X143687937Y-109357222D01*
X143725500Y-109120059D01*
X143725500Y-108879941D01*
X152974500Y-108879941D01*
X152974500Y-109120058D01*
X153012063Y-109357222D01*
X153086265Y-109585593D01*
X153195276Y-109799536D01*
X153336414Y-109993796D01*
X153506204Y-110163586D01*
X153700464Y-110304724D01*
X153801543Y-110356226D01*
X153914406Y-110413734D01*
X153914408Y-110413734D01*
X153914411Y-110413736D01*
X154142778Y-110487937D01*
X154379941Y-110525500D01*
X154379942Y-110525500D01*
X154620058Y-110525500D01*
X154620059Y-110525500D01*
X154857222Y-110487937D01*
X155085589Y-110413736D01*
X155299536Y-110304724D01*
X155493796Y-110163586D01*
X155663586Y-109993796D01*
X155804724Y-109799536D01*
X155913736Y-109585589D01*
X155987937Y-109357222D01*
X156025500Y-109120059D01*
X156025500Y-108879941D01*
X155987937Y-108642778D01*
X155913736Y-108414411D01*
X155913734Y-108414408D01*
X155913734Y-108414406D01*
X155804723Y-108200463D01*
X155663586Y-108006204D01*
X155493796Y-107836414D01*
X155299536Y-107695276D01*
X155299532Y-107695274D01*
X155085593Y-107586265D01*
X154857222Y-107512063D01*
X154620059Y-107474500D01*
X154379941Y-107474500D01*
X154261359Y-107493281D01*
X154142777Y-107512063D01*
X153914406Y-107586265D01*
X153700463Y-107695276D01*
X153506201Y-107836416D01*
X153336416Y-108006201D01*
X153195276Y-108200463D01*
X153086265Y-108414406D01*
X153012063Y-108642777D01*
X152974500Y-108879941D01*
X143725500Y-108879941D01*
X143687937Y-108642778D01*
X143613736Y-108414411D01*
X143613734Y-108414408D01*
X143613734Y-108414406D01*
X143504723Y-108200463D01*
X143363586Y-108006204D01*
X143193796Y-107836414D01*
X142999536Y-107695276D01*
X142999535Y-107695275D01*
X142999533Y-107695274D01*
X142868204Y-107628357D01*
X142817409Y-107580382D01*
X142800500Y-107517873D01*
X142800500Y-106332070D01*
X143114500Y-106332070D01*
X143114500Y-106587929D01*
X143154526Y-106840640D01*
X143233588Y-107083972D01*
X143233589Y-107083975D01*
X143349750Y-107311950D01*
X143500132Y-107518935D01*
X143500136Y-107518940D01*
X143681059Y-107699863D01*
X143681064Y-107699867D01*
X143861607Y-107831038D01*
X143888053Y-107850252D01*
X144037080Y-107926185D01*
X144116024Y-107966410D01*
X144116027Y-107966411D01*
X144237693Y-108005942D01*
X144359361Y-108045474D01*
X144612070Y-108085500D01*
X144612071Y-108085500D01*
X144867929Y-108085500D01*
X144867930Y-108085500D01*
X145120639Y-108045474D01*
X145363975Y-107966410D01*
X145591947Y-107850252D01*
X145798942Y-107699862D01*
X145979862Y-107518942D01*
X146130252Y-107311947D01*
X146246410Y-107083975D01*
X146325474Y-106840639D01*
X146365500Y-106587930D01*
X146365500Y-106332070D01*
X150334500Y-106332070D01*
X150334500Y-106587929D01*
X150374526Y-106840640D01*
X150453588Y-107083972D01*
X150453589Y-107083975D01*
X150569750Y-107311950D01*
X150720132Y-107518935D01*
X150720136Y-107518940D01*
X150901059Y-107699863D01*
X150901064Y-107699867D01*
X151081607Y-107831038D01*
X151108053Y-107850252D01*
X151257080Y-107926185D01*
X151336024Y-107966410D01*
X151336027Y-107966411D01*
X151457693Y-108005942D01*
X151579361Y-108045474D01*
X151832070Y-108085500D01*
X151832071Y-108085500D01*
X152087929Y-108085500D01*
X152087930Y-108085500D01*
X152340639Y-108045474D01*
X152583975Y-107966410D01*
X152811947Y-107850252D01*
X153018942Y-107699862D01*
X153199862Y-107518942D01*
X153350252Y-107311947D01*
X153466410Y-107083975D01*
X153545474Y-106840639D01*
X153585500Y-106587930D01*
X153585500Y-106332070D01*
X155414500Y-106332070D01*
X155414500Y-106587929D01*
X155454526Y-106840640D01*
X155533588Y-107083972D01*
X155533589Y-107083975D01*
X155649750Y-107311950D01*
X155800132Y-107518935D01*
X155800136Y-107518940D01*
X155981059Y-107699863D01*
X155981064Y-107699867D01*
X156161607Y-107831038D01*
X156188053Y-107850252D01*
X156337080Y-107926185D01*
X156416024Y-107966410D01*
X156416027Y-107966411D01*
X156537693Y-108005942D01*
X156659361Y-108045474D01*
X156912070Y-108085500D01*
X156912071Y-108085500D01*
X157167929Y-108085500D01*
X157167930Y-108085500D01*
X157420639Y-108045474D01*
X157663975Y-107966410D01*
X157891947Y-107850252D01*
X158098942Y-107699862D01*
X158279862Y-107518942D01*
X158430252Y-107311947D01*
X158546410Y-107083975D01*
X158625474Y-106840639D01*
X158665500Y-106587930D01*
X158665500Y-106332070D01*
X158625474Y-106079361D01*
X158546410Y-105836025D01*
X158546410Y-105836024D01*
X158477151Y-105700097D01*
X158430252Y-105608053D01*
X158343799Y-105489060D01*
X158279867Y-105401064D01*
X158279863Y-105401059D01*
X158098940Y-105220136D01*
X158098935Y-105220132D01*
X157891950Y-105069750D01*
X157891949Y-105069749D01*
X157891947Y-105069748D01*
X157818910Y-105032533D01*
X157663975Y-104953589D01*
X157663972Y-104953588D01*
X157420640Y-104874526D01*
X157294284Y-104854513D01*
X157167930Y-104834500D01*
X156912070Y-104834500D01*
X156827833Y-104847842D01*
X156659359Y-104874526D01*
X156416027Y-104953588D01*
X156416024Y-104953589D01*
X156188049Y-105069750D01*
X155981064Y-105220132D01*
X155981059Y-105220136D01*
X155800136Y-105401059D01*
X155800132Y-105401064D01*
X155649750Y-105608049D01*
X155533589Y-105836024D01*
X155533588Y-105836027D01*
X155454526Y-106079359D01*
X155414500Y-106332070D01*
X153585500Y-106332070D01*
X153545474Y-106079361D01*
X153466410Y-105836025D01*
X153466410Y-105836024D01*
X153397151Y-105700097D01*
X153350252Y-105608053D01*
X153263799Y-105489060D01*
X153199867Y-105401064D01*
X153199863Y-105401059D01*
X153018940Y-105220136D01*
X153018935Y-105220132D01*
X152811950Y-105069750D01*
X152811949Y-105069749D01*
X152811947Y-105069748D01*
X152738910Y-105032533D01*
X152583975Y-104953589D01*
X152583972Y-104953588D01*
X152340640Y-104874526D01*
X152214284Y-104854513D01*
X152087930Y-104834500D01*
X151832070Y-104834500D01*
X151747833Y-104847842D01*
X151579359Y-104874526D01*
X151336027Y-104953588D01*
X151336024Y-104953589D01*
X151108049Y-105069750D01*
X150901064Y-105220132D01*
X150901059Y-105220136D01*
X150720136Y-105401059D01*
X150720132Y-105401064D01*
X150569750Y-105608049D01*
X150453589Y-105836024D01*
X150453588Y-105836027D01*
X150374526Y-106079359D01*
X150334500Y-106332070D01*
X146365500Y-106332070D01*
X146325474Y-106079361D01*
X146246410Y-105836025D01*
X146246410Y-105836024D01*
X146177151Y-105700097D01*
X146130252Y-105608053D01*
X146043799Y-105489060D01*
X145979867Y-105401064D01*
X145979863Y-105401059D01*
X145798940Y-105220136D01*
X145798935Y-105220132D01*
X145591950Y-105069750D01*
X145591949Y-105069749D01*
X145591947Y-105069748D01*
X145518910Y-105032533D01*
X145363975Y-104953589D01*
X145363972Y-104953588D01*
X145120640Y-104874526D01*
X144994284Y-104854513D01*
X144867930Y-104834500D01*
X144612070Y-104834500D01*
X144527833Y-104847842D01*
X144359359Y-104874526D01*
X144116027Y-104953588D01*
X144116024Y-104953589D01*
X143888049Y-105069750D01*
X143681064Y-105220132D01*
X143681059Y-105220136D01*
X143500136Y-105401059D01*
X143500132Y-105401064D01*
X143349750Y-105608049D01*
X143233589Y-105836024D01*
X143233588Y-105836027D01*
X143154526Y-106079359D01*
X143114500Y-106332070D01*
X142800500Y-106332070D01*
X142800500Y-103724500D01*
X142820185Y-103657461D01*
X142872989Y-103611706D01*
X142924500Y-103600500D01*
X173113331Y-103600500D01*
X173113347Y-103600501D01*
X173120943Y-103600501D01*
X173279054Y-103600501D01*
X173279057Y-103600501D01*
X173431785Y-103559577D01*
X173481904Y-103530639D01*
X173568716Y-103480520D01*
X173680520Y-103368716D01*
X173680520Y-103368714D01*
X173690728Y-103358507D01*
X173690730Y-103358504D01*
X176375602Y-100673631D01*
X176436923Y-100640148D01*
X176506615Y-100645132D01*
X176532170Y-100658211D01*
X176645086Y-100733659D01*
X176645088Y-100733660D01*
X176645092Y-100733662D01*
X176790763Y-100794000D01*
X176790768Y-100794002D01*
X176922398Y-100820185D01*
X176945418Y-100824764D01*
X176945421Y-100824765D01*
X176945423Y-100824765D01*
X177103109Y-100824765D01*
X177201969Y-100805100D01*
X177213110Y-100802883D01*
X177237298Y-100800501D01*
X177279057Y-100800501D01*
X177279060Y-100800500D01*
X177286666Y-100800500D01*
X184970943Y-100800500D01*
X189099903Y-100800500D01*
X189166942Y-100820185D01*
X189187584Y-100836819D01*
X189680139Y-101329374D01*
X189680149Y-101329385D01*
X189684479Y-101333715D01*
X189684480Y-101333716D01*
X189796284Y-101445520D01*
X189796286Y-101445521D01*
X189796290Y-101445524D01*
X189933209Y-101524573D01*
X189933216Y-101524577D01*
X190045019Y-101554534D01*
X190085942Y-101565500D01*
X190085943Y-101565500D01*
X192163587Y-101565500D01*
X192163603Y-101565501D01*
X192171199Y-101565501D01*
X192329310Y-101565501D01*
X192329313Y-101565501D01*
X192482041Y-101524577D01*
X192532160Y-101495639D01*
X192618972Y-101445520D01*
X192730776Y-101333716D01*
X192730777Y-101333713D01*
X192988147Y-101076344D01*
X192988147Y-101076343D01*
X194568713Y-99495776D01*
X194568716Y-99495775D01*
X194652421Y-99412070D01*
X195114500Y-99412070D01*
X195114500Y-99667930D01*
X195115268Y-99672781D01*
X195154526Y-99920640D01*
X195233588Y-100163972D01*
X195233589Y-100163975D01*
X195261731Y-100219205D01*
X195343566Y-100379815D01*
X195349750Y-100391950D01*
X195500132Y-100598935D01*
X195500136Y-100598940D01*
X195681059Y-100779863D01*
X195681064Y-100779867D01*
X195861607Y-100911038D01*
X195888053Y-100930252D01*
X196013748Y-100994297D01*
X196116024Y-101046410D01*
X196116027Y-101046411D01*
X196208150Y-101076343D01*
X196359361Y-101125474D01*
X196612070Y-101165500D01*
X196612071Y-101165500D01*
X196867929Y-101165500D01*
X196867930Y-101165500D01*
X197120639Y-101125474D01*
X197363975Y-101046410D01*
X197591947Y-100930252D01*
X197798942Y-100779862D01*
X197979862Y-100598942D01*
X198130252Y-100391947D01*
X198246410Y-100163975D01*
X198325474Y-99920639D01*
X198365500Y-99667930D01*
X198365500Y-99412070D01*
X202034500Y-99412070D01*
X202034500Y-99667930D01*
X202035268Y-99672781D01*
X202074526Y-99920640D01*
X202153588Y-100163972D01*
X202153589Y-100163975D01*
X202181731Y-100219205D01*
X202263566Y-100379815D01*
X202269750Y-100391950D01*
X202420132Y-100598935D01*
X202420136Y-100598940D01*
X202601059Y-100779863D01*
X202601064Y-100779867D01*
X202781607Y-100911038D01*
X202808053Y-100930252D01*
X202933748Y-100994297D01*
X203036024Y-101046410D01*
X203036027Y-101046411D01*
X203128150Y-101076343D01*
X203279361Y-101125474D01*
X203532070Y-101165500D01*
X203532071Y-101165500D01*
X203787929Y-101165500D01*
X203787930Y-101165500D01*
X204040639Y-101125474D01*
X204283975Y-101046410D01*
X204511947Y-100930252D01*
X204718942Y-100779862D01*
X204899862Y-100598942D01*
X205050252Y-100391947D01*
X205166410Y-100163975D01*
X205245474Y-99920639D01*
X205285500Y-99667930D01*
X205285500Y-99412070D01*
X207114500Y-99412070D01*
X207114500Y-99667930D01*
X207115268Y-99672781D01*
X207154526Y-99920640D01*
X207233588Y-100163972D01*
X207233589Y-100163975D01*
X207261731Y-100219205D01*
X207343566Y-100379815D01*
X207349750Y-100391950D01*
X207500132Y-100598935D01*
X207500136Y-100598940D01*
X207681059Y-100779863D01*
X207681064Y-100779867D01*
X207861607Y-100911038D01*
X207888053Y-100930252D01*
X208013748Y-100994297D01*
X208116024Y-101046410D01*
X208116027Y-101046411D01*
X208208150Y-101076343D01*
X208359361Y-101125474D01*
X208612070Y-101165500D01*
X208612071Y-101165500D01*
X208867929Y-101165500D01*
X208867930Y-101165500D01*
X209120639Y-101125474D01*
X209363975Y-101046410D01*
X209591947Y-100930252D01*
X209798942Y-100779862D01*
X209979862Y-100598942D01*
X210130252Y-100391947D01*
X210246410Y-100163975D01*
X210325474Y-99920639D01*
X210365500Y-99667930D01*
X210365500Y-99412070D01*
X214034500Y-99412070D01*
X214034500Y-99667930D01*
X214035268Y-99672781D01*
X214074526Y-99920640D01*
X214153588Y-100163972D01*
X214153589Y-100163975D01*
X214181731Y-100219205D01*
X214263566Y-100379815D01*
X214269750Y-100391950D01*
X214420132Y-100598935D01*
X214420136Y-100598940D01*
X214601059Y-100779863D01*
X214601064Y-100779867D01*
X214781607Y-100911038D01*
X214808053Y-100930252D01*
X214933748Y-100994297D01*
X215036024Y-101046410D01*
X215036027Y-101046411D01*
X215128150Y-101076343D01*
X215279361Y-101125474D01*
X215532070Y-101165500D01*
X215532071Y-101165500D01*
X215787929Y-101165500D01*
X215787930Y-101165500D01*
X216040639Y-101125474D01*
X216283975Y-101046410D01*
X216511947Y-100930252D01*
X216718942Y-100779862D01*
X216899862Y-100598942D01*
X217050252Y-100391947D01*
X217166410Y-100163975D01*
X217245474Y-99920639D01*
X217285500Y-99667930D01*
X217285500Y-99412070D01*
X219114500Y-99412070D01*
X219114500Y-99667930D01*
X219115268Y-99672781D01*
X219154526Y-99920640D01*
X219233588Y-100163972D01*
X219233589Y-100163975D01*
X219261731Y-100219205D01*
X219343566Y-100379815D01*
X219349750Y-100391950D01*
X219500132Y-100598935D01*
X219500136Y-100598940D01*
X219681059Y-100779863D01*
X219681064Y-100779867D01*
X219861607Y-100911038D01*
X219888053Y-100930252D01*
X220013748Y-100994297D01*
X220116024Y-101046410D01*
X220116027Y-101046411D01*
X220208150Y-101076343D01*
X220359361Y-101125474D01*
X220612070Y-101165500D01*
X220612071Y-101165500D01*
X220867929Y-101165500D01*
X220867930Y-101165500D01*
X221120639Y-101125474D01*
X221363975Y-101046410D01*
X221591947Y-100930252D01*
X221798942Y-100779862D01*
X221979862Y-100598942D01*
X222130252Y-100391947D01*
X222246410Y-100163975D01*
X222325474Y-99920639D01*
X222365500Y-99667930D01*
X222365500Y-99412070D01*
X222325474Y-99159361D01*
X222265382Y-98974414D01*
X222246411Y-98916027D01*
X222246410Y-98916024D01*
X222198378Y-98821758D01*
X222130252Y-98688053D01*
X222050909Y-98578846D01*
X221979867Y-98481064D01*
X221979863Y-98481059D01*
X221798940Y-98300136D01*
X221798935Y-98300132D01*
X221591950Y-98149750D01*
X221591949Y-98149749D01*
X221591947Y-98149748D01*
X221461448Y-98083255D01*
X221363975Y-98033589D01*
X221363972Y-98033588D01*
X221120640Y-97954526D01*
X220943769Y-97926512D01*
X220867930Y-97914500D01*
X220612070Y-97914500D01*
X220536231Y-97926512D01*
X220359359Y-97954526D01*
X220116027Y-98033588D01*
X220116024Y-98033589D01*
X219888049Y-98149750D01*
X219681064Y-98300132D01*
X219681059Y-98300136D01*
X219500136Y-98481059D01*
X219500132Y-98481064D01*
X219349750Y-98688049D01*
X219233589Y-98916024D01*
X219233588Y-98916027D01*
X219154526Y-99159359D01*
X219133738Y-99290606D01*
X219114500Y-99412070D01*
X217285500Y-99412070D01*
X217245474Y-99159361D01*
X217185382Y-98974414D01*
X217166411Y-98916027D01*
X217166410Y-98916024D01*
X217118378Y-98821758D01*
X217050252Y-98688053D01*
X216970909Y-98578846D01*
X216899867Y-98481064D01*
X216899863Y-98481059D01*
X216718940Y-98300136D01*
X216718935Y-98300132D01*
X216511950Y-98149750D01*
X216511949Y-98149749D01*
X216511947Y-98149748D01*
X216381448Y-98083255D01*
X216283975Y-98033589D01*
X216283972Y-98033588D01*
X216040640Y-97954526D01*
X215863769Y-97926512D01*
X215787930Y-97914500D01*
X215532070Y-97914500D01*
X215456231Y-97926512D01*
X215279359Y-97954526D01*
X215036027Y-98033588D01*
X215036024Y-98033589D01*
X214808049Y-98149750D01*
X214601064Y-98300132D01*
X214601059Y-98300136D01*
X214420136Y-98481059D01*
X214420132Y-98481064D01*
X214269750Y-98688049D01*
X214153589Y-98916024D01*
X214153588Y-98916027D01*
X214074526Y-99159359D01*
X214053738Y-99290606D01*
X214034500Y-99412070D01*
X210365500Y-99412070D01*
X210325474Y-99159361D01*
X210265382Y-98974414D01*
X210246411Y-98916027D01*
X210246410Y-98916024D01*
X210198378Y-98821758D01*
X210130252Y-98688053D01*
X210050909Y-98578846D01*
X209979867Y-98481064D01*
X209979863Y-98481059D01*
X209798940Y-98300136D01*
X209798935Y-98300132D01*
X209591950Y-98149750D01*
X209591949Y-98149749D01*
X209591947Y-98149748D01*
X209461448Y-98083255D01*
X209363975Y-98033589D01*
X209363972Y-98033588D01*
X209120640Y-97954526D01*
X208943769Y-97926512D01*
X208867930Y-97914500D01*
X208612070Y-97914500D01*
X208536231Y-97926512D01*
X208359359Y-97954526D01*
X208116027Y-98033588D01*
X208116024Y-98033589D01*
X207888049Y-98149750D01*
X207681064Y-98300132D01*
X207681059Y-98300136D01*
X207500136Y-98481059D01*
X207500132Y-98481064D01*
X207349750Y-98688049D01*
X207233589Y-98916024D01*
X207233588Y-98916027D01*
X207154526Y-99159359D01*
X207133738Y-99290606D01*
X207114500Y-99412070D01*
X205285500Y-99412070D01*
X205245474Y-99159361D01*
X205185382Y-98974414D01*
X205166411Y-98916027D01*
X205166410Y-98916024D01*
X205118378Y-98821758D01*
X205050252Y-98688053D01*
X204970909Y-98578846D01*
X204899867Y-98481064D01*
X204899863Y-98481059D01*
X204718940Y-98300136D01*
X204718935Y-98300132D01*
X204511950Y-98149750D01*
X204511949Y-98149749D01*
X204511947Y-98149748D01*
X204381448Y-98083255D01*
X204283975Y-98033589D01*
X204283972Y-98033588D01*
X204040640Y-97954526D01*
X203863769Y-97926512D01*
X203787930Y-97914500D01*
X203532070Y-97914500D01*
X203456231Y-97926512D01*
X203279359Y-97954526D01*
X203036027Y-98033588D01*
X203036024Y-98033589D01*
X202808049Y-98149750D01*
X202601064Y-98300132D01*
X202601059Y-98300136D01*
X202420136Y-98481059D01*
X202420132Y-98481064D01*
X202269750Y-98688049D01*
X202153589Y-98916024D01*
X202153588Y-98916027D01*
X202074526Y-99159359D01*
X202053738Y-99290606D01*
X202034500Y-99412070D01*
X198365500Y-99412070D01*
X198325474Y-99159361D01*
X198265382Y-98974414D01*
X198246411Y-98916027D01*
X198246410Y-98916024D01*
X198198378Y-98821758D01*
X198130252Y-98688053D01*
X198050909Y-98578846D01*
X197979867Y-98481064D01*
X197979863Y-98481059D01*
X197798940Y-98300136D01*
X197798935Y-98300132D01*
X197591950Y-98149750D01*
X197591949Y-98149749D01*
X197591947Y-98149748D01*
X197461448Y-98083255D01*
X197363975Y-98033589D01*
X197363972Y-98033588D01*
X197120640Y-97954526D01*
X196943769Y-97926512D01*
X196867930Y-97914500D01*
X196612070Y-97914500D01*
X196536231Y-97926512D01*
X196359359Y-97954526D01*
X196116027Y-98033588D01*
X196116024Y-98033589D01*
X195888049Y-98149750D01*
X195681064Y-98300132D01*
X195681059Y-98300136D01*
X195500136Y-98481059D01*
X195500132Y-98481064D01*
X195349750Y-98688049D01*
X195233589Y-98916024D01*
X195233588Y-98916027D01*
X195154526Y-99159359D01*
X195133738Y-99290606D01*
X195114500Y-99412070D01*
X194652421Y-99412070D01*
X194680520Y-99383971D01*
X194734424Y-99290606D01*
X194759577Y-99247040D01*
X194800500Y-99094312D01*
X194800500Y-98936198D01*
X194800500Y-98482125D01*
X194820185Y-98415086D01*
X194868203Y-98371641D01*
X194999536Y-98304724D01*
X195193796Y-98163586D01*
X195363586Y-97993796D01*
X195504724Y-97799536D01*
X195613736Y-97585589D01*
X195660979Y-97440187D01*
X195700415Y-97382515D01*
X195764774Y-97355316D01*
X195833620Y-97367230D01*
X195866590Y-97390826D01*
X195956284Y-97480520D01*
X196010232Y-97511666D01*
X196043095Y-97530639D01*
X196043097Y-97530641D01*
X196079174Y-97551470D01*
X196093215Y-97559577D01*
X196245943Y-97600501D01*
X196245946Y-97600501D01*
X196411653Y-97600501D01*
X196411669Y-97600500D01*
X204717875Y-97600500D01*
X204784914Y-97620185D01*
X204828358Y-97668203D01*
X204895276Y-97799536D01*
X205036414Y-97993796D01*
X205206204Y-98163586D01*
X205400464Y-98304724D01*
X205467842Y-98339055D01*
X205614406Y-98413734D01*
X205614408Y-98413734D01*
X205614411Y-98413736D01*
X205842778Y-98487937D01*
X206079941Y-98525500D01*
X206079942Y-98525500D01*
X206320058Y-98525500D01*
X206320059Y-98525500D01*
X206557222Y-98487937D01*
X206785589Y-98413736D01*
X206786353Y-98413347D01*
X206803564Y-98404577D01*
X206999536Y-98304724D01*
X207193796Y-98163586D01*
X207363586Y-97993796D01*
X207504724Y-97799536D01*
X207613736Y-97585589D01*
X207687937Y-97357222D01*
X207725500Y-97120059D01*
X207725500Y-96879941D01*
X207690125Y-96656592D01*
X207699080Y-96587299D01*
X207744076Y-96533847D01*
X207810827Y-96513208D01*
X207878141Y-96531933D01*
X207900279Y-96549514D01*
X208715139Y-97364374D01*
X208715149Y-97364385D01*
X208719479Y-97368715D01*
X208719480Y-97368716D01*
X208831284Y-97480520D01*
X208885232Y-97511666D01*
X208918095Y-97530639D01*
X208918097Y-97530641D01*
X208954174Y-97551470D01*
X208968215Y-97559577D01*
X209120943Y-97600501D01*
X209120946Y-97600501D01*
X209286653Y-97600501D01*
X209286669Y-97600500D01*
X216717875Y-97600500D01*
X216784914Y-97620185D01*
X216828358Y-97668203D01*
X216895276Y-97799536D01*
X217036414Y-97993796D01*
X217206204Y-98163586D01*
X217400464Y-98304724D01*
X217467842Y-98339055D01*
X217614406Y-98413734D01*
X217614408Y-98413734D01*
X217614411Y-98413736D01*
X217842778Y-98487937D01*
X218079941Y-98525500D01*
X218079942Y-98525500D01*
X218320058Y-98525500D01*
X218320059Y-98525500D01*
X218557222Y-98487937D01*
X218785589Y-98413736D01*
X218786353Y-98413347D01*
X218803564Y-98404577D01*
X218999536Y-98304724D01*
X219193796Y-98163586D01*
X219363586Y-97993796D01*
X219504724Y-97799536D01*
X219613736Y-97585589D01*
X219687937Y-97357222D01*
X219725500Y-97120059D01*
X219725500Y-96879941D01*
X219687937Y-96642778D01*
X219613736Y-96414411D01*
X219613734Y-96414408D01*
X219613734Y-96414406D01*
X219504723Y-96200463D01*
X219494030Y-96185745D01*
X219363586Y-96006204D01*
X219193796Y-95836414D01*
X218999536Y-95695276D01*
X218999532Y-95695274D01*
X218785593Y-95586265D01*
X218557222Y-95512063D01*
X218320059Y-95474500D01*
X218079941Y-95474500D01*
X217961359Y-95493281D01*
X217842777Y-95512063D01*
X217614406Y-95586265D01*
X217400463Y-95695276D01*
X217206201Y-95836416D01*
X217036416Y-96006201D01*
X216895276Y-96200463D01*
X216863033Y-96263744D01*
X216828358Y-96331796D01*
X216780386Y-96382591D01*
X216717875Y-96399500D01*
X209500097Y-96399500D01*
X209470656Y-96390855D01*
X209440670Y-96384332D01*
X209435654Y-96380577D01*
X209433058Y-96379815D01*
X209412416Y-96363181D01*
X209244151Y-96194916D01*
X209210666Y-96133593D01*
X209215650Y-96063901D01*
X209257522Y-96007968D01*
X209293515Y-95989304D01*
X209363969Y-95966412D01*
X209363975Y-95966410D01*
X209591947Y-95850252D01*
X209798942Y-95699862D01*
X209979862Y-95518942D01*
X210130252Y-95311947D01*
X210246410Y-95083975D01*
X210246417Y-95083955D01*
X210276465Y-94991475D01*
X210325474Y-94840639D01*
X210365500Y-94587930D01*
X210365500Y-94332070D01*
X214034500Y-94332070D01*
X214034500Y-94587930D01*
X214048212Y-94674500D01*
X214074526Y-94840640D01*
X214153588Y-95083972D01*
X214153589Y-95083975D01*
X214198886Y-95172873D01*
X214252385Y-95277871D01*
X214269750Y-95311950D01*
X214420132Y-95518935D01*
X214420136Y-95518940D01*
X214601059Y-95699863D01*
X214601064Y-95699867D01*
X214742040Y-95802291D01*
X214808053Y-95850252D01*
X214935673Y-95915278D01*
X215036024Y-95966410D01*
X215036027Y-95966411D01*
X215092476Y-95984752D01*
X215279361Y-96045474D01*
X215532070Y-96085500D01*
X215532071Y-96085500D01*
X215787929Y-96085500D01*
X215787930Y-96085500D01*
X216040639Y-96045474D01*
X216283975Y-95966410D01*
X216511947Y-95850252D01*
X216718942Y-95699862D01*
X216899862Y-95518942D01*
X217050252Y-95311947D01*
X217166410Y-95083975D01*
X217166417Y-95083955D01*
X217196465Y-94991475D01*
X217245474Y-94840639D01*
X217285500Y-94587930D01*
X217285500Y-94332070D01*
X219114500Y-94332070D01*
X219114500Y-94587930D01*
X219128212Y-94674500D01*
X219154526Y-94840640D01*
X219233588Y-95083972D01*
X219233589Y-95083975D01*
X219278886Y-95172873D01*
X219332385Y-95277871D01*
X219349750Y-95311950D01*
X219500132Y-95518935D01*
X219500136Y-95518940D01*
X219681059Y-95699863D01*
X219681064Y-95699867D01*
X219822040Y-95802291D01*
X219888053Y-95850252D01*
X220015673Y-95915278D01*
X220116024Y-95966410D01*
X220116027Y-95966411D01*
X220172476Y-95984752D01*
X220359361Y-96045474D01*
X220612070Y-96085500D01*
X220612071Y-96085500D01*
X220867929Y-96085500D01*
X220867930Y-96085500D01*
X221120639Y-96045474D01*
X221363975Y-95966410D01*
X221591947Y-95850252D01*
X221798942Y-95699862D01*
X221979862Y-95518942D01*
X222130252Y-95311947D01*
X222246410Y-95083975D01*
X222246417Y-95083955D01*
X222276465Y-94991475D01*
X222325474Y-94840639D01*
X222365500Y-94587930D01*
X222365500Y-94332070D01*
X222325474Y-94079361D01*
X222272000Y-93914784D01*
X222246411Y-93836027D01*
X222246410Y-93836024D01*
X222189699Y-93724724D01*
X222130252Y-93608053D01*
X222000838Y-93429929D01*
X221979867Y-93401064D01*
X221979863Y-93401059D01*
X221798940Y-93220136D01*
X221798935Y-93220132D01*
X221591950Y-93069750D01*
X221591949Y-93069749D01*
X221591947Y-93069748D01*
X221518910Y-93032533D01*
X221363975Y-92953589D01*
X221363972Y-92953588D01*
X221120640Y-92874526D01*
X220957804Y-92848735D01*
X220867930Y-92834500D01*
X220612070Y-92834500D01*
X220527833Y-92847842D01*
X220359359Y-92874526D01*
X220116027Y-92953588D01*
X220116024Y-92953589D01*
X219888049Y-93069750D01*
X219681064Y-93220132D01*
X219681059Y-93220136D01*
X219500136Y-93401059D01*
X219500132Y-93401064D01*
X219349750Y-93608049D01*
X219233589Y-93836024D01*
X219233588Y-93836027D01*
X219154526Y-94079359D01*
X219123672Y-94274160D01*
X219114500Y-94332070D01*
X217285500Y-94332070D01*
X217245474Y-94079361D01*
X217192000Y-93914784D01*
X217166411Y-93836027D01*
X217166410Y-93836024D01*
X217109699Y-93724724D01*
X217050252Y-93608053D01*
X216920838Y-93429929D01*
X216899867Y-93401064D01*
X216899863Y-93401059D01*
X216718940Y-93220136D01*
X216718935Y-93220132D01*
X216511950Y-93069750D01*
X216511949Y-93069749D01*
X216511947Y-93069748D01*
X216438910Y-93032533D01*
X216283975Y-92953589D01*
X216283972Y-92953588D01*
X216040640Y-92874526D01*
X215877804Y-92848735D01*
X215787930Y-92834500D01*
X215532070Y-92834500D01*
X215447833Y-92847842D01*
X215279359Y-92874526D01*
X215036027Y-92953588D01*
X215036024Y-92953589D01*
X214808049Y-93069750D01*
X214601064Y-93220132D01*
X214601059Y-93220136D01*
X214420136Y-93401059D01*
X214420132Y-93401064D01*
X214269750Y-93608049D01*
X214153589Y-93836024D01*
X214153588Y-93836027D01*
X214074526Y-94079359D01*
X214043672Y-94274160D01*
X214034500Y-94332070D01*
X210365500Y-94332070D01*
X210325474Y-94079361D01*
X210272000Y-93914784D01*
X210246411Y-93836027D01*
X210246410Y-93836024D01*
X210189699Y-93724724D01*
X210130252Y-93608053D01*
X210000838Y-93429929D01*
X209979867Y-93401064D01*
X209979863Y-93401059D01*
X209798940Y-93220136D01*
X209798935Y-93220132D01*
X209591950Y-93069750D01*
X209591949Y-93069749D01*
X209591947Y-93069748D01*
X209518910Y-93032533D01*
X209363975Y-92953589D01*
X209363972Y-92953588D01*
X209120640Y-92874526D01*
X208957804Y-92848735D01*
X208867930Y-92834500D01*
X208612070Y-92834500D01*
X208527833Y-92847842D01*
X208359359Y-92874526D01*
X208116027Y-92953588D01*
X208116024Y-92953589D01*
X207888049Y-93069750D01*
X207681064Y-93220132D01*
X207681059Y-93220136D01*
X207500136Y-93401059D01*
X207500132Y-93401064D01*
X207349750Y-93608049D01*
X207233589Y-93836024D01*
X207233588Y-93836027D01*
X207154526Y-94079359D01*
X207123672Y-94274160D01*
X207114500Y-94332070D01*
X207114500Y-94587930D01*
X207128212Y-94674500D01*
X207154526Y-94840640D01*
X207177771Y-94912182D01*
X207179766Y-94982024D01*
X207143685Y-95041856D01*
X207080984Y-95072684D01*
X207059840Y-95074500D01*
X205611669Y-95074500D01*
X205611653Y-95074499D01*
X205604057Y-95074499D01*
X205445943Y-95074499D01*
X205363721Y-95096530D01*
X205293871Y-95094867D01*
X205236009Y-95055704D01*
X205208505Y-94991475D01*
X205213696Y-94938440D01*
X205245474Y-94840639D01*
X205285500Y-94587930D01*
X205285500Y-94332070D01*
X205245474Y-94079361D01*
X205192000Y-93914784D01*
X205166411Y-93836027D01*
X205166410Y-93836024D01*
X205109699Y-93724724D01*
X205050252Y-93608053D01*
X204920838Y-93429929D01*
X204899867Y-93401064D01*
X204899863Y-93401059D01*
X204718940Y-93220136D01*
X204718935Y-93220132D01*
X204511950Y-93069750D01*
X204511949Y-93069749D01*
X204511947Y-93069748D01*
X204438910Y-93032533D01*
X204283975Y-92953589D01*
X204283972Y-92953588D01*
X204040640Y-92874526D01*
X203877804Y-92848735D01*
X203787930Y-92834500D01*
X203532070Y-92834500D01*
X203447833Y-92847842D01*
X203279359Y-92874526D01*
X203036027Y-92953588D01*
X203036024Y-92953589D01*
X202808049Y-93069750D01*
X202601064Y-93220132D01*
X202601059Y-93220136D01*
X202420136Y-93401059D01*
X202420132Y-93401064D01*
X202269750Y-93608049D01*
X202153589Y-93836024D01*
X202153588Y-93836027D01*
X202074526Y-94079359D01*
X202043672Y-94274160D01*
X202034500Y-94332070D01*
X202034500Y-94587930D01*
X202048212Y-94674500D01*
X202074526Y-94840640D01*
X202153588Y-95083972D01*
X202153591Y-95083979D01*
X202163897Y-95104204D01*
X202176794Y-95172873D01*
X202150519Y-95237613D01*
X202093413Y-95277871D01*
X202053413Y-95284500D01*
X198346587Y-95284500D01*
X198279548Y-95264815D01*
X198233793Y-95212011D01*
X198223849Y-95142853D01*
X198236103Y-95104204D01*
X198246408Y-95083979D01*
X198246411Y-95083972D01*
X198276465Y-94991475D01*
X198325474Y-94840639D01*
X198365500Y-94587930D01*
X198365500Y-94332070D01*
X198325474Y-94079361D01*
X198272000Y-93914784D01*
X198246411Y-93836027D01*
X198246410Y-93836024D01*
X198189699Y-93724724D01*
X198130252Y-93608053D01*
X198000838Y-93429929D01*
X197979867Y-93401064D01*
X197979863Y-93401059D01*
X197798940Y-93220136D01*
X197798935Y-93220132D01*
X197591950Y-93069750D01*
X197591949Y-93069749D01*
X197591947Y-93069748D01*
X197518910Y-93032533D01*
X197363975Y-92953589D01*
X197363972Y-92953588D01*
X197120640Y-92874526D01*
X196957804Y-92848735D01*
X196867930Y-92834500D01*
X196612070Y-92834500D01*
X196527833Y-92847842D01*
X196359359Y-92874526D01*
X196116027Y-92953588D01*
X196116024Y-92953589D01*
X195888049Y-93069750D01*
X195681064Y-93220132D01*
X195681059Y-93220136D01*
X195500136Y-93401059D01*
X195500132Y-93401064D01*
X195349750Y-93608049D01*
X195233589Y-93836024D01*
X195233588Y-93836027D01*
X195154526Y-94079359D01*
X195114500Y-94332070D01*
X195114500Y-94550500D01*
X195094815Y-94617539D01*
X195042011Y-94663294D01*
X194990500Y-94674500D01*
X193445981Y-94674500D01*
X193438375Y-94674499D01*
X193438372Y-94674499D01*
X193409497Y-94674499D01*
X193342458Y-94654813D01*
X193306740Y-94613590D01*
X193296706Y-94602010D01*
X193296705Y-94602009D01*
X193296704Y-94602007D01*
X193296701Y-94601988D01*
X193285500Y-94550499D01*
X193285500Y-94332070D01*
X193274303Y-94261379D01*
X193245474Y-94079361D01*
X193192000Y-93914784D01*
X193166411Y-93836027D01*
X193166410Y-93836024D01*
X193109699Y-93724724D01*
X193050252Y-93608053D01*
X192920838Y-93429929D01*
X192899867Y-93401064D01*
X192899863Y-93401059D01*
X192718940Y-93220136D01*
X192718935Y-93220132D01*
X192511950Y-93069750D01*
X192511949Y-93069749D01*
X192511947Y-93069748D01*
X192374078Y-92999500D01*
X192328205Y-92976126D01*
X192277409Y-92928151D01*
X192260500Y-92865641D01*
X192260500Y-91580943D01*
X192258774Y-91574499D01*
X192219577Y-91428215D01*
X192183947Y-91366503D01*
X192183947Y-91366501D01*
X192140524Y-91291290D01*
X192140521Y-91291286D01*
X192140520Y-91291284D01*
X192028716Y-91179480D01*
X192028715Y-91179479D01*
X192024385Y-91175149D01*
X192024374Y-91175139D01*
X191687590Y-90838355D01*
X191687588Y-90838352D01*
X191568717Y-90719481D01*
X191568716Y-90719480D01*
X191481904Y-90669360D01*
X191481904Y-90669359D01*
X191481900Y-90669358D01*
X191431785Y-90640423D01*
X191279057Y-90599499D01*
X191120943Y-90599499D01*
X191113347Y-90599499D01*
X191113331Y-90599500D01*
X174186670Y-90599500D01*
X174186654Y-90599499D01*
X174179058Y-90599499D01*
X174020943Y-90599499D01*
X173944579Y-90619961D01*
X173868214Y-90640423D01*
X173868209Y-90640426D01*
X173731290Y-90719475D01*
X173731282Y-90719481D01*
X172049709Y-92401054D01*
X171988386Y-92434539D01*
X171927435Y-92432450D01*
X171823627Y-92402291D01*
X171823624Y-92402290D01*
X171823622Y-92402290D01*
X171788163Y-92399500D01*
X171411849Y-92399500D01*
X171411800Y-92399502D01*
X171410295Y-92399621D01*
X171410058Y-92399571D01*
X171409717Y-92399584D01*
X171409449Y-92399685D01*
X171375724Y-92392349D01*
X171341922Y-92385239D01*
X171341460Y-92384896D01*
X171341175Y-92384834D01*
X171313015Y-92363754D01*
X171312921Y-92363684D01*
X171288648Y-92339412D01*
X171268716Y-92319480D01*
X171268713Y-92319478D01*
X170187590Y-91238355D01*
X170187588Y-91238352D01*
X170068717Y-91119481D01*
X170068709Y-91119475D01*
X169964828Y-91059500D01*
X169964825Y-91059499D01*
X169931787Y-91040424D01*
X169931786Y-91040423D01*
X169931785Y-91040423D01*
X169779057Y-90999499D01*
X169620943Y-90999499D01*
X169613347Y-90999499D01*
X169613331Y-90999500D01*
X166579766Y-90999500D01*
X166512727Y-90979815D01*
X166510875Y-90978602D01*
X166379185Y-90890609D01*
X166379172Y-90890602D01*
X166233501Y-90830264D01*
X166233489Y-90830261D01*
X166078845Y-90799500D01*
X166078842Y-90799500D01*
X165921158Y-90799500D01*
X165921155Y-90799500D01*
X165766510Y-90830261D01*
X165766498Y-90830264D01*
X165620827Y-90890602D01*
X165620814Y-90890609D01*
X165489711Y-90978210D01*
X165489707Y-90978213D01*
X165378213Y-91089707D01*
X165378208Y-91089713D01*
X165373166Y-91097260D01*
X165319553Y-91142065D01*
X165250228Y-91150771D01*
X165187201Y-91120615D01*
X165182384Y-91116049D01*
X164704690Y-90638355D01*
X164704688Y-90638352D01*
X164585817Y-90519481D01*
X164585816Y-90519480D01*
X164499004Y-90469360D01*
X164499004Y-90469359D01*
X164499000Y-90469358D01*
X164448885Y-90440423D01*
X164296157Y-90399499D01*
X164138043Y-90399499D01*
X164130447Y-90399499D01*
X164130431Y-90399500D01*
X131206669Y-90399500D01*
X131206653Y-90399499D01*
X131199057Y-90399499D01*
X131040943Y-90399499D01*
X130933587Y-90428265D01*
X130888210Y-90440424D01*
X130888209Y-90440425D01*
X130838096Y-90469359D01*
X130838095Y-90469360D01*
X130794689Y-90494420D01*
X130751285Y-90519479D01*
X130751282Y-90519481D01*
X130639478Y-90631286D01*
X128362763Y-92908000D01*
X128301440Y-92941485D01*
X128236764Y-92938250D01*
X128040640Y-92874526D01*
X127877804Y-92848735D01*
X127787930Y-92834500D01*
X127532070Y-92834500D01*
X127447833Y-92847842D01*
X127279359Y-92874526D01*
X127036027Y-92953588D01*
X127036024Y-92953589D01*
X126808049Y-93069750D01*
X126601064Y-93220132D01*
X126601059Y-93220136D01*
X126420136Y-93401059D01*
X126420132Y-93401064D01*
X126269750Y-93608049D01*
X126153589Y-93836024D01*
X126153588Y-93836027D01*
X126074526Y-94079359D01*
X126043672Y-94274160D01*
X126034500Y-94332070D01*
X125300500Y-94332070D01*
X125300500Y-89824500D01*
X125320185Y-89757461D01*
X125372989Y-89711706D01*
X125424500Y-89700500D01*
X223406656Y-89700500D01*
X223473695Y-89720185D01*
G37*
%TD.AperFunction*%
%TA.AperFunction,NonConductor*%
G36*
X168484964Y-92208450D02*
G01*
X168512768Y-92213306D01*
X168518045Y-92218164D01*
X168524926Y-92220185D01*
X168543401Y-92241507D01*
X168564172Y-92260628D01*
X168568139Y-92270055D01*
X168570681Y-92272989D01*
X168574997Y-92286353D01*
X168577861Y-92293159D01*
X168578791Y-92296719D01*
X168605998Y-92433497D01*
X168629074Y-92489209D01*
X168631228Y-92497452D01*
X168630423Y-92524202D01*
X168633284Y-92550810D01*
X168629388Y-92558591D01*
X168629127Y-92567291D01*
X168606942Y-92603430D01*
X168602008Y-92613289D01*
X168600251Y-92614330D01*
X168598937Y-92616473D01*
X168576830Y-92638579D01*
X168576826Y-92638585D01*
X168496382Y-92774609D01*
X168496380Y-92774614D01*
X168457020Y-92910095D01*
X168419414Y-92968980D01*
X168355942Y-92998187D01*
X168337944Y-92999500D01*
X167117197Y-92999500D01*
X167050158Y-92979815D01*
X167029516Y-92963181D01*
X166483950Y-92417615D01*
X166450465Y-92356292D01*
X166455449Y-92286600D01*
X166497321Y-92230667D01*
X166502728Y-92226841D01*
X166508032Y-92223296D01*
X166510890Y-92221388D01*
X166577570Y-92200519D01*
X166579766Y-92200500D01*
X168457887Y-92200500D01*
X168484964Y-92208450D01*
G37*
%TD.AperFunction*%
%TA.AperFunction,NonConductor*%
G36*
X190000780Y-92220185D02*
G01*
X190046535Y-92272989D01*
X190048302Y-92277048D01*
X190090602Y-92379172D01*
X190090609Y-92379185D01*
X190178210Y-92510288D01*
X190178213Y-92510292D01*
X190289707Y-92621786D01*
X190289711Y-92621789D01*
X190420814Y-92709390D01*
X190420827Y-92709397D01*
X190540499Y-92758966D01*
X190566503Y-92769737D01*
X190721153Y-92800499D01*
X190721156Y-92800500D01*
X190819984Y-92800500D01*
X190887023Y-92820185D01*
X190932778Y-92872989D01*
X190942722Y-92942147D01*
X190913697Y-93005703D01*
X190876279Y-93034985D01*
X190808049Y-93069750D01*
X190601064Y-93220132D01*
X190601059Y-93220136D01*
X190420136Y-93401059D01*
X190420132Y-93401064D01*
X190269750Y-93608049D01*
X190153589Y-93836024D01*
X190153588Y-93836027D01*
X190074526Y-94079359D01*
X190043672Y-94274160D01*
X190034500Y-94332070D01*
X190034500Y-94587930D01*
X190048212Y-94674500D01*
X190074526Y-94840640D01*
X190153588Y-95083972D01*
X190153589Y-95083975D01*
X190198886Y-95172873D01*
X190252385Y-95277871D01*
X190269750Y-95311950D01*
X190335621Y-95402615D01*
X190359101Y-95468421D01*
X190343275Y-95536475D01*
X190293169Y-95585170D01*
X190235303Y-95599500D01*
X188300097Y-95599500D01*
X188233058Y-95579815D01*
X188212416Y-95563181D01*
X186571090Y-93921855D01*
X186571088Y-93921852D01*
X186452217Y-93802981D01*
X186452216Y-93802980D01*
X186364234Y-93752184D01*
X186364233Y-93752183D01*
X186315290Y-93723925D01*
X186315289Y-93723924D01*
X186302763Y-93720567D01*
X186162557Y-93682999D01*
X186004443Y-93682999D01*
X185996847Y-93682999D01*
X185996831Y-93683000D01*
X183596704Y-93683000D01*
X183534704Y-93666387D01*
X183524074Y-93660250D01*
X183519927Y-93657855D01*
X183434755Y-93608681D01*
X183434745Y-93608677D01*
X183220328Y-93519862D01*
X183078203Y-93481780D01*
X182996149Y-93459794D01*
X182967386Y-93456007D01*
X182766052Y-93429500D01*
X182766045Y-93429500D01*
X182533955Y-93429500D01*
X182533947Y-93429500D01*
X182303851Y-93459794D01*
X182079671Y-93519862D01*
X181865254Y-93608677D01*
X181865244Y-93608681D01*
X181765296Y-93666387D01*
X181749807Y-93670537D01*
X181738231Y-93677977D01*
X181703296Y-93683000D01*
X181660621Y-93683000D01*
X181660605Y-93682999D01*
X181653009Y-93682999D01*
X181494894Y-93682999D01*
X181418530Y-93703461D01*
X181342165Y-93723923D01*
X181342160Y-93723926D01*
X181205241Y-93802975D01*
X181205233Y-93802981D01*
X180688574Y-94319640D01*
X180627251Y-94353125D01*
X180564618Y-94348645D01*
X180564118Y-94350297D01*
X180558294Y-94348530D01*
X180558291Y-94348529D01*
X180558286Y-94348528D01*
X180558283Y-94348527D01*
X180387218Y-94314500D01*
X180387214Y-94314500D01*
X180212786Y-94314500D01*
X180212781Y-94314500D01*
X180041716Y-94348527D01*
X180041708Y-94348529D01*
X179880560Y-94415278D01*
X179880551Y-94415283D01*
X179735526Y-94512186D01*
X179735522Y-94512189D01*
X179712181Y-94535531D01*
X179692744Y-94546143D01*
X179676011Y-94560644D01*
X179662679Y-94562560D01*
X179650858Y-94569016D01*
X179628771Y-94567436D01*
X179606853Y-94570588D01*
X179594601Y-94564992D01*
X179581166Y-94564032D01*
X179563439Y-94550761D01*
X179543297Y-94541563D01*
X179536014Y-94530231D01*
X179525233Y-94522160D01*
X179517495Y-94501414D01*
X179505523Y-94482785D01*
X179502371Y-94460866D01*
X179500816Y-94456696D01*
X179500500Y-94447850D01*
X179500500Y-94253770D01*
X179505422Y-94219179D01*
X179547709Y-94073627D01*
X179550500Y-94038163D01*
X179550499Y-92961838D01*
X179547709Y-92926373D01*
X179503618Y-92774610D01*
X179423170Y-92638580D01*
X179423168Y-92638578D01*
X179423165Y-92638574D01*
X179311425Y-92526834D01*
X179311416Y-92526827D01*
X179175390Y-92446382D01*
X179175384Y-92446380D01*
X179165733Y-92443576D01*
X179106847Y-92405970D01*
X179077641Y-92342497D01*
X179087387Y-92273311D01*
X179132991Y-92220376D01*
X179199974Y-92200501D01*
X179200328Y-92200500D01*
X189933741Y-92200500D01*
X190000780Y-92220185D01*
G37*
%TD.AperFunction*%
%TA.AperFunction,NonConductor*%
G36*
X167228389Y-95465774D02*
G01*
X167257453Y-95469249D01*
X167263653Y-95473445D01*
X167268068Y-95474406D01*
X167296322Y-95495557D01*
X167457269Y-95656504D01*
X167490754Y-95717827D01*
X167485770Y-95787519D01*
X167443898Y-95843452D01*
X167417041Y-95858746D01*
X167280561Y-95915278D01*
X167280553Y-95915282D01*
X167191170Y-95975006D01*
X167124493Y-95995883D01*
X167057113Y-95977398D01*
X167010423Y-95925419D01*
X166999247Y-95856449D01*
X167007717Y-95824456D01*
X167030137Y-95770330D01*
X167088868Y-95551141D01*
X167092025Y-95545960D01*
X167092459Y-95539904D01*
X167109998Y-95516474D01*
X167125231Y-95491484D01*
X167130692Y-95488830D01*
X167134331Y-95483971D01*
X167161748Y-95473744D01*
X167188077Y-95460955D01*
X167194106Y-95461675D01*
X167199795Y-95459554D01*
X167228389Y-95465774D01*
G37*
%TD.AperFunction*%
%TA.AperFunction,NonConductor*%
G36*
X175617942Y-91820185D02*
G01*
X175663697Y-91872989D01*
X175673641Y-91942147D01*
X175644616Y-92005703D01*
X175638584Y-92012181D01*
X175332233Y-92318530D01*
X175332209Y-92318554D01*
X175331286Y-92319478D01*
X175331284Y-92319480D01*
X175219480Y-92431284D01*
X175212358Y-92443618D01*
X175201990Y-92454438D01*
X175188827Y-92461993D01*
X175175586Y-92475373D01*
X175088577Y-92526831D01*
X175088577Y-92526832D01*
X174976834Y-92638574D01*
X174976827Y-92638583D01*
X174896382Y-92774609D01*
X174896380Y-92774614D01*
X174852292Y-92926366D01*
X174852290Y-92926379D01*
X174849500Y-92961829D01*
X174849500Y-94038150D01*
X174849501Y-94038175D01*
X174852291Y-94073627D01*
X174896380Y-94225385D01*
X174896382Y-94225391D01*
X174905466Y-94240750D01*
X174909947Y-94258413D01*
X174919122Y-94274160D01*
X174918361Y-94291575D01*
X174922649Y-94308474D01*
X174916868Y-94325757D01*
X174916074Y-94343963D01*
X174906018Y-94358202D01*
X174900489Y-94374737D01*
X174886281Y-94386152D01*
X174875771Y-94401037D01*
X174854337Y-94411819D01*
X174846023Y-94418500D01*
X174845275Y-94418805D01*
X174838193Y-94421672D01*
X174768215Y-94440423D01*
X174720078Y-94468215D01*
X174712616Y-94472523D01*
X174712609Y-94472526D01*
X174631290Y-94519475D01*
X174631282Y-94519481D01*
X173320479Y-95830284D01*
X173305374Y-95856449D01*
X173294375Y-95875500D01*
X173264737Y-95926834D01*
X173241887Y-95966412D01*
X173241423Y-95967215D01*
X173200499Y-96119943D01*
X173200499Y-96119945D01*
X173200499Y-96288046D01*
X173200500Y-96288059D01*
X173200500Y-97551902D01*
X173180815Y-97618941D01*
X173128011Y-97664696D01*
X173058853Y-97674640D01*
X172995297Y-97645615D01*
X172988819Y-97639583D01*
X172386818Y-97037582D01*
X172353333Y-96976259D01*
X172350499Y-96949901D01*
X172350499Y-96361849D01*
X172350498Y-96361824D01*
X172350221Y-96358310D01*
X172347709Y-96326373D01*
X172303618Y-96174610D01*
X172223170Y-96038580D01*
X172223168Y-96038578D01*
X172223165Y-96038574D01*
X172111425Y-95926834D01*
X172111416Y-95926827D01*
X171975390Y-95846382D01*
X171975385Y-95846380D01*
X171823633Y-95802292D01*
X171823620Y-95802290D01*
X171788163Y-95799500D01*
X171411849Y-95799500D01*
X171411824Y-95799501D01*
X171376375Y-95802290D01*
X171234594Y-95843481D01*
X171165406Y-95843481D01*
X171065651Y-95814500D01*
X171023627Y-95802291D01*
X171023625Y-95802290D01*
X171023620Y-95802290D01*
X170988163Y-95799500D01*
X170611849Y-95799500D01*
X170611824Y-95799501D01*
X170576375Y-95802290D01*
X170434594Y-95843481D01*
X170365406Y-95843481D01*
X170265651Y-95814500D01*
X170223627Y-95802291D01*
X170223625Y-95802290D01*
X170223620Y-95802290D01*
X170188163Y-95799500D01*
X169811849Y-95799500D01*
X169811824Y-95799501D01*
X169776375Y-95802290D01*
X169634594Y-95843481D01*
X169565406Y-95843481D01*
X169465651Y-95814500D01*
X169423627Y-95802291D01*
X169423625Y-95802290D01*
X169423620Y-95802290D01*
X169388170Y-95799500D01*
X169388163Y-95799500D01*
X169350097Y-95799500D01*
X169283058Y-95779815D01*
X169262416Y-95763181D01*
X167911416Y-94412181D01*
X167877931Y-94350858D01*
X167882915Y-94281166D01*
X167924787Y-94225233D01*
X167990251Y-94200816D01*
X167999097Y-94200500D01*
X168410934Y-94200500D01*
X168477973Y-94220185D01*
X168517666Y-94261379D01*
X168576827Y-94361416D01*
X168576834Y-94361425D01*
X168688574Y-94473165D01*
X168688578Y-94473168D01*
X168688580Y-94473170D01*
X168824610Y-94553618D01*
X168976373Y-94597709D01*
X169011837Y-94600500D01*
X169388162Y-94600499D01*
X169423627Y-94597709D01*
X169565405Y-94556519D01*
X169634595Y-94556519D01*
X169683021Y-94570588D01*
X169776373Y-94597709D01*
X169811837Y-94600500D01*
X170188162Y-94600499D01*
X170223627Y-94597709D01*
X170365405Y-94556519D01*
X170434595Y-94556519D01*
X170483021Y-94570588D01*
X170576373Y-94597709D01*
X170611837Y-94600500D01*
X170988162Y-94600499D01*
X171023627Y-94597709D01*
X171165405Y-94556519D01*
X171234595Y-94556519D01*
X171283021Y-94570588D01*
X171376373Y-94597709D01*
X171411837Y-94600500D01*
X171788162Y-94600499D01*
X171823627Y-94597709D01*
X171975390Y-94553618D01*
X172111420Y-94473170D01*
X172223170Y-94361420D01*
X172303618Y-94225390D01*
X172347709Y-94073627D01*
X172350500Y-94038163D01*
X172350499Y-93850096D01*
X172370183Y-93783057D01*
X172386813Y-93762420D01*
X174312417Y-91836819D01*
X174373740Y-91803334D01*
X174400098Y-91800500D01*
X175550903Y-91800500D01*
X175617942Y-91820185D01*
G37*
%TD.AperFunction*%
%TA.AperFunction,NonConductor*%
G36*
X185850442Y-94903685D02*
G01*
X185871084Y-94920319D01*
X187515139Y-96564374D01*
X187515149Y-96564385D01*
X187519479Y-96568715D01*
X187519480Y-96568716D01*
X187631284Y-96680520D01*
X187631286Y-96680521D01*
X187631290Y-96680524D01*
X187762821Y-96756462D01*
X187768216Y-96759577D01*
X187871359Y-96787214D01*
X187920942Y-96800500D01*
X187920943Y-96800500D01*
X191250903Y-96800500D01*
X191317942Y-96820185D01*
X191363697Y-96872989D01*
X191373641Y-96942147D01*
X191344616Y-97005703D01*
X191338584Y-97012181D01*
X190872584Y-97478181D01*
X190811261Y-97511666D01*
X190784903Y-97514500D01*
X187571670Y-97514500D01*
X187571654Y-97514499D01*
X187564058Y-97514499D01*
X187405943Y-97514499D01*
X187345709Y-97530639D01*
X187253214Y-97555423D01*
X187253209Y-97555426D01*
X187116290Y-97634475D01*
X187116282Y-97634481D01*
X186698807Y-98051956D01*
X186673127Y-98071661D01*
X186634524Y-98093948D01*
X186634525Y-98093949D01*
X186616287Y-98104478D01*
X186616281Y-98104483D01*
X185899007Y-98821758D01*
X185837684Y-98855243D01*
X185811326Y-98858077D01*
X180096051Y-98858077D01*
X180029012Y-98838392D01*
X179983257Y-98785588D01*
X179973313Y-98716430D01*
X179974434Y-98709885D01*
X180000500Y-98578844D01*
X180000500Y-98421155D01*
X180000499Y-98421153D01*
X179997512Y-98406138D01*
X179969737Y-98266503D01*
X179969735Y-98266498D01*
X179909397Y-98120827D01*
X179909390Y-98120814D01*
X179821789Y-97989711D01*
X179821786Y-97989707D01*
X179710292Y-97878213D01*
X179710288Y-97878210D01*
X179579185Y-97790609D01*
X179579169Y-97790601D01*
X179577038Y-97789718D01*
X179576094Y-97788957D01*
X179573809Y-97787736D01*
X179574040Y-97787302D01*
X179561477Y-97777176D01*
X179543297Y-97768874D01*
X179534830Y-97755699D01*
X179522638Y-97745873D01*
X179516328Y-97726909D01*
X179505523Y-97710096D01*
X179501557Y-97682519D01*
X179500579Y-97679577D01*
X179500500Y-97675161D01*
X179500500Y-97653770D01*
X179505422Y-97619179D01*
X179547709Y-97473627D01*
X179550500Y-97438163D01*
X179550499Y-96823500D01*
X179570183Y-96756462D01*
X179622987Y-96710707D01*
X179674499Y-96699501D01*
X179837505Y-96699501D01*
X179837508Y-96699501D01*
X179990236Y-96658577D01*
X180040355Y-96629639D01*
X180127167Y-96579520D01*
X180238971Y-96467716D01*
X180238971Y-96467714D01*
X180249179Y-96457507D01*
X180249181Y-96457504D01*
X180718415Y-95988269D01*
X180737197Y-95972855D01*
X180859504Y-95891133D01*
X180926178Y-95870257D01*
X180993558Y-95888742D01*
X181040248Y-95940721D01*
X181042951Y-95946782D01*
X181058675Y-95984742D01*
X181058685Y-95984762D01*
X181174720Y-96185743D01*
X181174721Y-96185745D01*
X181316009Y-96369875D01*
X181316015Y-96369882D01*
X181480117Y-96533984D01*
X181480124Y-96533990D01*
X181664254Y-96675278D01*
X181664256Y-96675279D01*
X181865237Y-96791314D01*
X181865240Y-96791315D01*
X181865248Y-96791320D01*
X182079670Y-96880137D01*
X182303851Y-96940206D01*
X182533955Y-96970500D01*
X182533962Y-96970500D01*
X182766038Y-96970500D01*
X182766045Y-96970500D01*
X182996149Y-96940206D01*
X183220330Y-96880137D01*
X183434752Y-96791320D01*
X183635748Y-96675276D01*
X183819877Y-96533989D01*
X183983989Y-96369877D01*
X184125276Y-96185748D01*
X184131707Y-96174610D01*
X184210246Y-96038574D01*
X184241320Y-95984752D01*
X184330137Y-95770330D01*
X184390206Y-95546149D01*
X184420500Y-95316045D01*
X184420500Y-95083955D01*
X184412631Y-95024185D01*
X184423396Y-94955151D01*
X184469776Y-94902895D01*
X184535570Y-94884000D01*
X185783403Y-94884000D01*
X185850442Y-94903685D01*
G37*
%TD.AperFunction*%
%TA.AperFunction,NonConductor*%
G36*
X192662780Y-97454359D02*
G01*
X192695078Y-97456669D01*
X192697279Y-97458317D01*
X192700013Y-97458631D01*
X192725084Y-97479132D01*
X192751011Y-97498541D01*
X192752623Y-97501651D01*
X192754102Y-97502860D01*
X192769673Y-97534529D01*
X192777812Y-97559575D01*
X192786265Y-97585593D01*
X192867933Y-97745873D01*
X192895276Y-97799536D01*
X193036414Y-97993796D01*
X193206204Y-98163586D01*
X193400464Y-98304724D01*
X193531796Y-98371641D01*
X193542859Y-98382089D01*
X193556703Y-98388412D01*
X193567743Y-98405591D01*
X193582591Y-98419614D01*
X193586832Y-98435295D01*
X193594477Y-98447190D01*
X193599500Y-98482125D01*
X193599500Y-98715158D01*
X193579815Y-98782197D01*
X193563181Y-98802839D01*
X193379038Y-98986981D01*
X193317715Y-99020466D01*
X193248023Y-99015482D01*
X193192090Y-98973610D01*
X193173426Y-98937617D01*
X193166412Y-98916030D01*
X193166410Y-98916024D01*
X193118378Y-98821758D01*
X193050252Y-98688053D01*
X192970909Y-98578846D01*
X192899867Y-98481064D01*
X192899863Y-98481059D01*
X192718940Y-98300136D01*
X192718935Y-98300132D01*
X192511950Y-98149750D01*
X192511949Y-98149749D01*
X192511947Y-98149748D01*
X192283975Y-98033590D01*
X192283969Y-98033588D01*
X192273888Y-98030312D01*
X192216215Y-97990872D01*
X192189020Y-97926512D01*
X192200937Y-97857666D01*
X192224528Y-97824705D01*
X192564065Y-97485168D01*
X192566476Y-97483852D01*
X192567898Y-97481495D01*
X192596971Y-97467200D01*
X192625386Y-97451685D01*
X192628129Y-97451881D01*
X192630599Y-97450667D01*
X192662780Y-97454359D01*
G37*
%TD.AperFunction*%
%TA.AperFunction,NonConductor*%
G36*
X175206703Y-98207687D02*
G01*
X175213387Y-98214784D01*
X175213733Y-98214439D01*
X175338349Y-98339055D01*
X175338355Y-98339060D01*
X175339690Y-98340395D01*
X175373175Y-98401718D01*
X175373626Y-98403884D01*
X175404526Y-98559226D01*
X175404529Y-98559236D01*
X175464867Y-98704907D01*
X175464874Y-98704920D01*
X175552476Y-98836024D01*
X175554318Y-98838269D01*
X175554915Y-98839674D01*
X175555860Y-98841089D01*
X175555765Y-98841152D01*
X175557733Y-98842625D01*
X175569012Y-98872865D01*
X175581632Y-98902578D01*
X175581148Y-98905403D01*
X175582150Y-98908089D01*
X175575289Y-98939626D01*
X175569842Y-98971446D01*
X175567721Y-98974414D01*
X175567298Y-98976362D01*
X175546147Y-99004616D01*
X175393977Y-99156786D01*
X175332654Y-99190271D01*
X175262962Y-99185287D01*
X175207029Y-99143415D01*
X175184679Y-99093296D01*
X175170738Y-99023215D01*
X175170737Y-99023208D01*
X175165386Y-99010289D01*
X175110397Y-98877532D01*
X175110390Y-98877519D01*
X175022398Y-98745830D01*
X175001520Y-98679152D01*
X175001500Y-98676939D01*
X175001500Y-98301400D01*
X175021185Y-98234361D01*
X175073989Y-98188606D01*
X175143147Y-98178662D01*
X175206703Y-98207687D01*
G37*
%TD.AperFunction*%
%TA.AperFunction,NonConductor*%
G36*
X190056053Y-98716275D02*
G01*
X190058725Y-98715614D01*
X190089386Y-98726063D01*
X190120452Y-98735185D01*
X190122253Y-98737263D01*
X190124860Y-98738152D01*
X190145013Y-98763530D01*
X190166207Y-98787989D01*
X190166598Y-98790711D01*
X190168311Y-98792868D01*
X190171542Y-98825097D01*
X190176151Y-98857147D01*
X190175091Y-98860488D01*
X190175282Y-98862389D01*
X190163897Y-98895796D01*
X190153591Y-98916020D01*
X190153588Y-98916027D01*
X190074526Y-99159359D01*
X190034500Y-99412070D01*
X190034500Y-99667927D01*
X190034520Y-99668054D01*
X190034513Y-99668103D01*
X190034882Y-99672781D01*
X190033898Y-99672858D01*
X190025563Y-99737347D01*
X189980565Y-99790798D01*
X189913813Y-99811435D01*
X189846500Y-99792708D01*
X189838042Y-99786943D01*
X189830770Y-99781534D01*
X189768716Y-99719480D01*
X189679428Y-99667930D01*
X189673201Y-99664335D01*
X189673196Y-99664331D01*
X189631788Y-99640424D01*
X189631787Y-99640423D01*
X189558653Y-99620827D01*
X189479057Y-99599499D01*
X189320943Y-99599499D01*
X189313347Y-99599499D01*
X189313331Y-99599500D01*
X187119097Y-99599500D01*
X187052058Y-99579815D01*
X187006303Y-99527011D01*
X186996359Y-99457853D01*
X187025384Y-99394297D01*
X187031407Y-99387827D01*
X187286197Y-99133036D01*
X187311862Y-99113342D01*
X187368716Y-99080519D01*
X187697417Y-98751819D01*
X187758740Y-98718334D01*
X187785098Y-98715500D01*
X190053413Y-98715500D01*
X190056053Y-98716275D01*
G37*
%TD.AperFunction*%
%TA.AperFunction,NonConductor*%
G36*
X171705703Y-98055384D02*
G01*
X171712181Y-98061416D01*
X172165425Y-98514660D01*
X172198910Y-98575983D01*
X172199361Y-98578149D01*
X172230261Y-98733491D01*
X172230264Y-98733501D01*
X172290602Y-98879172D01*
X172290609Y-98879185D01*
X172378210Y-99010288D01*
X172378213Y-99010292D01*
X172489707Y-99121786D01*
X172489711Y-99121789D01*
X172620814Y-99209390D01*
X172620827Y-99209397D01*
X172711719Y-99247045D01*
X172766503Y-99269737D01*
X172921153Y-99300499D01*
X172921156Y-99300500D01*
X173073650Y-99300500D01*
X173140689Y-99320185D01*
X173186444Y-99372989D01*
X173196388Y-99442147D01*
X173176752Y-99493391D01*
X173091609Y-99620814D01*
X173091602Y-99620827D01*
X173031264Y-99766498D01*
X173031261Y-99766510D01*
X173000500Y-99921153D01*
X173000500Y-100078846D01*
X173031261Y-100233489D01*
X173031264Y-100233501D01*
X173091602Y-100379172D01*
X173091609Y-100379185D01*
X173179210Y-100510288D01*
X173179213Y-100510292D01*
X173290707Y-100621786D01*
X173290711Y-100621789D01*
X173421814Y-100709390D01*
X173421827Y-100709397D01*
X173547034Y-100761259D01*
X173601438Y-100805100D01*
X173623503Y-100871394D01*
X173606224Y-100939093D01*
X173587263Y-100963501D01*
X172587584Y-101963181D01*
X172526261Y-101996666D01*
X172499903Y-101999500D01*
X168549097Y-101999500D01*
X168482058Y-101979815D01*
X168436303Y-101927011D01*
X168426359Y-101857853D01*
X168455384Y-101794297D01*
X168461416Y-101787819D01*
X169738947Y-100510288D01*
X171380520Y-98868716D01*
X171459577Y-98731784D01*
X171500501Y-98579057D01*
X171500501Y-98420942D01*
X171500501Y-98413347D01*
X171500500Y-98413329D01*
X171500500Y-98149097D01*
X171520185Y-98082058D01*
X171572989Y-98036303D01*
X171642147Y-98026359D01*
X171705703Y-98055384D01*
G37*
%TD.AperFunction*%
M02*
