%TF.GenerationSoftware,KiCad,Pcbnew,9.0.2*%
%TF.CreationDate,2025-09-18T18:03:26-07:00*%
%TF.ProjectId,IV_Board_9ch_latch,49565f42-6f61-4726-945f-3963685f6c61,rev?*%
%TF.SameCoordinates,Original*%
%TF.FileFunction,Legend,Top*%
%TF.FilePolarity,Positive*%
%FSLAX46Y46*%
G04 Gerber Fmt 4.6, Leading zero omitted, Abs format (unit mm)*
G04 Created by KiCad (PCBNEW 9.0.2) date 2025-09-18 18:03:26*
%MOMM*%
%LPD*%
G01*
G04 APERTURE LIST*
%ADD10C,0.100000*%
%ADD11C,0.150000*%
%ADD12C,0.120000*%
G04 APERTURE END LIST*
D10*
X176303884Y-131872419D02*
X176303884Y-130872419D01*
X176303884Y-131348609D02*
X176875312Y-131348609D01*
X176875312Y-131872419D02*
X176875312Y-130872419D01*
X177303884Y-131824800D02*
X177446741Y-131872419D01*
X177446741Y-131872419D02*
X177684836Y-131872419D01*
X177684836Y-131872419D02*
X177780074Y-131824800D01*
X177780074Y-131824800D02*
X177827693Y-131777180D01*
X177827693Y-131777180D02*
X177875312Y-131681942D01*
X177875312Y-131681942D02*
X177875312Y-131586704D01*
X177875312Y-131586704D02*
X177827693Y-131491466D01*
X177827693Y-131491466D02*
X177780074Y-131443847D01*
X177780074Y-131443847D02*
X177684836Y-131396228D01*
X177684836Y-131396228D02*
X177494360Y-131348609D01*
X177494360Y-131348609D02*
X177399122Y-131300990D01*
X177399122Y-131300990D02*
X177351503Y-131253371D01*
X177351503Y-131253371D02*
X177303884Y-131158133D01*
X177303884Y-131158133D02*
X177303884Y-131062895D01*
X177303884Y-131062895D02*
X177351503Y-130967657D01*
X177351503Y-130967657D02*
X177399122Y-130920038D01*
X177399122Y-130920038D02*
X177494360Y-130872419D01*
X177494360Y-130872419D02*
X177732455Y-130872419D01*
X177732455Y-130872419D02*
X177875312Y-130920038D01*
X178303884Y-131348609D02*
X178637217Y-131348609D01*
X178780074Y-131872419D02*
X178303884Y-131872419D01*
X178303884Y-131872419D02*
X178303884Y-130872419D01*
X178303884Y-130872419D02*
X178780074Y-130872419D01*
X179780074Y-131777180D02*
X179732455Y-131824800D01*
X179732455Y-131824800D02*
X179589598Y-131872419D01*
X179589598Y-131872419D02*
X179494360Y-131872419D01*
X179494360Y-131872419D02*
X179351503Y-131824800D01*
X179351503Y-131824800D02*
X179256265Y-131729561D01*
X179256265Y-131729561D02*
X179208646Y-131634323D01*
X179208646Y-131634323D02*
X179161027Y-131443847D01*
X179161027Y-131443847D02*
X179161027Y-131300990D01*
X179161027Y-131300990D02*
X179208646Y-131110514D01*
X179208646Y-131110514D02*
X179256265Y-131015276D01*
X179256265Y-131015276D02*
X179351503Y-130920038D01*
X179351503Y-130920038D02*
X179494360Y-130872419D01*
X179494360Y-130872419D02*
X179589598Y-130872419D01*
X179589598Y-130872419D02*
X179732455Y-130920038D01*
X179732455Y-130920038D02*
X179780074Y-130967657D01*
X180351503Y-131300990D02*
X180256265Y-131253371D01*
X180256265Y-131253371D02*
X180208646Y-131205752D01*
X180208646Y-131205752D02*
X180161027Y-131110514D01*
X180161027Y-131110514D02*
X180161027Y-131062895D01*
X180161027Y-131062895D02*
X180208646Y-130967657D01*
X180208646Y-130967657D02*
X180256265Y-130920038D01*
X180256265Y-130920038D02*
X180351503Y-130872419D01*
X180351503Y-130872419D02*
X180541979Y-130872419D01*
X180541979Y-130872419D02*
X180637217Y-130920038D01*
X180637217Y-130920038D02*
X180684836Y-130967657D01*
X180684836Y-130967657D02*
X180732455Y-131062895D01*
X180732455Y-131062895D02*
X180732455Y-131110514D01*
X180732455Y-131110514D02*
X180684836Y-131205752D01*
X180684836Y-131205752D02*
X180637217Y-131253371D01*
X180637217Y-131253371D02*
X180541979Y-131300990D01*
X180541979Y-131300990D02*
X180351503Y-131300990D01*
X180351503Y-131300990D02*
X180256265Y-131348609D01*
X180256265Y-131348609D02*
X180208646Y-131396228D01*
X180208646Y-131396228D02*
X180161027Y-131491466D01*
X180161027Y-131491466D02*
X180161027Y-131681942D01*
X180161027Y-131681942D02*
X180208646Y-131777180D01*
X180208646Y-131777180D02*
X180256265Y-131824800D01*
X180256265Y-131824800D02*
X180351503Y-131872419D01*
X180351503Y-131872419D02*
X180541979Y-131872419D01*
X180541979Y-131872419D02*
X180637217Y-131824800D01*
X180637217Y-131824800D02*
X180684836Y-131777180D01*
X180684836Y-131777180D02*
X180732455Y-131681942D01*
X180732455Y-131681942D02*
X180732455Y-131491466D01*
X180732455Y-131491466D02*
X180684836Y-131396228D01*
X180684836Y-131396228D02*
X180637217Y-131348609D01*
X180637217Y-131348609D02*
X180541979Y-131300990D01*
X181161027Y-131491466D02*
X181922932Y-131491466D01*
X182922931Y-131872419D02*
X182351503Y-131872419D01*
X182637217Y-131872419D02*
X182637217Y-130872419D01*
X182637217Y-130872419D02*
X182541979Y-131015276D01*
X182541979Y-131015276D02*
X182446741Y-131110514D01*
X182446741Y-131110514D02*
X182351503Y-131158133D01*
X183541979Y-130872419D02*
X183637217Y-130872419D01*
X183637217Y-130872419D02*
X183732455Y-130920038D01*
X183732455Y-130920038D02*
X183780074Y-130967657D01*
X183780074Y-130967657D02*
X183827693Y-131062895D01*
X183827693Y-131062895D02*
X183875312Y-131253371D01*
X183875312Y-131253371D02*
X183875312Y-131491466D01*
X183875312Y-131491466D02*
X183827693Y-131681942D01*
X183827693Y-131681942D02*
X183780074Y-131777180D01*
X183780074Y-131777180D02*
X183732455Y-131824800D01*
X183732455Y-131824800D02*
X183637217Y-131872419D01*
X183637217Y-131872419D02*
X183541979Y-131872419D01*
X183541979Y-131872419D02*
X183446741Y-131824800D01*
X183446741Y-131824800D02*
X183399122Y-131777180D01*
X183399122Y-131777180D02*
X183351503Y-131681942D01*
X183351503Y-131681942D02*
X183303884Y-131491466D01*
X183303884Y-131491466D02*
X183303884Y-131253371D01*
X183303884Y-131253371D02*
X183351503Y-131062895D01*
X183351503Y-131062895D02*
X183399122Y-130967657D01*
X183399122Y-130967657D02*
X183446741Y-130920038D01*
X183446741Y-130920038D02*
X183541979Y-130872419D01*
X184351503Y-131872419D02*
X184541979Y-131872419D01*
X184541979Y-131872419D02*
X184637217Y-131824800D01*
X184637217Y-131824800D02*
X184684836Y-131777180D01*
X184684836Y-131777180D02*
X184780074Y-131634323D01*
X184780074Y-131634323D02*
X184827693Y-131443847D01*
X184827693Y-131443847D02*
X184827693Y-131062895D01*
X184827693Y-131062895D02*
X184780074Y-130967657D01*
X184780074Y-130967657D02*
X184732455Y-130920038D01*
X184732455Y-130920038D02*
X184637217Y-130872419D01*
X184637217Y-130872419D02*
X184446741Y-130872419D01*
X184446741Y-130872419D02*
X184351503Y-130920038D01*
X184351503Y-130920038D02*
X184303884Y-130967657D01*
X184303884Y-130967657D02*
X184256265Y-131062895D01*
X184256265Y-131062895D02*
X184256265Y-131300990D01*
X184256265Y-131300990D02*
X184303884Y-131396228D01*
X184303884Y-131396228D02*
X184351503Y-131443847D01*
X184351503Y-131443847D02*
X184446741Y-131491466D01*
X184446741Y-131491466D02*
X184637217Y-131491466D01*
X184637217Y-131491466D02*
X184732455Y-131443847D01*
X184732455Y-131443847D02*
X184780074Y-131396228D01*
X184780074Y-131396228D02*
X184827693Y-131300990D01*
X185256265Y-131491466D02*
X186018170Y-131491466D01*
X186684836Y-130872419D02*
X186780074Y-130872419D01*
X186780074Y-130872419D02*
X186875312Y-130920038D01*
X186875312Y-130920038D02*
X186922931Y-130967657D01*
X186922931Y-130967657D02*
X186970550Y-131062895D01*
X186970550Y-131062895D02*
X187018169Y-131253371D01*
X187018169Y-131253371D02*
X187018169Y-131491466D01*
X187018169Y-131491466D02*
X186970550Y-131681942D01*
X186970550Y-131681942D02*
X186922931Y-131777180D01*
X186922931Y-131777180D02*
X186875312Y-131824800D01*
X186875312Y-131824800D02*
X186780074Y-131872419D01*
X186780074Y-131872419D02*
X186684836Y-131872419D01*
X186684836Y-131872419D02*
X186589598Y-131824800D01*
X186589598Y-131824800D02*
X186541979Y-131777180D01*
X186541979Y-131777180D02*
X186494360Y-131681942D01*
X186494360Y-131681942D02*
X186446741Y-131491466D01*
X186446741Y-131491466D02*
X186446741Y-131253371D01*
X186446741Y-131253371D02*
X186494360Y-131062895D01*
X186494360Y-131062895D02*
X186541979Y-130967657D01*
X186541979Y-130967657D02*
X186589598Y-130920038D01*
X186589598Y-130920038D02*
X186684836Y-130872419D01*
X187970550Y-131872419D02*
X187399122Y-131872419D01*
X187684836Y-131872419D02*
X187684836Y-130872419D01*
X187684836Y-130872419D02*
X187589598Y-131015276D01*
X187589598Y-131015276D02*
X187494360Y-131110514D01*
X187494360Y-131110514D02*
X187399122Y-131158133D01*
X188399122Y-131491466D02*
X189161027Y-131491466D01*
X190113407Y-131872419D02*
X189637217Y-131872419D01*
X189637217Y-131872419D02*
X189637217Y-130872419D01*
X190446741Y-131491466D02*
X191208646Y-131491466D01*
X191684836Y-131872419D02*
X191684836Y-130872419D01*
X191684836Y-130872419D02*
X191922931Y-130872419D01*
X191922931Y-130872419D02*
X192065788Y-130920038D01*
X192065788Y-130920038D02*
X192161026Y-131015276D01*
X192161026Y-131015276D02*
X192208645Y-131110514D01*
X192208645Y-131110514D02*
X192256264Y-131300990D01*
X192256264Y-131300990D02*
X192256264Y-131443847D01*
X192256264Y-131443847D02*
X192208645Y-131634323D01*
X192208645Y-131634323D02*
X192161026Y-131729561D01*
X192161026Y-131729561D02*
X192065788Y-131824800D01*
X192065788Y-131824800D02*
X191922931Y-131872419D01*
X191922931Y-131872419D02*
X191684836Y-131872419D01*
X192541979Y-130872419D02*
X192875312Y-131872419D01*
X192875312Y-131872419D02*
X193208645Y-130872419D01*
X193541979Y-131491466D02*
X194303884Y-131491466D01*
X194732455Y-131586704D02*
X195208645Y-131586704D01*
X194637217Y-131872419D02*
X194970550Y-130872419D01*
X194970550Y-130872419D02*
X195303883Y-131872419D01*
X195637217Y-131491466D02*
X196399122Y-131491466D01*
X197208645Y-131348609D02*
X197351502Y-131396228D01*
X197351502Y-131396228D02*
X197399121Y-131443847D01*
X197399121Y-131443847D02*
X197446740Y-131539085D01*
X197446740Y-131539085D02*
X197446740Y-131681942D01*
X197446740Y-131681942D02*
X197399121Y-131777180D01*
X197399121Y-131777180D02*
X197351502Y-131824800D01*
X197351502Y-131824800D02*
X197256264Y-131872419D01*
X197256264Y-131872419D02*
X196875312Y-131872419D01*
X196875312Y-131872419D02*
X196875312Y-130872419D01*
X196875312Y-130872419D02*
X197208645Y-130872419D01*
X197208645Y-130872419D02*
X197303883Y-130920038D01*
X197303883Y-130920038D02*
X197351502Y-130967657D01*
X197351502Y-130967657D02*
X197399121Y-131062895D01*
X197399121Y-131062895D02*
X197399121Y-131158133D01*
X197399121Y-131158133D02*
X197351502Y-131253371D01*
X197351502Y-131253371D02*
X197303883Y-131300990D01*
X197303883Y-131300990D02*
X197208645Y-131348609D01*
X197208645Y-131348609D02*
X196875312Y-131348609D01*
X198351502Y-131872419D02*
X197875312Y-131872419D01*
X197875312Y-131872419D02*
X197875312Y-130872419D01*
D11*
X163336779Y-105869819D02*
X163336779Y-104869819D01*
X163336779Y-105346009D02*
X163908207Y-105346009D01*
X163908207Y-105869819D02*
X163908207Y-104869819D01*
X164336779Y-105822200D02*
X164479636Y-105869819D01*
X164479636Y-105869819D02*
X164717731Y-105869819D01*
X164717731Y-105869819D02*
X164812969Y-105822200D01*
X164812969Y-105822200D02*
X164860588Y-105774580D01*
X164860588Y-105774580D02*
X164908207Y-105679342D01*
X164908207Y-105679342D02*
X164908207Y-105584104D01*
X164908207Y-105584104D02*
X164860588Y-105488866D01*
X164860588Y-105488866D02*
X164812969Y-105441247D01*
X164812969Y-105441247D02*
X164717731Y-105393628D01*
X164717731Y-105393628D02*
X164527255Y-105346009D01*
X164527255Y-105346009D02*
X164432017Y-105298390D01*
X164432017Y-105298390D02*
X164384398Y-105250771D01*
X164384398Y-105250771D02*
X164336779Y-105155533D01*
X164336779Y-105155533D02*
X164336779Y-105060295D01*
X164336779Y-105060295D02*
X164384398Y-104965057D01*
X164384398Y-104965057D02*
X164432017Y-104917438D01*
X164432017Y-104917438D02*
X164527255Y-104869819D01*
X164527255Y-104869819D02*
X164765350Y-104869819D01*
X164765350Y-104869819D02*
X164908207Y-104917438D01*
X165336779Y-105346009D02*
X165670112Y-105346009D01*
X165812969Y-105869819D02*
X165336779Y-105869819D01*
X165336779Y-105869819D02*
X165336779Y-104869819D01*
X165336779Y-104869819D02*
X165812969Y-104869819D01*
X166812969Y-105774580D02*
X166765350Y-105822200D01*
X166765350Y-105822200D02*
X166622493Y-105869819D01*
X166622493Y-105869819D02*
X166527255Y-105869819D01*
X166527255Y-105869819D02*
X166384398Y-105822200D01*
X166384398Y-105822200D02*
X166289160Y-105726961D01*
X166289160Y-105726961D02*
X166241541Y-105631723D01*
X166241541Y-105631723D02*
X166193922Y-105441247D01*
X166193922Y-105441247D02*
X166193922Y-105298390D01*
X166193922Y-105298390D02*
X166241541Y-105107914D01*
X166241541Y-105107914D02*
X166289160Y-105012676D01*
X166289160Y-105012676D02*
X166384398Y-104917438D01*
X166384398Y-104917438D02*
X166527255Y-104869819D01*
X166527255Y-104869819D02*
X166622493Y-104869819D01*
X166622493Y-104869819D02*
X166765350Y-104917438D01*
X166765350Y-104917438D02*
X166812969Y-104965057D01*
X167384398Y-105298390D02*
X167289160Y-105250771D01*
X167289160Y-105250771D02*
X167241541Y-105203152D01*
X167241541Y-105203152D02*
X167193922Y-105107914D01*
X167193922Y-105107914D02*
X167193922Y-105060295D01*
X167193922Y-105060295D02*
X167241541Y-104965057D01*
X167241541Y-104965057D02*
X167289160Y-104917438D01*
X167289160Y-104917438D02*
X167384398Y-104869819D01*
X167384398Y-104869819D02*
X167574874Y-104869819D01*
X167574874Y-104869819D02*
X167670112Y-104917438D01*
X167670112Y-104917438D02*
X167717731Y-104965057D01*
X167717731Y-104965057D02*
X167765350Y-105060295D01*
X167765350Y-105060295D02*
X167765350Y-105107914D01*
X167765350Y-105107914D02*
X167717731Y-105203152D01*
X167717731Y-105203152D02*
X167670112Y-105250771D01*
X167670112Y-105250771D02*
X167574874Y-105298390D01*
X167574874Y-105298390D02*
X167384398Y-105298390D01*
X167384398Y-105298390D02*
X167289160Y-105346009D01*
X167289160Y-105346009D02*
X167241541Y-105393628D01*
X167241541Y-105393628D02*
X167193922Y-105488866D01*
X167193922Y-105488866D02*
X167193922Y-105679342D01*
X167193922Y-105679342D02*
X167241541Y-105774580D01*
X167241541Y-105774580D02*
X167289160Y-105822200D01*
X167289160Y-105822200D02*
X167384398Y-105869819D01*
X167384398Y-105869819D02*
X167574874Y-105869819D01*
X167574874Y-105869819D02*
X167670112Y-105822200D01*
X167670112Y-105822200D02*
X167717731Y-105774580D01*
X167717731Y-105774580D02*
X167765350Y-105679342D01*
X167765350Y-105679342D02*
X167765350Y-105488866D01*
X167765350Y-105488866D02*
X167717731Y-105393628D01*
X167717731Y-105393628D02*
X167670112Y-105346009D01*
X167670112Y-105346009D02*
X167574874Y-105298390D01*
X168193922Y-105488866D02*
X168955827Y-105488866D01*
X169955826Y-105869819D02*
X169384398Y-105869819D01*
X169670112Y-105869819D02*
X169670112Y-104869819D01*
X169670112Y-104869819D02*
X169574874Y-105012676D01*
X169574874Y-105012676D02*
X169479636Y-105107914D01*
X169479636Y-105107914D02*
X169384398Y-105155533D01*
X170574874Y-104869819D02*
X170670112Y-104869819D01*
X170670112Y-104869819D02*
X170765350Y-104917438D01*
X170765350Y-104917438D02*
X170812969Y-104965057D01*
X170812969Y-104965057D02*
X170860588Y-105060295D01*
X170860588Y-105060295D02*
X170908207Y-105250771D01*
X170908207Y-105250771D02*
X170908207Y-105488866D01*
X170908207Y-105488866D02*
X170860588Y-105679342D01*
X170860588Y-105679342D02*
X170812969Y-105774580D01*
X170812969Y-105774580D02*
X170765350Y-105822200D01*
X170765350Y-105822200D02*
X170670112Y-105869819D01*
X170670112Y-105869819D02*
X170574874Y-105869819D01*
X170574874Y-105869819D02*
X170479636Y-105822200D01*
X170479636Y-105822200D02*
X170432017Y-105774580D01*
X170432017Y-105774580D02*
X170384398Y-105679342D01*
X170384398Y-105679342D02*
X170336779Y-105488866D01*
X170336779Y-105488866D02*
X170336779Y-105250771D01*
X170336779Y-105250771D02*
X170384398Y-105060295D01*
X170384398Y-105060295D02*
X170432017Y-104965057D01*
X170432017Y-104965057D02*
X170479636Y-104917438D01*
X170479636Y-104917438D02*
X170574874Y-104869819D01*
X171384398Y-105869819D02*
X171574874Y-105869819D01*
X171574874Y-105869819D02*
X171670112Y-105822200D01*
X171670112Y-105822200D02*
X171717731Y-105774580D01*
X171717731Y-105774580D02*
X171812969Y-105631723D01*
X171812969Y-105631723D02*
X171860588Y-105441247D01*
X171860588Y-105441247D02*
X171860588Y-105060295D01*
X171860588Y-105060295D02*
X171812969Y-104965057D01*
X171812969Y-104965057D02*
X171765350Y-104917438D01*
X171765350Y-104917438D02*
X171670112Y-104869819D01*
X171670112Y-104869819D02*
X171479636Y-104869819D01*
X171479636Y-104869819D02*
X171384398Y-104917438D01*
X171384398Y-104917438D02*
X171336779Y-104965057D01*
X171336779Y-104965057D02*
X171289160Y-105060295D01*
X171289160Y-105060295D02*
X171289160Y-105298390D01*
X171289160Y-105298390D02*
X171336779Y-105393628D01*
X171336779Y-105393628D02*
X171384398Y-105441247D01*
X171384398Y-105441247D02*
X171479636Y-105488866D01*
X171479636Y-105488866D02*
X171670112Y-105488866D01*
X171670112Y-105488866D02*
X171765350Y-105441247D01*
X171765350Y-105441247D02*
X171812969Y-105393628D01*
X171812969Y-105393628D02*
X171860588Y-105298390D01*
X172289160Y-105488866D02*
X173051065Y-105488866D01*
X173717731Y-104869819D02*
X173812969Y-104869819D01*
X173812969Y-104869819D02*
X173908207Y-104917438D01*
X173908207Y-104917438D02*
X173955826Y-104965057D01*
X173955826Y-104965057D02*
X174003445Y-105060295D01*
X174003445Y-105060295D02*
X174051064Y-105250771D01*
X174051064Y-105250771D02*
X174051064Y-105488866D01*
X174051064Y-105488866D02*
X174003445Y-105679342D01*
X174003445Y-105679342D02*
X173955826Y-105774580D01*
X173955826Y-105774580D02*
X173908207Y-105822200D01*
X173908207Y-105822200D02*
X173812969Y-105869819D01*
X173812969Y-105869819D02*
X173717731Y-105869819D01*
X173717731Y-105869819D02*
X173622493Y-105822200D01*
X173622493Y-105822200D02*
X173574874Y-105774580D01*
X173574874Y-105774580D02*
X173527255Y-105679342D01*
X173527255Y-105679342D02*
X173479636Y-105488866D01*
X173479636Y-105488866D02*
X173479636Y-105250771D01*
X173479636Y-105250771D02*
X173527255Y-105060295D01*
X173527255Y-105060295D02*
X173574874Y-104965057D01*
X173574874Y-104965057D02*
X173622493Y-104917438D01*
X173622493Y-104917438D02*
X173717731Y-104869819D01*
X175003445Y-105869819D02*
X174432017Y-105869819D01*
X174717731Y-105869819D02*
X174717731Y-104869819D01*
X174717731Y-104869819D02*
X174622493Y-105012676D01*
X174622493Y-105012676D02*
X174527255Y-105107914D01*
X174527255Y-105107914D02*
X174432017Y-105155533D01*
X175432017Y-105488866D02*
X176193922Y-105488866D01*
X177146302Y-105869819D02*
X176670112Y-105869819D01*
X176670112Y-105869819D02*
X176670112Y-104869819D01*
X177479636Y-105488866D02*
X178241541Y-105488866D01*
X178717731Y-105869819D02*
X178717731Y-104869819D01*
X178717731Y-104869819D02*
X178955826Y-104869819D01*
X178955826Y-104869819D02*
X179098683Y-104917438D01*
X179098683Y-104917438D02*
X179193921Y-105012676D01*
X179193921Y-105012676D02*
X179241540Y-105107914D01*
X179241540Y-105107914D02*
X179289159Y-105298390D01*
X179289159Y-105298390D02*
X179289159Y-105441247D01*
X179289159Y-105441247D02*
X179241540Y-105631723D01*
X179241540Y-105631723D02*
X179193921Y-105726961D01*
X179193921Y-105726961D02*
X179098683Y-105822200D01*
X179098683Y-105822200D02*
X178955826Y-105869819D01*
X178955826Y-105869819D02*
X178717731Y-105869819D01*
X179574874Y-104869819D02*
X179908207Y-105869819D01*
X179908207Y-105869819D02*
X180241540Y-104869819D01*
X180574874Y-105488866D02*
X181336779Y-105488866D01*
X181765350Y-105584104D02*
X182241540Y-105584104D01*
X181670112Y-105869819D02*
X182003445Y-104869819D01*
X182003445Y-104869819D02*
X182336778Y-105869819D01*
X182670112Y-105488866D02*
X183432017Y-105488866D01*
X184384397Y-105869819D02*
X183908207Y-105869819D01*
X183908207Y-105869819D02*
X183908207Y-104869819D01*
X184670112Y-104965057D02*
X184717731Y-104917438D01*
X184717731Y-104917438D02*
X184812969Y-104869819D01*
X184812969Y-104869819D02*
X185051064Y-104869819D01*
X185051064Y-104869819D02*
X185146302Y-104917438D01*
X185146302Y-104917438D02*
X185193921Y-104965057D01*
X185193921Y-104965057D02*
X185241540Y-105060295D01*
X185241540Y-105060295D02*
X185241540Y-105155533D01*
X185241540Y-105155533D02*
X185193921Y-105298390D01*
X185193921Y-105298390D02*
X184622493Y-105869819D01*
X184622493Y-105869819D02*
X185241540Y-105869819D01*
X185670112Y-105488866D02*
X186432017Y-105488866D01*
X186908207Y-105869819D02*
X186908207Y-104869819D01*
X187479635Y-105869819D02*
X187051064Y-105298390D01*
X187479635Y-104869819D02*
X186908207Y-105441247D01*
X187908207Y-105488866D02*
X188670112Y-105488866D01*
X189003445Y-104869819D02*
X189574873Y-104869819D01*
X189289159Y-105869819D02*
X189289159Y-104869819D01*
X190479635Y-105869819D02*
X190146302Y-105393628D01*
X189908207Y-105869819D02*
X189908207Y-104869819D01*
X189908207Y-104869819D02*
X190289159Y-104869819D01*
X190289159Y-104869819D02*
X190384397Y-104917438D01*
X190384397Y-104917438D02*
X190432016Y-104965057D01*
X190432016Y-104965057D02*
X190479635Y-105060295D01*
X190479635Y-105060295D02*
X190479635Y-105203152D01*
X190479635Y-105203152D02*
X190432016Y-105298390D01*
X190432016Y-105298390D02*
X190384397Y-105346009D01*
X190384397Y-105346009D02*
X190289159Y-105393628D01*
X190289159Y-105393628D02*
X189908207Y-105393628D01*
D10*
X207468169Y-112090777D02*
X207468169Y-111240777D01*
X207751503Y-111240777D02*
X208034836Y-112090777D01*
X208034836Y-112090777D02*
X208318170Y-111240777D01*
X209532455Y-111645539D02*
X209653883Y-111686015D01*
X209653883Y-111686015D02*
X209694360Y-111726491D01*
X209694360Y-111726491D02*
X209734836Y-111807443D01*
X209734836Y-111807443D02*
X209734836Y-111928872D01*
X209734836Y-111928872D02*
X209694360Y-112009824D01*
X209694360Y-112009824D02*
X209653883Y-112050301D01*
X209653883Y-112050301D02*
X209572931Y-112090777D01*
X209572931Y-112090777D02*
X209249121Y-112090777D01*
X209249121Y-112090777D02*
X209249121Y-111240777D01*
X209249121Y-111240777D02*
X209532455Y-111240777D01*
X209532455Y-111240777D02*
X209613407Y-111281253D01*
X209613407Y-111281253D02*
X209653883Y-111321729D01*
X209653883Y-111321729D02*
X209694360Y-111402681D01*
X209694360Y-111402681D02*
X209694360Y-111483634D01*
X209694360Y-111483634D02*
X209653883Y-111564586D01*
X209653883Y-111564586D02*
X209613407Y-111605062D01*
X209613407Y-111605062D02*
X209532455Y-111645539D01*
X209532455Y-111645539D02*
X209249121Y-111645539D01*
X210220550Y-112090777D02*
X210139598Y-112050301D01*
X210139598Y-112050301D02*
X210099121Y-112009824D01*
X210099121Y-112009824D02*
X210058645Y-111928872D01*
X210058645Y-111928872D02*
X210058645Y-111686015D01*
X210058645Y-111686015D02*
X210099121Y-111605062D01*
X210099121Y-111605062D02*
X210139598Y-111564586D01*
X210139598Y-111564586D02*
X210220550Y-111524110D01*
X210220550Y-111524110D02*
X210341979Y-111524110D01*
X210341979Y-111524110D02*
X210422931Y-111564586D01*
X210422931Y-111564586D02*
X210463407Y-111605062D01*
X210463407Y-111605062D02*
X210503883Y-111686015D01*
X210503883Y-111686015D02*
X210503883Y-111928872D01*
X210503883Y-111928872D02*
X210463407Y-112009824D01*
X210463407Y-112009824D02*
X210422931Y-112050301D01*
X210422931Y-112050301D02*
X210341979Y-112090777D01*
X210341979Y-112090777D02*
X210220550Y-112090777D01*
X211232455Y-112090777D02*
X211232455Y-111645539D01*
X211232455Y-111645539D02*
X211191979Y-111564586D01*
X211191979Y-111564586D02*
X211111027Y-111524110D01*
X211111027Y-111524110D02*
X210949122Y-111524110D01*
X210949122Y-111524110D02*
X210868169Y-111564586D01*
X211232455Y-112050301D02*
X211151503Y-112090777D01*
X211151503Y-112090777D02*
X210949122Y-112090777D01*
X210949122Y-112090777D02*
X210868169Y-112050301D01*
X210868169Y-112050301D02*
X210827693Y-111969348D01*
X210827693Y-111969348D02*
X210827693Y-111888396D01*
X210827693Y-111888396D02*
X210868169Y-111807443D01*
X210868169Y-111807443D02*
X210949122Y-111766967D01*
X210949122Y-111766967D02*
X211151503Y-111766967D01*
X211151503Y-111766967D02*
X211232455Y-111726491D01*
X211637217Y-112090777D02*
X211637217Y-111524110D01*
X211637217Y-111686015D02*
X211677694Y-111605062D01*
X211677694Y-111605062D02*
X211718170Y-111564586D01*
X211718170Y-111564586D02*
X211799122Y-111524110D01*
X211799122Y-111524110D02*
X211880075Y-111524110D01*
X212527693Y-112090777D02*
X212527693Y-111240777D01*
X212527693Y-112050301D02*
X212446741Y-112090777D01*
X212446741Y-112090777D02*
X212284836Y-112090777D01*
X212284836Y-112090777D02*
X212203884Y-112050301D01*
X212203884Y-112050301D02*
X212163407Y-112009824D01*
X212163407Y-112009824D02*
X212122931Y-111928872D01*
X212122931Y-111928872D02*
X212122931Y-111686015D01*
X212122931Y-111686015D02*
X212163407Y-111605062D01*
X212163407Y-111605062D02*
X212203884Y-111564586D01*
X212203884Y-111564586D02*
X212284836Y-111524110D01*
X212284836Y-111524110D02*
X212446741Y-111524110D01*
X212446741Y-111524110D02*
X212527693Y-111564586D01*
X213620551Y-112090777D02*
X213782455Y-112090777D01*
X213782455Y-112090777D02*
X213863408Y-112050301D01*
X213863408Y-112050301D02*
X213903884Y-112009824D01*
X213903884Y-112009824D02*
X213984836Y-111888396D01*
X213984836Y-111888396D02*
X214025313Y-111726491D01*
X214025313Y-111726491D02*
X214025313Y-111402681D01*
X214025313Y-111402681D02*
X213984836Y-111321729D01*
X213984836Y-111321729D02*
X213944360Y-111281253D01*
X213944360Y-111281253D02*
X213863408Y-111240777D01*
X213863408Y-111240777D02*
X213701503Y-111240777D01*
X213701503Y-111240777D02*
X213620551Y-111281253D01*
X213620551Y-111281253D02*
X213580074Y-111321729D01*
X213580074Y-111321729D02*
X213539598Y-111402681D01*
X213539598Y-111402681D02*
X213539598Y-111605062D01*
X213539598Y-111605062D02*
X213580074Y-111686015D01*
X213580074Y-111686015D02*
X213620551Y-111726491D01*
X213620551Y-111726491D02*
X213701503Y-111766967D01*
X213701503Y-111766967D02*
X213863408Y-111766967D01*
X213863408Y-111766967D02*
X213944360Y-111726491D01*
X213944360Y-111726491D02*
X213984836Y-111686015D01*
X213984836Y-111686015D02*
X214025313Y-111605062D01*
X214753884Y-112050301D02*
X214672932Y-112090777D01*
X214672932Y-112090777D02*
X214511027Y-112090777D01*
X214511027Y-112090777D02*
X214430075Y-112050301D01*
X214430075Y-112050301D02*
X214389598Y-112009824D01*
X214389598Y-112009824D02*
X214349122Y-111928872D01*
X214349122Y-111928872D02*
X214349122Y-111686015D01*
X214349122Y-111686015D02*
X214389598Y-111605062D01*
X214389598Y-111605062D02*
X214430075Y-111564586D01*
X214430075Y-111564586D02*
X214511027Y-111524110D01*
X214511027Y-111524110D02*
X214672932Y-111524110D01*
X214672932Y-111524110D02*
X214753884Y-111564586D01*
X215118169Y-112090777D02*
X215118169Y-111240777D01*
X215482455Y-112090777D02*
X215482455Y-111645539D01*
X215482455Y-111645539D02*
X215441979Y-111564586D01*
X215441979Y-111564586D02*
X215361027Y-111524110D01*
X215361027Y-111524110D02*
X215239598Y-111524110D01*
X215239598Y-111524110D02*
X215158646Y-111564586D01*
X215158646Y-111564586D02*
X215118169Y-111605062D01*
D11*
X216390475Y-92704819D02*
X216057142Y-92228628D01*
X215819047Y-92704819D02*
X215819047Y-91704819D01*
X215819047Y-91704819D02*
X216199999Y-91704819D01*
X216199999Y-91704819D02*
X216295237Y-91752438D01*
X216295237Y-91752438D02*
X216342856Y-91800057D01*
X216342856Y-91800057D02*
X216390475Y-91895295D01*
X216390475Y-91895295D02*
X216390475Y-92038152D01*
X216390475Y-92038152D02*
X216342856Y-92133390D01*
X216342856Y-92133390D02*
X216295237Y-92181009D01*
X216295237Y-92181009D02*
X216199999Y-92228628D01*
X216199999Y-92228628D02*
X215819047Y-92228628D01*
X216819047Y-92181009D02*
X217152380Y-92181009D01*
X217295237Y-92704819D02*
X216819047Y-92704819D01*
X216819047Y-92704819D02*
X216819047Y-91704819D01*
X216819047Y-91704819D02*
X217295237Y-91704819D01*
X218057142Y-92181009D02*
X217723809Y-92181009D01*
X217723809Y-92704819D02*
X217723809Y-91704819D01*
X217723809Y-91704819D02*
X218199999Y-91704819D01*
X218723809Y-91704819D02*
X218723809Y-91942914D01*
X218485714Y-91847676D02*
X218723809Y-91942914D01*
X218723809Y-91942914D02*
X218961904Y-91847676D01*
X218580952Y-92133390D02*
X218723809Y-91942914D01*
X218723809Y-91942914D02*
X218866666Y-92133390D01*
X219485714Y-91704819D02*
X219485714Y-91942914D01*
X219247619Y-91847676D02*
X219485714Y-91942914D01*
X219485714Y-91942914D02*
X219723809Y-91847676D01*
X219342857Y-92133390D02*
X219485714Y-91942914D01*
X219485714Y-91942914D02*
X219628571Y-92133390D01*
X220533333Y-91704819D02*
X220342857Y-91704819D01*
X220342857Y-91704819D02*
X220247619Y-91752438D01*
X220247619Y-91752438D02*
X220200000Y-91800057D01*
X220200000Y-91800057D02*
X220104762Y-91942914D01*
X220104762Y-91942914D02*
X220057143Y-92133390D01*
X220057143Y-92133390D02*
X220057143Y-92514342D01*
X220057143Y-92514342D02*
X220104762Y-92609580D01*
X220104762Y-92609580D02*
X220152381Y-92657200D01*
X220152381Y-92657200D02*
X220247619Y-92704819D01*
X220247619Y-92704819D02*
X220438095Y-92704819D01*
X220438095Y-92704819D02*
X220533333Y-92657200D01*
X220533333Y-92657200D02*
X220580952Y-92609580D01*
X220580952Y-92609580D02*
X220628571Y-92514342D01*
X220628571Y-92514342D02*
X220628571Y-92276247D01*
X220628571Y-92276247D02*
X220580952Y-92181009D01*
X220580952Y-92181009D02*
X220533333Y-92133390D01*
X220533333Y-92133390D02*
X220438095Y-92085771D01*
X220438095Y-92085771D02*
X220247619Y-92085771D01*
X220247619Y-92085771D02*
X220152381Y-92133390D01*
X220152381Y-92133390D02*
X220104762Y-92181009D01*
X220104762Y-92181009D02*
X220057143Y-92276247D01*
X128390475Y-104704819D02*
X128057142Y-104228628D01*
X127819047Y-104704819D02*
X127819047Y-103704819D01*
X127819047Y-103704819D02*
X128199999Y-103704819D01*
X128199999Y-103704819D02*
X128295237Y-103752438D01*
X128295237Y-103752438D02*
X128342856Y-103800057D01*
X128342856Y-103800057D02*
X128390475Y-103895295D01*
X128390475Y-103895295D02*
X128390475Y-104038152D01*
X128390475Y-104038152D02*
X128342856Y-104133390D01*
X128342856Y-104133390D02*
X128295237Y-104181009D01*
X128295237Y-104181009D02*
X128199999Y-104228628D01*
X128199999Y-104228628D02*
X127819047Y-104228628D01*
X128819047Y-104181009D02*
X129152380Y-104181009D01*
X129295237Y-104704819D02*
X128819047Y-104704819D01*
X128819047Y-104704819D02*
X128819047Y-103704819D01*
X128819047Y-103704819D02*
X129295237Y-103704819D01*
X130057142Y-104181009D02*
X129723809Y-104181009D01*
X129723809Y-104704819D02*
X129723809Y-103704819D01*
X129723809Y-103704819D02*
X130199999Y-103704819D01*
X130723809Y-103704819D02*
X130723809Y-103942914D01*
X130485714Y-103847676D02*
X130723809Y-103942914D01*
X130723809Y-103942914D02*
X130961904Y-103847676D01*
X130580952Y-104133390D02*
X130723809Y-103942914D01*
X130723809Y-103942914D02*
X130866666Y-104133390D01*
X131485714Y-103704819D02*
X131485714Y-103942914D01*
X131247619Y-103847676D02*
X131485714Y-103942914D01*
X131485714Y-103942914D02*
X131723809Y-103847676D01*
X131342857Y-104133390D02*
X131485714Y-103942914D01*
X131485714Y-103942914D02*
X131628571Y-104133390D01*
X132009524Y-103704819D02*
X132676190Y-103704819D01*
X132676190Y-103704819D02*
X132247619Y-104704819D01*
X140390475Y-92704819D02*
X140057142Y-92228628D01*
X139819047Y-92704819D02*
X139819047Y-91704819D01*
X139819047Y-91704819D02*
X140199999Y-91704819D01*
X140199999Y-91704819D02*
X140295237Y-91752438D01*
X140295237Y-91752438D02*
X140342856Y-91800057D01*
X140342856Y-91800057D02*
X140390475Y-91895295D01*
X140390475Y-91895295D02*
X140390475Y-92038152D01*
X140390475Y-92038152D02*
X140342856Y-92133390D01*
X140342856Y-92133390D02*
X140295237Y-92181009D01*
X140295237Y-92181009D02*
X140199999Y-92228628D01*
X140199999Y-92228628D02*
X139819047Y-92228628D01*
X140819047Y-92181009D02*
X141152380Y-92181009D01*
X141295237Y-92704819D02*
X140819047Y-92704819D01*
X140819047Y-92704819D02*
X140819047Y-91704819D01*
X140819047Y-91704819D02*
X141295237Y-91704819D01*
X142057142Y-92181009D02*
X141723809Y-92181009D01*
X141723809Y-92704819D02*
X141723809Y-91704819D01*
X141723809Y-91704819D02*
X142199999Y-91704819D01*
X142723809Y-91704819D02*
X142723809Y-91942914D01*
X142485714Y-91847676D02*
X142723809Y-91942914D01*
X142723809Y-91942914D02*
X142961904Y-91847676D01*
X142580952Y-92133390D02*
X142723809Y-91942914D01*
X142723809Y-91942914D02*
X142866666Y-92133390D01*
X143485714Y-91704819D02*
X143485714Y-91942914D01*
X143247619Y-91847676D02*
X143485714Y-91942914D01*
X143485714Y-91942914D02*
X143723809Y-91847676D01*
X143342857Y-92133390D02*
X143485714Y-91942914D01*
X143485714Y-91942914D02*
X143628571Y-92133390D01*
X144057143Y-91800057D02*
X144104762Y-91752438D01*
X144104762Y-91752438D02*
X144200000Y-91704819D01*
X144200000Y-91704819D02*
X144438095Y-91704819D01*
X144438095Y-91704819D02*
X144533333Y-91752438D01*
X144533333Y-91752438D02*
X144580952Y-91800057D01*
X144580952Y-91800057D02*
X144628571Y-91895295D01*
X144628571Y-91895295D02*
X144628571Y-91990533D01*
X144628571Y-91990533D02*
X144580952Y-92133390D01*
X144580952Y-92133390D02*
X144009524Y-92704819D01*
X144009524Y-92704819D02*
X144628571Y-92704819D01*
X140390475Y-104704819D02*
X140057142Y-104228628D01*
X139819047Y-104704819D02*
X139819047Y-103704819D01*
X139819047Y-103704819D02*
X140199999Y-103704819D01*
X140199999Y-103704819D02*
X140295237Y-103752438D01*
X140295237Y-103752438D02*
X140342856Y-103800057D01*
X140342856Y-103800057D02*
X140390475Y-103895295D01*
X140390475Y-103895295D02*
X140390475Y-104038152D01*
X140390475Y-104038152D02*
X140342856Y-104133390D01*
X140342856Y-104133390D02*
X140295237Y-104181009D01*
X140295237Y-104181009D02*
X140199999Y-104228628D01*
X140199999Y-104228628D02*
X139819047Y-104228628D01*
X140819047Y-104181009D02*
X141152380Y-104181009D01*
X141295237Y-104704819D02*
X140819047Y-104704819D01*
X140819047Y-104704819D02*
X140819047Y-103704819D01*
X140819047Y-103704819D02*
X141295237Y-103704819D01*
X142057142Y-104181009D02*
X141723809Y-104181009D01*
X141723809Y-104704819D02*
X141723809Y-103704819D01*
X141723809Y-103704819D02*
X142199999Y-103704819D01*
X142723809Y-103704819D02*
X142723809Y-103942914D01*
X142485714Y-103847676D02*
X142723809Y-103942914D01*
X142723809Y-103942914D02*
X142961904Y-103847676D01*
X142580952Y-104133390D02*
X142723809Y-103942914D01*
X142723809Y-103942914D02*
X142866666Y-104133390D01*
X143485714Y-103704819D02*
X143485714Y-103942914D01*
X143247619Y-103847676D02*
X143485714Y-103942914D01*
X143485714Y-103942914D02*
X143723809Y-103847676D01*
X143342857Y-104133390D02*
X143485714Y-103942914D01*
X143485714Y-103942914D02*
X143628571Y-104133390D01*
X144247619Y-104133390D02*
X144152381Y-104085771D01*
X144152381Y-104085771D02*
X144104762Y-104038152D01*
X144104762Y-104038152D02*
X144057143Y-103942914D01*
X144057143Y-103942914D02*
X144057143Y-103895295D01*
X144057143Y-103895295D02*
X144104762Y-103800057D01*
X144104762Y-103800057D02*
X144152381Y-103752438D01*
X144152381Y-103752438D02*
X144247619Y-103704819D01*
X144247619Y-103704819D02*
X144438095Y-103704819D01*
X144438095Y-103704819D02*
X144533333Y-103752438D01*
X144533333Y-103752438D02*
X144580952Y-103800057D01*
X144580952Y-103800057D02*
X144628571Y-103895295D01*
X144628571Y-103895295D02*
X144628571Y-103942914D01*
X144628571Y-103942914D02*
X144580952Y-104038152D01*
X144580952Y-104038152D02*
X144533333Y-104085771D01*
X144533333Y-104085771D02*
X144438095Y-104133390D01*
X144438095Y-104133390D02*
X144247619Y-104133390D01*
X144247619Y-104133390D02*
X144152381Y-104181009D01*
X144152381Y-104181009D02*
X144104762Y-104228628D01*
X144104762Y-104228628D02*
X144057143Y-104323866D01*
X144057143Y-104323866D02*
X144057143Y-104514342D01*
X144057143Y-104514342D02*
X144104762Y-104609580D01*
X144104762Y-104609580D02*
X144152381Y-104657200D01*
X144152381Y-104657200D02*
X144247619Y-104704819D01*
X144247619Y-104704819D02*
X144438095Y-104704819D01*
X144438095Y-104704819D02*
X144533333Y-104657200D01*
X144533333Y-104657200D02*
X144580952Y-104609580D01*
X144580952Y-104609580D02*
X144628571Y-104514342D01*
X144628571Y-104514342D02*
X144628571Y-104323866D01*
X144628571Y-104323866D02*
X144580952Y-104228628D01*
X144580952Y-104228628D02*
X144533333Y-104181009D01*
X144533333Y-104181009D02*
X144438095Y-104133390D01*
X128390475Y-92704819D02*
X128057142Y-92228628D01*
X127819047Y-92704819D02*
X127819047Y-91704819D01*
X127819047Y-91704819D02*
X128199999Y-91704819D01*
X128199999Y-91704819D02*
X128295237Y-91752438D01*
X128295237Y-91752438D02*
X128342856Y-91800057D01*
X128342856Y-91800057D02*
X128390475Y-91895295D01*
X128390475Y-91895295D02*
X128390475Y-92038152D01*
X128390475Y-92038152D02*
X128342856Y-92133390D01*
X128342856Y-92133390D02*
X128295237Y-92181009D01*
X128295237Y-92181009D02*
X128199999Y-92228628D01*
X128199999Y-92228628D02*
X127819047Y-92228628D01*
X128819047Y-92181009D02*
X129152380Y-92181009D01*
X129295237Y-92704819D02*
X128819047Y-92704819D01*
X128819047Y-92704819D02*
X128819047Y-91704819D01*
X128819047Y-91704819D02*
X129295237Y-91704819D01*
X130057142Y-92181009D02*
X129723809Y-92181009D01*
X129723809Y-92704819D02*
X129723809Y-91704819D01*
X129723809Y-91704819D02*
X130199999Y-91704819D01*
X130723809Y-91704819D02*
X130723809Y-91942914D01*
X130485714Y-91847676D02*
X130723809Y-91942914D01*
X130723809Y-91942914D02*
X130961904Y-91847676D01*
X130580952Y-92133390D02*
X130723809Y-91942914D01*
X130723809Y-91942914D02*
X130866666Y-92133390D01*
X131485714Y-91704819D02*
X131485714Y-91942914D01*
X131247619Y-91847676D02*
X131485714Y-91942914D01*
X131485714Y-91942914D02*
X131723809Y-91847676D01*
X131342857Y-92133390D02*
X131485714Y-91942914D01*
X131485714Y-91942914D02*
X131628571Y-92133390D01*
X132628571Y-92704819D02*
X132057143Y-92704819D01*
X132342857Y-92704819D02*
X132342857Y-91704819D01*
X132342857Y-91704819D02*
X132247619Y-91847676D01*
X132247619Y-91847676D02*
X132152381Y-91942914D01*
X132152381Y-91942914D02*
X132057143Y-91990533D01*
X192390475Y-92704819D02*
X192057142Y-92228628D01*
X191819047Y-92704819D02*
X191819047Y-91704819D01*
X191819047Y-91704819D02*
X192199999Y-91704819D01*
X192199999Y-91704819D02*
X192295237Y-91752438D01*
X192295237Y-91752438D02*
X192342856Y-91800057D01*
X192342856Y-91800057D02*
X192390475Y-91895295D01*
X192390475Y-91895295D02*
X192390475Y-92038152D01*
X192390475Y-92038152D02*
X192342856Y-92133390D01*
X192342856Y-92133390D02*
X192295237Y-92181009D01*
X192295237Y-92181009D02*
X192199999Y-92228628D01*
X192199999Y-92228628D02*
X191819047Y-92228628D01*
X192819047Y-92181009D02*
X193152380Y-92181009D01*
X193295237Y-92704819D02*
X192819047Y-92704819D01*
X192819047Y-92704819D02*
X192819047Y-91704819D01*
X192819047Y-91704819D02*
X193295237Y-91704819D01*
X194057142Y-92181009D02*
X193723809Y-92181009D01*
X193723809Y-92704819D02*
X193723809Y-91704819D01*
X193723809Y-91704819D02*
X194199999Y-91704819D01*
X194723809Y-91704819D02*
X194723809Y-91942914D01*
X194485714Y-91847676D02*
X194723809Y-91942914D01*
X194723809Y-91942914D02*
X194961904Y-91847676D01*
X194580952Y-92133390D02*
X194723809Y-91942914D01*
X194723809Y-91942914D02*
X194866666Y-92133390D01*
X195485714Y-91704819D02*
X195485714Y-91942914D01*
X195247619Y-91847676D02*
X195485714Y-91942914D01*
X195485714Y-91942914D02*
X195723809Y-91847676D01*
X195342857Y-92133390D02*
X195485714Y-91942914D01*
X195485714Y-91942914D02*
X195628571Y-92133390D01*
X196533333Y-92038152D02*
X196533333Y-92704819D01*
X196295238Y-91657200D02*
X196057143Y-92371485D01*
X196057143Y-92371485D02*
X196676190Y-92371485D01*
X152690475Y-104704819D02*
X152357142Y-104228628D01*
X152119047Y-104704819D02*
X152119047Y-103704819D01*
X152119047Y-103704819D02*
X152499999Y-103704819D01*
X152499999Y-103704819D02*
X152595237Y-103752438D01*
X152595237Y-103752438D02*
X152642856Y-103800057D01*
X152642856Y-103800057D02*
X152690475Y-103895295D01*
X152690475Y-103895295D02*
X152690475Y-104038152D01*
X152690475Y-104038152D02*
X152642856Y-104133390D01*
X152642856Y-104133390D02*
X152595237Y-104181009D01*
X152595237Y-104181009D02*
X152499999Y-104228628D01*
X152499999Y-104228628D02*
X152119047Y-104228628D01*
X153119047Y-104181009D02*
X153452380Y-104181009D01*
X153595237Y-104704819D02*
X153119047Y-104704819D01*
X153119047Y-104704819D02*
X153119047Y-103704819D01*
X153119047Y-103704819D02*
X153595237Y-103704819D01*
X154357142Y-104181009D02*
X154023809Y-104181009D01*
X154023809Y-104704819D02*
X154023809Y-103704819D01*
X154023809Y-103704819D02*
X154499999Y-103704819D01*
X155023809Y-103704819D02*
X155023809Y-103942914D01*
X154785714Y-103847676D02*
X155023809Y-103942914D01*
X155023809Y-103942914D02*
X155261904Y-103847676D01*
X154880952Y-104133390D02*
X155023809Y-103942914D01*
X155023809Y-103942914D02*
X155166666Y-104133390D01*
X155785714Y-103704819D02*
X155785714Y-103942914D01*
X155547619Y-103847676D02*
X155785714Y-103942914D01*
X155785714Y-103942914D02*
X156023809Y-103847676D01*
X155642857Y-104133390D02*
X155785714Y-103942914D01*
X155785714Y-103942914D02*
X155928571Y-104133390D01*
X156452381Y-104704819D02*
X156642857Y-104704819D01*
X156642857Y-104704819D02*
X156738095Y-104657200D01*
X156738095Y-104657200D02*
X156785714Y-104609580D01*
X156785714Y-104609580D02*
X156880952Y-104466723D01*
X156880952Y-104466723D02*
X156928571Y-104276247D01*
X156928571Y-104276247D02*
X156928571Y-103895295D01*
X156928571Y-103895295D02*
X156880952Y-103800057D01*
X156880952Y-103800057D02*
X156833333Y-103752438D01*
X156833333Y-103752438D02*
X156738095Y-103704819D01*
X156738095Y-103704819D02*
X156547619Y-103704819D01*
X156547619Y-103704819D02*
X156452381Y-103752438D01*
X156452381Y-103752438D02*
X156404762Y-103800057D01*
X156404762Y-103800057D02*
X156357143Y-103895295D01*
X156357143Y-103895295D02*
X156357143Y-104133390D01*
X156357143Y-104133390D02*
X156404762Y-104228628D01*
X156404762Y-104228628D02*
X156452381Y-104276247D01*
X156452381Y-104276247D02*
X156547619Y-104323866D01*
X156547619Y-104323866D02*
X156738095Y-104323866D01*
X156738095Y-104323866D02*
X156833333Y-104276247D01*
X156833333Y-104276247D02*
X156880952Y-104228628D01*
X156880952Y-104228628D02*
X156928571Y-104133390D01*
X204390475Y-92704819D02*
X204057142Y-92228628D01*
X203819047Y-92704819D02*
X203819047Y-91704819D01*
X203819047Y-91704819D02*
X204199999Y-91704819D01*
X204199999Y-91704819D02*
X204295237Y-91752438D01*
X204295237Y-91752438D02*
X204342856Y-91800057D01*
X204342856Y-91800057D02*
X204390475Y-91895295D01*
X204390475Y-91895295D02*
X204390475Y-92038152D01*
X204390475Y-92038152D02*
X204342856Y-92133390D01*
X204342856Y-92133390D02*
X204295237Y-92181009D01*
X204295237Y-92181009D02*
X204199999Y-92228628D01*
X204199999Y-92228628D02*
X203819047Y-92228628D01*
X204819047Y-92181009D02*
X205152380Y-92181009D01*
X205295237Y-92704819D02*
X204819047Y-92704819D01*
X204819047Y-92704819D02*
X204819047Y-91704819D01*
X204819047Y-91704819D02*
X205295237Y-91704819D01*
X206057142Y-92181009D02*
X205723809Y-92181009D01*
X205723809Y-92704819D02*
X205723809Y-91704819D01*
X205723809Y-91704819D02*
X206199999Y-91704819D01*
X206723809Y-91704819D02*
X206723809Y-91942914D01*
X206485714Y-91847676D02*
X206723809Y-91942914D01*
X206723809Y-91942914D02*
X206961904Y-91847676D01*
X206580952Y-92133390D02*
X206723809Y-91942914D01*
X206723809Y-91942914D02*
X206866666Y-92133390D01*
X207485714Y-91704819D02*
X207485714Y-91942914D01*
X207247619Y-91847676D02*
X207485714Y-91942914D01*
X207485714Y-91942914D02*
X207723809Y-91847676D01*
X207342857Y-92133390D02*
X207485714Y-91942914D01*
X207485714Y-91942914D02*
X207628571Y-92133390D01*
X208580952Y-91704819D02*
X208104762Y-91704819D01*
X208104762Y-91704819D02*
X208057143Y-92181009D01*
X208057143Y-92181009D02*
X208104762Y-92133390D01*
X208104762Y-92133390D02*
X208200000Y-92085771D01*
X208200000Y-92085771D02*
X208438095Y-92085771D01*
X208438095Y-92085771D02*
X208533333Y-92133390D01*
X208533333Y-92133390D02*
X208580952Y-92181009D01*
X208580952Y-92181009D02*
X208628571Y-92276247D01*
X208628571Y-92276247D02*
X208628571Y-92514342D01*
X208628571Y-92514342D02*
X208580952Y-92609580D01*
X208580952Y-92609580D02*
X208533333Y-92657200D01*
X208533333Y-92657200D02*
X208438095Y-92704819D01*
X208438095Y-92704819D02*
X208200000Y-92704819D01*
X208200000Y-92704819D02*
X208104762Y-92657200D01*
X208104762Y-92657200D02*
X208057143Y-92609580D01*
X152390475Y-92704819D02*
X152057142Y-92228628D01*
X151819047Y-92704819D02*
X151819047Y-91704819D01*
X151819047Y-91704819D02*
X152199999Y-91704819D01*
X152199999Y-91704819D02*
X152295237Y-91752438D01*
X152295237Y-91752438D02*
X152342856Y-91800057D01*
X152342856Y-91800057D02*
X152390475Y-91895295D01*
X152390475Y-91895295D02*
X152390475Y-92038152D01*
X152390475Y-92038152D02*
X152342856Y-92133390D01*
X152342856Y-92133390D02*
X152295237Y-92181009D01*
X152295237Y-92181009D02*
X152199999Y-92228628D01*
X152199999Y-92228628D02*
X151819047Y-92228628D01*
X152819047Y-92181009D02*
X153152380Y-92181009D01*
X153295237Y-92704819D02*
X152819047Y-92704819D01*
X152819047Y-92704819D02*
X152819047Y-91704819D01*
X152819047Y-91704819D02*
X153295237Y-91704819D01*
X154057142Y-92181009D02*
X153723809Y-92181009D01*
X153723809Y-92704819D02*
X153723809Y-91704819D01*
X153723809Y-91704819D02*
X154199999Y-91704819D01*
X154723809Y-91704819D02*
X154723809Y-91942914D01*
X154485714Y-91847676D02*
X154723809Y-91942914D01*
X154723809Y-91942914D02*
X154961904Y-91847676D01*
X154580952Y-92133390D02*
X154723809Y-91942914D01*
X154723809Y-91942914D02*
X154866666Y-92133390D01*
X155485714Y-91704819D02*
X155485714Y-91942914D01*
X155247619Y-91847676D02*
X155485714Y-91942914D01*
X155485714Y-91942914D02*
X155723809Y-91847676D01*
X155342857Y-92133390D02*
X155485714Y-91942914D01*
X155485714Y-91942914D02*
X155628571Y-92133390D01*
X156009524Y-91704819D02*
X156628571Y-91704819D01*
X156628571Y-91704819D02*
X156295238Y-92085771D01*
X156295238Y-92085771D02*
X156438095Y-92085771D01*
X156438095Y-92085771D02*
X156533333Y-92133390D01*
X156533333Y-92133390D02*
X156580952Y-92181009D01*
X156580952Y-92181009D02*
X156628571Y-92276247D01*
X156628571Y-92276247D02*
X156628571Y-92514342D01*
X156628571Y-92514342D02*
X156580952Y-92609580D01*
X156580952Y-92609580D02*
X156533333Y-92657200D01*
X156533333Y-92657200D02*
X156438095Y-92704819D01*
X156438095Y-92704819D02*
X156152381Y-92704819D01*
X156152381Y-92704819D02*
X156057143Y-92657200D01*
X156057143Y-92657200D02*
X156009524Y-92609580D01*
D12*
%TO.C,REF\u002A\u002A*%
X160765000Y-91590000D02*
X168610000Y-91590000D01*
X160765000Y-97445563D02*
X160765000Y-91590000D01*
X162129437Y-98810000D02*
X160765000Y-97445563D01*
X168610000Y-91590000D02*
X168610000Y-92290000D01*
X168610000Y-92290000D02*
X179390000Y-92290000D01*
X168610000Y-98110000D02*
X168610000Y-98810000D01*
X168610000Y-98810000D02*
X162129437Y-98810000D01*
X179390000Y-91590000D02*
X187235000Y-91590000D01*
X179390000Y-92290000D02*
X179390000Y-91590000D01*
X179390000Y-98110000D02*
X168610000Y-98110000D01*
X179390000Y-98810000D02*
X179390000Y-98110000D01*
X187235000Y-91590000D02*
X187235000Y-98810000D01*
X187235000Y-98810000D02*
X179390000Y-98810000D01*
X169450000Y-98600000D02*
G75*
G02*
X168950000Y-98600000I-250000J0D01*
G01*
X168950000Y-98600000D02*
G75*
G02*
X169450000Y-98600000I250000J0D01*
G01*
%TO.C,REF\u002A\u002A6*%
X214845000Y-95550000D02*
X214845000Y-98450000D01*
X216750000Y-93645000D02*
X219650000Y-93645000D01*
X216750000Y-100355000D02*
X219650000Y-100355000D01*
X221555000Y-95550000D02*
X221555000Y-98450000D01*
%TO.C,REF\u002A\u002A7*%
X126845000Y-107550000D02*
X126845000Y-110450000D01*
X128750000Y-105645000D02*
X131650000Y-105645000D01*
X128750000Y-112355000D02*
X131650000Y-112355000D01*
X133555000Y-107550000D02*
X133555000Y-110450000D01*
%TO.C,REF\u002A\u002A2*%
X138845000Y-95550000D02*
X138845000Y-98450000D01*
X140750000Y-93645000D02*
X143650000Y-93645000D01*
X140750000Y-100355000D02*
X143650000Y-100355000D01*
X145555000Y-95550000D02*
X145555000Y-98450000D01*
%TO.C,REF\u002A\u002A8*%
X138845000Y-107550000D02*
X138845000Y-110450000D01*
X140750000Y-105645000D02*
X143650000Y-105645000D01*
X140750000Y-112355000D02*
X143650000Y-112355000D01*
X145555000Y-107550000D02*
X145555000Y-110450000D01*
%TO.C,REF\u002A\u002A1*%
X126845000Y-95550000D02*
X126845000Y-98450000D01*
X128750000Y-93645000D02*
X131650000Y-93645000D01*
X128750000Y-100355000D02*
X131650000Y-100355000D01*
X133555000Y-95550000D02*
X133555000Y-98450000D01*
%TO.C,REF\u002A\u002A4*%
X190845000Y-95550000D02*
X190845000Y-98450000D01*
X192750000Y-93645000D02*
X195650000Y-93645000D01*
X192750000Y-100355000D02*
X195650000Y-100355000D01*
X197555000Y-95550000D02*
X197555000Y-98450000D01*
%TO.C,REF\u002A\u002A9*%
X151145000Y-107550000D02*
X151145000Y-110450000D01*
X153050000Y-105645000D02*
X155950000Y-105645000D01*
X153050000Y-112355000D02*
X155950000Y-112355000D01*
X157855000Y-107550000D02*
X157855000Y-110450000D01*
%TO.C,REF\u002A\u002A5*%
X202845000Y-95550000D02*
X202845000Y-98450000D01*
X204750000Y-93645000D02*
X207650000Y-93645000D01*
X204750000Y-100355000D02*
X207650000Y-100355000D01*
X209555000Y-95550000D02*
X209555000Y-98450000D01*
%TO.C,REF\u002A\u002A3*%
X150845000Y-95550000D02*
X150845000Y-98450000D01*
X152750000Y-93645000D02*
X155650000Y-93645000D01*
X152750000Y-100355000D02*
X155650000Y-100355000D01*
X157555000Y-95550000D02*
X157555000Y-98450000D01*
%TD*%
M02*
