M48
; DRILL file {KiCad 9.0.2} date 2025-10-13T17:55:48-0700
; FORMAT={-:-/ absolute / metric / decimal}
; #@! TF.CreationDate,2025-10-13T17:55:48-07:00
; #@! TF.GenerationSoftware,Kicad,Pcbnew,9.0.2
; #@! TF.FileFunction,Plated,1,2,PTH
FMAT,2
METRIC
; #@! TA.AperFunction,Plated,PTH,ViaDrill
T1C0.300
; #@! TA.AperFunction,Plated,PTH,ComponentDrill
T2C0.840
; #@! TA.AperFunction,Plated,PTH,ComponentDrill
T3C1.500
; #@! TA.AperFunction,Plated,PTH,ComponentDrill
T4C1.700
%
G90
G05
T1
X166.0Y-91.6
X169.376Y-92.2
X170.0Y-98.5
X173.0Y-98.5
X173.801Y-100.0
X174.401Y-99.257
X176.174Y-98.326
X177.024Y-100.024
X177.074Y-92.274
X177.59Y-99.459
X178.6Y-95.0
X179.2Y-98.5
X190.8Y-92.0
T2
X165.35Y-95.2
X182.65Y-95.2
T3
X130.2Y-97.0
X130.2Y-109.0
X142.2Y-97.0
X142.2Y-109.0
X154.2Y-97.0
X154.5Y-109.0
X194.2Y-97.0
X206.2Y-97.0
X218.2Y-97.0
T4
X127.66Y-94.46
X127.66Y-99.54
X127.66Y-106.46
X127.66Y-111.54
X132.74Y-94.46
X132.74Y-99.54
X132.74Y-106.46
X132.74Y-111.54
X139.66Y-94.46
X139.66Y-99.54
X139.66Y-106.46
X139.66Y-111.54
X144.74Y-94.46
X144.74Y-99.54
X144.74Y-106.46
X144.74Y-111.54
X151.66Y-94.46
X151.66Y-99.54
X151.96Y-106.46
X151.96Y-111.54
X156.74Y-94.46
X156.74Y-99.54
X157.04Y-106.46
X157.04Y-111.54
X191.66Y-94.46
X191.66Y-99.54
X196.74Y-94.46
X196.74Y-99.54
X203.66Y-94.46
X203.66Y-99.54
X208.74Y-94.46
X208.74Y-99.54
X215.66Y-94.46
X215.66Y-99.54
X220.74Y-94.46
X220.74Y-99.54
M30
