M48
; DRILL file {KiCad 9.0.2} date 2026-06-23T14:52:11-0700
; FORMAT={-:-/ absolute / metric / decimal}
; #@! TF.CreationDate,2026-06-23T14:52:11-07:00
; #@! TF.GenerationSoftware,Kicad,Pcbnew,9.0.2
; #@! TF.FileFunction,Plated,1,2,PTH
FMAT,2
METRIC
; #@! TA.AperFunction,Plated,PTH,ViaDrill
T1C0.300
; #@! TA.AperFunction,Plated,PTH,ComponentDrill
T2C0.400
; #@! TA.AperFunction,Plated,PTH,ComponentDrill
T3C0.650
; #@! TA.AperFunction,Plated,PTH,ComponentDrill
T4C1.100
; #@! TA.AperFunction,Plated,PTH,ComponentDrill
T5C1.500
%
G90
G05
T1
X7.5Y642.0
X15.5Y48.5
X22.525Y623.5
X22.525Y617.0
X22.525Y610.5
X24.5Y621.5
X24.5Y615.0
X25.5Y610.5
X26.5Y559.0
X26.5Y510.5
X26.5Y461.5
X26.5Y413.0
X26.5Y364.0
X26.5Y315.0
X26.5Y266.5
X26.5Y217.5
X26.5Y169.0
X26.5Y120.0
X26.5Y71.5
X26.5Y22.5
X27.0Y626.0
X27.5Y558.5
X27.5Y22.399
X28.525Y623.5
X28.525Y617.0
X28.525Y610.5
X30.5Y621.5
X30.5Y615.0
X31.5Y610.5
X31.7Y588.5
X32.5Y588.5
X33.3Y588.5
X34.0Y536.5
X34.1Y588.5
X34.5Y631.5
X34.5Y488.0
X34.525Y623.5
X34.525Y617.0
X34.525Y610.5
X34.9Y588.5
X35.0Y439.0
X35.5Y390.0
X35.7Y588.5
X36.0Y341.5
X36.5Y588.5
X36.5Y621.5
X36.5Y615.0
X36.5Y292.5
X37.0Y244.0
X37.3Y588.5
X37.5Y610.5
X37.5Y195.0
X38.0Y146.0
X38.1Y588.5
X38.9Y588.5
X39.0Y97.5
X39.5Y632.0
X39.7Y588.5
X40.5Y588.5
X40.525Y623.5
X40.525Y617.0
X40.525Y610.5
X42.5Y621.5
X42.5Y615.0
X43.5Y610.5
X49.5Y642.0
X62.0Y560.5
X67.5Y48.5
X69.5Y625.5
X71.5Y626.0
X71.525Y623.5
X71.525Y617.0
X71.525Y610.5
X73.0Y621.5
X73.0Y619.0
X73.5Y48.5
X74.5Y626.5
X74.5Y610.5
X75.5Y559.0
X75.5Y510.5
X75.5Y461.5
X75.5Y413.0
X75.5Y364.0
X75.5Y315.0
X75.5Y266.5
X75.5Y217.5
X75.5Y169.0
X75.5Y120.0
X75.5Y71.5
X75.5Y22.5
X76.5Y627.0
X77.525Y623.5
X77.525Y617.0
X77.525Y610.5
X79.0Y628.0
X79.0Y621.5
X79.0Y619.0
X80.0Y636.0
X80.2Y588.5
X80.5Y610.5
X81.0Y588.5
X81.0Y628.5
X81.8Y588.5
X82.5Y536.5
X82.6Y588.5
X83.0Y488.0
X83.4Y588.5
X83.5Y629.5
X83.5Y439.0
X83.525Y623.5
X83.525Y617.0
X83.525Y610.5
X84.0Y390.0
X84.2Y588.5
X84.5Y341.5
X85.0Y588.5
X85.0Y621.5
X85.0Y619.0
X85.0Y292.5
X85.5Y244.0
X85.8Y588.5
X86.0Y629.5
X86.5Y610.5
X86.5Y195.0
X86.6Y588.5
X87.0Y146.0
X87.4Y588.5
X87.5Y97.5
X88.0Y48.5
X88.2Y588.5
X89.0Y588.5
X89.525Y623.5
X89.525Y617.0
X89.525Y610.5
X90.0Y609.5
X91.0Y621.5
X91.0Y619.0
X105.0Y642.0
X120.125Y623.5
X120.125Y617.0
X120.125Y610.5
X122.1Y621.5
X122.1Y615.0
X123.1Y610.5
X124.1Y559.0
X124.1Y510.5
X124.1Y461.5
X124.1Y413.0
X124.1Y364.0
X124.1Y315.0
X124.1Y266.5
X124.1Y217.5
X124.1Y169.0
X124.1Y120.0
X124.1Y71.5
X124.1Y22.5
X124.5Y626.0
X125.1Y558.5
X125.1Y22.399
X126.125Y623.5
X126.125Y617.0
X126.125Y610.5
X128.1Y621.5
X128.1Y615.0
X129.1Y610.5
X129.3Y588.5
X130.1Y588.5
X130.9Y588.5
X131.5Y536.5
X131.7Y588.5
X132.0Y631.5
X132.0Y488.0
X132.125Y623.5
X132.125Y617.0
X132.125Y610.5
X132.5Y588.5
X132.5Y439.0
X133.0Y390.0
X133.3Y588.5
X133.5Y341.5
X134.0Y292.5
X134.1Y588.5
X134.1Y621.5
X134.1Y615.0
X134.5Y244.0
X134.9Y588.5
X135.0Y195.0
X135.1Y610.5
X135.7Y588.5
X136.0Y146.0
X136.5Y588.5
X136.5Y97.5
X137.0Y632.0
X137.0Y48.5
X137.3Y588.5
X138.1Y588.5
X138.125Y623.5
X138.125Y617.0
X138.125Y610.5
X140.1Y621.5
X140.1Y615.0
X141.1Y610.5
X147.0Y642.0
X159.5Y560.0
X165.0Y48.5
X167.0Y625.5
X169.0Y626.0
X169.125Y623.5
X169.125Y617.0
X169.125Y610.5
X170.6Y621.5
X170.6Y619.0
X171.0Y48.5
X172.0Y626.5
X172.1Y610.5
X173.1Y559.0
X173.1Y510.5
X173.1Y461.5
X173.1Y413.0
X173.1Y364.0
X173.1Y315.0
X173.1Y266.5
X173.1Y217.5
X173.1Y169.0
X173.1Y120.0
X173.1Y71.5
X173.1Y22.5
X174.0Y627.0
X175.125Y623.5
X175.125Y617.0
X175.125Y610.5
X176.5Y628.0
X176.6Y621.5
X176.6Y619.0
X177.5Y636.0
X177.8Y588.5
X178.1Y610.5
X178.5Y628.5
X178.6Y588.5
X179.4Y588.5
X180.0Y536.5
X180.2Y588.5
X180.5Y488.0
X181.0Y588.5
X181.0Y629.5
X181.0Y439.0
X181.125Y623.5
X181.125Y617.0
X181.125Y610.5
X181.5Y390.0
X181.8Y588.5
X182.0Y341.5
X182.5Y292.5
X182.6Y588.5
X182.6Y621.5
X182.6Y619.0
X183.4Y588.5
X183.5Y629.5
X183.5Y244.0
X184.0Y195.0
X184.1Y610.5
X184.2Y588.5
X185.0Y588.5
X185.0Y146.0
X185.5Y97.5
X185.8Y588.5
X186.0Y48.5
X186.6Y588.5
X187.125Y623.5
X187.125Y617.0
X187.125Y610.5
X187.6Y609.5
X188.6Y621.5
X188.6Y619.0
X193.5Y641.5
T2
X21.55Y562.0
X21.55Y560.5
X21.55Y513.2
X21.55Y511.7
X21.55Y464.4
X21.55Y462.9
X21.55Y415.6
X21.55Y414.1
X21.55Y366.8
X21.55Y365.3
X21.55Y318.0
X21.55Y316.5
X21.55Y269.2
X21.55Y267.7
X21.55Y220.4
X21.55Y218.9
X21.55Y171.6
X21.55Y170.1
X21.55Y122.8
X21.55Y121.3
X21.55Y74.0
X21.55Y72.5
X21.55Y25.2
X21.55Y23.7
X22.1Y559.3
X22.1Y510.5
X22.1Y461.7
X22.1Y412.9
X22.1Y364.1
X22.1Y315.3
X22.1Y266.5
X22.1Y217.7
X22.1Y168.9
X22.1Y120.1
X22.1Y71.3
X22.1Y22.5
X70.35Y562.0
X70.35Y560.5
X70.35Y513.2
X70.35Y511.7
X70.35Y464.4
X70.35Y462.9
X70.35Y415.6
X70.35Y414.1
X70.35Y366.8
X70.35Y365.3
X70.35Y318.0
X70.35Y316.5
X70.35Y269.2
X70.35Y267.7
X70.35Y220.4
X70.35Y218.9
X70.35Y171.6
X70.35Y170.1
X70.35Y122.8
X70.35Y121.3
X70.35Y74.0
X70.35Y72.5
X70.35Y25.2
X70.35Y23.7
X70.9Y559.3
X70.9Y510.5
X70.9Y461.7
X70.9Y412.9
X70.9Y364.1
X70.9Y315.3
X70.9Y266.5
X70.9Y217.7
X70.9Y168.9
X70.9Y120.1
X70.9Y71.3
X70.9Y22.5
X119.15Y562.0
X119.15Y560.5
X119.15Y513.2
X119.15Y511.7
X119.15Y464.4
X119.15Y462.9
X119.15Y415.6
X119.15Y414.1
X119.15Y366.8
X119.15Y365.3
X119.15Y318.0
X119.15Y316.5
X119.15Y269.2
X119.15Y267.7
X119.15Y220.4
X119.15Y218.9
X119.15Y171.6
X119.15Y170.1
X119.15Y122.8
X119.15Y121.3
X119.15Y74.0
X119.15Y72.5
X119.15Y25.2
X119.15Y23.7
X119.7Y559.3
X119.7Y510.5
X119.7Y461.7
X119.7Y412.9
X119.7Y364.1
X119.7Y315.3
X119.7Y266.5
X119.7Y217.7
X119.7Y168.9
X119.7Y120.1
X119.7Y71.3
X119.7Y22.5
X167.95Y562.0
X167.95Y560.5
X167.95Y513.2
X167.95Y511.7
X167.95Y464.4
X167.95Y462.9
X167.95Y415.6
X167.95Y414.1
X167.95Y366.8
X167.95Y365.3
X167.95Y318.0
X167.95Y316.5
X167.95Y269.2
X167.95Y267.7
X167.95Y220.4
X167.95Y218.9
X167.95Y171.6
X167.95Y170.1
X167.95Y122.8
X167.95Y121.3
X167.95Y74.0
X167.95Y72.5
X167.95Y25.2
X167.95Y23.7
X168.5Y559.3
X168.5Y510.5
X168.5Y461.7
X168.5Y412.9
X168.5Y364.1
X168.5Y315.3
X168.5Y266.5
X168.5Y217.7
X168.5Y168.9
X168.5Y120.1
X168.5Y71.3
X168.5Y22.5
T3
X33.56Y636.87
X33.56Y635.6
X34.83Y636.87
X34.83Y635.6
X36.1Y636.87
X36.1Y635.6
X37.37Y636.87
X37.37Y635.6
X38.64Y636.87
X38.64Y635.6
X39.91Y636.87
X39.91Y635.6
X41.18Y636.87
X41.18Y635.6
X42.45Y636.87
X42.45Y635.6
X43.72Y636.87
X43.72Y635.6
X44.99Y636.87
X44.99Y635.6
X46.26Y636.87
X46.26Y635.6
X47.53Y636.87
X47.53Y635.6
X48.8Y636.87
X48.8Y635.6
X50.07Y636.87
X50.07Y635.6
X51.34Y636.87
X51.34Y635.6
X52.61Y636.87
X52.61Y635.6
X53.88Y636.87
X53.88Y635.6
X55.15Y636.87
X55.15Y635.6
X56.42Y636.87
X56.42Y635.6
X57.69Y636.87
X57.69Y635.6
X58.96Y636.87
X58.96Y635.6
X60.23Y636.87
X60.23Y635.6
X61.5Y636.87
X61.5Y635.6
X62.77Y636.87
X62.77Y635.6
X64.04Y636.87
X64.04Y635.6
X131.16Y636.87
X131.16Y635.6
X132.43Y636.87
X132.43Y635.6
X133.7Y636.87
X133.7Y635.6
X134.97Y636.87
X134.97Y635.6
X136.24Y636.87
X136.24Y635.6
X137.51Y636.87
X137.51Y635.6
X138.78Y636.87
X138.78Y635.6
X140.05Y636.87
X140.05Y635.6
X141.32Y636.87
X141.32Y635.6
X142.59Y636.87
X142.59Y635.6
X143.86Y636.87
X143.86Y635.6
X145.13Y636.87
X145.13Y635.6
X146.4Y636.87
X146.4Y635.6
X147.67Y636.87
X147.67Y635.6
X148.94Y636.87
X148.94Y635.6
X150.21Y636.87
X150.21Y635.6
X151.48Y636.87
X151.48Y635.6
X152.75Y636.87
X152.75Y635.6
X154.02Y636.87
X154.02Y635.6
X155.29Y636.87
X155.29Y635.6
X156.56Y636.87
X156.56Y635.6
X157.83Y636.87
X157.83Y635.6
X159.1Y636.87
X159.1Y635.6
X160.37Y636.87
X160.37Y635.6
X161.64Y636.87
X161.64Y635.6
T4
X7.5Y635.0
X105.1Y635.0
T5
X2.475Y640.025
X2.475Y629.975
X12.525Y640.025
X12.525Y629.975
X100.075Y640.025
X100.075Y629.975
X110.125Y640.025
X110.125Y629.975
M30
