M48
; DRILL file {KiCad 9.0.2} date 2025-10-09T17:26:04-0700
; FORMAT={-:-/ absolute / metric / decimal}
; #@! TF.CreationDate,2025-10-09T17:26:04-07:00
; #@! TF.GenerationSoftware,Kicad,Pcbnew,9.0.2
; #@! TF.FileFunction,Plated,1,2,PTH
FMAT,2
METRIC
; #@! TA.AperFunction,Plated,PTH,ViaDrill
T1C0.300
; #@! TA.AperFunction,Plated,PTH,ComponentDrill
T2C0.840
; #@! TA.AperFunction,Plated,PTH,ComponentDrill
T3C0.890
%
G90
G05
T1
X133.674Y-79.174
X134.0Y-85.0
X134.8Y-85.0
X135.5Y-76.5
X135.5Y-81.5
X135.5Y-88.0
X136.4Y-85.0
X136.5Y-97.0
X137.0Y-72.5
X137.075Y-81.478
X137.2Y-85.0
X138.0Y-85.0
X138.5Y-88.0
X138.7Y-81.5
X139.0Y-98.0
X139.5Y-85.0
X139.9Y-94.0
X140.3Y-85.0
X141.0Y-71.5
X141.124Y-85.024
X142.0Y-81.5
X142.0Y-85.0
X142.798Y-84.947
X143.5Y-65.0
X143.5Y-72.5
X143.578Y-109.409
X143.596Y-85.007
X144.0Y-90.0
X144.0Y-96.5
X144.454Y-72.954
X144.5Y-85.0
X144.5Y-109.0
X144.824Y-96.524
X145.0Y-63.5
X145.298Y-85.058
X145.5Y-109.0
X145.771Y-88.743
X146.0Y-75.5
X146.095Y-84.992
X146.106Y-90.106
X146.5Y-64.0
X146.603Y-84.374
X147.5Y-84.5
X148.3Y-84.5
X149.0Y-58.5
X149.0Y-94.105
X149.1Y-84.5
X150.0Y-61.0
X150.0Y-84.5
X150.0Y-90.5
X150.099Y-88.599
X150.566Y-60.434
X150.619Y-89.736
X150.8Y-84.5
X151.0Y-109.0
X151.6Y-84.5
X151.973Y-68.0
X151.973Y-69.0
X152.0Y-109.0
X152.001Y-105.5
X152.5Y-61.0
X152.5Y-84.5
X153.3Y-84.5
X153.453Y-97.268
X153.6Y-66.0
X153.67Y-93.5
X153.727Y-95.297
X154.1Y-84.5
X154.174Y-67.174
X154.5Y-59.0
X154.9Y-84.5
X155.375Y-65.5
X155.633Y-95.633
X155.7Y-84.5
X156.198Y-96.198
X156.5Y-84.5
X157.3Y-84.5
X157.311Y-96.811
X158.1Y-84.5
X159.0Y-84.5
X162.5Y-81.5
X162.5Y-85.5
X163.5Y-85.5
X164.3Y-85.5
X165.1Y-85.5
X166.0Y-85.5
X166.8Y-85.5
X167.6Y-85.5
X168.5Y-85.5
X169.3Y-85.5
X170.1Y-85.5
X170.301Y-81.277
X170.9Y-85.5
X171.303Y-102.792
X171.7Y-85.5
X172.0Y-103.5
X172.5Y-65.0
X172.5Y-85.5
X173.0Y-60.5
X173.136Y-67.763
X173.3Y-85.5
X173.324Y-65.024
X174.0Y-60.5
X174.0Y-67.027
X174.0Y-81.0
X174.1Y-85.5
X174.5Y-88.0
X174.577Y-108.923
X174.8Y-60.5
X174.9Y-85.5
X175.057Y-65.557
X175.5Y-84.5
X175.501Y-108.999
X176.083Y-88.115
X176.3Y-84.5
X176.5Y-76.6
X176.651Y-62.5
X177.1Y-84.5
X177.198Y-88.698
X177.363Y-90.233
X177.71Y-79.695
X177.924Y-84.476
X178.166Y-91.128
X178.5Y-104.996
X178.724Y-84.508
X179.0Y-92.0
X179.524Y-84.5
X180.0Y-60.0
X180.0Y-76.0
X180.383Y-92.883
X180.5Y-84.5
X181.0Y-60.0
X181.3Y-84.5
X181.5Y-78.202
X181.5Y-79.002
X181.5Y-109.0
X182.0Y-64.0
X182.0Y-97.0
X182.1Y-84.5
X182.321Y-108.973
X182.5Y-76.5
X182.677Y-60.323
X182.704Y-89.05
X182.706Y-90.0
X182.9Y-84.5
X183.0Y-97.0
X183.326Y-76.826
X183.7Y-84.5
X184.0Y-97.0
X184.352Y-90.852
X184.5Y-84.5
X185.108Y-89.901
X185.3Y-84.5
X186.1Y-84.5
X186.617Y-94.283
X186.756Y-88.0
X186.9Y-84.5
X187.424Y-77.424
X187.432Y-94.037
X187.5Y-73.0
X187.5Y-76.5
X187.558Y-89.0
X187.7Y-84.5
X188.5Y-73.0
X188.5Y-93.5
X188.5Y-84.5
X189.0Y-97.0
X190.0Y-97.0
X191.0Y-76.0
X191.0Y-91.0
X192.0Y-71.5
X194.5Y-87.0
T2
X131.7Y-73.0
X131.95Y-96.7
X139.25Y-108.7
X139.65Y-60.7
X149.0Y-73.0
X149.25Y-96.7
X156.55Y-108.7
X156.95Y-60.7
X169.25Y-60.7
X170.15Y-108.7
X177.25Y-73.2
X177.7Y-96.7
X186.55Y-60.7
X187.45Y-108.7
X194.55Y-73.2
X195.0Y-96.7
T3
X199.5Y-82.5
X199.5Y-85.04
X199.5Y-87.58
M30
