%TF.GenerationSoftware,KiCad,Pcbnew,9.0.2*%
%TF.CreationDate,2025-10-09T17:26:02-07:00*%
%TF.ProjectId,CAEN-8ch-80mm,4341454e-2d38-4636-982d-38306d6d2e6b,rev?*%
%TF.SameCoordinates,Original*%
%TF.FileFunction,Soldermask,Top*%
%TF.FilePolarity,Negative*%
%FSLAX46Y46*%
G04 Gerber Fmt 4.6, Leading zero omitted, Abs format (unit mm)*
G04 Created by KiCad (PCBNEW 9.0.2) date 2025-10-09 17:26:02*
%MOMM*%
%LPD*%
G01*
G04 APERTURE LIST*
G04 Aperture macros list*
%AMRoundRect*
0 Rectangle with rounded corners*
0 $1 Rounding radius*
0 $2 $3 $4 $5 $6 $7 $8 $9 X,Y pos of 4 corners*
0 Add a 4 corners polygon primitive as box body*
4,1,4,$2,$3,$4,$5,$6,$7,$8,$9,$2,$3,0*
0 Add four circle primitives for the rounded corners*
1,1,$1+$1,$2,$3*
1,1,$1+$1,$4,$5*
1,1,$1+$1,$6,$7*
1,1,$1+$1,$8,$9*
0 Add four rect primitives between the rounded corners*
20,1,$1+$1,$2,$3,$4,$5,0*
20,1,$1+$1,$4,$5,$6,$7,0*
20,1,$1+$1,$6,$7,$8,$9,0*
20,1,$1+$1,$8,$9,$2,$3,0*%
G04 Aperture macros list end*
%ADD10C,2.540000*%
%ADD11C,1.270000*%
%ADD12RoundRect,0.125000X-0.125000X-0.475000X0.125000X-0.475000X0.125000X0.475000X-0.125000X0.475000X0*%
%ADD13RoundRect,0.102000X0.699000X-0.699000X0.699000X0.699000X-0.699000X0.699000X-0.699000X-0.699000X0*%
%ADD14C,1.602000*%
G04 APERTURE END LIST*
D10*
%TO.C,REF\u002A\u002A*%
X169250000Y-60700000D03*
D11*
X171600000Y-62200000D03*
X184200000Y-60700000D03*
D10*
X186550000Y-60700000D03*
D12*
X173100000Y-62400000D03*
X173100000Y-59000000D03*
X173900000Y-62400000D03*
X173900000Y-59000000D03*
X174700000Y-62400000D03*
X174700000Y-59000000D03*
X175500000Y-62400000D03*
X175500000Y-59000000D03*
X179500000Y-62400000D03*
X179500000Y-59000000D03*
X180300000Y-62400000D03*
X180300000Y-59000000D03*
X181100000Y-62400000D03*
X181100000Y-59000000D03*
X181900000Y-62400000D03*
X181900000Y-59000000D03*
X182700000Y-62400000D03*
X182700000Y-59000000D03*
%TD*%
D10*
%TO.C,REF\u002A\u002A*%
X139250000Y-108700000D03*
D11*
X141600000Y-110200000D03*
X154200000Y-108700000D03*
D10*
X156550000Y-108700000D03*
D12*
X143100000Y-110400000D03*
X143100000Y-107000000D03*
X143900000Y-110400000D03*
X143900000Y-107000000D03*
X144700000Y-110400000D03*
X144700000Y-107000000D03*
X145500000Y-110400000D03*
X145500000Y-107000000D03*
X149500000Y-110400000D03*
X149500000Y-107000000D03*
X150300000Y-110400000D03*
X150300000Y-107000000D03*
X151100000Y-110400000D03*
X151100000Y-107000000D03*
X151900000Y-110400000D03*
X151900000Y-107000000D03*
X152700000Y-110400000D03*
X152700000Y-107000000D03*
%TD*%
D10*
%TO.C,REF\u002A\u002A*%
X131700000Y-73000000D03*
D11*
X134050000Y-74500000D03*
X146650000Y-73000000D03*
D10*
X149000000Y-73000000D03*
D12*
X135550000Y-74700000D03*
X135550000Y-71300000D03*
X136350000Y-74700000D03*
X136350000Y-71300000D03*
X137150000Y-74700000D03*
X137150000Y-71300000D03*
X137950000Y-74700000D03*
X137950000Y-71300000D03*
X141950000Y-74700000D03*
X141950000Y-71300000D03*
X142750000Y-74700000D03*
X142750000Y-71300000D03*
X143550000Y-74700000D03*
X143550000Y-71300000D03*
X144350000Y-74700000D03*
X144350000Y-71300000D03*
X145150000Y-74700000D03*
X145150000Y-71300000D03*
%TD*%
D10*
%TO.C,REF\u002A\u002A*%
X131950000Y-96700000D03*
D11*
X134300000Y-98200000D03*
X146900000Y-96700000D03*
D10*
X149250000Y-96700000D03*
D12*
X135800000Y-98400000D03*
X135800000Y-95000000D03*
X136600000Y-98400000D03*
X136600000Y-95000000D03*
X137400000Y-98400000D03*
X137400000Y-95000000D03*
X138200000Y-98400000D03*
X138200000Y-95000000D03*
X142200000Y-98400000D03*
X142200000Y-95000000D03*
X143000000Y-98400000D03*
X143000000Y-95000000D03*
X143800000Y-98400000D03*
X143800000Y-95000000D03*
X144600000Y-98400000D03*
X144600000Y-95000000D03*
X145400000Y-98400000D03*
X145400000Y-95000000D03*
%TD*%
D10*
%TO.C,REF\u002A\u002A*%
X170150000Y-108700000D03*
D11*
X172500000Y-110200000D03*
X185100000Y-108700000D03*
D10*
X187450000Y-108700000D03*
D12*
X174000000Y-110400000D03*
X174000000Y-107000000D03*
X174800000Y-110400000D03*
X174800000Y-107000000D03*
X175600000Y-110400000D03*
X175600000Y-107000000D03*
X176400000Y-110400000D03*
X176400000Y-107000000D03*
X180400000Y-110400000D03*
X180400000Y-107000000D03*
X181200000Y-110400000D03*
X181200000Y-107000000D03*
X182000000Y-110400000D03*
X182000000Y-107000000D03*
X182800000Y-110400000D03*
X182800000Y-107000000D03*
X183600000Y-110400000D03*
X183600000Y-107000000D03*
%TD*%
D13*
%TO.C,REF\u002A\u002A*%
X199500000Y-87580000D03*
D14*
X199500000Y-85040000D03*
X199500000Y-82500000D03*
%TD*%
D10*
%TO.C,REF\u002A\u002A*%
X177250000Y-73200000D03*
D11*
X179600000Y-74700000D03*
X192200000Y-73200000D03*
D10*
X194550000Y-73200000D03*
D12*
X181100000Y-74900000D03*
X181100000Y-71500000D03*
X181900000Y-74900000D03*
X181900000Y-71500000D03*
X182700000Y-74900000D03*
X182700000Y-71500000D03*
X183500000Y-74900000D03*
X183500000Y-71500000D03*
X187500000Y-74900000D03*
X187500000Y-71500000D03*
X188300000Y-74900000D03*
X188300000Y-71500000D03*
X189100000Y-74900000D03*
X189100000Y-71500000D03*
X189900000Y-74900000D03*
X189900000Y-71500000D03*
X190700000Y-74900000D03*
X190700000Y-71500000D03*
%TD*%
D10*
%TO.C,REF\u002A\u002A*%
X139650000Y-60700000D03*
D11*
X142000000Y-62200000D03*
X154600000Y-60700000D03*
D10*
X156950000Y-60700000D03*
D12*
X143500000Y-62400000D03*
X143500000Y-59000000D03*
X144300000Y-62400000D03*
X144300000Y-59000000D03*
X145100000Y-62400000D03*
X145100000Y-59000000D03*
X145900000Y-62400000D03*
X145900000Y-59000000D03*
X149900000Y-62400000D03*
X149900000Y-59000000D03*
X150700000Y-62400000D03*
X150700000Y-59000000D03*
X151500000Y-62400000D03*
X151500000Y-59000000D03*
X152300000Y-62400000D03*
X152300000Y-59000000D03*
X153100000Y-62400000D03*
X153100000Y-59000000D03*
%TD*%
D10*
%TO.C,REF\u002A\u002A*%
X177700000Y-96700000D03*
D11*
X180050000Y-98200000D03*
X192650000Y-96700000D03*
D10*
X195000000Y-96700000D03*
D12*
X181550000Y-98400000D03*
X181550000Y-95000000D03*
X182350000Y-98400000D03*
X182350000Y-95000000D03*
X183150000Y-98400000D03*
X183150000Y-95000000D03*
X183950000Y-98400000D03*
X183950000Y-95000000D03*
X187950000Y-98400000D03*
X187950000Y-95000000D03*
X188750000Y-98400000D03*
X188750000Y-95000000D03*
X189550000Y-98400000D03*
X189550000Y-95000000D03*
X190350000Y-98400000D03*
X190350000Y-95000000D03*
X191150000Y-98400000D03*
X191150000Y-95000000D03*
%TD*%
D11*
%TO.C,REF\u002A\u002A*%
X132600000Y-83400000D03*
X194000000Y-84900000D03*
%TD*%
M02*
