%TF.GenerationSoftware,KiCad,Pcbnew,9.0.2*%
%TF.CreationDate,2025-10-09T17:26:02-07:00*%
%TF.ProjectId,CAEN-8ch-80mm,4341454e-2d38-4636-982d-38306d6d2e6b,rev?*%
%TF.SameCoordinates,Original*%
%TF.FileFunction,Legend,Top*%
%TF.FilePolarity,Positive*%
%FSLAX46Y46*%
G04 Gerber Fmt 4.6, Leading zero omitted, Abs format (unit mm)*
G04 Created by KiCad (PCBNEW 9.0.2) date 2025-10-09 17:26:02*
%MOMM*%
%LPD*%
G01*
G04 APERTURE LIST*
%ADD10C,0.150000*%
%ADD11C,0.050000*%
%ADD12C,0.100000*%
%ADD13C,0.120000*%
%ADD14C,0.127000*%
%ADD15C,0.200000*%
G04 APERTURE END LIST*
D10*
X141250000Y-83638152D02*
X141250000Y-84304819D01*
X141011905Y-83257200D02*
X140773810Y-83971485D01*
X140773810Y-83971485D02*
X141392857Y-83971485D01*
X141964286Y-83304819D02*
X142059524Y-83304819D01*
X142059524Y-83304819D02*
X142154762Y-83352438D01*
X142154762Y-83352438D02*
X142202381Y-83400057D01*
X142202381Y-83400057D02*
X142250000Y-83495295D01*
X142250000Y-83495295D02*
X142297619Y-83685771D01*
X142297619Y-83685771D02*
X142297619Y-83923866D01*
X142297619Y-83923866D02*
X142250000Y-84114342D01*
X142250000Y-84114342D02*
X142202381Y-84209580D01*
X142202381Y-84209580D02*
X142154762Y-84257200D01*
X142154762Y-84257200D02*
X142059524Y-84304819D01*
X142059524Y-84304819D02*
X141964286Y-84304819D01*
X141964286Y-84304819D02*
X141869048Y-84257200D01*
X141869048Y-84257200D02*
X141821429Y-84209580D01*
X141821429Y-84209580D02*
X141773810Y-84114342D01*
X141773810Y-84114342D02*
X141726191Y-83923866D01*
X141726191Y-83923866D02*
X141726191Y-83685771D01*
X141726191Y-83685771D02*
X141773810Y-83495295D01*
X141773810Y-83495295D02*
X141821429Y-83400057D01*
X141821429Y-83400057D02*
X141869048Y-83352438D01*
X141869048Y-83352438D02*
X141964286Y-83304819D01*
X143488096Y-84304819D02*
X143488096Y-83638152D01*
X143488096Y-83733390D02*
X143535715Y-83685771D01*
X143535715Y-83685771D02*
X143630953Y-83638152D01*
X143630953Y-83638152D02*
X143773810Y-83638152D01*
X143773810Y-83638152D02*
X143869048Y-83685771D01*
X143869048Y-83685771D02*
X143916667Y-83781009D01*
X143916667Y-83781009D02*
X143916667Y-84304819D01*
X143916667Y-83781009D02*
X143964286Y-83685771D01*
X143964286Y-83685771D02*
X144059524Y-83638152D01*
X144059524Y-83638152D02*
X144202381Y-83638152D01*
X144202381Y-83638152D02*
X144297620Y-83685771D01*
X144297620Y-83685771D02*
X144345239Y-83781009D01*
X144345239Y-83781009D02*
X144345239Y-84304819D01*
X144821429Y-84304819D02*
X144821429Y-83638152D01*
X144821429Y-83733390D02*
X144869048Y-83685771D01*
X144869048Y-83685771D02*
X144964286Y-83638152D01*
X144964286Y-83638152D02*
X145107143Y-83638152D01*
X145107143Y-83638152D02*
X145202381Y-83685771D01*
X145202381Y-83685771D02*
X145250000Y-83781009D01*
X145250000Y-83781009D02*
X145250000Y-84304819D01*
X145250000Y-83781009D02*
X145297619Y-83685771D01*
X145297619Y-83685771D02*
X145392857Y-83638152D01*
X145392857Y-83638152D02*
X145535714Y-83638152D01*
X145535714Y-83638152D02*
X145630953Y-83685771D01*
X145630953Y-83685771D02*
X145678572Y-83781009D01*
X145678572Y-83781009D02*
X145678572Y-84304819D01*
D11*
X163250000Y-85000000D02*
X163250000Y-85000000D01*
X123250000Y-85000000D02*
X123250000Y-85000000D01*
X163250000Y-85000000D02*
X123250000Y-85000000D01*
X163250000Y-85000000D02*
X162123496Y-85586421D01*
X163250000Y-85000000D02*
X162123496Y-84413579D01*
X123250000Y-85000000D02*
X124376504Y-84413579D01*
X123250000Y-85000000D02*
X124376504Y-85586421D01*
D12*
X131000000Y-85000000D02*
X195500000Y-85000000D01*
X193280074Y-63372419D02*
X192803884Y-63372419D01*
X192803884Y-63372419D02*
X192756265Y-63848609D01*
X192756265Y-63848609D02*
X192803884Y-63800990D01*
X192803884Y-63800990D02*
X192899122Y-63753371D01*
X192899122Y-63753371D02*
X193137217Y-63753371D01*
X193137217Y-63753371D02*
X193232455Y-63800990D01*
X193232455Y-63800990D02*
X193280074Y-63848609D01*
X193280074Y-63848609D02*
X193327693Y-63943847D01*
X193327693Y-63943847D02*
X193327693Y-64181942D01*
X193327693Y-64181942D02*
X193280074Y-64277180D01*
X193280074Y-64277180D02*
X193232455Y-64324800D01*
X193232455Y-64324800D02*
X193137217Y-64372419D01*
X193137217Y-64372419D02*
X192899122Y-64372419D01*
X192899122Y-64372419D02*
X192803884Y-64324800D01*
X192803884Y-64324800D02*
X192756265Y-64277180D01*
X126327693Y-77372419D02*
X125756265Y-77372419D01*
X126041979Y-77372419D02*
X126041979Y-76372419D01*
X126041979Y-76372419D02*
X125946741Y-76515276D01*
X125946741Y-76515276D02*
X125851503Y-76610514D01*
X125851503Y-76610514D02*
X125756265Y-76658133D01*
X132756265Y-63467657D02*
X132803884Y-63420038D01*
X132803884Y-63420038D02*
X132899122Y-63372419D01*
X132899122Y-63372419D02*
X133137217Y-63372419D01*
X133137217Y-63372419D02*
X133232455Y-63420038D01*
X133232455Y-63420038D02*
X133280074Y-63467657D01*
X133280074Y-63467657D02*
X133327693Y-63562895D01*
X133327693Y-63562895D02*
X133327693Y-63658133D01*
X133327693Y-63658133D02*
X133280074Y-63800990D01*
X133280074Y-63800990D02*
X132708646Y-64372419D01*
X132708646Y-64372419D02*
X133327693Y-64372419D01*
X153375312Y-55777180D02*
X153327693Y-55824800D01*
X153327693Y-55824800D02*
X153184836Y-55872419D01*
X153184836Y-55872419D02*
X153089598Y-55872419D01*
X153089598Y-55872419D02*
X152946741Y-55824800D01*
X152946741Y-55824800D02*
X152851503Y-55729561D01*
X152851503Y-55729561D02*
X152803884Y-55634323D01*
X152803884Y-55634323D02*
X152756265Y-55443847D01*
X152756265Y-55443847D02*
X152756265Y-55300990D01*
X152756265Y-55300990D02*
X152803884Y-55110514D01*
X152803884Y-55110514D02*
X152851503Y-55015276D01*
X152851503Y-55015276D02*
X152946741Y-54920038D01*
X152946741Y-54920038D02*
X153089598Y-54872419D01*
X153089598Y-54872419D02*
X153184836Y-54872419D01*
X153184836Y-54872419D02*
X153327693Y-54920038D01*
X153327693Y-54920038D02*
X153375312Y-54967657D01*
X153756265Y-55586704D02*
X154232455Y-55586704D01*
X153661027Y-55872419D02*
X153994360Y-54872419D01*
X153994360Y-54872419D02*
X154327693Y-55872419D01*
X154661027Y-55348609D02*
X154994360Y-55348609D01*
X155137217Y-55872419D02*
X154661027Y-55872419D01*
X154661027Y-55872419D02*
X154661027Y-54872419D01*
X154661027Y-54872419D02*
X155137217Y-54872419D01*
X155565789Y-55872419D02*
X155565789Y-54872419D01*
X155565789Y-54872419D02*
X156137217Y-55872419D01*
X156137217Y-55872419D02*
X156137217Y-54872419D01*
X157327694Y-55586704D02*
X157803884Y-55586704D01*
X157232456Y-55872419D02*
X157565789Y-54872419D01*
X157565789Y-54872419D02*
X157899122Y-55872419D01*
X158661027Y-55872419D02*
X158661027Y-54872419D01*
X158661027Y-55824800D02*
X158565789Y-55872419D01*
X158565789Y-55872419D02*
X158375313Y-55872419D01*
X158375313Y-55872419D02*
X158280075Y-55824800D01*
X158280075Y-55824800D02*
X158232456Y-55777180D01*
X158232456Y-55777180D02*
X158184837Y-55681942D01*
X158184837Y-55681942D02*
X158184837Y-55396228D01*
X158184837Y-55396228D02*
X158232456Y-55300990D01*
X158232456Y-55300990D02*
X158280075Y-55253371D01*
X158280075Y-55253371D02*
X158375313Y-55205752D01*
X158375313Y-55205752D02*
X158565789Y-55205752D01*
X158565789Y-55205752D02*
X158661027Y-55253371D01*
X159565789Y-55872419D02*
X159565789Y-55348609D01*
X159565789Y-55348609D02*
X159518170Y-55253371D01*
X159518170Y-55253371D02*
X159422932Y-55205752D01*
X159422932Y-55205752D02*
X159232456Y-55205752D01*
X159232456Y-55205752D02*
X159137218Y-55253371D01*
X159565789Y-55824800D02*
X159470551Y-55872419D01*
X159470551Y-55872419D02*
X159232456Y-55872419D01*
X159232456Y-55872419D02*
X159137218Y-55824800D01*
X159137218Y-55824800D02*
X159089599Y-55729561D01*
X159089599Y-55729561D02*
X159089599Y-55634323D01*
X159089599Y-55634323D02*
X159137218Y-55539085D01*
X159137218Y-55539085D02*
X159232456Y-55491466D01*
X159232456Y-55491466D02*
X159470551Y-55491466D01*
X159470551Y-55491466D02*
X159565789Y-55443847D01*
X160041980Y-55205752D02*
X160041980Y-56205752D01*
X160041980Y-55253371D02*
X160137218Y-55205752D01*
X160137218Y-55205752D02*
X160327694Y-55205752D01*
X160327694Y-55205752D02*
X160422932Y-55253371D01*
X160422932Y-55253371D02*
X160470551Y-55300990D01*
X160470551Y-55300990D02*
X160518170Y-55396228D01*
X160518170Y-55396228D02*
X160518170Y-55681942D01*
X160518170Y-55681942D02*
X160470551Y-55777180D01*
X160470551Y-55777180D02*
X160422932Y-55824800D01*
X160422932Y-55824800D02*
X160327694Y-55872419D01*
X160327694Y-55872419D02*
X160137218Y-55872419D01*
X160137218Y-55872419D02*
X160041980Y-55824800D01*
X160803885Y-55205752D02*
X161184837Y-55205752D01*
X160946742Y-54872419D02*
X160946742Y-55729561D01*
X160946742Y-55729561D02*
X160994361Y-55824800D01*
X160994361Y-55824800D02*
X161089599Y-55872419D01*
X161089599Y-55872419D02*
X161184837Y-55872419D01*
X161899123Y-55824800D02*
X161803885Y-55872419D01*
X161803885Y-55872419D02*
X161613409Y-55872419D01*
X161613409Y-55872419D02*
X161518171Y-55824800D01*
X161518171Y-55824800D02*
X161470552Y-55729561D01*
X161470552Y-55729561D02*
X161470552Y-55348609D01*
X161470552Y-55348609D02*
X161518171Y-55253371D01*
X161518171Y-55253371D02*
X161613409Y-55205752D01*
X161613409Y-55205752D02*
X161803885Y-55205752D01*
X161803885Y-55205752D02*
X161899123Y-55253371D01*
X161899123Y-55253371D02*
X161946742Y-55348609D01*
X161946742Y-55348609D02*
X161946742Y-55443847D01*
X161946742Y-55443847D02*
X161470552Y-55539085D01*
X162375314Y-55872419D02*
X162375314Y-55205752D01*
X162375314Y-55396228D02*
X162422933Y-55300990D01*
X162422933Y-55300990D02*
X162470552Y-55253371D01*
X162470552Y-55253371D02*
X162565790Y-55205752D01*
X162565790Y-55205752D02*
X162661028Y-55205752D01*
X163899124Y-55300990D02*
X163803886Y-55253371D01*
X163803886Y-55253371D02*
X163756267Y-55205752D01*
X163756267Y-55205752D02*
X163708648Y-55110514D01*
X163708648Y-55110514D02*
X163708648Y-55062895D01*
X163708648Y-55062895D02*
X163756267Y-54967657D01*
X163756267Y-54967657D02*
X163803886Y-54920038D01*
X163803886Y-54920038D02*
X163899124Y-54872419D01*
X163899124Y-54872419D02*
X164089600Y-54872419D01*
X164089600Y-54872419D02*
X164184838Y-54920038D01*
X164184838Y-54920038D02*
X164232457Y-54967657D01*
X164232457Y-54967657D02*
X164280076Y-55062895D01*
X164280076Y-55062895D02*
X164280076Y-55110514D01*
X164280076Y-55110514D02*
X164232457Y-55205752D01*
X164232457Y-55205752D02*
X164184838Y-55253371D01*
X164184838Y-55253371D02*
X164089600Y-55300990D01*
X164089600Y-55300990D02*
X163899124Y-55300990D01*
X163899124Y-55300990D02*
X163803886Y-55348609D01*
X163803886Y-55348609D02*
X163756267Y-55396228D01*
X163756267Y-55396228D02*
X163708648Y-55491466D01*
X163708648Y-55491466D02*
X163708648Y-55681942D01*
X163708648Y-55681942D02*
X163756267Y-55777180D01*
X163756267Y-55777180D02*
X163803886Y-55824800D01*
X163803886Y-55824800D02*
X163899124Y-55872419D01*
X163899124Y-55872419D02*
X164089600Y-55872419D01*
X164089600Y-55872419D02*
X164184838Y-55824800D01*
X164184838Y-55824800D02*
X164232457Y-55777180D01*
X164232457Y-55777180D02*
X164280076Y-55681942D01*
X164280076Y-55681942D02*
X164280076Y-55491466D01*
X164280076Y-55491466D02*
X164232457Y-55396228D01*
X164232457Y-55396228D02*
X164184838Y-55348609D01*
X164184838Y-55348609D02*
X164089600Y-55300990D01*
X165137219Y-55824800D02*
X165041981Y-55872419D01*
X165041981Y-55872419D02*
X164851505Y-55872419D01*
X164851505Y-55872419D02*
X164756267Y-55824800D01*
X164756267Y-55824800D02*
X164708648Y-55777180D01*
X164708648Y-55777180D02*
X164661029Y-55681942D01*
X164661029Y-55681942D02*
X164661029Y-55396228D01*
X164661029Y-55396228D02*
X164708648Y-55300990D01*
X164708648Y-55300990D02*
X164756267Y-55253371D01*
X164756267Y-55253371D02*
X164851505Y-55205752D01*
X164851505Y-55205752D02*
X165041981Y-55205752D01*
X165041981Y-55205752D02*
X165137219Y-55253371D01*
X165565791Y-55872419D02*
X165565791Y-54872419D01*
X165994362Y-55872419D02*
X165994362Y-55348609D01*
X165994362Y-55348609D02*
X165946743Y-55253371D01*
X165946743Y-55253371D02*
X165851505Y-55205752D01*
X165851505Y-55205752D02*
X165708648Y-55205752D01*
X165708648Y-55205752D02*
X165613410Y-55253371D01*
X165613410Y-55253371D02*
X165565791Y-55300990D01*
X167375315Y-55300990D02*
X167280077Y-55253371D01*
X167280077Y-55253371D02*
X167232458Y-55205752D01*
X167232458Y-55205752D02*
X167184839Y-55110514D01*
X167184839Y-55110514D02*
X167184839Y-55062895D01*
X167184839Y-55062895D02*
X167232458Y-54967657D01*
X167232458Y-54967657D02*
X167280077Y-54920038D01*
X167280077Y-54920038D02*
X167375315Y-54872419D01*
X167375315Y-54872419D02*
X167565791Y-54872419D01*
X167565791Y-54872419D02*
X167661029Y-54920038D01*
X167661029Y-54920038D02*
X167708648Y-54967657D01*
X167708648Y-54967657D02*
X167756267Y-55062895D01*
X167756267Y-55062895D02*
X167756267Y-55110514D01*
X167756267Y-55110514D02*
X167708648Y-55205752D01*
X167708648Y-55205752D02*
X167661029Y-55253371D01*
X167661029Y-55253371D02*
X167565791Y-55300990D01*
X167565791Y-55300990D02*
X167375315Y-55300990D01*
X167375315Y-55300990D02*
X167280077Y-55348609D01*
X167280077Y-55348609D02*
X167232458Y-55396228D01*
X167232458Y-55396228D02*
X167184839Y-55491466D01*
X167184839Y-55491466D02*
X167184839Y-55681942D01*
X167184839Y-55681942D02*
X167232458Y-55777180D01*
X167232458Y-55777180D02*
X167280077Y-55824800D01*
X167280077Y-55824800D02*
X167375315Y-55872419D01*
X167375315Y-55872419D02*
X167565791Y-55872419D01*
X167565791Y-55872419D02*
X167661029Y-55824800D01*
X167661029Y-55824800D02*
X167708648Y-55777180D01*
X167708648Y-55777180D02*
X167756267Y-55681942D01*
X167756267Y-55681942D02*
X167756267Y-55491466D01*
X167756267Y-55491466D02*
X167708648Y-55396228D01*
X167708648Y-55396228D02*
X167661029Y-55348609D01*
X167661029Y-55348609D02*
X167565791Y-55300990D01*
X168375315Y-54872419D02*
X168470553Y-54872419D01*
X168470553Y-54872419D02*
X168565791Y-54920038D01*
X168565791Y-54920038D02*
X168613410Y-54967657D01*
X168613410Y-54967657D02*
X168661029Y-55062895D01*
X168661029Y-55062895D02*
X168708648Y-55253371D01*
X168708648Y-55253371D02*
X168708648Y-55491466D01*
X168708648Y-55491466D02*
X168661029Y-55681942D01*
X168661029Y-55681942D02*
X168613410Y-55777180D01*
X168613410Y-55777180D02*
X168565791Y-55824800D01*
X168565791Y-55824800D02*
X168470553Y-55872419D01*
X168470553Y-55872419D02*
X168375315Y-55872419D01*
X168375315Y-55872419D02*
X168280077Y-55824800D01*
X168280077Y-55824800D02*
X168232458Y-55777180D01*
X168232458Y-55777180D02*
X168184839Y-55681942D01*
X168184839Y-55681942D02*
X168137220Y-55491466D01*
X168137220Y-55491466D02*
X168137220Y-55253371D01*
X168137220Y-55253371D02*
X168184839Y-55062895D01*
X168184839Y-55062895D02*
X168232458Y-54967657D01*
X168232458Y-54967657D02*
X168280077Y-54920038D01*
X168280077Y-54920038D02*
X168375315Y-54872419D01*
X169137220Y-55872419D02*
X169137220Y-55205752D01*
X169137220Y-55300990D02*
X169184839Y-55253371D01*
X169184839Y-55253371D02*
X169280077Y-55205752D01*
X169280077Y-55205752D02*
X169422934Y-55205752D01*
X169422934Y-55205752D02*
X169518172Y-55253371D01*
X169518172Y-55253371D02*
X169565791Y-55348609D01*
X169565791Y-55348609D02*
X169565791Y-55872419D01*
X169565791Y-55348609D02*
X169613410Y-55253371D01*
X169613410Y-55253371D02*
X169708648Y-55205752D01*
X169708648Y-55205752D02*
X169851505Y-55205752D01*
X169851505Y-55205752D02*
X169946744Y-55253371D01*
X169946744Y-55253371D02*
X169994363Y-55348609D01*
X169994363Y-55348609D02*
X169994363Y-55872419D01*
X170470553Y-55872419D02*
X170470553Y-55205752D01*
X170470553Y-55300990D02*
X170518172Y-55253371D01*
X170518172Y-55253371D02*
X170613410Y-55205752D01*
X170613410Y-55205752D02*
X170756267Y-55205752D01*
X170756267Y-55205752D02*
X170851505Y-55253371D01*
X170851505Y-55253371D02*
X170899124Y-55348609D01*
X170899124Y-55348609D02*
X170899124Y-55872419D01*
X170899124Y-55348609D02*
X170946743Y-55253371D01*
X170946743Y-55253371D02*
X171041981Y-55205752D01*
X171041981Y-55205752D02*
X171184838Y-55205752D01*
X171184838Y-55205752D02*
X171280077Y-55253371D01*
X171280077Y-55253371D02*
X171327696Y-55348609D01*
X171327696Y-55348609D02*
X171327696Y-55872419D01*
X172470553Y-55205752D02*
X172708648Y-55872419D01*
X172708648Y-55872419D02*
X172946743Y-55205752D01*
X173851505Y-55872419D02*
X173280077Y-55872419D01*
X173565791Y-55872419D02*
X173565791Y-54872419D01*
X173565791Y-54872419D02*
X173470553Y-55015276D01*
X173470553Y-55015276D02*
X173375315Y-55110514D01*
X173375315Y-55110514D02*
X173280077Y-55158133D01*
X200946741Y-93800990D02*
X200851503Y-93753371D01*
X200851503Y-93753371D02*
X200803884Y-93705752D01*
X200803884Y-93705752D02*
X200756265Y-93610514D01*
X200756265Y-93610514D02*
X200756265Y-93562895D01*
X200756265Y-93562895D02*
X200803884Y-93467657D01*
X200803884Y-93467657D02*
X200851503Y-93420038D01*
X200851503Y-93420038D02*
X200946741Y-93372419D01*
X200946741Y-93372419D02*
X201137217Y-93372419D01*
X201137217Y-93372419D02*
X201232455Y-93420038D01*
X201232455Y-93420038D02*
X201280074Y-93467657D01*
X201280074Y-93467657D02*
X201327693Y-93562895D01*
X201327693Y-93562895D02*
X201327693Y-93610514D01*
X201327693Y-93610514D02*
X201280074Y-93705752D01*
X201280074Y-93705752D02*
X201232455Y-93753371D01*
X201232455Y-93753371D02*
X201137217Y-93800990D01*
X201137217Y-93800990D02*
X200946741Y-93800990D01*
X200946741Y-93800990D02*
X200851503Y-93848609D01*
X200851503Y-93848609D02*
X200803884Y-93896228D01*
X200803884Y-93896228D02*
X200756265Y-93991466D01*
X200756265Y-93991466D02*
X200756265Y-94181942D01*
X200756265Y-94181942D02*
X200803884Y-94277180D01*
X200803884Y-94277180D02*
X200851503Y-94324800D01*
X200851503Y-94324800D02*
X200946741Y-94372419D01*
X200946741Y-94372419D02*
X201137217Y-94372419D01*
X201137217Y-94372419D02*
X201232455Y-94324800D01*
X201232455Y-94324800D02*
X201280074Y-94277180D01*
X201280074Y-94277180D02*
X201327693Y-94181942D01*
X201327693Y-94181942D02*
X201327693Y-93991466D01*
X201327693Y-93991466D02*
X201280074Y-93896228D01*
X201280074Y-93896228D02*
X201232455Y-93848609D01*
X201232455Y-93848609D02*
X201137217Y-93800990D01*
X193708646Y-105372419D02*
X194375312Y-105372419D01*
X194375312Y-105372419D02*
X193946741Y-106372419D01*
X133732455Y-105705752D02*
X133732455Y-106372419D01*
X133494360Y-105324800D02*
X133256265Y-106039085D01*
X133256265Y-106039085D02*
X133875312Y-106039085D01*
X152803884Y-113872419D02*
X152803884Y-112872419D01*
X152803884Y-113348609D02*
X153375312Y-113348609D01*
X153375312Y-113872419D02*
X153375312Y-112872419D01*
X153803884Y-113824800D02*
X153946741Y-113872419D01*
X153946741Y-113872419D02*
X154184836Y-113872419D01*
X154184836Y-113872419D02*
X154280074Y-113824800D01*
X154280074Y-113824800D02*
X154327693Y-113777180D01*
X154327693Y-113777180D02*
X154375312Y-113681942D01*
X154375312Y-113681942D02*
X154375312Y-113586704D01*
X154375312Y-113586704D02*
X154327693Y-113491466D01*
X154327693Y-113491466D02*
X154280074Y-113443847D01*
X154280074Y-113443847D02*
X154184836Y-113396228D01*
X154184836Y-113396228D02*
X153994360Y-113348609D01*
X153994360Y-113348609D02*
X153899122Y-113300990D01*
X153899122Y-113300990D02*
X153851503Y-113253371D01*
X153851503Y-113253371D02*
X153803884Y-113158133D01*
X153803884Y-113158133D02*
X153803884Y-113062895D01*
X153803884Y-113062895D02*
X153851503Y-112967657D01*
X153851503Y-112967657D02*
X153899122Y-112920038D01*
X153899122Y-112920038D02*
X153994360Y-112872419D01*
X153994360Y-112872419D02*
X154232455Y-112872419D01*
X154232455Y-112872419D02*
X154375312Y-112920038D01*
X154803884Y-113348609D02*
X155137217Y-113348609D01*
X155280074Y-113872419D02*
X154803884Y-113872419D01*
X154803884Y-113872419D02*
X154803884Y-112872419D01*
X154803884Y-112872419D02*
X155280074Y-112872419D01*
X156280074Y-113777180D02*
X156232455Y-113824800D01*
X156232455Y-113824800D02*
X156089598Y-113872419D01*
X156089598Y-113872419D02*
X155994360Y-113872419D01*
X155994360Y-113872419D02*
X155851503Y-113824800D01*
X155851503Y-113824800D02*
X155756265Y-113729561D01*
X155756265Y-113729561D02*
X155708646Y-113634323D01*
X155708646Y-113634323D02*
X155661027Y-113443847D01*
X155661027Y-113443847D02*
X155661027Y-113300990D01*
X155661027Y-113300990D02*
X155708646Y-113110514D01*
X155708646Y-113110514D02*
X155756265Y-113015276D01*
X155756265Y-113015276D02*
X155851503Y-112920038D01*
X155851503Y-112920038D02*
X155994360Y-112872419D01*
X155994360Y-112872419D02*
X156089598Y-112872419D01*
X156089598Y-112872419D02*
X156232455Y-112920038D01*
X156232455Y-112920038D02*
X156280074Y-112967657D01*
X156851503Y-113300990D02*
X156756265Y-113253371D01*
X156756265Y-113253371D02*
X156708646Y-113205752D01*
X156708646Y-113205752D02*
X156661027Y-113110514D01*
X156661027Y-113110514D02*
X156661027Y-113062895D01*
X156661027Y-113062895D02*
X156708646Y-112967657D01*
X156708646Y-112967657D02*
X156756265Y-112920038D01*
X156756265Y-112920038D02*
X156851503Y-112872419D01*
X156851503Y-112872419D02*
X157041979Y-112872419D01*
X157041979Y-112872419D02*
X157137217Y-112920038D01*
X157137217Y-112920038D02*
X157184836Y-112967657D01*
X157184836Y-112967657D02*
X157232455Y-113062895D01*
X157232455Y-113062895D02*
X157232455Y-113110514D01*
X157232455Y-113110514D02*
X157184836Y-113205752D01*
X157184836Y-113205752D02*
X157137217Y-113253371D01*
X157137217Y-113253371D02*
X157041979Y-113300990D01*
X157041979Y-113300990D02*
X156851503Y-113300990D01*
X156851503Y-113300990D02*
X156756265Y-113348609D01*
X156756265Y-113348609D02*
X156708646Y-113396228D01*
X156708646Y-113396228D02*
X156661027Y-113491466D01*
X156661027Y-113491466D02*
X156661027Y-113681942D01*
X156661027Y-113681942D02*
X156708646Y-113777180D01*
X156708646Y-113777180D02*
X156756265Y-113824800D01*
X156756265Y-113824800D02*
X156851503Y-113872419D01*
X156851503Y-113872419D02*
X157041979Y-113872419D01*
X157041979Y-113872419D02*
X157137217Y-113824800D01*
X157137217Y-113824800D02*
X157184836Y-113777180D01*
X157184836Y-113777180D02*
X157232455Y-113681942D01*
X157232455Y-113681942D02*
X157232455Y-113491466D01*
X157232455Y-113491466D02*
X157184836Y-113396228D01*
X157184836Y-113396228D02*
X157137217Y-113348609D01*
X157137217Y-113348609D02*
X157041979Y-113300990D01*
X157661027Y-113491466D02*
X158422932Y-113491466D01*
X159422931Y-113872419D02*
X158851503Y-113872419D01*
X159137217Y-113872419D02*
X159137217Y-112872419D01*
X159137217Y-112872419D02*
X159041979Y-113015276D01*
X159041979Y-113015276D02*
X158946741Y-113110514D01*
X158946741Y-113110514D02*
X158851503Y-113158133D01*
X160041979Y-112872419D02*
X160137217Y-112872419D01*
X160137217Y-112872419D02*
X160232455Y-112920038D01*
X160232455Y-112920038D02*
X160280074Y-112967657D01*
X160280074Y-112967657D02*
X160327693Y-113062895D01*
X160327693Y-113062895D02*
X160375312Y-113253371D01*
X160375312Y-113253371D02*
X160375312Y-113491466D01*
X160375312Y-113491466D02*
X160327693Y-113681942D01*
X160327693Y-113681942D02*
X160280074Y-113777180D01*
X160280074Y-113777180D02*
X160232455Y-113824800D01*
X160232455Y-113824800D02*
X160137217Y-113872419D01*
X160137217Y-113872419D02*
X160041979Y-113872419D01*
X160041979Y-113872419D02*
X159946741Y-113824800D01*
X159946741Y-113824800D02*
X159899122Y-113777180D01*
X159899122Y-113777180D02*
X159851503Y-113681942D01*
X159851503Y-113681942D02*
X159803884Y-113491466D01*
X159803884Y-113491466D02*
X159803884Y-113253371D01*
X159803884Y-113253371D02*
X159851503Y-113062895D01*
X159851503Y-113062895D02*
X159899122Y-112967657D01*
X159899122Y-112967657D02*
X159946741Y-112920038D01*
X159946741Y-112920038D02*
X160041979Y-112872419D01*
X160851503Y-113872419D02*
X161041979Y-113872419D01*
X161041979Y-113872419D02*
X161137217Y-113824800D01*
X161137217Y-113824800D02*
X161184836Y-113777180D01*
X161184836Y-113777180D02*
X161280074Y-113634323D01*
X161280074Y-113634323D02*
X161327693Y-113443847D01*
X161327693Y-113443847D02*
X161327693Y-113062895D01*
X161327693Y-113062895D02*
X161280074Y-112967657D01*
X161280074Y-112967657D02*
X161232455Y-112920038D01*
X161232455Y-112920038D02*
X161137217Y-112872419D01*
X161137217Y-112872419D02*
X160946741Y-112872419D01*
X160946741Y-112872419D02*
X160851503Y-112920038D01*
X160851503Y-112920038D02*
X160803884Y-112967657D01*
X160803884Y-112967657D02*
X160756265Y-113062895D01*
X160756265Y-113062895D02*
X160756265Y-113300990D01*
X160756265Y-113300990D02*
X160803884Y-113396228D01*
X160803884Y-113396228D02*
X160851503Y-113443847D01*
X160851503Y-113443847D02*
X160946741Y-113491466D01*
X160946741Y-113491466D02*
X161137217Y-113491466D01*
X161137217Y-113491466D02*
X161232455Y-113443847D01*
X161232455Y-113443847D02*
X161280074Y-113396228D01*
X161280074Y-113396228D02*
X161327693Y-113300990D01*
X161756265Y-113491466D02*
X162518170Y-113491466D01*
X163184836Y-112872419D02*
X163280074Y-112872419D01*
X163280074Y-112872419D02*
X163375312Y-112920038D01*
X163375312Y-112920038D02*
X163422931Y-112967657D01*
X163422931Y-112967657D02*
X163470550Y-113062895D01*
X163470550Y-113062895D02*
X163518169Y-113253371D01*
X163518169Y-113253371D02*
X163518169Y-113491466D01*
X163518169Y-113491466D02*
X163470550Y-113681942D01*
X163470550Y-113681942D02*
X163422931Y-113777180D01*
X163422931Y-113777180D02*
X163375312Y-113824800D01*
X163375312Y-113824800D02*
X163280074Y-113872419D01*
X163280074Y-113872419D02*
X163184836Y-113872419D01*
X163184836Y-113872419D02*
X163089598Y-113824800D01*
X163089598Y-113824800D02*
X163041979Y-113777180D01*
X163041979Y-113777180D02*
X162994360Y-113681942D01*
X162994360Y-113681942D02*
X162946741Y-113491466D01*
X162946741Y-113491466D02*
X162946741Y-113253371D01*
X162946741Y-113253371D02*
X162994360Y-113062895D01*
X162994360Y-113062895D02*
X163041979Y-112967657D01*
X163041979Y-112967657D02*
X163089598Y-112920038D01*
X163089598Y-112920038D02*
X163184836Y-112872419D01*
X164470550Y-113872419D02*
X163899122Y-113872419D01*
X164184836Y-113872419D02*
X164184836Y-112872419D01*
X164184836Y-112872419D02*
X164089598Y-113015276D01*
X164089598Y-113015276D02*
X163994360Y-113110514D01*
X163994360Y-113110514D02*
X163899122Y-113158133D01*
X164899122Y-113491466D02*
X165661027Y-113491466D01*
X166613407Y-113872419D02*
X166137217Y-113872419D01*
X166137217Y-113872419D02*
X166137217Y-112872419D01*
X166946741Y-113491466D02*
X167708646Y-113491466D01*
X168184836Y-113872419D02*
X168184836Y-112872419D01*
X168184836Y-112872419D02*
X168422931Y-112872419D01*
X168422931Y-112872419D02*
X168565788Y-112920038D01*
X168565788Y-112920038D02*
X168661026Y-113015276D01*
X168661026Y-113015276D02*
X168708645Y-113110514D01*
X168708645Y-113110514D02*
X168756264Y-113300990D01*
X168756264Y-113300990D02*
X168756264Y-113443847D01*
X168756264Y-113443847D02*
X168708645Y-113634323D01*
X168708645Y-113634323D02*
X168661026Y-113729561D01*
X168661026Y-113729561D02*
X168565788Y-113824800D01*
X168565788Y-113824800D02*
X168422931Y-113872419D01*
X168422931Y-113872419D02*
X168184836Y-113872419D01*
X169041979Y-112872419D02*
X169375312Y-113872419D01*
X169375312Y-113872419D02*
X169708645Y-112872419D01*
X170041979Y-113491466D02*
X170803884Y-113491466D01*
X171232455Y-113586704D02*
X171708645Y-113586704D01*
X171137217Y-113872419D02*
X171470550Y-112872419D01*
X171470550Y-112872419D02*
X171803883Y-113872419D01*
X172137217Y-113491466D02*
X172899122Y-113491466D01*
X173708645Y-113348609D02*
X173851502Y-113396228D01*
X173851502Y-113396228D02*
X173899121Y-113443847D01*
X173899121Y-113443847D02*
X173946740Y-113539085D01*
X173946740Y-113539085D02*
X173946740Y-113681942D01*
X173946740Y-113681942D02*
X173899121Y-113777180D01*
X173899121Y-113777180D02*
X173851502Y-113824800D01*
X173851502Y-113824800D02*
X173756264Y-113872419D01*
X173756264Y-113872419D02*
X173375312Y-113872419D01*
X173375312Y-113872419D02*
X173375312Y-112872419D01*
X173375312Y-112872419D02*
X173708645Y-112872419D01*
X173708645Y-112872419D02*
X173803883Y-112920038D01*
X173803883Y-112920038D02*
X173851502Y-112967657D01*
X173851502Y-112967657D02*
X173899121Y-113062895D01*
X173899121Y-113062895D02*
X173899121Y-113158133D01*
X173899121Y-113158133D02*
X173851502Y-113253371D01*
X173851502Y-113253371D02*
X173803883Y-113300990D01*
X173803883Y-113300990D02*
X173708645Y-113348609D01*
X173708645Y-113348609D02*
X173375312Y-113348609D01*
X174851502Y-113872419D02*
X174375312Y-113872419D01*
X174375312Y-113872419D02*
X174375312Y-112872419D01*
X125708646Y-92872419D02*
X126327693Y-92872419D01*
X126327693Y-92872419D02*
X125994360Y-93253371D01*
X125994360Y-93253371D02*
X126137217Y-93253371D01*
X126137217Y-93253371D02*
X126232455Y-93300990D01*
X126232455Y-93300990D02*
X126280074Y-93348609D01*
X126280074Y-93348609D02*
X126327693Y-93443847D01*
X126327693Y-93443847D02*
X126327693Y-93681942D01*
X126327693Y-93681942D02*
X126280074Y-93777180D01*
X126280074Y-93777180D02*
X126232455Y-93824800D01*
X126232455Y-93824800D02*
X126137217Y-93872419D01*
X126137217Y-93872419D02*
X125851503Y-93872419D01*
X125851503Y-93872419D02*
X125756265Y-93824800D01*
X125756265Y-93824800D02*
X125708646Y-93777180D01*
X201232455Y-75872419D02*
X201041979Y-75872419D01*
X201041979Y-75872419D02*
X200946741Y-75920038D01*
X200946741Y-75920038D02*
X200899122Y-75967657D01*
X200899122Y-75967657D02*
X200803884Y-76110514D01*
X200803884Y-76110514D02*
X200756265Y-76300990D01*
X200756265Y-76300990D02*
X200756265Y-76681942D01*
X200756265Y-76681942D02*
X200803884Y-76777180D01*
X200803884Y-76777180D02*
X200851503Y-76824800D01*
X200851503Y-76824800D02*
X200946741Y-76872419D01*
X200946741Y-76872419D02*
X201137217Y-76872419D01*
X201137217Y-76872419D02*
X201232455Y-76824800D01*
X201232455Y-76824800D02*
X201280074Y-76777180D01*
X201280074Y-76777180D02*
X201327693Y-76681942D01*
X201327693Y-76681942D02*
X201327693Y-76443847D01*
X201327693Y-76443847D02*
X201280074Y-76348609D01*
X201280074Y-76348609D02*
X201232455Y-76300990D01*
X201232455Y-76300990D02*
X201137217Y-76253371D01*
X201137217Y-76253371D02*
X200946741Y-76253371D01*
X200946741Y-76253371D02*
X200851503Y-76300990D01*
X200851503Y-76300990D02*
X200803884Y-76348609D01*
X200803884Y-76348609D02*
X200756265Y-76443847D01*
D13*
%TO.C,REF\u002A\u002A*%
X164665000Y-57090000D02*
X172510000Y-57090000D01*
X164665000Y-62945563D02*
X164665000Y-57090000D01*
X166029437Y-64310000D02*
X164665000Y-62945563D01*
X172510000Y-57090000D02*
X172510000Y-57790000D01*
X172510000Y-57790000D02*
X183290000Y-57790000D01*
X172510000Y-63610000D02*
X172510000Y-64310000D01*
X172510000Y-64310000D02*
X166029437Y-64310000D01*
X183290000Y-57090000D02*
X191135000Y-57090000D01*
X183290000Y-57790000D02*
X183290000Y-57090000D01*
X183290000Y-63610000D02*
X172510000Y-63610000D01*
X183290000Y-64310000D02*
X183290000Y-63610000D01*
X191135000Y-57090000D02*
X191135000Y-64310000D01*
X191135000Y-64310000D02*
X183290000Y-64310000D01*
X173350000Y-64100000D02*
G75*
G02*
X172850000Y-64100000I-250000J0D01*
G01*
X172850000Y-64100000D02*
G75*
G02*
X173350000Y-64100000I250000J0D01*
G01*
X134665000Y-105090000D02*
X142510000Y-105090000D01*
X134665000Y-110945563D02*
X134665000Y-105090000D01*
X136029437Y-112310000D02*
X134665000Y-110945563D01*
X142510000Y-105090000D02*
X142510000Y-105790000D01*
X142510000Y-105790000D02*
X153290000Y-105790000D01*
X142510000Y-111610000D02*
X142510000Y-112310000D01*
X142510000Y-112310000D02*
X136029437Y-112310000D01*
X153290000Y-105090000D02*
X161135000Y-105090000D01*
X153290000Y-105790000D02*
X153290000Y-105090000D01*
X153290000Y-111610000D02*
X142510000Y-111610000D01*
X153290000Y-112310000D02*
X153290000Y-111610000D01*
X161135000Y-105090000D02*
X161135000Y-112310000D01*
X161135000Y-112310000D02*
X153290000Y-112310000D01*
X143350000Y-112100000D02*
G75*
G02*
X142850000Y-112100000I-250000J0D01*
G01*
X142850000Y-112100000D02*
G75*
G02*
X143350000Y-112100000I250000J0D01*
G01*
X127115000Y-69390000D02*
X134960000Y-69390000D01*
X127115000Y-75245563D02*
X127115000Y-69390000D01*
X128479437Y-76610000D02*
X127115000Y-75245563D01*
X134960000Y-69390000D02*
X134960000Y-70090000D01*
X134960000Y-70090000D02*
X145740000Y-70090000D01*
X134960000Y-75910000D02*
X134960000Y-76610000D01*
X134960000Y-76610000D02*
X128479437Y-76610000D01*
X145740000Y-69390000D02*
X153585000Y-69390000D01*
X145740000Y-70090000D02*
X145740000Y-69390000D01*
X145740000Y-75910000D02*
X134960000Y-75910000D01*
X145740000Y-76610000D02*
X145740000Y-75910000D01*
X153585000Y-69390000D02*
X153585000Y-76610000D01*
X153585000Y-76610000D02*
X145740000Y-76610000D01*
X135800000Y-76400000D02*
G75*
G02*
X135300000Y-76400000I-250000J0D01*
G01*
X135300000Y-76400000D02*
G75*
G02*
X135800000Y-76400000I250000J0D01*
G01*
X127365000Y-93090000D02*
X135210000Y-93090000D01*
X127365000Y-98945563D02*
X127365000Y-93090000D01*
X128729437Y-100310000D02*
X127365000Y-98945563D01*
X135210000Y-93090000D02*
X135210000Y-93790000D01*
X135210000Y-93790000D02*
X145990000Y-93790000D01*
X135210000Y-99610000D02*
X135210000Y-100310000D01*
X135210000Y-100310000D02*
X128729437Y-100310000D01*
X145990000Y-93090000D02*
X153835000Y-93090000D01*
X145990000Y-93790000D02*
X145990000Y-93090000D01*
X145990000Y-99610000D02*
X135210000Y-99610000D01*
X145990000Y-100310000D02*
X145990000Y-99610000D01*
X153835000Y-93090000D02*
X153835000Y-100310000D01*
X153835000Y-100310000D02*
X145990000Y-100310000D01*
X136050000Y-100100000D02*
G75*
G02*
X135550000Y-100100000I-250000J0D01*
G01*
X135550000Y-100100000D02*
G75*
G02*
X136050000Y-100100000I250000J0D01*
G01*
X165565000Y-105090000D02*
X173410000Y-105090000D01*
X165565000Y-110945563D02*
X165565000Y-105090000D01*
X166929437Y-112310000D02*
X165565000Y-110945563D01*
X173410000Y-105090000D02*
X173410000Y-105790000D01*
X173410000Y-105790000D02*
X184190000Y-105790000D01*
X173410000Y-111610000D02*
X173410000Y-112310000D01*
X173410000Y-112310000D02*
X166929437Y-112310000D01*
X184190000Y-105090000D02*
X192035000Y-105090000D01*
X184190000Y-105790000D02*
X184190000Y-105090000D01*
X184190000Y-111610000D02*
X173410000Y-111610000D01*
X184190000Y-112310000D02*
X184190000Y-111610000D01*
X192035000Y-105090000D02*
X192035000Y-112310000D01*
X192035000Y-112310000D02*
X184190000Y-112310000D01*
X174250000Y-112100000D02*
G75*
G02*
X173750000Y-112100000I-250000J0D01*
G01*
X173750000Y-112100000D02*
G75*
G02*
X174250000Y-112100000I250000J0D01*
G01*
D14*
X196630000Y-79706000D02*
X202065000Y-79706000D01*
X196630000Y-90374000D02*
X196630000Y-79706000D01*
X202065000Y-79706000D02*
X202065000Y-90374000D01*
X202065000Y-90374000D02*
X196630000Y-90374000D01*
D15*
X195730000Y-87580000D02*
G75*
G02*
X195530000Y-87580000I-100000J0D01*
G01*
X195530000Y-87580000D02*
G75*
G02*
X195730000Y-87580000I100000J0D01*
G01*
D13*
X172665000Y-69590000D02*
X180510000Y-69590000D01*
X172665000Y-75445563D02*
X172665000Y-69590000D01*
X174029437Y-76810000D02*
X172665000Y-75445563D01*
X180510000Y-69590000D02*
X180510000Y-70290000D01*
X180510000Y-70290000D02*
X191290000Y-70290000D01*
X180510000Y-76110000D02*
X180510000Y-76810000D01*
X180510000Y-76810000D02*
X174029437Y-76810000D01*
X191290000Y-69590000D02*
X199135000Y-69590000D01*
X191290000Y-70290000D02*
X191290000Y-69590000D01*
X191290000Y-76110000D02*
X180510000Y-76110000D01*
X191290000Y-76810000D02*
X191290000Y-76110000D01*
X199135000Y-69590000D02*
X199135000Y-76810000D01*
X199135000Y-76810000D02*
X191290000Y-76810000D01*
X181350000Y-76600000D02*
G75*
G02*
X180850000Y-76600000I-250000J0D01*
G01*
X180850000Y-76600000D02*
G75*
G02*
X181350000Y-76600000I250000J0D01*
G01*
X135065000Y-57090000D02*
X142910000Y-57090000D01*
X135065000Y-62945563D02*
X135065000Y-57090000D01*
X136429437Y-64310000D02*
X135065000Y-62945563D01*
X142910000Y-57090000D02*
X142910000Y-57790000D01*
X142910000Y-57790000D02*
X153690000Y-57790000D01*
X142910000Y-63610000D02*
X142910000Y-64310000D01*
X142910000Y-64310000D02*
X136429437Y-64310000D01*
X153690000Y-57090000D02*
X161535000Y-57090000D01*
X153690000Y-57790000D02*
X153690000Y-57090000D01*
X153690000Y-63610000D02*
X142910000Y-63610000D01*
X153690000Y-64310000D02*
X153690000Y-63610000D01*
X161535000Y-57090000D02*
X161535000Y-64310000D01*
X161535000Y-64310000D02*
X153690000Y-64310000D01*
X143750000Y-64100000D02*
G75*
G02*
X143250000Y-64100000I-250000J0D01*
G01*
X143250000Y-64100000D02*
G75*
G02*
X143750000Y-64100000I250000J0D01*
G01*
X173115000Y-93090000D02*
X180960000Y-93090000D01*
X173115000Y-98945563D02*
X173115000Y-93090000D01*
X174479437Y-100310000D02*
X173115000Y-98945563D01*
X180960000Y-93090000D02*
X180960000Y-93790000D01*
X180960000Y-93790000D02*
X191740000Y-93790000D01*
X180960000Y-99610000D02*
X180960000Y-100310000D01*
X180960000Y-100310000D02*
X174479437Y-100310000D01*
X191740000Y-93090000D02*
X199585000Y-93090000D01*
X191740000Y-93790000D02*
X191740000Y-93090000D01*
X191740000Y-99610000D02*
X180960000Y-99610000D01*
X191740000Y-100310000D02*
X191740000Y-99610000D01*
X199585000Y-93090000D02*
X199585000Y-100310000D01*
X199585000Y-100310000D02*
X191740000Y-100310000D01*
X181800000Y-100100000D02*
G75*
G02*
X181300000Y-100100000I-250000J0D01*
G01*
X181300000Y-100100000D02*
G75*
G02*
X181800000Y-100100000I250000J0D01*
G01*
%TD*%
M02*
