%TF.GenerationSoftware,KiCad,Pcbnew,9.0.2*%
%TF.CreationDate,2025-09-26T16:08:25-07:00*%
%TF.ProjectId,CAEN-8ch-Old-Circle,4341454e-2d38-4636-982d-4f6c642d4369,rev?*%
%TF.SameCoordinates,Original*%
%TF.FileFunction,Legend,Top*%
%TF.FilePolarity,Positive*%
%FSLAX46Y46*%
G04 Gerber Fmt 4.6, Leading zero omitted, Abs format (unit mm)*
G04 Created by KiCad (PCBNEW 9.0.2) date 2025-09-26 16:08:25*
%MOMM*%
%LPD*%
G01*
G04 APERTURE LIST*
%ADD10C,0.100000*%
%ADD11C,0.150000*%
%ADD12C,0.200000*%
%ADD13C,0.127000*%
G04 APERTURE END LIST*
D10*
X182708646Y-123372419D02*
X183375312Y-123372419D01*
X183375312Y-123372419D02*
X182946741Y-124372419D01*
X176025074Y-45372419D02*
X175548884Y-45372419D01*
X175548884Y-45372419D02*
X175501265Y-45848609D01*
X175501265Y-45848609D02*
X175548884Y-45800990D01*
X175548884Y-45800990D02*
X175644122Y-45753371D01*
X175644122Y-45753371D02*
X175882217Y-45753371D01*
X175882217Y-45753371D02*
X175977455Y-45800990D01*
X175977455Y-45800990D02*
X176025074Y-45848609D01*
X176025074Y-45848609D02*
X176072693Y-45943847D01*
X176072693Y-45943847D02*
X176072693Y-46181942D01*
X176072693Y-46181942D02*
X176025074Y-46277180D01*
X176025074Y-46277180D02*
X175977455Y-46324800D01*
X175977455Y-46324800D02*
X175882217Y-46372419D01*
X175882217Y-46372419D02*
X175644122Y-46372419D01*
X175644122Y-46372419D02*
X175548884Y-46324800D01*
X175548884Y-46324800D02*
X175501265Y-46277180D01*
X149232455Y-123705752D02*
X149232455Y-124372419D01*
X148994360Y-123324800D02*
X148756265Y-124039085D01*
X148756265Y-124039085D02*
X149375312Y-124039085D01*
X126827693Y-62372419D02*
X126256265Y-62372419D01*
X126541979Y-62372419D02*
X126541979Y-61372419D01*
X126541979Y-61372419D02*
X126446741Y-61515276D01*
X126446741Y-61515276D02*
X126351503Y-61610514D01*
X126351503Y-61610514D02*
X126256265Y-61658133D01*
X135708646Y-108372419D02*
X136327693Y-108372419D01*
X136327693Y-108372419D02*
X135994360Y-108753371D01*
X135994360Y-108753371D02*
X136137217Y-108753371D01*
X136137217Y-108753371D02*
X136232455Y-108800990D01*
X136232455Y-108800990D02*
X136280074Y-108848609D01*
X136280074Y-108848609D02*
X136327693Y-108943847D01*
X136327693Y-108943847D02*
X136327693Y-109181942D01*
X136327693Y-109181942D02*
X136280074Y-109277180D01*
X136280074Y-109277180D02*
X136232455Y-109324800D01*
X136232455Y-109324800D02*
X136137217Y-109372419D01*
X136137217Y-109372419D02*
X135851503Y-109372419D01*
X135851503Y-109372419D02*
X135756265Y-109324800D01*
X135756265Y-109324800D02*
X135708646Y-109277180D01*
X199232455Y-62872419D02*
X199041979Y-62872419D01*
X199041979Y-62872419D02*
X198946741Y-62920038D01*
X198946741Y-62920038D02*
X198899122Y-62967657D01*
X198899122Y-62967657D02*
X198803884Y-63110514D01*
X198803884Y-63110514D02*
X198756265Y-63300990D01*
X198756265Y-63300990D02*
X198756265Y-63681942D01*
X198756265Y-63681942D02*
X198803884Y-63777180D01*
X198803884Y-63777180D02*
X198851503Y-63824800D01*
X198851503Y-63824800D02*
X198946741Y-63872419D01*
X198946741Y-63872419D02*
X199137217Y-63872419D01*
X199137217Y-63872419D02*
X199232455Y-63824800D01*
X199232455Y-63824800D02*
X199280074Y-63777180D01*
X199280074Y-63777180D02*
X199327693Y-63681942D01*
X199327693Y-63681942D02*
X199327693Y-63443847D01*
X199327693Y-63443847D02*
X199280074Y-63348609D01*
X199280074Y-63348609D02*
X199232455Y-63300990D01*
X199232455Y-63300990D02*
X199137217Y-63253371D01*
X199137217Y-63253371D02*
X198946741Y-63253371D01*
X198946741Y-63253371D02*
X198851503Y-63300990D01*
X198851503Y-63300990D02*
X198803884Y-63348609D01*
X198803884Y-63348609D02*
X198756265Y-63443847D01*
X198946741Y-106800990D02*
X198851503Y-106753371D01*
X198851503Y-106753371D02*
X198803884Y-106705752D01*
X198803884Y-106705752D02*
X198756265Y-106610514D01*
X198756265Y-106610514D02*
X198756265Y-106562895D01*
X198756265Y-106562895D02*
X198803884Y-106467657D01*
X198803884Y-106467657D02*
X198851503Y-106420038D01*
X198851503Y-106420038D02*
X198946741Y-106372419D01*
X198946741Y-106372419D02*
X199137217Y-106372419D01*
X199137217Y-106372419D02*
X199232455Y-106420038D01*
X199232455Y-106420038D02*
X199280074Y-106467657D01*
X199280074Y-106467657D02*
X199327693Y-106562895D01*
X199327693Y-106562895D02*
X199327693Y-106610514D01*
X199327693Y-106610514D02*
X199280074Y-106705752D01*
X199280074Y-106705752D02*
X199232455Y-106753371D01*
X199232455Y-106753371D02*
X199137217Y-106800990D01*
X199137217Y-106800990D02*
X198946741Y-106800990D01*
X198946741Y-106800990D02*
X198851503Y-106848609D01*
X198851503Y-106848609D02*
X198803884Y-106896228D01*
X198803884Y-106896228D02*
X198756265Y-106991466D01*
X198756265Y-106991466D02*
X198756265Y-107181942D01*
X198756265Y-107181942D02*
X198803884Y-107277180D01*
X198803884Y-107277180D02*
X198851503Y-107324800D01*
X198851503Y-107324800D02*
X198946741Y-107372419D01*
X198946741Y-107372419D02*
X199137217Y-107372419D01*
X199137217Y-107372419D02*
X199232455Y-107324800D01*
X199232455Y-107324800D02*
X199280074Y-107277180D01*
X199280074Y-107277180D02*
X199327693Y-107181942D01*
X199327693Y-107181942D02*
X199327693Y-106991466D01*
X199327693Y-106991466D02*
X199280074Y-106896228D01*
X199280074Y-106896228D02*
X199232455Y-106848609D01*
X199232455Y-106848609D02*
X199137217Y-106800990D01*
X148256265Y-45967657D02*
X148303884Y-45920038D01*
X148303884Y-45920038D02*
X148399122Y-45872419D01*
X148399122Y-45872419D02*
X148637217Y-45872419D01*
X148637217Y-45872419D02*
X148732455Y-45920038D01*
X148732455Y-45920038D02*
X148780074Y-45967657D01*
X148780074Y-45967657D02*
X148827693Y-46062895D01*
X148827693Y-46062895D02*
X148827693Y-46158133D01*
X148827693Y-46158133D02*
X148780074Y-46300990D01*
X148780074Y-46300990D02*
X148208646Y-46872419D01*
X148208646Y-46872419D02*
X148827693Y-46872419D01*
X160785990Y-85571428D02*
X160738371Y-85666666D01*
X160738371Y-85666666D02*
X160690752Y-85714285D01*
X160690752Y-85714285D02*
X160595514Y-85761904D01*
X160595514Y-85761904D02*
X160547895Y-85761904D01*
X160547895Y-85761904D02*
X160452657Y-85714285D01*
X160452657Y-85714285D02*
X160405038Y-85666666D01*
X160405038Y-85666666D02*
X160357419Y-85571428D01*
X160357419Y-85571428D02*
X160357419Y-85380952D01*
X160357419Y-85380952D02*
X160405038Y-85285714D01*
X160405038Y-85285714D02*
X160452657Y-85238095D01*
X160452657Y-85238095D02*
X160547895Y-85190476D01*
X160547895Y-85190476D02*
X160595514Y-85190476D01*
X160595514Y-85190476D02*
X160690752Y-85238095D01*
X160690752Y-85238095D02*
X160738371Y-85285714D01*
X160738371Y-85285714D02*
X160785990Y-85380952D01*
X160785990Y-85380952D02*
X160785990Y-85571428D01*
X160785990Y-85571428D02*
X160833609Y-85666666D01*
X160833609Y-85666666D02*
X160881228Y-85714285D01*
X160881228Y-85714285D02*
X160976466Y-85761904D01*
X160976466Y-85761904D02*
X161166942Y-85761904D01*
X161166942Y-85761904D02*
X161262180Y-85714285D01*
X161262180Y-85714285D02*
X161309800Y-85666666D01*
X161309800Y-85666666D02*
X161357419Y-85571428D01*
X161357419Y-85571428D02*
X161357419Y-85380952D01*
X161357419Y-85380952D02*
X161309800Y-85285714D01*
X161309800Y-85285714D02*
X161262180Y-85238095D01*
X161262180Y-85238095D02*
X161166942Y-85190476D01*
X161166942Y-85190476D02*
X160976466Y-85190476D01*
X160976466Y-85190476D02*
X160881228Y-85238095D01*
X160881228Y-85238095D02*
X160833609Y-85285714D01*
X160833609Y-85285714D02*
X160785990Y-85380952D01*
X160357419Y-84571428D02*
X160357419Y-84476190D01*
X160357419Y-84476190D02*
X160405038Y-84380952D01*
X160405038Y-84380952D02*
X160452657Y-84333333D01*
X160452657Y-84333333D02*
X160547895Y-84285714D01*
X160547895Y-84285714D02*
X160738371Y-84238095D01*
X160738371Y-84238095D02*
X160976466Y-84238095D01*
X160976466Y-84238095D02*
X161166942Y-84285714D01*
X161166942Y-84285714D02*
X161262180Y-84333333D01*
X161262180Y-84333333D02*
X161309800Y-84380952D01*
X161309800Y-84380952D02*
X161357419Y-84476190D01*
X161357419Y-84476190D02*
X161357419Y-84571428D01*
X161357419Y-84571428D02*
X161309800Y-84666666D01*
X161309800Y-84666666D02*
X161262180Y-84714285D01*
X161262180Y-84714285D02*
X161166942Y-84761904D01*
X161166942Y-84761904D02*
X160976466Y-84809523D01*
X160976466Y-84809523D02*
X160738371Y-84809523D01*
X160738371Y-84809523D02*
X160547895Y-84761904D01*
X160547895Y-84761904D02*
X160452657Y-84714285D01*
X160452657Y-84714285D02*
X160405038Y-84666666D01*
X160405038Y-84666666D02*
X160357419Y-84571428D01*
X162000000Y-125000000D02*
X161413580Y-125000000D01*
X161413580Y-45000000D02*
X162000000Y-45000000D01*
X162000000Y-125000000D02*
X162000000Y-45000000D01*
X162000000Y-125000000D02*
X161413579Y-123873496D01*
X162000000Y-125000000D02*
X162586421Y-123873496D01*
X162000000Y-45000000D02*
X162586421Y-46126504D01*
X162000000Y-45000000D02*
X161413579Y-46126504D01*
D11*
X147790475Y-51854819D02*
X147457142Y-51378628D01*
X147219047Y-51854819D02*
X147219047Y-50854819D01*
X147219047Y-50854819D02*
X147599999Y-50854819D01*
X147599999Y-50854819D02*
X147695237Y-50902438D01*
X147695237Y-50902438D02*
X147742856Y-50950057D01*
X147742856Y-50950057D02*
X147790475Y-51045295D01*
X147790475Y-51045295D02*
X147790475Y-51188152D01*
X147790475Y-51188152D02*
X147742856Y-51283390D01*
X147742856Y-51283390D02*
X147695237Y-51331009D01*
X147695237Y-51331009D02*
X147599999Y-51378628D01*
X147599999Y-51378628D02*
X147219047Y-51378628D01*
X148219047Y-51331009D02*
X148552380Y-51331009D01*
X148695237Y-51854819D02*
X148219047Y-51854819D01*
X148219047Y-51854819D02*
X148219047Y-50854819D01*
X148219047Y-50854819D02*
X148695237Y-50854819D01*
X149457142Y-51331009D02*
X149123809Y-51331009D01*
X149123809Y-51854819D02*
X149123809Y-50854819D01*
X149123809Y-50854819D02*
X149599999Y-50854819D01*
X150123809Y-50854819D02*
X150123809Y-51092914D01*
X149885714Y-50997676D02*
X150123809Y-51092914D01*
X150123809Y-51092914D02*
X150361904Y-50997676D01*
X149980952Y-51283390D02*
X150123809Y-51092914D01*
X150123809Y-51092914D02*
X150266666Y-51283390D01*
X150885714Y-50854819D02*
X150885714Y-51092914D01*
X150647619Y-50997676D02*
X150885714Y-51092914D01*
X150885714Y-51092914D02*
X151123809Y-50997676D01*
X150742857Y-51283390D02*
X150885714Y-51092914D01*
X150885714Y-51092914D02*
X151028571Y-51283390D01*
X152028571Y-51854819D02*
X151457143Y-51854819D01*
X151742857Y-51854819D02*
X151742857Y-50854819D01*
X151742857Y-50854819D02*
X151647619Y-50997676D01*
X151647619Y-50997676D02*
X151552381Y-51092914D01*
X151552381Y-51092914D02*
X151457143Y-51140533D01*
X194854819Y-103683333D02*
X194378628Y-104016666D01*
X194854819Y-104254761D02*
X193854819Y-104254761D01*
X193854819Y-104254761D02*
X193854819Y-103873809D01*
X193854819Y-103873809D02*
X193902438Y-103778571D01*
X193902438Y-103778571D02*
X193950057Y-103730952D01*
X193950057Y-103730952D02*
X194045295Y-103683333D01*
X194045295Y-103683333D02*
X194188152Y-103683333D01*
X194188152Y-103683333D02*
X194283390Y-103730952D01*
X194283390Y-103730952D02*
X194331009Y-103778571D01*
X194331009Y-103778571D02*
X194378628Y-103873809D01*
X194378628Y-103873809D02*
X194378628Y-104254761D01*
X194331009Y-103254761D02*
X194331009Y-102921428D01*
X194854819Y-102778571D02*
X194854819Y-103254761D01*
X194854819Y-103254761D02*
X193854819Y-103254761D01*
X193854819Y-103254761D02*
X193854819Y-102778571D01*
X194331009Y-102016666D02*
X194331009Y-102349999D01*
X194854819Y-102349999D02*
X193854819Y-102349999D01*
X193854819Y-102349999D02*
X193854819Y-101873809D01*
X193854819Y-101349999D02*
X194092914Y-101349999D01*
X193997676Y-101588094D02*
X194092914Y-101349999D01*
X194092914Y-101349999D02*
X193997676Y-101111904D01*
X194283390Y-101492856D02*
X194092914Y-101349999D01*
X194092914Y-101349999D02*
X194283390Y-101207142D01*
X193854819Y-100588094D02*
X194092914Y-100588094D01*
X193997676Y-100826189D02*
X194092914Y-100588094D01*
X194092914Y-100588094D02*
X193997676Y-100349999D01*
X194283390Y-100730951D02*
X194092914Y-100588094D01*
X194092914Y-100588094D02*
X194283390Y-100445237D01*
X173635475Y-51604819D02*
X173302142Y-51128628D01*
X173064047Y-51604819D02*
X173064047Y-50604819D01*
X173064047Y-50604819D02*
X173444999Y-50604819D01*
X173444999Y-50604819D02*
X173540237Y-50652438D01*
X173540237Y-50652438D02*
X173587856Y-50700057D01*
X173587856Y-50700057D02*
X173635475Y-50795295D01*
X173635475Y-50795295D02*
X173635475Y-50938152D01*
X173635475Y-50938152D02*
X173587856Y-51033390D01*
X173587856Y-51033390D02*
X173540237Y-51081009D01*
X173540237Y-51081009D02*
X173444999Y-51128628D01*
X173444999Y-51128628D02*
X173064047Y-51128628D01*
X174064047Y-51081009D02*
X174397380Y-51081009D01*
X174540237Y-51604819D02*
X174064047Y-51604819D01*
X174064047Y-51604819D02*
X174064047Y-50604819D01*
X174064047Y-50604819D02*
X174540237Y-50604819D01*
X175302142Y-51081009D02*
X174968809Y-51081009D01*
X174968809Y-51604819D02*
X174968809Y-50604819D01*
X174968809Y-50604819D02*
X175444999Y-50604819D01*
X175968809Y-50604819D02*
X175968809Y-50842914D01*
X175730714Y-50747676D02*
X175968809Y-50842914D01*
X175968809Y-50842914D02*
X176206904Y-50747676D01*
X175825952Y-51033390D02*
X175968809Y-50842914D01*
X175968809Y-50842914D02*
X176111666Y-51033390D01*
X176730714Y-50604819D02*
X176730714Y-50842914D01*
X176492619Y-50747676D02*
X176730714Y-50842914D01*
X176730714Y-50842914D02*
X176968809Y-50747676D01*
X176587857Y-51033390D02*
X176730714Y-50842914D01*
X176730714Y-50842914D02*
X176873571Y-51033390D01*
X177778333Y-50938152D02*
X177778333Y-51604819D01*
X177540238Y-50557200D02*
X177302143Y-51271485D01*
X177302143Y-51271485D02*
X177921190Y-51271485D01*
X131654819Y-102483333D02*
X131178628Y-102816666D01*
X131654819Y-103054761D02*
X130654819Y-103054761D01*
X130654819Y-103054761D02*
X130654819Y-102673809D01*
X130654819Y-102673809D02*
X130702438Y-102578571D01*
X130702438Y-102578571D02*
X130750057Y-102530952D01*
X130750057Y-102530952D02*
X130845295Y-102483333D01*
X130845295Y-102483333D02*
X130988152Y-102483333D01*
X130988152Y-102483333D02*
X131083390Y-102530952D01*
X131083390Y-102530952D02*
X131131009Y-102578571D01*
X131131009Y-102578571D02*
X131178628Y-102673809D01*
X131178628Y-102673809D02*
X131178628Y-103054761D01*
X131131009Y-102054761D02*
X131131009Y-101721428D01*
X131654819Y-101578571D02*
X131654819Y-102054761D01*
X131654819Y-102054761D02*
X130654819Y-102054761D01*
X130654819Y-102054761D02*
X130654819Y-101578571D01*
X131131009Y-100816666D02*
X131131009Y-101149999D01*
X131654819Y-101149999D02*
X130654819Y-101149999D01*
X130654819Y-101149999D02*
X130654819Y-100673809D01*
X130654819Y-100149999D02*
X130892914Y-100149999D01*
X130797676Y-100388094D02*
X130892914Y-100149999D01*
X130892914Y-100149999D02*
X130797676Y-99911904D01*
X131083390Y-100292856D02*
X130892914Y-100149999D01*
X130892914Y-100149999D02*
X131083390Y-100007142D01*
X130654819Y-99388094D02*
X130892914Y-99388094D01*
X130797676Y-99626189D02*
X130892914Y-99388094D01*
X130892914Y-99388094D02*
X130797676Y-99149999D01*
X131083390Y-99530951D02*
X130892914Y-99388094D01*
X130892914Y-99388094D02*
X131083390Y-99245237D01*
X194754819Y-69614524D02*
X194278628Y-69947857D01*
X194754819Y-70185952D02*
X193754819Y-70185952D01*
X193754819Y-70185952D02*
X193754819Y-69805000D01*
X193754819Y-69805000D02*
X193802438Y-69709762D01*
X193802438Y-69709762D02*
X193850057Y-69662143D01*
X193850057Y-69662143D02*
X193945295Y-69614524D01*
X193945295Y-69614524D02*
X194088152Y-69614524D01*
X194088152Y-69614524D02*
X194183390Y-69662143D01*
X194183390Y-69662143D02*
X194231009Y-69709762D01*
X194231009Y-69709762D02*
X194278628Y-69805000D01*
X194278628Y-69805000D02*
X194278628Y-70185952D01*
X194231009Y-69185952D02*
X194231009Y-68852619D01*
X194754819Y-68709762D02*
X194754819Y-69185952D01*
X194754819Y-69185952D02*
X193754819Y-69185952D01*
X193754819Y-69185952D02*
X193754819Y-68709762D01*
X194231009Y-67947857D02*
X194231009Y-68281190D01*
X194754819Y-68281190D02*
X193754819Y-68281190D01*
X193754819Y-68281190D02*
X193754819Y-67805000D01*
X193754819Y-67281190D02*
X193992914Y-67281190D01*
X193897676Y-67519285D02*
X193992914Y-67281190D01*
X193992914Y-67281190D02*
X193897676Y-67043095D01*
X194183390Y-67424047D02*
X193992914Y-67281190D01*
X193992914Y-67281190D02*
X194183390Y-67138333D01*
X193754819Y-66519285D02*
X193992914Y-66519285D01*
X193897676Y-66757380D02*
X193992914Y-66519285D01*
X193992914Y-66519285D02*
X193897676Y-66281190D01*
X194183390Y-66662142D02*
X193992914Y-66519285D01*
X193992914Y-66519285D02*
X194183390Y-66376428D01*
X193850057Y-65947856D02*
X193802438Y-65900237D01*
X193802438Y-65900237D02*
X193754819Y-65804999D01*
X193754819Y-65804999D02*
X193754819Y-65566904D01*
X193754819Y-65566904D02*
X193802438Y-65471666D01*
X193802438Y-65471666D02*
X193850057Y-65424047D01*
X193850057Y-65424047D02*
X193945295Y-65376428D01*
X193945295Y-65376428D02*
X194040533Y-65376428D01*
X194040533Y-65376428D02*
X194183390Y-65424047D01*
X194183390Y-65424047D02*
X194754819Y-65995475D01*
X194754819Y-65995475D02*
X194754819Y-65376428D01*
X174235475Y-119654819D02*
X173902142Y-119178628D01*
X173664047Y-119654819D02*
X173664047Y-118654819D01*
X173664047Y-118654819D02*
X174044999Y-118654819D01*
X174044999Y-118654819D02*
X174140237Y-118702438D01*
X174140237Y-118702438D02*
X174187856Y-118750057D01*
X174187856Y-118750057D02*
X174235475Y-118845295D01*
X174235475Y-118845295D02*
X174235475Y-118988152D01*
X174235475Y-118988152D02*
X174187856Y-119083390D01*
X174187856Y-119083390D02*
X174140237Y-119131009D01*
X174140237Y-119131009D02*
X174044999Y-119178628D01*
X174044999Y-119178628D02*
X173664047Y-119178628D01*
X174664047Y-119131009D02*
X174997380Y-119131009D01*
X175140237Y-119654819D02*
X174664047Y-119654819D01*
X174664047Y-119654819D02*
X174664047Y-118654819D01*
X174664047Y-118654819D02*
X175140237Y-118654819D01*
X175902142Y-119131009D02*
X175568809Y-119131009D01*
X175568809Y-119654819D02*
X175568809Y-118654819D01*
X175568809Y-118654819D02*
X176044999Y-118654819D01*
X176568809Y-118654819D02*
X176568809Y-118892914D01*
X176330714Y-118797676D02*
X176568809Y-118892914D01*
X176568809Y-118892914D02*
X176806904Y-118797676D01*
X176425952Y-119083390D02*
X176568809Y-118892914D01*
X176568809Y-118892914D02*
X176711666Y-119083390D01*
X177330714Y-118654819D02*
X177330714Y-118892914D01*
X177092619Y-118797676D02*
X177330714Y-118892914D01*
X177330714Y-118892914D02*
X177568809Y-118797676D01*
X177187857Y-119083390D02*
X177330714Y-118892914D01*
X177330714Y-118892914D02*
X177473571Y-119083390D01*
X177902143Y-118750057D02*
X177949762Y-118702438D01*
X177949762Y-118702438D02*
X178045000Y-118654819D01*
X178045000Y-118654819D02*
X178283095Y-118654819D01*
X178283095Y-118654819D02*
X178378333Y-118702438D01*
X178378333Y-118702438D02*
X178425952Y-118750057D01*
X178425952Y-118750057D02*
X178473571Y-118845295D01*
X178473571Y-118845295D02*
X178473571Y-118940533D01*
X178473571Y-118940533D02*
X178425952Y-119083390D01*
X178425952Y-119083390D02*
X177854524Y-119654819D01*
X177854524Y-119654819D02*
X178473571Y-119654819D01*
X131854819Y-69983333D02*
X131378628Y-70316666D01*
X131854819Y-70554761D02*
X130854819Y-70554761D01*
X130854819Y-70554761D02*
X130854819Y-70173809D01*
X130854819Y-70173809D02*
X130902438Y-70078571D01*
X130902438Y-70078571D02*
X130950057Y-70030952D01*
X130950057Y-70030952D02*
X131045295Y-69983333D01*
X131045295Y-69983333D02*
X131188152Y-69983333D01*
X131188152Y-69983333D02*
X131283390Y-70030952D01*
X131283390Y-70030952D02*
X131331009Y-70078571D01*
X131331009Y-70078571D02*
X131378628Y-70173809D01*
X131378628Y-70173809D02*
X131378628Y-70554761D01*
X131331009Y-69554761D02*
X131331009Y-69221428D01*
X131854819Y-69078571D02*
X131854819Y-69554761D01*
X131854819Y-69554761D02*
X130854819Y-69554761D01*
X130854819Y-69554761D02*
X130854819Y-69078571D01*
X131331009Y-68316666D02*
X131331009Y-68649999D01*
X131854819Y-68649999D02*
X130854819Y-68649999D01*
X130854819Y-68649999D02*
X130854819Y-68173809D01*
X130854819Y-67649999D02*
X131092914Y-67649999D01*
X130997676Y-67888094D02*
X131092914Y-67649999D01*
X131092914Y-67649999D02*
X130997676Y-67411904D01*
X131283390Y-67792856D02*
X131092914Y-67649999D01*
X131092914Y-67649999D02*
X131283390Y-67507142D01*
X130854819Y-66888094D02*
X131092914Y-66888094D01*
X130997676Y-67126189D02*
X131092914Y-66888094D01*
X131092914Y-66888094D02*
X130997676Y-66649999D01*
X131283390Y-67030951D02*
X131092914Y-66888094D01*
X131092914Y-66888094D02*
X131283390Y-66745237D01*
X148495475Y-119554819D02*
X148162142Y-119078628D01*
X147924047Y-119554819D02*
X147924047Y-118554819D01*
X147924047Y-118554819D02*
X148304999Y-118554819D01*
X148304999Y-118554819D02*
X148400237Y-118602438D01*
X148400237Y-118602438D02*
X148447856Y-118650057D01*
X148447856Y-118650057D02*
X148495475Y-118745295D01*
X148495475Y-118745295D02*
X148495475Y-118888152D01*
X148495475Y-118888152D02*
X148447856Y-118983390D01*
X148447856Y-118983390D02*
X148400237Y-119031009D01*
X148400237Y-119031009D02*
X148304999Y-119078628D01*
X148304999Y-119078628D02*
X147924047Y-119078628D01*
X148924047Y-119031009D02*
X149257380Y-119031009D01*
X149400237Y-119554819D02*
X148924047Y-119554819D01*
X148924047Y-119554819D02*
X148924047Y-118554819D01*
X148924047Y-118554819D02*
X149400237Y-118554819D01*
X150162142Y-119031009D02*
X149828809Y-119031009D01*
X149828809Y-119554819D02*
X149828809Y-118554819D01*
X149828809Y-118554819D02*
X150304999Y-118554819D01*
X150828809Y-118554819D02*
X150828809Y-118792914D01*
X150590714Y-118697676D02*
X150828809Y-118792914D01*
X150828809Y-118792914D02*
X151066904Y-118697676D01*
X150685952Y-118983390D02*
X150828809Y-118792914D01*
X150828809Y-118792914D02*
X150971666Y-118983390D01*
X151590714Y-118554819D02*
X151590714Y-118792914D01*
X151352619Y-118697676D02*
X151590714Y-118792914D01*
X151590714Y-118792914D02*
X151828809Y-118697676D01*
X151447857Y-118983390D02*
X151590714Y-118792914D01*
X151590714Y-118792914D02*
X151733571Y-118983390D01*
X152114524Y-118554819D02*
X152733571Y-118554819D01*
X152733571Y-118554819D02*
X152400238Y-118935771D01*
X152400238Y-118935771D02*
X152543095Y-118935771D01*
X152543095Y-118935771D02*
X152638333Y-118983390D01*
X152638333Y-118983390D02*
X152685952Y-119031009D01*
X152685952Y-119031009D02*
X152733571Y-119126247D01*
X152733571Y-119126247D02*
X152733571Y-119364342D01*
X152733571Y-119364342D02*
X152685952Y-119459580D01*
X152685952Y-119459580D02*
X152638333Y-119507200D01*
X152638333Y-119507200D02*
X152543095Y-119554819D01*
X152543095Y-119554819D02*
X152257381Y-119554819D01*
X152257381Y-119554819D02*
X152162143Y-119507200D01*
X152162143Y-119507200D02*
X152114524Y-119459580D01*
D12*
%TO.C,REF\u002A\u002A1*%
X143300000Y-55200000D02*
G75*
G02*
X143100000Y-55200000I-100000J0D01*
G01*
X143100000Y-55200000D02*
G75*
G02*
X143300000Y-55200000I100000J0D01*
G01*
X161635000Y-54700000D02*
X137565000Y-54700000D01*
X161635000Y-47700000D02*
X161635000Y-54700000D01*
X137565000Y-54700000D02*
X137565000Y-47700000D01*
X137565000Y-47700000D02*
X161635000Y-47700000D01*
%TO.C,REF\u002A\u002A*%
X190800000Y-90065000D02*
X197800000Y-90065000D01*
X190800000Y-114135000D02*
X190800000Y-90065000D01*
X197800000Y-90065000D02*
X197800000Y-114135000D01*
X197800000Y-114135000D02*
X190800000Y-114135000D01*
X198400000Y-108500000D02*
G75*
G02*
X198200000Y-108500000I-100000J0D01*
G01*
X198200000Y-108500000D02*
G75*
G02*
X198400000Y-108500000I100000J0D01*
G01*
%TO.C,REF\u002A\u002A4*%
X163210000Y-47700000D02*
X187280000Y-47700000D01*
X163210000Y-54700000D02*
X163210000Y-47700000D01*
X187280000Y-47700000D02*
X187280000Y-54700000D01*
X187280000Y-54700000D02*
X163210000Y-54700000D01*
X168945000Y-55200000D02*
G75*
G02*
X168745000Y-55200000I-100000J0D01*
G01*
X168745000Y-55200000D02*
G75*
G02*
X168945000Y-55200000I100000J0D01*
G01*
%TO.C,REF\u002A\u002A*%
X127800000Y-89365000D02*
X134800000Y-89365000D01*
X127800000Y-113435000D02*
X127800000Y-89365000D01*
X134800000Y-89365000D02*
X134800000Y-113435000D01*
X134800000Y-113435000D02*
X127800000Y-113435000D01*
X127400000Y-95000000D02*
G75*
G02*
X127200000Y-95000000I-100000J0D01*
G01*
X127200000Y-95000000D02*
G75*
G02*
X127400000Y-95000000I100000J0D01*
G01*
D13*
X201630000Y-79666000D02*
X207065000Y-79666000D01*
X201630000Y-90334000D02*
X201630000Y-79666000D01*
X207065000Y-79666000D02*
X207065000Y-90334000D01*
X207065000Y-90334000D02*
X201630000Y-90334000D01*
D12*
X200730000Y-87540000D02*
G75*
G02*
X200530000Y-87540000I-100000J0D01*
G01*
X200530000Y-87540000D02*
G75*
G02*
X200730000Y-87540000I100000J0D01*
G01*
%TO.C,REF\u002A\u002A2*%
X191000000Y-56220000D02*
X198000000Y-56220000D01*
X191000000Y-80290000D02*
X191000000Y-56220000D01*
X198000000Y-56220000D02*
X198000000Y-80290000D01*
X198000000Y-80290000D02*
X191000000Y-80290000D01*
X190600000Y-61855000D02*
G75*
G02*
X190400000Y-61855000I-100000J0D01*
G01*
X190400000Y-61855000D02*
G75*
G02*
X190600000Y-61855000I100000J0D01*
G01*
X164460000Y-115500000D02*
X188530000Y-115500000D01*
X164460000Y-122500000D02*
X164460000Y-115500000D01*
X188530000Y-115500000D02*
X188530000Y-122500000D01*
X188530000Y-122500000D02*
X164460000Y-122500000D01*
X170195000Y-123000000D02*
G75*
G02*
X169995000Y-123000000I-100000J0D01*
G01*
X169995000Y-123000000D02*
G75*
G02*
X170195000Y-123000000I100000J0D01*
G01*
%TO.C,REF\u002A\u002A*%
X127800000Y-56365000D02*
X134800000Y-56365000D01*
X127800000Y-80435000D02*
X127800000Y-56365000D01*
X134800000Y-56365000D02*
X134800000Y-80435000D01*
X134800000Y-80435000D02*
X127800000Y-80435000D01*
X135400000Y-74800000D02*
G75*
G02*
X135200000Y-74800000I-100000J0D01*
G01*
X135200000Y-74800000D02*
G75*
G02*
X135400000Y-74800000I100000J0D01*
G01*
%TO.C,REF\u002A\u002A3*%
X138220000Y-115500000D02*
X162290000Y-115500000D01*
X138220000Y-122500000D02*
X138220000Y-115500000D01*
X162290000Y-115500000D02*
X162290000Y-122500000D01*
X162290000Y-122500000D02*
X138220000Y-122500000D01*
X143955000Y-123000000D02*
G75*
G02*
X143755000Y-123000000I-100000J0D01*
G01*
X143755000Y-123000000D02*
G75*
G02*
X143955000Y-123000000I100000J0D01*
G01*
%TD*%
M02*
