M48
; DRILL file {KiCad 9.0.2} date 2025-10-03T15:37:41-0700
; FORMAT={-:-/ absolute / metric / decimal}
; #@! TF.CreationDate,2025-10-03T15:37:41-07:00
; #@! TF.GenerationSoftware,Kicad,Pcbnew,9.0.2
; #@! TF.FileFunction,Plated,1,2,PTH
FMAT,2
METRIC
; #@! TA.AperFunction,Plated,PTH,ViaDrill
T1C0.300
; #@! TA.AperFunction,Plated,PTH,ComponentDrill
T2C0.840
; #@! TA.AperFunction,Plated,PTH,ComponentDrill
T3C0.890
%
G90
G05
T1
X126.064Y-70.472
X127.297Y-73.066
X127.4Y-71.4
X128.0Y-72.5
X129.5Y-82.0
X130.934Y-73.434
X131.0Y-71.5
X131.0Y-96.5
X131.0Y-97.3
X131.5Y-66.0
X131.5Y-72.5
X131.5Y-74.0
X131.5Y-98.0
X131.5Y-99.0
X132.5Y-76.0
X133.5Y-80.5
X134.0Y-85.0
X134.8Y-85.0
X135.5Y-81.5
X135.5Y-88.0
X136.0Y-111.0
X136.135Y-97.635
X136.4Y-85.0
X136.724Y-93.803
X136.903Y-84.257
X136.96Y-95.96
X137.1Y-81.5
X137.2Y-85.0
X137.4Y-78.0
X138.0Y-81.5
X138.0Y-85.0
X138.5Y-88.0
X139.5Y-85.0
X140.3Y-85.0
X141.124Y-85.024
X142.0Y-81.5
X142.0Y-85.0
X142.798Y-84.947
X143.0Y-54.5
X143.596Y-85.007
X144.0Y-51.0
X144.255Y-112.848
X144.5Y-85.0
X144.6Y-56.5
X144.643Y-88.143
X144.8Y-51.0
X144.855Y-113.5
X145.2Y-55.875
X145.298Y-85.058
X145.4Y-119.0
X145.624Y-50.976
X145.771Y-88.743
X146.095Y-84.992
X146.2Y-119.001
X146.398Y-115.0
X146.5Y-51.0
X146.6Y-55.5
X146.603Y-84.374
X147.0Y-119.0
X147.5Y-84.5
X147.53Y-107.976
X147.801Y-56.0
X148.0Y-116.0
X148.0Y-119.0
X148.3Y-84.5
X148.361Y-107.993
X148.979Y-107.376
X149.0Y-88.0
X149.1Y-84.5
X150.0Y-84.5
X150.099Y-88.599
X150.619Y-89.736
X150.8Y-84.5
X151.0Y-51.5
X151.0Y-54.0
X151.527Y-90.527
X151.6Y-84.5
X152.0Y-51.5
X152.076Y-91.699
X152.5Y-84.5
X152.5Y-118.5
X152.6Y-55.0
X152.72Y-92.752
X153.0Y-114.0
X153.3Y-84.5
X153.602Y-93.568
X154.1Y-84.5
X154.5Y-94.5
X154.9Y-84.5
X155.633Y-95.633
X155.7Y-84.5
X156.198Y-96.198
X156.5Y-84.5
X156.655Y-119.0
X157.3Y-84.5
X158.1Y-84.5
X159.0Y-84.5
X162.5Y-81.5
X162.5Y-85.5
X163.5Y-85.5
X164.3Y-85.5
X165.1Y-85.5
X166.0Y-57.0
X166.0Y-85.5
X166.8Y-85.5
X167.6Y-85.5
X168.299Y-80.757
X168.5Y-51.0
X168.5Y-85.5
X168.525Y-58.025
X168.7Y-81.5
X169.3Y-85.5
X169.5Y-51.0
X169.5Y-56.0
X170.1Y-55.434
X170.1Y-85.5
X170.301Y-81.277
X170.9Y-85.5
X171.0Y-51.5
X171.0Y-119.0
X171.07Y-114.376
X171.7Y-85.5
X171.704Y-113.849
X171.845Y-55.0
X172.0Y-51.5
X172.0Y-119.0
X172.5Y-85.5
X172.911Y-112.589
X173.0Y-119.0
X173.3Y-85.5
X173.308Y-111.81
X173.813Y-118.992
X174.1Y-85.5
X174.5Y-88.0
X174.9Y-85.5
X175.311Y-117.0
X175.5Y-84.5
X176.083Y-88.115
X176.3Y-84.5
X176.5Y-51.0
X176.5Y-54.5
X177.1Y-84.5
X177.198Y-88.698
X177.349Y-55.349
X177.363Y-90.233
X177.5Y-51.0
X177.924Y-84.476
X178.166Y-91.128
X178.724Y-84.508
X179.0Y-92.0
X179.524Y-84.5
X180.383Y-92.883
X180.5Y-84.5
X181.3Y-84.5
X181.902Y-88.0
X182.1Y-84.5
X182.704Y-89.05
X182.9Y-84.5
X183.506Y-90.0
X183.7Y-84.5
X184.352Y-90.852
X184.5Y-84.5
X185.108Y-89.901
X185.3Y-84.5
X186.019Y-92.019
X186.1Y-84.5
X186.756Y-88.0
X186.9Y-84.5
X187.5Y-72.803
X187.5Y-106.0
X187.5Y-106.849
X187.558Y-89.0
X187.7Y-84.5
X188.0Y-65.0
X188.5Y-84.5
X189.0Y-108.451
X189.057Y-104.443
X189.133Y-105.367
X190.5Y-62.706
X191.0Y-70.0
X191.5Y-65.1
X194.5Y-62.5
X194.5Y-63.5
X194.5Y-64.5
X194.5Y-65.3
X194.5Y-70.0
X194.5Y-70.8
X194.5Y-74.655
X194.5Y-95.7
X194.5Y-104.5
X194.5Y-105.4
X194.5Y-106.2
X194.5Y-107.0
X194.5Y-108.0
T2
X131.3Y-58.905
X131.3Y-77.895
X131.3Y-91.905
X131.3Y-110.895
X140.105Y-51.2
X140.76Y-119.0
X159.095Y-51.2
X159.75Y-119.0
X165.75Y-51.2
X167.0Y-119.0
X184.74Y-51.2
X185.99Y-119.0
X194.3Y-92.605
X194.3Y-111.595
X194.5Y-58.76
X194.5Y-77.75
T3
X204.5Y-82.46
X204.5Y-85.0
X204.5Y-87.54
M30
