%TF.GenerationSoftware,KiCad,Pcbnew,9.0.2*%
%TF.CreationDate,2025-09-26T16:08:25-07:00*%
%TF.ProjectId,CAEN-8ch-Old-Circle,4341454e-2d38-4636-982d-4f6c642d4369,rev?*%
%TF.SameCoordinates,Original*%
%TF.FileFunction,Profile,NP*%
%FSLAX46Y46*%
G04 Gerber Fmt 4.6, Leading zero omitted, Abs format (unit mm)*
G04 Created by KiCad (PCBNEW 9.0.2) date 2025-09-26 16:08:25*
%MOMM*%
%LPD*%
G01*
G04 APERTURE LIST*
%TA.AperFunction,Profile*%
%ADD10C,0.050000*%
%TD*%
G04 APERTURE END LIST*
D10*
X185100000Y-110500000D02*
G75*
G02*
X181900000Y-110500000I-1600000J0D01*
G01*
X181900000Y-110500000D02*
G75*
G02*
X185100000Y-110500000I1600000J0D01*
G01*
X190000000Y-115000000D02*
X190000000Y-125000000D01*
X135000000Y-55000000D02*
X125000000Y-55000000D01*
X135000000Y-55000000D02*
X135000000Y-45000000D01*
X208500000Y-75000000D02*
X208500000Y-95000000D01*
X135000000Y-125000000D02*
X135000000Y-115000000D01*
X200000000Y-55000000D02*
X190000000Y-55000000D01*
X200000000Y-115000000D02*
X190000000Y-115000000D01*
X159100000Y-60500000D02*
G75*
G02*
X155900000Y-60500000I-1600000J0D01*
G01*
X155900000Y-60500000D02*
G75*
G02*
X159100000Y-60500000I1600000J0D01*
G01*
X190000000Y-45000000D02*
X190000000Y-55000000D01*
X200000000Y-55000000D02*
X200000000Y-75000000D01*
X185100000Y-60500000D02*
G75*
G02*
X181900000Y-60500000I-1600000J0D01*
G01*
X181900000Y-60500000D02*
G75*
G02*
X185100000Y-60500000I1600000J0D01*
G01*
X135000000Y-45000000D02*
X190000000Y-45000000D01*
X200000000Y-95000000D02*
X200000000Y-115000000D01*
X125000000Y-115000000D02*
X125000000Y-55000000D01*
X208500000Y-75000000D02*
X200000000Y-75000000D01*
X135000000Y-115000000D02*
X125000000Y-115000000D01*
X190000000Y-125000000D02*
X135000000Y-125000000D01*
X200000000Y-95000000D02*
X208500000Y-95000000D01*
M02*
