%TF.GenerationSoftware,KiCad,Pcbnew,9.0.2*%
%TF.CreationDate,2025-09-03T15:42:16-07:00*%
%TF.ProjectId,OctagonPanels,4f637461-676f-46e5-9061-6e656c732e6b,rev?*%
%TF.SameCoordinates,Original*%
%TF.FileFunction,Copper,L2,Inr*%
%TF.FilePolarity,Positive*%
%FSLAX46Y46*%
G04 Gerber Fmt 4.6, Leading zero omitted, Abs format (unit mm)*
G04 Created by KiCad (PCBNEW 9.0.2) date 2025-09-03 15:42:16*
%MOMM*%
%LPD*%
G01*
G04 APERTURE LIST*
G04 Aperture macros list*
%AMRoundRect*
0 Rectangle with rounded corners*
0 $1 Rounding radius*
0 $2 $3 $4 $5 $6 $7 $8 $9 X,Y pos of 4 corners*
0 Add a 4 corners polygon primitive as box body*
4,1,4,$2,$3,$4,$5,$6,$7,$8,$9,$2,$3,0*
0 Add four circle primitives for the rounded corners*
1,1,$1+$1,$2,$3*
1,1,$1+$1,$4,$5*
1,1,$1+$1,$6,$7*
1,1,$1+$1,$8,$9*
0 Add four rect primitives between the rounded corners*
20,1,$1+$1,$2,$3,$4,$5,0*
20,1,$1+$1,$4,$5,$6,$7,0*
20,1,$1+$1,$6,$7,$8,$9,0*
20,1,$1+$1,$8,$9,$2,$3,0*%
G04 Aperture macros list end*
%TA.AperFunction,ComponentPad*%
%ADD10C,0.800000*%
%TD*%
%TA.AperFunction,ComponentPad*%
%ADD11C,2.540000*%
%TD*%
%TA.AperFunction,ComponentPad*%
%ADD12RoundRect,0.250000X-0.725000X0.600000X-0.725000X-0.600000X0.725000X-0.600000X0.725000X0.600000X0*%
%TD*%
%TA.AperFunction,ComponentPad*%
%ADD13O,1.950000X1.700000*%
%TD*%
%TA.AperFunction,ViaPad*%
%ADD14C,0.600000*%
%TD*%
G04 APERTURE END LIST*
D10*
%TO.N,K4*%
%TO.C,REF\u002A\u002A24*%
X229650000Y-82200000D03*
%TO.N,A4*%
X229650000Y-83700000D03*
%TO.N,GND*%
X230200000Y-84900000D03*
%TD*%
%TO.N,K7*%
%TO.C,REF\u002A\u002A47*%
X376050000Y-82200000D03*
%TO.N,A7*%
X376050000Y-83700000D03*
%TO.N,GND*%
X376600000Y-84900000D03*
%TD*%
%TO.N,K2*%
%TO.C,REF\u002A\u002A22*%
X132050000Y-82200000D03*
%TO.N,A2*%
X132050000Y-83700000D03*
%TO.N,GND*%
X132600000Y-84900000D03*
%TD*%
%TO.N,K3*%
%TO.C,REF\u002A\u002A23*%
X180850000Y-82200000D03*
%TO.N,A3*%
X180850000Y-83700000D03*
%TO.N,GND*%
X181400000Y-84900000D03*
%TD*%
%TO.N,K6*%
%TO.C,REF\u002A\u002A46*%
X327250000Y-82200000D03*
%TO.N,A6*%
X327250000Y-83700000D03*
%TO.N,GND*%
X327800000Y-84900000D03*
%TD*%
D11*
%TO.N,*%
%TO.C,REF\u002A\u002A*%
X-2700000Y-63650000D03*
X-2700000Y-80950000D03*
%TD*%
D10*
%TO.N,K0*%
%TO.C,REF\u002A\u002A20*%
X34450000Y-82200000D03*
%TO.N,A0*%
X34450000Y-83700000D03*
%TO.N,GND*%
X35000000Y-84900000D03*
%TD*%
%TO.N,K1*%
%TO.C,REF\u002A\u002A21*%
X83250000Y-82200000D03*
%TO.N,A1*%
X83250000Y-83700000D03*
%TO.N,GND*%
X83800000Y-84900000D03*
%TD*%
%TO.N,K5*%
%TO.C,REF\u002A\u002A45*%
X278450000Y-82200000D03*
%TO.N,A5*%
X278450000Y-83700000D03*
%TO.N,GND*%
X279000000Y-84900000D03*
%TD*%
D12*
%TO.N,TEMP_OUT*%
%TO.C,REF\u002A\u002A*%
X-4300000Y-94334936D03*
D13*
%TO.N,HV*%
X-4300000Y-96834936D03*
%TO.N,GND*%
X-4300000Y-99334936D03*
%TD*%
D14*
%TO.N,GND*%
X8000000Y-99000000D03*
%TO.N,K0*%
X8000000Y-61000000D03*
X-3000000Y-67000000D03*
%TO.N,A0*%
X3000000Y-62000000D03*
%TO.N,K1*%
X-3000000Y-68000000D03*
X8000000Y-65500000D03*
%TO.N,A1*%
X2000000Y-66100000D03*
%TO.N,K2*%
X-3000000Y-69000000D03*
X8000000Y-70500000D03*
%TO.N,A2*%
X8000000Y-73000000D03*
%TO.N,K3*%
X8000000Y-75500000D03*
X-3000000Y-70000000D03*
%TO.N,A3*%
X8600000Y-78000000D03*
%TO.N,K4*%
X-3000000Y-72500000D03*
X8000000Y-80500000D03*
%TO.N,A4*%
X8000000Y-82500000D03*
%TO.N,K5*%
X8000000Y-85500000D03*
X-3000000Y-73500000D03*
%TO.N,A5*%
X8000000Y-88000000D03*
%TO.N,K6*%
X8000000Y-90500000D03*
X-2972776Y-74527224D03*
%TO.N,A6*%
X8000000Y-93000000D03*
%TO.N,K7*%
X8000000Y-95500000D03*
X-3000000Y-75500000D03*
%TO.N,A7*%
X2500000Y-90500000D03*
%TD*%
M02*
