%TF.GenerationSoftware,KiCad,Pcbnew,9.0.2*%
%TF.CreationDate,2025-09-03T15:42:16-07:00*%
%TF.ProjectId,OctagonPanels,4f637461-676f-46e5-9061-6e656c732e6b,rev?*%
%TF.SameCoordinates,Original*%
%TF.FileFunction,Copper,L1,Top*%
%TF.FilePolarity,Positive*%
%FSLAX46Y46*%
G04 Gerber Fmt 4.6, Leading zero omitted, Abs format (unit mm)*
G04 Created by KiCad (PCBNEW 9.0.2) date 2025-09-03 15:42:16*
%MOMM*%
%LPD*%
G01*
G04 APERTURE LIST*
G04 Aperture macros list*
%AMRoundRect*
0 Rectangle with rounded corners*
0 $1 Rounding radius*
0 $2 $3 $4 $5 $6 $7 $8 $9 X,Y pos of 4 corners*
0 Add a 4 corners polygon primitive as box body*
4,1,4,$2,$3,$4,$5,$6,$7,$8,$9,$2,$3,0*
0 Add four circle primitives for the rounded corners*
1,1,$1+$1,$2,$3*
1,1,$1+$1,$4,$5*
1,1,$1+$1,$6,$7*
1,1,$1+$1,$8,$9*
0 Add four rect primitives between the rounded corners*
20,1,$1+$1,$2,$3,$4,$5,0*
20,1,$1+$1,$4,$5,$6,$7,0*
20,1,$1+$1,$6,$7,$8,$9,0*
20,1,$1+$1,$8,$9,$2,$3,0*%
G04 Aperture macros list end*
%TA.AperFunction,SMDPad,CuDef*%
%ADD10RoundRect,0.087500X-0.087500X-0.337500X0.087500X-0.337500X0.087500X0.337500X-0.087500X0.337500X0*%
%TD*%
%TA.AperFunction,SMDPad,CuDef*%
%ADD11RoundRect,0.250000X-0.325000X-1.100000X0.325000X-1.100000X0.325000X1.100000X-0.325000X1.100000X0*%
%TD*%
%TA.AperFunction,SMDPad,CuDef*%
%ADD12R,0.700000X0.700000*%
%TD*%
%TA.AperFunction,ComponentPad*%
%ADD13C,0.800000*%
%TD*%
%TA.AperFunction,SMDPad,CuDef*%
%ADD14R,1.100000X0.200000*%
%TD*%
%TA.AperFunction,SMDPad,CuDef*%
%ADD15R,1.200000X0.200000*%
%TD*%
%TA.AperFunction,SMDPad,CuDef*%
%ADD16R,0.200000X2.500000*%
%TD*%
%TA.AperFunction,SMDPad,CuDef*%
%ADD17R,0.850000X0.200000*%
%TD*%
%TA.AperFunction,SMDPad,CuDef*%
%ADD18RoundRect,0.225000X-0.225000X-0.250000X0.225000X-0.250000X0.225000X0.250000X-0.225000X0.250000X0*%
%TD*%
%TA.AperFunction,SMDPad,CuDef*%
%ADD19R,1.050000X0.200000*%
%TD*%
%TA.AperFunction,ComponentPad*%
%ADD20C,2.540000*%
%TD*%
%TA.AperFunction,SMDPad,CuDef*%
%ADD21RoundRect,0.125000X-0.475000X0.125000X-0.475000X-0.125000X0.475000X-0.125000X0.475000X0.125000X0*%
%TD*%
%TA.AperFunction,ComponentPad*%
%ADD22RoundRect,0.250000X-0.725000X0.600000X-0.725000X-0.600000X0.725000X-0.600000X0.725000X0.600000X0*%
%TD*%
%TA.AperFunction,ComponentPad*%
%ADD23O,1.950000X1.700000*%
%TD*%
%TA.AperFunction,ViaPad*%
%ADD24C,0.600000*%
%TD*%
%TA.AperFunction,Conductor*%
%ADD25C,0.200000*%
%TD*%
%TA.AperFunction,Conductor*%
%ADD26C,0.250000*%
%TD*%
G04 APERTURE END LIST*
D10*
%TO.P,REF\u002A\u002A,1*%
%TO.N,GND*%
X2600000Y-96900000D03*
%TO.P,REF\u002A\u002A,2*%
X3250000Y-96900000D03*
%TO.P,REF\u002A\u002A,3*%
%TO.N,TEMP_OUT*%
X3900000Y-96900000D03*
%TO.P,REF\u002A\u002A,4*%
%TO.N,HV*%
X3900000Y-94700000D03*
%TO.P,REF\u002A\u002A,5*%
%TO.N,GND*%
X2600000Y-94700000D03*
%TD*%
D11*
%TO.P,10 nF,1*%
%TO.N,K1*%
X6500000Y-65500000D03*
%TO.P,10 nF,2*%
%TO.N,GND*%
X9450000Y-65500000D03*
%TD*%
D12*
%TO.P,REF\u002A\u002A24,1*%
%TO.N,N/C*%
X233252500Y-82450000D03*
%TO.P,REF\u002A\u002A24,4*%
X233252500Y-83550000D03*
D13*
%TO.P,REF\u002A\u002A24,7*%
%TO.N,K4*%
X229650000Y-82200000D03*
D14*
X230450000Y-82250000D03*
D12*
X231227500Y-82450000D03*
D15*
X232000000Y-82450000D03*
D16*
X232500000Y-83600000D03*
D17*
X232825000Y-84900000D03*
D18*
X233275000Y-84900000D03*
D13*
%TO.P,REF\u002A\u002A24,8*%
%TO.N,A4*%
X229650000Y-83700000D03*
D14*
X230450000Y-83650000D03*
D12*
X231227500Y-83550000D03*
D13*
%TO.P,REF\u002A\u002A24,9*%
%TO.N,GND*%
X230200000Y-84900000D03*
D19*
X230950000Y-84950000D03*
D18*
X231725000Y-84900000D03*
%TD*%
D11*
%TO.P,10 nF,1*%
%TO.N,K2*%
X6500000Y-70500000D03*
%TO.P,10 nF,2*%
%TO.N,GND*%
X9450000Y-70500000D03*
%TD*%
D12*
%TO.P,REF\u002A\u002A47,1*%
%TO.N,N/C*%
X379652500Y-82450000D03*
%TO.P,REF\u002A\u002A47,4*%
X379652500Y-83550000D03*
D13*
%TO.P,REF\u002A\u002A47,7*%
%TO.N,K7*%
X376050000Y-82200000D03*
D14*
X376850000Y-82250000D03*
D12*
X377627500Y-82450000D03*
D15*
X378400000Y-82450000D03*
D16*
X378900000Y-83600000D03*
D17*
X379225000Y-84900000D03*
D18*
X379675000Y-84900000D03*
D13*
%TO.P,REF\u002A\u002A47,8*%
%TO.N,A7*%
X376050000Y-83700000D03*
D14*
X376850000Y-83650000D03*
D12*
X377627500Y-83550000D03*
D13*
%TO.P,REF\u002A\u002A47,9*%
%TO.N,GND*%
X376600000Y-84900000D03*
D19*
X377350000Y-84950000D03*
D18*
X378125000Y-84900000D03*
%TD*%
D11*
%TO.P,10 nF,1*%
%TO.N,K3*%
X6500000Y-75500000D03*
%TO.P,10 nF,2*%
%TO.N,GND*%
X9450000Y-75500000D03*
%TD*%
%TO.P,10 nF,1*%
%TO.N,K4*%
X6500000Y-80500000D03*
%TO.P,10 nF,2*%
%TO.N,GND*%
X9450000Y-80500000D03*
%TD*%
D12*
%TO.P,REF\u002A\u002A22,1*%
%TO.N,N/C*%
X135652500Y-82450000D03*
%TO.P,REF\u002A\u002A22,4*%
X135652500Y-83550000D03*
D13*
%TO.P,REF\u002A\u002A22,7*%
%TO.N,K2*%
X132050000Y-82200000D03*
D14*
X132850000Y-82250000D03*
D12*
X133627500Y-82450000D03*
D15*
X134400000Y-82450000D03*
D16*
X134900000Y-83600000D03*
D17*
X135225000Y-84900000D03*
D18*
X135675000Y-84900000D03*
D13*
%TO.P,REF\u002A\u002A22,8*%
%TO.N,A2*%
X132050000Y-83700000D03*
D14*
X132850000Y-83650000D03*
D12*
X133627500Y-83550000D03*
D13*
%TO.P,REF\u002A\u002A22,9*%
%TO.N,GND*%
X132600000Y-84900000D03*
D19*
X133350000Y-84950000D03*
D18*
X134125000Y-84900000D03*
%TD*%
D11*
%TO.P,10 nF,1*%
%TO.N,K7*%
X6500000Y-95500000D03*
%TO.P,10 nF,2*%
%TO.N,GND*%
X9450000Y-95500000D03*
%TD*%
D12*
%TO.P,REF\u002A\u002A23,1*%
%TO.N,N/C*%
X184452500Y-82450000D03*
%TO.P,REF\u002A\u002A23,4*%
X184452500Y-83550000D03*
D13*
%TO.P,REF\u002A\u002A23,7*%
%TO.N,K3*%
X180850000Y-82200000D03*
D14*
X181650000Y-82250000D03*
D12*
X182427500Y-82450000D03*
D15*
X183200000Y-82450000D03*
D16*
X183700000Y-83600000D03*
D17*
X184025000Y-84900000D03*
D18*
X184475000Y-84900000D03*
D13*
%TO.P,REF\u002A\u002A23,8*%
%TO.N,A3*%
X180850000Y-83700000D03*
D14*
X181650000Y-83650000D03*
D12*
X182427500Y-83550000D03*
D13*
%TO.P,REF\u002A\u002A23,9*%
%TO.N,GND*%
X181400000Y-84900000D03*
D19*
X182150000Y-84950000D03*
D18*
X182925000Y-84900000D03*
%TD*%
D11*
%TO.P,10 nF,1*%
%TO.N,K5*%
X6500000Y-85500000D03*
%TO.P,10 nF,2*%
%TO.N,GND*%
X9450000Y-85500000D03*
%TD*%
%TO.P,10 nF,1*%
%TO.N,K6*%
X6500000Y-90500000D03*
%TO.P,10 nF,2*%
%TO.N,GND*%
X9450000Y-90500000D03*
%TD*%
D12*
%TO.P,REF\u002A\u002A46,1*%
%TO.N,N/C*%
X330852500Y-82450000D03*
%TO.P,REF\u002A\u002A46,4*%
X330852500Y-83550000D03*
D13*
%TO.P,REF\u002A\u002A46,7*%
%TO.N,K6*%
X327250000Y-82200000D03*
D14*
X328050000Y-82250000D03*
D12*
X328827500Y-82450000D03*
D15*
X329600000Y-82450000D03*
D16*
X330100000Y-83600000D03*
D17*
X330425000Y-84900000D03*
D18*
X330875000Y-84900000D03*
D13*
%TO.P,REF\u002A\u002A46,8*%
%TO.N,A6*%
X327250000Y-83700000D03*
D14*
X328050000Y-83650000D03*
D12*
X328827500Y-83550000D03*
D13*
%TO.P,REF\u002A\u002A46,9*%
%TO.N,GND*%
X327800000Y-84900000D03*
D19*
X328550000Y-84950000D03*
D18*
X329325000Y-84900000D03*
%TD*%
D20*
%TO.P,REF\u002A\u002A,*%
%TO.N,*%
X-2700000Y-63650000D03*
X-2700000Y-80950000D03*
D21*
%TO.P,REF\u002A\u002A,1*%
%TO.N,K0*%
X-4400000Y-67500000D03*
%TO.P,REF\u002A\u002A,2*%
%TO.N,A0*%
X-1000000Y-67500000D03*
%TO.P,REF\u002A\u002A,3*%
%TO.N,K1*%
X-4400000Y-68300000D03*
%TO.P,REF\u002A\u002A,4*%
%TO.N,A1*%
X-1000000Y-68300000D03*
%TO.P,REF\u002A\u002A,5*%
%TO.N,K2*%
X-4400000Y-69100000D03*
%TO.P,REF\u002A\u002A,6*%
%TO.N,A2*%
X-1000000Y-69100000D03*
%TO.P,REF\u002A\u002A,7*%
%TO.N,K3*%
X-4400000Y-69900000D03*
%TO.P,REF\u002A\u002A,8*%
%TO.N,A3*%
X-1000000Y-69900000D03*
%TO.P,REF\u002A\u002A,9*%
%TO.N,K4*%
X-4400000Y-73900000D03*
%TO.P,REF\u002A\u002A,10*%
%TO.N,A4*%
X-1000000Y-73900000D03*
%TO.P,REF\u002A\u002A,11*%
%TO.N,K5*%
X-4400000Y-74700000D03*
%TO.P,REF\u002A\u002A,12*%
%TO.N,A5*%
X-1000000Y-74700000D03*
%TO.P,REF\u002A\u002A,13*%
%TO.N,K6*%
X-4400000Y-75500000D03*
%TO.P,REF\u002A\u002A,14*%
%TO.N,A6*%
X-1000000Y-75500000D03*
%TO.P,REF\u002A\u002A,15*%
%TO.N,K7*%
X-4400000Y-76300000D03*
%TO.P,REF\u002A\u002A,16*%
%TO.N,A7*%
X-1000000Y-76300000D03*
%TO.P,REF\u002A\u002A,17*%
%TO.N,GND*%
X-4400000Y-77100000D03*
%TO.P,REF\u002A\u002A,18*%
X-1000000Y-77100000D03*
%TD*%
D12*
%TO.P,REF\u002A\u002A20,1*%
%TO.N,N/C*%
X38052500Y-82450000D03*
%TO.P,REF\u002A\u002A20,4*%
X38052500Y-83550000D03*
D13*
%TO.P,REF\u002A\u002A20,7*%
%TO.N,K0*%
X34450000Y-82200000D03*
D14*
X35250000Y-82250000D03*
D12*
X36027500Y-82450000D03*
D15*
X36800000Y-82450000D03*
D16*
X37300000Y-83600000D03*
D17*
X37625000Y-84900000D03*
D18*
X38075000Y-84900000D03*
D13*
%TO.P,REF\u002A\u002A20,8*%
%TO.N,A0*%
X34450000Y-83700000D03*
D14*
X35250000Y-83650000D03*
D12*
X36027500Y-83550000D03*
D13*
%TO.P,REF\u002A\u002A20,9*%
%TO.N,GND*%
X35000000Y-84900000D03*
D19*
X35750000Y-84950000D03*
D18*
X36525000Y-84900000D03*
%TD*%
D12*
%TO.P,REF\u002A\u002A21,1*%
%TO.N,N/C*%
X86852500Y-82450000D03*
%TO.P,REF\u002A\u002A21,4*%
X86852500Y-83550000D03*
D13*
%TO.P,REF\u002A\u002A21,7*%
%TO.N,K1*%
X83250000Y-82200000D03*
D14*
X84050000Y-82250000D03*
D12*
X84827500Y-82450000D03*
D15*
X85600000Y-82450000D03*
D16*
X86100000Y-83600000D03*
D17*
X86425000Y-84900000D03*
D18*
X86875000Y-84900000D03*
D13*
%TO.P,REF\u002A\u002A21,8*%
%TO.N,A1*%
X83250000Y-83700000D03*
D14*
X84050000Y-83650000D03*
D12*
X84827500Y-83550000D03*
D13*
%TO.P,REF\u002A\u002A21,9*%
%TO.N,GND*%
X83800000Y-84900000D03*
D19*
X84550000Y-84950000D03*
D18*
X85325000Y-84900000D03*
%TD*%
D12*
%TO.P,REF\u002A\u002A45,1*%
%TO.N,N/C*%
X282052500Y-82450000D03*
%TO.P,REF\u002A\u002A45,4*%
X282052500Y-83550000D03*
D13*
%TO.P,REF\u002A\u002A45,7*%
%TO.N,K5*%
X278450000Y-82200000D03*
D14*
X279250000Y-82250000D03*
D12*
X280027500Y-82450000D03*
D15*
X280800000Y-82450000D03*
D16*
X281300000Y-83600000D03*
D17*
X281625000Y-84900000D03*
D18*
X282075000Y-84900000D03*
D13*
%TO.P,REF\u002A\u002A45,8*%
%TO.N,A5*%
X278450000Y-83700000D03*
D14*
X279250000Y-83650000D03*
D12*
X280027500Y-83550000D03*
D13*
%TO.P,REF\u002A\u002A45,9*%
%TO.N,GND*%
X279000000Y-84900000D03*
D19*
X279750000Y-84950000D03*
D18*
X280525000Y-84900000D03*
%TD*%
D11*
%TO.P,10 nF,1*%
%TO.N,K0*%
X6550000Y-61000000D03*
%TO.P,10 nF,2*%
%TO.N,GND*%
X9500000Y-61000000D03*
%TD*%
D22*
%TO.P,REF\u002A\u002A,1*%
%TO.N,TEMP_OUT*%
X-4300000Y-94334936D03*
D23*
%TO.P,REF\u002A\u002A,2*%
%TO.N,HV*%
X-4300000Y-96834936D03*
%TO.P,REF\u002A\u002A,3*%
%TO.N,GND*%
X-4300000Y-99334936D03*
%TD*%
D24*
%TO.N,GND*%
X8000000Y-99000000D03*
%TO.N,K0*%
X8000000Y-61000000D03*
X-3000000Y-67000000D03*
%TO.N,A0*%
X3000000Y-62000000D03*
%TO.N,K1*%
X-3000000Y-68000000D03*
X8000000Y-65500000D03*
%TO.N,A1*%
X2000000Y-66100000D03*
%TO.N,K2*%
X-3000000Y-69000000D03*
X8000000Y-70500000D03*
%TO.N,A2*%
X8000000Y-73000000D03*
%TO.N,K3*%
X8000000Y-75500000D03*
X-3000000Y-70000000D03*
%TO.N,A3*%
X8600000Y-78000000D03*
%TO.N,K4*%
X-3000000Y-72500000D03*
X8000000Y-80500000D03*
%TO.N,A4*%
X8000000Y-82500000D03*
%TO.N,K5*%
X8000000Y-85500000D03*
X-3000000Y-73500000D03*
%TO.N,A5*%
X8000000Y-88000000D03*
%TO.N,K6*%
X8000000Y-90500000D03*
X-2972776Y-74527224D03*
%TO.N,A6*%
X8000000Y-93000000D03*
%TO.N,K7*%
X8000000Y-95500000D03*
X-3000000Y-75500000D03*
%TO.N,A7*%
X2500000Y-90500000D03*
%TD*%
D25*
%TO.N,GND*%
X-2399000Y-73500000D02*
X-1899000Y-73000000D01*
X-4400000Y-77100000D02*
X-1000000Y-77100000D01*
X8849000Y-79899000D02*
X9450000Y-80500000D01*
X2100000Y-96900000D02*
X-334936Y-99334936D01*
X2600000Y-94700000D02*
X2600000Y-96900000D01*
D26*
X4700000Y-99000000D02*
X2600000Y-96900000D01*
D25*
X-2371776Y-76328223D02*
X-2371776Y-73527224D01*
X8120740Y-79899000D02*
X8849000Y-79899000D01*
X-1899000Y-73000000D02*
X1221740Y-73000000D01*
X9450000Y-85500000D02*
X9450000Y-80500000D01*
X9500000Y-61000000D02*
X9500000Y-65450000D01*
X9450000Y-95500000D02*
X9450000Y-90500000D01*
D26*
X8000000Y-99000000D02*
X4700000Y-99000000D01*
X9450000Y-97550000D02*
X9450000Y-95500000D01*
D25*
X3250000Y-96900000D02*
X2600000Y-96900000D01*
X9450000Y-65500000D02*
X9450000Y-70500000D01*
X9450000Y-70500000D02*
X9450000Y-75500000D01*
X2600000Y-96900000D02*
X2100000Y-96900000D01*
X9500000Y-65450000D02*
X9450000Y-65500000D01*
X9450000Y-80500000D02*
X9450000Y-75500000D01*
X-1599999Y-77100000D02*
X-2371776Y-76328223D01*
X9450000Y-90500000D02*
X9450000Y-85500000D01*
X-2371776Y-73527224D02*
X-2399000Y-73500000D01*
X1221740Y-73000000D02*
X8120740Y-79899000D01*
X-334936Y-99334936D02*
X-4300000Y-99334936D01*
D26*
X8000000Y-99000000D02*
X9450000Y-97550000D01*
D25*
X-1000000Y-77100000D02*
X-1599999Y-77100000D01*
%TO.N,K0*%
X-4400000Y-67500000D02*
X-3500000Y-67500000D01*
X-3500000Y-67500000D02*
X-3000000Y-67000000D01*
X6550000Y-61000000D02*
X8000000Y-61000000D01*
%TO.N,A0*%
X0Y-66500000D02*
X-1000000Y-67500000D01*
X0Y-65000000D02*
X0Y-66500000D01*
X3000000Y-62000000D02*
X0Y-65000000D01*
%TO.N,K1*%
X6500000Y-65500000D02*
X8000000Y-65500000D01*
X-4400000Y-68300000D02*
X-3300000Y-68300000D01*
X-3300000Y-68300000D02*
X-3000000Y-68000000D01*
%TO.N,A1*%
X-200000Y-68300000D02*
X-1000000Y-68300000D01*
X2000000Y-66100000D02*
X-200000Y-68300000D01*
%TO.N,K2*%
X6500000Y-70500000D02*
X8000000Y-70500000D01*
X-4400000Y-69100000D02*
X-3100000Y-69100000D01*
X-3100000Y-69100000D02*
X-3000000Y-69000000D01*
%TO.N,A2*%
X8000000Y-73000000D02*
X6500000Y-73000000D01*
X2600000Y-69100000D02*
X-1000000Y-69100000D01*
X6500000Y-73000000D02*
X2600000Y-69100000D01*
%TO.N,K3*%
X-4400000Y-69900000D02*
X-3100000Y-69900000D01*
X6500000Y-75500000D02*
X8000000Y-75500000D01*
X-3100000Y-69900000D02*
X-3000000Y-70000000D01*
%TO.N,A3*%
X-1000000Y-70211160D02*
X-1000000Y-69900000D01*
X6788840Y-78000000D02*
X-1000000Y-70211160D01*
X8600000Y-78000000D02*
X6788840Y-78000000D01*
%TO.N,K4*%
X6500000Y-80500000D02*
X8000000Y-80500000D01*
X-4400000Y-73900000D02*
X-3000000Y-72500000D01*
%TO.N,A4*%
X5500000Y-79800001D02*
X-400001Y-73900000D01*
X5500000Y-81711160D02*
X5500000Y-79800001D01*
X-400001Y-73900000D02*
X-1000000Y-73900000D01*
X8000000Y-82500000D02*
X6288840Y-82500000D01*
X6288840Y-82500000D02*
X5500000Y-81711160D01*
%TO.N,K5*%
X6500000Y-85500000D02*
X8000000Y-85500000D01*
X-3000000Y-73705918D02*
X-3000000Y-73500000D01*
X-4400000Y-74700000D02*
X-3994082Y-74700000D01*
X-3994082Y-74700000D02*
X-3000000Y-73705918D01*
%TO.N,A5*%
X8000000Y-88000000D02*
X6788840Y-88000000D01*
X4316449Y-79183550D02*
X-167101Y-74700000D01*
X-167101Y-74700000D02*
X-1000000Y-74700000D01*
X6788840Y-88000000D02*
X4316449Y-85527609D01*
X4316449Y-85527609D02*
X4316449Y-79183550D01*
%TO.N,K6*%
X-4400000Y-75500000D02*
X-3945552Y-75500000D01*
X-3945552Y-75500000D02*
X-2972776Y-74527224D01*
X6500000Y-90500000D02*
X8000000Y-90500000D01*
%TO.N,A6*%
X3915449Y-90126609D02*
X3915449Y-79349650D01*
X65799Y-75500000D02*
X-1000000Y-75500000D01*
X8000000Y-93000000D02*
X6788840Y-93000000D01*
X3915449Y-79349650D02*
X65799Y-75500000D01*
X6788840Y-93000000D02*
X3915449Y-90126609D01*
%TO.N,K7*%
X-4400000Y-76300000D02*
X-3800000Y-76300000D01*
X6500000Y-95500000D02*
X8000000Y-95500000D01*
X-3800000Y-76300000D02*
X-3000000Y-75500000D01*
%TO.N,A7*%
X2500000Y-79200001D02*
X-400001Y-76300000D01*
X-400001Y-76300000D02*
X-1000000Y-76300000D01*
X2500000Y-90500000D02*
X2500000Y-79200001D01*
%TO.N,HV*%
X3900000Y-94700000D02*
X3174000Y-93974000D01*
X3174000Y-93974000D02*
X-1439064Y-93974000D01*
X-1439064Y-93974000D02*
X-4300000Y-96834936D01*
%TO.N,TEMP_OUT*%
X4376000Y-96424000D02*
X4376000Y-93876000D01*
X4073000Y-93573000D02*
X-3538064Y-93573000D01*
X4376000Y-93876000D02*
X4073000Y-93573000D01*
X3900000Y-96900000D02*
X4376000Y-96424000D01*
X-3538064Y-93573000D02*
X-4300000Y-94334936D01*
%TD*%
%TA.AperFunction,Conductor*%
%TO.N,GND*%
G36*
X8087273Y-78620185D02*
G01*
X8089125Y-78621398D01*
X8220814Y-78709390D01*
X8220827Y-78709397D01*
X8366498Y-78769735D01*
X8366503Y-78769737D01*
X8394250Y-78775256D01*
X8428442Y-78782058D01*
X8490353Y-78814443D01*
X8524927Y-78875159D01*
X8521188Y-78944928D01*
X8509790Y-78968772D01*
X8440643Y-79080875D01*
X8440641Y-79080880D01*
X8385494Y-79247302D01*
X8385493Y-79247309D01*
X8375000Y-79350013D01*
X8375000Y-79607315D01*
X8355315Y-79674354D01*
X8302511Y-79720109D01*
X8233353Y-79730053D01*
X8226809Y-79728932D01*
X8078845Y-79699500D01*
X8078842Y-79699500D01*
X7921158Y-79699500D01*
X7921155Y-79699500D01*
X7766510Y-79730261D01*
X7766502Y-79730263D01*
X7746950Y-79738362D01*
X7677480Y-79745829D01*
X7615002Y-79714554D01*
X7579350Y-79654464D01*
X7575499Y-79623800D01*
X7575499Y-79349998D01*
X7575498Y-79349981D01*
X7564999Y-79247203D01*
X7564998Y-79247200D01*
X7537585Y-79164474D01*
X7509814Y-79080666D01*
X7417712Y-78931344D01*
X7298549Y-78812181D01*
X7265064Y-78750858D01*
X7270048Y-78681166D01*
X7311920Y-78625233D01*
X7377384Y-78600816D01*
X7386230Y-78600500D01*
X8020234Y-78600500D01*
X8087273Y-78620185D01*
G37*
%TD.AperFunction*%
%TA.AperFunction,Conductor*%
G36*
X5730809Y-59120185D02*
G01*
X5776564Y-59172989D01*
X5786508Y-59242147D01*
X5757483Y-59305703D01*
X5751451Y-59312181D01*
X5632289Y-59431342D01*
X5540187Y-59580663D01*
X5540185Y-59580668D01*
X5540115Y-59580880D01*
X5485001Y-59747203D01*
X5485001Y-59747204D01*
X5485000Y-59747204D01*
X5474500Y-59849983D01*
X5474500Y-62150001D01*
X5474501Y-62150018D01*
X5485000Y-62252796D01*
X5485001Y-62252799D01*
X5526880Y-62379179D01*
X5540186Y-62419334D01*
X5632288Y-62568656D01*
X5756344Y-62692712D01*
X5905666Y-62784814D01*
X6072203Y-62839999D01*
X6174991Y-62850500D01*
X6925008Y-62850499D01*
X6925016Y-62850498D01*
X6925019Y-62850498D01*
X6981302Y-62844748D01*
X7027797Y-62839999D01*
X7194334Y-62784814D01*
X7343656Y-62692712D01*
X7467712Y-62568656D01*
X7559814Y-62419334D01*
X7614999Y-62252797D01*
X7625500Y-62150009D01*
X7625499Y-61892782D01*
X7645183Y-61825745D01*
X7697987Y-61779990D01*
X7767146Y-61770046D01*
X7773691Y-61771167D01*
X7921155Y-61800500D01*
X7921158Y-61800500D01*
X8078844Y-61800500D01*
X8078845Y-61800499D01*
X8233497Y-61769737D01*
X8253548Y-61761431D01*
X8323013Y-61753962D01*
X8385493Y-61785235D01*
X8421147Y-61845323D01*
X8425000Y-61875992D01*
X8425000Y-62149970D01*
X8425001Y-62149987D01*
X8435494Y-62252697D01*
X8490641Y-62419119D01*
X8490643Y-62419124D01*
X8582684Y-62568345D01*
X8706654Y-62692315D01*
X8855875Y-62784356D01*
X8855880Y-62784358D01*
X9022302Y-62839505D01*
X9022309Y-62839506D01*
X9125019Y-62849999D01*
X9249999Y-62849999D01*
X9750000Y-62849999D01*
X9874972Y-62849999D01*
X9874986Y-62849998D01*
X9977697Y-62839505D01*
X10144119Y-62784358D01*
X10144124Y-62784356D01*
X10293345Y-62692315D01*
X10417315Y-62568345D01*
X10509356Y-62419124D01*
X10509358Y-62419119D01*
X10564505Y-62252697D01*
X10564506Y-62252690D01*
X10574999Y-62149986D01*
X10575000Y-62149973D01*
X10575000Y-61250000D01*
X9750000Y-61250000D01*
X9750000Y-62849999D01*
X9249999Y-62849999D01*
X9250000Y-62849998D01*
X9250000Y-61124000D01*
X9269685Y-61056961D01*
X9322489Y-61011206D01*
X9374000Y-61000000D01*
X9500000Y-61000000D01*
X9500000Y-60874000D01*
X9519685Y-60806961D01*
X9572489Y-60761206D01*
X9624000Y-60750000D01*
X10574999Y-60750000D01*
X10574999Y-59850028D01*
X10574998Y-59850013D01*
X10564505Y-59747302D01*
X10509358Y-59580880D01*
X10509356Y-59580875D01*
X10417315Y-59431654D01*
X10297842Y-59312181D01*
X10264357Y-59250858D01*
X10269341Y-59181166D01*
X10311213Y-59125233D01*
X10376677Y-59100816D01*
X10385523Y-59100500D01*
X412675500Y-59100500D01*
X412742539Y-59120185D01*
X412788294Y-59172989D01*
X412799500Y-59224500D01*
X412799500Y-106775500D01*
X412779815Y-106842539D01*
X412727011Y-106888294D01*
X412675500Y-106899500D01*
X-6475500Y-106899500D01*
X-6542539Y-106879815D01*
X-6588294Y-106827011D01*
X-6599500Y-106775500D01*
X-6599500Y-101362332D01*
X4399500Y-101362332D01*
X4399500Y-101637667D01*
X4399501Y-101637684D01*
X4435438Y-101910655D01*
X4435439Y-101910660D01*
X4435440Y-101910666D01*
X4435441Y-101910668D01*
X4506704Y-102176630D01*
X4612075Y-102431017D01*
X4612080Y-102431028D01*
X4691809Y-102569121D01*
X4749751Y-102669479D01*
X4749753Y-102669482D01*
X4749754Y-102669483D01*
X4917370Y-102887926D01*
X4917376Y-102887933D01*
X5112066Y-103082623D01*
X5112072Y-103082628D01*
X5330521Y-103250249D01*
X5483778Y-103338732D01*
X5568971Y-103387919D01*
X5568976Y-103387921D01*
X5568979Y-103387923D01*
X5823368Y-103493295D01*
X6089334Y-103564560D01*
X6362326Y-103600500D01*
X6362333Y-103600500D01*
X6637667Y-103600500D01*
X6637674Y-103600500D01*
X6910666Y-103564560D01*
X7176632Y-103493295D01*
X7431021Y-103387923D01*
X7669479Y-103250249D01*
X7887928Y-103082628D01*
X8082628Y-102887928D01*
X8250249Y-102669479D01*
X8387923Y-102431021D01*
X8493295Y-102176632D01*
X8564560Y-101910666D01*
X8600500Y-101637674D01*
X8600500Y-101362326D01*
X8564560Y-101089334D01*
X8493295Y-100823368D01*
X8387923Y-100568979D01*
X8387921Y-100568976D01*
X8387919Y-100568971D01*
X8338732Y-100483778D01*
X8250249Y-100330521D01*
X8082628Y-100112072D01*
X8082623Y-100112066D01*
X7887933Y-99917376D01*
X7887926Y-99917370D01*
X7669483Y-99749754D01*
X7669482Y-99749753D01*
X7669479Y-99749751D01*
X7574407Y-99694861D01*
X7431028Y-99612080D01*
X7431017Y-99612075D01*
X7176630Y-99506704D01*
X7043649Y-99471072D01*
X6910666Y-99435440D01*
X6910660Y-99435439D01*
X6910655Y-99435438D01*
X6637684Y-99399501D01*
X6637679Y-99399500D01*
X6637674Y-99399500D01*
X6362326Y-99399500D01*
X6362320Y-99399500D01*
X6362315Y-99399501D01*
X6089344Y-99435438D01*
X6089337Y-99435439D01*
X6089334Y-99435440D01*
X6033125Y-99450500D01*
X5823369Y-99506704D01*
X5568982Y-99612075D01*
X5568971Y-99612080D01*
X5330516Y-99749754D01*
X5112073Y-99917370D01*
X5112066Y-99917376D01*
X4917376Y-100112066D01*
X4917370Y-100112073D01*
X4749754Y-100330516D01*
X4612080Y-100568971D01*
X4612075Y-100568982D01*
X4506704Y-100823369D01*
X4435441Y-101089331D01*
X4435438Y-101089344D01*
X4399501Y-101362315D01*
X4399500Y-101362332D01*
X-6599500Y-101362332D01*
X-6599500Y-93684927D01*
X-5775500Y-93684927D01*
X-5775499Y-94984944D01*
X-5764999Y-95087733D01*
X-5709814Y-95254270D01*
X-5617712Y-95403592D01*
X-5493656Y-95527648D01*
X-5344334Y-95619750D01*
X-5344331Y-95619750D01*
X-5338879Y-95623114D01*
X-5292154Y-95675062D01*
X-5280931Y-95744024D01*
X-5308774Y-95808106D01*
X-5316294Y-95816334D01*
X-5455109Y-95955149D01*
X-5580048Y-96127115D01*
X-5580049Y-96127117D01*
X-5580051Y-96127120D01*
X-5676557Y-96316524D01*
X-5742246Y-96518693D01*
X-5775500Y-96728649D01*
X-5775500Y-96941223D01*
X-5742246Y-97151179D01*
X-5676557Y-97353348D01*
X-5580051Y-97542752D01*
X-5580048Y-97542756D01*
X-5455109Y-97714722D01*
X-5455106Y-97714724D01*
X-5455104Y-97714728D01*
X-5304792Y-97865040D01*
X-5139779Y-97984927D01*
X-5097115Y-98040256D01*
X-5091136Y-98109869D01*
X-5123741Y-98171665D01*
X-5139781Y-98185563D01*
X-5304459Y-98305208D01*
X-5304464Y-98305212D01*
X-5454723Y-98455471D01*
X-5454727Y-98455476D01*
X-5579620Y-98627378D01*
X-5676095Y-98816718D01*
X-5741757Y-99018806D01*
X-5741757Y-99018809D01*
X-5752231Y-99084936D01*
X-4704146Y-99084936D01*
X-4742630Y-99151593D01*
X-4775000Y-99272401D01*
X-4775000Y-99397471D01*
X-4742630Y-99518279D01*
X-4704146Y-99584936D01*
X-5752231Y-99584936D01*
X-5741757Y-99651062D01*
X-5741757Y-99651065D01*
X-5676095Y-99853153D01*
X-5579620Y-100042493D01*
X-5454727Y-100214395D01*
X-5454723Y-100214400D01*
X-5304464Y-100364659D01*
X-5304459Y-100364663D01*
X-5132557Y-100489556D01*
X-4943217Y-100586031D01*
X-4741127Y-100651693D01*
X-4550000Y-100681964D01*
X-4550000Y-99739081D01*
X-4483343Y-99777566D01*
X-4362535Y-99809936D01*
X-4237465Y-99809936D01*
X-4116657Y-99777566D01*
X-4050000Y-99739081D01*
X-4050000Y-100681965D01*
X-3858872Y-100651693D01*
X-3656782Y-100586031D01*
X-3467442Y-100489556D01*
X-3295540Y-100364663D01*
X-3295535Y-100364659D01*
X-3145276Y-100214400D01*
X-3145272Y-100214395D01*
X-3020379Y-100042493D01*
X-2923904Y-99853153D01*
X-2858242Y-99651065D01*
X-2858242Y-99651062D01*
X-2847769Y-99584936D01*
X-3895854Y-99584936D01*
X-3857370Y-99518279D01*
X-3825000Y-99397471D01*
X-3825000Y-99272401D01*
X-3857370Y-99151593D01*
X-3895854Y-99084936D01*
X-2847769Y-99084936D01*
X-2858242Y-99018809D01*
X-2858242Y-99018806D01*
X-2923904Y-98816718D01*
X-3020379Y-98627378D01*
X-3145272Y-98455476D01*
X-3145276Y-98455471D01*
X-3295535Y-98305212D01*
X-3295540Y-98305208D01*
X-3460218Y-98185563D01*
X-3502884Y-98130233D01*
X-3508863Y-98060620D01*
X-3476257Y-97998825D01*
X-3460218Y-97984927D01*
X-3295214Y-97865045D01*
X-3295209Y-97865041D01*
X-3144890Y-97714722D01*
X-3019951Y-97542756D01*
X-2923444Y-97353350D01*
X-2922517Y-97350499D01*
X-2898315Y-97276013D01*
X1925001Y-97276013D01*
X1940118Y-97390859D01*
X1940122Y-97390871D01*
X1999316Y-97533780D01*
X1999319Y-97533786D01*
X2093489Y-97656509D01*
X2093490Y-97656510D01*
X2216213Y-97750680D01*
X2216219Y-97750683D01*
X2359128Y-97809877D01*
X2359140Y-97809881D01*
X2424998Y-97818550D01*
X2425000Y-97818549D01*
X2425000Y-97075000D01*
X1925001Y-97075000D01*
X1925001Y-97276013D01*
X-2898315Y-97276013D01*
X-2857754Y-97151179D01*
X-2844683Y-97068656D01*
X-2834481Y-97004240D01*
X-2824500Y-96941222D01*
X-2824500Y-96728649D01*
X-2836954Y-96650016D01*
X-2856915Y-96523988D01*
X1925000Y-96523988D01*
X1925000Y-96725000D01*
X2425000Y-96725000D01*
X2425000Y-95981450D01*
X2424998Y-95981449D01*
X2359140Y-95990118D01*
X2359128Y-95990122D01*
X2216219Y-96049316D01*
X2216213Y-96049319D01*
X2093490Y-96143489D01*
X2093489Y-96143490D01*
X1999319Y-96266213D01*
X1999316Y-96266219D01*
X1940122Y-96409128D01*
X1940120Y-96409133D01*
X1925000Y-96523988D01*
X-2856915Y-96523988D01*
X-2857754Y-96518693D01*
X-2902654Y-96380503D01*
X-2903107Y-96378977D01*
X-2903189Y-96345581D01*
X-2904142Y-96312226D01*
X-2903275Y-96310716D01*
X-2903279Y-96309107D01*
X-2894155Y-96294834D01*
X-2871897Y-96256068D01*
X-1691842Y-95076013D01*
X1925001Y-95076013D01*
X1940118Y-95190859D01*
X1940122Y-95190871D01*
X1999316Y-95333780D01*
X1999319Y-95333786D01*
X2093489Y-95456509D01*
X2093490Y-95456510D01*
X2216213Y-95550680D01*
X2216219Y-95550683D01*
X2359128Y-95609877D01*
X2359140Y-95609881D01*
X2424998Y-95618550D01*
X2425000Y-95618549D01*
X2425000Y-94875000D01*
X1925001Y-94875000D01*
X1925001Y-95076013D01*
X-1691842Y-95076013D01*
X-1226648Y-94610819D01*
X-1165325Y-94577334D01*
X-1138967Y-94574500D01*
X2476000Y-94574500D01*
X2543039Y-94594185D01*
X2588794Y-94646989D01*
X2600000Y-94698500D01*
X2600000Y-94700000D01*
X2651000Y-94700000D01*
X2718039Y-94719685D01*
X2763794Y-94772489D01*
X2775000Y-94824000D01*
X2775000Y-95618548D01*
X2840869Y-95609878D01*
X2983782Y-95550682D01*
X2983786Y-95550680D01*
X3106509Y-95456510D01*
X3151308Y-95398127D01*
X3207735Y-95356924D01*
X3277481Y-95352769D01*
X3338402Y-95386981D01*
X3348059Y-95398126D01*
X3393132Y-95456866D01*
X3515963Y-95551117D01*
X3515962Y-95551117D01*
X3582897Y-95578842D01*
X3659001Y-95610365D01*
X3667684Y-95611508D01*
X3668385Y-95611818D01*
X3669147Y-95611709D01*
X3700314Y-95625942D01*
X3731581Y-95639774D01*
X3732003Y-95640414D01*
X3732703Y-95640734D01*
X3751212Y-95669535D01*
X3770053Y-95698098D01*
X3770200Y-95699081D01*
X3770477Y-95699512D01*
X3775500Y-95734447D01*
X3775500Y-95865552D01*
X3755815Y-95932591D01*
X3703011Y-95978346D01*
X3667692Y-95988490D01*
X3659004Y-95989634D01*
X3659001Y-95989634D01*
X3659001Y-95989635D01*
X3649843Y-95993428D01*
X3621796Y-96005045D01*
X3552326Y-96012511D01*
X3526896Y-96005044D01*
X3490867Y-95990121D01*
X3425000Y-95981448D01*
X3425000Y-96059903D01*
X3418535Y-96081916D01*
X3416594Y-96104781D01*
X3407913Y-96118091D01*
X3405315Y-96126942D01*
X3399268Y-96135530D01*
X3393825Y-96142601D01*
X3393133Y-96143133D01*
X3298883Y-96265963D01*
X3298878Y-96265974D01*
X3297268Y-96268067D01*
X3268979Y-96288660D01*
X3240948Y-96309129D01*
X3240855Y-96309134D01*
X3240781Y-96309189D01*
X3205973Y-96311212D01*
X3171202Y-96313284D01*
X3171121Y-96313238D01*
X3171030Y-96313244D01*
X3140799Y-96296210D01*
X3110282Y-96279072D01*
X3110238Y-96278990D01*
X3110158Y-96278945D01*
X3093787Y-96247991D01*
X3077529Y-96217355D01*
X3077515Y-96217223D01*
X3077493Y-96217181D01*
X3077501Y-96217082D01*
X3075000Y-96192440D01*
X3075000Y-95981450D01*
X3074998Y-95981449D01*
X3009135Y-95990119D01*
X3009129Y-95990121D01*
X2972449Y-96005314D01*
X2902980Y-96012781D01*
X2877548Y-96005314D01*
X2840867Y-95990121D01*
X2775000Y-95981448D01*
X2775000Y-97818548D01*
X2840869Y-97809878D01*
X2877546Y-97794686D01*
X2947015Y-97787216D01*
X2972454Y-97794686D01*
X3009128Y-97809877D01*
X3009140Y-97809881D01*
X3074998Y-97818550D01*
X3075000Y-97818549D01*
X3075000Y-97607559D01*
X3083422Y-97578876D01*
X3089386Y-97549588D01*
X3093160Y-97545711D01*
X3094685Y-97540520D01*
X3117270Y-97520949D01*
X3138128Y-97499528D01*
X3143401Y-97498307D01*
X3147489Y-97494765D01*
X3177071Y-97490511D01*
X3206197Y-97483768D01*
X3211291Y-97485591D01*
X3216647Y-97484821D01*
X3243836Y-97497237D01*
X3271981Y-97507310D01*
X3277345Y-97512541D01*
X3280203Y-97513846D01*
X3297268Y-97531932D01*
X3298877Y-97534022D01*
X3298883Y-97534037D01*
X3393133Y-97656867D01*
X3393827Y-97657400D01*
X3399268Y-97664469D01*
X3409121Y-97689848D01*
X3422166Y-97713738D01*
X3423609Y-97727167D01*
X3424555Y-97729602D01*
X3424107Y-97731798D01*
X3425000Y-97740096D01*
X3425000Y-97818548D01*
X3490867Y-97809878D01*
X3526892Y-97794956D01*
X3596361Y-97787486D01*
X3621789Y-97794951D01*
X3659001Y-97810365D01*
X3773960Y-97825500D01*
X3773967Y-97825500D01*
X4026033Y-97825500D01*
X4026040Y-97825500D01*
X4140999Y-97810365D01*
X4284037Y-97751117D01*
X4406867Y-97656867D01*
X4501117Y-97534037D01*
X4560365Y-97390999D01*
X4575500Y-97276040D01*
X4575500Y-97125097D01*
X4595185Y-97058058D01*
X4611819Y-97037416D01*
X4708013Y-96941222D01*
X4856520Y-96792716D01*
X4935577Y-96655784D01*
X4976501Y-96503057D01*
X4976501Y-96344942D01*
X4976501Y-96337347D01*
X4976500Y-96337329D01*
X4976500Y-93965060D01*
X4976501Y-93965047D01*
X4976501Y-93796944D01*
X4975376Y-93792744D01*
X4935577Y-93644216D01*
X4910520Y-93600816D01*
X4856524Y-93507290D01*
X4856518Y-93507282D01*
X4570961Y-93221726D01*
X4570959Y-93221723D01*
X4441717Y-93092481D01*
X4441716Y-93092480D01*
X4354904Y-93042360D01*
X4354904Y-93042359D01*
X4354900Y-93042358D01*
X4304785Y-93013423D01*
X4152057Y-92972499D01*
X3993943Y-92972499D01*
X3986347Y-92972499D01*
X3986331Y-92972500D01*
X-3459007Y-92972500D01*
X-3617122Y-92972500D01*
X-3645900Y-92980211D01*
X-3677992Y-92984436D01*
X-5075001Y-92984436D01*
X-5075018Y-92984437D01*
X-5177796Y-92994936D01*
X-5177799Y-92994937D01*
X-5320904Y-93042358D01*
X-5344334Y-93050122D01*
X-5493656Y-93142224D01*
X-5617712Y-93266280D01*
X-5709814Y-93415602D01*
X-5764999Y-93582139D01*
X-5775500Y-93684927D01*
X-6599500Y-93684927D01*
X-6599500Y-80833955D01*
X-4470500Y-80833955D01*
X-4470500Y-81066045D01*
X-4440206Y-81296149D01*
X-4380137Y-81520330D01*
X-4291320Y-81734752D01*
X-4175276Y-81935748D01*
X-4033989Y-82119877D01*
X-3869877Y-82283989D01*
X-3685748Y-82425276D01*
X-3484752Y-82541320D01*
X-3270330Y-82630137D01*
X-3046149Y-82690206D01*
X-2816045Y-82720500D01*
X-2816038Y-82720500D01*
X-2583962Y-82720500D01*
X-2583955Y-82720500D01*
X-2353851Y-82690206D01*
X-2129670Y-82630137D01*
X-1915248Y-82541320D01*
X-1915240Y-82541315D01*
X-1915237Y-82541314D01*
X-1714256Y-82425279D01*
X-1714254Y-82425278D01*
X-1530124Y-82283990D01*
X-1530117Y-82283984D01*
X-1366015Y-82119882D01*
X-1366009Y-82119875D01*
X-1224721Y-81935745D01*
X-1224720Y-81935743D01*
X-1108685Y-81734762D01*
X-1108677Y-81734745D01*
X-1019862Y-81520328D01*
X-963833Y-81311222D01*
X-959794Y-81296149D01*
X-953686Y-81249754D01*
X-929500Y-81066052D01*
X-929500Y-80833947D01*
X-959794Y-80603851D01*
X-1019862Y-80379671D01*
X-1108677Y-80165254D01*
X-1108685Y-80165237D01*
X-1224720Y-79964256D01*
X-1224721Y-79964254D01*
X-1366009Y-79780124D01*
X-1366015Y-79780117D01*
X-1530117Y-79616015D01*
X-1530124Y-79616009D01*
X-1714254Y-79474721D01*
X-1714256Y-79474720D01*
X-1915237Y-79358685D01*
X-1915262Y-79358672D01*
X-1953215Y-79342952D01*
X-2007618Y-79299111D01*
X-2029682Y-79232816D01*
X-2012402Y-79165117D01*
X-2008863Y-79159502D01*
X-1915286Y-79019453D01*
X-1915278Y-79019439D01*
X-1848529Y-78858291D01*
X-1848527Y-78858283D01*
X-1814500Y-78687218D01*
X-1814500Y-78512781D01*
X-1848527Y-78341716D01*
X-1848529Y-78341708D01*
X-1915278Y-78180560D01*
X-1915283Y-78180551D01*
X-2012186Y-78035526D01*
X-2012189Y-78035522D01*
X-2135522Y-77912189D01*
X-2135526Y-77912186D01*
X-2280551Y-77815283D01*
X-2280560Y-77815278D01*
X-2441708Y-77748529D01*
X-2441716Y-77748527D01*
X-2612781Y-77714500D01*
X-2612786Y-77714500D01*
X-2787214Y-77714500D01*
X-2787218Y-77714500D01*
X-2958283Y-77748527D01*
X-2958291Y-77748529D01*
X-3119439Y-77815278D01*
X-3119448Y-77815283D01*
X-3264473Y-77912186D01*
X-3264477Y-77912189D01*
X-3387810Y-78035522D01*
X-3387813Y-78035526D01*
X-3484716Y-78180551D01*
X-3484719Y-78180557D01*
X-3484720Y-78180558D01*
X-3551471Y-78341709D01*
X-3585500Y-78512786D01*
X-3585500Y-78687214D01*
X-3551471Y-78858291D01*
X-3484720Y-79019442D01*
X-3484716Y-79019447D01*
X-3484716Y-79019448D01*
X-3391136Y-79159501D01*
X-3370258Y-79226179D01*
X-3388743Y-79293559D01*
X-3440721Y-79340249D01*
X-3446785Y-79342953D01*
X-3484745Y-79358676D01*
X-3484762Y-79358685D01*
X-3685743Y-79474720D01*
X-3685745Y-79474721D01*
X-3869875Y-79616009D01*
X-3869882Y-79616015D01*
X-4033984Y-79780117D01*
X-4033990Y-79780124D01*
X-4175278Y-79964254D01*
X-4175279Y-79964256D01*
X-4291314Y-80165237D01*
X-4291320Y-80165248D01*
X-4380137Y-80379670D01*
X-4440206Y-80603851D01*
X-4470500Y-80833955D01*
X-6599500Y-80833955D01*
X-6599500Y-77350000D01*
X-5489525Y-77350000D01*
X-5453156Y-77475185D01*
X-5453154Y-77475191D01*
X-5372773Y-77611108D01*
X-5372767Y-77611116D01*
X-5261116Y-77722767D01*
X-5261108Y-77722773D01*
X-5125188Y-77803155D01*
X-5125185Y-77803156D01*
X-4973553Y-77847210D01*
X-4973547Y-77847211D01*
X-4938118Y-77849999D01*
X-4938106Y-77850000D01*
X-4650000Y-77850000D01*
X-4150000Y-77850000D01*
X-3861894Y-77850000D01*
X-3861881Y-77849999D01*
X-3826452Y-77847211D01*
X-3826446Y-77847210D01*
X-3674814Y-77803156D01*
X-3674811Y-77803155D01*
X-3538891Y-77722773D01*
X-3538883Y-77722767D01*
X-3427232Y-77611116D01*
X-3427226Y-77611108D01*
X-3346845Y-77475191D01*
X-3346843Y-77475185D01*
X-3310474Y-77350000D01*
X-2089525Y-77350000D01*
X-2053156Y-77475185D01*
X-2053154Y-77475191D01*
X-1972773Y-77611108D01*
X-1972767Y-77611116D01*
X-1861116Y-77722767D01*
X-1861108Y-77722773D01*
X-1725188Y-77803155D01*
X-1725185Y-77803156D01*
X-1573553Y-77847210D01*
X-1573547Y-77847211D01*
X-1538118Y-77849999D01*
X-1538106Y-77850000D01*
X-1250000Y-77850000D01*
X-1250000Y-77350000D01*
X-2089525Y-77350000D01*
X-3310474Y-77350000D01*
X-4150000Y-77350000D01*
X-4150000Y-77850000D01*
X-4650000Y-77850000D01*
X-4650000Y-77350000D01*
X-5489525Y-77350000D01*
X-6599500Y-77350000D01*
X-6599500Y-67311837D01*
X-5500500Y-67311837D01*
X-5500499Y-67688162D01*
X-5497709Y-67723627D01*
X-5485252Y-67766503D01*
X-5456519Y-67865405D01*
X-5456519Y-67934595D01*
X-5497709Y-68076373D01*
X-5500500Y-68111837D01*
X-5500499Y-68488162D01*
X-5497709Y-68523627D01*
X-5461140Y-68649500D01*
X-5456519Y-68665405D01*
X-5456519Y-68734595D01*
X-5457611Y-68738355D01*
X-5497709Y-68876373D01*
X-5500500Y-68911837D01*
X-5500499Y-69288162D01*
X-5497709Y-69323627D01*
X-5460409Y-69452014D01*
X-5456519Y-69465405D01*
X-5456519Y-69534595D01*
X-5497709Y-69676373D01*
X-5500500Y-69711837D01*
X-5500499Y-70088162D01*
X-5497709Y-70123627D01*
X-5453618Y-70275390D01*
X-5373170Y-70411420D01*
X-5261420Y-70523170D01*
X-5125390Y-70603618D01*
X-4973627Y-70647709D01*
X-4938163Y-70650500D01*
X-3861838Y-70650499D01*
X-3861826Y-70650498D01*
X-3861824Y-70650498D01*
X-3858310Y-70650221D01*
X-3826373Y-70647709D01*
X-3674610Y-70603618D01*
X-3665561Y-70598266D01*
X-3597843Y-70581083D01*
X-3531579Y-70603240D01*
X-3514760Y-70617317D01*
X-3510289Y-70621789D01*
X-3510286Y-70621791D01*
X-3390419Y-70701884D01*
X-3379179Y-70709394D01*
X-3233497Y-70769737D01*
X-3078845Y-70800499D01*
X-3078844Y-70800500D01*
X-3078842Y-70800500D01*
X-2921156Y-70800500D01*
X-2921153Y-70800499D01*
X-2766503Y-70769737D01*
X-2718853Y-70750000D01*
X-2620827Y-70709397D01*
X-2620814Y-70709390D01*
X-2489711Y-70621789D01*
X-2489707Y-70621786D01*
X-2378213Y-70510292D01*
X-2378210Y-70510288D01*
X-2290609Y-70379185D01*
X-2290602Y-70379172D01*
X-2262675Y-70311748D01*
X-2218835Y-70257344D01*
X-2152540Y-70235279D01*
X-2084841Y-70252558D01*
X-2041383Y-70296077D01*
X-1973170Y-70411420D01*
X-1861420Y-70523170D01*
X-1725390Y-70603618D01*
X-1573627Y-70647709D01*
X-1538163Y-70650500D01*
X-1461259Y-70650499D01*
X-1431824Y-70659142D01*
X-1401843Y-70665661D01*
X-1396822Y-70669419D01*
X-1394221Y-70670183D01*
X-1373590Y-70686805D01*
X-1368716Y-70691680D01*
X-1368713Y-70691681D01*
X4427755Y-76488150D01*
X6303979Y-78364374D01*
X6303989Y-78364385D01*
X6308319Y-78368715D01*
X6308320Y-78368716D01*
X6377424Y-78437820D01*
X6410908Y-78499141D01*
X6405924Y-78568833D01*
X6364053Y-78624767D01*
X6298589Y-78649184D01*
X6289743Y-78649500D01*
X6124999Y-78649500D01*
X6124980Y-78649501D01*
X6022203Y-78660000D01*
X6022200Y-78660001D01*
X5855668Y-78715185D01*
X5855663Y-78715187D01*
X5706342Y-78807289D01*
X5619114Y-78894518D01*
X5557791Y-78928003D01*
X5488099Y-78923019D01*
X5443752Y-78894518D01*
X87588Y-73538354D01*
X80519Y-73531285D01*
X80519Y-73531284D01*
X35416Y-73486181D01*
X16367Y-73461622D01*
X-26825Y-73388585D01*
X-26834Y-73388574D01*
X-138574Y-73276834D01*
X-138583Y-73276827D01*
X-274609Y-73196382D01*
X-274614Y-73196380D01*
X-426366Y-73152292D01*
X-426379Y-73152290D01*
X-461836Y-73149500D01*
X-1538150Y-73149500D01*
X-1538175Y-73149501D01*
X-1573627Y-73152291D01*
X-1725385Y-73196380D01*
X-1725390Y-73196382D01*
X-1861416Y-73276827D01*
X-1861425Y-73276834D01*
X-1973165Y-73388574D01*
X-1973172Y-73388583D01*
X-1982301Y-73404020D01*
X-2033369Y-73451704D01*
X-2102110Y-73464210D01*
X-2166700Y-73437565D01*
X-2206632Y-73380231D01*
X-2210651Y-73365093D01*
X-2230261Y-73266508D01*
X-2230264Y-73266498D01*
X-2290602Y-73120827D01*
X-2290609Y-73120814D01*
X-2325304Y-73068891D01*
X-2346182Y-73002214D01*
X-2327698Y-72934833D01*
X-2325304Y-72931109D01*
X-2290609Y-72879185D01*
X-2290602Y-72879172D01*
X-2230264Y-72733501D01*
X-2230261Y-72733489D01*
X-2199500Y-72578846D01*
X-2199500Y-72421153D01*
X-2230261Y-72266510D01*
X-2230264Y-72266498D01*
X-2290602Y-72120827D01*
X-2290609Y-72120814D01*
X-2378210Y-71989711D01*
X-2378213Y-71989707D01*
X-2489707Y-71878213D01*
X-2489711Y-71878210D01*
X-2620814Y-71790609D01*
X-2620827Y-71790602D01*
X-2766498Y-71730264D01*
X-2766510Y-71730261D01*
X-2921155Y-71699500D01*
X-2921158Y-71699500D01*
X-3078842Y-71699500D01*
X-3078845Y-71699500D01*
X-3233489Y-71730261D01*
X-3233501Y-71730264D01*
X-3379172Y-71790602D01*
X-3379185Y-71790609D01*
X-3510288Y-71878210D01*
X-3510292Y-71878213D01*
X-3621786Y-71989707D01*
X-3621789Y-71989711D01*
X-3709390Y-72120814D01*
X-3709397Y-72120827D01*
X-3766154Y-72257853D01*
X-3769737Y-72266503D01*
X-3774531Y-72290606D01*
X-3800638Y-72421849D01*
X-3833023Y-72483760D01*
X-3834574Y-72485339D01*
X-4462416Y-73113181D01*
X-4523739Y-73146666D01*
X-4550097Y-73149500D01*
X-4938150Y-73149500D01*
X-4938175Y-73149501D01*
X-4973627Y-73152291D01*
X-5125385Y-73196380D01*
X-5125390Y-73196382D01*
X-5261416Y-73276827D01*
X-5261425Y-73276834D01*
X-5373165Y-73388574D01*
X-5373168Y-73388578D01*
X-5373170Y-73388580D01*
X-5453618Y-73524610D01*
X-5477125Y-73605523D01*
X-5492726Y-73659223D01*
X-5497709Y-73676373D01*
X-5500500Y-73711837D01*
X-5500499Y-74088162D01*
X-5497709Y-74123627D01*
X-5461808Y-74247200D01*
X-5456519Y-74265405D01*
X-5456519Y-74334595D01*
X-5460992Y-74349991D01*
X-5497709Y-74476373D01*
X-5500500Y-74511837D01*
X-5500499Y-74888162D01*
X-5497709Y-74923627D01*
X-5465648Y-75033983D01*
X-5456519Y-75065405D01*
X-5456519Y-75134595D01*
X-5497709Y-75276373D01*
X-5500500Y-75311837D01*
X-5500499Y-75688162D01*
X-5497709Y-75723627D01*
X-5466481Y-75831115D01*
X-5456519Y-75865405D01*
X-5456519Y-75934595D01*
X-5497709Y-76076373D01*
X-5500500Y-76111837D01*
X-5500499Y-76488162D01*
X-5497709Y-76523627D01*
X-5460793Y-76650693D01*
X-5456258Y-76666302D01*
X-5456258Y-76683951D01*
X-5451335Y-76700543D01*
X-5456258Y-76735492D01*
X-5489525Y-76849999D01*
X-5489526Y-76850000D01*
X-5385952Y-76850000D01*
X-5318913Y-76869685D01*
X-5298270Y-76886320D01*
X-5261420Y-76923170D01*
X-5125390Y-77003618D01*
X-4973627Y-77047709D01*
X-4938163Y-77050500D01*
X-3861838Y-77050499D01*
X-3861826Y-77050498D01*
X-3861824Y-77050498D01*
X-3858310Y-77050221D01*
X-3826373Y-77047709D01*
X-3674610Y-77003618D01*
X-3538580Y-76923170D01*
X-3538578Y-76923168D01*
X-3538574Y-76923165D01*
X-3501730Y-76886320D01*
X-3440408Y-76852834D01*
X-3414048Y-76850000D01*
X-3310474Y-76850000D01*
X-3310474Y-76849999D01*
X-3332854Y-76772968D01*
X-3332654Y-76703099D01*
X-3301458Y-76650693D01*
X-2985339Y-76334574D01*
X-2924016Y-76301089D01*
X-2921849Y-76300638D01*
X-2831147Y-76282595D01*
X-2766503Y-76269737D01*
X-2751216Y-76263405D01*
X-2620827Y-76209397D01*
X-2620814Y-76209390D01*
X-2489711Y-76121789D01*
X-2489707Y-76121786D01*
X-2378213Y-76010292D01*
X-2378210Y-76010288D01*
X-2294245Y-75884627D01*
X-2240632Y-75839822D01*
X-2171307Y-75831115D01*
X-2108280Y-75861270D01*
X-2071561Y-75920713D01*
X-2072066Y-75988112D01*
X-2097709Y-76076373D01*
X-2100500Y-76111837D01*
X-2100499Y-76488162D01*
X-2097709Y-76523627D01*
X-2060793Y-76650693D01*
X-2056258Y-76666302D01*
X-2056258Y-76735492D01*
X-2089525Y-76849999D01*
X-2089526Y-76850000D01*
X-1985952Y-76850000D01*
X-1918913Y-76869685D01*
X-1898270Y-76886320D01*
X-1861420Y-76923170D01*
X-1725390Y-77003618D01*
X-1573627Y-77047709D01*
X-1538163Y-77050500D01*
X-1100856Y-77050499D01*
X-1074427Y-77053349D01*
X-847565Y-77102850D01*
X-828166Y-77113458D01*
X-806961Y-77119685D01*
X-798117Y-77129891D01*
X-786263Y-77136374D01*
X-775679Y-77155786D01*
X-761206Y-77172489D01*
X-757643Y-77188866D01*
X-752817Y-77197718D01*
X-753539Y-77207729D01*
X-750000Y-77224000D01*
X-750000Y-77850000D01*
X-461894Y-77850000D01*
X-461881Y-77849999D01*
X-426452Y-77847211D01*
X-426446Y-77847210D01*
X-274814Y-77803156D01*
X-274811Y-77803155D01*
X-138891Y-77722773D01*
X-138883Y-77722767D01*
X-70357Y-77654241D01*
X-9034Y-77620756D01*
X60658Y-77625740D01*
X105005Y-77654241D01*
X1863181Y-79412417D01*
X1896666Y-79473740D01*
X1899500Y-79500098D01*
X1899500Y-89920234D01*
X1879815Y-89987273D01*
X1878602Y-89989125D01*
X1790609Y-90120814D01*
X1790602Y-90120827D01*
X1730264Y-90266498D01*
X1730261Y-90266510D01*
X1699500Y-90421153D01*
X1699500Y-90578846D01*
X1730261Y-90733489D01*
X1730264Y-90733501D01*
X1790602Y-90879172D01*
X1790609Y-90879185D01*
X1878210Y-91010288D01*
X1878213Y-91010292D01*
X1989707Y-91121786D01*
X1989711Y-91121789D01*
X2120814Y-91209390D01*
X2120827Y-91209397D01*
X2251216Y-91263405D01*
X2266503Y-91269737D01*
X2421153Y-91300499D01*
X2421156Y-91300500D01*
X2421158Y-91300500D01*
X2578844Y-91300500D01*
X2578845Y-91300499D01*
X2733497Y-91269737D01*
X2879179Y-91209394D01*
X3010289Y-91121789D01*
X3121789Y-91010289D01*
X3209394Y-90879179D01*
X3269737Y-90733497D01*
X3291401Y-90624584D01*
X3296111Y-90615580D01*
X3296836Y-90605444D01*
X3312030Y-90585146D01*
X3323785Y-90562674D01*
X3332617Y-90557644D01*
X3338707Y-90549510D01*
X3362464Y-90540648D01*
X3384501Y-90528100D01*
X3394648Y-90528643D01*
X3404171Y-90525092D01*
X3428950Y-90530482D01*
X3454270Y-90531839D01*
X3464330Y-90538178D01*
X3472444Y-90539943D01*
X3500695Y-90561092D01*
X3500698Y-90561094D01*
X3546733Y-90607129D01*
X3546734Y-90607129D01*
X3553802Y-90614197D01*
X3553804Y-90614199D01*
X6377423Y-93437819D01*
X6410908Y-93499142D01*
X6405924Y-93568834D01*
X6364052Y-93624767D01*
X6298588Y-93649184D01*
X6289743Y-93649500D01*
X6124999Y-93649500D01*
X6124980Y-93649501D01*
X6022203Y-93660000D01*
X6022200Y-93660001D01*
X5855668Y-93715185D01*
X5855663Y-93715187D01*
X5706342Y-93807289D01*
X5582289Y-93931342D01*
X5490187Y-94080663D01*
X5490185Y-94080668D01*
X5490115Y-94080880D01*
X5435001Y-94247203D01*
X5435001Y-94247204D01*
X5435000Y-94247204D01*
X5424500Y-94349983D01*
X5424500Y-96650001D01*
X5424501Y-96650018D01*
X5435000Y-96752796D01*
X5435001Y-96752799D01*
X5490185Y-96919331D01*
X5490187Y-96919336D01*
X5503687Y-96941223D01*
X5582288Y-97068656D01*
X5706344Y-97192712D01*
X5855666Y-97284814D01*
X6022203Y-97339999D01*
X6124991Y-97350500D01*
X6875008Y-97350499D01*
X6875016Y-97350498D01*
X6875019Y-97350498D01*
X6931302Y-97344748D01*
X6977797Y-97339999D01*
X7144334Y-97284814D01*
X7293656Y-97192712D01*
X7417712Y-97068656D01*
X7509814Y-96919334D01*
X7564999Y-96752797D01*
X7575500Y-96650009D01*
X7575499Y-96376197D01*
X7595183Y-96309160D01*
X7647987Y-96263405D01*
X7717146Y-96253461D01*
X7746949Y-96261637D01*
X7766503Y-96269737D01*
X7899591Y-96296210D01*
X7921153Y-96300499D01*
X7921156Y-96300500D01*
X7921158Y-96300500D01*
X8078844Y-96300500D01*
X8142027Y-96287931D01*
X8226809Y-96271067D01*
X8296399Y-96277294D01*
X8351577Y-96320156D01*
X8374822Y-96386046D01*
X8375000Y-96392684D01*
X8375000Y-96649970D01*
X8375001Y-96649987D01*
X8385494Y-96752697D01*
X8440641Y-96919119D01*
X8440643Y-96919124D01*
X8532684Y-97068345D01*
X8656654Y-97192315D01*
X8805875Y-97284356D01*
X8805880Y-97284358D01*
X8972302Y-97339505D01*
X8972309Y-97339506D01*
X9075019Y-97349999D01*
X9199999Y-97349999D01*
X9700000Y-97349999D01*
X9824972Y-97349999D01*
X9824986Y-97349998D01*
X9927697Y-97339505D01*
X10094119Y-97284358D01*
X10094124Y-97284356D01*
X10243345Y-97192315D01*
X10367315Y-97068345D01*
X10459356Y-96919124D01*
X10459358Y-96919119D01*
X10514505Y-96752697D01*
X10514506Y-96752690D01*
X10524999Y-96649986D01*
X10525000Y-96649973D01*
X10525000Y-95750000D01*
X9700000Y-95750000D01*
X9700000Y-97349999D01*
X9199999Y-97349999D01*
X9200000Y-97349998D01*
X9200000Y-95250000D01*
X9700000Y-95250000D01*
X10524999Y-95250000D01*
X10524999Y-94350028D01*
X10524998Y-94350013D01*
X10514505Y-94247302D01*
X10459358Y-94080880D01*
X10459356Y-94080875D01*
X10367315Y-93931654D01*
X10243345Y-93807684D01*
X10094124Y-93715643D01*
X10094119Y-93715641D01*
X9927697Y-93660494D01*
X9927690Y-93660493D01*
X9824986Y-93650000D01*
X9700000Y-93650000D01*
X9700000Y-95250000D01*
X9200000Y-95250000D01*
X9200000Y-93650000D01*
X9075027Y-93650000D01*
X9075012Y-93650001D01*
X8972302Y-93660494D01*
X8805880Y-93715641D01*
X8805871Y-93715645D01*
X8699051Y-93781532D01*
X8616596Y-93847742D01*
X8532682Y-93931657D01*
X8440643Y-94080875D01*
X8440641Y-94080880D01*
X8385494Y-94247302D01*
X8385493Y-94247309D01*
X8375000Y-94350013D01*
X8375000Y-94607315D01*
X8355315Y-94674354D01*
X8302511Y-94720109D01*
X8233353Y-94730053D01*
X8226809Y-94728932D01*
X8078845Y-94699500D01*
X8078842Y-94699500D01*
X7921158Y-94699500D01*
X7921155Y-94699500D01*
X7766510Y-94730261D01*
X7766502Y-94730263D01*
X7746950Y-94738362D01*
X7677480Y-94745829D01*
X7615002Y-94714554D01*
X7579350Y-94654464D01*
X7575499Y-94623800D01*
X7575499Y-94349998D01*
X7575498Y-94349981D01*
X7564999Y-94247203D01*
X7564998Y-94247200D01*
X7540576Y-94173500D01*
X7509814Y-94080666D01*
X7417712Y-93931344D01*
X7298549Y-93812181D01*
X7287936Y-93792744D01*
X7273436Y-93776011D01*
X7271519Y-93762679D01*
X7265064Y-93750858D01*
X7266643Y-93728771D01*
X7263492Y-93706853D01*
X7269087Y-93694601D01*
X7270048Y-93681166D01*
X7283318Y-93663439D01*
X7292517Y-93643297D01*
X7303848Y-93636014D01*
X7311920Y-93625233D01*
X7332665Y-93617495D01*
X7351295Y-93605523D01*
X7373213Y-93602371D01*
X7377384Y-93600816D01*
X7386230Y-93600500D01*
X7420234Y-93600500D01*
X7487273Y-93620185D01*
X7489125Y-93621398D01*
X7620814Y-93709390D01*
X7620827Y-93709397D01*
X7749463Y-93762679D01*
X7766503Y-93769737D01*
X7903276Y-93796943D01*
X7921153Y-93800499D01*
X7921156Y-93800500D01*
X7921158Y-93800500D01*
X8078844Y-93800500D01*
X8078845Y-93800499D01*
X8233497Y-93769737D01*
X8364088Y-93715645D01*
X8379172Y-93709397D01*
X8379172Y-93709396D01*
X8379179Y-93709394D01*
X8510289Y-93621789D01*
X8621789Y-93510289D01*
X8709394Y-93379179D01*
X8769737Y-93233497D01*
X8800500Y-93078842D01*
X8800500Y-92921158D01*
X8800500Y-92921155D01*
X8800499Y-92921153D01*
X8769738Y-92766510D01*
X8769737Y-92766503D01*
X8769735Y-92766498D01*
X8709397Y-92620827D01*
X8709390Y-92620814D01*
X8621789Y-92489711D01*
X8621786Y-92489707D01*
X8544506Y-92412427D01*
X8544500Y-92412422D01*
X8510289Y-92378211D01*
X8460290Y-92344803D01*
X8460283Y-92344797D01*
X8379185Y-92290609D01*
X8379172Y-92290602D01*
X8233501Y-92230264D01*
X8233489Y-92230261D01*
X8078845Y-92199500D01*
X8078842Y-92199500D01*
X7921158Y-92199500D01*
X7921155Y-92199500D01*
X7766510Y-92230261D01*
X7766498Y-92230264D01*
X7620827Y-92290602D01*
X7620814Y-92290609D01*
X7489125Y-92378602D01*
X7471078Y-92384252D01*
X7455169Y-92394477D01*
X7424207Y-92398928D01*
X7422447Y-92399480D01*
X7420234Y-92399500D01*
X7386230Y-92399500D01*
X7319191Y-92379815D01*
X7273436Y-92327011D01*
X7263492Y-92257853D01*
X7292517Y-92194297D01*
X7298549Y-92187819D01*
X7334116Y-92152252D01*
X7417712Y-92068656D01*
X7509814Y-91919334D01*
X7564999Y-91752797D01*
X7575500Y-91650009D01*
X7575499Y-91376197D01*
X7595183Y-91309160D01*
X7647987Y-91263405D01*
X7717146Y-91253461D01*
X7746949Y-91261637D01*
X7766503Y-91269737D01*
X7921153Y-91300499D01*
X7921156Y-91300500D01*
X7921158Y-91300500D01*
X8078844Y-91300500D01*
X8142027Y-91287931D01*
X8226809Y-91271067D01*
X8296399Y-91277294D01*
X8351577Y-91320156D01*
X8374822Y-91386046D01*
X8375000Y-91392684D01*
X8375000Y-91649970D01*
X8375001Y-91649987D01*
X8385494Y-91752697D01*
X8440641Y-91919119D01*
X8440643Y-91919124D01*
X8532684Y-92068345D01*
X8616591Y-92152252D01*
X8699053Y-92218468D01*
X8805869Y-92284353D01*
X8805880Y-92284358D01*
X8972302Y-92339505D01*
X8972309Y-92339506D01*
X9075019Y-92349999D01*
X9199999Y-92349999D01*
X9700000Y-92349999D01*
X9824972Y-92349999D01*
X9824986Y-92349998D01*
X9927697Y-92339505D01*
X10094119Y-92284358D01*
X10094124Y-92284356D01*
X10243345Y-92192315D01*
X10367315Y-92068345D01*
X10459356Y-91919124D01*
X10459358Y-91919119D01*
X10514505Y-91752697D01*
X10514506Y-91752690D01*
X10524999Y-91649986D01*
X10525000Y-91649973D01*
X10525000Y-90750000D01*
X9700000Y-90750000D01*
X9700000Y-92349999D01*
X9199999Y-92349999D01*
X9200000Y-92349998D01*
X9200000Y-90250000D01*
X9700000Y-90250000D01*
X10524999Y-90250000D01*
X10524999Y-89350028D01*
X10524998Y-89350013D01*
X10514505Y-89247302D01*
X10459358Y-89080880D01*
X10459356Y-89080875D01*
X10367315Y-88931654D01*
X10243345Y-88807684D01*
X10094124Y-88715643D01*
X10094119Y-88715641D01*
X9927697Y-88660494D01*
X9927690Y-88660493D01*
X9824986Y-88650000D01*
X9700000Y-88650000D01*
X9700000Y-90250000D01*
X9200000Y-90250000D01*
X9200000Y-88650000D01*
X9075027Y-88650000D01*
X9075012Y-88650001D01*
X8972302Y-88660494D01*
X8805880Y-88715641D01*
X8805871Y-88715645D01*
X8699051Y-88781532D01*
X8616596Y-88847742D01*
X8532682Y-88931657D01*
X8440643Y-89080875D01*
X8440641Y-89080880D01*
X8385494Y-89247302D01*
X8385493Y-89247309D01*
X8375000Y-89350013D01*
X8375000Y-89607315D01*
X8355315Y-89674354D01*
X8302511Y-89720109D01*
X8233353Y-89730053D01*
X8226809Y-89728932D01*
X8078845Y-89699500D01*
X8078842Y-89699500D01*
X7921158Y-89699500D01*
X7921155Y-89699500D01*
X7766510Y-89730261D01*
X7766502Y-89730263D01*
X7746950Y-89738362D01*
X7677480Y-89745829D01*
X7615002Y-89714554D01*
X7579350Y-89654464D01*
X7575499Y-89623800D01*
X7575499Y-89349998D01*
X7575498Y-89349981D01*
X7564999Y-89247203D01*
X7564998Y-89247200D01*
X7509814Y-89080666D01*
X7417712Y-88931344D01*
X7298549Y-88812181D01*
X7287936Y-88792744D01*
X7273436Y-88776011D01*
X7271519Y-88762679D01*
X7265064Y-88750858D01*
X7266643Y-88728771D01*
X7263492Y-88706853D01*
X7269087Y-88694601D01*
X7270048Y-88681166D01*
X7283318Y-88663439D01*
X7292517Y-88643297D01*
X7303848Y-88636014D01*
X7311920Y-88625233D01*
X7332665Y-88617495D01*
X7351295Y-88605523D01*
X7373213Y-88602371D01*
X7377384Y-88600816D01*
X7386230Y-88600500D01*
X7420234Y-88600500D01*
X7487273Y-88620185D01*
X7489125Y-88621398D01*
X7620814Y-88709390D01*
X7620827Y-88709397D01*
X7749463Y-88762679D01*
X7766503Y-88769737D01*
X7921153Y-88800499D01*
X7921156Y-88800500D01*
X7921158Y-88800500D01*
X8078844Y-88800500D01*
X8078845Y-88800499D01*
X8233497Y-88769737D01*
X8364088Y-88715645D01*
X8379172Y-88709397D01*
X8379172Y-88709396D01*
X8379179Y-88709394D01*
X8510289Y-88621789D01*
X8621789Y-88510289D01*
X8709394Y-88379179D01*
X8769737Y-88233497D01*
X8800500Y-88078842D01*
X8800500Y-87921158D01*
X8800500Y-87921155D01*
X8800499Y-87921153D01*
X8769738Y-87766510D01*
X8769737Y-87766503D01*
X8769735Y-87766498D01*
X8709397Y-87620827D01*
X8709390Y-87620814D01*
X8621789Y-87489711D01*
X8621786Y-87489707D01*
X8544506Y-87412427D01*
X8544500Y-87412422D01*
X8510289Y-87378211D01*
X8460290Y-87344803D01*
X8460283Y-87344797D01*
X8379185Y-87290609D01*
X8379172Y-87290602D01*
X8233501Y-87230264D01*
X8233489Y-87230261D01*
X8078845Y-87199500D01*
X8078842Y-87199500D01*
X7921158Y-87199500D01*
X7921155Y-87199500D01*
X7766510Y-87230261D01*
X7766498Y-87230264D01*
X7620827Y-87290602D01*
X7620814Y-87290609D01*
X7489125Y-87378602D01*
X7471078Y-87384252D01*
X7455169Y-87394477D01*
X7424207Y-87398928D01*
X7422447Y-87399480D01*
X7420234Y-87399500D01*
X7386230Y-87399500D01*
X7319191Y-87379815D01*
X7273436Y-87327011D01*
X7263492Y-87257853D01*
X7292517Y-87194297D01*
X7298549Y-87187819D01*
X7334116Y-87152252D01*
X7417712Y-87068656D01*
X7509814Y-86919334D01*
X7564999Y-86752797D01*
X7575500Y-86650009D01*
X7575499Y-86376197D01*
X7595183Y-86309160D01*
X7647987Y-86263405D01*
X7717146Y-86253461D01*
X7746949Y-86261637D01*
X7766503Y-86269737D01*
X7921153Y-86300499D01*
X7921156Y-86300500D01*
X7921158Y-86300500D01*
X8078844Y-86300500D01*
X8142027Y-86287931D01*
X8226809Y-86271067D01*
X8296399Y-86277294D01*
X8351577Y-86320156D01*
X8374822Y-86386046D01*
X8375000Y-86392684D01*
X8375000Y-86649970D01*
X8375001Y-86649987D01*
X8385494Y-86752697D01*
X8440641Y-86919119D01*
X8440643Y-86919124D01*
X8532684Y-87068345D01*
X8616591Y-87152252D01*
X8699053Y-87218468D01*
X8805869Y-87284353D01*
X8805880Y-87284358D01*
X8972302Y-87339505D01*
X8972309Y-87339506D01*
X9075019Y-87349999D01*
X9199999Y-87349999D01*
X9700000Y-87349999D01*
X9824972Y-87349999D01*
X9824986Y-87349998D01*
X9927697Y-87339505D01*
X10094119Y-87284358D01*
X10094124Y-87284356D01*
X10243345Y-87192315D01*
X10367315Y-87068345D01*
X10459356Y-86919124D01*
X10459358Y-86919119D01*
X10514505Y-86752697D01*
X10514506Y-86752690D01*
X10524999Y-86649986D01*
X10525000Y-86649973D01*
X10525000Y-85750000D01*
X9700000Y-85750000D01*
X9700000Y-87349999D01*
X9199999Y-87349999D01*
X9200000Y-87349998D01*
X9200000Y-85690476D01*
X34563075Y-85690476D01*
X34563075Y-85690477D01*
X34573684Y-85697567D01*
X34573689Y-85697569D01*
X34737479Y-85765413D01*
X34737487Y-85765415D01*
X34911353Y-85799999D01*
X34911357Y-85800000D01*
X35088643Y-85800000D01*
X35088646Y-85799999D01*
X35262512Y-85765415D01*
X35262524Y-85765412D01*
X35426306Y-85697572D01*
X35436922Y-85690476D01*
X35436923Y-85690476D01*
X35000001Y-85253554D01*
X35000000Y-85253554D01*
X34563075Y-85690476D01*
X9200000Y-85690476D01*
X9200000Y-85250000D01*
X9700000Y-85250000D01*
X10524999Y-85250000D01*
X10524999Y-84350028D01*
X10524998Y-84350013D01*
X10514505Y-84247302D01*
X10459358Y-84080880D01*
X10459356Y-84080875D01*
X10367315Y-83931654D01*
X10243345Y-83807684D01*
X10094124Y-83715643D01*
X10094119Y-83715641D01*
X9927697Y-83660494D01*
X9927690Y-83660493D01*
X9824986Y-83650000D01*
X9700000Y-83650000D01*
X9700000Y-85250000D01*
X9200000Y-85250000D01*
X9200000Y-83650000D01*
X9075027Y-83650000D01*
X9075012Y-83650001D01*
X8972302Y-83660494D01*
X8805880Y-83715641D01*
X8805875Y-83715643D01*
X8656654Y-83807684D01*
X8532684Y-83931654D01*
X8440643Y-84080875D01*
X8440641Y-84080880D01*
X8385494Y-84247302D01*
X8385493Y-84247309D01*
X8375000Y-84350013D01*
X8375000Y-84607315D01*
X8355315Y-84674354D01*
X8302511Y-84720109D01*
X8233353Y-84730053D01*
X8226809Y-84728932D01*
X8078845Y-84699500D01*
X8078842Y-84699500D01*
X7921158Y-84699500D01*
X7921155Y-84699500D01*
X7766510Y-84730261D01*
X7766502Y-84730263D01*
X7746950Y-84738362D01*
X7677480Y-84745829D01*
X7615002Y-84714554D01*
X7579350Y-84654464D01*
X7575499Y-84623800D01*
X7575499Y-84349998D01*
X7575498Y-84349981D01*
X7564999Y-84247203D01*
X7564998Y-84247200D01*
X7539245Y-84169483D01*
X7509814Y-84080666D01*
X7417712Y-83931344D01*
X7293656Y-83807288D01*
X7144334Y-83715186D01*
X6977797Y-83660001D01*
X6977795Y-83660000D01*
X6875010Y-83649500D01*
X6124998Y-83649500D01*
X6124980Y-83649501D01*
X6022203Y-83660000D01*
X6022200Y-83660001D01*
X5855668Y-83715185D01*
X5855663Y-83715187D01*
X5706342Y-83807289D01*
X5582289Y-83931342D01*
X5490187Y-84080663D01*
X5490185Y-84080668D01*
X5472630Y-84133645D01*
X5435001Y-84247203D01*
X5435001Y-84247204D01*
X5435000Y-84247204D01*
X5424500Y-84349983D01*
X5424500Y-85487063D01*
X5404815Y-85554102D01*
X5352011Y-85599857D01*
X5282853Y-85609801D01*
X5219297Y-85580776D01*
X5212819Y-85574744D01*
X4953268Y-85315193D01*
X4919783Y-85253870D01*
X4916949Y-85227512D01*
X4916949Y-82276707D01*
X4923186Y-82255464D01*
X4924765Y-82233379D01*
X4932838Y-82222592D01*
X4936634Y-82209668D01*
X4953363Y-82195171D01*
X4966633Y-82177444D01*
X4979257Y-82172734D01*
X4989438Y-82163913D01*
X5011350Y-82160762D01*
X5032097Y-82153023D01*
X5045261Y-82155886D01*
X5058596Y-82153969D01*
X5078736Y-82163166D01*
X5100370Y-82167872D01*
X5118099Y-82181143D01*
X5122152Y-82182994D01*
X5128611Y-82189007D01*
X5131284Y-82191680D01*
X5131286Y-82191681D01*
X5138351Y-82198746D01*
X5138352Y-82198748D01*
X5138355Y-82198750D01*
X5803979Y-82864374D01*
X5803989Y-82864385D01*
X5808319Y-82868715D01*
X5808320Y-82868716D01*
X5920124Y-82980520D01*
X5999626Y-83026420D01*
X5999627Y-83026421D01*
X6057049Y-83059574D01*
X6057050Y-83059574D01*
X6057055Y-83059577D01*
X6209782Y-83100500D01*
X6209783Y-83100500D01*
X7420234Y-83100500D01*
X7487273Y-83120185D01*
X7489125Y-83121398D01*
X7620814Y-83209390D01*
X7620827Y-83209397D01*
X7734963Y-83256673D01*
X7766503Y-83269737D01*
X7921153Y-83300499D01*
X7921156Y-83300500D01*
X7921158Y-83300500D01*
X8078844Y-83300500D01*
X8078845Y-83300499D01*
X8233497Y-83269737D01*
X8379179Y-83209394D01*
X8510289Y-83121789D01*
X8621789Y-83010289D01*
X8709394Y-82879179D01*
X8769737Y-82733497D01*
X8800500Y-82578842D01*
X8800500Y-82454295D01*
X8820185Y-82387256D01*
X8872989Y-82341501D01*
X8942147Y-82331557D01*
X8963508Y-82336590D01*
X8972308Y-82339506D01*
X9075019Y-82349999D01*
X9199999Y-82349999D01*
X9700000Y-82349999D01*
X9824972Y-82349999D01*
X9824986Y-82349998D01*
X9927697Y-82339505D01*
X10094119Y-82284358D01*
X10094124Y-82284356D01*
X10243345Y-82192315D01*
X10324356Y-82111304D01*
X33549500Y-82111304D01*
X33549500Y-82288695D01*
X33584103Y-82462658D01*
X33584106Y-82462667D01*
X33651983Y-82626540D01*
X33651990Y-82626553D01*
X33750535Y-82774034D01*
X33750538Y-82774038D01*
X33838819Y-82862319D01*
X33872304Y-82923642D01*
X33867320Y-82993334D01*
X33838819Y-83037681D01*
X33750538Y-83125961D01*
X33750535Y-83125965D01*
X33651990Y-83273446D01*
X33651983Y-83273459D01*
X33584106Y-83437332D01*
X33584103Y-83437341D01*
X33549500Y-83611304D01*
X33549500Y-83788695D01*
X33584103Y-83962658D01*
X33584106Y-83962667D01*
X33651983Y-84126540D01*
X33651990Y-84126553D01*
X33750535Y-84274034D01*
X33750538Y-84274038D01*
X33875961Y-84399461D01*
X33875965Y-84399464D01*
X34023449Y-84498011D01*
X34023451Y-84498012D01*
X34023453Y-84498013D01*
X34033784Y-84502292D01*
X34057738Y-84512214D01*
X34112141Y-84556055D01*
X34134206Y-84622349D01*
X34131903Y-84650965D01*
X34100000Y-84811359D01*
X34100000Y-84988646D01*
X34134584Y-85162512D01*
X34134586Y-85162520D01*
X34202430Y-85326311D01*
X34209522Y-85336922D01*
X34735541Y-84810903D01*
X34796864Y-84777418D01*
X34836877Y-84780279D01*
X34830448Y-84786709D01*
X34800000Y-84860218D01*
X34800000Y-84939782D01*
X34830448Y-85013291D01*
X34886709Y-85069552D01*
X34960218Y-85100000D01*
X35039782Y-85100000D01*
X35113291Y-85069552D01*
X35169552Y-85013291D01*
X35200000Y-84939782D01*
X35200000Y-84860218D01*
X35169552Y-84786709D01*
X35161020Y-84778177D01*
X35220111Y-84782403D01*
X35264458Y-84810904D01*
X35817415Y-85363861D01*
X35850900Y-85425184D01*
X35845916Y-85494876D01*
X35817415Y-85539223D01*
X35740667Y-85615971D01*
X35740667Y-85615972D01*
X35847267Y-85722572D01*
X35847271Y-85722575D01*
X35991507Y-85811542D01*
X35991518Y-85811547D01*
X36152393Y-85864855D01*
X36251683Y-85874999D01*
X36275000Y-85874998D01*
X36275000Y-85024000D01*
X36277550Y-85015314D01*
X36276262Y-85006353D01*
X36287240Y-84982312D01*
X36294685Y-84956961D01*
X36301525Y-84951033D01*
X36305287Y-84942797D01*
X36327521Y-84928507D01*
X36347489Y-84911206D01*
X36358003Y-84908918D01*
X36364065Y-84905023D01*
X36399000Y-84900000D01*
X36575501Y-84900000D01*
X36642540Y-84919685D01*
X36688295Y-84972489D01*
X36699501Y-85024000D01*
X36699501Y-85047876D01*
X36705908Y-85107483D01*
X36756202Y-85242328D01*
X36759830Y-85248971D01*
X36775000Y-85308402D01*
X36775000Y-85874999D01*
X36798308Y-85874999D01*
X36798322Y-85874998D01*
X36897607Y-85864855D01*
X37058481Y-85811547D01*
X37058492Y-85811542D01*
X37202731Y-85722573D01*
X37211959Y-85713345D01*
X37273279Y-85679856D01*
X37342971Y-85684835D01*
X37387327Y-85713339D01*
X37396955Y-85722967D01*
X37396959Y-85722970D01*
X37541294Y-85811998D01*
X37541297Y-85811999D01*
X37541303Y-85812003D01*
X37702292Y-85865349D01*
X37801655Y-85875500D01*
X38348344Y-85875499D01*
X38348352Y-85875498D01*
X38348355Y-85875498D01*
X38402760Y-85869940D01*
X38447708Y-85865349D01*
X38608697Y-85812003D01*
X38753044Y-85722968D01*
X38785536Y-85690476D01*
X83363075Y-85690476D01*
X83363075Y-85690477D01*
X83373684Y-85697567D01*
X83373689Y-85697569D01*
X83537479Y-85765413D01*
X83537487Y-85765415D01*
X83711353Y-85799999D01*
X83711357Y-85800000D01*
X83888643Y-85800000D01*
X83888646Y-85799999D01*
X84062512Y-85765415D01*
X84062524Y-85765412D01*
X84226306Y-85697572D01*
X84236922Y-85690476D01*
X84236923Y-85690476D01*
X83800001Y-85253554D01*
X83800000Y-85253554D01*
X83363075Y-85690476D01*
X38785536Y-85690476D01*
X38872968Y-85603044D01*
X38962003Y-85458697D01*
X39015349Y-85297708D01*
X39025500Y-85198345D01*
X39025499Y-84601656D01*
X39023555Y-84582629D01*
X39015349Y-84502292D01*
X39015348Y-84502289D01*
X39013930Y-84498011D01*
X38962003Y-84341303D01*
X38875484Y-84201035D01*
X38857044Y-84133645D01*
X38864839Y-84092612D01*
X38896591Y-84007483D01*
X38903000Y-83947873D01*
X38902999Y-83152128D01*
X38896591Y-83092517D01*
X38884305Y-83059577D01*
X38878247Y-83043334D01*
X38873262Y-82973643D01*
X38878247Y-82956665D01*
X38890564Y-82923642D01*
X38896591Y-82907483D01*
X38903000Y-82847873D01*
X38902999Y-82111304D01*
X82349500Y-82111304D01*
X82349500Y-82288695D01*
X82384103Y-82462658D01*
X82384106Y-82462667D01*
X82451983Y-82626540D01*
X82451990Y-82626553D01*
X82550535Y-82774034D01*
X82550538Y-82774038D01*
X82638819Y-82862319D01*
X82672304Y-82923642D01*
X82667320Y-82993334D01*
X82638819Y-83037681D01*
X82550538Y-83125961D01*
X82550535Y-83125965D01*
X82451990Y-83273446D01*
X82451983Y-83273459D01*
X82384106Y-83437332D01*
X82384103Y-83437341D01*
X82349500Y-83611304D01*
X82349500Y-83788695D01*
X82384103Y-83962658D01*
X82384106Y-83962667D01*
X82451983Y-84126540D01*
X82451990Y-84126553D01*
X82550535Y-84274034D01*
X82550538Y-84274038D01*
X82675961Y-84399461D01*
X82675965Y-84399464D01*
X82823449Y-84498011D01*
X82823451Y-84498012D01*
X82823453Y-84498013D01*
X82833784Y-84502292D01*
X82857738Y-84512214D01*
X82912141Y-84556055D01*
X82934206Y-84622349D01*
X82931903Y-84650965D01*
X82900000Y-84811359D01*
X82900000Y-84988646D01*
X82934584Y-85162512D01*
X82934586Y-85162520D01*
X83002430Y-85326311D01*
X83009522Y-85336922D01*
X83535541Y-84810903D01*
X83596864Y-84777418D01*
X83636877Y-84780279D01*
X83630448Y-84786709D01*
X83600000Y-84860218D01*
X83600000Y-84939782D01*
X83630448Y-85013291D01*
X83686709Y-85069552D01*
X83760218Y-85100000D01*
X83839782Y-85100000D01*
X83913291Y-85069552D01*
X83969552Y-85013291D01*
X84000000Y-84939782D01*
X84000000Y-84860218D01*
X83969552Y-84786709D01*
X83961020Y-84778177D01*
X84020111Y-84782403D01*
X84064458Y-84810904D01*
X84617415Y-85363861D01*
X84650900Y-85425184D01*
X84645916Y-85494876D01*
X84617415Y-85539223D01*
X84540667Y-85615971D01*
X84540667Y-85615972D01*
X84647267Y-85722572D01*
X84647271Y-85722575D01*
X84791507Y-85811542D01*
X84791518Y-85811547D01*
X84952393Y-85864855D01*
X85051683Y-85874999D01*
X85075000Y-85874998D01*
X85075000Y-85024000D01*
X85077550Y-85015314D01*
X85076262Y-85006353D01*
X85087240Y-84982312D01*
X85094685Y-84956961D01*
X85101525Y-84951033D01*
X85105287Y-84942797D01*
X85127521Y-84928507D01*
X85147489Y-84911206D01*
X85158003Y-84908918D01*
X85164065Y-84905023D01*
X85199000Y-84900000D01*
X85375501Y-84900000D01*
X85442540Y-84919685D01*
X85488295Y-84972489D01*
X85499501Y-85024000D01*
X85499501Y-85047876D01*
X85505908Y-85107483D01*
X85556202Y-85242328D01*
X85559830Y-85248971D01*
X85575000Y-85308402D01*
X85575000Y-85874999D01*
X85598308Y-85874999D01*
X85598322Y-85874998D01*
X85697607Y-85864855D01*
X85858481Y-85811547D01*
X85858492Y-85811542D01*
X86002731Y-85722573D01*
X86011959Y-85713345D01*
X86073279Y-85679856D01*
X86142971Y-85684835D01*
X86187327Y-85713339D01*
X86196955Y-85722967D01*
X86196959Y-85722970D01*
X86341294Y-85811998D01*
X86341297Y-85811999D01*
X86341303Y-85812003D01*
X86502292Y-85865349D01*
X86601655Y-85875500D01*
X87148344Y-85875499D01*
X87148352Y-85875498D01*
X87148355Y-85875498D01*
X87202760Y-85869940D01*
X87247708Y-85865349D01*
X87408697Y-85812003D01*
X87553044Y-85722968D01*
X87585536Y-85690476D01*
X132163075Y-85690476D01*
X132163075Y-85690477D01*
X132173684Y-85697567D01*
X132173689Y-85697569D01*
X132337479Y-85765413D01*
X132337487Y-85765415D01*
X132511353Y-85799999D01*
X132511357Y-85800000D01*
X132688643Y-85800000D01*
X132688646Y-85799999D01*
X132862512Y-85765415D01*
X132862524Y-85765412D01*
X133026306Y-85697572D01*
X133036922Y-85690476D01*
X133036923Y-85690476D01*
X132600001Y-85253554D01*
X132600000Y-85253554D01*
X132163075Y-85690476D01*
X87585536Y-85690476D01*
X87672968Y-85603044D01*
X87762003Y-85458697D01*
X87815349Y-85297708D01*
X87825500Y-85198345D01*
X87825499Y-84601656D01*
X87823555Y-84582629D01*
X87815349Y-84502292D01*
X87815348Y-84502289D01*
X87813930Y-84498011D01*
X87762003Y-84341303D01*
X87675484Y-84201035D01*
X87657044Y-84133645D01*
X87664839Y-84092612D01*
X87696591Y-84007483D01*
X87703000Y-83947873D01*
X87702999Y-83152128D01*
X87696591Y-83092517D01*
X87684305Y-83059577D01*
X87678247Y-83043334D01*
X87673262Y-82973643D01*
X87678247Y-82956665D01*
X87690564Y-82923642D01*
X87696591Y-82907483D01*
X87703000Y-82847873D01*
X87702999Y-82111304D01*
X131149500Y-82111304D01*
X131149500Y-82288695D01*
X131184103Y-82462658D01*
X131184106Y-82462667D01*
X131251983Y-82626540D01*
X131251990Y-82626553D01*
X131350535Y-82774034D01*
X131350538Y-82774038D01*
X131438819Y-82862319D01*
X131472304Y-82923642D01*
X131467320Y-82993334D01*
X131438819Y-83037681D01*
X131350538Y-83125961D01*
X131350535Y-83125965D01*
X131251990Y-83273446D01*
X131251983Y-83273459D01*
X131184106Y-83437332D01*
X131184103Y-83437341D01*
X131149500Y-83611304D01*
X131149500Y-83788695D01*
X131184103Y-83962658D01*
X131184106Y-83962667D01*
X131251983Y-84126540D01*
X131251990Y-84126553D01*
X131350535Y-84274034D01*
X131350538Y-84274038D01*
X131475961Y-84399461D01*
X131475965Y-84399464D01*
X131623449Y-84498011D01*
X131623451Y-84498012D01*
X131623453Y-84498013D01*
X131633784Y-84502292D01*
X131657738Y-84512214D01*
X131712141Y-84556055D01*
X131734206Y-84622349D01*
X131731903Y-84650965D01*
X131700000Y-84811359D01*
X131700000Y-84988646D01*
X131734584Y-85162512D01*
X131734586Y-85162520D01*
X131802430Y-85326311D01*
X131809522Y-85336922D01*
X132335541Y-84810903D01*
X132396864Y-84777418D01*
X132436877Y-84780279D01*
X132430448Y-84786709D01*
X132400000Y-84860218D01*
X132400000Y-84939782D01*
X132430448Y-85013291D01*
X132486709Y-85069552D01*
X132560218Y-85100000D01*
X132639782Y-85100000D01*
X132713291Y-85069552D01*
X132769552Y-85013291D01*
X132800000Y-84939782D01*
X132800000Y-84860218D01*
X132769552Y-84786709D01*
X132761020Y-84778177D01*
X132820111Y-84782403D01*
X132864458Y-84810904D01*
X133417415Y-85363861D01*
X133450900Y-85425184D01*
X133445916Y-85494876D01*
X133417415Y-85539223D01*
X133340667Y-85615971D01*
X133340667Y-85615972D01*
X133447267Y-85722572D01*
X133447271Y-85722575D01*
X133591507Y-85811542D01*
X133591518Y-85811547D01*
X133752393Y-85864855D01*
X133851683Y-85874999D01*
X133875000Y-85874998D01*
X133875000Y-85024000D01*
X133877550Y-85015314D01*
X133876262Y-85006353D01*
X133887240Y-84982312D01*
X133894685Y-84956961D01*
X133901525Y-84951033D01*
X133905287Y-84942797D01*
X133927521Y-84928507D01*
X133947489Y-84911206D01*
X133958003Y-84908918D01*
X133964065Y-84905023D01*
X133999000Y-84900000D01*
X134175501Y-84900000D01*
X134242540Y-84919685D01*
X134288295Y-84972489D01*
X134299501Y-85024000D01*
X134299501Y-85047876D01*
X134305908Y-85107483D01*
X134356202Y-85242328D01*
X134359830Y-85248971D01*
X134375000Y-85308402D01*
X134375000Y-85874999D01*
X134398308Y-85874999D01*
X134398322Y-85874998D01*
X134497607Y-85864855D01*
X134658481Y-85811547D01*
X134658492Y-85811542D01*
X134802731Y-85722573D01*
X134811959Y-85713345D01*
X134873279Y-85679856D01*
X134942971Y-85684835D01*
X134987327Y-85713339D01*
X134996955Y-85722967D01*
X134996959Y-85722970D01*
X135141294Y-85811998D01*
X135141297Y-85811999D01*
X135141303Y-85812003D01*
X135302292Y-85865349D01*
X135401655Y-85875500D01*
X135948344Y-85875499D01*
X135948352Y-85875498D01*
X135948355Y-85875498D01*
X136002760Y-85869940D01*
X136047708Y-85865349D01*
X136208697Y-85812003D01*
X136353044Y-85722968D01*
X136385536Y-85690476D01*
X180963075Y-85690476D01*
X180963075Y-85690477D01*
X180973684Y-85697567D01*
X180973689Y-85697569D01*
X181137479Y-85765413D01*
X181137487Y-85765415D01*
X181311353Y-85799999D01*
X181311357Y-85800000D01*
X181488643Y-85800000D01*
X181488646Y-85799999D01*
X181662512Y-85765415D01*
X181662524Y-85765412D01*
X181826306Y-85697572D01*
X181836922Y-85690476D01*
X181836923Y-85690476D01*
X181400001Y-85253554D01*
X181400000Y-85253554D01*
X180963075Y-85690476D01*
X136385536Y-85690476D01*
X136472968Y-85603044D01*
X136562003Y-85458697D01*
X136615349Y-85297708D01*
X136625500Y-85198345D01*
X136625499Y-84601656D01*
X136623555Y-84582629D01*
X136615349Y-84502292D01*
X136615348Y-84502289D01*
X136613930Y-84498011D01*
X136562003Y-84341303D01*
X136475484Y-84201035D01*
X136457044Y-84133645D01*
X136464839Y-84092612D01*
X136496591Y-84007483D01*
X136503000Y-83947873D01*
X136502999Y-83152128D01*
X136496591Y-83092517D01*
X136484305Y-83059577D01*
X136478247Y-83043334D01*
X136473262Y-82973643D01*
X136478247Y-82956665D01*
X136490564Y-82923642D01*
X136496591Y-82907483D01*
X136503000Y-82847873D01*
X136502999Y-82111304D01*
X179949500Y-82111304D01*
X179949500Y-82288695D01*
X179984103Y-82462658D01*
X179984106Y-82462667D01*
X180051983Y-82626540D01*
X180051990Y-82626553D01*
X180150535Y-82774034D01*
X180150538Y-82774038D01*
X180238819Y-82862319D01*
X180272304Y-82923642D01*
X180267320Y-82993334D01*
X180238819Y-83037681D01*
X180150538Y-83125961D01*
X180150535Y-83125965D01*
X180051990Y-83273446D01*
X180051983Y-83273459D01*
X179984106Y-83437332D01*
X179984103Y-83437341D01*
X179949500Y-83611304D01*
X179949500Y-83788695D01*
X179984103Y-83962658D01*
X179984106Y-83962667D01*
X180051983Y-84126540D01*
X180051990Y-84126553D01*
X180150535Y-84274034D01*
X180150538Y-84274038D01*
X180275961Y-84399461D01*
X180275965Y-84399464D01*
X180423449Y-84498011D01*
X180423451Y-84498012D01*
X180423453Y-84498013D01*
X180433784Y-84502292D01*
X180457738Y-84512214D01*
X180512141Y-84556055D01*
X180534206Y-84622349D01*
X180531903Y-84650965D01*
X180500000Y-84811359D01*
X180500000Y-84988646D01*
X180534584Y-85162512D01*
X180534586Y-85162520D01*
X180602430Y-85326311D01*
X180609522Y-85336922D01*
X181135541Y-84810903D01*
X181196864Y-84777418D01*
X181236877Y-84780279D01*
X181230448Y-84786709D01*
X181200000Y-84860218D01*
X181200000Y-84939782D01*
X181230448Y-85013291D01*
X181286709Y-85069552D01*
X181360218Y-85100000D01*
X181439782Y-85100000D01*
X181513291Y-85069552D01*
X181569552Y-85013291D01*
X181600000Y-84939782D01*
X181600000Y-84860218D01*
X181569552Y-84786709D01*
X181561020Y-84778177D01*
X181620111Y-84782403D01*
X181664458Y-84810904D01*
X182217415Y-85363861D01*
X182250900Y-85425184D01*
X182245916Y-85494876D01*
X182217415Y-85539223D01*
X182140667Y-85615971D01*
X182140667Y-85615972D01*
X182247267Y-85722572D01*
X182247271Y-85722575D01*
X182391507Y-85811542D01*
X182391518Y-85811547D01*
X182552393Y-85864855D01*
X182651683Y-85874999D01*
X182675000Y-85874998D01*
X182675000Y-85024000D01*
X182677550Y-85015314D01*
X182676262Y-85006353D01*
X182687240Y-84982312D01*
X182694685Y-84956961D01*
X182701525Y-84951033D01*
X182705287Y-84942797D01*
X182727521Y-84928507D01*
X182747489Y-84911206D01*
X182758003Y-84908918D01*
X182764065Y-84905023D01*
X182799000Y-84900000D01*
X182975501Y-84900000D01*
X183042540Y-84919685D01*
X183088295Y-84972489D01*
X183099501Y-85024000D01*
X183099501Y-85047876D01*
X183105908Y-85107483D01*
X183156202Y-85242328D01*
X183159830Y-85248971D01*
X183175000Y-85308402D01*
X183175000Y-85874999D01*
X183198308Y-85874999D01*
X183198322Y-85874998D01*
X183297607Y-85864855D01*
X183458481Y-85811547D01*
X183458492Y-85811542D01*
X183602731Y-85722573D01*
X183611959Y-85713345D01*
X183673279Y-85679856D01*
X183742971Y-85684835D01*
X183787327Y-85713339D01*
X183796955Y-85722967D01*
X183796959Y-85722970D01*
X183941294Y-85811998D01*
X183941297Y-85811999D01*
X183941303Y-85812003D01*
X184102292Y-85865349D01*
X184201655Y-85875500D01*
X184748344Y-85875499D01*
X184748352Y-85875498D01*
X184748355Y-85875498D01*
X184802760Y-85869940D01*
X184847708Y-85865349D01*
X185008697Y-85812003D01*
X185153044Y-85722968D01*
X185185536Y-85690476D01*
X229763075Y-85690476D01*
X229763075Y-85690477D01*
X229773684Y-85697567D01*
X229773689Y-85697569D01*
X229937479Y-85765413D01*
X229937487Y-85765415D01*
X230111353Y-85799999D01*
X230111357Y-85800000D01*
X230288643Y-85800000D01*
X230288646Y-85799999D01*
X230462512Y-85765415D01*
X230462524Y-85765412D01*
X230626306Y-85697572D01*
X230636922Y-85690476D01*
X230636923Y-85690476D01*
X230200001Y-85253554D01*
X230200000Y-85253554D01*
X229763075Y-85690476D01*
X185185536Y-85690476D01*
X185272968Y-85603044D01*
X185362003Y-85458697D01*
X185415349Y-85297708D01*
X185425500Y-85198345D01*
X185425499Y-84601656D01*
X185423555Y-84582629D01*
X185415349Y-84502292D01*
X185415348Y-84502289D01*
X185413930Y-84498011D01*
X185362003Y-84341303D01*
X185275484Y-84201035D01*
X185257044Y-84133645D01*
X185264839Y-84092612D01*
X185296591Y-84007483D01*
X185303000Y-83947873D01*
X185302999Y-83152128D01*
X185296591Y-83092517D01*
X185284305Y-83059577D01*
X185278247Y-83043334D01*
X185273262Y-82973643D01*
X185278247Y-82956665D01*
X185290564Y-82923642D01*
X185296591Y-82907483D01*
X185303000Y-82847873D01*
X185302999Y-82111304D01*
X228749500Y-82111304D01*
X228749500Y-82288695D01*
X228784103Y-82462658D01*
X228784106Y-82462667D01*
X228851983Y-82626540D01*
X228851990Y-82626553D01*
X228950535Y-82774034D01*
X228950538Y-82774038D01*
X229038819Y-82862319D01*
X229072304Y-82923642D01*
X229067320Y-82993334D01*
X229038819Y-83037681D01*
X228950538Y-83125961D01*
X228950535Y-83125965D01*
X228851990Y-83273446D01*
X228851983Y-83273459D01*
X228784106Y-83437332D01*
X228784103Y-83437341D01*
X228749500Y-83611304D01*
X228749500Y-83788695D01*
X228784103Y-83962658D01*
X228784106Y-83962667D01*
X228851983Y-84126540D01*
X228851990Y-84126553D01*
X228950535Y-84274034D01*
X228950538Y-84274038D01*
X229075961Y-84399461D01*
X229075965Y-84399464D01*
X229223449Y-84498011D01*
X229223451Y-84498012D01*
X229223453Y-84498013D01*
X229233784Y-84502292D01*
X229257738Y-84512214D01*
X229312141Y-84556055D01*
X229334206Y-84622349D01*
X229331903Y-84650965D01*
X229300000Y-84811359D01*
X229300000Y-84988646D01*
X229334584Y-85162512D01*
X229334586Y-85162520D01*
X229402430Y-85326311D01*
X229409522Y-85336922D01*
X229935541Y-84810903D01*
X229996864Y-84777418D01*
X230036877Y-84780279D01*
X230030448Y-84786709D01*
X230000000Y-84860218D01*
X230000000Y-84939782D01*
X230030448Y-85013291D01*
X230086709Y-85069552D01*
X230160218Y-85100000D01*
X230239782Y-85100000D01*
X230313291Y-85069552D01*
X230369552Y-85013291D01*
X230400000Y-84939782D01*
X230400000Y-84860218D01*
X230369552Y-84786709D01*
X230361020Y-84778177D01*
X230420111Y-84782403D01*
X230464458Y-84810904D01*
X231017415Y-85363861D01*
X231050900Y-85425184D01*
X231045916Y-85494876D01*
X231017415Y-85539223D01*
X230940667Y-85615971D01*
X230940667Y-85615972D01*
X231047267Y-85722572D01*
X231047271Y-85722575D01*
X231191507Y-85811542D01*
X231191518Y-85811547D01*
X231352393Y-85864855D01*
X231451683Y-85874999D01*
X231475000Y-85874998D01*
X231475000Y-85024000D01*
X231477550Y-85015314D01*
X231476262Y-85006353D01*
X231487240Y-84982312D01*
X231494685Y-84956961D01*
X231501525Y-84951033D01*
X231505287Y-84942797D01*
X231527521Y-84928507D01*
X231547489Y-84911206D01*
X231558003Y-84908918D01*
X231564065Y-84905023D01*
X231599000Y-84900000D01*
X231775501Y-84900000D01*
X231842540Y-84919685D01*
X231888295Y-84972489D01*
X231899501Y-85024000D01*
X231899501Y-85047876D01*
X231905908Y-85107483D01*
X231956202Y-85242328D01*
X231959830Y-85248971D01*
X231975000Y-85308402D01*
X231975000Y-85874999D01*
X231998308Y-85874999D01*
X231998322Y-85874998D01*
X232097607Y-85864855D01*
X232258481Y-85811547D01*
X232258492Y-85811542D01*
X232402731Y-85722573D01*
X232411959Y-85713345D01*
X232473279Y-85679856D01*
X232542971Y-85684835D01*
X232587327Y-85713339D01*
X232596955Y-85722967D01*
X232596959Y-85722970D01*
X232741294Y-85811998D01*
X232741297Y-85811999D01*
X232741303Y-85812003D01*
X232902292Y-85865349D01*
X233001655Y-85875500D01*
X233548344Y-85875499D01*
X233548352Y-85875498D01*
X233548355Y-85875498D01*
X233602760Y-85869940D01*
X233647708Y-85865349D01*
X233808697Y-85812003D01*
X233953044Y-85722968D01*
X233985536Y-85690476D01*
X278563075Y-85690476D01*
X278563075Y-85690477D01*
X278573684Y-85697567D01*
X278573689Y-85697569D01*
X278737479Y-85765413D01*
X278737487Y-85765415D01*
X278911353Y-85799999D01*
X278911357Y-85800000D01*
X279088643Y-85800000D01*
X279088646Y-85799999D01*
X279262512Y-85765415D01*
X279262524Y-85765412D01*
X279426306Y-85697572D01*
X279436922Y-85690476D01*
X279436923Y-85690476D01*
X279000001Y-85253554D01*
X279000000Y-85253554D01*
X278563075Y-85690476D01*
X233985536Y-85690476D01*
X234072968Y-85603044D01*
X234162003Y-85458697D01*
X234215349Y-85297708D01*
X234225500Y-85198345D01*
X234225499Y-84601656D01*
X234223555Y-84582629D01*
X234215349Y-84502292D01*
X234215348Y-84502289D01*
X234213930Y-84498011D01*
X234162003Y-84341303D01*
X234075484Y-84201035D01*
X234057044Y-84133645D01*
X234064839Y-84092612D01*
X234096591Y-84007483D01*
X234103000Y-83947873D01*
X234102999Y-83152128D01*
X234096591Y-83092517D01*
X234084305Y-83059577D01*
X234078247Y-83043334D01*
X234073262Y-82973643D01*
X234078247Y-82956665D01*
X234090564Y-82923642D01*
X234096591Y-82907483D01*
X234103000Y-82847873D01*
X234102999Y-82111304D01*
X277549500Y-82111304D01*
X277549500Y-82288695D01*
X277584103Y-82462658D01*
X277584106Y-82462667D01*
X277651983Y-82626540D01*
X277651990Y-82626553D01*
X277750535Y-82774034D01*
X277750538Y-82774038D01*
X277838819Y-82862319D01*
X277872304Y-82923642D01*
X277867320Y-82993334D01*
X277838819Y-83037681D01*
X277750538Y-83125961D01*
X277750535Y-83125965D01*
X277651990Y-83273446D01*
X277651983Y-83273459D01*
X277584106Y-83437332D01*
X277584103Y-83437341D01*
X277549500Y-83611304D01*
X277549500Y-83788695D01*
X277584103Y-83962658D01*
X277584106Y-83962667D01*
X277651983Y-84126540D01*
X277651990Y-84126553D01*
X277750535Y-84274034D01*
X277750538Y-84274038D01*
X277875961Y-84399461D01*
X277875965Y-84399464D01*
X278023449Y-84498011D01*
X278023451Y-84498012D01*
X278023453Y-84498013D01*
X278033784Y-84502292D01*
X278057738Y-84512214D01*
X278112141Y-84556055D01*
X278134206Y-84622349D01*
X278131903Y-84650965D01*
X278100000Y-84811359D01*
X278100000Y-84988646D01*
X278134584Y-85162512D01*
X278134586Y-85162520D01*
X278202430Y-85326311D01*
X278209522Y-85336922D01*
X278735541Y-84810903D01*
X278796864Y-84777418D01*
X278836877Y-84780279D01*
X278830448Y-84786709D01*
X278800000Y-84860218D01*
X278800000Y-84939782D01*
X278830448Y-85013291D01*
X278886709Y-85069552D01*
X278960218Y-85100000D01*
X279039782Y-85100000D01*
X279113291Y-85069552D01*
X279169552Y-85013291D01*
X279200000Y-84939782D01*
X279200000Y-84860218D01*
X279169552Y-84786709D01*
X279161020Y-84778177D01*
X279220111Y-84782403D01*
X279264458Y-84810904D01*
X279817415Y-85363861D01*
X279850900Y-85425184D01*
X279845916Y-85494876D01*
X279817415Y-85539223D01*
X279740667Y-85615971D01*
X279740667Y-85615972D01*
X279847267Y-85722572D01*
X279847271Y-85722575D01*
X279991507Y-85811542D01*
X279991518Y-85811547D01*
X280152393Y-85864855D01*
X280251683Y-85874999D01*
X280275000Y-85874998D01*
X280275000Y-85024000D01*
X280277550Y-85015314D01*
X280276262Y-85006353D01*
X280287240Y-84982312D01*
X280294685Y-84956961D01*
X280301525Y-84951033D01*
X280305287Y-84942797D01*
X280327521Y-84928507D01*
X280347489Y-84911206D01*
X280358003Y-84908918D01*
X280364065Y-84905023D01*
X280399000Y-84900000D01*
X280575501Y-84900000D01*
X280642540Y-84919685D01*
X280688295Y-84972489D01*
X280699501Y-85024000D01*
X280699501Y-85047876D01*
X280705908Y-85107483D01*
X280756202Y-85242328D01*
X280759830Y-85248971D01*
X280775000Y-85308402D01*
X280775000Y-85874999D01*
X280798308Y-85874999D01*
X280798322Y-85874998D01*
X280897607Y-85864855D01*
X281058481Y-85811547D01*
X281058492Y-85811542D01*
X281202731Y-85722573D01*
X281211959Y-85713345D01*
X281273279Y-85679856D01*
X281342971Y-85684835D01*
X281387327Y-85713339D01*
X281396955Y-85722967D01*
X281396959Y-85722970D01*
X281541294Y-85811998D01*
X281541297Y-85811999D01*
X281541303Y-85812003D01*
X281702292Y-85865349D01*
X281801655Y-85875500D01*
X282348344Y-85875499D01*
X282348352Y-85875498D01*
X282348355Y-85875498D01*
X282402760Y-85869940D01*
X282447708Y-85865349D01*
X282608697Y-85812003D01*
X282753044Y-85722968D01*
X282785536Y-85690476D01*
X327363075Y-85690476D01*
X327363075Y-85690477D01*
X327373684Y-85697567D01*
X327373689Y-85697569D01*
X327537479Y-85765413D01*
X327537487Y-85765415D01*
X327711353Y-85799999D01*
X327711357Y-85800000D01*
X327888643Y-85800000D01*
X327888646Y-85799999D01*
X328062512Y-85765415D01*
X328062524Y-85765412D01*
X328226306Y-85697572D01*
X328236922Y-85690476D01*
X328236923Y-85690476D01*
X327800001Y-85253554D01*
X327800000Y-85253554D01*
X327363075Y-85690476D01*
X282785536Y-85690476D01*
X282872968Y-85603044D01*
X282962003Y-85458697D01*
X283015349Y-85297708D01*
X283025500Y-85198345D01*
X283025499Y-84601656D01*
X283023555Y-84582629D01*
X283015349Y-84502292D01*
X283015348Y-84502289D01*
X283013930Y-84498011D01*
X282962003Y-84341303D01*
X282875484Y-84201035D01*
X282857044Y-84133645D01*
X282864839Y-84092612D01*
X282896591Y-84007483D01*
X282903000Y-83947873D01*
X282902999Y-83152128D01*
X282896591Y-83092517D01*
X282884305Y-83059577D01*
X282878247Y-83043334D01*
X282873262Y-82973643D01*
X282878247Y-82956665D01*
X282890564Y-82923642D01*
X282896591Y-82907483D01*
X282903000Y-82847873D01*
X282902999Y-82111304D01*
X326349500Y-82111304D01*
X326349500Y-82288695D01*
X326384103Y-82462658D01*
X326384106Y-82462667D01*
X326451983Y-82626540D01*
X326451990Y-82626553D01*
X326550535Y-82774034D01*
X326550538Y-82774038D01*
X326638819Y-82862319D01*
X326672304Y-82923642D01*
X326667320Y-82993334D01*
X326638819Y-83037681D01*
X326550538Y-83125961D01*
X326550535Y-83125965D01*
X326451990Y-83273446D01*
X326451983Y-83273459D01*
X326384106Y-83437332D01*
X326384103Y-83437341D01*
X326349500Y-83611304D01*
X326349500Y-83788695D01*
X326384103Y-83962658D01*
X326384106Y-83962667D01*
X326451983Y-84126540D01*
X326451990Y-84126553D01*
X326550535Y-84274034D01*
X326550538Y-84274038D01*
X326675961Y-84399461D01*
X326675965Y-84399464D01*
X326823449Y-84498011D01*
X326823451Y-84498012D01*
X326823453Y-84498013D01*
X326833784Y-84502292D01*
X326857738Y-84512214D01*
X326912141Y-84556055D01*
X326934206Y-84622349D01*
X326931903Y-84650965D01*
X326900000Y-84811359D01*
X326900000Y-84988646D01*
X326934584Y-85162512D01*
X326934586Y-85162520D01*
X327002430Y-85326311D01*
X327009522Y-85336922D01*
X327535541Y-84810903D01*
X327596864Y-84777418D01*
X327636877Y-84780279D01*
X327630448Y-84786709D01*
X327600000Y-84860218D01*
X327600000Y-84939782D01*
X327630448Y-85013291D01*
X327686709Y-85069552D01*
X327760218Y-85100000D01*
X327839782Y-85100000D01*
X327913291Y-85069552D01*
X327969552Y-85013291D01*
X328000000Y-84939782D01*
X328000000Y-84860218D01*
X327969552Y-84786709D01*
X327961020Y-84778177D01*
X328020111Y-84782403D01*
X328064458Y-84810904D01*
X328617415Y-85363861D01*
X328650900Y-85425184D01*
X328645916Y-85494876D01*
X328617415Y-85539223D01*
X328540667Y-85615971D01*
X328540667Y-85615972D01*
X328647267Y-85722572D01*
X328647271Y-85722575D01*
X328791507Y-85811542D01*
X328791518Y-85811547D01*
X328952393Y-85864855D01*
X329051683Y-85874999D01*
X329075000Y-85874998D01*
X329075000Y-85024000D01*
X329077550Y-85015314D01*
X329076262Y-85006353D01*
X329087240Y-84982312D01*
X329094685Y-84956961D01*
X329101525Y-84951033D01*
X329105287Y-84942797D01*
X329127521Y-84928507D01*
X329147489Y-84911206D01*
X329158003Y-84908918D01*
X329164065Y-84905023D01*
X329199000Y-84900000D01*
X329375501Y-84900000D01*
X329442540Y-84919685D01*
X329488295Y-84972489D01*
X329499501Y-85024000D01*
X329499501Y-85047876D01*
X329505908Y-85107483D01*
X329556202Y-85242328D01*
X329559830Y-85248971D01*
X329575000Y-85308402D01*
X329575000Y-85874999D01*
X329598308Y-85874999D01*
X329598322Y-85874998D01*
X329697607Y-85864855D01*
X329858481Y-85811547D01*
X329858492Y-85811542D01*
X330002731Y-85722573D01*
X330011959Y-85713345D01*
X330073279Y-85679856D01*
X330142971Y-85684835D01*
X330187327Y-85713339D01*
X330196955Y-85722967D01*
X330196959Y-85722970D01*
X330341294Y-85811998D01*
X330341297Y-85811999D01*
X330341303Y-85812003D01*
X330502292Y-85865349D01*
X330601655Y-85875500D01*
X331148344Y-85875499D01*
X331148352Y-85875498D01*
X331148355Y-85875498D01*
X331202760Y-85869940D01*
X331247708Y-85865349D01*
X331408697Y-85812003D01*
X331553044Y-85722968D01*
X331585536Y-85690476D01*
X376163075Y-85690476D01*
X376163075Y-85690477D01*
X376173684Y-85697567D01*
X376173689Y-85697569D01*
X376337479Y-85765413D01*
X376337487Y-85765415D01*
X376511353Y-85799999D01*
X376511357Y-85800000D01*
X376688643Y-85800000D01*
X376688646Y-85799999D01*
X376862512Y-85765415D01*
X376862524Y-85765412D01*
X377026306Y-85697572D01*
X377036922Y-85690476D01*
X377036923Y-85690476D01*
X376600001Y-85253554D01*
X376600000Y-85253554D01*
X376163075Y-85690476D01*
X331585536Y-85690476D01*
X331672968Y-85603044D01*
X331762003Y-85458697D01*
X331815349Y-85297708D01*
X331825500Y-85198345D01*
X331825499Y-84601656D01*
X331823555Y-84582629D01*
X331815349Y-84502292D01*
X331815348Y-84502289D01*
X331813930Y-84498011D01*
X331762003Y-84341303D01*
X331675484Y-84201035D01*
X331657044Y-84133645D01*
X331664839Y-84092612D01*
X331696591Y-84007483D01*
X331703000Y-83947873D01*
X331702999Y-83152128D01*
X331696591Y-83092517D01*
X331684305Y-83059577D01*
X331678247Y-83043334D01*
X331673262Y-82973643D01*
X331678247Y-82956665D01*
X331690564Y-82923642D01*
X331696591Y-82907483D01*
X331703000Y-82847873D01*
X331702999Y-82111304D01*
X375149500Y-82111304D01*
X375149500Y-82288695D01*
X375184103Y-82462658D01*
X375184106Y-82462667D01*
X375251983Y-82626540D01*
X375251990Y-82626553D01*
X375350535Y-82774034D01*
X375350538Y-82774038D01*
X375438819Y-82862319D01*
X375472304Y-82923642D01*
X375467320Y-82993334D01*
X375438819Y-83037681D01*
X375350538Y-83125961D01*
X375350535Y-83125965D01*
X375251990Y-83273446D01*
X375251983Y-83273459D01*
X375184106Y-83437332D01*
X375184103Y-83437341D01*
X375149500Y-83611304D01*
X375149500Y-83788695D01*
X375184103Y-83962658D01*
X375184106Y-83962667D01*
X375251983Y-84126540D01*
X375251990Y-84126553D01*
X375350535Y-84274034D01*
X375350538Y-84274038D01*
X375475961Y-84399461D01*
X375475965Y-84399464D01*
X375623449Y-84498011D01*
X375623451Y-84498012D01*
X375623453Y-84498013D01*
X375633784Y-84502292D01*
X375657738Y-84512214D01*
X375712141Y-84556055D01*
X375734206Y-84622349D01*
X375731903Y-84650965D01*
X375700000Y-84811359D01*
X375700000Y-84988646D01*
X375734584Y-85162512D01*
X375734586Y-85162520D01*
X375802430Y-85326311D01*
X375809522Y-85336922D01*
X376335541Y-84810903D01*
X376396864Y-84777418D01*
X376436877Y-84780279D01*
X376430448Y-84786709D01*
X376400000Y-84860218D01*
X376400000Y-84939782D01*
X376430448Y-85013291D01*
X376486709Y-85069552D01*
X376560218Y-85100000D01*
X376639782Y-85100000D01*
X376713291Y-85069552D01*
X376769552Y-85013291D01*
X376800000Y-84939782D01*
X376800000Y-84860218D01*
X376769552Y-84786709D01*
X376761020Y-84778177D01*
X376820111Y-84782403D01*
X376864458Y-84810904D01*
X377417415Y-85363861D01*
X377450900Y-85425184D01*
X377445916Y-85494876D01*
X377417415Y-85539223D01*
X377340667Y-85615971D01*
X377340667Y-85615972D01*
X377447267Y-85722572D01*
X377447271Y-85722575D01*
X377591507Y-85811542D01*
X377591518Y-85811547D01*
X377752393Y-85864855D01*
X377851683Y-85874999D01*
X377875000Y-85874998D01*
X377875000Y-85024000D01*
X377877550Y-85015314D01*
X377876262Y-85006353D01*
X377887240Y-84982312D01*
X377894685Y-84956961D01*
X377901525Y-84951033D01*
X377905287Y-84942797D01*
X377927521Y-84928507D01*
X377947489Y-84911206D01*
X377958003Y-84908918D01*
X377964065Y-84905023D01*
X377999000Y-84900000D01*
X378175501Y-84900000D01*
X378242540Y-84919685D01*
X378288295Y-84972489D01*
X378299501Y-85024000D01*
X378299501Y-85047876D01*
X378305908Y-85107483D01*
X378356202Y-85242328D01*
X378359830Y-85248971D01*
X378375000Y-85308402D01*
X378375000Y-85874999D01*
X378398308Y-85874999D01*
X378398322Y-85874998D01*
X378497607Y-85864855D01*
X378658481Y-85811547D01*
X378658492Y-85811542D01*
X378802731Y-85722573D01*
X378811959Y-85713345D01*
X378873279Y-85679856D01*
X378942971Y-85684835D01*
X378987327Y-85713339D01*
X378996955Y-85722967D01*
X378996959Y-85722970D01*
X379141294Y-85811998D01*
X379141297Y-85811999D01*
X379141303Y-85812003D01*
X379302292Y-85865349D01*
X379401655Y-85875500D01*
X379948344Y-85875499D01*
X379948352Y-85875498D01*
X379948355Y-85875498D01*
X380002760Y-85869940D01*
X380047708Y-85865349D01*
X380208697Y-85812003D01*
X380353044Y-85722968D01*
X380472968Y-85603044D01*
X380562003Y-85458697D01*
X380615349Y-85297708D01*
X380625500Y-85198345D01*
X380625499Y-84601656D01*
X380623555Y-84582629D01*
X380615349Y-84502292D01*
X380615348Y-84502289D01*
X380613930Y-84498011D01*
X380562003Y-84341303D01*
X380475484Y-84201035D01*
X380457044Y-84133645D01*
X380464839Y-84092612D01*
X380496591Y-84007483D01*
X380503000Y-83947873D01*
X380502999Y-83152128D01*
X380496591Y-83092517D01*
X380484305Y-83059577D01*
X380478247Y-83043334D01*
X380476936Y-83025009D01*
X380470669Y-83007734D01*
X380474063Y-82984854D01*
X380473262Y-82973643D01*
X380473504Y-82972554D01*
X380475343Y-82964451D01*
X380496591Y-82907483D01*
X380501445Y-82862332D01*
X406199500Y-82862332D01*
X406199500Y-83137667D01*
X406199501Y-83137684D01*
X406235438Y-83410655D01*
X406235439Y-83410660D01*
X406235440Y-83410666D01*
X406235441Y-83410668D01*
X406306704Y-83676630D01*
X406412075Y-83931017D01*
X406412080Y-83931028D01*
X406491809Y-84069121D01*
X406549751Y-84169479D01*
X406549753Y-84169482D01*
X406549754Y-84169483D01*
X406717370Y-84387926D01*
X406717376Y-84387933D01*
X406912066Y-84582623D01*
X406912073Y-84582629D01*
X407001131Y-84650965D01*
X407130521Y-84750249D01*
X407252873Y-84820889D01*
X407368971Y-84887919D01*
X407368976Y-84887921D01*
X407368979Y-84887923D01*
X407623368Y-84993295D01*
X407889334Y-85064560D01*
X408162326Y-85100500D01*
X408162333Y-85100500D01*
X408437667Y-85100500D01*
X408437674Y-85100500D01*
X408710666Y-85064560D01*
X408976632Y-84993295D01*
X409231021Y-84887923D01*
X409469479Y-84750249D01*
X409687928Y-84582628D01*
X409882628Y-84387928D01*
X410050249Y-84169479D01*
X410187923Y-83931021D01*
X410293295Y-83676632D01*
X410364560Y-83410666D01*
X410400500Y-83137674D01*
X410400500Y-82862326D01*
X410364560Y-82589334D01*
X410293295Y-82323368D01*
X410187923Y-82068979D01*
X410187921Y-82068976D01*
X410187919Y-82068971D01*
X410115157Y-81942945D01*
X410050249Y-81830521D01*
X409949714Y-81699500D01*
X409882629Y-81612073D01*
X409882623Y-81612066D01*
X409687933Y-81417376D01*
X409687926Y-81417370D01*
X409469483Y-81249754D01*
X409469482Y-81249753D01*
X409469479Y-81249751D01*
X409347127Y-81179111D01*
X409231028Y-81112080D01*
X409231017Y-81112075D01*
X408976630Y-81006704D01*
X408843649Y-80971072D01*
X408710666Y-80935440D01*
X408710660Y-80935439D01*
X408710655Y-80935438D01*
X408437684Y-80899501D01*
X408437679Y-80899500D01*
X408437674Y-80899500D01*
X408162326Y-80899500D01*
X408162320Y-80899500D01*
X408162315Y-80899501D01*
X407889344Y-80935438D01*
X407889337Y-80935439D01*
X407889334Y-80935440D01*
X407833125Y-80950500D01*
X407623369Y-81006704D01*
X407368982Y-81112075D01*
X407368971Y-81112080D01*
X407130516Y-81249754D01*
X406912073Y-81417370D01*
X406912066Y-81417376D01*
X406717376Y-81612066D01*
X406717370Y-81612073D01*
X406549754Y-81830516D01*
X406412080Y-82068971D01*
X406412075Y-82068982D01*
X406306704Y-82323369D01*
X406235441Y-82589331D01*
X406235438Y-82589344D01*
X406199501Y-82862315D01*
X406199500Y-82862332D01*
X380501445Y-82862332D01*
X380503000Y-82847873D01*
X380502999Y-82052128D01*
X380496591Y-81992517D01*
X380495544Y-81989711D01*
X380446297Y-81857671D01*
X380446293Y-81857664D01*
X380360047Y-81742455D01*
X380360044Y-81742452D01*
X380244835Y-81656206D01*
X380244828Y-81656202D01*
X380109982Y-81605908D01*
X380109983Y-81605908D01*
X380050383Y-81599501D01*
X380050381Y-81599500D01*
X380050373Y-81599500D01*
X380050364Y-81599500D01*
X379254629Y-81599500D01*
X379254623Y-81599501D01*
X379195016Y-81605908D01*
X379060171Y-81656202D01*
X379060164Y-81656206D01*
X378944957Y-81742451D01*
X378944951Y-81742457D01*
X378902015Y-81799812D01*
X378846081Y-81841682D01*
X378802749Y-81849500D01*
X378477251Y-81849500D01*
X378410212Y-81829815D01*
X378377985Y-81799812D01*
X378338103Y-81746538D01*
X378335046Y-81742454D01*
X378324771Y-81734762D01*
X378219835Y-81656206D01*
X378219828Y-81656202D01*
X378084982Y-81605908D01*
X378084983Y-81605908D01*
X378025383Y-81599501D01*
X378025381Y-81599500D01*
X378025373Y-81599500D01*
X378025364Y-81599500D01*
X377229629Y-81599500D01*
X377229623Y-81599501D01*
X377170016Y-81605908D01*
X377074102Y-81641682D01*
X377068474Y-81642697D01*
X377065705Y-81644477D01*
X377030770Y-81649500D01*
X376824361Y-81649500D01*
X376757322Y-81629815D01*
X376736684Y-81613185D01*
X376624035Y-81500536D01*
X376624034Y-81500535D01*
X376624033Y-81500534D01*
X376476553Y-81401990D01*
X376476540Y-81401983D01*
X376312667Y-81334106D01*
X376312658Y-81334103D01*
X376138694Y-81299500D01*
X376138691Y-81299500D01*
X375961309Y-81299500D01*
X375961306Y-81299500D01*
X375787341Y-81334103D01*
X375787332Y-81334106D01*
X375623459Y-81401983D01*
X375623446Y-81401990D01*
X375475965Y-81500535D01*
X375475961Y-81500538D01*
X375350538Y-81625961D01*
X375350535Y-81625965D01*
X375251990Y-81773446D01*
X375251983Y-81773459D01*
X375184106Y-81937332D01*
X375184103Y-81937341D01*
X375149500Y-82111304D01*
X331702999Y-82111304D01*
X331702999Y-82052128D01*
X331696591Y-81992517D01*
X331695544Y-81989711D01*
X331646297Y-81857671D01*
X331646293Y-81857664D01*
X331560047Y-81742455D01*
X331560044Y-81742452D01*
X331444835Y-81656206D01*
X331444828Y-81656202D01*
X331309982Y-81605908D01*
X331309983Y-81605908D01*
X331250383Y-81599501D01*
X331250381Y-81599500D01*
X331250373Y-81599500D01*
X331250364Y-81599500D01*
X330454629Y-81599500D01*
X330454623Y-81599501D01*
X330395016Y-81605908D01*
X330260171Y-81656202D01*
X330260164Y-81656206D01*
X330144957Y-81742451D01*
X330144951Y-81742457D01*
X330102015Y-81799812D01*
X330046081Y-81841682D01*
X330002749Y-81849500D01*
X329677251Y-81849500D01*
X329610212Y-81829815D01*
X329577985Y-81799812D01*
X329538103Y-81746538D01*
X329535046Y-81742454D01*
X329524771Y-81734762D01*
X329419835Y-81656206D01*
X329419828Y-81656202D01*
X329284982Y-81605908D01*
X329284983Y-81605908D01*
X329225383Y-81599501D01*
X329225381Y-81599500D01*
X329225373Y-81599500D01*
X329225364Y-81599500D01*
X328429629Y-81599500D01*
X328429623Y-81599501D01*
X328370016Y-81605908D01*
X328274102Y-81641682D01*
X328268474Y-81642697D01*
X328265705Y-81644477D01*
X328230770Y-81649500D01*
X328024361Y-81649500D01*
X327957322Y-81629815D01*
X327936684Y-81613185D01*
X327824035Y-81500536D01*
X327824034Y-81500535D01*
X327824033Y-81500534D01*
X327676553Y-81401990D01*
X327676540Y-81401983D01*
X327512667Y-81334106D01*
X327512658Y-81334103D01*
X327338694Y-81299500D01*
X327338691Y-81299500D01*
X327161309Y-81299500D01*
X327161306Y-81299500D01*
X326987341Y-81334103D01*
X326987332Y-81334106D01*
X326823459Y-81401983D01*
X326823446Y-81401990D01*
X326675965Y-81500535D01*
X326675961Y-81500538D01*
X326550538Y-81625961D01*
X326550535Y-81625965D01*
X326451990Y-81773446D01*
X326451983Y-81773459D01*
X326384106Y-81937332D01*
X326384103Y-81937341D01*
X326349500Y-82111304D01*
X282902999Y-82111304D01*
X282902999Y-82052128D01*
X282896591Y-81992517D01*
X282895544Y-81989711D01*
X282846297Y-81857671D01*
X282846293Y-81857664D01*
X282760047Y-81742455D01*
X282760044Y-81742452D01*
X282644835Y-81656206D01*
X282644828Y-81656202D01*
X282509982Y-81605908D01*
X282509983Y-81605908D01*
X282450383Y-81599501D01*
X282450381Y-81599500D01*
X282450373Y-81599500D01*
X282450364Y-81599500D01*
X281654629Y-81599500D01*
X281654623Y-81599501D01*
X281595016Y-81605908D01*
X281460171Y-81656202D01*
X281460164Y-81656206D01*
X281344957Y-81742451D01*
X281344951Y-81742457D01*
X281302015Y-81799812D01*
X281246081Y-81841682D01*
X281202749Y-81849500D01*
X280877251Y-81849500D01*
X280810212Y-81829815D01*
X280777985Y-81799812D01*
X280738103Y-81746538D01*
X280735046Y-81742454D01*
X280724771Y-81734762D01*
X280619835Y-81656206D01*
X280619828Y-81656202D01*
X280484982Y-81605908D01*
X280484983Y-81605908D01*
X280425383Y-81599501D01*
X280425381Y-81599500D01*
X280425373Y-81599500D01*
X280425364Y-81599500D01*
X279629629Y-81599500D01*
X279629623Y-81599501D01*
X279570016Y-81605908D01*
X279474102Y-81641682D01*
X279468474Y-81642697D01*
X279465705Y-81644477D01*
X279430770Y-81649500D01*
X279224361Y-81649500D01*
X279157322Y-81629815D01*
X279136684Y-81613185D01*
X279024035Y-81500536D01*
X279024034Y-81500535D01*
X279024033Y-81500534D01*
X278876553Y-81401990D01*
X278876540Y-81401983D01*
X278712667Y-81334106D01*
X278712658Y-81334103D01*
X278538694Y-81299500D01*
X278538691Y-81299500D01*
X278361309Y-81299500D01*
X278361306Y-81299500D01*
X278187341Y-81334103D01*
X278187332Y-81334106D01*
X278023459Y-81401983D01*
X278023446Y-81401990D01*
X277875965Y-81500535D01*
X277875961Y-81500538D01*
X277750538Y-81625961D01*
X277750535Y-81625965D01*
X277651990Y-81773446D01*
X277651983Y-81773459D01*
X277584106Y-81937332D01*
X277584103Y-81937341D01*
X277549500Y-82111304D01*
X234102999Y-82111304D01*
X234102999Y-82052128D01*
X234096591Y-81992517D01*
X234095544Y-81989711D01*
X234046297Y-81857671D01*
X234046293Y-81857664D01*
X233960047Y-81742455D01*
X233960044Y-81742452D01*
X233844835Y-81656206D01*
X233844828Y-81656202D01*
X233709982Y-81605908D01*
X233709983Y-81605908D01*
X233650383Y-81599501D01*
X233650381Y-81599500D01*
X233650373Y-81599500D01*
X233650364Y-81599500D01*
X232854629Y-81599500D01*
X232854623Y-81599501D01*
X232795016Y-81605908D01*
X232660171Y-81656202D01*
X232660164Y-81656206D01*
X232544957Y-81742451D01*
X232544951Y-81742457D01*
X232502015Y-81799812D01*
X232446081Y-81841682D01*
X232402749Y-81849500D01*
X232077251Y-81849500D01*
X232010212Y-81829815D01*
X231977985Y-81799812D01*
X231938103Y-81746538D01*
X231935046Y-81742454D01*
X231924771Y-81734762D01*
X231819835Y-81656206D01*
X231819828Y-81656202D01*
X231684982Y-81605908D01*
X231684983Y-81605908D01*
X231625383Y-81599501D01*
X231625381Y-81599500D01*
X231625373Y-81599500D01*
X231625364Y-81599500D01*
X230829629Y-81599500D01*
X230829623Y-81599501D01*
X230770016Y-81605908D01*
X230674102Y-81641682D01*
X230668474Y-81642697D01*
X230665705Y-81644477D01*
X230630770Y-81649500D01*
X230424361Y-81649500D01*
X230357322Y-81629815D01*
X230336684Y-81613185D01*
X230224035Y-81500536D01*
X230224034Y-81500535D01*
X230224033Y-81500534D01*
X230076553Y-81401990D01*
X230076540Y-81401983D01*
X229912667Y-81334106D01*
X229912658Y-81334103D01*
X229738694Y-81299500D01*
X229738691Y-81299500D01*
X229561309Y-81299500D01*
X229561306Y-81299500D01*
X229387341Y-81334103D01*
X229387332Y-81334106D01*
X229223459Y-81401983D01*
X229223446Y-81401990D01*
X229075965Y-81500535D01*
X229075961Y-81500538D01*
X228950538Y-81625961D01*
X228950535Y-81625965D01*
X228851990Y-81773446D01*
X228851983Y-81773459D01*
X228784106Y-81937332D01*
X228784103Y-81937341D01*
X228749500Y-82111304D01*
X185302999Y-82111304D01*
X185302999Y-82052128D01*
X185296591Y-81992517D01*
X185295544Y-81989711D01*
X185246297Y-81857671D01*
X185246293Y-81857664D01*
X185160047Y-81742455D01*
X185160044Y-81742452D01*
X185044835Y-81656206D01*
X185044828Y-81656202D01*
X184909982Y-81605908D01*
X184909983Y-81605908D01*
X184850383Y-81599501D01*
X184850381Y-81599500D01*
X184850373Y-81599500D01*
X184850364Y-81599500D01*
X184054629Y-81599500D01*
X184054623Y-81599501D01*
X183995016Y-81605908D01*
X183860171Y-81656202D01*
X183860164Y-81656206D01*
X183744957Y-81742451D01*
X183744951Y-81742457D01*
X183702015Y-81799812D01*
X183646081Y-81841682D01*
X183602749Y-81849500D01*
X183277251Y-81849500D01*
X183210212Y-81829815D01*
X183177985Y-81799812D01*
X183138103Y-81746538D01*
X183135046Y-81742454D01*
X183124771Y-81734762D01*
X183019835Y-81656206D01*
X183019828Y-81656202D01*
X182884982Y-81605908D01*
X182884983Y-81605908D01*
X182825383Y-81599501D01*
X182825381Y-81599500D01*
X182825373Y-81599500D01*
X182825364Y-81599500D01*
X182029629Y-81599500D01*
X182029623Y-81599501D01*
X181970016Y-81605908D01*
X181874102Y-81641682D01*
X181868474Y-81642697D01*
X181865705Y-81644477D01*
X181830770Y-81649500D01*
X181624361Y-81649500D01*
X181557322Y-81629815D01*
X181536684Y-81613185D01*
X181424035Y-81500536D01*
X181424034Y-81500535D01*
X181424033Y-81500534D01*
X181276553Y-81401990D01*
X181276540Y-81401983D01*
X181112667Y-81334106D01*
X181112658Y-81334103D01*
X180938694Y-81299500D01*
X180938691Y-81299500D01*
X180761309Y-81299500D01*
X180761306Y-81299500D01*
X180587341Y-81334103D01*
X180587332Y-81334106D01*
X180423459Y-81401983D01*
X180423446Y-81401990D01*
X180275965Y-81500535D01*
X180275961Y-81500538D01*
X180150538Y-81625961D01*
X180150535Y-81625965D01*
X180051990Y-81773446D01*
X180051983Y-81773459D01*
X179984106Y-81937332D01*
X179984103Y-81937341D01*
X179949500Y-82111304D01*
X136502999Y-82111304D01*
X136502999Y-82052128D01*
X136496591Y-81992517D01*
X136495544Y-81989711D01*
X136446297Y-81857671D01*
X136446293Y-81857664D01*
X136360047Y-81742455D01*
X136360044Y-81742452D01*
X136244835Y-81656206D01*
X136244828Y-81656202D01*
X136109982Y-81605908D01*
X136109983Y-81605908D01*
X136050383Y-81599501D01*
X136050381Y-81599500D01*
X136050373Y-81599500D01*
X136050364Y-81599500D01*
X135254629Y-81599500D01*
X135254623Y-81599501D01*
X135195016Y-81605908D01*
X135060171Y-81656202D01*
X135060164Y-81656206D01*
X134944957Y-81742451D01*
X134944951Y-81742457D01*
X134902015Y-81799812D01*
X134846081Y-81841682D01*
X134802749Y-81849500D01*
X134477251Y-81849500D01*
X134410212Y-81829815D01*
X134377985Y-81799812D01*
X134338103Y-81746538D01*
X134335046Y-81742454D01*
X134324771Y-81734762D01*
X134219835Y-81656206D01*
X134219828Y-81656202D01*
X134084982Y-81605908D01*
X134084983Y-81605908D01*
X134025383Y-81599501D01*
X134025381Y-81599500D01*
X134025373Y-81599500D01*
X134025364Y-81599500D01*
X133229629Y-81599500D01*
X133229623Y-81599501D01*
X133170016Y-81605908D01*
X133074102Y-81641682D01*
X133068474Y-81642697D01*
X133065705Y-81644477D01*
X133030770Y-81649500D01*
X132824361Y-81649500D01*
X132757322Y-81629815D01*
X132736684Y-81613185D01*
X132624035Y-81500536D01*
X132624034Y-81500535D01*
X132624033Y-81500534D01*
X132476553Y-81401990D01*
X132476540Y-81401983D01*
X132312667Y-81334106D01*
X132312658Y-81334103D01*
X132138694Y-81299500D01*
X132138691Y-81299500D01*
X131961309Y-81299500D01*
X131961306Y-81299500D01*
X131787341Y-81334103D01*
X131787332Y-81334106D01*
X131623459Y-81401983D01*
X131623446Y-81401990D01*
X131475965Y-81500535D01*
X131475961Y-81500538D01*
X131350538Y-81625961D01*
X131350535Y-81625965D01*
X131251990Y-81773446D01*
X131251983Y-81773459D01*
X131184106Y-81937332D01*
X131184103Y-81937341D01*
X131149500Y-82111304D01*
X87702999Y-82111304D01*
X87702999Y-82052128D01*
X87696591Y-81992517D01*
X87695544Y-81989711D01*
X87646297Y-81857671D01*
X87646293Y-81857664D01*
X87560047Y-81742455D01*
X87560044Y-81742452D01*
X87444835Y-81656206D01*
X87444828Y-81656202D01*
X87309982Y-81605908D01*
X87309983Y-81605908D01*
X87250383Y-81599501D01*
X87250381Y-81599500D01*
X87250373Y-81599500D01*
X87250364Y-81599500D01*
X86454629Y-81599500D01*
X86454623Y-81599501D01*
X86395016Y-81605908D01*
X86260171Y-81656202D01*
X86260164Y-81656206D01*
X86144957Y-81742451D01*
X86144951Y-81742457D01*
X86102015Y-81799812D01*
X86046081Y-81841682D01*
X86002749Y-81849500D01*
X85677251Y-81849500D01*
X85610212Y-81829815D01*
X85577985Y-81799812D01*
X85538103Y-81746538D01*
X85535046Y-81742454D01*
X85524771Y-81734762D01*
X85419835Y-81656206D01*
X85419828Y-81656202D01*
X85284982Y-81605908D01*
X85284983Y-81605908D01*
X85225383Y-81599501D01*
X85225381Y-81599500D01*
X85225373Y-81599500D01*
X85225364Y-81599500D01*
X84429629Y-81599500D01*
X84429623Y-81599501D01*
X84370016Y-81605908D01*
X84274102Y-81641682D01*
X84268474Y-81642697D01*
X84265705Y-81644477D01*
X84230770Y-81649500D01*
X84024361Y-81649500D01*
X83957322Y-81629815D01*
X83936684Y-81613185D01*
X83824035Y-81500536D01*
X83824034Y-81500535D01*
X83824033Y-81500534D01*
X83676553Y-81401990D01*
X83676540Y-81401983D01*
X83512667Y-81334106D01*
X83512658Y-81334103D01*
X83338694Y-81299500D01*
X83338691Y-81299500D01*
X83161309Y-81299500D01*
X83161306Y-81299500D01*
X82987341Y-81334103D01*
X82987332Y-81334106D01*
X82823459Y-81401983D01*
X82823446Y-81401990D01*
X82675965Y-81500535D01*
X82675961Y-81500538D01*
X82550538Y-81625961D01*
X82550535Y-81625965D01*
X82451990Y-81773446D01*
X82451983Y-81773459D01*
X82384106Y-81937332D01*
X82384103Y-81937341D01*
X82349500Y-82111304D01*
X38902999Y-82111304D01*
X38902999Y-82052128D01*
X38896591Y-81992517D01*
X38895544Y-81989711D01*
X38846297Y-81857671D01*
X38846293Y-81857664D01*
X38760047Y-81742455D01*
X38760044Y-81742452D01*
X38644835Y-81656206D01*
X38644828Y-81656202D01*
X38509982Y-81605908D01*
X38509983Y-81605908D01*
X38450383Y-81599501D01*
X38450381Y-81599500D01*
X38450373Y-81599500D01*
X38450364Y-81599500D01*
X37654629Y-81599500D01*
X37654623Y-81599501D01*
X37595016Y-81605908D01*
X37460171Y-81656202D01*
X37460164Y-81656206D01*
X37344957Y-81742451D01*
X37344951Y-81742457D01*
X37302015Y-81799812D01*
X37246081Y-81841682D01*
X37202749Y-81849500D01*
X36877251Y-81849500D01*
X36810212Y-81829815D01*
X36777985Y-81799812D01*
X36738103Y-81746538D01*
X36735046Y-81742454D01*
X36724771Y-81734762D01*
X36619835Y-81656206D01*
X36619828Y-81656202D01*
X36484982Y-81605908D01*
X36484983Y-81605908D01*
X36425383Y-81599501D01*
X36425381Y-81599500D01*
X36425373Y-81599500D01*
X36425364Y-81599500D01*
X35629629Y-81599500D01*
X35629623Y-81599501D01*
X35570016Y-81605908D01*
X35474102Y-81641682D01*
X35468474Y-81642697D01*
X35465705Y-81644477D01*
X35430770Y-81649500D01*
X35224361Y-81649500D01*
X35157322Y-81629815D01*
X35136684Y-81613185D01*
X35024035Y-81500536D01*
X35024034Y-81500535D01*
X35024033Y-81500534D01*
X34876553Y-81401990D01*
X34876540Y-81401983D01*
X34712667Y-81334106D01*
X34712658Y-81334103D01*
X34538694Y-81299500D01*
X34538691Y-81299500D01*
X34361309Y-81299500D01*
X34361306Y-81299500D01*
X34187341Y-81334103D01*
X34187332Y-81334106D01*
X34023459Y-81401983D01*
X34023446Y-81401990D01*
X33875965Y-81500535D01*
X33875961Y-81500538D01*
X33750538Y-81625961D01*
X33750535Y-81625965D01*
X33651990Y-81773446D01*
X33651983Y-81773459D01*
X33584106Y-81937332D01*
X33584103Y-81937341D01*
X33549500Y-82111304D01*
X10324356Y-82111304D01*
X10367317Y-82068343D01*
X10384725Y-82040121D01*
X10384725Y-82040120D01*
X10459356Y-81919124D01*
X10459358Y-81919119D01*
X10514505Y-81752697D01*
X10514506Y-81752690D01*
X10524999Y-81649986D01*
X10525000Y-81649973D01*
X10525000Y-80750000D01*
X9700000Y-80750000D01*
X9700000Y-82349999D01*
X9199999Y-82349999D01*
X9200000Y-82349998D01*
X9200000Y-80250000D01*
X9700000Y-80250000D01*
X10524999Y-80250000D01*
X10524999Y-79350028D01*
X10524998Y-79350013D01*
X10514505Y-79247302D01*
X10459358Y-79080880D01*
X10459356Y-79080875D01*
X10367315Y-78931654D01*
X10243345Y-78807684D01*
X10094124Y-78715643D01*
X10094119Y-78715641D01*
X9927697Y-78660494D01*
X9927690Y-78660493D01*
X9824986Y-78650000D01*
X9700000Y-78650000D01*
X9700000Y-80250000D01*
X9200000Y-80250000D01*
X9200000Y-78626336D01*
X9194977Y-78617138D01*
X9194977Y-78617134D01*
X9194975Y-78617130D01*
X9198432Y-78568833D01*
X9199961Y-78547446D01*
X9199963Y-78547441D01*
X9199964Y-78547439D01*
X9199968Y-78547433D01*
X9218421Y-78515365D01*
X9218405Y-78515354D01*
X9218571Y-78515104D01*
X9220296Y-78512108D01*
X9221785Y-78510292D01*
X9221789Y-78510289D01*
X9309394Y-78379179D01*
X9369737Y-78233497D01*
X9400500Y-78078842D01*
X9400500Y-77921158D01*
X9400500Y-77921155D01*
X9400499Y-77921153D01*
X9379439Y-77815278D01*
X9369737Y-77766503D01*
X9311432Y-77625740D01*
X9309397Y-77620827D01*
X9309390Y-77620814D01*
X9221792Y-77489715D01*
X9220290Y-77487885D01*
X9219802Y-77486738D01*
X9218405Y-77484646D01*
X9218801Y-77484380D01*
X9192976Y-77423575D01*
X9200000Y-77382546D01*
X9200000Y-77349999D01*
X9700000Y-77349999D01*
X9824972Y-77349999D01*
X9824986Y-77349998D01*
X9927697Y-77339505D01*
X10094119Y-77284358D01*
X10094124Y-77284356D01*
X10243345Y-77192315D01*
X10367315Y-77068345D01*
X10459356Y-76919124D01*
X10459358Y-76919119D01*
X10514505Y-76752697D01*
X10514506Y-76752690D01*
X10524999Y-76649986D01*
X10525000Y-76649973D01*
X10525000Y-75750000D01*
X9700000Y-75750000D01*
X9700000Y-77349999D01*
X9200000Y-77349999D01*
X9200000Y-75250000D01*
X9700000Y-75250000D01*
X10524999Y-75250000D01*
X10524999Y-74350028D01*
X10524998Y-74350013D01*
X10514505Y-74247302D01*
X10459358Y-74080880D01*
X10459356Y-74080875D01*
X10367315Y-73931654D01*
X10243345Y-73807684D01*
X10094124Y-73715643D01*
X10094119Y-73715641D01*
X9927697Y-73660494D01*
X9927690Y-73660493D01*
X9824986Y-73650000D01*
X9700000Y-73650000D01*
X9700000Y-75250000D01*
X9200000Y-75250000D01*
X9200000Y-73650000D01*
X9075027Y-73650000D01*
X9075012Y-73650001D01*
X8972302Y-73660494D01*
X8805880Y-73715641D01*
X8805871Y-73715645D01*
X8699051Y-73781532D01*
X8616596Y-73847742D01*
X8532682Y-73931657D01*
X8440643Y-74080875D01*
X8440641Y-74080880D01*
X8385494Y-74247302D01*
X8385493Y-74247309D01*
X8375000Y-74350013D01*
X8375000Y-74607315D01*
X8355315Y-74674354D01*
X8302511Y-74720109D01*
X8233353Y-74730053D01*
X8226809Y-74728932D01*
X8078845Y-74699500D01*
X8078842Y-74699500D01*
X7921158Y-74699500D01*
X7921155Y-74699500D01*
X7766510Y-74730261D01*
X7766502Y-74730263D01*
X7746950Y-74738362D01*
X7677480Y-74745829D01*
X7615002Y-74714554D01*
X7579350Y-74654464D01*
X7575499Y-74623800D01*
X7575499Y-74349998D01*
X7575498Y-74349981D01*
X7564999Y-74247203D01*
X7564998Y-74247200D01*
X7532141Y-74148045D01*
X7509814Y-74080666D01*
X7417712Y-73931344D01*
X7298549Y-73812181D01*
X7287936Y-73792744D01*
X7273436Y-73776011D01*
X7271519Y-73762679D01*
X7265064Y-73750858D01*
X7266643Y-73728771D01*
X7263492Y-73706853D01*
X7269087Y-73694601D01*
X7270048Y-73681166D01*
X7283318Y-73663439D01*
X7292517Y-73643297D01*
X7303848Y-73636014D01*
X7311920Y-73625233D01*
X7332665Y-73617495D01*
X7351295Y-73605523D01*
X7373213Y-73602371D01*
X7377384Y-73600816D01*
X7386230Y-73600500D01*
X7420234Y-73600500D01*
X7487273Y-73620185D01*
X7489125Y-73621398D01*
X7620814Y-73709390D01*
X7620827Y-73709397D01*
X7749463Y-73762679D01*
X7766503Y-73769737D01*
X7921153Y-73800499D01*
X7921156Y-73800500D01*
X7921158Y-73800500D01*
X8078844Y-73800500D01*
X8078845Y-73800499D01*
X8233497Y-73769737D01*
X8364088Y-73715645D01*
X8379172Y-73709397D01*
X8379172Y-73709396D01*
X8379179Y-73709394D01*
X8510289Y-73621789D01*
X8621789Y-73510289D01*
X8709394Y-73379179D01*
X8769737Y-73233497D01*
X8800500Y-73078842D01*
X8800500Y-72921158D01*
X8800500Y-72921155D01*
X8800499Y-72921153D01*
X8769738Y-72766510D01*
X8769737Y-72766503D01*
X8756062Y-72733489D01*
X8709397Y-72620827D01*
X8709390Y-72620814D01*
X8621789Y-72489711D01*
X8621786Y-72489707D01*
X8544506Y-72412427D01*
X8544500Y-72412422D01*
X8510289Y-72378211D01*
X8460290Y-72344803D01*
X8460283Y-72344797D01*
X8379185Y-72290609D01*
X8379172Y-72290602D01*
X8233501Y-72230264D01*
X8233489Y-72230261D01*
X8078845Y-72199500D01*
X8078842Y-72199500D01*
X7921158Y-72199500D01*
X7921155Y-72199500D01*
X7766510Y-72230261D01*
X7766498Y-72230264D01*
X7620827Y-72290602D01*
X7620814Y-72290609D01*
X7489125Y-72378602D01*
X7471078Y-72384252D01*
X7455169Y-72394477D01*
X7424207Y-72398928D01*
X7422447Y-72399480D01*
X7420234Y-72399500D01*
X7386230Y-72399500D01*
X7319191Y-72379815D01*
X7273436Y-72327011D01*
X7263492Y-72257853D01*
X7292517Y-72194297D01*
X7298549Y-72187819D01*
X7334116Y-72152252D01*
X7417712Y-72068656D01*
X7509814Y-71919334D01*
X7564999Y-71752797D01*
X7575500Y-71650009D01*
X7575499Y-71376197D01*
X7595183Y-71309160D01*
X7647987Y-71263405D01*
X7717146Y-71253461D01*
X7746949Y-71261637D01*
X7766503Y-71269737D01*
X7921153Y-71300499D01*
X7921156Y-71300500D01*
X7921158Y-71300500D01*
X8078844Y-71300500D01*
X8142027Y-71287931D01*
X8226809Y-71271067D01*
X8296399Y-71277294D01*
X8351577Y-71320156D01*
X8374822Y-71386046D01*
X8375000Y-71392684D01*
X8375000Y-71649970D01*
X8375001Y-71649987D01*
X8385494Y-71752697D01*
X8440641Y-71919119D01*
X8440643Y-71919124D01*
X8532684Y-72068345D01*
X8616591Y-72152252D01*
X8699053Y-72218468D01*
X8805869Y-72284353D01*
X8805880Y-72284358D01*
X8972302Y-72339505D01*
X8972309Y-72339506D01*
X9075019Y-72349999D01*
X9199999Y-72349999D01*
X9700000Y-72349999D01*
X9824972Y-72349999D01*
X9824986Y-72349998D01*
X9927697Y-72339505D01*
X10094119Y-72284358D01*
X10094124Y-72284356D01*
X10243345Y-72192315D01*
X10367315Y-72068345D01*
X10459356Y-71919124D01*
X10459358Y-71919119D01*
X10514505Y-71752697D01*
X10514506Y-71752690D01*
X10524999Y-71649986D01*
X10525000Y-71649973D01*
X10525000Y-70750000D01*
X9700000Y-70750000D01*
X9700000Y-72349999D01*
X9199999Y-72349999D01*
X9200000Y-72349998D01*
X9200000Y-70250000D01*
X9700000Y-70250000D01*
X10524999Y-70250000D01*
X10524999Y-69350028D01*
X10524998Y-69350013D01*
X10514505Y-69247302D01*
X10459358Y-69080880D01*
X10459356Y-69080875D01*
X10367315Y-68931654D01*
X10243345Y-68807684D01*
X10094124Y-68715643D01*
X10094119Y-68715641D01*
X9927697Y-68660494D01*
X9927690Y-68660493D01*
X9824986Y-68650000D01*
X9700000Y-68650000D01*
X9700000Y-70250000D01*
X9200000Y-70250000D01*
X9200000Y-68650000D01*
X9075027Y-68650000D01*
X9075012Y-68650001D01*
X8972302Y-68660494D01*
X8805880Y-68715641D01*
X8805875Y-68715643D01*
X8656654Y-68807684D01*
X8532684Y-68931654D01*
X8440643Y-69080875D01*
X8440641Y-69080880D01*
X8385494Y-69247302D01*
X8385493Y-69247309D01*
X8375000Y-69350013D01*
X8375000Y-69607315D01*
X8355315Y-69674354D01*
X8302511Y-69720109D01*
X8233353Y-69730053D01*
X8226809Y-69728932D01*
X8078845Y-69699500D01*
X8078842Y-69699500D01*
X7921158Y-69699500D01*
X7921155Y-69699500D01*
X7766510Y-69730261D01*
X7766502Y-69730263D01*
X7746950Y-69738362D01*
X7677480Y-69745829D01*
X7615002Y-69714554D01*
X7579350Y-69654464D01*
X7575499Y-69623800D01*
X7575499Y-69349998D01*
X7575498Y-69349981D01*
X7564999Y-69247203D01*
X7564998Y-69247200D01*
X7560457Y-69233497D01*
X7509814Y-69080666D01*
X7417712Y-68931344D01*
X7293656Y-68807288D01*
X7175801Y-68734595D01*
X7144336Y-68715187D01*
X7144331Y-68715185D01*
X7142862Y-68714698D01*
X6977797Y-68660001D01*
X6977795Y-68660000D01*
X6875010Y-68649500D01*
X6124998Y-68649500D01*
X6124980Y-68649501D01*
X6022203Y-68660000D01*
X6022200Y-68660001D01*
X5855668Y-68715185D01*
X5855663Y-68715187D01*
X5706342Y-68807289D01*
X5582289Y-68931342D01*
X5490187Y-69080663D01*
X5490185Y-69080668D01*
X5490115Y-69080880D01*
X5435001Y-69247203D01*
X5435001Y-69247204D01*
X5435000Y-69247204D01*
X5424500Y-69349983D01*
X5424500Y-70775903D01*
X5404815Y-70842942D01*
X5352011Y-70888697D01*
X5282853Y-70898641D01*
X5219297Y-70869616D01*
X5212819Y-70863584D01*
X3087590Y-68738355D01*
X3087588Y-68738352D01*
X2968717Y-68619481D01*
X2968716Y-68619480D01*
X2881904Y-68569360D01*
X2881904Y-68569359D01*
X2881900Y-68569358D01*
X2831785Y-68540423D01*
X2679057Y-68499499D01*
X2520943Y-68499499D01*
X2513347Y-68499499D01*
X2513331Y-68499500D01*
X749097Y-68499500D01*
X682058Y-68479815D01*
X636303Y-68427011D01*
X626359Y-68357853D01*
X655384Y-68294297D01*
X661416Y-68287819D01*
X1328414Y-67620821D01*
X2014662Y-66934572D01*
X2075983Y-66901089D01*
X2078150Y-66900638D01*
X2136085Y-66889113D01*
X2233497Y-66869737D01*
X2379179Y-66809394D01*
X2510289Y-66721789D01*
X2621789Y-66610289D01*
X2709394Y-66479179D01*
X2712340Y-66472068D01*
X2745221Y-66392684D01*
X2769737Y-66333497D01*
X2800500Y-66178842D01*
X2800500Y-66021158D01*
X2800500Y-66021155D01*
X2800499Y-66021153D01*
X2769738Y-65866510D01*
X2769738Y-65866508D01*
X2769737Y-65866503D01*
X2769735Y-65866498D01*
X2709397Y-65720827D01*
X2709390Y-65720814D01*
X2621789Y-65589711D01*
X2621786Y-65589707D01*
X2510292Y-65478213D01*
X2510288Y-65478210D01*
X2379185Y-65390609D01*
X2379172Y-65390602D01*
X2233501Y-65330264D01*
X2233489Y-65330261D01*
X2078845Y-65299500D01*
X2078842Y-65299500D01*
X1921158Y-65299500D01*
X1921155Y-65299500D01*
X1766510Y-65330261D01*
X1766498Y-65330264D01*
X1620827Y-65390602D01*
X1620814Y-65390609D01*
X1489711Y-65478210D01*
X1489707Y-65478213D01*
X1378213Y-65589707D01*
X1378210Y-65589711D01*
X1290609Y-65720814D01*
X1290602Y-65720827D01*
X1230264Y-65866498D01*
X1230261Y-65866508D01*
X1199361Y-66021850D01*
X1166976Y-66083761D01*
X1165425Y-66085339D01*
X812181Y-66438583D01*
X750858Y-66472068D01*
X681166Y-66467084D01*
X625233Y-66425212D01*
X600816Y-66359748D01*
X600500Y-66350902D01*
X600500Y-65300097D01*
X620185Y-65233058D01*
X636819Y-65212416D01*
X1499252Y-64349983D01*
X5424500Y-64349983D01*
X5424500Y-66650001D01*
X5424501Y-66650018D01*
X5435000Y-66752796D01*
X5435001Y-66752799D01*
X5476103Y-66876834D01*
X5490186Y-66919334D01*
X5582288Y-67068656D01*
X5706344Y-67192712D01*
X5855666Y-67284814D01*
X6022203Y-67339999D01*
X6124991Y-67350500D01*
X6875008Y-67350499D01*
X6875016Y-67350498D01*
X6875019Y-67350498D01*
X6931302Y-67344748D01*
X6977797Y-67339999D01*
X7144334Y-67284814D01*
X7293656Y-67192712D01*
X7417712Y-67068656D01*
X7509814Y-66919334D01*
X7564999Y-66752797D01*
X7575500Y-66650009D01*
X7575499Y-66376197D01*
X7595183Y-66309160D01*
X7647987Y-66263405D01*
X7717146Y-66253461D01*
X7746949Y-66261637D01*
X7766503Y-66269737D01*
X7921153Y-66300499D01*
X7921156Y-66300500D01*
X7921158Y-66300500D01*
X8078844Y-66300500D01*
X8143780Y-66287583D01*
X8226809Y-66271067D01*
X8296399Y-66277294D01*
X8351577Y-66320156D01*
X8374822Y-66386046D01*
X8375000Y-66392684D01*
X8375000Y-66649970D01*
X8375001Y-66649987D01*
X8385494Y-66752697D01*
X8440641Y-66919119D01*
X8440643Y-66919124D01*
X8532684Y-67068345D01*
X8656654Y-67192315D01*
X8805875Y-67284356D01*
X8805880Y-67284358D01*
X8972302Y-67339505D01*
X8972309Y-67339506D01*
X9075019Y-67349999D01*
X9199999Y-67349999D01*
X9700000Y-67349999D01*
X9824972Y-67349999D01*
X9824986Y-67349998D01*
X9927697Y-67339505D01*
X10094119Y-67284358D01*
X10094124Y-67284356D01*
X10243345Y-67192315D01*
X10367315Y-67068345D01*
X10459356Y-66919124D01*
X10459358Y-66919119D01*
X10514505Y-66752697D01*
X10514506Y-66752690D01*
X10524999Y-66649986D01*
X10525000Y-66649973D01*
X10525000Y-65750000D01*
X9700000Y-65750000D01*
X9700000Y-67349999D01*
X9199999Y-67349999D01*
X9200000Y-67349998D01*
X9200000Y-65250000D01*
X9700000Y-65250000D01*
X10524999Y-65250000D01*
X10524999Y-64350028D01*
X10524998Y-64350013D01*
X10514505Y-64247302D01*
X10459358Y-64080880D01*
X10459356Y-64080875D01*
X10367315Y-63931654D01*
X10243345Y-63807684D01*
X10094124Y-63715643D01*
X10094119Y-63715641D01*
X9927697Y-63660494D01*
X9927690Y-63660493D01*
X9824986Y-63650000D01*
X9700000Y-63650000D01*
X9700000Y-65250000D01*
X9200000Y-65250000D01*
X9200000Y-63650000D01*
X9075027Y-63650000D01*
X9075012Y-63650001D01*
X8972302Y-63660494D01*
X8805880Y-63715641D01*
X8805875Y-63715643D01*
X8656654Y-63807684D01*
X8532684Y-63931654D01*
X8440643Y-64080875D01*
X8440641Y-64080880D01*
X8385494Y-64247302D01*
X8385493Y-64247309D01*
X8375000Y-64350013D01*
X8375000Y-64607315D01*
X8355315Y-64674354D01*
X8302511Y-64720109D01*
X8233353Y-64730053D01*
X8226809Y-64728932D01*
X8078845Y-64699500D01*
X8078842Y-64699500D01*
X7921158Y-64699500D01*
X7921155Y-64699500D01*
X7766510Y-64730261D01*
X7766502Y-64730263D01*
X7746950Y-64738362D01*
X7677480Y-64745829D01*
X7615002Y-64714554D01*
X7579350Y-64654464D01*
X7575499Y-64623800D01*
X7575499Y-64349998D01*
X7575498Y-64349981D01*
X7564999Y-64247203D01*
X7564998Y-64247200D01*
X7556093Y-64220328D01*
X7509814Y-64080666D01*
X7417712Y-63931344D01*
X7293656Y-63807288D01*
X7144334Y-63715186D01*
X6977797Y-63660001D01*
X6977795Y-63660000D01*
X6875010Y-63649500D01*
X6124998Y-63649500D01*
X6124980Y-63649501D01*
X6022203Y-63660000D01*
X6022200Y-63660001D01*
X5855668Y-63715185D01*
X5855663Y-63715187D01*
X5706342Y-63807289D01*
X5582289Y-63931342D01*
X5490187Y-64080663D01*
X5490185Y-64080668D01*
X5490115Y-64080880D01*
X5435001Y-64247203D01*
X5435001Y-64247204D01*
X5435000Y-64247204D01*
X5424500Y-64349983D01*
X1499252Y-64349983D01*
X1768572Y-64080663D01*
X3014664Y-62834571D01*
X3075985Y-62801088D01*
X3078152Y-62800637D01*
X3078841Y-62800500D01*
X3078842Y-62800500D01*
X3233497Y-62769737D01*
X3379179Y-62709394D01*
X3510289Y-62621789D01*
X3621789Y-62510289D01*
X3709394Y-62379179D01*
X3769737Y-62233497D01*
X3800500Y-62078842D01*
X3800500Y-61921158D01*
X3800500Y-61921155D01*
X3800499Y-61921153D01*
X3773463Y-61785235D01*
X3769737Y-61766503D01*
X3709795Y-61621789D01*
X3709397Y-61620827D01*
X3709390Y-61620814D01*
X3621789Y-61489711D01*
X3621786Y-61489707D01*
X3510292Y-61378213D01*
X3510288Y-61378210D01*
X3379185Y-61290609D01*
X3379172Y-61290602D01*
X3233501Y-61230264D01*
X3233489Y-61230261D01*
X3078845Y-61199500D01*
X3078842Y-61199500D01*
X2921158Y-61199500D01*
X2921155Y-61199500D01*
X2766510Y-61230261D01*
X2766498Y-61230264D01*
X2620827Y-61290602D01*
X2620814Y-61290609D01*
X2489711Y-61378210D01*
X2489707Y-61378213D01*
X2378213Y-61489707D01*
X2378210Y-61489711D01*
X2290609Y-61620814D01*
X2290602Y-61620827D01*
X2230264Y-61766498D01*
X2230261Y-61766508D01*
X2199362Y-61921848D01*
X2166977Y-61983759D01*
X2165426Y-61985337D01*
X-364374Y-64515139D01*
X-364384Y-64515149D01*
X-364385Y-64515149D01*
X-480521Y-64631285D01*
X-493903Y-64654464D01*
X-519904Y-64699500D01*
X-559577Y-64768215D01*
X-600501Y-64920943D01*
X-600501Y-64920945D01*
X-600501Y-65089046D01*
X-600500Y-65089059D01*
X-600500Y-66199902D01*
X-620185Y-66266941D01*
X-636819Y-66287583D01*
X-1062416Y-66713181D01*
X-1123739Y-66746666D01*
X-1150097Y-66749500D01*
X-1538150Y-66749500D01*
X-1538175Y-66749501D01*
X-1573627Y-66752291D01*
X-1725385Y-66796380D01*
X-1725390Y-66796382D01*
X-1861416Y-66876827D01*
X-1861425Y-66876834D01*
X-1973166Y-66988575D01*
X-1977520Y-66994188D01*
X-2034163Y-67035095D01*
X-2103930Y-67038885D01*
X-2164670Y-67004354D01*
X-2197100Y-66942467D01*
X-2198610Y-66927189D01*
X-2198903Y-66927218D01*
X-2199500Y-66921153D01*
X-2230261Y-66766510D01*
X-2230264Y-66766498D01*
X-2290602Y-66620827D01*
X-2290609Y-66620814D01*
X-2378210Y-66489711D01*
X-2378213Y-66489707D01*
X-2489707Y-66378213D01*
X-2489711Y-66378210D01*
X-2620814Y-66290609D01*
X-2620827Y-66290602D01*
X-2766498Y-66230264D01*
X-2766510Y-66230261D01*
X-2921155Y-66199500D01*
X-2921158Y-66199500D01*
X-3078842Y-66199500D01*
X-3078845Y-66199500D01*
X-3166507Y-66216937D01*
X-3236098Y-66210710D01*
X-3291276Y-66167847D01*
X-3314520Y-66101957D01*
X-3314328Y-66093306D01*
X-3314500Y-66093306D01*
X-3314500Y-65912781D01*
X-3348527Y-65741716D01*
X-3348529Y-65741708D01*
X-3415278Y-65580560D01*
X-3415282Y-65580553D01*
X-3475006Y-65491170D01*
X-3495883Y-65424493D01*
X-3477398Y-65357113D01*
X-3425419Y-65310423D01*
X-3356449Y-65299247D01*
X-3324456Y-65307717D01*
X-3270330Y-65330137D01*
X-3046149Y-65390206D01*
X-2816045Y-65420500D01*
X-2816038Y-65420500D01*
X-2583962Y-65420500D01*
X-2583955Y-65420500D01*
X-2353851Y-65390206D01*
X-2129670Y-65330137D01*
X-1915248Y-65241320D01*
X-1915240Y-65241315D01*
X-1915237Y-65241314D01*
X-1714256Y-65125279D01*
X-1714254Y-65125278D01*
X-1530124Y-64983990D01*
X-1530117Y-64983984D01*
X-1366015Y-64819882D01*
X-1366009Y-64819875D01*
X-1224721Y-64635745D01*
X-1224720Y-64635743D01*
X-1108685Y-64434762D01*
X-1108677Y-64434745D01*
X-1019862Y-64220328D01*
X-959794Y-63996148D01*
X-929500Y-63766052D01*
X-929500Y-63533947D01*
X-959794Y-63303851D01*
X-1019862Y-63079671D01*
X-1108677Y-62865254D01*
X-1108685Y-62865237D01*
X-1224720Y-62664256D01*
X-1224721Y-62664254D01*
X-1366009Y-62480124D01*
X-1366015Y-62480117D01*
X-1530117Y-62316015D01*
X-1530124Y-62316009D01*
X-1714254Y-62174721D01*
X-1714256Y-62174720D01*
X-1915237Y-62058685D01*
X-1915254Y-62058677D01*
X-2129671Y-61969862D01*
X-2353851Y-61909794D01*
X-2583947Y-61879500D01*
X-2583955Y-61879500D01*
X-2816045Y-61879500D01*
X-2816052Y-61879500D01*
X-3017386Y-61906007D01*
X-3046149Y-61909794D01*
X-3088560Y-61921158D01*
X-3270328Y-61969862D01*
X-3484745Y-62058677D01*
X-3484752Y-62058680D01*
X-3484754Y-62058681D01*
X-3484762Y-62058685D01*
X-3685743Y-62174720D01*
X-3685745Y-62174721D01*
X-3869875Y-62316009D01*
X-3869882Y-62316015D01*
X-4033984Y-62480117D01*
X-4033990Y-62480124D01*
X-4175278Y-62664254D01*
X-4175279Y-62664256D01*
X-4291314Y-62865237D01*
X-4291320Y-62865248D01*
X-4380137Y-63079670D01*
X-4440206Y-63303851D01*
X-4470500Y-63533955D01*
X-4470500Y-63766045D01*
X-4440206Y-63996149D01*
X-4380137Y-64220330D01*
X-4291320Y-64434752D01*
X-4175276Y-64635748D01*
X-4033989Y-64819877D01*
X-3935690Y-64918175D01*
X-3902207Y-64979496D01*
X-3907191Y-65049188D01*
X-3949062Y-65105122D01*
X-4014526Y-65129539D01*
X-4047563Y-65127473D01*
X-4095112Y-65118015D01*
X-4112786Y-65114500D01*
X-4287214Y-65114500D01*
X-4287218Y-65114500D01*
X-4458283Y-65148527D01*
X-4458291Y-65148529D01*
X-4619439Y-65215278D01*
X-4619448Y-65215283D01*
X-4764473Y-65312186D01*
X-4764477Y-65312189D01*
X-4887810Y-65435522D01*
X-4887813Y-65435526D01*
X-4984716Y-65580551D01*
X-4984717Y-65580553D01*
X-4984720Y-65580558D01*
X-5051471Y-65741709D01*
X-5085500Y-65912786D01*
X-5085500Y-66087214D01*
X-5051471Y-66258291D01*
X-4984720Y-66419442D01*
X-4890174Y-66560939D01*
X-4869297Y-66627615D01*
X-4887781Y-66694995D01*
X-4939760Y-66741686D01*
X-4971001Y-66751812D01*
X-4973633Y-66752292D01*
X-5125385Y-66796380D01*
X-5125390Y-66796382D01*
X-5261416Y-66876827D01*
X-5261425Y-66876834D01*
X-5373165Y-66988574D01*
X-5373168Y-66988578D01*
X-5373170Y-66988580D01*
X-5453618Y-67124610D01*
X-5497709Y-67276373D01*
X-5500500Y-67311837D01*
X-6599500Y-67311837D01*
X-6599500Y-59224500D01*
X-6579815Y-59157461D01*
X-6527011Y-59111706D01*
X-6475500Y-59100500D01*
X5663770Y-59100500D01*
X5730809Y-59120185D01*
G37*
%TD.AperFunction*%
%TD*%
M02*
