%TF.GenerationSoftware,KiCad,Pcbnew,9.0.2*%
%TF.CreationDate,2025-07-14T14:24:05-07:00*%
%TF.ProjectId,16_6mSiPMs_9_v4,31365f36-6d53-4695-904d-735f395f7634,rev?*%
%TF.SameCoordinates,Original*%
%TF.FileFunction,Soldermask,Top*%
%TF.FilePolarity,Negative*%
%FSLAX46Y46*%
G04 Gerber Fmt 4.6, Leading zero omitted, Abs format (unit mm)*
G04 Created by KiCad (PCBNEW 9.0.2) date 2025-07-14 14:24:05*
%MOMM*%
%LPD*%
G01*
G04 APERTURE LIST*
G04 Aperture macros list*
%AMRoundRect*
0 Rectangle with rounded corners*
0 $1 Rounding radius*
0 $2 $3 $4 $5 $6 $7 $8 $9 X,Y pos of 4 corners*
0 Add a 4 corners polygon primitive as box body*
4,1,4,$2,$3,$4,$5,$6,$7,$8,$9,$2,$3,0*
0 Add four circle primitives for the rounded corners*
1,1,$1+$1,$2,$3*
1,1,$1+$1,$4,$5*
1,1,$1+$1,$6,$7*
1,1,$1+$1,$8,$9*
0 Add four rect primitives between the rounded corners*
20,1,$1+$1,$2,$3,$4,$5,0*
20,1,$1+$1,$4,$5,$6,$7,0*
20,1,$1+$1,$6,$7,$8,$9,0*
20,1,$1+$1,$8,$9,$2,$3,0*%
G04 Aperture macros list end*
%ADD10C,0.700000*%
%ADD11RoundRect,0.087500X-0.087500X-0.337500X0.087500X-0.337500X0.087500X0.337500X-0.087500X0.337500X0*%
%ADD12C,1.350000*%
%ADD13R,1.200000X0.500000*%
%ADD14C,1.431000*%
%ADD15RoundRect,0.102000X-0.699000X0.699000X-0.699000X-0.699000X0.699000X-0.699000X0.699000X0.699000X0*%
%ADD16C,1.602000*%
G04 APERTURE END LIST*
D10*
%TO.C,REF\u002A\u002A*%
X214250000Y-84250000D03*
X214250000Y-86750000D03*
X216750000Y-84250000D03*
X216750000Y-86750000D03*
X213000000Y-83000000D03*
X213000000Y-88000000D03*
X218000000Y-83000000D03*
X218000000Y-88000000D03*
%TD*%
D11*
%TO.C,*%
X195000000Y-104000000D03*
%TD*%
D10*
%TO.C,REF\u002A\u002A*%
X228250000Y-95250000D03*
X228250000Y-97750000D03*
X230750000Y-95250000D03*
X230750000Y-97750000D03*
X227000000Y-94000000D03*
X227000000Y-99000000D03*
X232000000Y-94000000D03*
X232000000Y-99000000D03*
%TD*%
%TO.C,REF\u002A\u002A*%
X239750000Y-93750000D03*
X239750000Y-96250000D03*
X242250000Y-93750000D03*
X242250000Y-96250000D03*
X238500000Y-92500000D03*
X238500000Y-97500000D03*
X243500000Y-92500000D03*
X243500000Y-97500000D03*
%TD*%
D12*
%TO.C,J\u002A\u002A*%
X170450000Y-80755000D03*
X170450000Y-99045000D03*
D13*
X170250000Y-85100000D03*
X173650000Y-85100000D03*
X170250000Y-85900000D03*
X173650000Y-85900000D03*
X170250000Y-86700000D03*
X173650000Y-86700000D03*
X170250000Y-87500000D03*
X173650000Y-87500000D03*
X170250000Y-91500000D03*
X173650000Y-91500000D03*
X170250000Y-92300000D03*
X173650000Y-92300000D03*
X170250000Y-93100000D03*
X173650000Y-93100000D03*
X170250000Y-93900000D03*
X173650000Y-93900000D03*
X170250000Y-94700000D03*
X173650000Y-94700000D03*
D14*
X171950000Y-82005000D03*
X171950000Y-97795000D03*
%TD*%
D10*
%TO.C,REF\u002A\u002A*%
X203250000Y-101750000D03*
X203250000Y-104250000D03*
X205750000Y-101750000D03*
X205750000Y-104250000D03*
X202000000Y-100500000D03*
X202000000Y-105500000D03*
X207000000Y-100500000D03*
X207000000Y-105500000D03*
%TD*%
D11*
%TO.C,*%
X195000000Y-101800000D03*
%TD*%
D10*
%TO.C,REF\u002A\u002A*%
X222250000Y-82750000D03*
X222250000Y-85250000D03*
X224750000Y-82750000D03*
X224750000Y-85250000D03*
X221000000Y-81500000D03*
X221000000Y-86500000D03*
X226000000Y-81500000D03*
X226000000Y-86500000D03*
%TD*%
D15*
%TO.C,REF\u002A\u002A*%
X160000000Y-99960000D03*
D16*
X160000000Y-102500000D03*
X160000000Y-105040000D03*
%TD*%
D10*
%TO.C,REF\u002A\u002A*%
X222250000Y-120750000D03*
X222250000Y-123250000D03*
X224750000Y-120750000D03*
X224750000Y-123250000D03*
X221000000Y-119500000D03*
X221000000Y-124500000D03*
X226000000Y-119500000D03*
X226000000Y-124500000D03*
%TD*%
%TO.C,REF\u002A\u002A*%
X230250000Y-84250000D03*
X230250000Y-86750000D03*
X232750000Y-84250000D03*
X232750000Y-86750000D03*
X229000000Y-83000000D03*
X229000000Y-88000000D03*
X234000000Y-83000000D03*
X234000000Y-88000000D03*
%TD*%
%TO.C,REF\u002A\u002A*%
X239750000Y-109750000D03*
X239750000Y-112250000D03*
X242250000Y-109750000D03*
X242250000Y-112250000D03*
X238500000Y-108500000D03*
X238500000Y-113500000D03*
X243500000Y-108500000D03*
X243500000Y-113500000D03*
%TD*%
D11*
%TO.C,*%
X194350000Y-104000000D03*
%TD*%
D10*
%TO.C,REF\u002A\u002A*%
X230250000Y-119250000D03*
X230250000Y-121750000D03*
X232750000Y-119250000D03*
X232750000Y-121750000D03*
X229000000Y-118000000D03*
X229000000Y-123000000D03*
X234000000Y-118000000D03*
X234000000Y-123000000D03*
%TD*%
%TO.C,REF\u002A\u002A*%
X241250000Y-101750000D03*
X241250000Y-104250000D03*
X243750000Y-101750000D03*
X243750000Y-104250000D03*
X240000000Y-100500000D03*
X240000000Y-105500000D03*
X245000000Y-100500000D03*
X245000000Y-105500000D03*
%TD*%
%TO.C,REF\u002A\u002A*%
X216250000Y-95250000D03*
X216250000Y-97750000D03*
X218750000Y-95250000D03*
X218750000Y-97750000D03*
X215000000Y-94000000D03*
X215000000Y-99000000D03*
X220000000Y-94000000D03*
X220000000Y-99000000D03*
%TD*%
%TO.C,REF\u002A\u002A*%
X214250000Y-119250000D03*
X214250000Y-121750000D03*
X216750000Y-119250000D03*
X216750000Y-121750000D03*
X213000000Y-118000000D03*
X213000000Y-123000000D03*
X218000000Y-118000000D03*
X218000000Y-123000000D03*
%TD*%
%TO.C,REF\u002A\u002A*%
X228250000Y-107750000D03*
X228250000Y-110250000D03*
X230750000Y-107750000D03*
X230750000Y-110250000D03*
X227000000Y-106500000D03*
X227000000Y-111500000D03*
X232000000Y-106500000D03*
X232000000Y-111500000D03*
%TD*%
%TO.C,REF\u002A\u002A*%
X204750000Y-93750000D03*
X204750000Y-96250000D03*
X207250000Y-93750000D03*
X207250000Y-96250000D03*
X203500000Y-92500000D03*
X203500000Y-97500000D03*
X208500000Y-92500000D03*
X208500000Y-97500000D03*
%TD*%
D11*
%TO.C,*%
X193700000Y-104000000D03*
%TD*%
D12*
%TO.C,J\u002A\u002A*%
X170450000Y-106555000D03*
X170450000Y-124845000D03*
D13*
X170250000Y-110900000D03*
X173650000Y-110900000D03*
X170250000Y-111700000D03*
X173650000Y-111700000D03*
X170250000Y-112500000D03*
X173650000Y-112500000D03*
X170250000Y-113300000D03*
X173650000Y-113300000D03*
X170250000Y-117300000D03*
X173650000Y-117300000D03*
X170250000Y-118100000D03*
X173650000Y-118100000D03*
X170250000Y-118900000D03*
X173650000Y-118900000D03*
X170250000Y-119700000D03*
X173650000Y-119700000D03*
X170250000Y-120500000D03*
X173650000Y-120500000D03*
D14*
X171950000Y-107805000D03*
X171950000Y-123595000D03*
%TD*%
D10*
%TO.C,REF\u002A\u002A*%
X216250000Y-107750000D03*
X216250000Y-110250000D03*
X218750000Y-107750000D03*
X218750000Y-110250000D03*
X215000000Y-106500000D03*
X215000000Y-111500000D03*
X220000000Y-106500000D03*
X220000000Y-111500000D03*
%TD*%
D11*
%TO.C,*%
X193700000Y-101800000D03*
%TD*%
D10*
%TO.C,REF\u002A\u002A*%
X204750000Y-109750000D03*
X204750000Y-112250000D03*
X207250000Y-109750000D03*
X207250000Y-112250000D03*
X203500000Y-108500000D03*
X203500000Y-113500000D03*
X208500000Y-108500000D03*
X208500000Y-113500000D03*
%TD*%
M02*
