%TF.GenerationSoftware,KiCad,Pcbnew,9.0.2*%
%TF.CreationDate,2025-05-27T17:54:28-07:00*%
%TF.ProjectId,16_6mSiPMs_9,31365f36-6d53-4695-904d-735f392e6b69,rev?*%
%TF.SameCoordinates,Original*%
%TF.FileFunction,Copper,L2,Bot*%
%TF.FilePolarity,Positive*%
%FSLAX46Y46*%
G04 Gerber Fmt 4.6, Leading zero omitted, Abs format (unit mm)*
G04 Created by KiCad (PCBNEW 9.0.2) date 2025-05-27 17:54:28*
%MOMM*%
%LPD*%
G01*
G04 APERTURE LIST*
G04 Aperture macros list*
%AMRoundRect*
0 Rectangle with rounded corners*
0 $1 Rounding radius*
0 $2 $3 $4 $5 $6 $7 $8 $9 X,Y pos of 4 corners*
0 Add a 4 corners polygon primitive as box body*
4,1,4,$2,$3,$4,$5,$6,$7,$8,$9,$2,$3,0*
0 Add four circle primitives for the rounded corners*
1,1,$1+$1,$2,$3*
1,1,$1+$1,$4,$5*
1,1,$1+$1,$6,$7*
1,1,$1+$1,$8,$9*
0 Add four rect primitives between the rounded corners*
20,1,$1+$1,$2,$3,$4,$5,0*
20,1,$1+$1,$4,$5,$6,$7,0*
20,1,$1+$1,$6,$7,$8,$9,0*
20,1,$1+$1,$8,$9,$2,$3,0*%
G04 Aperture macros list end*
%TA.AperFunction,ComponentPad*%
%ADD10C,1.431000*%
%TD*%
%TA.AperFunction,ComponentPad*%
%ADD11R,1.398000X1.398000*%
%TD*%
%TA.AperFunction,ComponentPad*%
%ADD12C,1.398000*%
%TD*%
%TA.AperFunction,SMDPad,CuDef*%
%ADD13RoundRect,0.250000X-0.325000X-1.100000X0.325000X-1.100000X0.325000X1.100000X-0.325000X1.100000X0*%
%TD*%
%TA.AperFunction,ViaPad*%
%ADD14C,0.800000*%
%TD*%
%TA.AperFunction,ViaPad*%
%ADD15C,0.600000*%
%TD*%
%TA.AperFunction,Conductor*%
%ADD16C,0.250000*%
%TD*%
%TA.AperFunction,Conductor*%
%ADD17C,0.200000*%
%TD*%
G04 APERTURE END LIST*
D10*
%TO.P,J\u002A\u002A,MH1*%
%TO.N,N/C*%
X171950000Y-82005000D03*
%TO.P,J\u002A\u002A,MH2*%
X171950000Y-97795000D03*
%TD*%
D11*
%TO.P,REF\u002A\u002A,1*%
%TO.N,GND*%
X160000000Y-99960000D03*
D12*
%TO.P,REF\u002A\u002A,2*%
%TO.N,TMP_OUT*%
X160000000Y-102500000D03*
%TO.P,REF\u002A\u002A,3*%
%TO.N,TMP_VDD*%
X160000000Y-105040000D03*
%TD*%
D10*
%TO.P,J\u002A\u002A,MH1*%
%TO.N,N/C*%
X171950000Y-107805000D03*
%TO.P,J\u002A\u002A,MH2*%
X171950000Y-123595000D03*
%TD*%
D13*
%TO.P,10 nF,1*%
%TO.N,GND*%
X228325000Y-96450000D03*
%TO.P,10 nF,2*%
%TO.N,5A*%
X231275000Y-96450000D03*
%TD*%
%TO.P,10 nF,1*%
%TO.N,GND*%
X215875000Y-109150000D03*
%TO.P,10 nF,2*%
%TO.N,10A*%
X218825000Y-109150000D03*
%TD*%
%TO.P,10 nF,1*%
%TO.N,GND*%
X241275000Y-102800000D03*
%TO.P,10 nF,2*%
%TO.N,8A*%
X244225000Y-102800000D03*
%TD*%
%TO.P,10 nF,1*%
%TO.N,GND*%
X228575000Y-109150000D03*
%TO.P,10 nF,2*%
%TO.N,11A*%
X231525000Y-109150000D03*
%TD*%
%TO.P,10 nF,1*%
%TO.N,GND*%
X203175000Y-102800000D03*
%TO.P,10 nF,2*%
%TO.N,7A*%
X206125000Y-102800000D03*
%TD*%
%TO.P,10 nF,1*%
%TO.N,GND*%
X230162500Y-120262500D03*
%TO.P,10 nF,2*%
%TO.N,15A*%
X233112500Y-120262500D03*
%TD*%
%TO.P,10 nF,1*%
%TO.N,GND*%
X204762500Y-94862500D03*
%TO.P,10 nF,2*%
%TO.N,3A*%
X207712500Y-94862500D03*
%TD*%
%TO.P,10 nF,1*%
%TO.N,GND*%
X230162500Y-85337500D03*
%TO.P,10 nF,2*%
%TO.N,2A*%
X233112500Y-85337500D03*
%TD*%
%TO.P,10 nF,1*%
%TO.N,GND*%
X222225000Y-83750000D03*
%TO.P,10 nF,2*%
%TO.N,1A*%
X225175000Y-83750000D03*
%TD*%
%TO.P,10 nF,1*%
%TO.N,GND*%
X215875000Y-96450000D03*
%TO.P,10 nF,2*%
%TO.N,4A*%
X218825000Y-96450000D03*
%TD*%
%TO.P,10 nF,1*%
%TO.N,GND*%
X214287500Y-120262500D03*
%TO.P,10 nF,2*%
%TO.N,13A*%
X217237500Y-120262500D03*
%TD*%
%TO.P,10 nF,1*%
%TO.N,GND*%
X239687500Y-110737500D03*
%TO.P,10 nF,2*%
%TO.N,12A*%
X242637500Y-110737500D03*
%TD*%
%TO.P,10 nF,1*%
%TO.N,GND*%
X204762500Y-110737500D03*
%TO.P,10 nF,2*%
%TO.N,9A*%
X207712500Y-110737500D03*
%TD*%
%TO.P,10 nF,1*%
%TO.N,GND*%
X222225000Y-121850000D03*
%TO.P,10 nF,2*%
%TO.N,14A*%
X225175000Y-121850000D03*
%TD*%
%TO.P,10 nF,1*%
%TO.N,GND*%
X214287500Y-85337500D03*
%TO.P,10 nF,2*%
%TO.N,0A*%
X217237500Y-85337500D03*
%TD*%
%TO.P,10 nF,1*%
%TO.N,GND*%
X239687500Y-94862500D03*
%TO.P,10 nF,2*%
%TO.N,6A*%
X242637500Y-94862500D03*
%TD*%
D14*
%TO.N,0A*%
X181100153Y-83825153D03*
X214600000Y-87600000D03*
%TO.N,0C*%
X171700000Y-84800000D03*
X214600000Y-83100000D03*
%TO.N,1C*%
X222500000Y-81500000D03*
X171700000Y-85800003D03*
X178000000Y-84075000D03*
X178000000Y-85800000D03*
%TO.N,1A*%
X180393044Y-84532261D03*
X222500000Y-86000000D03*
%TO.N,2C*%
X177100000Y-86800000D03*
X176999997Y-84075000D03*
X230400000Y-83100000D03*
X171700000Y-86800006D03*
%TO.N,2A*%
X230500000Y-87600000D03*
X179685936Y-85239370D03*
%TO.N,3A*%
X205100000Y-97100000D03*
X188500153Y-93050153D03*
%TO.N,3C*%
X180735950Y-93200000D03*
X205100000Y-92600000D03*
%TO.N,4A*%
X216200000Y-98700000D03*
X178703468Y-93925000D03*
%TO.N,4C*%
X216200000Y-94200000D03*
X182525306Y-92425306D03*
X171700000Y-91200000D03*
X180100601Y-91750000D03*
%TO.N,5A*%
X179485761Y-94650000D03*
X228900000Y-98700000D03*
%TO.N,5C*%
X171700000Y-92200000D03*
X179387347Y-92475000D03*
X181462653Y-92462653D03*
X228900000Y-94200000D03*
%TO.N,6A*%
X240000000Y-97100000D03*
X180300000Y-95300000D03*
%TO.N,6C*%
X171700000Y-93200003D03*
X240000000Y-92600000D03*
%TO.N,7A*%
X203500000Y-105100000D03*
X178700000Y-96750000D03*
%TO.N,7C*%
X203500000Y-100500000D03*
X171700000Y-94200006D03*
%TO.N,GND*%
X171810433Y-120793892D03*
X171937344Y-95462656D03*
D15*
X197756892Y-98743108D03*
D14*
%TO.N,8A*%
X241600000Y-105000000D03*
X184600000Y-110425000D03*
%TO.N,8C*%
X171700000Y-110600000D03*
X241600000Y-100500000D03*
%TO.N,9A*%
X205100000Y-113000000D03*
X183855483Y-113775002D03*
%TO.N,9C*%
X178771974Y-111875003D03*
X180900000Y-113325003D03*
X205100000Y-108500000D03*
X171700000Y-111600000D03*
%TO.N,10A*%
X182855919Y-113804619D03*
X216200000Y-111400000D03*
%TO.N,10C*%
X171700000Y-112600003D03*
X216200000Y-106900000D03*
%TO.N,11A*%
X228900000Y-111400000D03*
X181856355Y-113775003D03*
%TO.N,11C*%
X179800000Y-111875003D03*
X228900000Y-106900000D03*
%TO.N,12A*%
X240000000Y-113000000D03*
X176500000Y-117000000D03*
%TO.N,12C*%
X240000000Y-108500000D03*
X184600000Y-111425003D03*
%TO.N,13A*%
X180200000Y-118400000D03*
X214600000Y-122500000D03*
%TO.N,13C*%
X178400152Y-116125154D03*
X214600000Y-118000000D03*
X180229659Y-117346108D03*
X171700000Y-117800000D03*
%TO.N,14A*%
X180200000Y-119400003D03*
X222500000Y-124100000D03*
%TO.N,14C*%
X181000383Y-116575385D03*
X171700000Y-118800003D03*
X222500000Y-119600000D03*
X179400154Y-116125002D03*
%TO.N,15A*%
X230500000Y-122500000D03*
X180200000Y-120400006D03*
%TO.N,15C*%
X171700000Y-119800006D03*
X230500000Y-118000000D03*
%TD*%
D16*
%TO.N,0A*%
X215275000Y-87300000D02*
X217237500Y-85337500D01*
X181375306Y-83550000D02*
X181100153Y-83825153D01*
X214600000Y-87600000D02*
X214304900Y-87600000D01*
X214304900Y-87600000D02*
X210254900Y-83550000D01*
X214600000Y-87600000D02*
X214900000Y-87300000D01*
X210254900Y-83550000D02*
X208700000Y-83550000D01*
X183200000Y-83550000D02*
X181375306Y-83550000D01*
X208700000Y-83550000D02*
X183200000Y-83550000D01*
X214900000Y-87300000D02*
X215275000Y-87300000D01*
%TO.N,0C*%
X180800000Y-83100000D02*
X179100000Y-84800000D01*
X171700000Y-84800000D02*
X179100000Y-84800000D01*
X214600000Y-83100000D02*
X180800000Y-83100000D01*
%TO.N,1C*%
X171700000Y-85800003D02*
X177999997Y-85800003D01*
X214750000Y-81500000D02*
X214377208Y-81500000D01*
X213227208Y-82650000D02*
X211600000Y-82650000D01*
X211600000Y-82650000D02*
X179425000Y-82650000D01*
X177999997Y-85800003D02*
X178000000Y-85800000D01*
X222500000Y-81500000D02*
X214750000Y-81500000D01*
X179425000Y-82650000D02*
X178000000Y-84075000D01*
X214377208Y-81500000D02*
X213227208Y-82650000D01*
%TO.N,1A*%
X220175000Y-88325000D02*
X214299695Y-88325000D01*
X180410936Y-84550153D02*
X180393044Y-84532261D01*
X184200000Y-84000000D02*
X183649847Y-84550153D01*
X222500000Y-86000000D02*
X220175000Y-88325000D01*
X214299695Y-88325000D02*
X209974695Y-84000000D01*
X183649847Y-84550153D02*
X180410936Y-84550153D01*
X222925000Y-86000000D02*
X225175000Y-83750000D01*
X222500000Y-86000000D02*
X222925000Y-86000000D01*
X209974695Y-84000000D02*
X209600000Y-84000000D01*
X209600000Y-84000000D02*
X184200000Y-84000000D01*
%TO.N,2C*%
X177099994Y-86800006D02*
X177100000Y-86800000D01*
X171700000Y-86800006D02*
X177099994Y-86800006D01*
X228075000Y-80775000D02*
X230400000Y-83100000D01*
X213040812Y-82200000D02*
X214190812Y-81050000D01*
X221700000Y-81050000D02*
X221975000Y-80775000D01*
X221975000Y-80775000D02*
X228075000Y-80775000D01*
X214190812Y-81050000D02*
X221700000Y-81050000D01*
X176999997Y-84049698D02*
X178849695Y-82200000D01*
X176999997Y-84075000D02*
X176999997Y-84049698D01*
X178849695Y-82200000D02*
X213040812Y-82200000D01*
%TO.N,2A*%
X230500000Y-87600000D02*
X230800000Y-87300000D01*
X229325000Y-88775000D02*
X219988604Y-88775000D01*
X230800000Y-87300000D02*
X231150000Y-87300000D01*
X214113299Y-88775000D02*
X212469149Y-87130850D01*
X186400000Y-84450000D02*
X185592739Y-85257261D01*
X209788299Y-84450000D02*
X208700000Y-84450000D01*
X230500000Y-87600000D02*
X229325000Y-88775000D01*
X208700000Y-84450000D02*
X186400000Y-84450000D01*
X179703827Y-85257261D02*
X179685936Y-85239370D01*
X231150000Y-87300000D02*
X233112500Y-85337500D01*
X219988604Y-88775000D02*
X214113299Y-88775000D01*
X185592739Y-85257261D02*
X179703827Y-85257261D01*
X212469149Y-87130850D02*
X209788299Y-84450000D01*
%TO.N,3A*%
X205100000Y-97100000D02*
X205475000Y-97100000D01*
X199200000Y-92775000D02*
X188775306Y-92775000D01*
X188775306Y-92775000D02*
X188500153Y-93050153D01*
X205100000Y-97100000D02*
X204000000Y-97100000D01*
X199675000Y-92775000D02*
X199200000Y-92775000D01*
X204000000Y-97100000D02*
X199675000Y-92775000D01*
X205475000Y-97100000D02*
X207712500Y-94862500D01*
%TO.N,3C*%
X188200000Y-92325000D02*
X187200000Y-93325000D01*
X180860950Y-93325000D02*
X180735950Y-93200000D01*
X205100000Y-92600000D02*
X204825000Y-92325000D01*
X204825000Y-92325000D02*
X188200000Y-92325000D01*
X187200000Y-93325000D02*
X180860950Y-93325000D01*
%TO.N,4A*%
X216200000Y-98700000D02*
X216575000Y-98700000D01*
X199488604Y-93225000D02*
X190000000Y-93225000D01*
X204963604Y-98700000D02*
X199488604Y-93225000D01*
X184500000Y-93775000D02*
X184350000Y-93925000D01*
X190000000Y-93225000D02*
X189450000Y-93775000D01*
X189450000Y-93775000D02*
X184500000Y-93775000D01*
X216575000Y-98700000D02*
X218825000Y-96450000D01*
X216200000Y-98700000D02*
X204963604Y-98700000D01*
X184350000Y-93925000D02*
X178703468Y-93925000D01*
%TO.N,4C*%
X171700000Y-91200000D02*
X179550601Y-91200000D01*
X213875000Y-91875000D02*
X216200000Y-94200000D01*
X182525306Y-92425306D02*
X183075612Y-91875000D01*
X179550601Y-91200000D02*
X180100601Y-91750000D01*
X183075612Y-91875000D02*
X213875000Y-91875000D01*
%TO.N,5A*%
X215400000Y-99150000D02*
X204777208Y-99150000D01*
X204777208Y-99150000D02*
X199302208Y-93675000D01*
X229200000Y-98400000D02*
X229325000Y-98400000D01*
X228900000Y-98700000D02*
X229200000Y-98400000D01*
X228900000Y-98700000D02*
X228175000Y-99425000D01*
X184900000Y-94225000D02*
X184750000Y-94375000D01*
X199302208Y-93675000D02*
X190186396Y-93675000D01*
X179760761Y-94375000D02*
X179485761Y-94650000D01*
X228175000Y-99425000D02*
X215675000Y-99425000D01*
X229325000Y-98400000D02*
X231275000Y-96450000D01*
X190186396Y-93675000D02*
X189636396Y-94225000D01*
X184750000Y-94375000D02*
X179760761Y-94375000D01*
X189636396Y-94225000D02*
X184900000Y-94225000D01*
X215675000Y-99425000D02*
X215400000Y-99150000D01*
%TO.N,5C*%
X226125000Y-91425000D02*
X228900000Y-94200000D01*
X182500306Y-91425000D02*
X226125000Y-91425000D01*
X181462653Y-92462653D02*
X182500306Y-91425000D01*
X179112347Y-92200000D02*
X179387347Y-92475000D01*
X171700000Y-92200000D02*
X179112347Y-92200000D01*
%TO.N,6A*%
X185086396Y-94675000D02*
X189822792Y-94675000D01*
X190372792Y-94125000D02*
X199115812Y-94125000D01*
X184936396Y-94825000D02*
X185086396Y-94675000D01*
X189822792Y-94675000D02*
X190372792Y-94125000D01*
X215488604Y-99875000D02*
X237225000Y-99875000D01*
X180300000Y-95300000D02*
X180775000Y-94825000D01*
X240000000Y-97100000D02*
X240400000Y-97100000D01*
X180775000Y-94825000D02*
X184936396Y-94825000D01*
X204590812Y-99600000D02*
X215213604Y-99600000D01*
X240400000Y-97100000D02*
X242637500Y-94862500D01*
X199115812Y-94125000D02*
X204590812Y-99600000D01*
X237225000Y-99875000D02*
X240000000Y-97100000D01*
X215213604Y-99600000D02*
X215488604Y-99875000D01*
%TO.N,6C*%
X181925000Y-90975000D02*
X179700000Y-93200000D01*
X179700000Y-93200000D02*
X171700003Y-93200000D01*
X238375000Y-90975000D02*
X181925000Y-90975000D01*
X171700003Y-93200000D02*
X171700000Y-93200003D01*
X240000000Y-92600000D02*
X238375000Y-90975000D01*
%TO.N,7A*%
X203500000Y-105100000D02*
X203229900Y-105100000D01*
X193700000Y-96475000D02*
X182400000Y-96475000D01*
X182400000Y-96475000D02*
X178975000Y-96475000D01*
X203500000Y-105100000D02*
X203825000Y-105100000D01*
X194604900Y-96475000D02*
X193700000Y-96475000D01*
X203825000Y-105100000D02*
X206125000Y-102800000D01*
X178975000Y-96475000D02*
X178700000Y-96750000D01*
X203229900Y-105100000D02*
X194604900Y-96475000D01*
%TO.N,7C*%
X171700000Y-94200006D02*
X173524994Y-96025000D01*
X173524994Y-96025000D02*
X199025000Y-96025000D01*
X199025000Y-96025000D02*
X203500000Y-100500000D01*
%TO.N,GND*%
X230250000Y-107475000D02*
X236425000Y-107475000D01*
X226900000Y-82075000D02*
X230162500Y-85337500D01*
D17*
X199118108Y-98743108D02*
X197756892Y-98743108D01*
D16*
X243537500Y-109392400D02*
X243537500Y-112082600D01*
X182024994Y-121125006D02*
X172141547Y-121125006D01*
X239687500Y-110737500D02*
X241362500Y-109062500D01*
X230000000Y-94775000D02*
X239600000Y-94775000D01*
X236425000Y-107475000D02*
X239687500Y-110737500D01*
X218962500Y-118587500D02*
X222225000Y-121850000D01*
X234100305Y-83400305D02*
X232099695Y-83400305D01*
X243537500Y-112082600D02*
X237920405Y-117699695D01*
D17*
X241275000Y-102800000D02*
X243575000Y-100500000D01*
D16*
X183400000Y-119750000D02*
X182024994Y-121125006D01*
X241362500Y-109062500D02*
X245125000Y-105300000D01*
X230345100Y-125275000D02*
X210622131Y-125275000D01*
X232099695Y-83400305D02*
X230162500Y-85337500D01*
X206925000Y-108575000D02*
X215300000Y-108575000D01*
X243207600Y-109062500D02*
X243537500Y-109392400D01*
X222225000Y-83750000D02*
X223900000Y-82075000D01*
X245125000Y-105300000D02*
X245125000Y-100500000D01*
X217550000Y-94775000D02*
X226650000Y-94775000D01*
X223900000Y-82075000D02*
X226900000Y-82075000D01*
X239687500Y-110737500D02*
X240725000Y-109700000D01*
X222225000Y-121850000D02*
X224387500Y-119687500D01*
X237920405Y-117699695D02*
X230345100Y-125275000D01*
X214287500Y-119337805D02*
X215037805Y-118587500D01*
X215875000Y-109150000D02*
X217550000Y-107475000D01*
X245125000Y-100500000D02*
X245125000Y-94425000D01*
X229587500Y-119687500D02*
X230162500Y-120262500D01*
X204762500Y-94862500D02*
X206437500Y-93187500D01*
X241362500Y-109062500D02*
X243207600Y-109062500D01*
X239600000Y-94775000D02*
X239687500Y-94862500D01*
X215300000Y-108575000D02*
X215875000Y-109150000D01*
X217550000Y-107475000D02*
X226900000Y-107475000D01*
X172141547Y-121125006D02*
X171810433Y-120793892D01*
D17*
X203175000Y-102800000D02*
X199118108Y-98743108D01*
D16*
X215875000Y-96450000D02*
X217550000Y-94775000D01*
X228325000Y-96450000D02*
X230000000Y-94775000D01*
X205097131Y-119750000D02*
X183400000Y-119750000D01*
D17*
X243575000Y-100500000D02*
X245125000Y-100500000D01*
D16*
X245125000Y-94425000D02*
X234100305Y-83400305D01*
X226900000Y-107475000D02*
X228575000Y-109150000D01*
X221650000Y-83175000D02*
X222225000Y-83750000D01*
X212612500Y-93187500D02*
X215875000Y-96450000D01*
X215037805Y-118587500D02*
X218962500Y-118587500D01*
X214287500Y-85337500D02*
X216450000Y-83175000D01*
X204762500Y-110737500D02*
X206925000Y-108575000D01*
X237920405Y-117699695D02*
X232725305Y-117699695D01*
X224387500Y-119687500D02*
X229587500Y-119687500D01*
X216450000Y-83175000D02*
X221650000Y-83175000D01*
X210622131Y-125275000D02*
X205097131Y-119750000D01*
X232725305Y-117699695D02*
X230162500Y-120262500D01*
X214287500Y-120262500D02*
X214287500Y-119337805D01*
X226650000Y-94775000D02*
X228325000Y-96450000D01*
X228575000Y-109150000D02*
X230250000Y-107475000D01*
X206437500Y-93187500D02*
X212612500Y-93187500D01*
%TO.N,8A*%
X194004413Y-111250003D02*
X193000000Y-111250003D01*
X197790812Y-107463604D02*
X194004413Y-111250003D01*
X241600000Y-105000000D02*
X242025000Y-105000000D01*
X193000000Y-111250003D02*
X186800000Y-111250003D01*
X185974997Y-110425000D02*
X184600000Y-110425000D01*
X186800000Y-111250003D02*
X185974997Y-110425000D01*
X201600000Y-107200000D02*
X198054416Y-107200000D01*
X215490812Y-105000000D02*
X214065812Y-106425000D01*
X241600000Y-105000000D02*
X215490812Y-105000000D01*
X242025000Y-105000000D02*
X244225000Y-102800000D01*
X203882753Y-106782754D02*
X203465507Y-107200000D01*
X214065812Y-106425000D02*
X204240507Y-106425000D01*
X203465507Y-107200000D02*
X201600000Y-107200000D01*
X204240507Y-106425000D02*
X203882753Y-106782754D01*
X198054416Y-107200000D02*
X197790812Y-107463604D01*
%TO.N,8C*%
X213000000Y-100325000D02*
X241425000Y-100325000D01*
X176475000Y-105825000D02*
X171700000Y-110600000D01*
X212975000Y-100325000D02*
X213000000Y-100325000D01*
X207500000Y-105825000D02*
X176475000Y-105825000D01*
X213000000Y-100325000D02*
X207500000Y-105825000D01*
X241425000Y-100325000D02*
X241600000Y-100500000D01*
%TO.N,9A*%
X205100000Y-113000000D02*
X205500000Y-112600000D01*
X194000000Y-113500003D02*
X185100000Y-113500003D01*
X205100000Y-113000000D02*
X195436396Y-113000000D01*
X205500000Y-112600000D02*
X205850000Y-112600000D01*
X185100000Y-113500003D02*
X184130482Y-113500003D01*
X194936393Y-113500003D02*
X194000000Y-113500003D01*
X184130482Y-113500003D02*
X183855483Y-113775002D01*
X205850000Y-112600000D02*
X207712500Y-110737500D01*
X195436396Y-113000000D02*
X194936393Y-113500003D01*
%TO.N,9C*%
X191200000Y-113050003D02*
X181175000Y-113050003D01*
X204600000Y-109000000D02*
X198800000Y-109000000D01*
X178496971Y-111600000D02*
X171700000Y-111600000D01*
X181175000Y-113050003D02*
X180900000Y-113325003D01*
X194749997Y-113050003D02*
X191200000Y-113050003D01*
X205100000Y-108500000D02*
X204600000Y-109000000D01*
X198800000Y-109000000D02*
X194749997Y-113050003D01*
X178771974Y-111875003D02*
X178496971Y-111600000D01*
%TO.N,10A*%
X216775000Y-111200000D02*
X218825000Y-109150000D01*
X182855919Y-113804619D02*
X183551302Y-114500002D01*
X184705787Y-113950003D02*
X195122789Y-113950003D01*
X195347792Y-113725000D02*
X213875000Y-113725000D01*
X195122789Y-113950003D02*
X195347792Y-113725000D01*
X213875000Y-113725000D02*
X216200000Y-111400000D01*
X216400000Y-111200000D02*
X216775000Y-111200000D01*
X183551302Y-114500002D02*
X184155788Y-114500002D01*
X216200000Y-111400000D02*
X216400000Y-111200000D01*
X184155788Y-114500002D02*
X184705787Y-113950003D01*
%TO.N,10C*%
X204799695Y-107775000D02*
X214625000Y-107775000D01*
X215000000Y-107400000D02*
X215700000Y-107400000D01*
X171700000Y-112600003D02*
X194563601Y-112600003D01*
X204024695Y-108550000D02*
X204799695Y-107775000D01*
X194563601Y-112600003D02*
X198613604Y-108550000D01*
X198613604Y-108550000D02*
X204024695Y-108550000D01*
X215700000Y-107400000D02*
X216200000Y-106900000D01*
X214625000Y-107775000D02*
X215000000Y-107400000D01*
%TO.N,11A*%
X228900000Y-111400000D02*
X229200000Y-111100000D01*
X195600000Y-114175000D02*
X195374997Y-114400003D01*
X184900000Y-114400003D02*
X184350001Y-114950002D01*
X182975997Y-114950002D02*
X181856355Y-113830360D01*
X225825000Y-114175000D02*
X195600000Y-114175000D01*
X229575000Y-111100000D02*
X231525000Y-109150000D01*
X228600000Y-111400000D02*
X225825000Y-114175000D01*
X195374997Y-114400003D02*
X184900000Y-114400003D01*
X181856355Y-113830360D02*
X181856355Y-113775003D01*
X229200000Y-111100000D02*
X229575000Y-111100000D01*
X184350001Y-114950002D02*
X182975997Y-114950002D01*
X228900000Y-111400000D02*
X228600000Y-111400000D01*
%TO.N,11C*%
X213000000Y-107325000D02*
X206400000Y-107325000D01*
X215588604Y-106175000D02*
X214531802Y-107231802D01*
X228900000Y-106900000D02*
X228175000Y-106175000D01*
X214531802Y-107231802D02*
X214438604Y-107325000D01*
X206400000Y-107325000D02*
X204613299Y-107325000D01*
X199400000Y-108100000D02*
X198427208Y-108100000D01*
X194377205Y-112150003D02*
X187300000Y-112150003D01*
X214438604Y-107325000D02*
X213000000Y-107325000D01*
X187300000Y-112150003D02*
X180075000Y-112150003D01*
X203838299Y-108100000D02*
X199400000Y-108100000D01*
X228175000Y-106175000D02*
X215588604Y-106175000D01*
X198427208Y-108100000D02*
X195063604Y-111463604D01*
X204349695Y-107588604D02*
X203838299Y-108100000D01*
X204613299Y-107325000D02*
X204349695Y-107588604D01*
X180075000Y-112150003D02*
X179800000Y-111875003D01*
X195063604Y-111463604D02*
X194377205Y-112150003D01*
%TO.N,12A*%
X238375000Y-114625000D02*
X225638604Y-114625000D01*
X178099998Y-115400002D02*
X176500000Y-117000000D01*
X194800000Y-114850003D02*
X185086396Y-114850003D01*
X184536397Y-115400002D02*
X183300000Y-115400002D01*
X240000000Y-113000000D02*
X240500000Y-112500000D01*
X240500000Y-112500000D02*
X240875000Y-112500000D01*
X183300000Y-115400002D02*
X178099998Y-115400002D01*
X195800000Y-114625000D02*
X195574997Y-114850003D01*
X240000000Y-113000000D02*
X238375000Y-114625000D01*
X204426903Y-114625000D02*
X195800000Y-114625000D01*
X185018199Y-114918200D02*
X184536397Y-115400002D01*
X185086396Y-114850003D02*
X185018199Y-114918200D01*
X195574997Y-114850003D02*
X194800000Y-114850003D01*
X240875000Y-112500000D02*
X242637500Y-110737500D01*
X225638604Y-114625000D02*
X214900000Y-114625000D01*
X214900000Y-114625000D02*
X204426903Y-114625000D01*
%TO.N,12C*%
X204426903Y-106875000D02*
X214252208Y-106875000D01*
X215427208Y-105700000D02*
X237200000Y-105700000D01*
X214252208Y-106875000D02*
X215427208Y-105700000D01*
X237200000Y-105700000D02*
X240000000Y-108500000D01*
X198240812Y-107650000D02*
X203651903Y-107650000D01*
X185500003Y-111700003D02*
X194190809Y-111700003D01*
X203651903Y-107650000D02*
X204426903Y-106875000D01*
X194190809Y-111700003D02*
X198240812Y-107650000D01*
X185225003Y-111425003D02*
X185500003Y-111700003D01*
X184600000Y-111425003D02*
X185225003Y-111425003D01*
%TO.N,13A*%
X205656319Y-118400000D02*
X180200000Y-118400000D01*
X209756319Y-122500000D02*
X205656319Y-118400000D01*
X214600000Y-122500000D02*
X214900000Y-122200000D01*
X214600000Y-122500000D02*
X209756319Y-122500000D01*
X214900000Y-122200000D02*
X215300000Y-122200000D01*
X215300000Y-122200000D02*
X217237500Y-120262500D01*
%TO.N,13C*%
X195500000Y-116200003D02*
X185700000Y-116200003D01*
X196600000Y-115975000D02*
X196374997Y-116200003D01*
X176725306Y-117800000D02*
X178400152Y-116125154D01*
X171700000Y-117800000D02*
X176725306Y-117800000D01*
X182200000Y-116750002D02*
X181603894Y-117346108D01*
X185150001Y-116750002D02*
X184500000Y-116750002D01*
X196374997Y-116200003D02*
X195500000Y-116200003D01*
X181603894Y-117346108D02*
X180229659Y-117346108D01*
X203867715Y-115975000D02*
X212575000Y-115975000D01*
X203867715Y-115975000D02*
X196600000Y-115975000D01*
X212575000Y-115975000D02*
X214600000Y-118000000D01*
X184500000Y-116750002D02*
X182200000Y-116750002D01*
X185700000Y-116200003D02*
X185150001Y-116750002D01*
%TO.N,14A*%
X222500000Y-124100000D02*
X222900000Y-123700000D01*
X180949997Y-119400003D02*
X180200000Y-119400003D01*
X181500000Y-118850000D02*
X180949997Y-119400003D01*
X223325000Y-123700000D02*
X225175000Y-121850000D01*
X205469923Y-118850000D02*
X203300000Y-118850000D01*
X222900000Y-123700000D02*
X223325000Y-123700000D01*
X222500000Y-124100000D02*
X210719923Y-124100000D01*
X210719923Y-124100000D02*
X207809961Y-121190038D01*
X207809961Y-121190038D02*
X205469923Y-118850000D01*
X203300000Y-118850000D02*
X181500000Y-118850000D01*
%TO.N,14C*%
X204054111Y-115525000D02*
X196386396Y-115525000D01*
X176750608Y-118800003D02*
X179400154Y-116150457D01*
X184200000Y-116300002D02*
X181275766Y-116300002D01*
X181275766Y-116300002D02*
X181000383Y-116575385D01*
X171700000Y-118800003D02*
X176750608Y-118800003D01*
X184950001Y-116300002D02*
X184200000Y-116300002D01*
X179400154Y-116150457D02*
X179400154Y-116125002D01*
X218425000Y-115525000D02*
X204054111Y-115525000D01*
X185500000Y-115750003D02*
X184950001Y-116300002D01*
X222500000Y-119600000D02*
X218425000Y-115525000D01*
X196161393Y-115750003D02*
X196000000Y-115750003D01*
X196000000Y-115750003D02*
X185500000Y-115750003D01*
X196386396Y-115525000D02*
X196161393Y-115750003D01*
%TO.N,15A*%
X181686396Y-119300000D02*
X181443198Y-119543198D01*
X209091763Y-123108236D02*
X205283527Y-119300000D01*
X230500000Y-122500000D02*
X228175000Y-124825000D01*
X230500000Y-122500000D02*
X230875000Y-122500000D01*
X228175000Y-124825000D02*
X210808527Y-124825000D01*
X210808527Y-124825000D02*
X209091763Y-123108236D01*
X205283527Y-119300000D02*
X204400000Y-119300000D01*
X181800000Y-119300000D02*
X181686396Y-119300000D01*
X181443198Y-119543198D02*
X180586390Y-120400006D01*
X204400000Y-119300000D02*
X181800000Y-119300000D01*
X230875000Y-122500000D02*
X233112500Y-120262500D01*
X180586390Y-120400006D02*
X180200000Y-120400006D01*
%TO.N,15C*%
X185272792Y-115300003D02*
X195974997Y-115300003D01*
X171700000Y-119800006D02*
X176750455Y-119800006D01*
X195974997Y-115300003D02*
X196200000Y-115075000D01*
X180700459Y-115850002D02*
X184722793Y-115850002D01*
X176750455Y-119800006D02*
X180700459Y-115850002D01*
X184722793Y-115850002D02*
X185272792Y-115300003D01*
X196200000Y-115075000D02*
X227575000Y-115075000D01*
X227575000Y-115075000D02*
X230500000Y-118000000D01*
%TD*%
%TA.AperFunction,NonConductor*%
G36*
X248442539Y-77920185D02*
G01*
X248488294Y-77972989D01*
X248499500Y-78024500D01*
X248499500Y-127575500D01*
X248479815Y-127642539D01*
X248427011Y-127688294D01*
X248375500Y-127699500D01*
X154624500Y-127699500D01*
X154557461Y-127679815D01*
X154511706Y-127627011D01*
X154500500Y-127575500D01*
X154500500Y-124936156D01*
X169524499Y-124936156D01*
X169560065Y-125114952D01*
X169560068Y-125114962D01*
X169629831Y-125283387D01*
X169629833Y-125283391D01*
X169731113Y-125434967D01*
X169731119Y-125434975D01*
X169860024Y-125563880D01*
X169860032Y-125563886D01*
X170011608Y-125665166D01*
X170011612Y-125665168D01*
X170180037Y-125734931D01*
X170180042Y-125734933D01*
X170180046Y-125734933D01*
X170180047Y-125734934D01*
X170358843Y-125770500D01*
X170358846Y-125770500D01*
X170541156Y-125770500D01*
X170699170Y-125739068D01*
X170719958Y-125734933D01*
X170867709Y-125673733D01*
X170888387Y-125665168D01*
X170888391Y-125665166D01*
X170963672Y-125614864D01*
X171039972Y-125563883D01*
X171168883Y-125434972D01*
X171270167Y-125283389D01*
X171339933Y-125114958D01*
X171375500Y-124936154D01*
X171375500Y-124887332D01*
X199274500Y-124887332D01*
X199274500Y-125162667D01*
X199274501Y-125162684D01*
X199310438Y-125435655D01*
X199310439Y-125435660D01*
X199310440Y-125435666D01*
X199310441Y-125435668D01*
X199381704Y-125701630D01*
X199487075Y-125956017D01*
X199487080Y-125956028D01*
X199566809Y-126094121D01*
X199624751Y-126194479D01*
X199624753Y-126194482D01*
X199624754Y-126194483D01*
X199792370Y-126412926D01*
X199792376Y-126412933D01*
X199987066Y-126607623D01*
X199987072Y-126607628D01*
X200205521Y-126775249D01*
X200358778Y-126863732D01*
X200443971Y-126912919D01*
X200443976Y-126912921D01*
X200443979Y-126912923D01*
X200698368Y-127018295D01*
X200964334Y-127089560D01*
X201237326Y-127125500D01*
X201237333Y-127125500D01*
X201512667Y-127125500D01*
X201512674Y-127125500D01*
X201785666Y-127089560D01*
X202051632Y-127018295D01*
X202306021Y-126912923D01*
X202544479Y-126775249D01*
X202762928Y-126607628D01*
X202957628Y-126412928D01*
X203125249Y-126194479D01*
X203262923Y-125956021D01*
X203368295Y-125701632D01*
X203439560Y-125435666D01*
X203475500Y-125162674D01*
X203475500Y-124887326D01*
X203439560Y-124614334D01*
X203368295Y-124348368D01*
X203262923Y-124093979D01*
X203262921Y-124093976D01*
X203262919Y-124093971D01*
X203201631Y-123987819D01*
X203125249Y-123855521D01*
X202957628Y-123637072D01*
X202957623Y-123637066D01*
X202762933Y-123442376D01*
X202762926Y-123442370D01*
X202544483Y-123274754D01*
X202544482Y-123274753D01*
X202544479Y-123274751D01*
X202449407Y-123219861D01*
X202306028Y-123137080D01*
X202306017Y-123137075D01*
X202051630Y-123031704D01*
X201918649Y-122996072D01*
X201785666Y-122960440D01*
X201785660Y-122960439D01*
X201785655Y-122960438D01*
X201512684Y-122924501D01*
X201512679Y-122924500D01*
X201512674Y-122924500D01*
X201237326Y-122924500D01*
X201237320Y-122924500D01*
X201237315Y-122924501D01*
X200964344Y-122960438D01*
X200964337Y-122960439D01*
X200964334Y-122960440D01*
X200908125Y-122975500D01*
X200698369Y-123031704D01*
X200443982Y-123137075D01*
X200443971Y-123137080D01*
X200205516Y-123274754D01*
X199987073Y-123442370D01*
X199987066Y-123442376D01*
X199792376Y-123637066D01*
X199792370Y-123637073D01*
X199624754Y-123855516D01*
X199487080Y-124093971D01*
X199487075Y-124093982D01*
X199381704Y-124348369D01*
X199310441Y-124614331D01*
X199310438Y-124614344D01*
X199274501Y-124887315D01*
X199274500Y-124887332D01*
X171375500Y-124887332D01*
X171375500Y-124857582D01*
X171395185Y-124790543D01*
X171447989Y-124744788D01*
X171517147Y-124734844D01*
X171537808Y-124739648D01*
X171665253Y-124781058D01*
X171854299Y-124811000D01*
X171854300Y-124811000D01*
X172045700Y-124811000D01*
X172045701Y-124811000D01*
X172234747Y-124781058D01*
X172416782Y-124721911D01*
X172587323Y-124635016D01*
X172742171Y-124522513D01*
X172877513Y-124387171D01*
X172990016Y-124232323D01*
X173076911Y-124061782D01*
X173136058Y-123879747D01*
X173166000Y-123690701D01*
X173166000Y-123499299D01*
X173136058Y-123310253D01*
X173076911Y-123128218D01*
X172990016Y-122957677D01*
X172941269Y-122890582D01*
X172877518Y-122802835D01*
X172877514Y-122802830D01*
X172742169Y-122667485D01*
X172742164Y-122667481D01*
X172587326Y-122554986D01*
X172587325Y-122554985D01*
X172587323Y-122554984D01*
X172416782Y-122468089D01*
X172234747Y-122408942D01*
X172234745Y-122408941D01*
X172234744Y-122408941D01*
X172089523Y-122385940D01*
X172045701Y-122379000D01*
X171854299Y-122379000D01*
X171818723Y-122384634D01*
X171665255Y-122408941D01*
X171483215Y-122468090D01*
X171312673Y-122554986D01*
X171157835Y-122667481D01*
X171157830Y-122667485D01*
X171022485Y-122802830D01*
X171022481Y-122802835D01*
X170909986Y-122957673D01*
X170823090Y-123128215D01*
X170763941Y-123310255D01*
X170734000Y-123499299D01*
X170734000Y-123690700D01*
X170749858Y-123790825D01*
X170740903Y-123860119D01*
X170695907Y-123913571D01*
X170629155Y-123934210D01*
X170603194Y-123931840D01*
X170541157Y-123919500D01*
X170541154Y-123919500D01*
X170358846Y-123919500D01*
X170358844Y-123919500D01*
X170180047Y-123955065D01*
X170180037Y-123955068D01*
X170011612Y-124024831D01*
X170011608Y-124024833D01*
X169860032Y-124126113D01*
X169860024Y-124126119D01*
X169731119Y-124255024D01*
X169731113Y-124255032D01*
X169629833Y-124406608D01*
X169629831Y-124406612D01*
X169560068Y-124575037D01*
X169560065Y-124575047D01*
X169524500Y-124753843D01*
X169524500Y-124753846D01*
X169524500Y-124936154D01*
X169524500Y-124936156D01*
X169524499Y-124936156D01*
X154500500Y-124936156D01*
X154500500Y-99213135D01*
X158800500Y-99213135D01*
X158800500Y-100706870D01*
X158800501Y-100706876D01*
X158806908Y-100766483D01*
X158857202Y-100901328D01*
X158857206Y-100901335D01*
X158943452Y-101016544D01*
X158943455Y-101016547D01*
X159058664Y-101102793D01*
X159058671Y-101102797D01*
X159193517Y-101153091D01*
X159193516Y-101153091D01*
X159200444Y-101153835D01*
X159253127Y-101159500D01*
X159472257Y-101159499D01*
X159539295Y-101179183D01*
X159585050Y-101231987D01*
X159594994Y-101301145D01*
X159565969Y-101364701D01*
X159528552Y-101393983D01*
X159371326Y-101474094D01*
X159218575Y-101585075D01*
X159085075Y-101718575D01*
X158974096Y-101871324D01*
X158888381Y-102039547D01*
X158830035Y-102219115D01*
X158800500Y-102405597D01*
X158800500Y-102594402D01*
X158830035Y-102780884D01*
X158888381Y-102960452D01*
X158974096Y-103128675D01*
X159085073Y-103281422D01*
X159218578Y-103414927D01*
X159371325Y-103525904D01*
X159450804Y-103566400D01*
X159539547Y-103611618D01*
X159539549Y-103611618D01*
X159539552Y-103611620D01*
X159607347Y-103633648D01*
X159664040Y-103652069D01*
X159721715Y-103691507D01*
X159748913Y-103755866D01*
X159736998Y-103824712D01*
X159689754Y-103876188D01*
X159664040Y-103887931D01*
X159539547Y-103928381D01*
X159371324Y-104014096D01*
X159218575Y-104125075D01*
X159085075Y-104258575D01*
X158974096Y-104411324D01*
X158888381Y-104579547D01*
X158830035Y-104759115D01*
X158800500Y-104945597D01*
X158800500Y-105134402D01*
X158830035Y-105320884D01*
X158888381Y-105500452D01*
X158937211Y-105596285D01*
X158974096Y-105668675D01*
X159085073Y-105821422D01*
X159218578Y-105954927D01*
X159371325Y-106065904D01*
X159450804Y-106106400D01*
X159539547Y-106151618D01*
X159539549Y-106151618D01*
X159539552Y-106151620D01*
X159635802Y-106182893D01*
X159719115Y-106209964D01*
X159812356Y-106224732D01*
X159905597Y-106239500D01*
X159905598Y-106239500D01*
X160094402Y-106239500D01*
X160094403Y-106239500D01*
X160280884Y-106209964D01*
X160460448Y-106151620D01*
X160628675Y-106065904D01*
X160781422Y-105954927D01*
X160914927Y-105821422D01*
X161025904Y-105668675D01*
X161111620Y-105500448D01*
X161169964Y-105320884D01*
X161199500Y-105134403D01*
X161199500Y-104945597D01*
X161169964Y-104759115D01*
X161131260Y-104639998D01*
X161111620Y-104579552D01*
X161111618Y-104579549D01*
X161111618Y-104579547D01*
X161025903Y-104411324D01*
X161007881Y-104386519D01*
X160914927Y-104258578D01*
X160781422Y-104125073D01*
X160628675Y-104014096D01*
X160460452Y-103928381D01*
X160335959Y-103887931D01*
X160278284Y-103848493D01*
X160251086Y-103784134D01*
X160263001Y-103715288D01*
X160310245Y-103663812D01*
X160335959Y-103652069D01*
X160460448Y-103611620D01*
X160628675Y-103525904D01*
X160781422Y-103414927D01*
X160914927Y-103281422D01*
X161025904Y-103128675D01*
X161111620Y-102960448D01*
X161169964Y-102780884D01*
X161199500Y-102594403D01*
X161199500Y-102405597D01*
X161169964Y-102219116D01*
X161111620Y-102039552D01*
X161111618Y-102039549D01*
X161111618Y-102039547D01*
X161025903Y-101871324D01*
X160914927Y-101718578D01*
X160781422Y-101585073D01*
X160628675Y-101474096D01*
X160471445Y-101393983D01*
X160420650Y-101346009D01*
X160403855Y-101278188D01*
X160426392Y-101212054D01*
X160481107Y-101168602D01*
X160527740Y-101159499D01*
X160746872Y-101159499D01*
X160806483Y-101153091D01*
X160941331Y-101102796D01*
X161056546Y-101016546D01*
X161142796Y-100901331D01*
X161193091Y-100766483D01*
X161199500Y-100706873D01*
X161199499Y-99213128D01*
X161193091Y-99153517D01*
X161186616Y-99136156D01*
X169524499Y-99136156D01*
X169560065Y-99314952D01*
X169560068Y-99314962D01*
X169629831Y-99483387D01*
X169629833Y-99483391D01*
X169731113Y-99634967D01*
X169731119Y-99634975D01*
X169860024Y-99763880D01*
X169860032Y-99763886D01*
X170011608Y-99865166D01*
X170011612Y-99865168D01*
X170158391Y-99925965D01*
X170180042Y-99934933D01*
X170180046Y-99934933D01*
X170180047Y-99934934D01*
X170358843Y-99970500D01*
X170358846Y-99970500D01*
X170541156Y-99970500D01*
X170692358Y-99940423D01*
X170719958Y-99934933D01*
X170888389Y-99865167D01*
X170888391Y-99865166D01*
X170963672Y-99814864D01*
X171039972Y-99763883D01*
X171168883Y-99634972D01*
X171270167Y-99483389D01*
X171339933Y-99314958D01*
X171360187Y-99213135D01*
X171375500Y-99136156D01*
X171375500Y-99057582D01*
X171395185Y-98990543D01*
X171447989Y-98944788D01*
X171517147Y-98934844D01*
X171537808Y-98939648D01*
X171665253Y-98981058D01*
X171854299Y-99011000D01*
X171854300Y-99011000D01*
X172045700Y-99011000D01*
X172045701Y-99011000D01*
X172234747Y-98981058D01*
X172416782Y-98921911D01*
X172587323Y-98835016D01*
X172742171Y-98722513D01*
X172877513Y-98587171D01*
X172990016Y-98432323D01*
X173076911Y-98261782D01*
X173136058Y-98079747D01*
X173166000Y-97890701D01*
X173166000Y-97699299D01*
X173136058Y-97510253D01*
X173076911Y-97328218D01*
X172990016Y-97157677D01*
X172948475Y-97100500D01*
X172877518Y-97002835D01*
X172877514Y-97002830D01*
X172742169Y-96867485D01*
X172742164Y-96867481D01*
X172587326Y-96754986D01*
X172587325Y-96754985D01*
X172587323Y-96754984D01*
X172416782Y-96668089D01*
X172234747Y-96608942D01*
X172234745Y-96608941D01*
X172234743Y-96608941D01*
X172116476Y-96590209D01*
X172053341Y-96560279D01*
X172016410Y-96500968D01*
X172017408Y-96431105D01*
X172056018Y-96372873D01*
X172111679Y-96346120D01*
X172200010Y-96328550D01*
X172363891Y-96260669D01*
X172511379Y-96162120D01*
X172556770Y-96116728D01*
X172618090Y-96083243D01*
X172687782Y-96088226D01*
X172732132Y-96116728D01*
X173036010Y-96420606D01*
X173036039Y-96420637D01*
X173126257Y-96510855D01*
X173126261Y-96510858D01*
X173228701Y-96579307D01*
X173228707Y-96579310D01*
X173228708Y-96579311D01*
X173342542Y-96626463D01*
X173372647Y-96632451D01*
X173463385Y-96650499D01*
X173463386Y-96650500D01*
X173463387Y-96650500D01*
X173463388Y-96650500D01*
X177675500Y-96650500D01*
X177742539Y-96670185D01*
X177788294Y-96722989D01*
X177799500Y-96774500D01*
X177799500Y-96838695D01*
X177834103Y-97012658D01*
X177834106Y-97012667D01*
X177901983Y-97176540D01*
X177901990Y-97176553D01*
X178000535Y-97324034D01*
X178000538Y-97324038D01*
X178125961Y-97449461D01*
X178125965Y-97449464D01*
X178273446Y-97548009D01*
X178273459Y-97548016D01*
X178364820Y-97585858D01*
X178437334Y-97615894D01*
X178437336Y-97615894D01*
X178437341Y-97615896D01*
X178611304Y-97650499D01*
X178611307Y-97650500D01*
X178611309Y-97650500D01*
X178788693Y-97650500D01*
X178788694Y-97650499D01*
X178846682Y-97638964D01*
X178962658Y-97615896D01*
X178962661Y-97615894D01*
X178962666Y-97615894D01*
X179126547Y-97548013D01*
X179274035Y-97449464D01*
X179399464Y-97324035D01*
X179498013Y-97176547D01*
X179498016Y-97176540D01*
X179500881Y-97171181D01*
X179502034Y-97171797D01*
X179541653Y-97122640D01*
X179607948Y-97100579D01*
X179612367Y-97100500D01*
X182338394Y-97100500D01*
X193638394Y-97100500D01*
X194294448Y-97100500D01*
X194361487Y-97120185D01*
X194382129Y-97136819D01*
X202233129Y-104987819D01*
X202266614Y-105049142D01*
X202261630Y-105118834D01*
X202219758Y-105174767D01*
X202154294Y-105199184D01*
X202145448Y-105199500D01*
X176413393Y-105199500D01*
X176389120Y-105204328D01*
X176389119Y-105204327D01*
X176292555Y-105223535D01*
X176292547Y-105223537D01*
X176258934Y-105237460D01*
X176258921Y-105237465D01*
X176256683Y-105238393D01*
X176178715Y-105270688D01*
X176178714Y-105270689D01*
X176160526Y-105282841D01*
X176160519Y-105282845D01*
X176076268Y-105339140D01*
X176053803Y-105361606D01*
X175989142Y-105426267D01*
X175989139Y-105426270D01*
X173370230Y-108045178D01*
X173308907Y-108078663D01*
X173239215Y-108073679D01*
X173183282Y-108031807D01*
X173158865Y-107966343D01*
X173160075Y-107938106D01*
X173166000Y-107900701D01*
X173166000Y-107709299D01*
X173136058Y-107520253D01*
X173076911Y-107338218D01*
X172990016Y-107167677D01*
X172973516Y-107144967D01*
X172877518Y-107012835D01*
X172877514Y-107012830D01*
X172742169Y-106877485D01*
X172742164Y-106877481D01*
X172587326Y-106764986D01*
X172587325Y-106764985D01*
X172587323Y-106764984D01*
X172416782Y-106678089D01*
X172234747Y-106618942D01*
X172234745Y-106618941D01*
X172234744Y-106618941D01*
X172065570Y-106592147D01*
X172045701Y-106589000D01*
X171854299Y-106589000D01*
X171834430Y-106592147D01*
X171665255Y-106618941D01*
X171665251Y-106618942D01*
X171537817Y-106660347D01*
X171467976Y-106662342D01*
X171408143Y-106626261D01*
X171377316Y-106563560D01*
X171375500Y-106542416D01*
X171375500Y-106463843D01*
X171339934Y-106285047D01*
X171339933Y-106285046D01*
X171339933Y-106285042D01*
X171308835Y-106209964D01*
X171270168Y-106116612D01*
X171270166Y-106116608D01*
X171168886Y-105965032D01*
X171168880Y-105965024D01*
X171039975Y-105836119D01*
X171039967Y-105836113D01*
X170888391Y-105734833D01*
X170888387Y-105734831D01*
X170719962Y-105665068D01*
X170719952Y-105665065D01*
X170541156Y-105629500D01*
X170541154Y-105629500D01*
X170358846Y-105629500D01*
X170358844Y-105629500D01*
X170180047Y-105665065D01*
X170180037Y-105665068D01*
X170011612Y-105734831D01*
X170011608Y-105734833D01*
X169860032Y-105836113D01*
X169860024Y-105836119D01*
X169731119Y-105965024D01*
X169731113Y-105965032D01*
X169629833Y-106116608D01*
X169629831Y-106116612D01*
X169560068Y-106285037D01*
X169560065Y-106285047D01*
X169524500Y-106463843D01*
X169524500Y-106463846D01*
X169524500Y-106646154D01*
X169524500Y-106646156D01*
X169524499Y-106646156D01*
X169560065Y-106824952D01*
X169560068Y-106824962D01*
X169629831Y-106993387D01*
X169629833Y-106993391D01*
X169731113Y-107144967D01*
X169731119Y-107144975D01*
X169860024Y-107273880D01*
X169860032Y-107273886D01*
X170011608Y-107375166D01*
X170011612Y-107375168D01*
X170143447Y-107429775D01*
X170180042Y-107444933D01*
X170180046Y-107444933D01*
X170180047Y-107444934D01*
X170358843Y-107480500D01*
X170358846Y-107480500D01*
X170541155Y-107480500D01*
X170555846Y-107477577D01*
X170603194Y-107468159D01*
X170672783Y-107474385D01*
X170727961Y-107517248D01*
X170751207Y-107583137D01*
X170749858Y-107609173D01*
X170734000Y-107709298D01*
X170734000Y-107900700D01*
X170763941Y-108089744D01*
X170763942Y-108089747D01*
X170823089Y-108271782D01*
X170907751Y-108437941D01*
X170909986Y-108442326D01*
X171022481Y-108597164D01*
X171022485Y-108597169D01*
X171157830Y-108732514D01*
X171157835Y-108732518D01*
X171292892Y-108830641D01*
X171312677Y-108845016D01*
X171483218Y-108931911D01*
X171665253Y-108991058D01*
X171854299Y-109021000D01*
X171854300Y-109021000D01*
X172045698Y-109021000D01*
X172045701Y-109021000D01*
X172083100Y-109015076D01*
X172152391Y-109024030D01*
X172205844Y-109069025D01*
X172226484Y-109135777D01*
X172207760Y-109203091D01*
X172190178Y-109225230D01*
X171752229Y-109663181D01*
X171690906Y-109696666D01*
X171664548Y-109699500D01*
X171611306Y-109699500D01*
X171437341Y-109734103D01*
X171437332Y-109734106D01*
X171273459Y-109801983D01*
X171273446Y-109801990D01*
X171125965Y-109900535D01*
X171125961Y-109900538D01*
X171000538Y-110025961D01*
X171000535Y-110025965D01*
X170901990Y-110173446D01*
X170901983Y-110173459D01*
X170834106Y-110337332D01*
X170834103Y-110337341D01*
X170799500Y-110511304D01*
X170799500Y-110688695D01*
X170834103Y-110862658D01*
X170834106Y-110862667D01*
X170901983Y-111026540D01*
X170901990Y-111026553D01*
X170905037Y-111031113D01*
X170925912Y-111097792D01*
X170907425Y-111165171D01*
X170905037Y-111168887D01*
X170901990Y-111173446D01*
X170901983Y-111173459D01*
X170834106Y-111337332D01*
X170834103Y-111337341D01*
X170799500Y-111511304D01*
X170799500Y-111688695D01*
X170834103Y-111862658D01*
X170834106Y-111862667D01*
X170901984Y-112026542D01*
X170901987Y-112026547D01*
X170905037Y-112031112D01*
X170925914Y-112097790D01*
X170907428Y-112165170D01*
X170905039Y-112168888D01*
X170901990Y-112173450D01*
X170901983Y-112173463D01*
X170834106Y-112337335D01*
X170834103Y-112337344D01*
X170799500Y-112511307D01*
X170799500Y-112688698D01*
X170834103Y-112862661D01*
X170834106Y-112862670D01*
X170901983Y-113026543D01*
X170901990Y-113026556D01*
X171000535Y-113174037D01*
X171000538Y-113174041D01*
X171125961Y-113299464D01*
X171125965Y-113299467D01*
X171273446Y-113398012D01*
X171273459Y-113398019D01*
X171342348Y-113426553D01*
X171437334Y-113465897D01*
X171437336Y-113465897D01*
X171437341Y-113465899D01*
X171611304Y-113500502D01*
X171611307Y-113500503D01*
X171611309Y-113500503D01*
X171788693Y-113500503D01*
X171788694Y-113500502D01*
X171846682Y-113488967D01*
X171962658Y-113465899D01*
X171962661Y-113465897D01*
X171962666Y-113465897D01*
X172126547Y-113398016D01*
X172274035Y-113299467D01*
X172311679Y-113261823D01*
X172373001Y-113228337D01*
X172399361Y-113225503D01*
X179875500Y-113225503D01*
X179942539Y-113245188D01*
X179988294Y-113297992D01*
X179999500Y-113349503D01*
X179999500Y-113413698D01*
X180034103Y-113587661D01*
X180034106Y-113587670D01*
X180101983Y-113751543D01*
X180101990Y-113751556D01*
X180200535Y-113899037D01*
X180200538Y-113899041D01*
X180325961Y-114024464D01*
X180325965Y-114024467D01*
X180473446Y-114123012D01*
X180473459Y-114123019D01*
X180596363Y-114173926D01*
X180637334Y-114190897D01*
X180637336Y-114190897D01*
X180637341Y-114190899D01*
X180811304Y-114225502D01*
X180811307Y-114225503D01*
X180811309Y-114225503D01*
X180988693Y-114225503D01*
X180994756Y-114224906D01*
X180995035Y-114227739D01*
X181052437Y-114232781D01*
X181107685Y-114275552D01*
X181110329Y-114279354D01*
X181156890Y-114349037D01*
X181156893Y-114349041D01*
X181282316Y-114474464D01*
X181282320Y-114474467D01*
X181391470Y-114547400D01*
X181436275Y-114601013D01*
X181444982Y-114670338D01*
X181414827Y-114733365D01*
X181355384Y-114770084D01*
X181322579Y-114774502D01*
X178038387Y-114774502D01*
X177982958Y-114785527D01*
X177982950Y-114785529D01*
X177977969Y-114786520D01*
X177917546Y-114798539D01*
X177879870Y-114814145D01*
X177873322Y-114816856D01*
X177873312Y-114816860D01*
X177803713Y-114845688D01*
X177793625Y-114852430D01*
X177793624Y-114852431D01*
X177701266Y-114914142D01*
X177657703Y-114957705D01*
X177614140Y-115001269D01*
X177614137Y-115001272D01*
X176552229Y-116063181D01*
X176490906Y-116096666D01*
X176464548Y-116099500D01*
X176411306Y-116099500D01*
X176237341Y-116134103D01*
X176237332Y-116134106D01*
X176073459Y-116201983D01*
X176073446Y-116201990D01*
X175925965Y-116300535D01*
X175925961Y-116300538D01*
X175800538Y-116425961D01*
X175800535Y-116425965D01*
X175701990Y-116573446D01*
X175701983Y-116573459D01*
X175634106Y-116737332D01*
X175634103Y-116737341D01*
X175599500Y-116911304D01*
X175599500Y-117050500D01*
X175579815Y-117117539D01*
X175527011Y-117163294D01*
X175475500Y-117174500D01*
X172399361Y-117174500D01*
X172332322Y-117154815D01*
X172311679Y-117138180D01*
X172274038Y-117100538D01*
X172274034Y-117100535D01*
X172126553Y-117001990D01*
X172126540Y-117001983D01*
X171962667Y-116934106D01*
X171962658Y-116934103D01*
X171788694Y-116899500D01*
X171788691Y-116899500D01*
X171611309Y-116899500D01*
X171611306Y-116899500D01*
X171437341Y-116934103D01*
X171437332Y-116934106D01*
X171273459Y-117001983D01*
X171273446Y-117001990D01*
X171125965Y-117100535D01*
X171125961Y-117100538D01*
X171000538Y-117225961D01*
X171000535Y-117225965D01*
X170901990Y-117373446D01*
X170901983Y-117373459D01*
X170834106Y-117537332D01*
X170834103Y-117537341D01*
X170799500Y-117711304D01*
X170799500Y-117888695D01*
X170834103Y-118062658D01*
X170834106Y-118062667D01*
X170901984Y-118226542D01*
X170901987Y-118226547D01*
X170905037Y-118231112D01*
X170925914Y-118297790D01*
X170907428Y-118365170D01*
X170905039Y-118368888D01*
X170901990Y-118373450D01*
X170901983Y-118373463D01*
X170834106Y-118537335D01*
X170834103Y-118537344D01*
X170799500Y-118711307D01*
X170799500Y-118888698D01*
X170834103Y-119062661D01*
X170834106Y-119062670D01*
X170901984Y-119226545D01*
X170901987Y-119226550D01*
X170905037Y-119231115D01*
X170925914Y-119297793D01*
X170907428Y-119365173D01*
X170905039Y-119368891D01*
X170901990Y-119373453D01*
X170901983Y-119373466D01*
X170834106Y-119537338D01*
X170834103Y-119537347D01*
X170799500Y-119711310D01*
X170799500Y-119888701D01*
X170834103Y-120062664D01*
X170834106Y-120062673D01*
X170901983Y-120226546D01*
X170901990Y-120226558D01*
X170969337Y-120327349D01*
X170990215Y-120394026D01*
X170980796Y-120443692D01*
X170944539Y-120531224D01*
X170944536Y-120531233D01*
X170909933Y-120705196D01*
X170909933Y-120882587D01*
X170944536Y-121056550D01*
X170944539Y-121056559D01*
X171012416Y-121220432D01*
X171012423Y-121220445D01*
X171110968Y-121367926D01*
X171110971Y-121367930D01*
X171236394Y-121493353D01*
X171236398Y-121493356D01*
X171383879Y-121591901D01*
X171383892Y-121591908D01*
X171506796Y-121642815D01*
X171547767Y-121659786D01*
X171547769Y-121659786D01*
X171547774Y-121659788D01*
X171721737Y-121694391D01*
X171721740Y-121694392D01*
X171721742Y-121694392D01*
X171856989Y-121694392D01*
X171865158Y-121696016D01*
X171870230Y-121695101D01*
X171904427Y-121703824D01*
X171911932Y-121706933D01*
X171911941Y-121706940D01*
X171911942Y-121706938D01*
X171953989Y-121724354D01*
X171959095Y-121726469D01*
X172019518Y-121738487D01*
X172079940Y-121750506D01*
X182086601Y-121750506D01*
X182147023Y-121738487D01*
X182207446Y-121726469D01*
X182240786Y-121712658D01*
X182321280Y-121679318D01*
X182372503Y-121645090D01*
X182423727Y-121610864D01*
X182510852Y-121523739D01*
X182510853Y-121523737D01*
X182517919Y-121516671D01*
X182517921Y-121516667D01*
X183622771Y-120411819D01*
X183684094Y-120378334D01*
X183710452Y-120375500D01*
X204786679Y-120375500D01*
X204853718Y-120395185D01*
X204874360Y-120411819D01*
X210136270Y-125673729D01*
X210136273Y-125673733D01*
X210223398Y-125760858D01*
X210300321Y-125812256D01*
X210306121Y-125816132D01*
X210306124Y-125816134D01*
X210325841Y-125829309D01*
X210325843Y-125829310D01*
X210325846Y-125829312D01*
X210392527Y-125856931D01*
X210392529Y-125856933D01*
X210432771Y-125873601D01*
X210439679Y-125876463D01*
X210500102Y-125888481D01*
X210560524Y-125900500D01*
X230406707Y-125900500D01*
X230467129Y-125888481D01*
X230527552Y-125876463D01*
X230564723Y-125861066D01*
X230571315Y-125858335D01*
X230571317Y-125858335D01*
X230641381Y-125829314D01*
X230641380Y-125829314D01*
X230641386Y-125829312D01*
X230692609Y-125795084D01*
X230743833Y-125760858D01*
X230830958Y-125673733D01*
X230830959Y-125673731D01*
X230838025Y-125666665D01*
X230838028Y-125666661D01*
X231617357Y-124887332D01*
X243724500Y-124887332D01*
X243724500Y-125162667D01*
X243724501Y-125162684D01*
X243760438Y-125435655D01*
X243760439Y-125435660D01*
X243760440Y-125435666D01*
X243760441Y-125435668D01*
X243831704Y-125701630D01*
X243937075Y-125956017D01*
X243937080Y-125956028D01*
X244016809Y-126094121D01*
X244074751Y-126194479D01*
X244074753Y-126194482D01*
X244074754Y-126194483D01*
X244242370Y-126412926D01*
X244242376Y-126412933D01*
X244437066Y-126607623D01*
X244437072Y-126607628D01*
X244655521Y-126775249D01*
X244808778Y-126863732D01*
X244893971Y-126912919D01*
X244893976Y-126912921D01*
X244893979Y-126912923D01*
X245148368Y-127018295D01*
X245414334Y-127089560D01*
X245687326Y-127125500D01*
X245687333Y-127125500D01*
X245962667Y-127125500D01*
X245962674Y-127125500D01*
X246235666Y-127089560D01*
X246501632Y-127018295D01*
X246756021Y-126912923D01*
X246994479Y-126775249D01*
X247212928Y-126607628D01*
X247407628Y-126412928D01*
X247575249Y-126194479D01*
X247712923Y-125956021D01*
X247818295Y-125701632D01*
X247889560Y-125435666D01*
X247925500Y-125162674D01*
X247925500Y-124887326D01*
X247889560Y-124614334D01*
X247818295Y-124348368D01*
X247712923Y-124093979D01*
X247712921Y-124093976D01*
X247712919Y-124093971D01*
X247651631Y-123987819D01*
X247575249Y-123855521D01*
X247407628Y-123637072D01*
X247407623Y-123637066D01*
X247212933Y-123442376D01*
X247212926Y-123442370D01*
X246994483Y-123274754D01*
X246994482Y-123274753D01*
X246994479Y-123274751D01*
X246899407Y-123219861D01*
X246756028Y-123137080D01*
X246756017Y-123137075D01*
X246501630Y-123031704D01*
X246368649Y-122996072D01*
X246235666Y-122960440D01*
X246235660Y-122960439D01*
X246235655Y-122960438D01*
X245962684Y-122924501D01*
X245962679Y-122924500D01*
X245962674Y-122924500D01*
X245687326Y-122924500D01*
X245687320Y-122924500D01*
X245687315Y-122924501D01*
X245414344Y-122960438D01*
X245414337Y-122960439D01*
X245414334Y-122960440D01*
X245358125Y-122975500D01*
X245148369Y-123031704D01*
X244893982Y-123137075D01*
X244893971Y-123137080D01*
X244655516Y-123274754D01*
X244437073Y-123442370D01*
X244437066Y-123442376D01*
X244242376Y-123637066D01*
X244242370Y-123637073D01*
X244074754Y-123855516D01*
X243937080Y-124093971D01*
X243937075Y-124093982D01*
X243831704Y-124348369D01*
X243760441Y-124614331D01*
X243760438Y-124614344D01*
X243724501Y-124887315D01*
X243724500Y-124887332D01*
X231617357Y-124887332D01*
X238319134Y-118185555D01*
X238319138Y-118185553D01*
X238406263Y-118098428D01*
X238406265Y-118098424D01*
X243936229Y-112568460D01*
X243936233Y-112568458D01*
X244023358Y-112481333D01*
X244080593Y-112395675D01*
X244091812Y-112378885D01*
X244122948Y-112303715D01*
X244138963Y-112265052D01*
X244150981Y-112204629D01*
X244163000Y-112144207D01*
X244163000Y-112020993D01*
X244163000Y-109330794D01*
X244138963Y-109209948D01*
X244114738Y-109151463D01*
X244091812Y-109096114D01*
X244041621Y-109021000D01*
X244023358Y-108993667D01*
X244023356Y-108993665D01*
X244023353Y-108993661D01*
X243933137Y-108903445D01*
X243933106Y-108903416D01*
X243700750Y-108671060D01*
X243693460Y-108663770D01*
X243693458Y-108663767D01*
X243606333Y-108576642D01*
X243555109Y-108542415D01*
X243503886Y-108508188D01*
X243503883Y-108508186D01*
X243503880Y-108508185D01*
X243430754Y-108477896D01*
X243430751Y-108477895D01*
X243423392Y-108474847D01*
X243390052Y-108461037D01*
X243312890Y-108445689D01*
X243308751Y-108444865D01*
X243308741Y-108444863D01*
X243269211Y-108437000D01*
X243269207Y-108437000D01*
X243269206Y-108437000D01*
X243171952Y-108437000D01*
X243104913Y-108417315D01*
X243059158Y-108364511D01*
X243049214Y-108295353D01*
X243078239Y-108231797D01*
X243084271Y-108225319D01*
X244256965Y-107052626D01*
X245610858Y-105698733D01*
X245679312Y-105596285D01*
X245711926Y-105517548D01*
X245726463Y-105482452D01*
X245737639Y-105426267D01*
X245750501Y-105361606D01*
X245750501Y-105238393D01*
X245750500Y-105238387D01*
X245750500Y-100438394D01*
X245750500Y-100438393D01*
X245750500Y-94363394D01*
X245748143Y-94351547D01*
X245741508Y-94318190D01*
X245741507Y-94318185D01*
X245730254Y-94261605D01*
X245730254Y-94261604D01*
X245726464Y-94242551D01*
X245726463Y-94242549D01*
X245726463Y-94242548D01*
X245687205Y-94147771D01*
X245679312Y-94128716D01*
X245679307Y-94128707D01*
X245610858Y-94026267D01*
X245610855Y-94026263D01*
X245520637Y-93936045D01*
X245520606Y-93936016D01*
X234593520Y-83008930D01*
X234586165Y-83001575D01*
X234586163Y-83001572D01*
X234499038Y-82914447D01*
X234445560Y-82878714D01*
X234438978Y-82874316D01*
X234438976Y-82874314D01*
X234396595Y-82845995D01*
X234396591Y-82845993D01*
X234323731Y-82815814D01*
X234294521Y-82803715D01*
X234282757Y-82798842D01*
X234222334Y-82786823D01*
X234219334Y-82786226D01*
X234219321Y-82786223D01*
X234161915Y-82774805D01*
X234161912Y-82774805D01*
X234161911Y-82774805D01*
X232161301Y-82774805D01*
X232038088Y-82774805D01*
X232038083Y-82774805D01*
X231917250Y-82798840D01*
X231917242Y-82798842D01*
X231803411Y-82845992D01*
X231700960Y-82914447D01*
X231700957Y-82914450D01*
X231512181Y-83103227D01*
X231450858Y-83136712D01*
X231381166Y-83131728D01*
X231325233Y-83089856D01*
X231300816Y-83024392D01*
X231300500Y-83015546D01*
X231300500Y-83011306D01*
X231300499Y-83011304D01*
X231265896Y-82837341D01*
X231265893Y-82837332D01*
X231198016Y-82673459D01*
X231198009Y-82673446D01*
X231099464Y-82525965D01*
X231099461Y-82525961D01*
X230974038Y-82400538D01*
X230974034Y-82400535D01*
X230826553Y-82301990D01*
X230826540Y-82301983D01*
X230662667Y-82234106D01*
X230662658Y-82234103D01*
X230488694Y-82199500D01*
X230488691Y-82199500D01*
X230435453Y-82199500D01*
X230368414Y-82179815D01*
X230347772Y-82163181D01*
X229529558Y-81344967D01*
X228621922Y-80437332D01*
X243724500Y-80437332D01*
X243724500Y-80712667D01*
X243724501Y-80712684D01*
X243760438Y-80985655D01*
X243760439Y-80985660D01*
X243760440Y-80985666D01*
X243785042Y-81077481D01*
X243831704Y-81251630D01*
X243937075Y-81506017D01*
X243937080Y-81506028D01*
X243998464Y-81612347D01*
X244074751Y-81744479D01*
X244074753Y-81744482D01*
X244074754Y-81744483D01*
X244242370Y-81962926D01*
X244242376Y-81962933D01*
X244437066Y-82157623D01*
X244437073Y-82157629D01*
X244565403Y-82256099D01*
X244655521Y-82325249D01*
X244785920Y-82400535D01*
X244893971Y-82462919D01*
X244893976Y-82462921D01*
X244893979Y-82462923D01*
X245148368Y-82568295D01*
X245414334Y-82639560D01*
X245687326Y-82675500D01*
X245687333Y-82675500D01*
X245962667Y-82675500D01*
X245962674Y-82675500D01*
X246235666Y-82639560D01*
X246501632Y-82568295D01*
X246756021Y-82462923D01*
X246994479Y-82325249D01*
X247212928Y-82157628D01*
X247407628Y-81962928D01*
X247575249Y-81744479D01*
X247712923Y-81506021D01*
X247818295Y-81251632D01*
X247889560Y-80985666D01*
X247925500Y-80712674D01*
X247925500Y-80437326D01*
X247889560Y-80164334D01*
X247818295Y-79898368D01*
X247712923Y-79643979D01*
X247712921Y-79643976D01*
X247712919Y-79643971D01*
X247663732Y-79558778D01*
X247575249Y-79405521D01*
X247407628Y-79187072D01*
X247407623Y-79187066D01*
X247212933Y-78992376D01*
X247212926Y-78992370D01*
X246994483Y-78824754D01*
X246994482Y-78824753D01*
X246994479Y-78824751D01*
X246899407Y-78769861D01*
X246756028Y-78687080D01*
X246756017Y-78687075D01*
X246501630Y-78581704D01*
X246368649Y-78546072D01*
X246235666Y-78510440D01*
X246235660Y-78510439D01*
X246235655Y-78510438D01*
X245962684Y-78474501D01*
X245962679Y-78474500D01*
X245962674Y-78474500D01*
X245687326Y-78474500D01*
X245687320Y-78474500D01*
X245687315Y-78474501D01*
X245414344Y-78510438D01*
X245414337Y-78510439D01*
X245414334Y-78510440D01*
X245358125Y-78525500D01*
X245148369Y-78581704D01*
X244893982Y-78687075D01*
X244893971Y-78687080D01*
X244655516Y-78824754D01*
X244437073Y-78992370D01*
X244437066Y-78992376D01*
X244242376Y-79187066D01*
X244242370Y-79187073D01*
X244074754Y-79405516D01*
X243937080Y-79643971D01*
X243937075Y-79643982D01*
X243831704Y-79898369D01*
X243760441Y-80164331D01*
X243760438Y-80164344D01*
X243724501Y-80437315D01*
X243724500Y-80437332D01*
X228621922Y-80437332D01*
X228567927Y-80383337D01*
X228567926Y-80383335D01*
X228567925Y-80383334D01*
X228567925Y-80383335D01*
X228560858Y-80376268D01*
X228560858Y-80376267D01*
X228473733Y-80289142D01*
X228473732Y-80289141D01*
X228473731Y-80289140D01*
X228428325Y-80258801D01*
X228428324Y-80258800D01*
X228422509Y-80254915D01*
X228371286Y-80220688D01*
X228290792Y-80187347D01*
X228275457Y-80180995D01*
X228257453Y-80173537D01*
X228247427Y-80171543D01*
X228197029Y-80161518D01*
X228136610Y-80149500D01*
X228136607Y-80149500D01*
X228136606Y-80149500D01*
X221913394Y-80149500D01*
X221913389Y-80149500D01*
X221792553Y-80173535D01*
X221792541Y-80173539D01*
X221764006Y-80185359D01*
X221745397Y-80193067D01*
X221678719Y-80220685D01*
X221678717Y-80220686D01*
X221576268Y-80289140D01*
X221548801Y-80316608D01*
X221477226Y-80388182D01*
X221415906Y-80421666D01*
X221389547Y-80424500D01*
X214258553Y-80424500D01*
X214258533Y-80424499D01*
X214252419Y-80424499D01*
X214129206Y-80424499D01*
X214028409Y-80444548D01*
X214028404Y-80444548D01*
X214008361Y-80448536D01*
X214008359Y-80448536D01*
X213961209Y-80468067D01*
X213894531Y-80495685D01*
X213894529Y-80495686D01*
X213792078Y-80564141D01*
X213792075Y-80564144D01*
X212818041Y-81538181D01*
X212756718Y-81571666D01*
X212730360Y-81574500D01*
X178788084Y-81574500D01*
X178727666Y-81586518D01*
X178689954Y-81594019D01*
X178667245Y-81598536D01*
X178667243Y-81598537D01*
X178633902Y-81612347D01*
X178553413Y-81645685D01*
X178553409Y-81645687D01*
X178521460Y-81667036D01*
X178515362Y-81671111D01*
X178450962Y-81714142D01*
X178363837Y-81801267D01*
X178363834Y-81801270D01*
X178360413Y-81804690D01*
X178360407Y-81804696D01*
X177026924Y-83138181D01*
X176965601Y-83171666D01*
X176939243Y-83174500D01*
X176911303Y-83174500D01*
X176737338Y-83209103D01*
X176737329Y-83209106D01*
X176573456Y-83276983D01*
X176573443Y-83276990D01*
X176425962Y-83375535D01*
X176425958Y-83375538D01*
X176300535Y-83500961D01*
X176300532Y-83500965D01*
X176201987Y-83648446D01*
X176201980Y-83648459D01*
X176134103Y-83812332D01*
X176134100Y-83812341D01*
X176099497Y-83986304D01*
X176099497Y-84050500D01*
X176079812Y-84117539D01*
X176027008Y-84163294D01*
X175975497Y-84174500D01*
X172399361Y-84174500D01*
X172332322Y-84154815D01*
X172311679Y-84138180D01*
X172274038Y-84100538D01*
X172274034Y-84100535D01*
X172126553Y-84001990D01*
X172126540Y-84001983D01*
X171962667Y-83934106D01*
X171962658Y-83934103D01*
X171788694Y-83899500D01*
X171788691Y-83899500D01*
X171611309Y-83899500D01*
X171611306Y-83899500D01*
X171437341Y-83934103D01*
X171437332Y-83934106D01*
X171273459Y-84001983D01*
X171273446Y-84001990D01*
X171125965Y-84100535D01*
X171125961Y-84100538D01*
X171000538Y-84225961D01*
X171000535Y-84225965D01*
X170901990Y-84373446D01*
X170901983Y-84373459D01*
X170834106Y-84537332D01*
X170834103Y-84537341D01*
X170799500Y-84711304D01*
X170799500Y-84888695D01*
X170834103Y-85062658D01*
X170834106Y-85062667D01*
X170901984Y-85226542D01*
X170901987Y-85226547D01*
X170905037Y-85231112D01*
X170925914Y-85297790D01*
X170907428Y-85365170D01*
X170905039Y-85368888D01*
X170901990Y-85373450D01*
X170901983Y-85373463D01*
X170834106Y-85537335D01*
X170834103Y-85537344D01*
X170799500Y-85711307D01*
X170799500Y-85888698D01*
X170834103Y-86062661D01*
X170834106Y-86062670D01*
X170901984Y-86226545D01*
X170901987Y-86226550D01*
X170905037Y-86231115D01*
X170925914Y-86297793D01*
X170907428Y-86365173D01*
X170905039Y-86368891D01*
X170901990Y-86373453D01*
X170901983Y-86373466D01*
X170834106Y-86537338D01*
X170834103Y-86537347D01*
X170799500Y-86711310D01*
X170799500Y-86888701D01*
X170834103Y-87062664D01*
X170834106Y-87062673D01*
X170901983Y-87226546D01*
X170901990Y-87226559D01*
X171000535Y-87374040D01*
X171000538Y-87374044D01*
X171125961Y-87499467D01*
X171125965Y-87499470D01*
X171273446Y-87598015D01*
X171273459Y-87598022D01*
X171354494Y-87631587D01*
X171437334Y-87665900D01*
X171437336Y-87665900D01*
X171437341Y-87665902D01*
X171611304Y-87700505D01*
X171611307Y-87700506D01*
X171611309Y-87700506D01*
X171788693Y-87700506D01*
X171788694Y-87700505D01*
X171846682Y-87688970D01*
X171962658Y-87665902D01*
X171962661Y-87665900D01*
X171962666Y-87665900D01*
X172126547Y-87598019D01*
X172274035Y-87499470D01*
X172311679Y-87461826D01*
X172373001Y-87428340D01*
X172399361Y-87425506D01*
X176400645Y-87425506D01*
X176467684Y-87445191D01*
X176488327Y-87461826D01*
X176525961Y-87499461D01*
X176525965Y-87499464D01*
X176673446Y-87598009D01*
X176673459Y-87598016D01*
X176796363Y-87648923D01*
X176837334Y-87665894D01*
X176837336Y-87665894D01*
X176837341Y-87665896D01*
X177011304Y-87700499D01*
X177011307Y-87700500D01*
X177011309Y-87700500D01*
X177188693Y-87700500D01*
X177188694Y-87700499D01*
X177246682Y-87688964D01*
X177362658Y-87665896D01*
X177362661Y-87665894D01*
X177362666Y-87665894D01*
X177502535Y-87607958D01*
X177526540Y-87598016D01*
X177526540Y-87598015D01*
X177526547Y-87598013D01*
X177674035Y-87499464D01*
X177799464Y-87374035D01*
X177898013Y-87226547D01*
X177965894Y-87062666D01*
X177966318Y-87060537D01*
X178000499Y-86888695D01*
X178000500Y-86888693D01*
X178000500Y-86819806D01*
X178020185Y-86752767D01*
X178072989Y-86707012D01*
X178100309Y-86698189D01*
X178262658Y-86665896D01*
X178262661Y-86665894D01*
X178262666Y-86665894D01*
X178426547Y-86598013D01*
X178574035Y-86499464D01*
X178699464Y-86374035D01*
X178798013Y-86226547D01*
X178865894Y-86062666D01*
X178867971Y-86052228D01*
X178881996Y-85981718D01*
X178914381Y-85919807D01*
X178975096Y-85885233D01*
X179044866Y-85888972D01*
X179091294Y-85918228D01*
X179111897Y-85938831D01*
X179111901Y-85938834D01*
X179259382Y-86037379D01*
X179259395Y-86037386D01*
X179382299Y-86088293D01*
X179423270Y-86105264D01*
X179423272Y-86105264D01*
X179423277Y-86105266D01*
X179597240Y-86139869D01*
X179597243Y-86139870D01*
X179597245Y-86139870D01*
X179774629Y-86139870D01*
X179774630Y-86139869D01*
X179832618Y-86128334D01*
X179948594Y-86105266D01*
X179948597Y-86105264D01*
X179948602Y-86105264D01*
X180112483Y-86037383D01*
X180259971Y-85938834D01*
X180259974Y-85938831D01*
X180279726Y-85919080D01*
X180341049Y-85885595D01*
X180367407Y-85882761D01*
X185654346Y-85882761D01*
X185714768Y-85870742D01*
X185775191Y-85858724D01*
X185808531Y-85844913D01*
X185889025Y-85811573D01*
X185940248Y-85777345D01*
X185991472Y-85743119D01*
X186078597Y-85655994D01*
X186078597Y-85655992D01*
X186088805Y-85645785D01*
X186088806Y-85645782D01*
X186622772Y-85111819D01*
X186684095Y-85078334D01*
X186710453Y-85075500D01*
X208638394Y-85075500D01*
X209477847Y-85075500D01*
X209544886Y-85095185D01*
X209565528Y-85111819D01*
X212074734Y-87621027D01*
X212074756Y-87621047D01*
X213624315Y-89170606D01*
X213624344Y-89170637D01*
X213714562Y-89260855D01*
X213714566Y-89260858D01*
X213817006Y-89329307D01*
X213817010Y-89329309D01*
X213817013Y-89329311D01*
X213930847Y-89376463D01*
X213991270Y-89388481D01*
X214051692Y-89400500D01*
X229386607Y-89400500D01*
X229447029Y-89388481D01*
X229507452Y-89376463D01*
X229540792Y-89362652D01*
X229621286Y-89329312D01*
X229672509Y-89295084D01*
X229723733Y-89260858D01*
X229810858Y-89173733D01*
X229810859Y-89173731D01*
X229817925Y-89166665D01*
X229817927Y-89166661D01*
X230447771Y-88536819D01*
X230509094Y-88503334D01*
X230535452Y-88500500D01*
X230588693Y-88500500D01*
X230588694Y-88500499D01*
X230646682Y-88488964D01*
X230762658Y-88465896D01*
X230762661Y-88465894D01*
X230762666Y-88465894D01*
X230926547Y-88398013D01*
X231074035Y-88299464D01*
X231199464Y-88174035D01*
X231298013Y-88026547D01*
X231333766Y-87940228D01*
X231348998Y-87921325D01*
X231360631Y-87900014D01*
X231372636Y-87891990D01*
X231377604Y-87885827D01*
X231388882Y-87878859D01*
X231394718Y-87875671D01*
X231446286Y-87854312D01*
X231497509Y-87820084D01*
X231548733Y-87785858D01*
X231635858Y-87698733D01*
X231635859Y-87698731D01*
X231642925Y-87691665D01*
X231642927Y-87691661D01*
X232240568Y-87094020D01*
X232301890Y-87060537D01*
X232371582Y-87065521D01*
X232393344Y-87076164D01*
X232468159Y-87122310D01*
X232468160Y-87122310D01*
X232468166Y-87122314D01*
X232634703Y-87177499D01*
X232737491Y-87188000D01*
X233487508Y-87187999D01*
X233487516Y-87187998D01*
X233487519Y-87187998D01*
X233567076Y-87179871D01*
X233590297Y-87177499D01*
X233756834Y-87122314D01*
X233906156Y-87030212D01*
X234030212Y-86906156D01*
X234122314Y-86756834D01*
X234177499Y-86590297D01*
X234188000Y-86487509D01*
X234187999Y-84671950D01*
X234207684Y-84604912D01*
X234260487Y-84559157D01*
X234329646Y-84549213D01*
X234393202Y-84578238D01*
X234399680Y-84584270D01*
X242615729Y-92800319D01*
X242649214Y-92861642D01*
X242644230Y-92931334D01*
X242602358Y-92987267D01*
X242536894Y-93011684D01*
X242528048Y-93012000D01*
X242262499Y-93012000D01*
X242262480Y-93012001D01*
X242159703Y-93022500D01*
X242159700Y-93022501D01*
X241993168Y-93077685D01*
X241993163Y-93077687D01*
X241843842Y-93169789D01*
X241719789Y-93293842D01*
X241627687Y-93443163D01*
X241627686Y-93443166D01*
X241572501Y-93609703D01*
X241572501Y-93609704D01*
X241572500Y-93609704D01*
X241562000Y-93712483D01*
X241562000Y-95002047D01*
X241542315Y-95069086D01*
X241525681Y-95089728D01*
X240974680Y-95640729D01*
X240913357Y-95674214D01*
X240843665Y-95669230D01*
X240787732Y-95627358D01*
X240763315Y-95561894D01*
X240762999Y-95553048D01*
X240762999Y-93712498D01*
X240762998Y-93712481D01*
X240752499Y-93609703D01*
X240752498Y-93609700D01*
X240716325Y-93500538D01*
X240697314Y-93443166D01*
X240671915Y-93401987D01*
X240646933Y-93361484D01*
X240628493Y-93294092D01*
X240649416Y-93227428D01*
X240664788Y-93208709D01*
X240699464Y-93174035D01*
X240798013Y-93026547D01*
X240804039Y-93012000D01*
X240819268Y-92975233D01*
X240865894Y-92862666D01*
X240879735Y-92793086D01*
X240888964Y-92746682D01*
X240900500Y-92688691D01*
X240900500Y-92511309D01*
X240900500Y-92511306D01*
X240900499Y-92511304D01*
X240865896Y-92337341D01*
X240865893Y-92337332D01*
X240798016Y-92173459D01*
X240798009Y-92173446D01*
X240699464Y-92025965D01*
X240699461Y-92025961D01*
X240574038Y-91900538D01*
X240574034Y-91900535D01*
X240426553Y-91801990D01*
X240426540Y-91801983D01*
X240262667Y-91734106D01*
X240262658Y-91734103D01*
X240088694Y-91699500D01*
X240088691Y-91699500D01*
X240035452Y-91699500D01*
X239968413Y-91679815D01*
X239947771Y-91663181D01*
X238868150Y-90583560D01*
X238860860Y-90576270D01*
X238860858Y-90576267D01*
X238773733Y-90489142D01*
X238722509Y-90454915D01*
X238671286Y-90420688D01*
X238671283Y-90420686D01*
X238671280Y-90420685D01*
X238597603Y-90390168D01*
X238597601Y-90390167D01*
X238590792Y-90387347D01*
X238557452Y-90373537D01*
X238497029Y-90361518D01*
X238492306Y-90360578D01*
X238492304Y-90360578D01*
X238436610Y-90349500D01*
X238436607Y-90349500D01*
X238436606Y-90349500D01*
X181986607Y-90349500D01*
X181863393Y-90349500D01*
X181863389Y-90349500D01*
X181807697Y-90360578D01*
X181802971Y-90361518D01*
X181759743Y-90370116D01*
X181742546Y-90373537D01*
X181628716Y-90420687D01*
X181628707Y-90420692D01*
X181526268Y-90489140D01*
X181482705Y-90532703D01*
X181439142Y-90576267D01*
X180907436Y-91107973D01*
X180846113Y-91141458D01*
X180776421Y-91136474D01*
X180732074Y-91107973D01*
X180674639Y-91050538D01*
X180674635Y-91050535D01*
X180527154Y-90951990D01*
X180527141Y-90951983D01*
X180363268Y-90884106D01*
X180363259Y-90884103D01*
X180189295Y-90849500D01*
X180189292Y-90849500D01*
X180136053Y-90849500D01*
X180106612Y-90840855D01*
X180076626Y-90834332D01*
X180071610Y-90830577D01*
X180069014Y-90829815D01*
X180048372Y-90813181D01*
X180043529Y-90808338D01*
X180043527Y-90808335D01*
X180043526Y-90808334D01*
X180043526Y-90808335D01*
X180036459Y-90801268D01*
X180036459Y-90801267D01*
X179949334Y-90714142D01*
X179896312Y-90678714D01*
X179846887Y-90645688D01*
X179766393Y-90612347D01*
X179761677Y-90610393D01*
X179761674Y-90610392D01*
X179733054Y-90598537D01*
X179723028Y-90596543D01*
X179672630Y-90586518D01*
X179612211Y-90574500D01*
X179612208Y-90574500D01*
X179612207Y-90574500D01*
X172399361Y-90574500D01*
X172332322Y-90554815D01*
X172311679Y-90538180D01*
X172274038Y-90500538D01*
X172274034Y-90500535D01*
X172126553Y-90401990D01*
X172126540Y-90401983D01*
X171962667Y-90334106D01*
X171962658Y-90334103D01*
X171788694Y-90299500D01*
X171788691Y-90299500D01*
X171611309Y-90299500D01*
X171611306Y-90299500D01*
X171437341Y-90334103D01*
X171437332Y-90334106D01*
X171273459Y-90401983D01*
X171273446Y-90401990D01*
X171125965Y-90500535D01*
X171125961Y-90500538D01*
X171000538Y-90625961D01*
X171000535Y-90625965D01*
X170901990Y-90773446D01*
X170901983Y-90773459D01*
X170834106Y-90937332D01*
X170834103Y-90937341D01*
X170799500Y-91111304D01*
X170799500Y-91288695D01*
X170834103Y-91462658D01*
X170834106Y-91462667D01*
X170901983Y-91626540D01*
X170901990Y-91626553D01*
X170905037Y-91631113D01*
X170925912Y-91697792D01*
X170907425Y-91765171D01*
X170905037Y-91768887D01*
X170901990Y-91773446D01*
X170901983Y-91773459D01*
X170834106Y-91937332D01*
X170834103Y-91937341D01*
X170799500Y-92111304D01*
X170799500Y-92288695D01*
X170834103Y-92462658D01*
X170834106Y-92462667D01*
X170901984Y-92626542D01*
X170901987Y-92626547D01*
X170905037Y-92631112D01*
X170925914Y-92697790D01*
X170907428Y-92765170D01*
X170905039Y-92768888D01*
X170901990Y-92773450D01*
X170901983Y-92773463D01*
X170834106Y-92937335D01*
X170834103Y-92937344D01*
X170799500Y-93111307D01*
X170799500Y-93288698D01*
X170834103Y-93462661D01*
X170834106Y-93462670D01*
X170901984Y-93626545D01*
X170901987Y-93626550D01*
X170905037Y-93631115D01*
X170925914Y-93697793D01*
X170907428Y-93765173D01*
X170905039Y-93768891D01*
X170901990Y-93773453D01*
X170901983Y-93773466D01*
X170834106Y-93937338D01*
X170834103Y-93937347D01*
X170799500Y-94111310D01*
X170799500Y-94288701D01*
X170834103Y-94462664D01*
X170834106Y-94462673D01*
X170901983Y-94626546D01*
X170901990Y-94626559D01*
X171000535Y-94774040D01*
X171000538Y-94774044D01*
X171117241Y-94890747D01*
X171150726Y-94952070D01*
X171145742Y-95021762D01*
X171140042Y-95034392D01*
X171071450Y-95199988D01*
X171071447Y-95199997D01*
X171036844Y-95373960D01*
X171036844Y-95551351D01*
X171071447Y-95725314D01*
X171071450Y-95725323D01*
X171139327Y-95889196D01*
X171139334Y-95889209D01*
X171237879Y-96036690D01*
X171237882Y-96036694D01*
X171363305Y-96162117D01*
X171363309Y-96162120D01*
X171510790Y-96260665D01*
X171510803Y-96260672D01*
X171630985Y-96310452D01*
X171674678Y-96328550D01*
X171762998Y-96346118D01*
X171774224Y-96348351D01*
X171836135Y-96380735D01*
X171870709Y-96441451D01*
X171866970Y-96511220D01*
X171826104Y-96567893D01*
X171769432Y-96592441D01*
X171665255Y-96608941D01*
X171483215Y-96668090D01*
X171312673Y-96754986D01*
X171157835Y-96867481D01*
X171157830Y-96867485D01*
X171022485Y-97002830D01*
X171022481Y-97002835D01*
X170909986Y-97157673D01*
X170823090Y-97328215D01*
X170763941Y-97510255D01*
X170741729Y-97650499D01*
X170734000Y-97699299D01*
X170734000Y-97890701D01*
X170735158Y-97898013D01*
X170749858Y-97990825D01*
X170740903Y-98060119D01*
X170695907Y-98113571D01*
X170629155Y-98134210D01*
X170603194Y-98131840D01*
X170541157Y-98119500D01*
X170541154Y-98119500D01*
X170358846Y-98119500D01*
X170358844Y-98119500D01*
X170180047Y-98155065D01*
X170180037Y-98155068D01*
X170011612Y-98224831D01*
X170011608Y-98224833D01*
X169860032Y-98326113D01*
X169860024Y-98326119D01*
X169731119Y-98455024D01*
X169731113Y-98455032D01*
X169629833Y-98606608D01*
X169629831Y-98606612D01*
X169560068Y-98775037D01*
X169560065Y-98775047D01*
X169524500Y-98953843D01*
X169524500Y-98953846D01*
X169524500Y-99136154D01*
X169524500Y-99136156D01*
X169524499Y-99136156D01*
X161186616Y-99136156D01*
X161176059Y-99107853D01*
X161142797Y-99018671D01*
X161142793Y-99018665D01*
X161056547Y-98903455D01*
X161056544Y-98903452D01*
X160941335Y-98817206D01*
X160941328Y-98817202D01*
X160806482Y-98766908D01*
X160806483Y-98766908D01*
X160746883Y-98760501D01*
X160746881Y-98760500D01*
X160746873Y-98760500D01*
X160746864Y-98760500D01*
X159253129Y-98760500D01*
X159253123Y-98760501D01*
X159193516Y-98766908D01*
X159058671Y-98817202D01*
X159058664Y-98817206D01*
X158943455Y-98903452D01*
X158943452Y-98903455D01*
X158857206Y-99018664D01*
X158857202Y-99018671D01*
X158806908Y-99153517D01*
X158800501Y-99213116D01*
X158800501Y-99213123D01*
X158800500Y-99213135D01*
X154500500Y-99213135D01*
X154500500Y-80846156D01*
X169524499Y-80846156D01*
X169560065Y-81024952D01*
X169560068Y-81024962D01*
X169629831Y-81193387D01*
X169629833Y-81193391D01*
X169731113Y-81344967D01*
X169731119Y-81344975D01*
X169860024Y-81473880D01*
X169860032Y-81473886D01*
X170011608Y-81575166D01*
X170011612Y-81575168D01*
X170180037Y-81644931D01*
X170180042Y-81644933D01*
X170180046Y-81644933D01*
X170180047Y-81644934D01*
X170358843Y-81680500D01*
X170358846Y-81680500D01*
X170541155Y-81680500D01*
X170562434Y-81676267D01*
X170603194Y-81668159D01*
X170672783Y-81674385D01*
X170727961Y-81717248D01*
X170751207Y-81783137D01*
X170749858Y-81809173D01*
X170734000Y-81909298D01*
X170734000Y-82100700D01*
X170763941Y-82289744D01*
X170763942Y-82289747D01*
X170823089Y-82471782D01*
X170908576Y-82639560D01*
X170909986Y-82642326D01*
X171022481Y-82797164D01*
X171022485Y-82797169D01*
X171157830Y-82932514D01*
X171157835Y-82932518D01*
X171266276Y-83011304D01*
X171312677Y-83045016D01*
X171483218Y-83131911D01*
X171665253Y-83191058D01*
X171854299Y-83221000D01*
X171854300Y-83221000D01*
X172045700Y-83221000D01*
X172045701Y-83221000D01*
X172234747Y-83191058D01*
X172416782Y-83131911D01*
X172587323Y-83045016D01*
X172742171Y-82932513D01*
X172877513Y-82797171D01*
X172990016Y-82642323D01*
X173076911Y-82471782D01*
X173136058Y-82289747D01*
X173166000Y-82100701D01*
X173166000Y-81909299D01*
X173136058Y-81720253D01*
X173076911Y-81538218D01*
X172990016Y-81367677D01*
X172905705Y-81251632D01*
X172877518Y-81212835D01*
X172877514Y-81212830D01*
X172742169Y-81077485D01*
X172742164Y-81077481D01*
X172587326Y-80964986D01*
X172587325Y-80964985D01*
X172587323Y-80964984D01*
X172416782Y-80878089D01*
X172234747Y-80818942D01*
X172234745Y-80818941D01*
X172234744Y-80818941D01*
X172089523Y-80795940D01*
X172045701Y-80789000D01*
X171854299Y-80789000D01*
X171818723Y-80794634D01*
X171665255Y-80818941D01*
X171665251Y-80818942D01*
X171537817Y-80860347D01*
X171467976Y-80862342D01*
X171408143Y-80826261D01*
X171377316Y-80763560D01*
X171375500Y-80742416D01*
X171375500Y-80663843D01*
X171339934Y-80485047D01*
X171339933Y-80485046D01*
X171339933Y-80485042D01*
X171324812Y-80448536D01*
X171270168Y-80316612D01*
X171270166Y-80316608D01*
X171168886Y-80165032D01*
X171168880Y-80165024D01*
X171039975Y-80036119D01*
X171039967Y-80036113D01*
X170888391Y-79934833D01*
X170888387Y-79934831D01*
X170719962Y-79865068D01*
X170719952Y-79865065D01*
X170541156Y-79829500D01*
X170541154Y-79829500D01*
X170358846Y-79829500D01*
X170358844Y-79829500D01*
X170180047Y-79865065D01*
X170180037Y-79865068D01*
X170011612Y-79934831D01*
X170011608Y-79934833D01*
X169860032Y-80036113D01*
X169860024Y-80036119D01*
X169731119Y-80165024D01*
X169731113Y-80165032D01*
X169629833Y-80316608D01*
X169629831Y-80316612D01*
X169560068Y-80485037D01*
X169560065Y-80485047D01*
X169524500Y-80663843D01*
X169524500Y-80663846D01*
X169524500Y-80846154D01*
X169524500Y-80846156D01*
X169524499Y-80846156D01*
X154500500Y-80846156D01*
X154500500Y-78024500D01*
X154520185Y-77957461D01*
X154572989Y-77911706D01*
X154624500Y-77900500D01*
X248375500Y-77900500D01*
X248442539Y-77920185D01*
G37*
%TD.AperFunction*%
%TA.AperFunction,NonConductor*%
G36*
X221149222Y-82134210D02*
G01*
X221179410Y-82140901D01*
X221182453Y-82143967D01*
X221186598Y-82145185D01*
X221206840Y-82168546D01*
X221228622Y-82190498D01*
X221229524Y-82194724D01*
X221232353Y-82197989D01*
X221236752Y-82228588D01*
X221243208Y-82258829D01*
X221241930Y-82264595D01*
X221242297Y-82267147D01*
X221239896Y-82273768D01*
X221235571Y-82293287D01*
X221231360Y-82304443D01*
X221215186Y-82330666D01*
X221170031Y-82466932D01*
X221169143Y-82469287D01*
X221149558Y-82495236D01*
X221131064Y-82521949D01*
X221128637Y-82522957D01*
X221127054Y-82525056D01*
X221096560Y-82536294D01*
X221066549Y-82548772D01*
X221063961Y-82548308D01*
X221061494Y-82549218D01*
X221053131Y-82549500D01*
X216388393Y-82549500D01*
X216356286Y-82555886D01*
X216356285Y-82555885D01*
X216267554Y-82573535D01*
X216267541Y-82573539D01*
X216235262Y-82586909D01*
X216220397Y-82593067D01*
X216198169Y-82602274D01*
X216153713Y-82620688D01*
X216143557Y-82627475D01*
X216143449Y-82627547D01*
X216051268Y-82689140D01*
X216028703Y-82711706D01*
X215964142Y-82776267D01*
X215964139Y-82776270D01*
X215702467Y-83037941D01*
X215641144Y-83071426D01*
X215571452Y-83066442D01*
X215515519Y-83024570D01*
X215493169Y-82974451D01*
X215465896Y-82837341D01*
X215465893Y-82837332D01*
X215398016Y-82673459D01*
X215398009Y-82673446D01*
X215299464Y-82525965D01*
X215299461Y-82525961D01*
X215174038Y-82400538D01*
X215174034Y-82400535D01*
X215102298Y-82352602D01*
X215057493Y-82298989D01*
X215048786Y-82229664D01*
X215078941Y-82166637D01*
X215138384Y-82129918D01*
X215171189Y-82125500D01*
X221119559Y-82125500D01*
X221149222Y-82134210D01*
G37*
%TD.AperFunction*%
%TA.AperFunction,NonConductor*%
G36*
X227831587Y-81420185D02*
G01*
X227852229Y-81436819D01*
X229463181Y-83047771D01*
X229496666Y-83109094D01*
X229499500Y-83135452D01*
X229499500Y-83188695D01*
X229534103Y-83362658D01*
X229534105Y-83362662D01*
X229534106Y-83362666D01*
X229539437Y-83375536D01*
X229553145Y-83408631D01*
X229556768Y-83442346D01*
X229560973Y-83476000D01*
X229560493Y-83477000D01*
X229560612Y-83478101D01*
X229545451Y-83508386D01*
X229530776Y-83539007D01*
X229529654Y-83539943D01*
X229529336Y-83540579D01*
X229503679Y-83561621D01*
X229443344Y-83598835D01*
X229375951Y-83617275D01*
X229309288Y-83596352D01*
X229290567Y-83580977D01*
X227390198Y-81680608D01*
X227390178Y-81680586D01*
X227321773Y-81612181D01*
X227288288Y-81550858D01*
X227293272Y-81481166D01*
X227335144Y-81425233D01*
X227400608Y-81400816D01*
X227409454Y-81400500D01*
X227764548Y-81400500D01*
X227831587Y-81420185D01*
G37*
%TD.AperFunction*%
%TA.AperFunction,NonConductor*%
G36*
X224018834Y-82943269D02*
G01*
X224074767Y-82985141D01*
X224099184Y-83050605D01*
X224099500Y-83059451D01*
X224099500Y-83889546D01*
X224079815Y-83956585D01*
X224063181Y-83977227D01*
X223512180Y-84528228D01*
X223450857Y-84561713D01*
X223381165Y-84556729D01*
X223325232Y-84514857D01*
X223300815Y-84449393D01*
X223300499Y-84440547D01*
X223300499Y-83610452D01*
X223320184Y-83543413D01*
X223336818Y-83522771D01*
X223687923Y-83171666D01*
X223887820Y-82971769D01*
X223949142Y-82938285D01*
X224018834Y-82943269D01*
G37*
%TD.AperFunction*%
%TA.AperFunction,NonConductor*%
G36*
X213241388Y-83745185D02*
G01*
X213287143Y-83797989D01*
X213297087Y-83867147D01*
X213279887Y-83914598D01*
X213277688Y-83918161D01*
X213277686Y-83918166D01*
X213222501Y-84084703D01*
X213222501Y-84084704D01*
X213222500Y-84084704D01*
X213212000Y-84187483D01*
X213212000Y-85323148D01*
X213192315Y-85390187D01*
X213139511Y-85435942D01*
X213070353Y-85445886D01*
X213006797Y-85416861D01*
X213000319Y-85410829D01*
X211526671Y-83937181D01*
X211493186Y-83875858D01*
X211498170Y-83806166D01*
X211540042Y-83750233D01*
X211605506Y-83725816D01*
X211614352Y-83725500D01*
X213174349Y-83725500D01*
X213241388Y-83745185D01*
G37*
%TD.AperFunction*%
%TA.AperFunction,NonConductor*%
G36*
X231956334Y-84530769D02*
G01*
X232012267Y-84572641D01*
X232036684Y-84638105D01*
X232037000Y-84646951D01*
X232037000Y-85477047D01*
X232017315Y-85544086D01*
X232000681Y-85564728D01*
X231449680Y-86115729D01*
X231388357Y-86149214D01*
X231318665Y-86144230D01*
X231262732Y-86102358D01*
X231238315Y-86036894D01*
X231237999Y-86028048D01*
X231237999Y-85197952D01*
X231257684Y-85130913D01*
X231274318Y-85110271D01*
X231495898Y-84888691D01*
X231825320Y-84559269D01*
X231886642Y-84525785D01*
X231956334Y-84530769D01*
G37*
%TD.AperFunction*%
%TA.AperFunction,NonConductor*%
G36*
X216081334Y-84530769D02*
G01*
X216137267Y-84572641D01*
X216161684Y-84638105D01*
X216162000Y-84646951D01*
X216162000Y-85477047D01*
X216142315Y-85544086D01*
X216125681Y-85564728D01*
X215574680Y-86115729D01*
X215513357Y-86149214D01*
X215443665Y-86144230D01*
X215387732Y-86102358D01*
X215363315Y-86036894D01*
X215362999Y-86028048D01*
X215362999Y-85197952D01*
X215382684Y-85130913D01*
X215399318Y-85110271D01*
X215950319Y-84559270D01*
X216011642Y-84525785D01*
X216081334Y-84530769D01*
G37*
%TD.AperFunction*%
%TA.AperFunction,NonConductor*%
G36*
X221092540Y-83820185D02*
G01*
X221138295Y-83872989D01*
X221149501Y-83924500D01*
X221149501Y-84900018D01*
X221160000Y-85002796D01*
X221160001Y-85002799D01*
X221207649Y-85146590D01*
X221215186Y-85169334D01*
X221307288Y-85318656D01*
X221431344Y-85442712D01*
X221580666Y-85534814D01*
X221580670Y-85534815D01*
X221587209Y-85537864D01*
X221585944Y-85540576D01*
X221632269Y-85572650D01*
X221659093Y-85637166D01*
X221650383Y-85698035D01*
X221634106Y-85737332D01*
X221634104Y-85737336D01*
X221599500Y-85911304D01*
X221599500Y-85964547D01*
X221579815Y-86031586D01*
X221563181Y-86052228D01*
X219952229Y-87663181D01*
X219890906Y-87696666D01*
X219864548Y-87699500D01*
X216059451Y-87699500D01*
X215992412Y-87679815D01*
X215946657Y-87627011D01*
X215936713Y-87557853D01*
X215965738Y-87494297D01*
X215971770Y-87487819D01*
X216085555Y-87374034D01*
X216365568Y-87094020D01*
X216426890Y-87060537D01*
X216496582Y-87065521D01*
X216518344Y-87076164D01*
X216593159Y-87122310D01*
X216593160Y-87122310D01*
X216593166Y-87122314D01*
X216759703Y-87177499D01*
X216862491Y-87188000D01*
X217612508Y-87187999D01*
X217612516Y-87187998D01*
X217612519Y-87187998D01*
X217692076Y-87179871D01*
X217715297Y-87177499D01*
X217881834Y-87122314D01*
X218031156Y-87030212D01*
X218155212Y-86906156D01*
X218247314Y-86756834D01*
X218302499Y-86590297D01*
X218313000Y-86487509D01*
X218312999Y-84187492D01*
X218302499Y-84084703D01*
X218262336Y-83963502D01*
X218259935Y-83893676D01*
X218295666Y-83833634D01*
X218358187Y-83802441D01*
X218380043Y-83800500D01*
X221025501Y-83800500D01*
X221092540Y-83820185D01*
G37*
%TD.AperFunction*%
%TA.AperFunction,NonConductor*%
G36*
X226656587Y-82720185D02*
G01*
X226677229Y-82736819D01*
X229050681Y-85110271D01*
X229084166Y-85171594D01*
X229087000Y-85197952D01*
X229087000Y-86487501D01*
X229087001Y-86487518D01*
X229097500Y-86590296D01*
X229097501Y-86590299D01*
X229137600Y-86711309D01*
X229152686Y-86756834D01*
X229244788Y-86906156D01*
X229368844Y-87030212D01*
X229518166Y-87122314D01*
X229571835Y-87140098D01*
X229629280Y-87179871D01*
X229656103Y-87244387D01*
X229647393Y-87305253D01*
X229634107Y-87337328D01*
X229634103Y-87337341D01*
X229599500Y-87511304D01*
X229599500Y-87564548D01*
X229579815Y-87631587D01*
X229563181Y-87652229D01*
X229102229Y-88113181D01*
X229040906Y-88146666D01*
X229014548Y-88149500D01*
X221534452Y-88149500D01*
X221467413Y-88129815D01*
X221421658Y-88077011D01*
X221411714Y-88007853D01*
X221440739Y-87944297D01*
X221446771Y-87937819D01*
X221873282Y-87511309D01*
X222447772Y-86936819D01*
X222509095Y-86903334D01*
X222535453Y-86900500D01*
X222588693Y-86900500D01*
X222588694Y-86900499D01*
X222648058Y-86888691D01*
X222762658Y-86865896D01*
X222762661Y-86865894D01*
X222762666Y-86865894D01*
X222926547Y-86798013D01*
X223074035Y-86699464D01*
X223107606Y-86665893D01*
X223203773Y-86569727D01*
X223204280Y-86570234D01*
X223224006Y-86552515D01*
X223224092Y-86552436D01*
X223294561Y-86505350D01*
X223323733Y-86485858D01*
X223410858Y-86398733D01*
X223410858Y-86398731D01*
X223421066Y-86388524D01*
X223421067Y-86388521D01*
X224303069Y-85506520D01*
X224364390Y-85473037D01*
X224434082Y-85478021D01*
X224455844Y-85488664D01*
X224530659Y-85534810D01*
X224530660Y-85534810D01*
X224530666Y-85534814D01*
X224697203Y-85589999D01*
X224799991Y-85600500D01*
X225550008Y-85600499D01*
X225550016Y-85600498D01*
X225550019Y-85600498D01*
X225606302Y-85594748D01*
X225652797Y-85589999D01*
X225819334Y-85534814D01*
X225968656Y-85442712D01*
X226092712Y-85318656D01*
X226184814Y-85169334D01*
X226239999Y-85002797D01*
X226250500Y-84900009D01*
X226250499Y-82824499D01*
X226253049Y-82815814D01*
X226251761Y-82806853D01*
X226262739Y-82782812D01*
X226270184Y-82757461D01*
X226277024Y-82751533D01*
X226280786Y-82743297D01*
X226303018Y-82729009D01*
X226322987Y-82711706D01*
X226333502Y-82709418D01*
X226339564Y-82705523D01*
X226374499Y-82700500D01*
X226589548Y-82700500D01*
X226656587Y-82720185D01*
G37*
%TD.AperFunction*%
%TA.AperFunction,NonConductor*%
G36*
X238131587Y-91620185D02*
G01*
X238152229Y-91636819D01*
X239063181Y-92547771D01*
X239096666Y-92609094D01*
X239099500Y-92635452D01*
X239099500Y-92688695D01*
X239134103Y-92862658D01*
X239134105Y-92862663D01*
X239134106Y-92862666D01*
X239150410Y-92902028D01*
X239157879Y-92971496D01*
X239126604Y-93033975D01*
X239074856Y-93067184D01*
X239043167Y-93077685D01*
X238893842Y-93169789D01*
X238769789Y-93293842D01*
X238677687Y-93443163D01*
X238677686Y-93443166D01*
X238622501Y-93609703D01*
X238622501Y-93609704D01*
X238622500Y-93609704D01*
X238612000Y-93712483D01*
X238612000Y-94025500D01*
X238592315Y-94092539D01*
X238539511Y-94138294D01*
X238488000Y-94149500D01*
X229938390Y-94149500D01*
X229934665Y-94150241D01*
X229932676Y-94150062D01*
X229932331Y-94150097D01*
X229932324Y-94150031D01*
X229865074Y-94144009D01*
X229809900Y-94101142D01*
X229788865Y-94052813D01*
X229765896Y-93937342D01*
X229765893Y-93937332D01*
X229765755Y-93937000D01*
X229748923Y-93896363D01*
X229698016Y-93773459D01*
X229698009Y-93773446D01*
X229599464Y-93625965D01*
X229599461Y-93625961D01*
X229474038Y-93500538D01*
X229474034Y-93500535D01*
X229326553Y-93401990D01*
X229326540Y-93401983D01*
X229162667Y-93334106D01*
X229162658Y-93334103D01*
X228988694Y-93299500D01*
X228988691Y-93299500D01*
X228935453Y-93299500D01*
X228868414Y-93279815D01*
X228847772Y-93263181D01*
X228132362Y-92547771D01*
X227396770Y-91812180D01*
X227363286Y-91750858D01*
X227368270Y-91681166D01*
X227410142Y-91625233D01*
X227475606Y-91600816D01*
X227484452Y-91600500D01*
X238064548Y-91600500D01*
X238131587Y-91620185D01*
G37*
%TD.AperFunction*%
%TA.AperFunction,NonConductor*%
G36*
X225881587Y-92070185D02*
G01*
X225902229Y-92086819D01*
X227963181Y-94147771D01*
X227973746Y-94167119D01*
X227988211Y-94183759D01*
X227994549Y-94205217D01*
X227996666Y-94209094D01*
X227997222Y-94214267D01*
X227998209Y-94217608D01*
X227999500Y-94226485D01*
X227999500Y-94288691D01*
X228033137Y-94457797D01*
X228033604Y-94461005D01*
X228029123Y-94492529D01*
X228026285Y-94524250D01*
X228024240Y-94526881D01*
X228023772Y-94530179D01*
X228002965Y-94554268D01*
X227983422Y-94579427D01*
X227980278Y-94580535D01*
X227978102Y-94583056D01*
X227923497Y-94602207D01*
X227847202Y-94610001D01*
X227847200Y-94610001D01*
X227680668Y-94665185D01*
X227680659Y-94665189D01*
X227605845Y-94711335D01*
X227538452Y-94729775D01*
X227471789Y-94708852D01*
X227453068Y-94693477D01*
X227146356Y-94386766D01*
X227135859Y-94376269D01*
X227135858Y-94376267D01*
X227048733Y-94289142D01*
X226979002Y-94242549D01*
X226972895Y-94238468D01*
X226972889Y-94238463D01*
X226946290Y-94220690D01*
X226946286Y-94220688D01*
X226894997Y-94199444D01*
X226864003Y-94186606D01*
X226832452Y-94173537D01*
X226768708Y-94160858D01*
X226764242Y-94159969D01*
X226764229Y-94159966D01*
X226711611Y-94149500D01*
X226711607Y-94149500D01*
X226711606Y-94149500D01*
X217488394Y-94149500D01*
X217488389Y-94149500D01*
X217367555Y-94173535D01*
X217367545Y-94173538D01*
X217335997Y-94186606D01*
X217335996Y-94186606D01*
X217271323Y-94213394D01*
X217201854Y-94220863D01*
X217139375Y-94189587D01*
X217103723Y-94129498D01*
X217100711Y-94112369D01*
X217065896Y-93937341D01*
X217065893Y-93937332D01*
X217065755Y-93937000D01*
X217048923Y-93896363D01*
X216998016Y-93773459D01*
X216998009Y-93773446D01*
X216899464Y-93625965D01*
X216899461Y-93625961D01*
X216774038Y-93500538D01*
X216774034Y-93500535D01*
X216626553Y-93401990D01*
X216626540Y-93401983D01*
X216462667Y-93334106D01*
X216462658Y-93334103D01*
X216288694Y-93299500D01*
X216288691Y-93299500D01*
X216235453Y-93299500D01*
X216168414Y-93279815D01*
X216147772Y-93263181D01*
X215649761Y-92765170D01*
X215146770Y-92262180D01*
X215113286Y-92200858D01*
X215118270Y-92131166D01*
X215160142Y-92075233D01*
X215225606Y-92050816D01*
X215234452Y-92050500D01*
X225814548Y-92050500D01*
X225881587Y-92070185D01*
G37*
%TD.AperFunction*%
%TA.AperFunction,NonConductor*%
G36*
X213631587Y-92520185D02*
G01*
X213652229Y-92536819D01*
X215263181Y-94147771D01*
X215296666Y-94209094D01*
X215299500Y-94235452D01*
X215299500Y-94288695D01*
X215334103Y-94462658D01*
X215334106Y-94462667D01*
X215344349Y-94487396D01*
X215351816Y-94556866D01*
X215320540Y-94619344D01*
X215286149Y-94645297D01*
X215277744Y-94649585D01*
X215230666Y-94665186D01*
X215151583Y-94713964D01*
X215147110Y-94716247D01*
X215117511Y-94721823D01*
X215088451Y-94729775D01*
X215083521Y-94728227D01*
X215078448Y-94729184D01*
X215050537Y-94717875D01*
X215021787Y-94708852D01*
X215015478Y-94703670D01*
X215013692Y-94702947D01*
X215012443Y-94701177D01*
X215003067Y-94693477D01*
X213102698Y-92793108D01*
X213102678Y-92793086D01*
X213021773Y-92712181D01*
X212988288Y-92650858D01*
X212993272Y-92581166D01*
X213035144Y-92525233D01*
X213100608Y-92500816D01*
X213109454Y-92500500D01*
X213564548Y-92500500D01*
X213631587Y-92520185D01*
G37*
%TD.AperFunction*%
%TA.AperFunction,NonConductor*%
G36*
X177746007Y-93845185D02*
G01*
X177791762Y-93897989D01*
X177802968Y-93949500D01*
X177802968Y-94013695D01*
X177837571Y-94187658D01*
X177837574Y-94187667D01*
X177905451Y-94351540D01*
X177905458Y-94351553D01*
X178004003Y-94499034D01*
X178004006Y-94499038D01*
X178129429Y-94624461D01*
X178129433Y-94624464D01*
X178276914Y-94723009D01*
X178276927Y-94723016D01*
X178399831Y-94773923D01*
X178440802Y-94790894D01*
X178505574Y-94803778D01*
X178520761Y-94806799D01*
X178582672Y-94839183D01*
X178617246Y-94899899D01*
X178618187Y-94904223D01*
X178619865Y-94912661D01*
X178619867Y-94912668D01*
X178687744Y-95076540D01*
X178687751Y-95076552D01*
X178774653Y-95206609D01*
X178795531Y-95273286D01*
X178777047Y-95340666D01*
X178725068Y-95387357D01*
X178671551Y-95399500D01*
X173835446Y-95399500D01*
X173768407Y-95379815D01*
X173747765Y-95363181D01*
X172636819Y-94252235D01*
X172626054Y-94232522D01*
X172611434Y-94215467D01*
X172607992Y-94199444D01*
X172603334Y-94190912D01*
X172601670Y-94181550D01*
X172600500Y-94173094D01*
X172600500Y-94111315D01*
X172572411Y-93970104D01*
X172571912Y-93966496D01*
X172576551Y-93935401D01*
X172579352Y-93904100D01*
X172581665Y-93901121D01*
X172582222Y-93897392D01*
X172602933Y-93873744D01*
X172622215Y-93848923D01*
X172625770Y-93847668D01*
X172628256Y-93844831D01*
X172658465Y-93836134D01*
X172688105Y-93825678D01*
X172694742Y-93825500D01*
X177678968Y-93825500D01*
X177746007Y-93845185D01*
G37*
%TD.AperFunction*%
%TA.AperFunction,NonConductor*%
G36*
X198872399Y-94770185D02*
G01*
X198893041Y-94786819D01*
X199320742Y-95214520D01*
X199336966Y-95244233D01*
X199353737Y-95273683D01*
X199353675Y-95274832D01*
X199354227Y-95275843D01*
X199351810Y-95309639D01*
X199349998Y-95343452D01*
X199349325Y-95344385D01*
X199349243Y-95345535D01*
X199328940Y-95372655D01*
X199309133Y-95400125D01*
X199308060Y-95400546D01*
X199307371Y-95401468D01*
X199275641Y-95413302D01*
X199244115Y-95425707D01*
X199242601Y-95425625D01*
X199241907Y-95425885D01*
X199208872Y-95423819D01*
X199182145Y-95418503D01*
X199147029Y-95411518D01*
X199086610Y-95399500D01*
X199086607Y-95399500D01*
X199086606Y-95399500D01*
X190273146Y-95399500D01*
X190206107Y-95379815D01*
X190160352Y-95327011D01*
X190150408Y-95257853D01*
X190179433Y-95194297D01*
X190188613Y-95184780D01*
X190195937Y-95177955D01*
X190221525Y-95160858D01*
X190308650Y-95073733D01*
X190308651Y-95073730D01*
X190595565Y-94786818D01*
X190656889Y-94753334D01*
X190683246Y-94750500D01*
X198805360Y-94750500D01*
X198872399Y-94770185D01*
G37*
%TD.AperFunction*%
%TA.AperFunction,NonConductor*%
G36*
X206556334Y-94055769D02*
G01*
X206612267Y-94097641D01*
X206636684Y-94163105D01*
X206637000Y-94171951D01*
X206637000Y-95002047D01*
X206617315Y-95069086D01*
X206600681Y-95089728D01*
X206049680Y-95640729D01*
X205988357Y-95674214D01*
X205918665Y-95669230D01*
X205862732Y-95627358D01*
X205838315Y-95561894D01*
X205837999Y-95553048D01*
X205837999Y-94722952D01*
X205857684Y-94655913D01*
X205874318Y-94635271D01*
X206220898Y-94288691D01*
X206425320Y-94084269D01*
X206486642Y-94050785D01*
X206556334Y-94055769D01*
G37*
%TD.AperFunction*%
%TA.AperFunction,NonConductor*%
G36*
X203956471Y-92970185D02*
G01*
X204002226Y-93022989D01*
X204012170Y-93092147D01*
X203983145Y-93155703D01*
X203973854Y-93164584D01*
X203973951Y-93164681D01*
X203844789Y-93293842D01*
X203752687Y-93443163D01*
X203752686Y-93443166D01*
X203697501Y-93609703D01*
X203697501Y-93609704D01*
X203697500Y-93609704D01*
X203687000Y-93712483D01*
X203687000Y-95603048D01*
X203667315Y-95670087D01*
X203614511Y-95715842D01*
X203545353Y-95725786D01*
X203481797Y-95696761D01*
X203475319Y-95690729D01*
X200946771Y-93162181D01*
X200913286Y-93100858D01*
X200918270Y-93031166D01*
X200960142Y-92975233D01*
X201025606Y-92950816D01*
X201034452Y-92950500D01*
X203889432Y-92950500D01*
X203956471Y-92970185D01*
G37*
%TD.AperFunction*%
%TA.AperFunction,NonConductor*%
G36*
X230118834Y-95643269D02*
G01*
X230174767Y-95685141D01*
X230199184Y-95750605D01*
X230199500Y-95759451D01*
X230199500Y-96589546D01*
X230179815Y-96656585D01*
X230163181Y-96677227D01*
X229612180Y-97228228D01*
X229550857Y-97261713D01*
X229481165Y-97256729D01*
X229425232Y-97214857D01*
X229400815Y-97149393D01*
X229400499Y-97140547D01*
X229400499Y-96310452D01*
X229420184Y-96243413D01*
X229436818Y-96222771D01*
X229770393Y-95889196D01*
X229987820Y-95671769D01*
X230049142Y-95638285D01*
X230118834Y-95643269D01*
G37*
%TD.AperFunction*%
%TA.AperFunction,NonConductor*%
G36*
X217668834Y-95643269D02*
G01*
X217724767Y-95685141D01*
X217749184Y-95750605D01*
X217749500Y-95759451D01*
X217749500Y-96589546D01*
X217729815Y-96656585D01*
X217713181Y-96677227D01*
X217162180Y-97228228D01*
X217100857Y-97261713D01*
X217031165Y-97256729D01*
X216975232Y-97214857D01*
X216950815Y-97149393D01*
X216950499Y-97140547D01*
X216950499Y-96310452D01*
X216970184Y-96243413D01*
X216986818Y-96222771D01*
X217320393Y-95889196D01*
X217537820Y-95671769D01*
X217599142Y-95638285D01*
X217668834Y-95643269D01*
G37*
%TD.AperFunction*%
%TA.AperFunction,NonConductor*%
G36*
X212369087Y-93832685D02*
G01*
X212389729Y-93849319D01*
X214763181Y-96222771D01*
X214796666Y-96284094D01*
X214799500Y-96310452D01*
X214799500Y-97600001D01*
X214799501Y-97600018D01*
X214810000Y-97702796D01*
X214810001Y-97702799D01*
X214857917Y-97847398D01*
X214865186Y-97869334D01*
X214875098Y-97885404D01*
X214893538Y-97952795D01*
X214872616Y-98019459D01*
X214818974Y-98064229D01*
X214769559Y-98074500D01*
X205671189Y-98074500D01*
X205604150Y-98054815D01*
X205558395Y-98002011D01*
X205548451Y-97932853D01*
X205577476Y-97869297D01*
X205602298Y-97847398D01*
X205646613Y-97817786D01*
X205674035Y-97799464D01*
X205799464Y-97674035D01*
X205832298Y-97624893D01*
X205849896Y-97603980D01*
X205857630Y-97596616D01*
X205873733Y-97585858D01*
X205960858Y-97498733D01*
X205960860Y-97498729D01*
X206840569Y-96619020D01*
X206901890Y-96585537D01*
X206971582Y-96590521D01*
X206993344Y-96601164D01*
X207068159Y-96647310D01*
X207068160Y-96647310D01*
X207068166Y-96647314D01*
X207234703Y-96702499D01*
X207337491Y-96713000D01*
X208087508Y-96712999D01*
X208087516Y-96712998D01*
X208087519Y-96712998D01*
X208143802Y-96707248D01*
X208190297Y-96702499D01*
X208356834Y-96647314D01*
X208506156Y-96555212D01*
X208630212Y-96431156D01*
X208722314Y-96281834D01*
X208777499Y-96115297D01*
X208788000Y-96012509D01*
X208787999Y-93936999D01*
X208807684Y-93869961D01*
X208860487Y-93824206D01*
X208911999Y-93813000D01*
X212302048Y-93813000D01*
X212369087Y-93832685D01*
G37*
%TD.AperFunction*%
%TA.AperFunction,NonConductor*%
G36*
X226406587Y-95420185D02*
G01*
X226427228Y-95436818D01*
X227213182Y-96222773D01*
X227246666Y-96284094D01*
X227249500Y-96310452D01*
X227249500Y-97600001D01*
X227249501Y-97600018D01*
X227260000Y-97702796D01*
X227260001Y-97702799D01*
X227315185Y-97869331D01*
X227315187Y-97869336D01*
X227328365Y-97890701D01*
X227407288Y-98018656D01*
X227531344Y-98142712D01*
X227680666Y-98234814D01*
X227847203Y-98289999D01*
X227923498Y-98297793D01*
X227934325Y-98302211D01*
X227946021Y-98302230D01*
X227966084Y-98315169D01*
X227988189Y-98324189D01*
X227994909Y-98333760D01*
X228004738Y-98340099D01*
X228014620Y-98361830D01*
X228028340Y-98381369D01*
X228029555Y-98394672D01*
X228033661Y-98403701D01*
X228032899Y-98431286D01*
X228033604Y-98438995D01*
X228033137Y-98442202D01*
X227999500Y-98611309D01*
X227999500Y-98673514D01*
X227998209Y-98682392D01*
X227987233Y-98706324D01*
X227979815Y-98731587D01*
X227970140Y-98743592D01*
X227969082Y-98745901D01*
X227967425Y-98746961D01*
X227963181Y-98752229D01*
X227952229Y-98763181D01*
X227890906Y-98796666D01*
X227864548Y-98799500D01*
X217659452Y-98799500D01*
X217592413Y-98779815D01*
X217546658Y-98727011D01*
X217536714Y-98657853D01*
X217565739Y-98594297D01*
X217571771Y-98587819D01*
X217755889Y-98403701D01*
X217953069Y-98206520D01*
X218014390Y-98173037D01*
X218084081Y-98178021D01*
X218105844Y-98188664D01*
X218180659Y-98234810D01*
X218180660Y-98234810D01*
X218180666Y-98234814D01*
X218347203Y-98289999D01*
X218449991Y-98300500D01*
X219200008Y-98300499D01*
X219200016Y-98300498D01*
X219200019Y-98300498D01*
X219256302Y-98294748D01*
X219302797Y-98289999D01*
X219469334Y-98234814D01*
X219618656Y-98142712D01*
X219742712Y-98018656D01*
X219834814Y-97869334D01*
X219889999Y-97702797D01*
X219900500Y-97600009D01*
X219900499Y-95524499D01*
X219920184Y-95457461D01*
X219972987Y-95411706D01*
X220024499Y-95400500D01*
X226339548Y-95400500D01*
X226406587Y-95420185D01*
G37*
%TD.AperFunction*%
%TA.AperFunction,NonConductor*%
G36*
X238555040Y-95420185D02*
G01*
X238600795Y-95472989D01*
X238612001Y-95524500D01*
X238612001Y-96012518D01*
X238622500Y-96115296D01*
X238622501Y-96115299D01*
X238670149Y-96259090D01*
X238677686Y-96281834D01*
X238769788Y-96431156D01*
X238893844Y-96555212D01*
X239043166Y-96647314D01*
X239065746Y-96654796D01*
X239123192Y-96694568D01*
X239150015Y-96759084D01*
X239141306Y-96819950D01*
X239134106Y-96837333D01*
X239134103Y-96837341D01*
X239099500Y-97011304D01*
X239099500Y-97064547D01*
X239079815Y-97131586D01*
X239063181Y-97152228D01*
X237002229Y-99213181D01*
X236940906Y-99246666D01*
X236914548Y-99249500D01*
X229832663Y-99249500D01*
X229765624Y-99229815D01*
X229719869Y-99177011D01*
X229709925Y-99107853D01*
X229718102Y-99078048D01*
X229742697Y-99018669D01*
X229765894Y-98962666D01*
X229788096Y-98851043D01*
X229820480Y-98789135D01*
X229821973Y-98787615D01*
X230403068Y-98206520D01*
X230464390Y-98173037D01*
X230534082Y-98178021D01*
X230555844Y-98188664D01*
X230630659Y-98234810D01*
X230630660Y-98234810D01*
X230630666Y-98234814D01*
X230797203Y-98289999D01*
X230899991Y-98300500D01*
X231650008Y-98300499D01*
X231650016Y-98300498D01*
X231650019Y-98300498D01*
X231706302Y-98294748D01*
X231752797Y-98289999D01*
X231919334Y-98234814D01*
X232068656Y-98142712D01*
X232192712Y-98018656D01*
X232284814Y-97869334D01*
X232339999Y-97702797D01*
X232350500Y-97600009D01*
X232350499Y-95524499D01*
X232370184Y-95457461D01*
X232422987Y-95411706D01*
X232474499Y-95400500D01*
X238488001Y-95400500D01*
X238555040Y-95420185D01*
G37*
%TD.AperFunction*%
%TA.AperFunction,NonConductor*%
G36*
X243918202Y-94103238D02*
G01*
X243924680Y-94109270D01*
X244463181Y-94647771D01*
X244496666Y-94709094D01*
X244499500Y-94735452D01*
X244499500Y-99775500D01*
X244479815Y-99842539D01*
X244427011Y-99888294D01*
X244375500Y-99899500D01*
X243654057Y-99899500D01*
X243495942Y-99899500D01*
X243343215Y-99940423D01*
X243316433Y-99955886D01*
X243291121Y-99970500D01*
X243206285Y-100019479D01*
X243206282Y-100019481D01*
X242712181Y-100513583D01*
X242650858Y-100547068D01*
X242581166Y-100542084D01*
X242525233Y-100500212D01*
X242500816Y-100434748D01*
X242500500Y-100425902D01*
X242500500Y-100411306D01*
X242500499Y-100411304D01*
X242465896Y-100237341D01*
X242465893Y-100237332D01*
X242398016Y-100073459D01*
X242398009Y-100073446D01*
X242299464Y-99925965D01*
X242299461Y-99925961D01*
X242174038Y-99800538D01*
X242174034Y-99800535D01*
X242026553Y-99701990D01*
X242026540Y-99701983D01*
X241862667Y-99634106D01*
X241862658Y-99634103D01*
X241688694Y-99599500D01*
X241688691Y-99599500D01*
X241511309Y-99599500D01*
X241511306Y-99599500D01*
X241337341Y-99634103D01*
X241337332Y-99634106D01*
X241202245Y-99690061D01*
X241154793Y-99699500D01*
X238584452Y-99699500D01*
X238517413Y-99679815D01*
X238471658Y-99627011D01*
X238461714Y-99557853D01*
X238490739Y-99494297D01*
X238496771Y-99487819D01*
X239149575Y-98835016D01*
X239947772Y-98036819D01*
X240009095Y-98003334D01*
X240035453Y-98000500D01*
X240088693Y-98000500D01*
X240088694Y-98000499D01*
X240146682Y-97988964D01*
X240262658Y-97965896D01*
X240262661Y-97965894D01*
X240262666Y-97965894D01*
X240426547Y-97898013D01*
X240574035Y-97799464D01*
X240699464Y-97674035D01*
X240712137Y-97655067D01*
X240733606Y-97630622D01*
X240739652Y-97625334D01*
X240753781Y-97615894D01*
X240798733Y-97585858D01*
X240885858Y-97498733D01*
X240885860Y-97498729D01*
X241765569Y-96619020D01*
X241826890Y-96585537D01*
X241896582Y-96590521D01*
X241918344Y-96601164D01*
X241993159Y-96647310D01*
X241993160Y-96647310D01*
X241993166Y-96647314D01*
X242159703Y-96702499D01*
X242262491Y-96713000D01*
X243012508Y-96712999D01*
X243012516Y-96712998D01*
X243012519Y-96712998D01*
X243068802Y-96707248D01*
X243115297Y-96702499D01*
X243281834Y-96647314D01*
X243431156Y-96555212D01*
X243555212Y-96431156D01*
X243647314Y-96281834D01*
X243702499Y-96115297D01*
X243713000Y-96012509D01*
X243712999Y-94196950D01*
X243732684Y-94129912D01*
X243785487Y-94084157D01*
X243854646Y-94074213D01*
X243918202Y-94103238D01*
G37*
%TD.AperFunction*%
%TA.AperFunction,NonConductor*%
G36*
X198781587Y-96670185D02*
G01*
X198802229Y-96686819D01*
X202563181Y-100447771D01*
X202596666Y-100509094D01*
X202599500Y-100535452D01*
X202599500Y-100588695D01*
X202634103Y-100762658D01*
X202634105Y-100762662D01*
X202634106Y-100762666D01*
X202659014Y-100822801D01*
X202662560Y-100831361D01*
X202670027Y-100900830D01*
X202638752Y-100963309D01*
X202603904Y-100989494D01*
X202595711Y-100993631D01*
X202530666Y-101015186D01*
X202429498Y-101077586D01*
X202424787Y-101079966D01*
X202395403Y-101085377D01*
X202366584Y-101093263D01*
X202361407Y-101091638D01*
X202356072Y-101092621D01*
X202328425Y-101081286D01*
X202299921Y-101072340D01*
X202293259Y-101066869D01*
X202291425Y-101066117D01*
X202290183Y-101064343D01*
X202281200Y-101056965D01*
X199605698Y-98381463D01*
X199605696Y-98381460D01*
X199486825Y-98262589D01*
X199486824Y-98262588D01*
X199400012Y-98212468D01*
X199400012Y-98212467D01*
X199400008Y-98212466D01*
X199349893Y-98183531D01*
X199197165Y-98142607D01*
X199039051Y-98142607D01*
X199031455Y-98142607D01*
X199031439Y-98142608D01*
X198336658Y-98142608D01*
X198269619Y-98122923D01*
X198267767Y-98121710D01*
X198136077Y-98033717D01*
X198136064Y-98033710D01*
X197990393Y-97973372D01*
X197990381Y-97973369D01*
X197835737Y-97942608D01*
X197835734Y-97942608D01*
X197678050Y-97942608D01*
X197678047Y-97942608D01*
X197523402Y-97973369D01*
X197523390Y-97973372D01*
X197377719Y-98033710D01*
X197377701Y-98033720D01*
X197264799Y-98109159D01*
X197198122Y-98130037D01*
X197130742Y-98111552D01*
X197108228Y-98093738D01*
X195876671Y-96862181D01*
X195843186Y-96800858D01*
X195848170Y-96731166D01*
X195890042Y-96675233D01*
X195955506Y-96650816D01*
X195964352Y-96650500D01*
X198714548Y-96650500D01*
X198781587Y-96670185D01*
G37*
%TD.AperFunction*%
%TA.AperFunction,NonConductor*%
G36*
X198885050Y-99363293D02*
G01*
X198905691Y-99379926D01*
X202063182Y-102537418D01*
X202077884Y-102564343D01*
X202094477Y-102590162D01*
X202095368Y-102596362D01*
X202096666Y-102598739D01*
X202099500Y-102625097D01*
X202099500Y-102785648D01*
X202079815Y-102852687D01*
X202027011Y-102898442D01*
X201957853Y-102908386D01*
X201894297Y-102879361D01*
X201887819Y-102873329D01*
X198569779Y-99555289D01*
X198536294Y-99493966D01*
X198541278Y-99424274D01*
X198583150Y-99368341D01*
X198648614Y-99343924D01*
X198657460Y-99343608D01*
X198818011Y-99343608D01*
X198885050Y-99363293D01*
G37*
%TD.AperFunction*%
%TA.AperFunction,NonConductor*%
G36*
X243068834Y-101957914D02*
G01*
X243124767Y-101999786D01*
X243149184Y-102065250D01*
X243149500Y-102074096D01*
X243149500Y-102939547D01*
X243129815Y-103006586D01*
X243113181Y-103027228D01*
X242562180Y-103578229D01*
X242500857Y-103611714D01*
X242431165Y-103606730D01*
X242375232Y-103564858D01*
X242350815Y-103499394D01*
X242350499Y-103490548D01*
X242350499Y-102625097D01*
X242370184Y-102558058D01*
X242386818Y-102537416D01*
X242937819Y-101986415D01*
X242999142Y-101952930D01*
X243068834Y-101957914D01*
G37*
%TD.AperFunction*%
%TA.AperFunction,NonConductor*%
G36*
X204526623Y-100225245D02*
G01*
X204529199Y-100225498D01*
X204529205Y-100225500D01*
X204529206Y-100225500D01*
X211915547Y-100225500D01*
X211982586Y-100245185D01*
X212028341Y-100297989D01*
X212038285Y-100367147D01*
X212009260Y-100430703D01*
X212003228Y-100437181D01*
X207277229Y-105163181D01*
X207215906Y-105196666D01*
X207189548Y-105199500D01*
X204909452Y-105199500D01*
X204842413Y-105179815D01*
X204796658Y-105127011D01*
X204786714Y-105057853D01*
X204815739Y-104994297D01*
X204821771Y-104987819D01*
X205035091Y-104774499D01*
X205253069Y-104556520D01*
X205314390Y-104523037D01*
X205384081Y-104528021D01*
X205405844Y-104538664D01*
X205480659Y-104584810D01*
X205480660Y-104584810D01*
X205480666Y-104584814D01*
X205647203Y-104639999D01*
X205749991Y-104650500D01*
X206500008Y-104650499D01*
X206500016Y-104650498D01*
X206500019Y-104650498D01*
X206556302Y-104644748D01*
X206602797Y-104639999D01*
X206769334Y-104584814D01*
X206918656Y-104492712D01*
X207042712Y-104368656D01*
X207134814Y-104219334D01*
X207189999Y-104052797D01*
X207200500Y-103950009D01*
X207200499Y-101649992D01*
X207193867Y-101585073D01*
X207189999Y-101547203D01*
X207189998Y-101547200D01*
X207134814Y-101380666D01*
X207042712Y-101231344D01*
X206918656Y-101107288D01*
X206769334Y-101015186D01*
X206602797Y-100960001D01*
X206602795Y-100960000D01*
X206500010Y-100949500D01*
X205749998Y-100949500D01*
X205749980Y-100949501D01*
X205647203Y-100960000D01*
X205647200Y-100960001D01*
X205480668Y-101015185D01*
X205480663Y-101015187D01*
X205331342Y-101107289D01*
X205207289Y-101231342D01*
X205115187Y-101380663D01*
X205115186Y-101380666D01*
X205060001Y-101547203D01*
X205060001Y-101547204D01*
X205060000Y-101547204D01*
X205049500Y-101649983D01*
X205049500Y-102939547D01*
X205029815Y-103006586D01*
X205013181Y-103027228D01*
X204462180Y-103578229D01*
X204400857Y-103611714D01*
X204331165Y-103606730D01*
X204275232Y-103564858D01*
X204250815Y-103499394D01*
X204250499Y-103490548D01*
X204250499Y-101649998D01*
X204250498Y-101649981D01*
X204239999Y-101547203D01*
X204239998Y-101547200D01*
X204184814Y-101380666D01*
X204163438Y-101346009D01*
X204124896Y-101283522D01*
X204106456Y-101216130D01*
X204127379Y-101149466D01*
X204142749Y-101130749D01*
X204199464Y-101074035D01*
X204298013Y-100926547D01*
X204365894Y-100762666D01*
X204366589Y-100759176D01*
X204400499Y-100588695D01*
X204400500Y-100588693D01*
X204400500Y-100411307D01*
X204392848Y-100372841D01*
X204399075Y-100303249D01*
X204441937Y-100248071D01*
X204507827Y-100224826D01*
X204526623Y-100225245D01*
G37*
%TD.AperFunction*%
%TA.AperFunction,NonConductor*%
G36*
X240360015Y-100956738D02*
G01*
X240382104Y-100958318D01*
X240392887Y-100966390D01*
X240405809Y-100970185D01*
X240420308Y-100986918D01*
X240438037Y-101000190D01*
X240442744Y-101012810D01*
X240451564Y-101022989D01*
X240454715Y-101044906D01*
X240462454Y-101065654D01*
X240459591Y-101078814D01*
X240461508Y-101092147D01*
X240452308Y-101112290D01*
X240447602Y-101133927D01*
X240434333Y-101151652D01*
X240432483Y-101155703D01*
X240426451Y-101162181D01*
X240357289Y-101231342D01*
X240265187Y-101380663D01*
X240265186Y-101380666D01*
X240210001Y-101547203D01*
X240210001Y-101547204D01*
X240210000Y-101547204D01*
X240199500Y-101649983D01*
X240199500Y-103950001D01*
X240199501Y-103950018D01*
X240210000Y-104052796D01*
X240210001Y-104052799D01*
X240262589Y-104211496D01*
X240264991Y-104281324D01*
X240229259Y-104341366D01*
X240166739Y-104372559D01*
X240144883Y-104374500D01*
X215429201Y-104374500D01*
X215368783Y-104386518D01*
X215325555Y-104395116D01*
X215308358Y-104398537D01*
X215194528Y-104445687D01*
X215115434Y-104498537D01*
X215115433Y-104498538D01*
X215092075Y-104514144D01*
X215092074Y-104514145D01*
X213843041Y-105763181D01*
X213781718Y-105796666D01*
X213755360Y-105799500D01*
X208709452Y-105799500D01*
X208642413Y-105779815D01*
X208596658Y-105727011D01*
X208586714Y-105657853D01*
X208615739Y-105594297D01*
X208621771Y-105587819D01*
X213222772Y-100986819D01*
X213284095Y-100953334D01*
X213310453Y-100950500D01*
X240338770Y-100950500D01*
X240360015Y-100956738D01*
G37*
%TD.AperFunction*%
%TA.AperFunction,NonConductor*%
G36*
X227931587Y-106820185D02*
G01*
X227952229Y-106836819D01*
X227963181Y-106847771D01*
X227996666Y-106909094D01*
X227999500Y-106935452D01*
X227999500Y-106988695D01*
X228034103Y-107162658D01*
X228034106Y-107162667D01*
X228044349Y-107187396D01*
X228051816Y-107256866D01*
X228020540Y-107319344D01*
X227986149Y-107345297D01*
X227977744Y-107349585D01*
X227930666Y-107365186D01*
X227851578Y-107413967D01*
X227847111Y-107416247D01*
X227817502Y-107421826D01*
X227788452Y-107429775D01*
X227783525Y-107428228D01*
X227778450Y-107429185D01*
X227750527Y-107417872D01*
X227721789Y-107408852D01*
X227715483Y-107403673D01*
X227713693Y-107402948D01*
X227712441Y-107401175D01*
X227703068Y-107393477D01*
X227392928Y-107083338D01*
X227392925Y-107083334D01*
X227392925Y-107083335D01*
X227385858Y-107076268D01*
X227385858Y-107076267D01*
X227321772Y-107012181D01*
X227288288Y-106950857D01*
X227293273Y-106881166D01*
X227335144Y-106825232D01*
X227400609Y-106800816D01*
X227409454Y-106800500D01*
X227864548Y-106800500D01*
X227931587Y-106820185D01*
G37*
%TD.AperFunction*%
%TA.AperFunction,NonConductor*%
G36*
X243443893Y-104525146D02*
G01*
X243473474Y-104524599D01*
X243480811Y-104527787D01*
X243484082Y-104528021D01*
X243505844Y-104538664D01*
X243580659Y-104584810D01*
X243580660Y-104584810D01*
X243580666Y-104584814D01*
X243747203Y-104639999D01*
X243849991Y-104650500D01*
X244375500Y-104650499D01*
X244384186Y-104653049D01*
X244393147Y-104651761D01*
X244417183Y-104662738D01*
X244442539Y-104670183D01*
X244448467Y-104677025D01*
X244456703Y-104680786D01*
X244470989Y-104703017D01*
X244488294Y-104722987D01*
X244490581Y-104733502D01*
X244494477Y-104739564D01*
X244499500Y-104774499D01*
X244499500Y-104989547D01*
X244479815Y-105056586D01*
X244463181Y-105077228D01*
X241102467Y-108437941D01*
X241041144Y-108471426D01*
X240971452Y-108466442D01*
X240915519Y-108424570D01*
X240893169Y-108374451D01*
X240865896Y-108237341D01*
X240865893Y-108237332D01*
X240863600Y-108231797D01*
X240813858Y-108111706D01*
X240798016Y-108073459D01*
X240798009Y-108073446D01*
X240699464Y-107925965D01*
X240699461Y-107925961D01*
X240574038Y-107800538D01*
X240574034Y-107800535D01*
X240426553Y-107701990D01*
X240426540Y-107701983D01*
X240262667Y-107634106D01*
X240262658Y-107634103D01*
X240088694Y-107599500D01*
X240088691Y-107599500D01*
X240035452Y-107599500D01*
X239968413Y-107579815D01*
X239947771Y-107563181D01*
X238221771Y-105837181D01*
X238188286Y-105775858D01*
X238193270Y-105706166D01*
X238235142Y-105650233D01*
X238300606Y-105625816D01*
X238309452Y-105625500D01*
X240900639Y-105625500D01*
X240967678Y-105645185D01*
X240988321Y-105661820D01*
X241025961Y-105699461D01*
X241025965Y-105699464D01*
X241173446Y-105798009D01*
X241173459Y-105798016D01*
X241265445Y-105836117D01*
X241337334Y-105865894D01*
X241337336Y-105865894D01*
X241337341Y-105865896D01*
X241511304Y-105900499D01*
X241511307Y-105900500D01*
X241511309Y-105900500D01*
X241688693Y-105900500D01*
X241688694Y-105900499D01*
X241746682Y-105888964D01*
X241862658Y-105865896D01*
X241862661Y-105865894D01*
X241862666Y-105865894D01*
X242026547Y-105798013D01*
X242174035Y-105699464D01*
X242228314Y-105645185D01*
X242303773Y-105569727D01*
X242304281Y-105570235D01*
X242323895Y-105552616D01*
X242324096Y-105552433D01*
X242376306Y-105517548D01*
X242423733Y-105485858D01*
X242510858Y-105398733D01*
X242510859Y-105398731D01*
X242517925Y-105391665D01*
X242517927Y-105391661D01*
X243353069Y-104556520D01*
X243379024Y-104542348D01*
X243403616Y-104525893D01*
X243409354Y-104525786D01*
X243414390Y-104523037D01*
X243443893Y-104525146D01*
G37*
%TD.AperFunction*%
%TA.AperFunction,NonConductor*%
G36*
X236956587Y-106345185D02*
G01*
X236977229Y-106361819D01*
X239063181Y-108447771D01*
X239096666Y-108509094D01*
X239099500Y-108535452D01*
X239099500Y-108588695D01*
X239134104Y-108762658D01*
X239134106Y-108762665D01*
X239141305Y-108780046D01*
X239148772Y-108849515D01*
X239117497Y-108911994D01*
X239085051Y-108936933D01*
X239075750Y-108941888D01*
X239043166Y-108952686D01*
X238965022Y-109000885D01*
X238961556Y-109002732D01*
X238931026Y-109009046D01*
X238900951Y-109017275D01*
X238897093Y-109016064D01*
X238893134Y-109016883D01*
X238864039Y-109005690D01*
X238834287Y-108996352D01*
X238829458Y-108992386D01*
X238827924Y-108991796D01*
X238826691Y-108990113D01*
X238815567Y-108980977D01*
X236915198Y-107080608D01*
X236915178Y-107080586D01*
X236823736Y-106989144D01*
X236823728Y-106989138D01*
X236776750Y-106957748D01*
X236776744Y-106957744D01*
X236770864Y-106953816D01*
X236721286Y-106920688D01*
X236640792Y-106887347D01*
X236636075Y-106885393D01*
X236636069Y-106885390D01*
X236607453Y-106873537D01*
X236597427Y-106871543D01*
X236547029Y-106861518D01*
X236486610Y-106849500D01*
X236486607Y-106849500D01*
X236486606Y-106849500D01*
X230188394Y-106849500D01*
X230188389Y-106849500D01*
X230067553Y-106873535D01*
X230067541Y-106873539D01*
X230042070Y-106884090D01*
X230020397Y-106893067D01*
X230000137Y-106901458D01*
X229971322Y-106913394D01*
X229901852Y-106920861D01*
X229839373Y-106889585D01*
X229803722Y-106829496D01*
X229800709Y-106812360D01*
X229765896Y-106637341D01*
X229765893Y-106637332D01*
X229707747Y-106496952D01*
X229700278Y-106427482D01*
X229731554Y-106365003D01*
X229791643Y-106329352D01*
X229822308Y-106325500D01*
X236889548Y-106325500D01*
X236956587Y-106345185D01*
G37*
%TD.AperFunction*%
%TA.AperFunction,NonConductor*%
G36*
X230368834Y-108343269D02*
G01*
X230424767Y-108385141D01*
X230449184Y-108450605D01*
X230449500Y-108459451D01*
X230449500Y-109289546D01*
X230429815Y-109356585D01*
X230413181Y-109377227D01*
X229862180Y-109928228D01*
X229800857Y-109961713D01*
X229731165Y-109956729D01*
X229675232Y-109914857D01*
X229650815Y-109849393D01*
X229650499Y-109840547D01*
X229650499Y-109010452D01*
X229670184Y-108943413D01*
X229686818Y-108922771D01*
X230032949Y-108576640D01*
X230237820Y-108371769D01*
X230299142Y-108338285D01*
X230368834Y-108343269D01*
G37*
%TD.AperFunction*%
%TA.AperFunction,NonConductor*%
G36*
X217668834Y-108343269D02*
G01*
X217724767Y-108385141D01*
X217749184Y-108450605D01*
X217749500Y-108459451D01*
X217749500Y-109289547D01*
X217729815Y-109356586D01*
X217713181Y-109377228D01*
X217162180Y-109928229D01*
X217100857Y-109961714D01*
X217031165Y-109956730D01*
X216975232Y-109914858D01*
X216950815Y-109849394D01*
X216950499Y-109840548D01*
X216950499Y-109010452D01*
X216970184Y-108943413D01*
X216986818Y-108922771D01*
X217332949Y-108576640D01*
X217537820Y-108371769D01*
X217599142Y-108338285D01*
X217668834Y-108343269D01*
G37*
%TD.AperFunction*%
%TA.AperFunction,NonConductor*%
G36*
X197708518Y-106470185D02*
G01*
X197754273Y-106522989D01*
X197764217Y-106592147D01*
X197735192Y-106655703D01*
X197710372Y-106677599D01*
X197677597Y-106699500D01*
X197677596Y-106699499D01*
X197655686Y-106714139D01*
X197655683Y-106714141D01*
X197604841Y-106764984D01*
X197392079Y-106977747D01*
X193781642Y-110588184D01*
X193720319Y-110621669D01*
X193693961Y-110624503D01*
X187110453Y-110624503D01*
X187043414Y-110604818D01*
X187022772Y-110588184D01*
X186471070Y-110036483D01*
X186460856Y-110026269D01*
X186460855Y-110026267D01*
X186373730Y-109939142D01*
X186314402Y-109899500D01*
X186271283Y-109870688D01*
X186190789Y-109837347D01*
X186157449Y-109823537D01*
X186097026Y-109811518D01*
X186092303Y-109810578D01*
X186092301Y-109810578D01*
X186036607Y-109799500D01*
X186036604Y-109799500D01*
X186036603Y-109799500D01*
X185299361Y-109799500D01*
X185232322Y-109779815D01*
X185211679Y-109763180D01*
X185174038Y-109725538D01*
X185174034Y-109725535D01*
X185026553Y-109626990D01*
X185026540Y-109626983D01*
X184862667Y-109559106D01*
X184862658Y-109559103D01*
X184688694Y-109524500D01*
X184688691Y-109524500D01*
X184511309Y-109524500D01*
X184511306Y-109524500D01*
X184337341Y-109559103D01*
X184337332Y-109559106D01*
X184173459Y-109626983D01*
X184173446Y-109626990D01*
X184025965Y-109725535D01*
X184025961Y-109725538D01*
X183900538Y-109850961D01*
X183900535Y-109850965D01*
X183801990Y-109998446D01*
X183801983Y-109998459D01*
X183734106Y-110162332D01*
X183734103Y-110162341D01*
X183699500Y-110336304D01*
X183699500Y-110513695D01*
X183734103Y-110687658D01*
X183734106Y-110687667D01*
X183801984Y-110851542D01*
X183801987Y-110851547D01*
X183805037Y-110856112D01*
X183825914Y-110922790D01*
X183807428Y-110990170D01*
X183805039Y-110993888D01*
X183801990Y-110998450D01*
X183801983Y-110998463D01*
X183734106Y-111162335D01*
X183734103Y-111162344D01*
X183699500Y-111336307D01*
X183699500Y-111400503D01*
X183679815Y-111467542D01*
X183627011Y-111513297D01*
X183575500Y-111524503D01*
X180712367Y-111524503D01*
X180645328Y-111504818D01*
X180601057Y-111453727D01*
X180600881Y-111453822D01*
X180600464Y-111453043D01*
X180599573Y-111452014D01*
X180598071Y-111448565D01*
X180598011Y-111448452D01*
X180499464Y-111300968D01*
X180499461Y-111300964D01*
X180374038Y-111175541D01*
X180374034Y-111175538D01*
X180226553Y-111076993D01*
X180226540Y-111076986D01*
X180062667Y-111009109D01*
X180062658Y-111009106D01*
X179888694Y-110974503D01*
X179888691Y-110974503D01*
X179711309Y-110974503D01*
X179711306Y-110974503D01*
X179537341Y-111009106D01*
X179537332Y-111009109D01*
X179373452Y-111076990D01*
X179373448Y-111076992D01*
X179354875Y-111089402D01*
X179288198Y-111110278D01*
X179220818Y-111091792D01*
X179217099Y-111089402D01*
X179198525Y-111076992D01*
X179198521Y-111076990D01*
X179034641Y-111009109D01*
X179034632Y-111009106D01*
X178860668Y-110974503D01*
X178860665Y-110974503D01*
X178683283Y-110974503D01*
X178645127Y-110982092D01*
X178596749Y-110982092D01*
X178558578Y-110974500D01*
X178558577Y-110974500D01*
X172694743Y-110974500D01*
X172677946Y-110969568D01*
X172660439Y-110969661D01*
X172645116Y-110959927D01*
X172627704Y-110954815D01*
X172616240Y-110941585D01*
X172601462Y-110932198D01*
X172593834Y-110915727D01*
X172581949Y-110902011D01*
X172579388Y-110884536D01*
X172572100Y-110868797D01*
X172572805Y-110839594D01*
X172571913Y-110833504D01*
X172572411Y-110829898D01*
X172600500Y-110688691D01*
X172600500Y-110626911D01*
X172601670Y-110618456D01*
X172612651Y-110594068D01*
X172620185Y-110568413D01*
X172629294Y-110557108D01*
X172630358Y-110554747D01*
X172632121Y-110553600D01*
X172636819Y-110547771D01*
X176697771Y-106486819D01*
X176759094Y-106453334D01*
X176785452Y-106450500D01*
X197641479Y-106450500D01*
X197708518Y-106470185D01*
G37*
%TD.AperFunction*%
%TA.AperFunction,NonConductor*%
G36*
X241481334Y-109930769D02*
G01*
X241537267Y-109972641D01*
X241561684Y-110038105D01*
X241562000Y-110046951D01*
X241562000Y-110877046D01*
X241542315Y-110944085D01*
X241525681Y-110964727D01*
X240974680Y-111515728D01*
X240913357Y-111549213D01*
X240843665Y-111544229D01*
X240787732Y-111502357D01*
X240763315Y-111436893D01*
X240762999Y-111428047D01*
X240762999Y-110597953D01*
X240782684Y-110530914D01*
X240799318Y-110510272D01*
X240973286Y-110336304D01*
X241210858Y-110098733D01*
X241210858Y-110098732D01*
X241228288Y-110081302D01*
X241228291Y-110081297D01*
X241350322Y-109959267D01*
X241411642Y-109925785D01*
X241481334Y-109930769D01*
G37*
%TD.AperFunction*%
%TA.AperFunction,NonConductor*%
G36*
X206556334Y-109930769D02*
G01*
X206612267Y-109972641D01*
X206636684Y-110038105D01*
X206637000Y-110046951D01*
X206637000Y-110877047D01*
X206617315Y-110944086D01*
X206600681Y-110964728D01*
X206049680Y-111515729D01*
X205988357Y-111549214D01*
X205918665Y-111544230D01*
X205862732Y-111502358D01*
X205838315Y-111436894D01*
X205837999Y-111428048D01*
X205837999Y-110597952D01*
X205857684Y-110530913D01*
X205874318Y-110510271D01*
X206425319Y-109959270D01*
X206486642Y-109925785D01*
X206556334Y-109930769D01*
G37*
%TD.AperFunction*%
%TA.AperFunction,NonConductor*%
G36*
X203630039Y-109645185D02*
G01*
X203675794Y-109697989D01*
X203687000Y-109749500D01*
X203687000Y-111887501D01*
X203687001Y-111887518D01*
X203697500Y-111990296D01*
X203697501Y-111990299D01*
X203752685Y-112156831D01*
X203752687Y-112156836D01*
X203757599Y-112164799D01*
X203770308Y-112185404D01*
X203788748Y-112252796D01*
X203767825Y-112319459D01*
X203714183Y-112364229D01*
X203664769Y-112374500D01*
X196609452Y-112374500D01*
X196542413Y-112354815D01*
X196496658Y-112302011D01*
X196486714Y-112232853D01*
X196515739Y-112169297D01*
X196521771Y-112162819D01*
X199022771Y-109661819D01*
X199084094Y-109628334D01*
X199110452Y-109625500D01*
X203563000Y-109625500D01*
X203630039Y-109645185D01*
G37*
%TD.AperFunction*%
%TA.AperFunction,NonConductor*%
G36*
X214742540Y-109220185D02*
G01*
X214788295Y-109272989D01*
X214799501Y-109324500D01*
X214799501Y-110300018D01*
X214810000Y-110402796D01*
X214810001Y-110402799D01*
X214865185Y-110569331D01*
X214865187Y-110569336D01*
X214897466Y-110621669D01*
X214957288Y-110718656D01*
X215081344Y-110842712D01*
X215230666Y-110934814D01*
X215268791Y-110947447D01*
X215326236Y-110987220D01*
X215353059Y-111051736D01*
X215344349Y-111112602D01*
X215334894Y-111135433D01*
X215334105Y-111137337D01*
X215334103Y-111137341D01*
X215299500Y-111311304D01*
X215299500Y-111364547D01*
X215279815Y-111431586D01*
X215263181Y-111452228D01*
X213652229Y-113063181D01*
X213590906Y-113096666D01*
X213564548Y-113099500D01*
X206534451Y-113099500D01*
X206467412Y-113079815D01*
X206421657Y-113027011D01*
X206411713Y-112957853D01*
X206440738Y-112894297D01*
X206446770Y-112887819D01*
X206617444Y-112717145D01*
X206840568Y-112494020D01*
X206901890Y-112460537D01*
X206971582Y-112465521D01*
X206993344Y-112476164D01*
X207068159Y-112522310D01*
X207068160Y-112522310D01*
X207068166Y-112522314D01*
X207234703Y-112577499D01*
X207337491Y-112588000D01*
X208087508Y-112587999D01*
X208087516Y-112587998D01*
X208087519Y-112587998D01*
X208143802Y-112582248D01*
X208190297Y-112577499D01*
X208356834Y-112522314D01*
X208506156Y-112430212D01*
X208630212Y-112306156D01*
X208722314Y-112156834D01*
X208777499Y-111990297D01*
X208788000Y-111887509D01*
X208787999Y-109587492D01*
X208777499Y-109484703D01*
X208737336Y-109363502D01*
X208734935Y-109293676D01*
X208770666Y-109233634D01*
X208833187Y-109202441D01*
X208855043Y-109200500D01*
X214675501Y-109200500D01*
X214742540Y-109220185D01*
G37*
%TD.AperFunction*%
%TA.AperFunction,NonConductor*%
G36*
X226656587Y-108120185D02*
G01*
X226677228Y-108136818D01*
X227463182Y-108922773D01*
X227496666Y-108984094D01*
X227499500Y-109010452D01*
X227499500Y-110300001D01*
X227499501Y-110300018D01*
X227510000Y-110402796D01*
X227510001Y-110402799D01*
X227565185Y-110569331D01*
X227565187Y-110569336D01*
X227597466Y-110621669D01*
X227657288Y-110718656D01*
X227781344Y-110842712D01*
X227930666Y-110934814D01*
X227930670Y-110934815D01*
X227937209Y-110937864D01*
X227936292Y-110939830D01*
X227985004Y-110973557D01*
X228011827Y-111038073D01*
X227999512Y-111106849D01*
X227976236Y-111139171D01*
X225602229Y-113513181D01*
X225540906Y-113546666D01*
X225514548Y-113549500D01*
X215234452Y-113549500D01*
X215167413Y-113529815D01*
X215121658Y-113477011D01*
X215111714Y-113407853D01*
X215140739Y-113344297D01*
X215146771Y-113337819D01*
X215573282Y-112911309D01*
X216147772Y-112336819D01*
X216209095Y-112303334D01*
X216235453Y-112300500D01*
X216288693Y-112300500D01*
X216288694Y-112300499D01*
X216346682Y-112288964D01*
X216462658Y-112265896D01*
X216462661Y-112265894D01*
X216462666Y-112265894D01*
X216626547Y-112198013D01*
X216774035Y-112099464D01*
X216899464Y-111974035D01*
X216998013Y-111826547D01*
X216999296Y-111823448D01*
X217000403Y-111822074D01*
X217000881Y-111821181D01*
X217001050Y-111821271D01*
X217043133Y-111769042D01*
X217048881Y-111765282D01*
X217057285Y-111760110D01*
X217071286Y-111754312D01*
X217122509Y-111720084D01*
X217173733Y-111685858D01*
X217260858Y-111598733D01*
X217260859Y-111598731D01*
X217267925Y-111591665D01*
X217267927Y-111591661D01*
X217953068Y-110906520D01*
X218014390Y-110873037D01*
X218084082Y-110878021D01*
X218105844Y-110888664D01*
X218180659Y-110934810D01*
X218180660Y-110934810D01*
X218180666Y-110934814D01*
X218347203Y-110989999D01*
X218449991Y-111000500D01*
X219200008Y-111000499D01*
X219200016Y-111000498D01*
X219200019Y-111000498D01*
X219264726Y-110993888D01*
X219302797Y-110989999D01*
X219469334Y-110934814D01*
X219618656Y-110842712D01*
X219742712Y-110718656D01*
X219834814Y-110569334D01*
X219889999Y-110402797D01*
X219900500Y-110300009D01*
X219900499Y-108224499D01*
X219920184Y-108157461D01*
X219972987Y-108111706D01*
X220024499Y-108100500D01*
X226589548Y-108100500D01*
X226656587Y-108120185D01*
G37*
%TD.AperFunction*%
%TA.AperFunction,NonConductor*%
G36*
X236181587Y-108120185D02*
G01*
X236202229Y-108136819D01*
X238575681Y-110510271D01*
X238609166Y-110571594D01*
X238612000Y-110597952D01*
X238612000Y-111887501D01*
X238612001Y-111887518D01*
X238622500Y-111990296D01*
X238622501Y-111990299D01*
X238677685Y-112156831D01*
X238677687Y-112156836D01*
X238685121Y-112168888D01*
X238769788Y-112306156D01*
X238893844Y-112430212D01*
X239043166Y-112522314D01*
X239074851Y-112532813D01*
X239132297Y-112572584D01*
X239159121Y-112637100D01*
X239150411Y-112697969D01*
X239134106Y-112737334D01*
X239134105Y-112737337D01*
X239134103Y-112737341D01*
X239099500Y-112911304D01*
X239099500Y-112964548D01*
X239079815Y-113031587D01*
X239063181Y-113052229D01*
X238152229Y-113963181D01*
X238090906Y-113996666D01*
X238064548Y-113999500D01*
X227184452Y-113999500D01*
X227117413Y-113979815D01*
X227071658Y-113927011D01*
X227061714Y-113857853D01*
X227090739Y-113794297D01*
X227096771Y-113787819D01*
X227832361Y-113052229D01*
X228574923Y-112309666D01*
X228636244Y-112276183D01*
X228686792Y-112275732D01*
X228725431Y-112283417D01*
X228811306Y-112300500D01*
X228811309Y-112300500D01*
X228988693Y-112300500D01*
X228988694Y-112300499D01*
X229046682Y-112288964D01*
X229162658Y-112265896D01*
X229162661Y-112265894D01*
X229162666Y-112265894D01*
X229326547Y-112198013D01*
X229474035Y-112099464D01*
X229599464Y-111974035D01*
X229698013Y-111826547D01*
X229728590Y-111752726D01*
X229744292Y-111733240D01*
X229756555Y-111711426D01*
X229767895Y-111703949D01*
X229772427Y-111698326D01*
X229785067Y-111690625D01*
X229790255Y-111687874D01*
X229790792Y-111687652D01*
X229871286Y-111654312D01*
X229934104Y-111612337D01*
X229973733Y-111585858D01*
X230060858Y-111498733D01*
X230060858Y-111498731D01*
X230071066Y-111488524D01*
X230071067Y-111488521D01*
X230653068Y-110906520D01*
X230714390Y-110873037D01*
X230784082Y-110878021D01*
X230805844Y-110888664D01*
X230880659Y-110934810D01*
X230880660Y-110934810D01*
X230880666Y-110934814D01*
X231047203Y-110989999D01*
X231149991Y-111000500D01*
X231900008Y-111000499D01*
X231900016Y-111000498D01*
X231900019Y-111000498D01*
X231964726Y-110993888D01*
X232002797Y-110989999D01*
X232169334Y-110934814D01*
X232318656Y-110842712D01*
X232442712Y-110718656D01*
X232534814Y-110569334D01*
X232589999Y-110402797D01*
X232600500Y-110300009D01*
X232600499Y-108224499D01*
X232620184Y-108157461D01*
X232672987Y-108111706D01*
X232724499Y-108100500D01*
X236114548Y-108100500D01*
X236181587Y-108120185D01*
G37*
%TD.AperFunction*%
%TA.AperFunction,NonConductor*%
G36*
X241896582Y-112465521D02*
G01*
X241918344Y-112476164D01*
X241995778Y-112523925D01*
X242042503Y-112575872D01*
X242053726Y-112644835D01*
X242025883Y-112708917D01*
X242018363Y-112717145D01*
X237697634Y-117037876D01*
X237636311Y-117071361D01*
X237609953Y-117074195D01*
X232793046Y-117074195D01*
X232793026Y-117074194D01*
X232786912Y-117074194D01*
X232663699Y-117074194D01*
X232562902Y-117094243D01*
X232562897Y-117094243D01*
X232542854Y-117098231D01*
X232542852Y-117098231D01*
X232495702Y-117117762D01*
X232429024Y-117145380D01*
X232429022Y-117145381D01*
X232326571Y-117213836D01*
X232326568Y-117213839D01*
X231602467Y-117937941D01*
X231541144Y-117971426D01*
X231471452Y-117966442D01*
X231415519Y-117924570D01*
X231393169Y-117874451D01*
X231365896Y-117737341D01*
X231365893Y-117737332D01*
X231298016Y-117573459D01*
X231298009Y-117573446D01*
X231199464Y-117425965D01*
X231199461Y-117425961D01*
X231074038Y-117300538D01*
X231074034Y-117300535D01*
X230926553Y-117201990D01*
X230926540Y-117201983D01*
X230762667Y-117134106D01*
X230762658Y-117134103D01*
X230588694Y-117099500D01*
X230588691Y-117099500D01*
X230535453Y-117099500D01*
X230468414Y-117079815D01*
X230447772Y-117063181D01*
X229685126Y-116300535D01*
X228846770Y-115462180D01*
X228813286Y-115400858D01*
X228818270Y-115331166D01*
X228860142Y-115275233D01*
X228925606Y-115250816D01*
X228934452Y-115250500D01*
X238436608Y-115250500D01*
X238436608Y-115250499D01*
X238497459Y-115238396D01*
X238557452Y-115226463D01*
X238590792Y-115212652D01*
X238671286Y-115179312D01*
X238741412Y-115132454D01*
X238773733Y-115110858D01*
X238860858Y-115023733D01*
X238860859Y-115023731D01*
X238867925Y-115016665D01*
X238867927Y-115016661D01*
X239947771Y-113936819D01*
X240009094Y-113903334D01*
X240035452Y-113900500D01*
X240088693Y-113900500D01*
X240088694Y-113900499D01*
X240146682Y-113888964D01*
X240262658Y-113865896D01*
X240262661Y-113865894D01*
X240262666Y-113865894D01*
X240426547Y-113798013D01*
X240574035Y-113699464D01*
X240699464Y-113574035D01*
X240798013Y-113426547D01*
X240865894Y-113262666D01*
X240875225Y-113215754D01*
X240884490Y-113198042D01*
X240889088Y-113178586D01*
X240900354Y-113167715D01*
X240907609Y-113153846D01*
X240924980Y-113143953D01*
X240939368Y-113130071D01*
X240965626Y-113120807D01*
X240968324Y-113119271D01*
X240972569Y-113118346D01*
X241038890Y-113105155D01*
X241057452Y-113101463D01*
X241095121Y-113085860D01*
X241171286Y-113054312D01*
X241231397Y-113014146D01*
X241273733Y-112985858D01*
X241360858Y-112898733D01*
X241360858Y-112898731D01*
X241371066Y-112888524D01*
X241371067Y-112888521D01*
X241765568Y-112494020D01*
X241826890Y-112460537D01*
X241896582Y-112465521D01*
G37*
%TD.AperFunction*%
%TA.AperFunction,NonConductor*%
G36*
X227331587Y-115720185D02*
G01*
X227352229Y-115736819D01*
X229563181Y-117947771D01*
X229596666Y-118009094D01*
X229599500Y-118035452D01*
X229599500Y-118088695D01*
X229634103Y-118262658D01*
X229634105Y-118262663D01*
X229634106Y-118262666D01*
X229647393Y-118294744D01*
X229654862Y-118364211D01*
X229623587Y-118426691D01*
X229571838Y-118459900D01*
X229518171Y-118477684D01*
X229518163Y-118477687D01*
X229368842Y-118569789D01*
X229244789Y-118693842D01*
X229152687Y-118843163D01*
X229152686Y-118843166D01*
X229108335Y-118977005D01*
X229068564Y-119034449D01*
X229004049Y-119061272D01*
X228990631Y-119062000D01*
X224449107Y-119062000D01*
X224325893Y-119062000D01*
X224268792Y-119073358D01*
X224268791Y-119073357D01*
X224205055Y-119086035D01*
X224205041Y-119086039D01*
X224172370Y-119099571D01*
X224172327Y-119099590D01*
X224170132Y-119100500D01*
X224091215Y-119133188D01*
X224091214Y-119133189D01*
X224073006Y-119145355D01*
X224073002Y-119145357D01*
X223988768Y-119201640D01*
X223966203Y-119224206D01*
X223901642Y-119288767D01*
X223901639Y-119288770D01*
X223610762Y-119579646D01*
X223549439Y-119613131D01*
X223479747Y-119608147D01*
X223423814Y-119566275D01*
X223401464Y-119516156D01*
X223365896Y-119337341D01*
X223365893Y-119337332D01*
X223365755Y-119337000D01*
X223344419Y-119285489D01*
X223298016Y-119173459D01*
X223298009Y-119173446D01*
X223199464Y-119025965D01*
X223199461Y-119025961D01*
X223074038Y-118900538D01*
X223074034Y-118900535D01*
X222926553Y-118801990D01*
X222926540Y-118801983D01*
X222762667Y-118734106D01*
X222762658Y-118734103D01*
X222588694Y-118699500D01*
X222588691Y-118699500D01*
X222535452Y-118699500D01*
X222468413Y-118679815D01*
X222447771Y-118663181D01*
X219696771Y-115912181D01*
X219663286Y-115850858D01*
X219668270Y-115781166D01*
X219710142Y-115725233D01*
X219775606Y-115700816D01*
X219784452Y-115700500D01*
X227264548Y-115700500D01*
X227331587Y-115720185D01*
G37*
%TD.AperFunction*%
%TA.AperFunction,NonConductor*%
G36*
X218181587Y-116170185D02*
G01*
X218202229Y-116186819D01*
X221563181Y-119547771D01*
X221596666Y-119609094D01*
X221599500Y-119635452D01*
X221599500Y-119688695D01*
X221634103Y-119862658D01*
X221634105Y-119862664D01*
X221634106Y-119862666D01*
X221650384Y-119901966D01*
X221657852Y-119971433D01*
X221626576Y-120033912D01*
X221599071Y-120056071D01*
X221587543Y-120062906D01*
X221580666Y-120065186D01*
X221504986Y-120111865D01*
X221503997Y-120112452D01*
X221471173Y-120120821D01*
X221438451Y-120129775D01*
X221437380Y-120129438D01*
X221436294Y-120129716D01*
X221404156Y-120119011D01*
X221371787Y-120108852D01*
X221370512Y-120107804D01*
X221370005Y-120107636D01*
X221369415Y-120106904D01*
X221353067Y-120093477D01*
X219452698Y-118193108D01*
X219452678Y-118193086D01*
X219361233Y-118101641D01*
X219315825Y-118071301D01*
X219315824Y-118071300D01*
X219310009Y-118067415D01*
X219258786Y-118033188D01*
X219178292Y-117999847D01*
X219144952Y-117986037D01*
X219144948Y-117986036D01*
X219144944Y-117986035D01*
X219072409Y-117971607D01*
X219072408Y-117971607D01*
X219024111Y-117962000D01*
X219024107Y-117962000D01*
X219024106Y-117962000D01*
X215612347Y-117962000D01*
X215545308Y-117942315D01*
X215499553Y-117889511D01*
X215490730Y-117862191D01*
X215465896Y-117737341D01*
X215465893Y-117737332D01*
X215398016Y-117573459D01*
X215398009Y-117573446D01*
X215299464Y-117425965D01*
X215299461Y-117425961D01*
X215174038Y-117300538D01*
X215174034Y-117300535D01*
X215026553Y-117201990D01*
X215026540Y-117201983D01*
X214862667Y-117134106D01*
X214862658Y-117134103D01*
X214688694Y-117099500D01*
X214688691Y-117099500D01*
X214635453Y-117099500D01*
X214568414Y-117079815D01*
X214547772Y-117063181D01*
X214204678Y-116720087D01*
X213846770Y-116362180D01*
X213813286Y-116300858D01*
X213818270Y-116231167D01*
X213860141Y-116175233D01*
X213925606Y-116150816D01*
X213934452Y-116150500D01*
X218114548Y-116150500D01*
X218181587Y-116170185D01*
G37*
%TD.AperFunction*%
%TA.AperFunction,NonConductor*%
G36*
X236177992Y-118344880D02*
G01*
X236223747Y-118397684D01*
X236233691Y-118466842D01*
X236204666Y-118530398D01*
X236198634Y-118536876D01*
X234399680Y-120335829D01*
X234338357Y-120369314D01*
X234268665Y-120364330D01*
X234212732Y-120322458D01*
X234188315Y-120256994D01*
X234187999Y-120248148D01*
X234187999Y-119112498D01*
X234187998Y-119112481D01*
X234177499Y-119009703D01*
X234177498Y-119009700D01*
X234122314Y-118843166D01*
X234030212Y-118693844D01*
X233906156Y-118569788D01*
X233906152Y-118569785D01*
X233881749Y-118554733D01*
X233835024Y-118502785D01*
X233823803Y-118433823D01*
X233851646Y-118369741D01*
X233909715Y-118330885D01*
X233946846Y-118325195D01*
X236110953Y-118325195D01*
X236177992Y-118344880D01*
G37*
%TD.AperFunction*%
%TA.AperFunction,NonConductor*%
G36*
X182107587Y-119945185D02*
G01*
X182153342Y-119997989D01*
X182163286Y-120067147D01*
X182134261Y-120130703D01*
X182128229Y-120137181D01*
X181802223Y-120463187D01*
X181740900Y-120496672D01*
X181714542Y-120499506D01*
X181670842Y-120499506D01*
X181603803Y-120479821D01*
X181558048Y-120427017D01*
X181548104Y-120357859D01*
X181577129Y-120294303D01*
X181583161Y-120287825D01*
X181672248Y-120198739D01*
X181909168Y-119961819D01*
X181936095Y-119947115D01*
X181961914Y-119930523D01*
X181968114Y-119929631D01*
X181970491Y-119928334D01*
X181996849Y-119925500D01*
X182040548Y-119925500D01*
X182107587Y-119945185D01*
G37*
%TD.AperFunction*%
%TA.AperFunction,NonConductor*%
G36*
X179218834Y-118318730D02*
G01*
X179274767Y-118360602D01*
X179299184Y-118426066D01*
X179299500Y-118434912D01*
X179299500Y-118488695D01*
X179334103Y-118662658D01*
X179334106Y-118662667D01*
X179401984Y-118826542D01*
X179401987Y-118826547D01*
X179405037Y-118831112D01*
X179425914Y-118897790D01*
X179407428Y-118965170D01*
X179405039Y-118968888D01*
X179401990Y-118973450D01*
X179401983Y-118973463D01*
X179334106Y-119137335D01*
X179334103Y-119137344D01*
X179299500Y-119311307D01*
X179299500Y-119488698D01*
X179334103Y-119662661D01*
X179334106Y-119662670D01*
X179401984Y-119826545D01*
X179401987Y-119826550D01*
X179405037Y-119831115D01*
X179425914Y-119897793D01*
X179407428Y-119965173D01*
X179405039Y-119968891D01*
X179401990Y-119973453D01*
X179401983Y-119973466D01*
X179334106Y-120137338D01*
X179334103Y-120137347D01*
X179299500Y-120311310D01*
X179299500Y-120375506D01*
X179279815Y-120442545D01*
X179227011Y-120488300D01*
X179175500Y-120499506D01*
X177234909Y-120499506D01*
X177213665Y-120493268D01*
X177191578Y-120491689D01*
X177180792Y-120483615D01*
X177167870Y-120479821D01*
X177153371Y-120463089D01*
X177135643Y-120449818D01*
X177130934Y-120437195D01*
X177122115Y-120427017D01*
X177118964Y-120405102D01*
X177111225Y-120384355D01*
X177114088Y-120371192D01*
X177112171Y-120357859D01*
X177121369Y-120337716D01*
X177126076Y-120316081D01*
X177139346Y-120298352D01*
X177141196Y-120294303D01*
X177147226Y-120287827D01*
X177147227Y-120287825D01*
X177149188Y-120285864D01*
X177236313Y-120198739D01*
X177236315Y-120198735D01*
X179087819Y-118347231D01*
X179149142Y-118313746D01*
X179218834Y-118318730D01*
G37*
%TD.AperFunction*%
%TA.AperFunction,NonConductor*%
G36*
X231956334Y-119455769D02*
G01*
X232012267Y-119497641D01*
X232036684Y-119563105D01*
X232037000Y-119571951D01*
X232037000Y-120402047D01*
X232017315Y-120469086D01*
X232000681Y-120489728D01*
X231449680Y-121040729D01*
X231388357Y-121074214D01*
X231318665Y-121069230D01*
X231262732Y-121027358D01*
X231238315Y-120961894D01*
X231237999Y-120953048D01*
X231237999Y-120122952D01*
X231257684Y-120055913D01*
X231274318Y-120035271D01*
X231620898Y-119688691D01*
X231825320Y-119484269D01*
X231886642Y-119450785D01*
X231956334Y-119455769D01*
G37*
%TD.AperFunction*%
%TA.AperFunction,NonConductor*%
G36*
X216105039Y-119232685D02*
G01*
X216150794Y-119285489D01*
X216162000Y-119337000D01*
X216162000Y-120402047D01*
X216142315Y-120469086D01*
X216125681Y-120489728D01*
X215574680Y-121040729D01*
X215513357Y-121074214D01*
X215443665Y-121069230D01*
X215387732Y-121027358D01*
X215363315Y-120961894D01*
X215362999Y-120953048D01*
X215362999Y-119337000D01*
X215382684Y-119269961D01*
X215435488Y-119224206D01*
X215486999Y-119213000D01*
X216038000Y-119213000D01*
X216105039Y-119232685D01*
G37*
%TD.AperFunction*%
%TA.AperFunction,NonConductor*%
G36*
X212331587Y-116620185D02*
G01*
X212352229Y-116636819D01*
X213663181Y-117947771D01*
X213696666Y-118009094D01*
X213699500Y-118035452D01*
X213699500Y-118088695D01*
X213734103Y-118262658D01*
X213734105Y-118262663D01*
X213734106Y-118262666D01*
X213750410Y-118302028D01*
X213757879Y-118371496D01*
X213726604Y-118433975D01*
X213674856Y-118467184D01*
X213643167Y-118477685D01*
X213493842Y-118569789D01*
X213369789Y-118693842D01*
X213277687Y-118843163D01*
X213277686Y-118843166D01*
X213222501Y-119009703D01*
X213222501Y-119009704D01*
X213222500Y-119009704D01*
X213212000Y-119112483D01*
X213212000Y-121412501D01*
X213212001Y-121412518D01*
X213222500Y-121515296D01*
X213222501Y-121515299D01*
X213277685Y-121681831D01*
X213277688Y-121681838D01*
X213279887Y-121685402D01*
X213280649Y-121688187D01*
X213280740Y-121688382D01*
X213280706Y-121688397D01*
X213298328Y-121752794D01*
X213277406Y-121819458D01*
X213223765Y-121864228D01*
X213174349Y-121874500D01*
X210066772Y-121874500D01*
X209999733Y-121854815D01*
X209979091Y-121838181D01*
X206152738Y-118011829D01*
X206142178Y-118001269D01*
X206142177Y-118001267D01*
X206055052Y-117914142D01*
X205982844Y-117865894D01*
X205952605Y-117845688D01*
X205952606Y-117845688D01*
X205952604Y-117845687D01*
X205913141Y-117829342D01*
X205872111Y-117812347D01*
X205838771Y-117798537D01*
X205778348Y-117786518D01*
X205773625Y-117785578D01*
X205773623Y-117785578D01*
X205717929Y-117774500D01*
X205717926Y-117774500D01*
X205717925Y-117774500D01*
X182359453Y-117774500D01*
X182338207Y-117768261D01*
X182316119Y-117766682D01*
X182305335Y-117758609D01*
X182292414Y-117754815D01*
X182277914Y-117738081D01*
X182260186Y-117724810D01*
X182255478Y-117712189D01*
X182246659Y-117702011D01*
X182243507Y-117680093D01*
X182235769Y-117659346D01*
X182238631Y-117646185D01*
X182236715Y-117632853D01*
X182245914Y-117612709D01*
X182250621Y-117591073D01*
X182263890Y-117573346D01*
X182265740Y-117569297D01*
X182271751Y-117562839D01*
X182422772Y-117411818D01*
X182484094Y-117378336D01*
X182510452Y-117375502D01*
X185211608Y-117375502D01*
X185272030Y-117363483D01*
X185332453Y-117351465D01*
X185379902Y-117331811D01*
X185446287Y-117304314D01*
X185508616Y-117262666D01*
X185548734Y-117235860D01*
X185635859Y-117148735D01*
X185635861Y-117148731D01*
X185922772Y-116861819D01*
X185984094Y-116828337D01*
X186010452Y-116825503D01*
X196436605Y-116825503D01*
X196436605Y-116825502D01*
X196554794Y-116801994D01*
X196557449Y-116801466D01*
X196595127Y-116785859D01*
X196597622Y-116784825D01*
X196597629Y-116784823D01*
X196671278Y-116754317D01*
X196671277Y-116754317D01*
X196671283Y-116754315D01*
X196722506Y-116720087D01*
X196773730Y-116685861D01*
X196826870Y-116632720D01*
X196831319Y-116629033D01*
X196858309Y-116617414D01*
X196884094Y-116603334D01*
X196893320Y-116602341D01*
X196895495Y-116601406D01*
X196898060Y-116601832D01*
X196910453Y-116600500D01*
X203806109Y-116600500D01*
X212264548Y-116600500D01*
X212331587Y-116620185D01*
G37*
%TD.AperFunction*%
%TA.AperFunction,NonConductor*%
G36*
X224018834Y-121043269D02*
G01*
X224074767Y-121085141D01*
X224099184Y-121150605D01*
X224099500Y-121159451D01*
X224099500Y-121989547D01*
X224079815Y-122056586D01*
X224063181Y-122077228D01*
X223512180Y-122628229D01*
X223450857Y-122661714D01*
X223381165Y-122656730D01*
X223325232Y-122614858D01*
X223300815Y-122549394D01*
X223300499Y-122540548D01*
X223300499Y-121710452D01*
X223320184Y-121643413D01*
X223336818Y-121622771D01*
X223887819Y-121071770D01*
X223949142Y-121038285D01*
X224018834Y-121043269D01*
G37*
%TD.AperFunction*%
%TA.AperFunction,NonConductor*%
G36*
X218719087Y-119232685D02*
G01*
X218739729Y-119249319D01*
X221113181Y-121622771D01*
X221146666Y-121684094D01*
X221149500Y-121710452D01*
X221149500Y-123000001D01*
X221149501Y-123000018D01*
X221160000Y-123102796D01*
X221160001Y-123102799D01*
X221194254Y-123206166D01*
X221215186Y-123269334D01*
X221225098Y-123285404D01*
X221243538Y-123352795D01*
X221222616Y-123419459D01*
X221168974Y-123464229D01*
X221119559Y-123474500D01*
X215171189Y-123474500D01*
X215104150Y-123454815D01*
X215058395Y-123402011D01*
X215048451Y-123332853D01*
X215077476Y-123269297D01*
X215102298Y-123247398D01*
X215134479Y-123225894D01*
X215174035Y-123199464D01*
X215299464Y-123074035D01*
X215398013Y-122926547D01*
X215423411Y-122865227D01*
X215442662Y-122841338D01*
X215460160Y-122816134D01*
X215465549Y-122812936D01*
X215467249Y-122810827D01*
X215490507Y-122798126D01*
X215515792Y-122787652D01*
X215596286Y-122754312D01*
X215647509Y-122720084D01*
X215698733Y-122685858D01*
X215785858Y-122598733D01*
X215785859Y-122598731D01*
X215792925Y-122591665D01*
X215792927Y-122591661D01*
X216365568Y-122019020D01*
X216426890Y-121985537D01*
X216496582Y-121990521D01*
X216518344Y-122001164D01*
X216593159Y-122047310D01*
X216593160Y-122047310D01*
X216593166Y-122047314D01*
X216759703Y-122102499D01*
X216862491Y-122113000D01*
X217612508Y-122112999D01*
X217612516Y-122112998D01*
X217612519Y-122112998D01*
X217668802Y-122107248D01*
X217715297Y-122102499D01*
X217881834Y-122047314D01*
X218031156Y-121955212D01*
X218155212Y-121831156D01*
X218247314Y-121681834D01*
X218302499Y-121515297D01*
X218313000Y-121412509D01*
X218312999Y-119336999D01*
X218315549Y-119328314D01*
X218314261Y-119319353D01*
X218325239Y-119295312D01*
X218332684Y-119269961D01*
X218339524Y-119264033D01*
X218343286Y-119255797D01*
X218365518Y-119241509D01*
X218385487Y-119224206D01*
X218396002Y-119221918D01*
X218402064Y-119218023D01*
X218436999Y-119213000D01*
X218652048Y-119213000D01*
X218719087Y-119232685D01*
G37*
%TD.AperFunction*%
%TA.AperFunction,NonConductor*%
G36*
X213923314Y-123132158D02*
G01*
X213946838Y-123134428D01*
X213963109Y-123143843D01*
X213967678Y-123145185D01*
X213973408Y-123149802D01*
X213977387Y-123152105D01*
X213983137Y-123156636D01*
X214025965Y-123199464D01*
X214101739Y-123250095D01*
X214105559Y-123253105D01*
X214123097Y-123277785D01*
X214142507Y-123301011D01*
X214143130Y-123305977D01*
X214146031Y-123310059D01*
X214147441Y-123340302D01*
X214151214Y-123370336D01*
X214149053Y-123374851D01*
X214149287Y-123379853D01*
X214134124Y-123406055D01*
X214121059Y-123433363D01*
X214116799Y-123435994D01*
X214114292Y-123440327D01*
X214087375Y-123454170D01*
X214061616Y-123470082D01*
X214056609Y-123469992D01*
X214052158Y-123472282D01*
X214028811Y-123474500D01*
X211030376Y-123474500D01*
X210963337Y-123454815D01*
X210942695Y-123438181D01*
X210841695Y-123337181D01*
X210808210Y-123275858D01*
X210813194Y-123206166D01*
X210855066Y-123150233D01*
X210920530Y-123125816D01*
X210929376Y-123125500D01*
X213900639Y-123125500D01*
X213923314Y-123132158D01*
G37*
%TD.AperFunction*%
%TA.AperFunction,NonConductor*%
G36*
X229030040Y-120332685D02*
G01*
X229075795Y-120385489D01*
X229087001Y-120437000D01*
X229087001Y-121412518D01*
X229097500Y-121515296D01*
X229097501Y-121515299D01*
X229152685Y-121681831D01*
X229152687Y-121681836D01*
X229156725Y-121688382D01*
X229244788Y-121831156D01*
X229368844Y-121955212D01*
X229518166Y-122047314D01*
X229562729Y-122062080D01*
X229620173Y-122101852D01*
X229646997Y-122166368D01*
X229638289Y-122227232D01*
X229634107Y-122237329D01*
X229634104Y-122237336D01*
X229599500Y-122411304D01*
X229599500Y-122464547D01*
X229579815Y-122531586D01*
X229563181Y-122552228D01*
X227952229Y-124163181D01*
X227890906Y-124196666D01*
X227864548Y-124199500D01*
X224009451Y-124199500D01*
X223942412Y-124179815D01*
X223896657Y-124127011D01*
X223886713Y-124057853D01*
X223915738Y-123994297D01*
X223921770Y-123987819D01*
X224054073Y-123855516D01*
X224303068Y-123606520D01*
X224364390Y-123573037D01*
X224434082Y-123578021D01*
X224455844Y-123588664D01*
X224530659Y-123634810D01*
X224530660Y-123634810D01*
X224530666Y-123634814D01*
X224697203Y-123689999D01*
X224799991Y-123700500D01*
X225550008Y-123700499D01*
X225550016Y-123700498D01*
X225550019Y-123700498D01*
X225606302Y-123694748D01*
X225652797Y-123689999D01*
X225819334Y-123634814D01*
X225968656Y-123542712D01*
X226092712Y-123418656D01*
X226184814Y-123269334D01*
X226239999Y-123102797D01*
X226250500Y-123000009D01*
X226250499Y-120699992D01*
X226239999Y-120597203D01*
X226199836Y-120476002D01*
X226197435Y-120406176D01*
X226233166Y-120346134D01*
X226295687Y-120314941D01*
X226317543Y-120313000D01*
X228963001Y-120313000D01*
X229030040Y-120332685D01*
G37*
%TD.AperFunction*%
%TA.AperFunction,NonConductor*%
G36*
X232371582Y-121990521D02*
G01*
X232393344Y-122001164D01*
X232470778Y-122048925D01*
X232517503Y-122100872D01*
X232528726Y-122169835D01*
X232500883Y-122233917D01*
X232493363Y-122242145D01*
X230122329Y-124613181D01*
X230061006Y-124646666D01*
X230034648Y-124649500D01*
X229534452Y-124649500D01*
X229467413Y-124629815D01*
X229421658Y-124577011D01*
X229411714Y-124507853D01*
X229440739Y-124444297D01*
X229446771Y-124437819D01*
X229859758Y-124024833D01*
X230447772Y-123436819D01*
X230509095Y-123403334D01*
X230535453Y-123400500D01*
X230588693Y-123400500D01*
X230588694Y-123400499D01*
X230646682Y-123388964D01*
X230762658Y-123365896D01*
X230762661Y-123365894D01*
X230762666Y-123365894D01*
X230926547Y-123298013D01*
X231074035Y-123199464D01*
X231199464Y-123074035D01*
X231232298Y-123024893D01*
X231249896Y-123003980D01*
X231257630Y-122996616D01*
X231273733Y-122985858D01*
X231360858Y-122898733D01*
X231360860Y-122898729D01*
X232240569Y-122019020D01*
X232301890Y-121985537D01*
X232371582Y-121990521D01*
G37*
%TD.AperFunction*%
M02*
