%TF.GenerationSoftware,KiCad,Pcbnew,9.0.2*%
%TF.CreationDate,2025-07-14T14:24:05-07:00*%
%TF.ProjectId,16_6mSiPMs_9_v4,31365f36-6d53-4695-904d-735f395f7634,rev?*%
%TF.SameCoordinates,Original*%
%TF.FileFunction,Legend,Top*%
%TF.FilePolarity,Positive*%
%FSLAX46Y46*%
G04 Gerber Fmt 4.6, Leading zero omitted, Abs format (unit mm)*
G04 Created by KiCad (PCBNEW 9.0.2) date 2025-07-14 14:24:05*
%MOMM*%
%LPD*%
G01*
G04 APERTURE LIST*
%ADD10C,0.150000*%
%ADD11C,0.100000*%
%ADD12C,0.120000*%
%ADD13C,0.200000*%
%ADD14C,0.127000*%
G04 APERTURE END LIST*
D10*
X177360588Y-127069819D02*
X176789160Y-127069819D01*
X177074874Y-127069819D02*
X177074874Y-126069819D01*
X177074874Y-126069819D02*
X176979636Y-126212676D01*
X176979636Y-126212676D02*
X176884398Y-126307914D01*
X176884398Y-126307914D02*
X176789160Y-126355533D01*
X178217731Y-126069819D02*
X178027255Y-126069819D01*
X178027255Y-126069819D02*
X177932017Y-126117438D01*
X177932017Y-126117438D02*
X177884398Y-126165057D01*
X177884398Y-126165057D02*
X177789160Y-126307914D01*
X177789160Y-126307914D02*
X177741541Y-126498390D01*
X177741541Y-126498390D02*
X177741541Y-126879342D01*
X177741541Y-126879342D02*
X177789160Y-126974580D01*
X177789160Y-126974580D02*
X177836779Y-127022200D01*
X177836779Y-127022200D02*
X177932017Y-127069819D01*
X177932017Y-127069819D02*
X178122493Y-127069819D01*
X178122493Y-127069819D02*
X178217731Y-127022200D01*
X178217731Y-127022200D02*
X178265350Y-126974580D01*
X178265350Y-126974580D02*
X178312969Y-126879342D01*
X178312969Y-126879342D02*
X178312969Y-126641247D01*
X178312969Y-126641247D02*
X178265350Y-126546009D01*
X178265350Y-126546009D02*
X178217731Y-126498390D01*
X178217731Y-126498390D02*
X178122493Y-126450771D01*
X178122493Y-126450771D02*
X177932017Y-126450771D01*
X177932017Y-126450771D02*
X177836779Y-126498390D01*
X177836779Y-126498390D02*
X177789160Y-126546009D01*
X177789160Y-126546009D02*
X177741541Y-126641247D01*
X179932017Y-126069819D02*
X179741541Y-126069819D01*
X179741541Y-126069819D02*
X179646303Y-126117438D01*
X179646303Y-126117438D02*
X179598684Y-126165057D01*
X179598684Y-126165057D02*
X179503446Y-126307914D01*
X179503446Y-126307914D02*
X179455827Y-126498390D01*
X179455827Y-126498390D02*
X179455827Y-126879342D01*
X179455827Y-126879342D02*
X179503446Y-126974580D01*
X179503446Y-126974580D02*
X179551065Y-127022200D01*
X179551065Y-127022200D02*
X179646303Y-127069819D01*
X179646303Y-127069819D02*
X179836779Y-127069819D01*
X179836779Y-127069819D02*
X179932017Y-127022200D01*
X179932017Y-127022200D02*
X179979636Y-126974580D01*
X179979636Y-126974580D02*
X180027255Y-126879342D01*
X180027255Y-126879342D02*
X180027255Y-126641247D01*
X180027255Y-126641247D02*
X179979636Y-126546009D01*
X179979636Y-126546009D02*
X179932017Y-126498390D01*
X179932017Y-126498390D02*
X179836779Y-126450771D01*
X179836779Y-126450771D02*
X179646303Y-126450771D01*
X179646303Y-126450771D02*
X179551065Y-126498390D01*
X179551065Y-126498390D02*
X179503446Y-126546009D01*
X179503446Y-126546009D02*
X179455827Y-126641247D01*
X180455827Y-127069819D02*
X180455827Y-126403152D01*
X180455827Y-126498390D02*
X180503446Y-126450771D01*
X180503446Y-126450771D02*
X180598684Y-126403152D01*
X180598684Y-126403152D02*
X180741541Y-126403152D01*
X180741541Y-126403152D02*
X180836779Y-126450771D01*
X180836779Y-126450771D02*
X180884398Y-126546009D01*
X180884398Y-126546009D02*
X180884398Y-127069819D01*
X180884398Y-126546009D02*
X180932017Y-126450771D01*
X180932017Y-126450771D02*
X181027255Y-126403152D01*
X181027255Y-126403152D02*
X181170112Y-126403152D01*
X181170112Y-126403152D02*
X181265351Y-126450771D01*
X181265351Y-126450771D02*
X181312970Y-126546009D01*
X181312970Y-126546009D02*
X181312970Y-127069819D01*
X181789160Y-127069819D02*
X181789160Y-126403152D01*
X181789160Y-126498390D02*
X181836779Y-126450771D01*
X181836779Y-126450771D02*
X181932017Y-126403152D01*
X181932017Y-126403152D02*
X182074874Y-126403152D01*
X182074874Y-126403152D02*
X182170112Y-126450771D01*
X182170112Y-126450771D02*
X182217731Y-126546009D01*
X182217731Y-126546009D02*
X182217731Y-127069819D01*
X182217731Y-126546009D02*
X182265350Y-126450771D01*
X182265350Y-126450771D02*
X182360588Y-126403152D01*
X182360588Y-126403152D02*
X182503445Y-126403152D01*
X182503445Y-126403152D02*
X182598684Y-126450771D01*
X182598684Y-126450771D02*
X182646303Y-126546009D01*
X182646303Y-126546009D02*
X182646303Y-127069819D01*
X183836779Y-127022200D02*
X183979636Y-127069819D01*
X183979636Y-127069819D02*
X184217731Y-127069819D01*
X184217731Y-127069819D02*
X184312969Y-127022200D01*
X184312969Y-127022200D02*
X184360588Y-126974580D01*
X184360588Y-126974580D02*
X184408207Y-126879342D01*
X184408207Y-126879342D02*
X184408207Y-126784104D01*
X184408207Y-126784104D02*
X184360588Y-126688866D01*
X184360588Y-126688866D02*
X184312969Y-126641247D01*
X184312969Y-126641247D02*
X184217731Y-126593628D01*
X184217731Y-126593628D02*
X184027255Y-126546009D01*
X184027255Y-126546009D02*
X183932017Y-126498390D01*
X183932017Y-126498390D02*
X183884398Y-126450771D01*
X183884398Y-126450771D02*
X183836779Y-126355533D01*
X183836779Y-126355533D02*
X183836779Y-126260295D01*
X183836779Y-126260295D02*
X183884398Y-126165057D01*
X183884398Y-126165057D02*
X183932017Y-126117438D01*
X183932017Y-126117438D02*
X184027255Y-126069819D01*
X184027255Y-126069819D02*
X184265350Y-126069819D01*
X184265350Y-126069819D02*
X184408207Y-126117438D01*
X184836779Y-127069819D02*
X184836779Y-126403152D01*
X184836779Y-126069819D02*
X184789160Y-126117438D01*
X184789160Y-126117438D02*
X184836779Y-126165057D01*
X184836779Y-126165057D02*
X184884398Y-126117438D01*
X184884398Y-126117438D02*
X184836779Y-126069819D01*
X184836779Y-126069819D02*
X184836779Y-126165057D01*
X185312969Y-127069819D02*
X185312969Y-126069819D01*
X185312969Y-126069819D02*
X185693921Y-126069819D01*
X185693921Y-126069819D02*
X185789159Y-126117438D01*
X185789159Y-126117438D02*
X185836778Y-126165057D01*
X185836778Y-126165057D02*
X185884397Y-126260295D01*
X185884397Y-126260295D02*
X185884397Y-126403152D01*
X185884397Y-126403152D02*
X185836778Y-126498390D01*
X185836778Y-126498390D02*
X185789159Y-126546009D01*
X185789159Y-126546009D02*
X185693921Y-126593628D01*
X185693921Y-126593628D02*
X185312969Y-126593628D01*
X186312969Y-127069819D02*
X186312969Y-126069819D01*
X186312969Y-126069819D02*
X186646302Y-126784104D01*
X186646302Y-126784104D02*
X186979635Y-126069819D01*
X186979635Y-126069819D02*
X186979635Y-127069819D01*
X188551064Y-126546009D02*
X188693921Y-126593628D01*
X188693921Y-126593628D02*
X188741540Y-126641247D01*
X188741540Y-126641247D02*
X188789159Y-126736485D01*
X188789159Y-126736485D02*
X188789159Y-126879342D01*
X188789159Y-126879342D02*
X188741540Y-126974580D01*
X188741540Y-126974580D02*
X188693921Y-127022200D01*
X188693921Y-127022200D02*
X188598683Y-127069819D01*
X188598683Y-127069819D02*
X188217731Y-127069819D01*
X188217731Y-127069819D02*
X188217731Y-126069819D01*
X188217731Y-126069819D02*
X188551064Y-126069819D01*
X188551064Y-126069819D02*
X188646302Y-126117438D01*
X188646302Y-126117438D02*
X188693921Y-126165057D01*
X188693921Y-126165057D02*
X188741540Y-126260295D01*
X188741540Y-126260295D02*
X188741540Y-126355533D01*
X188741540Y-126355533D02*
X188693921Y-126450771D01*
X188693921Y-126450771D02*
X188646302Y-126498390D01*
X188646302Y-126498390D02*
X188551064Y-126546009D01*
X188551064Y-126546009D02*
X188217731Y-126546009D01*
X189360588Y-127069819D02*
X189265350Y-127022200D01*
X189265350Y-127022200D02*
X189217731Y-126974580D01*
X189217731Y-126974580D02*
X189170112Y-126879342D01*
X189170112Y-126879342D02*
X189170112Y-126593628D01*
X189170112Y-126593628D02*
X189217731Y-126498390D01*
X189217731Y-126498390D02*
X189265350Y-126450771D01*
X189265350Y-126450771D02*
X189360588Y-126403152D01*
X189360588Y-126403152D02*
X189503445Y-126403152D01*
X189503445Y-126403152D02*
X189598683Y-126450771D01*
X189598683Y-126450771D02*
X189646302Y-126498390D01*
X189646302Y-126498390D02*
X189693921Y-126593628D01*
X189693921Y-126593628D02*
X189693921Y-126879342D01*
X189693921Y-126879342D02*
X189646302Y-126974580D01*
X189646302Y-126974580D02*
X189598683Y-127022200D01*
X189598683Y-127022200D02*
X189503445Y-127069819D01*
X189503445Y-127069819D02*
X189360588Y-127069819D01*
X190551064Y-127069819D02*
X190551064Y-126546009D01*
X190551064Y-126546009D02*
X190503445Y-126450771D01*
X190503445Y-126450771D02*
X190408207Y-126403152D01*
X190408207Y-126403152D02*
X190217731Y-126403152D01*
X190217731Y-126403152D02*
X190122493Y-126450771D01*
X190551064Y-127022200D02*
X190455826Y-127069819D01*
X190455826Y-127069819D02*
X190217731Y-127069819D01*
X190217731Y-127069819D02*
X190122493Y-127022200D01*
X190122493Y-127022200D02*
X190074874Y-126926961D01*
X190074874Y-126926961D02*
X190074874Y-126831723D01*
X190074874Y-126831723D02*
X190122493Y-126736485D01*
X190122493Y-126736485D02*
X190217731Y-126688866D01*
X190217731Y-126688866D02*
X190455826Y-126688866D01*
X190455826Y-126688866D02*
X190551064Y-126641247D01*
X191027255Y-127069819D02*
X191027255Y-126403152D01*
X191027255Y-126593628D02*
X191074874Y-126498390D01*
X191074874Y-126498390D02*
X191122493Y-126450771D01*
X191122493Y-126450771D02*
X191217731Y-126403152D01*
X191217731Y-126403152D02*
X191312969Y-126403152D01*
X192074874Y-127069819D02*
X192074874Y-126069819D01*
X192074874Y-127022200D02*
X191979636Y-127069819D01*
X191979636Y-127069819D02*
X191789160Y-127069819D01*
X191789160Y-127069819D02*
X191693922Y-127022200D01*
X191693922Y-127022200D02*
X191646303Y-126974580D01*
X191646303Y-126974580D02*
X191598684Y-126879342D01*
X191598684Y-126879342D02*
X191598684Y-126593628D01*
X191598684Y-126593628D02*
X191646303Y-126498390D01*
X191646303Y-126498390D02*
X191693922Y-126450771D01*
X191693922Y-126450771D02*
X191789160Y-126403152D01*
X191789160Y-126403152D02*
X191979636Y-126403152D01*
X191979636Y-126403152D02*
X192074874Y-126450771D01*
X193217732Y-126403152D02*
X193455827Y-127069819D01*
X193455827Y-127069819D02*
X193693922Y-126403152D01*
X194503446Y-126403152D02*
X194503446Y-127069819D01*
X194265351Y-126022200D02*
X194027256Y-126736485D01*
X194027256Y-126736485D02*
X194646303Y-126736485D01*
X196954819Y-127380952D02*
X195954819Y-127380952D01*
X196431009Y-127380952D02*
X196431009Y-126809524D01*
X196954819Y-126809524D02*
X195954819Y-126809524D01*
X196954819Y-125904762D02*
X196431009Y-125904762D01*
X196431009Y-125904762D02*
X196335771Y-125952381D01*
X196335771Y-125952381D02*
X196288152Y-126047619D01*
X196288152Y-126047619D02*
X196288152Y-126238095D01*
X196288152Y-126238095D02*
X196335771Y-126333333D01*
X196907200Y-125904762D02*
X196954819Y-126000000D01*
X196954819Y-126000000D02*
X196954819Y-126238095D01*
X196954819Y-126238095D02*
X196907200Y-126333333D01*
X196907200Y-126333333D02*
X196811961Y-126380952D01*
X196811961Y-126380952D02*
X196716723Y-126380952D01*
X196716723Y-126380952D02*
X196621485Y-126333333D01*
X196621485Y-126333333D02*
X196573866Y-126238095D01*
X196573866Y-126238095D02*
X196573866Y-126000000D01*
X196573866Y-126000000D02*
X196526247Y-125904762D01*
X196954819Y-125428571D02*
X196288152Y-125428571D01*
X196383390Y-125428571D02*
X196335771Y-125380952D01*
X196335771Y-125380952D02*
X196288152Y-125285714D01*
X196288152Y-125285714D02*
X196288152Y-125142857D01*
X196288152Y-125142857D02*
X196335771Y-125047619D01*
X196335771Y-125047619D02*
X196431009Y-125000000D01*
X196431009Y-125000000D02*
X196954819Y-125000000D01*
X196431009Y-125000000D02*
X196335771Y-124952381D01*
X196335771Y-124952381D02*
X196288152Y-124857143D01*
X196288152Y-124857143D02*
X196288152Y-124714286D01*
X196288152Y-124714286D02*
X196335771Y-124619047D01*
X196335771Y-124619047D02*
X196431009Y-124571428D01*
X196431009Y-124571428D02*
X196954819Y-124571428D01*
X196954819Y-123666667D02*
X196431009Y-123666667D01*
X196431009Y-123666667D02*
X196335771Y-123714286D01*
X196335771Y-123714286D02*
X196288152Y-123809524D01*
X196288152Y-123809524D02*
X196288152Y-124000000D01*
X196288152Y-124000000D02*
X196335771Y-124095238D01*
X196907200Y-123666667D02*
X196954819Y-123761905D01*
X196954819Y-123761905D02*
X196954819Y-124000000D01*
X196954819Y-124000000D02*
X196907200Y-124095238D01*
X196907200Y-124095238D02*
X196811961Y-124142857D01*
X196811961Y-124142857D02*
X196716723Y-124142857D01*
X196716723Y-124142857D02*
X196621485Y-124095238D01*
X196621485Y-124095238D02*
X196573866Y-124000000D01*
X196573866Y-124000000D02*
X196573866Y-123761905D01*
X196573866Y-123761905D02*
X196526247Y-123666667D01*
X196954819Y-123190476D02*
X196288152Y-123190476D01*
X196383390Y-123190476D02*
X196335771Y-123142857D01*
X196335771Y-123142857D02*
X196288152Y-123047619D01*
X196288152Y-123047619D02*
X196288152Y-122904762D01*
X196288152Y-122904762D02*
X196335771Y-122809524D01*
X196335771Y-122809524D02*
X196431009Y-122761905D01*
X196431009Y-122761905D02*
X196954819Y-122761905D01*
X196431009Y-122761905D02*
X196335771Y-122714286D01*
X196335771Y-122714286D02*
X196288152Y-122619048D01*
X196288152Y-122619048D02*
X196288152Y-122476191D01*
X196288152Y-122476191D02*
X196335771Y-122380952D01*
X196335771Y-122380952D02*
X196431009Y-122333333D01*
X196431009Y-122333333D02*
X196954819Y-122333333D01*
X196954819Y-121428572D02*
X196431009Y-121428572D01*
X196431009Y-121428572D02*
X196335771Y-121476191D01*
X196335771Y-121476191D02*
X196288152Y-121571429D01*
X196288152Y-121571429D02*
X196288152Y-121761905D01*
X196288152Y-121761905D02*
X196335771Y-121857143D01*
X196907200Y-121428572D02*
X196954819Y-121523810D01*
X196954819Y-121523810D02*
X196954819Y-121761905D01*
X196954819Y-121761905D02*
X196907200Y-121857143D01*
X196907200Y-121857143D02*
X196811961Y-121904762D01*
X196811961Y-121904762D02*
X196716723Y-121904762D01*
X196716723Y-121904762D02*
X196621485Y-121857143D01*
X196621485Y-121857143D02*
X196573866Y-121761905D01*
X196573866Y-121761905D02*
X196573866Y-121523810D01*
X196573866Y-121523810D02*
X196526247Y-121428572D01*
X196288152Y-121095238D02*
X196288152Y-120714286D01*
X195954819Y-120952381D02*
X196811961Y-120952381D01*
X196811961Y-120952381D02*
X196907200Y-120904762D01*
X196907200Y-120904762D02*
X196954819Y-120809524D01*
X196954819Y-120809524D02*
X196954819Y-120714286D01*
X196907200Y-120428571D02*
X196954819Y-120333333D01*
X196954819Y-120333333D02*
X196954819Y-120142857D01*
X196954819Y-120142857D02*
X196907200Y-120047619D01*
X196907200Y-120047619D02*
X196811961Y-120000000D01*
X196811961Y-120000000D02*
X196764342Y-120000000D01*
X196764342Y-120000000D02*
X196669104Y-120047619D01*
X196669104Y-120047619D02*
X196621485Y-120142857D01*
X196621485Y-120142857D02*
X196621485Y-120285714D01*
X196621485Y-120285714D02*
X196573866Y-120380952D01*
X196573866Y-120380952D02*
X196478628Y-120428571D01*
X196478628Y-120428571D02*
X196431009Y-120428571D01*
X196431009Y-120428571D02*
X196335771Y-120380952D01*
X196335771Y-120380952D02*
X196288152Y-120285714D01*
X196288152Y-120285714D02*
X196288152Y-120142857D01*
X196288152Y-120142857D02*
X196335771Y-120047619D01*
X196288152Y-119142857D02*
X196954819Y-119142857D01*
X196288152Y-119571428D02*
X196811961Y-119571428D01*
X196811961Y-119571428D02*
X196907200Y-119523809D01*
X196907200Y-119523809D02*
X196954819Y-119428571D01*
X196954819Y-119428571D02*
X196954819Y-119285714D01*
X196954819Y-119285714D02*
X196907200Y-119190476D01*
X196907200Y-119190476D02*
X196859580Y-119142857D01*
X197050057Y-118904762D02*
X197050057Y-118142857D01*
X196907200Y-117952380D02*
X196954819Y-117809523D01*
X196954819Y-117809523D02*
X196954819Y-117571428D01*
X196954819Y-117571428D02*
X196907200Y-117476190D01*
X196907200Y-117476190D02*
X196859580Y-117428571D01*
X196859580Y-117428571D02*
X196764342Y-117380952D01*
X196764342Y-117380952D02*
X196669104Y-117380952D01*
X196669104Y-117380952D02*
X196573866Y-117428571D01*
X196573866Y-117428571D02*
X196526247Y-117476190D01*
X196526247Y-117476190D02*
X196478628Y-117571428D01*
X196478628Y-117571428D02*
X196431009Y-117761904D01*
X196431009Y-117761904D02*
X196383390Y-117857142D01*
X196383390Y-117857142D02*
X196335771Y-117904761D01*
X196335771Y-117904761D02*
X196240533Y-117952380D01*
X196240533Y-117952380D02*
X196145295Y-117952380D01*
X196145295Y-117952380D02*
X196050057Y-117904761D01*
X196050057Y-117904761D02*
X196002438Y-117857142D01*
X196002438Y-117857142D02*
X195954819Y-117761904D01*
X195954819Y-117761904D02*
X195954819Y-117523809D01*
X195954819Y-117523809D02*
X196002438Y-117380952D01*
X196954819Y-116428571D02*
X196954819Y-116999999D01*
X196954819Y-116714285D02*
X195954819Y-116714285D01*
X195954819Y-116714285D02*
X196097676Y-116809523D01*
X196097676Y-116809523D02*
X196192914Y-116904761D01*
X196192914Y-116904761D02*
X196240533Y-116999999D01*
X196288152Y-115571428D02*
X196954819Y-115571428D01*
X195907200Y-115809523D02*
X196621485Y-116047618D01*
X196621485Y-116047618D02*
X196621485Y-115428571D01*
X196954819Y-114523809D02*
X196954819Y-115095237D01*
X196954819Y-114809523D02*
X195954819Y-114809523D01*
X195954819Y-114809523D02*
X196097676Y-114904761D01*
X196097676Y-114904761D02*
X196192914Y-114999999D01*
X196192914Y-114999999D02*
X196240533Y-115095237D01*
X195954819Y-113666666D02*
X195954819Y-113857142D01*
X195954819Y-113857142D02*
X196002438Y-113952380D01*
X196002438Y-113952380D02*
X196050057Y-113999999D01*
X196050057Y-113999999D02*
X196192914Y-114095237D01*
X196192914Y-114095237D02*
X196383390Y-114142856D01*
X196383390Y-114142856D02*
X196764342Y-114142856D01*
X196764342Y-114142856D02*
X196859580Y-114095237D01*
X196859580Y-114095237D02*
X196907200Y-114047618D01*
X196907200Y-114047618D02*
X196954819Y-113952380D01*
X196954819Y-113952380D02*
X196954819Y-113761904D01*
X196954819Y-113761904D02*
X196907200Y-113666666D01*
X196907200Y-113666666D02*
X196859580Y-113619047D01*
X196859580Y-113619047D02*
X196764342Y-113571428D01*
X196764342Y-113571428D02*
X196526247Y-113571428D01*
X196526247Y-113571428D02*
X196431009Y-113619047D01*
X196431009Y-113619047D02*
X196383390Y-113666666D01*
X196383390Y-113666666D02*
X196335771Y-113761904D01*
X196335771Y-113761904D02*
X196335771Y-113952380D01*
X196335771Y-113952380D02*
X196383390Y-114047618D01*
X196383390Y-114047618D02*
X196431009Y-114095237D01*
X196431009Y-114095237D02*
X196526247Y-114142856D01*
X195954819Y-112952380D02*
X195954819Y-112857142D01*
X195954819Y-112857142D02*
X196002438Y-112761904D01*
X196002438Y-112761904D02*
X196050057Y-112714285D01*
X196050057Y-112714285D02*
X196145295Y-112666666D01*
X196145295Y-112666666D02*
X196335771Y-112619047D01*
X196335771Y-112619047D02*
X196573866Y-112619047D01*
X196573866Y-112619047D02*
X196764342Y-112666666D01*
X196764342Y-112666666D02*
X196859580Y-112714285D01*
X196859580Y-112714285D02*
X196907200Y-112761904D01*
X196907200Y-112761904D02*
X196954819Y-112857142D01*
X196954819Y-112857142D02*
X196954819Y-112952380D01*
X196954819Y-112952380D02*
X196907200Y-113047618D01*
X196907200Y-113047618D02*
X196859580Y-113095237D01*
X196859580Y-113095237D02*
X196764342Y-113142856D01*
X196764342Y-113142856D02*
X196573866Y-113190475D01*
X196573866Y-113190475D02*
X196335771Y-113190475D01*
X196335771Y-113190475D02*
X196145295Y-113142856D01*
X196145295Y-113142856D02*
X196050057Y-113095237D01*
X196050057Y-113095237D02*
X196002438Y-113047618D01*
X196002438Y-113047618D02*
X195954819Y-112952380D01*
X196573866Y-112190475D02*
X196573866Y-111428571D01*
X195954819Y-110523809D02*
X195954819Y-110714285D01*
X195954819Y-110714285D02*
X196002438Y-110809523D01*
X196002438Y-110809523D02*
X196050057Y-110857142D01*
X196050057Y-110857142D02*
X196192914Y-110952380D01*
X196192914Y-110952380D02*
X196383390Y-110999999D01*
X196383390Y-110999999D02*
X196764342Y-110999999D01*
X196764342Y-110999999D02*
X196859580Y-110952380D01*
X196859580Y-110952380D02*
X196907200Y-110904761D01*
X196907200Y-110904761D02*
X196954819Y-110809523D01*
X196954819Y-110809523D02*
X196954819Y-110619047D01*
X196954819Y-110619047D02*
X196907200Y-110523809D01*
X196907200Y-110523809D02*
X196859580Y-110476190D01*
X196859580Y-110476190D02*
X196764342Y-110428571D01*
X196764342Y-110428571D02*
X196526247Y-110428571D01*
X196526247Y-110428571D02*
X196431009Y-110476190D01*
X196431009Y-110476190D02*
X196383390Y-110523809D01*
X196383390Y-110523809D02*
X196335771Y-110619047D01*
X196335771Y-110619047D02*
X196335771Y-110809523D01*
X196335771Y-110809523D02*
X196383390Y-110904761D01*
X196383390Y-110904761D02*
X196431009Y-110952380D01*
X196431009Y-110952380D02*
X196526247Y-110999999D01*
X195954819Y-109809523D02*
X195954819Y-109714285D01*
X195954819Y-109714285D02*
X196002438Y-109619047D01*
X196002438Y-109619047D02*
X196050057Y-109571428D01*
X196050057Y-109571428D02*
X196145295Y-109523809D01*
X196145295Y-109523809D02*
X196335771Y-109476190D01*
X196335771Y-109476190D02*
X196573866Y-109476190D01*
X196573866Y-109476190D02*
X196764342Y-109523809D01*
X196764342Y-109523809D02*
X196859580Y-109571428D01*
X196859580Y-109571428D02*
X196907200Y-109619047D01*
X196907200Y-109619047D02*
X196954819Y-109714285D01*
X196954819Y-109714285D02*
X196954819Y-109809523D01*
X196954819Y-109809523D02*
X196907200Y-109904761D01*
X196907200Y-109904761D02*
X196859580Y-109952380D01*
X196859580Y-109952380D02*
X196764342Y-109999999D01*
X196764342Y-109999999D02*
X196573866Y-110047618D01*
X196573866Y-110047618D02*
X196335771Y-110047618D01*
X196335771Y-110047618D02*
X196145295Y-109999999D01*
X196145295Y-109999999D02*
X196050057Y-109952380D01*
X196050057Y-109952380D02*
X196002438Y-109904761D01*
X196002438Y-109904761D02*
X195954819Y-109809523D01*
X195954819Y-108571428D02*
X195954819Y-109047618D01*
X195954819Y-109047618D02*
X196431009Y-109095237D01*
X196431009Y-109095237D02*
X196383390Y-109047618D01*
X196383390Y-109047618D02*
X196335771Y-108952380D01*
X196335771Y-108952380D02*
X196335771Y-108714285D01*
X196335771Y-108714285D02*
X196383390Y-108619047D01*
X196383390Y-108619047D02*
X196431009Y-108571428D01*
X196431009Y-108571428D02*
X196526247Y-108523809D01*
X196526247Y-108523809D02*
X196764342Y-108523809D01*
X196764342Y-108523809D02*
X196859580Y-108571428D01*
X196859580Y-108571428D02*
X196907200Y-108619047D01*
X196907200Y-108619047D02*
X196954819Y-108714285D01*
X196954819Y-108714285D02*
X196954819Y-108952380D01*
X196954819Y-108952380D02*
X196907200Y-109047618D01*
X196907200Y-109047618D02*
X196859580Y-109095237D01*
X195954819Y-107904761D02*
X195954819Y-107809523D01*
X195954819Y-107809523D02*
X196002438Y-107714285D01*
X196002438Y-107714285D02*
X196050057Y-107666666D01*
X196050057Y-107666666D02*
X196145295Y-107619047D01*
X196145295Y-107619047D02*
X196335771Y-107571428D01*
X196335771Y-107571428D02*
X196573866Y-107571428D01*
X196573866Y-107571428D02*
X196764342Y-107619047D01*
X196764342Y-107619047D02*
X196859580Y-107666666D01*
X196859580Y-107666666D02*
X196907200Y-107714285D01*
X196907200Y-107714285D02*
X196954819Y-107809523D01*
X196954819Y-107809523D02*
X196954819Y-107904761D01*
X196954819Y-107904761D02*
X196907200Y-107999999D01*
X196907200Y-107999999D02*
X196859580Y-108047618D01*
X196859580Y-108047618D02*
X196764342Y-108095237D01*
X196764342Y-108095237D02*
X196573866Y-108142856D01*
X196573866Y-108142856D02*
X196335771Y-108142856D01*
X196335771Y-108142856D02*
X196145295Y-108095237D01*
X196145295Y-108095237D02*
X196050057Y-108047618D01*
X196050057Y-108047618D02*
X196002438Y-107999999D01*
X196002438Y-107999999D02*
X195954819Y-107904761D01*
X196954819Y-107142856D02*
X195954819Y-107142856D01*
X196431009Y-107142856D02*
X196431009Y-106571428D01*
X196954819Y-106571428D02*
X195954819Y-106571428D01*
X196907200Y-106142856D02*
X196954819Y-105999999D01*
X196954819Y-105999999D02*
X196954819Y-105761904D01*
X196954819Y-105761904D02*
X196907200Y-105666666D01*
X196907200Y-105666666D02*
X196859580Y-105619047D01*
X196859580Y-105619047D02*
X196764342Y-105571428D01*
X196764342Y-105571428D02*
X196669104Y-105571428D01*
X196669104Y-105571428D02*
X196573866Y-105619047D01*
X196573866Y-105619047D02*
X196526247Y-105666666D01*
X196526247Y-105666666D02*
X196478628Y-105761904D01*
X196478628Y-105761904D02*
X196431009Y-105952380D01*
X196431009Y-105952380D02*
X196383390Y-106047618D01*
X196383390Y-106047618D02*
X196335771Y-106095237D01*
X196335771Y-106095237D02*
X196240533Y-106142856D01*
X196240533Y-106142856D02*
X196145295Y-106142856D01*
X196145295Y-106142856D02*
X196050057Y-106095237D01*
X196050057Y-106095237D02*
X196002438Y-106047618D01*
X196002438Y-106047618D02*
X195954819Y-105952380D01*
X195954819Y-105952380D02*
X195954819Y-105714285D01*
X195954819Y-105714285D02*
X196002438Y-105571428D01*
D11*
X248900000Y-103000000D02*
G75*
G02*
X198100000Y-103000000I-25400000J0D01*
G01*
X198100000Y-103000000D02*
G75*
G02*
X248900000Y-103000000I25400000J0D01*
G01*
D10*
X192616667Y-99854819D02*
X193188095Y-99854819D01*
X192902381Y-100854819D02*
X192902381Y-99854819D01*
X193902381Y-100807200D02*
X193807143Y-100854819D01*
X193807143Y-100854819D02*
X193616667Y-100854819D01*
X193616667Y-100854819D02*
X193521429Y-100807200D01*
X193521429Y-100807200D02*
X193473810Y-100711961D01*
X193473810Y-100711961D02*
X193473810Y-100331009D01*
X193473810Y-100331009D02*
X193521429Y-100235771D01*
X193521429Y-100235771D02*
X193616667Y-100188152D01*
X193616667Y-100188152D02*
X193807143Y-100188152D01*
X193807143Y-100188152D02*
X193902381Y-100235771D01*
X193902381Y-100235771D02*
X193950000Y-100331009D01*
X193950000Y-100331009D02*
X193950000Y-100426247D01*
X193950000Y-100426247D02*
X193473810Y-100521485D01*
X194378572Y-100854819D02*
X194378572Y-100188152D01*
X194378572Y-100283390D02*
X194426191Y-100235771D01*
X194426191Y-100235771D02*
X194521429Y-100188152D01*
X194521429Y-100188152D02*
X194664286Y-100188152D01*
X194664286Y-100188152D02*
X194759524Y-100235771D01*
X194759524Y-100235771D02*
X194807143Y-100331009D01*
X194807143Y-100331009D02*
X194807143Y-100854819D01*
X194807143Y-100331009D02*
X194854762Y-100235771D01*
X194854762Y-100235771D02*
X194950000Y-100188152D01*
X194950000Y-100188152D02*
X195092857Y-100188152D01*
X195092857Y-100188152D02*
X195188096Y-100235771D01*
X195188096Y-100235771D02*
X195235715Y-100331009D01*
X195235715Y-100331009D02*
X195235715Y-100854819D01*
X195711905Y-100188152D02*
X195711905Y-101188152D01*
X195711905Y-100235771D02*
X195807143Y-100188152D01*
X195807143Y-100188152D02*
X195997619Y-100188152D01*
X195997619Y-100188152D02*
X196092857Y-100235771D01*
X196092857Y-100235771D02*
X196140476Y-100283390D01*
X196140476Y-100283390D02*
X196188095Y-100378628D01*
X196188095Y-100378628D02*
X196188095Y-100664342D01*
X196188095Y-100664342D02*
X196140476Y-100759580D01*
X196140476Y-100759580D02*
X196092857Y-100807200D01*
X196092857Y-100807200D02*
X195997619Y-100854819D01*
X195997619Y-100854819D02*
X195807143Y-100854819D01*
X195807143Y-100854819D02*
X195711905Y-100807200D01*
X166069819Y-125963220D02*
X165069819Y-125963220D01*
X165546009Y-125963220D02*
X165546009Y-125391792D01*
X166069819Y-125391792D02*
X165069819Y-125391792D01*
X166022200Y-124963220D02*
X166069819Y-124820363D01*
X166069819Y-124820363D02*
X166069819Y-124582268D01*
X166069819Y-124582268D02*
X166022200Y-124487030D01*
X166022200Y-124487030D02*
X165974580Y-124439411D01*
X165974580Y-124439411D02*
X165879342Y-124391792D01*
X165879342Y-124391792D02*
X165784104Y-124391792D01*
X165784104Y-124391792D02*
X165688866Y-124439411D01*
X165688866Y-124439411D02*
X165641247Y-124487030D01*
X165641247Y-124487030D02*
X165593628Y-124582268D01*
X165593628Y-124582268D02*
X165546009Y-124772744D01*
X165546009Y-124772744D02*
X165498390Y-124867982D01*
X165498390Y-124867982D02*
X165450771Y-124915601D01*
X165450771Y-124915601D02*
X165355533Y-124963220D01*
X165355533Y-124963220D02*
X165260295Y-124963220D01*
X165260295Y-124963220D02*
X165165057Y-124915601D01*
X165165057Y-124915601D02*
X165117438Y-124867982D01*
X165117438Y-124867982D02*
X165069819Y-124772744D01*
X165069819Y-124772744D02*
X165069819Y-124534649D01*
X165069819Y-124534649D02*
X165117438Y-124391792D01*
X165546009Y-123963220D02*
X165546009Y-123629887D01*
X166069819Y-123487030D02*
X166069819Y-123963220D01*
X166069819Y-123963220D02*
X165069819Y-123963220D01*
X165069819Y-123963220D02*
X165069819Y-123487030D01*
X165974580Y-122487030D02*
X166022200Y-122534649D01*
X166022200Y-122534649D02*
X166069819Y-122677506D01*
X166069819Y-122677506D02*
X166069819Y-122772744D01*
X166069819Y-122772744D02*
X166022200Y-122915601D01*
X166022200Y-122915601D02*
X165926961Y-123010839D01*
X165926961Y-123010839D02*
X165831723Y-123058458D01*
X165831723Y-123058458D02*
X165641247Y-123106077D01*
X165641247Y-123106077D02*
X165498390Y-123106077D01*
X165498390Y-123106077D02*
X165307914Y-123058458D01*
X165307914Y-123058458D02*
X165212676Y-123010839D01*
X165212676Y-123010839D02*
X165117438Y-122915601D01*
X165117438Y-122915601D02*
X165069819Y-122772744D01*
X165069819Y-122772744D02*
X165069819Y-122677506D01*
X165069819Y-122677506D02*
X165117438Y-122534649D01*
X165117438Y-122534649D02*
X165165057Y-122487030D01*
X165498390Y-121915601D02*
X165450771Y-122010839D01*
X165450771Y-122010839D02*
X165403152Y-122058458D01*
X165403152Y-122058458D02*
X165307914Y-122106077D01*
X165307914Y-122106077D02*
X165260295Y-122106077D01*
X165260295Y-122106077D02*
X165165057Y-122058458D01*
X165165057Y-122058458D02*
X165117438Y-122010839D01*
X165117438Y-122010839D02*
X165069819Y-121915601D01*
X165069819Y-121915601D02*
X165069819Y-121725125D01*
X165069819Y-121725125D02*
X165117438Y-121629887D01*
X165117438Y-121629887D02*
X165165057Y-121582268D01*
X165165057Y-121582268D02*
X165260295Y-121534649D01*
X165260295Y-121534649D02*
X165307914Y-121534649D01*
X165307914Y-121534649D02*
X165403152Y-121582268D01*
X165403152Y-121582268D02*
X165450771Y-121629887D01*
X165450771Y-121629887D02*
X165498390Y-121725125D01*
X165498390Y-121725125D02*
X165498390Y-121915601D01*
X165498390Y-121915601D02*
X165546009Y-122010839D01*
X165546009Y-122010839D02*
X165593628Y-122058458D01*
X165593628Y-122058458D02*
X165688866Y-122106077D01*
X165688866Y-122106077D02*
X165879342Y-122106077D01*
X165879342Y-122106077D02*
X165974580Y-122058458D01*
X165974580Y-122058458D02*
X166022200Y-122010839D01*
X166022200Y-122010839D02*
X166069819Y-121915601D01*
X166069819Y-121915601D02*
X166069819Y-121725125D01*
X166069819Y-121725125D02*
X166022200Y-121629887D01*
X166022200Y-121629887D02*
X165974580Y-121582268D01*
X165974580Y-121582268D02*
X165879342Y-121534649D01*
X165879342Y-121534649D02*
X165688866Y-121534649D01*
X165688866Y-121534649D02*
X165593628Y-121582268D01*
X165593628Y-121582268D02*
X165546009Y-121629887D01*
X165546009Y-121629887D02*
X165498390Y-121725125D01*
X165688866Y-121106077D02*
X165688866Y-120344173D01*
X166069819Y-119344173D02*
X166069819Y-119915601D01*
X166069819Y-119629887D02*
X165069819Y-119629887D01*
X165069819Y-119629887D02*
X165212676Y-119725125D01*
X165212676Y-119725125D02*
X165307914Y-119820363D01*
X165307914Y-119820363D02*
X165355533Y-119915601D01*
X165069819Y-118725125D02*
X165069819Y-118629887D01*
X165069819Y-118629887D02*
X165117438Y-118534649D01*
X165117438Y-118534649D02*
X165165057Y-118487030D01*
X165165057Y-118487030D02*
X165260295Y-118439411D01*
X165260295Y-118439411D02*
X165450771Y-118391792D01*
X165450771Y-118391792D02*
X165688866Y-118391792D01*
X165688866Y-118391792D02*
X165879342Y-118439411D01*
X165879342Y-118439411D02*
X165974580Y-118487030D01*
X165974580Y-118487030D02*
X166022200Y-118534649D01*
X166022200Y-118534649D02*
X166069819Y-118629887D01*
X166069819Y-118629887D02*
X166069819Y-118725125D01*
X166069819Y-118725125D02*
X166022200Y-118820363D01*
X166022200Y-118820363D02*
X165974580Y-118867982D01*
X165974580Y-118867982D02*
X165879342Y-118915601D01*
X165879342Y-118915601D02*
X165688866Y-118963220D01*
X165688866Y-118963220D02*
X165450771Y-118963220D01*
X165450771Y-118963220D02*
X165260295Y-118915601D01*
X165260295Y-118915601D02*
X165165057Y-118867982D01*
X165165057Y-118867982D02*
X165117438Y-118820363D01*
X165117438Y-118820363D02*
X165069819Y-118725125D01*
X166069819Y-117915601D02*
X166069819Y-117725125D01*
X166069819Y-117725125D02*
X166022200Y-117629887D01*
X166022200Y-117629887D02*
X165974580Y-117582268D01*
X165974580Y-117582268D02*
X165831723Y-117487030D01*
X165831723Y-117487030D02*
X165641247Y-117439411D01*
X165641247Y-117439411D02*
X165260295Y-117439411D01*
X165260295Y-117439411D02*
X165165057Y-117487030D01*
X165165057Y-117487030D02*
X165117438Y-117534649D01*
X165117438Y-117534649D02*
X165069819Y-117629887D01*
X165069819Y-117629887D02*
X165069819Y-117820363D01*
X165069819Y-117820363D02*
X165117438Y-117915601D01*
X165117438Y-117915601D02*
X165165057Y-117963220D01*
X165165057Y-117963220D02*
X165260295Y-118010839D01*
X165260295Y-118010839D02*
X165498390Y-118010839D01*
X165498390Y-118010839D02*
X165593628Y-117963220D01*
X165593628Y-117963220D02*
X165641247Y-117915601D01*
X165641247Y-117915601D02*
X165688866Y-117820363D01*
X165688866Y-117820363D02*
X165688866Y-117629887D01*
X165688866Y-117629887D02*
X165641247Y-117534649D01*
X165641247Y-117534649D02*
X165593628Y-117487030D01*
X165593628Y-117487030D02*
X165498390Y-117439411D01*
X165688866Y-117010839D02*
X165688866Y-116248935D01*
X165069819Y-115582268D02*
X165069819Y-115487030D01*
X165069819Y-115487030D02*
X165117438Y-115391792D01*
X165117438Y-115391792D02*
X165165057Y-115344173D01*
X165165057Y-115344173D02*
X165260295Y-115296554D01*
X165260295Y-115296554D02*
X165450771Y-115248935D01*
X165450771Y-115248935D02*
X165688866Y-115248935D01*
X165688866Y-115248935D02*
X165879342Y-115296554D01*
X165879342Y-115296554D02*
X165974580Y-115344173D01*
X165974580Y-115344173D02*
X166022200Y-115391792D01*
X166022200Y-115391792D02*
X166069819Y-115487030D01*
X166069819Y-115487030D02*
X166069819Y-115582268D01*
X166069819Y-115582268D02*
X166022200Y-115677506D01*
X166022200Y-115677506D02*
X165974580Y-115725125D01*
X165974580Y-115725125D02*
X165879342Y-115772744D01*
X165879342Y-115772744D02*
X165688866Y-115820363D01*
X165688866Y-115820363D02*
X165450771Y-115820363D01*
X165450771Y-115820363D02*
X165260295Y-115772744D01*
X165260295Y-115772744D02*
X165165057Y-115725125D01*
X165165057Y-115725125D02*
X165117438Y-115677506D01*
X165117438Y-115677506D02*
X165069819Y-115582268D01*
X166069819Y-114296554D02*
X166069819Y-114867982D01*
X166069819Y-114582268D02*
X165069819Y-114582268D01*
X165069819Y-114582268D02*
X165212676Y-114677506D01*
X165212676Y-114677506D02*
X165307914Y-114772744D01*
X165307914Y-114772744D02*
X165355533Y-114867982D01*
X165688866Y-113867982D02*
X165688866Y-113106078D01*
X166069819Y-112153697D02*
X166069819Y-112629887D01*
X166069819Y-112629887D02*
X165069819Y-112629887D01*
X165688866Y-111820363D02*
X165688866Y-111058459D01*
X166069819Y-110582268D02*
X165069819Y-110582268D01*
X165069819Y-110582268D02*
X165069819Y-110344173D01*
X165069819Y-110344173D02*
X165117438Y-110201316D01*
X165117438Y-110201316D02*
X165212676Y-110106078D01*
X165212676Y-110106078D02*
X165307914Y-110058459D01*
X165307914Y-110058459D02*
X165498390Y-110010840D01*
X165498390Y-110010840D02*
X165641247Y-110010840D01*
X165641247Y-110010840D02*
X165831723Y-110058459D01*
X165831723Y-110058459D02*
X165926961Y-110106078D01*
X165926961Y-110106078D02*
X166022200Y-110201316D01*
X166022200Y-110201316D02*
X166069819Y-110344173D01*
X166069819Y-110344173D02*
X166069819Y-110582268D01*
X165069819Y-109725125D02*
X166069819Y-109391792D01*
X166069819Y-109391792D02*
X165069819Y-109058459D01*
X165688866Y-108725125D02*
X165688866Y-107963221D01*
X165784104Y-107534649D02*
X165784104Y-107058459D01*
X166069819Y-107629887D02*
X165069819Y-107296554D01*
X165069819Y-107296554D02*
X166069819Y-106963221D01*
X165688866Y-106629887D02*
X165688866Y-105867983D01*
X166069819Y-104915602D02*
X166069819Y-105391792D01*
X166069819Y-105391792D02*
X165069819Y-105391792D01*
X165165057Y-104629887D02*
X165117438Y-104582268D01*
X165117438Y-104582268D02*
X165069819Y-104487030D01*
X165069819Y-104487030D02*
X165069819Y-104248935D01*
X165069819Y-104248935D02*
X165117438Y-104153697D01*
X165117438Y-104153697D02*
X165165057Y-104106078D01*
X165165057Y-104106078D02*
X165260295Y-104058459D01*
X165260295Y-104058459D02*
X165355533Y-104058459D01*
X165355533Y-104058459D02*
X165498390Y-104106078D01*
X165498390Y-104106078D02*
X166069819Y-104677506D01*
X166069819Y-104677506D02*
X166069819Y-104058459D01*
X165688866Y-103629887D02*
X165688866Y-102867983D01*
X166069819Y-102391792D02*
X165069819Y-102391792D01*
X166069819Y-101820364D02*
X165498390Y-102248935D01*
X165069819Y-101820364D02*
X165641247Y-102391792D01*
X165688866Y-101391792D02*
X165688866Y-100629888D01*
X165069819Y-100296554D02*
X165069819Y-99725126D01*
X166069819Y-100010840D02*
X165069819Y-100010840D01*
X166069819Y-98820364D02*
X165593628Y-99153697D01*
X166069819Y-99391792D02*
X165069819Y-99391792D01*
X165069819Y-99391792D02*
X165069819Y-99010840D01*
X165069819Y-99010840D02*
X165117438Y-98915602D01*
X165117438Y-98915602D02*
X165165057Y-98867983D01*
X165165057Y-98867983D02*
X165260295Y-98820364D01*
X165260295Y-98820364D02*
X165403152Y-98820364D01*
X165403152Y-98820364D02*
X165498390Y-98867983D01*
X165498390Y-98867983D02*
X165546009Y-98915602D01*
X165546009Y-98915602D02*
X165593628Y-99010840D01*
X165593628Y-99010840D02*
X165593628Y-99391792D01*
D11*
X196452657Y-104357142D02*
X196405038Y-104309523D01*
X196405038Y-104309523D02*
X196357419Y-104214285D01*
X196357419Y-104214285D02*
X196357419Y-103976190D01*
X196357419Y-103976190D02*
X196405038Y-103880952D01*
X196405038Y-103880952D02*
X196452657Y-103833333D01*
X196452657Y-103833333D02*
X196547895Y-103785714D01*
X196547895Y-103785714D02*
X196643133Y-103785714D01*
X196643133Y-103785714D02*
X196785990Y-103833333D01*
X196785990Y-103833333D02*
X197357419Y-104404761D01*
X197357419Y-104404761D02*
X197357419Y-103785714D01*
X197357419Y-102595237D02*
X196690752Y-102595237D01*
X196357419Y-102595237D02*
X196405038Y-102642856D01*
X196405038Y-102642856D02*
X196452657Y-102595237D01*
X196452657Y-102595237D02*
X196405038Y-102547618D01*
X196405038Y-102547618D02*
X196357419Y-102595237D01*
X196357419Y-102595237D02*
X196452657Y-102595237D01*
X196690752Y-102119047D02*
X197357419Y-102119047D01*
X196785990Y-102119047D02*
X196738371Y-102071428D01*
X196738371Y-102071428D02*
X196690752Y-101976190D01*
X196690752Y-101976190D02*
X196690752Y-101833333D01*
X196690752Y-101833333D02*
X196738371Y-101738095D01*
X196738371Y-101738095D02*
X196833609Y-101690476D01*
X196833609Y-101690476D02*
X197357419Y-101690476D01*
X223000000Y-128400000D02*
X197413580Y-128400000D01*
X197413580Y-77600000D02*
X223000000Y-77600000D01*
X198000000Y-128400000D02*
X198000000Y-77600000D01*
X198000000Y-128400000D02*
X197413579Y-127273496D01*
X198000000Y-128400000D02*
X198586421Y-127273496D01*
X198000000Y-77600000D02*
X198586421Y-78726504D01*
X198000000Y-77600000D02*
X197413579Y-78726504D01*
D12*
%TO.C,REF\u002A\u002A*%
X212100000Y-82100000D02*
X212100000Y-83200000D01*
X212100000Y-82100000D02*
X213200000Y-82100000D01*
X212100000Y-88900000D02*
X212100000Y-87900000D01*
X213200000Y-88900000D02*
X212100000Y-88900000D01*
X217800000Y-82100000D02*
X218900000Y-82100000D01*
X217800000Y-88900000D02*
X218900000Y-88900000D01*
X218900000Y-82100000D02*
X218900000Y-83200000D01*
X218900000Y-88900000D02*
X218900000Y-87800000D01*
X226100000Y-93100000D02*
X226100000Y-94200000D01*
X226100000Y-93100000D02*
X227200000Y-93100000D01*
X226100000Y-99900000D02*
X226100000Y-98900000D01*
X227200000Y-99900000D02*
X226100000Y-99900000D01*
X231800000Y-93100000D02*
X232900000Y-93100000D01*
X231800000Y-99900000D02*
X232900000Y-99900000D01*
X232900000Y-93100000D02*
X232900000Y-94200000D01*
X232900000Y-99900000D02*
X232900000Y-98800000D01*
X237600000Y-91600000D02*
X237600000Y-92700000D01*
X237600000Y-91600000D02*
X238700000Y-91600000D01*
X237600000Y-98400000D02*
X237600000Y-97400000D01*
X238700000Y-98400000D02*
X237600000Y-98400000D01*
X243300000Y-91600000D02*
X244400000Y-91600000D01*
X243300000Y-98400000D02*
X244400000Y-98400000D01*
X244400000Y-91600000D02*
X244400000Y-92700000D01*
X244400000Y-98400000D02*
X244400000Y-97300000D01*
D13*
%TO.C,J\u002A\u002A*%
X167450000Y-85000000D02*
X167450000Y-85000000D01*
X167450000Y-85000000D02*
X167450000Y-85000000D01*
X167450000Y-85100000D02*
X167450000Y-85100000D01*
D11*
X168450000Y-79470000D02*
X175450000Y-79470000D01*
X168450000Y-100330000D02*
X168450000Y-79470000D01*
X175450000Y-79470000D02*
X175450000Y-100330000D01*
X175450000Y-100330000D02*
X168450000Y-100330000D01*
D13*
X167450000Y-85000000D02*
G75*
G02*
X167450000Y-85100000I0J-50000D01*
G01*
X167450000Y-85100000D02*
G75*
G02*
X167450000Y-85000000I0J50000D01*
G01*
X167450000Y-85100000D02*
G75*
G02*
X167450000Y-85000000I0J50000D01*
G01*
D12*
%TO.C,REF\u002A\u002A*%
X201100000Y-99600000D02*
X201100000Y-100700000D01*
X201100000Y-99600000D02*
X202200000Y-99600000D01*
X201100000Y-106400000D02*
X201100000Y-105400000D01*
X202200000Y-106400000D02*
X201100000Y-106400000D01*
X206800000Y-99600000D02*
X207900000Y-99600000D01*
X206800000Y-106400000D02*
X207900000Y-106400000D01*
X207900000Y-99600000D02*
X207900000Y-100700000D01*
X207900000Y-106400000D02*
X207900000Y-105300000D01*
X220100000Y-80600000D02*
X220100000Y-81700000D01*
X220100000Y-80600000D02*
X221200000Y-80600000D01*
X220100000Y-87400000D02*
X220100000Y-86400000D01*
X221200000Y-87400000D02*
X220100000Y-87400000D01*
X225800000Y-80600000D02*
X226900000Y-80600000D01*
X225800000Y-87400000D02*
X226900000Y-87400000D01*
X226900000Y-80600000D02*
X226900000Y-81700000D01*
X226900000Y-87400000D02*
X226900000Y-86300000D01*
D14*
X157435000Y-97166000D02*
X162870000Y-97166000D01*
X157435000Y-107834000D02*
X157435000Y-97166000D01*
X162870000Y-97166000D02*
X162870000Y-107834000D01*
X162870000Y-107834000D02*
X157435000Y-107834000D01*
D13*
X163970000Y-99960000D02*
G75*
G02*
X163770000Y-99960000I-100000J0D01*
G01*
X163770000Y-99960000D02*
G75*
G02*
X163970000Y-99960000I100000J0D01*
G01*
D12*
X220100000Y-118600000D02*
X220100000Y-119700000D01*
X220100000Y-118600000D02*
X221200000Y-118600000D01*
X220100000Y-125400000D02*
X220100000Y-124400000D01*
X221200000Y-125400000D02*
X220100000Y-125400000D01*
X225800000Y-118600000D02*
X226900000Y-118600000D01*
X225800000Y-125400000D02*
X226900000Y-125400000D01*
X226900000Y-118600000D02*
X226900000Y-119700000D01*
X226900000Y-125400000D02*
X226900000Y-124300000D01*
X228100000Y-82100000D02*
X228100000Y-83200000D01*
X228100000Y-82100000D02*
X229200000Y-82100000D01*
X228100000Y-88900000D02*
X228100000Y-87900000D01*
X229200000Y-88900000D02*
X228100000Y-88900000D01*
X233800000Y-82100000D02*
X234900000Y-82100000D01*
X233800000Y-88900000D02*
X234900000Y-88900000D01*
X234900000Y-82100000D02*
X234900000Y-83200000D01*
X234900000Y-88900000D02*
X234900000Y-87800000D01*
X237600000Y-107600000D02*
X237600000Y-108700000D01*
X237600000Y-107600000D02*
X238700000Y-107600000D01*
X237600000Y-114400000D02*
X237600000Y-113400000D01*
X238700000Y-114400000D02*
X237600000Y-114400000D01*
X243300000Y-107600000D02*
X244400000Y-107600000D01*
X243300000Y-114400000D02*
X244400000Y-114400000D01*
X244400000Y-107600000D02*
X244400000Y-108700000D01*
X244400000Y-114400000D02*
X244400000Y-113300000D01*
X228100000Y-117100000D02*
X228100000Y-118200000D01*
X228100000Y-117100000D02*
X229200000Y-117100000D01*
X228100000Y-123900000D02*
X228100000Y-122900000D01*
X229200000Y-123900000D02*
X228100000Y-123900000D01*
X233800000Y-117100000D02*
X234900000Y-117100000D01*
X233800000Y-123900000D02*
X234900000Y-123900000D01*
X234900000Y-117100000D02*
X234900000Y-118200000D01*
X234900000Y-123900000D02*
X234900000Y-122800000D01*
X239100000Y-99600000D02*
X239100000Y-100700000D01*
X239100000Y-99600000D02*
X240200000Y-99600000D01*
X239100000Y-106400000D02*
X239100000Y-105400000D01*
X240200000Y-106400000D02*
X239100000Y-106400000D01*
X244800000Y-99600000D02*
X245900000Y-99600000D01*
X244800000Y-106400000D02*
X245900000Y-106400000D01*
X245900000Y-99600000D02*
X245900000Y-100700000D01*
X245900000Y-106400000D02*
X245900000Y-105300000D01*
X214100000Y-93100000D02*
X214100000Y-94200000D01*
X214100000Y-93100000D02*
X215200000Y-93100000D01*
X214100000Y-99900000D02*
X214100000Y-98900000D01*
X215200000Y-99900000D02*
X214100000Y-99900000D01*
X219800000Y-93100000D02*
X220900000Y-93100000D01*
X219800000Y-99900000D02*
X220900000Y-99900000D01*
X220900000Y-93100000D02*
X220900000Y-94200000D01*
X220900000Y-99900000D02*
X220900000Y-98800000D01*
X212100000Y-117100000D02*
X212100000Y-118200000D01*
X212100000Y-117100000D02*
X213200000Y-117100000D01*
X212100000Y-123900000D02*
X212100000Y-122900000D01*
X213200000Y-123900000D02*
X212100000Y-123900000D01*
X217800000Y-117100000D02*
X218900000Y-117100000D01*
X217800000Y-123900000D02*
X218900000Y-123900000D01*
X218900000Y-117100000D02*
X218900000Y-118200000D01*
X218900000Y-123900000D02*
X218900000Y-122800000D01*
X226100000Y-105600000D02*
X226100000Y-106700000D01*
X226100000Y-105600000D02*
X227200000Y-105600000D01*
X226100000Y-112400000D02*
X226100000Y-111400000D01*
X227200000Y-112400000D02*
X226100000Y-112400000D01*
X231800000Y-105600000D02*
X232900000Y-105600000D01*
X231800000Y-112400000D02*
X232900000Y-112400000D01*
X232900000Y-105600000D02*
X232900000Y-106700000D01*
X232900000Y-112400000D02*
X232900000Y-111300000D01*
X202600000Y-91600000D02*
X202600000Y-92700000D01*
X202600000Y-91600000D02*
X203700000Y-91600000D01*
X202600000Y-98400000D02*
X202600000Y-97400000D01*
X203700000Y-98400000D02*
X202600000Y-98400000D01*
X208300000Y-91600000D02*
X209400000Y-91600000D01*
X208300000Y-98400000D02*
X209400000Y-98400000D01*
X209400000Y-91600000D02*
X209400000Y-92700000D01*
X209400000Y-98400000D02*
X209400000Y-97300000D01*
D13*
%TO.C,J\u002A\u002A*%
X167450000Y-110800000D02*
X167450000Y-110800000D01*
X167450000Y-110800000D02*
X167450000Y-110800000D01*
X167450000Y-110900000D02*
X167450000Y-110900000D01*
D11*
X168450000Y-105270000D02*
X175450000Y-105270000D01*
X168450000Y-126130000D02*
X168450000Y-105270000D01*
X175450000Y-105270000D02*
X175450000Y-126130000D01*
X175450000Y-126130000D02*
X168450000Y-126130000D01*
D13*
X167450000Y-110800000D02*
G75*
G02*
X167450000Y-110900000I0J-50000D01*
G01*
X167450000Y-110900000D02*
G75*
G02*
X167450000Y-110800000I0J50000D01*
G01*
X167450000Y-110900000D02*
G75*
G02*
X167450000Y-110800000I0J50000D01*
G01*
D12*
%TO.C,REF\u002A\u002A*%
X214100000Y-105600000D02*
X214100000Y-106700000D01*
X214100000Y-105600000D02*
X215200000Y-105600000D01*
X214100000Y-112400000D02*
X214100000Y-111400000D01*
X215200000Y-112400000D02*
X214100000Y-112400000D01*
X219800000Y-105600000D02*
X220900000Y-105600000D01*
X219800000Y-112400000D02*
X220900000Y-112400000D01*
X220900000Y-105600000D02*
X220900000Y-106700000D01*
X220900000Y-112400000D02*
X220900000Y-111300000D01*
X202600000Y-107600000D02*
X202600000Y-108700000D01*
X202600000Y-107600000D02*
X203700000Y-107600000D01*
X202600000Y-114400000D02*
X202600000Y-113400000D01*
X203700000Y-114400000D02*
X202600000Y-114400000D01*
X208300000Y-107600000D02*
X209400000Y-107600000D01*
X208300000Y-114400000D02*
X209400000Y-114400000D01*
X209400000Y-107600000D02*
X209400000Y-108700000D01*
X209400000Y-114400000D02*
X209400000Y-113300000D01*
%TD*%
M02*
