%TF.GenerationSoftware,KiCad,Pcbnew,9.0.2*%
%TF.CreationDate,2025-05-27T17:54:28-07:00*%
%TF.ProjectId,16_6mSiPMs_9,31365f36-6d53-4695-904d-735f392e6b69,rev?*%
%TF.SameCoordinates,Original*%
%TF.FileFunction,Soldermask,Top*%
%TF.FilePolarity,Negative*%
%FSLAX46Y46*%
G04 Gerber Fmt 4.6, Leading zero omitted, Abs format (unit mm)*
G04 Created by KiCad (PCBNEW 9.0.2) date 2025-05-27 17:54:28*
%MOMM*%
%LPD*%
G01*
G04 APERTURE LIST*
G04 Aperture macros list*
%AMRoundRect*
0 Rectangle with rounded corners*
0 $1 Rounding radius*
0 $2 $3 $4 $5 $6 $7 $8 $9 X,Y pos of 4 corners*
0 Add a 4 corners polygon primitive as box body*
4,1,4,$2,$3,$4,$5,$6,$7,$8,$9,$2,$3,0*
0 Add four circle primitives for the rounded corners*
1,1,$1+$1,$2,$3*
1,1,$1+$1,$4,$5*
1,1,$1+$1,$6,$7*
1,1,$1+$1,$8,$9*
0 Add four rect primitives between the rounded corners*
20,1,$1+$1,$2,$3,$4,$5,0*
20,1,$1+$1,$4,$5,$6,$7,0*
20,1,$1+$1,$6,$7,$8,$9,0*
20,1,$1+$1,$8,$9,$2,$3,0*%
G04 Aperture macros list end*
%ADD10RoundRect,0.087500X-0.087500X-0.337500X0.087500X-0.337500X0.087500X0.337500X-0.087500X0.337500X0*%
%ADD11C,1.100000*%
%ADD12C,1.350000*%
%ADD13R,1.200000X0.500000*%
%ADD14C,1.431000*%
%ADD15RoundRect,0.102000X-0.699000X0.699000X-0.699000X-0.699000X0.699000X-0.699000X0.699000X0.699000X0*%
%ADD16C,1.602000*%
G04 APERTURE END LIST*
D10*
%TO.C,*%
X195000000Y-104000000D03*
%TD*%
D11*
%TO.C,REF\u002A\u002A10*%
X233687500Y-118162500D03*
X229087500Y-118162500D03*
X229087500Y-122362500D03*
X233687500Y-122362500D03*
%TD*%
%TO.C,REF\u002A\u002A10*%
X208287500Y-92762500D03*
X203687500Y-92762500D03*
X203687500Y-96962500D03*
X208287500Y-96962500D03*
%TD*%
D12*
%TO.C,J\u002A\u002A*%
X170450000Y-80755000D03*
X170450000Y-99045000D03*
D13*
X170250000Y-85100000D03*
X173650000Y-85100000D03*
X170250000Y-85900000D03*
X173650000Y-85900000D03*
X170250000Y-86700000D03*
X173650000Y-86700000D03*
X170250000Y-87500000D03*
X173650000Y-87500000D03*
X170250000Y-91500000D03*
X173650000Y-91500000D03*
X170250000Y-92300000D03*
X173650000Y-92300000D03*
X170250000Y-93100000D03*
X173650000Y-93100000D03*
X170250000Y-93900000D03*
X173650000Y-93900000D03*
X170250000Y-94700000D03*
X173650000Y-94700000D03*
D14*
X171950000Y-82005000D03*
X171950000Y-97795000D03*
%TD*%
D10*
%TO.C,*%
X195000000Y-101800000D03*
%TD*%
D11*
%TO.C,REF\u002A\u002A10*%
X233687500Y-83237500D03*
X229087500Y-83237500D03*
X229087500Y-87437500D03*
X233687500Y-87437500D03*
%TD*%
%TO.C,REF\u002A\u002A10*%
X206700000Y-100700000D03*
X202100000Y-100700000D03*
X202100000Y-104900000D03*
X206700000Y-104900000D03*
%TD*%
D15*
%TO.C,REF\u002A\u002A*%
X160000000Y-99960000D03*
D16*
X160000000Y-102500000D03*
X160000000Y-105040000D03*
%TD*%
D11*
%TO.C,REF\u002A\u002A10*%
X219400000Y-107050000D03*
X214800000Y-107050000D03*
X214800000Y-111250000D03*
X219400000Y-111250000D03*
%TD*%
%TO.C,REF\u002A\u002A10*%
X219400000Y-94350000D03*
X214800000Y-94350000D03*
X214800000Y-98550000D03*
X219400000Y-98550000D03*
%TD*%
D10*
%TO.C,*%
X194350000Y-104000000D03*
%TD*%
D11*
%TO.C,REF\u002A\u002A10*%
X208287500Y-108637500D03*
X203687500Y-108637500D03*
X203687500Y-112837500D03*
X208287500Y-112837500D03*
%TD*%
%TO.C,REF\u002A\u002A10*%
X225750000Y-81650000D03*
X221150000Y-81650000D03*
X221150000Y-85850000D03*
X225750000Y-85850000D03*
%TD*%
%TO.C,REF\u002A\u002A10*%
X225750000Y-119750000D03*
X221150000Y-119750000D03*
X221150000Y-123950000D03*
X225750000Y-123950000D03*
%TD*%
%TO.C,REF\u002A\u002A10*%
X243212500Y-92762500D03*
X238612500Y-92762500D03*
X238612500Y-96962500D03*
X243212500Y-96962500D03*
%TD*%
%TO.C,REF\u002A\u002A10*%
X244800000Y-100700000D03*
X240200000Y-100700000D03*
X240200000Y-104900000D03*
X244800000Y-104900000D03*
%TD*%
%TO.C,REF\u002A\u002A10*%
X243212500Y-108637500D03*
X238612500Y-108637500D03*
X238612500Y-112837500D03*
X243212500Y-112837500D03*
%TD*%
%TO.C,REF\u002A\u002A10*%
X232100000Y-94350000D03*
X227500000Y-94350000D03*
X227500000Y-98550000D03*
X232100000Y-98550000D03*
%TD*%
D10*
%TO.C,*%
X193700000Y-104000000D03*
%TD*%
D12*
%TO.C,J\u002A\u002A*%
X170450000Y-106555000D03*
X170450000Y-124845000D03*
D13*
X170250000Y-110900000D03*
X173650000Y-110900000D03*
X170250000Y-111700000D03*
X173650000Y-111700000D03*
X170250000Y-112500000D03*
X173650000Y-112500000D03*
X170250000Y-113300000D03*
X173650000Y-113300000D03*
X170250000Y-117300000D03*
X173650000Y-117300000D03*
X170250000Y-118100000D03*
X173650000Y-118100000D03*
X170250000Y-118900000D03*
X173650000Y-118900000D03*
X170250000Y-119700000D03*
X173650000Y-119700000D03*
X170250000Y-120500000D03*
X173650000Y-120500000D03*
D14*
X171950000Y-107805000D03*
X171950000Y-123595000D03*
%TD*%
D11*
%TO.C,REF\u002A\u002A10*%
X217812500Y-118162500D03*
X213212500Y-118162500D03*
X213212500Y-122362500D03*
X217812500Y-122362500D03*
%TD*%
%TO.C,REF\u002A\u002A10*%
X217812500Y-83237500D03*
X213212500Y-83237500D03*
X213212500Y-87437500D03*
X217812500Y-87437500D03*
%TD*%
D10*
%TO.C,*%
X193700000Y-101800000D03*
%TD*%
D11*
%TO.C,REF\u002A\u002A10*%
X232100000Y-107050000D03*
X227500000Y-107050000D03*
X227500000Y-111250000D03*
X232100000Y-111250000D03*
%TD*%
M02*
