%TF.GenerationSoftware,KiCad,Pcbnew,9.0.2*%
%TF.CreationDate,2025-06-06T11:43:41-07:00*%
%TF.ProjectId,Stencil,5374656e-6369-46c2-9e6b-696361645f70,rev?*%
%TF.SameCoordinates,Original*%
%TF.FileFunction,Paste,Top*%
%TF.FilePolarity,Positive*%
%FSLAX46Y46*%
G04 Gerber Fmt 4.6, Leading zero omitted, Abs format (unit mm)*
G04 Created by KiCad (PCBNEW 9.0.2) date 2025-06-06 11:43:41*
%MOMM*%
%LPD*%
G01*
G04 APERTURE LIST*
G04 Aperture macros list*
%AMRoundRect*
0 Rectangle with rounded corners*
0 $1 Rounding radius*
0 $2 $3 $4 $5 $6 $7 $8 $9 X,Y pos of 4 corners*
0 Add a 4 corners polygon primitive as box body*
4,1,4,$2,$3,$4,$5,$6,$7,$8,$9,$2,$3,0*
0 Add four circle primitives for the rounded corners*
1,1,$1+$1,$2,$3*
1,1,$1+$1,$4,$5*
1,1,$1+$1,$6,$7*
1,1,$1+$1,$8,$9*
0 Add four rect primitives between the rounded corners*
20,1,$1+$1,$2,$3,$4,$5,0*
20,1,$1+$1,$4,$5,$6,$7,0*
20,1,$1+$1,$6,$7,$8,$9,0*
20,1,$1+$1,$8,$9,$2,$3,0*%
G04 Aperture macros list end*
%ADD10C,0.010000*%
%ADD11C,1.270000*%
%ADD12RoundRect,0.087500X-0.087500X-0.337500X0.087500X-0.337500X0.087500X0.337500X-0.087500X0.337500X0*%
%ADD13R,1.200000X0.500000*%
%ADD14C,1.100000*%
%ADD15R,0.700000X0.700000*%
%ADD16RoundRect,0.225000X-0.225000X-0.250000X0.225000X-0.250000X0.225000X0.250000X-0.225000X0.250000X0*%
%ADD17RoundRect,0.125000X0.125000X0.475000X-0.125000X0.475000X-0.125000X-0.475000X0.125000X-0.475000X0*%
%ADD18R,0.500000X1.200000*%
G04 APERTURE END LIST*
D10*
%TO.C,REF\u002A\u002A*%
X185566000Y-63227000D02*
X185633000Y-63232000D01*
X185699000Y-63241000D01*
X185764000Y-63253000D01*
X185829000Y-63268000D01*
X185892000Y-63287000D01*
X185955000Y-63309000D01*
X186017000Y-63335000D01*
X186077000Y-63363000D01*
X186135000Y-63395000D01*
X186192000Y-63430000D01*
X186246000Y-63468000D01*
X186299000Y-63508000D01*
X186350000Y-63551000D01*
X186398000Y-63597000D01*
X186444000Y-63645000D01*
X186487000Y-63696000D01*
X186527000Y-63749000D01*
X186565000Y-63803000D01*
X186600000Y-63860000D01*
X186632000Y-63918000D01*
X186660000Y-63978000D01*
X186686000Y-64040000D01*
X186708000Y-64103000D01*
X186727000Y-64166000D01*
X186742000Y-64231000D01*
X186754000Y-64296000D01*
X186763000Y-64362000D01*
X186768000Y-64429000D01*
X186770000Y-64495000D01*
X186768000Y-64561000D01*
X186763000Y-64628000D01*
X186754000Y-64694000D01*
X186742000Y-64759000D01*
X186727000Y-64824000D01*
X186708000Y-64887000D01*
X186686000Y-64950000D01*
X186660000Y-65012000D01*
X186632000Y-65072000D01*
X186600000Y-65130000D01*
X186565000Y-65187000D01*
X186527000Y-65241000D01*
X186487000Y-65294000D01*
X186444000Y-65345000D01*
X186398000Y-65393000D01*
X186373000Y-65416000D01*
X186347000Y-65439000D01*
X186321000Y-65462000D01*
X186294000Y-65484000D01*
X186266000Y-65505000D01*
X186238000Y-65525000D01*
X186209000Y-65544000D01*
X186180000Y-65563000D01*
X186151000Y-65581000D01*
X186120000Y-65598000D01*
X186090000Y-65615000D01*
X186059000Y-65630000D01*
X186027000Y-65645000D01*
X185996000Y-65659000D01*
X185964000Y-65672000D01*
X185931000Y-65685000D01*
X185898000Y-65696000D01*
X185865000Y-65707000D01*
X185832000Y-65716000D01*
X185798000Y-65725000D01*
X185765000Y-65733000D01*
X185731000Y-65740000D01*
X185697000Y-65746000D01*
X185662000Y-65752000D01*
X185628000Y-65756000D01*
X185593000Y-65759000D01*
X185559000Y-65762000D01*
X185524000Y-65764000D01*
X185489000Y-65764000D01*
X185454000Y-65764000D01*
X184231000Y-64541000D01*
X184230740Y-64540960D01*
X184231000Y-64506000D01*
X184231000Y-64471000D01*
X184233000Y-64436000D01*
X184236000Y-64402000D01*
X184239000Y-64367000D01*
X184243000Y-64333000D01*
X184249000Y-64298000D01*
X184255000Y-64264000D01*
X184262000Y-64230000D01*
X184270000Y-64196000D01*
X184279000Y-64163000D01*
X184288000Y-64130000D01*
X184299000Y-64097000D01*
X184310000Y-64064000D01*
X184323000Y-64031000D01*
X184336000Y-63999000D01*
X184350000Y-63967000D01*
X184365000Y-63936000D01*
X184380000Y-63905000D01*
X184397000Y-63875000D01*
X184414000Y-63844000D01*
X184432000Y-63815000D01*
X184451000Y-63786000D01*
X184470000Y-63757000D01*
X184490000Y-63729000D01*
X184511000Y-63701000D01*
X184533000Y-63674000D01*
X184556000Y-63648000D01*
X184579000Y-63622000D01*
X184602000Y-63597000D01*
X184650000Y-63551000D01*
X184701000Y-63508000D01*
X184754000Y-63468000D01*
X184808000Y-63430000D01*
X184865000Y-63395000D01*
X184923000Y-63363000D01*
X184983000Y-63335000D01*
X185045000Y-63309000D01*
X185108000Y-63287000D01*
X185171000Y-63268000D01*
X185236000Y-63253000D01*
X185301000Y-63241000D01*
X185367000Y-63232000D01*
X185434000Y-63227000D01*
X185500000Y-63225000D01*
X185566000Y-63227000D01*
G36*
X185566000Y-63227000D02*
G01*
X185633000Y-63232000D01*
X185699000Y-63241000D01*
X185764000Y-63253000D01*
X185829000Y-63268000D01*
X185892000Y-63287000D01*
X185955000Y-63309000D01*
X186017000Y-63335000D01*
X186077000Y-63363000D01*
X186135000Y-63395000D01*
X186192000Y-63430000D01*
X186246000Y-63468000D01*
X186299000Y-63508000D01*
X186350000Y-63551000D01*
X186398000Y-63597000D01*
X186444000Y-63645000D01*
X186487000Y-63696000D01*
X186527000Y-63749000D01*
X186565000Y-63803000D01*
X186600000Y-63860000D01*
X186632000Y-63918000D01*
X186660000Y-63978000D01*
X186686000Y-64040000D01*
X186708000Y-64103000D01*
X186727000Y-64166000D01*
X186742000Y-64231000D01*
X186754000Y-64296000D01*
X186763000Y-64362000D01*
X186768000Y-64429000D01*
X186770000Y-64495000D01*
X186768000Y-64561000D01*
X186763000Y-64628000D01*
X186754000Y-64694000D01*
X186742000Y-64759000D01*
X186727000Y-64824000D01*
X186708000Y-64887000D01*
X186686000Y-64950000D01*
X186660000Y-65012000D01*
X186632000Y-65072000D01*
X186600000Y-65130000D01*
X186565000Y-65187000D01*
X186527000Y-65241000D01*
X186487000Y-65294000D01*
X186444000Y-65345000D01*
X186398000Y-65393000D01*
X186373000Y-65416000D01*
X186347000Y-65439000D01*
X186321000Y-65462000D01*
X186294000Y-65484000D01*
X186266000Y-65505000D01*
X186238000Y-65525000D01*
X186209000Y-65544000D01*
X186180000Y-65563000D01*
X186151000Y-65581000D01*
X186120000Y-65598000D01*
X186090000Y-65615000D01*
X186059000Y-65630000D01*
X186027000Y-65645000D01*
X185996000Y-65659000D01*
X185964000Y-65672000D01*
X185931000Y-65685000D01*
X185898000Y-65696000D01*
X185865000Y-65707000D01*
X185832000Y-65716000D01*
X185798000Y-65725000D01*
X185765000Y-65733000D01*
X185731000Y-65740000D01*
X185697000Y-65746000D01*
X185662000Y-65752000D01*
X185628000Y-65756000D01*
X185593000Y-65759000D01*
X185559000Y-65762000D01*
X185524000Y-65764000D01*
X185489000Y-65764000D01*
X185454000Y-65764000D01*
X184231000Y-64541000D01*
X184230740Y-64540960D01*
X184231000Y-64506000D01*
X184231000Y-64471000D01*
X184233000Y-64436000D01*
X184236000Y-64402000D01*
X184239000Y-64367000D01*
X184243000Y-64333000D01*
X184249000Y-64298000D01*
X184255000Y-64264000D01*
X184262000Y-64230000D01*
X184270000Y-64196000D01*
X184279000Y-64163000D01*
X184288000Y-64130000D01*
X184299000Y-64097000D01*
X184310000Y-64064000D01*
X184323000Y-64031000D01*
X184336000Y-63999000D01*
X184350000Y-63967000D01*
X184365000Y-63936000D01*
X184380000Y-63905000D01*
X184397000Y-63875000D01*
X184414000Y-63844000D01*
X184432000Y-63815000D01*
X184451000Y-63786000D01*
X184470000Y-63757000D01*
X184490000Y-63729000D01*
X184511000Y-63701000D01*
X184533000Y-63674000D01*
X184556000Y-63648000D01*
X184579000Y-63622000D01*
X184602000Y-63597000D01*
X184650000Y-63551000D01*
X184701000Y-63508000D01*
X184754000Y-63468000D01*
X184808000Y-63430000D01*
X184865000Y-63395000D01*
X184923000Y-63363000D01*
X184983000Y-63335000D01*
X185045000Y-63309000D01*
X185108000Y-63287000D01*
X185171000Y-63268000D01*
X185236000Y-63253000D01*
X185301000Y-63241000D01*
X185367000Y-63232000D01*
X185434000Y-63227000D01*
X185500000Y-63225000D01*
X185566000Y-63227000D01*
G37*
X185489000Y-44236000D02*
X185524000Y-44236000D01*
X185559000Y-44238000D01*
X185593000Y-44241000D01*
X185628000Y-44244000D01*
X185662000Y-44248000D01*
X185697000Y-44254000D01*
X185731000Y-44260000D01*
X185765000Y-44267000D01*
X185798000Y-44275000D01*
X185832000Y-44284000D01*
X185865000Y-44293000D01*
X185898000Y-44304000D01*
X185931000Y-44315000D01*
X185964000Y-44328000D01*
X185996000Y-44341000D01*
X186027000Y-44355000D01*
X186059000Y-44370000D01*
X186090000Y-44385000D01*
X186120000Y-44402000D01*
X186151000Y-44419000D01*
X186180000Y-44437000D01*
X186209000Y-44456000D01*
X186238000Y-44475000D01*
X186266000Y-44495000D01*
X186294000Y-44516000D01*
X186321000Y-44538000D01*
X186347000Y-44561000D01*
X186373000Y-44584000D01*
X186398000Y-44607000D01*
X186444000Y-44655000D01*
X186487000Y-44706000D01*
X186527000Y-44759000D01*
X186565000Y-44813000D01*
X186600000Y-44870000D01*
X186632000Y-44928000D01*
X186660000Y-44988000D01*
X186686000Y-45050000D01*
X186708000Y-45113000D01*
X186727000Y-45176000D01*
X186742000Y-45241000D01*
X186754000Y-45306000D01*
X186763000Y-45372000D01*
X186768000Y-45439000D01*
X186770000Y-45505000D01*
X186768000Y-45571000D01*
X186763000Y-45638000D01*
X186754000Y-45704000D01*
X186742000Y-45769000D01*
X186727000Y-45834000D01*
X186708000Y-45897000D01*
X186686000Y-45960000D01*
X186660000Y-46022000D01*
X186632000Y-46082000D01*
X186600000Y-46140000D01*
X186565000Y-46197000D01*
X186527000Y-46251000D01*
X186487000Y-46304000D01*
X186444000Y-46355000D01*
X186398000Y-46403000D01*
X186350000Y-46449000D01*
X186299000Y-46492000D01*
X186246000Y-46532000D01*
X186192000Y-46570000D01*
X186135000Y-46605000D01*
X186077000Y-46637000D01*
X186017000Y-46665000D01*
X185955000Y-46691000D01*
X185892000Y-46713000D01*
X185829000Y-46732000D01*
X185764000Y-46747000D01*
X185699000Y-46759000D01*
X185633000Y-46768000D01*
X185566000Y-46773000D01*
X185500000Y-46775000D01*
X185434000Y-46773000D01*
X185367000Y-46768000D01*
X185301000Y-46759000D01*
X185236000Y-46747000D01*
X185171000Y-46732000D01*
X185108000Y-46713000D01*
X185045000Y-46691000D01*
X184983000Y-46665000D01*
X184923000Y-46637000D01*
X184865000Y-46605000D01*
X184808000Y-46570000D01*
X184754000Y-46532000D01*
X184701000Y-46492000D01*
X184650000Y-46449000D01*
X184602000Y-46403000D01*
X184579000Y-46378000D01*
X184556000Y-46352000D01*
X184533000Y-46326000D01*
X184511000Y-46299000D01*
X184490000Y-46271000D01*
X184470000Y-46243000D01*
X184451000Y-46214000D01*
X184432000Y-46185000D01*
X184414000Y-46156000D01*
X184397000Y-46125000D01*
X184380000Y-46095000D01*
X184365000Y-46064000D01*
X184350000Y-46033000D01*
X184336000Y-46001000D01*
X184323000Y-45969000D01*
X184310000Y-45936000D01*
X184299000Y-45903000D01*
X184288000Y-45870000D01*
X184279000Y-45837000D01*
X184270000Y-45804000D01*
X184262000Y-45770000D01*
X184255000Y-45736000D01*
X184249000Y-45702000D01*
X184243000Y-45667000D01*
X184239000Y-45633000D01*
X184236000Y-45598000D01*
X184233000Y-45564000D01*
X184231000Y-45529000D01*
X184231000Y-45494000D01*
X184231000Y-45459000D01*
X185454000Y-44236000D01*
X185454041Y-44235700D01*
X185489000Y-44236000D01*
G36*
X185489000Y-44236000D02*
G01*
X185524000Y-44236000D01*
X185559000Y-44238000D01*
X185593000Y-44241000D01*
X185628000Y-44244000D01*
X185662000Y-44248000D01*
X185697000Y-44254000D01*
X185731000Y-44260000D01*
X185765000Y-44267000D01*
X185798000Y-44275000D01*
X185832000Y-44284000D01*
X185865000Y-44293000D01*
X185898000Y-44304000D01*
X185931000Y-44315000D01*
X185964000Y-44328000D01*
X185996000Y-44341000D01*
X186027000Y-44355000D01*
X186059000Y-44370000D01*
X186090000Y-44385000D01*
X186120000Y-44402000D01*
X186151000Y-44419000D01*
X186180000Y-44437000D01*
X186209000Y-44456000D01*
X186238000Y-44475000D01*
X186266000Y-44495000D01*
X186294000Y-44516000D01*
X186321000Y-44538000D01*
X186347000Y-44561000D01*
X186373000Y-44584000D01*
X186398000Y-44607000D01*
X186444000Y-44655000D01*
X186487000Y-44706000D01*
X186527000Y-44759000D01*
X186565000Y-44813000D01*
X186600000Y-44870000D01*
X186632000Y-44928000D01*
X186660000Y-44988000D01*
X186686000Y-45050000D01*
X186708000Y-45113000D01*
X186727000Y-45176000D01*
X186742000Y-45241000D01*
X186754000Y-45306000D01*
X186763000Y-45372000D01*
X186768000Y-45439000D01*
X186770000Y-45505000D01*
X186768000Y-45571000D01*
X186763000Y-45638000D01*
X186754000Y-45704000D01*
X186742000Y-45769000D01*
X186727000Y-45834000D01*
X186708000Y-45897000D01*
X186686000Y-45960000D01*
X186660000Y-46022000D01*
X186632000Y-46082000D01*
X186600000Y-46140000D01*
X186565000Y-46197000D01*
X186527000Y-46251000D01*
X186487000Y-46304000D01*
X186444000Y-46355000D01*
X186398000Y-46403000D01*
X186350000Y-46449000D01*
X186299000Y-46492000D01*
X186246000Y-46532000D01*
X186192000Y-46570000D01*
X186135000Y-46605000D01*
X186077000Y-46637000D01*
X186017000Y-46665000D01*
X185955000Y-46691000D01*
X185892000Y-46713000D01*
X185829000Y-46732000D01*
X185764000Y-46747000D01*
X185699000Y-46759000D01*
X185633000Y-46768000D01*
X185566000Y-46773000D01*
X185500000Y-46775000D01*
X185434000Y-46773000D01*
X185367000Y-46768000D01*
X185301000Y-46759000D01*
X185236000Y-46747000D01*
X185171000Y-46732000D01*
X185108000Y-46713000D01*
X185045000Y-46691000D01*
X184983000Y-46665000D01*
X184923000Y-46637000D01*
X184865000Y-46605000D01*
X184808000Y-46570000D01*
X184754000Y-46532000D01*
X184701000Y-46492000D01*
X184650000Y-46449000D01*
X184602000Y-46403000D01*
X184579000Y-46378000D01*
X184556000Y-46352000D01*
X184533000Y-46326000D01*
X184511000Y-46299000D01*
X184490000Y-46271000D01*
X184470000Y-46243000D01*
X184451000Y-46214000D01*
X184432000Y-46185000D01*
X184414000Y-46156000D01*
X184397000Y-46125000D01*
X184380000Y-46095000D01*
X184365000Y-46064000D01*
X184350000Y-46033000D01*
X184336000Y-46001000D01*
X184323000Y-45969000D01*
X184310000Y-45936000D01*
X184299000Y-45903000D01*
X184288000Y-45870000D01*
X184279000Y-45837000D01*
X184270000Y-45804000D01*
X184262000Y-45770000D01*
X184255000Y-45736000D01*
X184249000Y-45702000D01*
X184243000Y-45667000D01*
X184239000Y-45633000D01*
X184236000Y-45598000D01*
X184233000Y-45564000D01*
X184231000Y-45529000D01*
X184231000Y-45494000D01*
X184231000Y-45459000D01*
X185454000Y-44236000D01*
X185454041Y-44235700D01*
X185489000Y-44236000D01*
G37*
D11*
X171785000Y-109700000D02*
G75*
G02*
X170515000Y-109700000I-635000J0D01*
G01*
X170515000Y-109700000D02*
G75*
G02*
X171785000Y-109700000I635000J0D01*
G01*
X201885000Y-109700000D02*
G75*
G02*
X200615000Y-109700000I-635000J0D01*
G01*
X200615000Y-109700000D02*
G75*
G02*
X201885000Y-109700000I635000J0D01*
G01*
D10*
X204566000Y-63227000D02*
X204633000Y-63232000D01*
X204699000Y-63241000D01*
X204764000Y-63253000D01*
X204829000Y-63268000D01*
X204892000Y-63287000D01*
X204955000Y-63309000D01*
X205017000Y-63335000D01*
X205077000Y-63363000D01*
X205135000Y-63395000D01*
X205192000Y-63430000D01*
X205246000Y-63468000D01*
X205299000Y-63508000D01*
X205350000Y-63551000D01*
X205398000Y-63597000D01*
X205444000Y-63645000D01*
X205487000Y-63696000D01*
X205527000Y-63749000D01*
X205565000Y-63803000D01*
X205600000Y-63860000D01*
X205632000Y-63918000D01*
X205660000Y-63978000D01*
X205686000Y-64040000D01*
X205708000Y-64103000D01*
X205727000Y-64166000D01*
X205742000Y-64231000D01*
X205754000Y-64296000D01*
X205763000Y-64362000D01*
X205768000Y-64429000D01*
X205770000Y-64495000D01*
X205768000Y-64561000D01*
X205763000Y-64628000D01*
X205754000Y-64694000D01*
X205742000Y-64759000D01*
X205727000Y-64824000D01*
X205708000Y-64887000D01*
X205686000Y-64950000D01*
X205660000Y-65012000D01*
X205632000Y-65072000D01*
X205600000Y-65130000D01*
X205565000Y-65187000D01*
X205527000Y-65241000D01*
X205487000Y-65294000D01*
X205444000Y-65345000D01*
X205398000Y-65393000D01*
X205373000Y-65416000D01*
X205347000Y-65439000D01*
X205321000Y-65462000D01*
X205294000Y-65484000D01*
X205266000Y-65505000D01*
X205238000Y-65525000D01*
X205209000Y-65544000D01*
X205180000Y-65563000D01*
X205151000Y-65581000D01*
X205120000Y-65598000D01*
X205090000Y-65615000D01*
X205059000Y-65630000D01*
X205027000Y-65645000D01*
X204996000Y-65659000D01*
X204964000Y-65672000D01*
X204931000Y-65685000D01*
X204898000Y-65696000D01*
X204865000Y-65707000D01*
X204832000Y-65716000D01*
X204798000Y-65725000D01*
X204765000Y-65733000D01*
X204731000Y-65740000D01*
X204697000Y-65746000D01*
X204662000Y-65752000D01*
X204628000Y-65756000D01*
X204593000Y-65759000D01*
X204559000Y-65762000D01*
X204524000Y-65764000D01*
X204489000Y-65764000D01*
X204454000Y-65764000D01*
X203231000Y-64541000D01*
X203230740Y-64540960D01*
X203231000Y-64506000D01*
X203231000Y-64471000D01*
X203233000Y-64436000D01*
X203236000Y-64402000D01*
X203239000Y-64367000D01*
X203243000Y-64333000D01*
X203249000Y-64298000D01*
X203255000Y-64264000D01*
X203262000Y-64230000D01*
X203270000Y-64196000D01*
X203279000Y-64163000D01*
X203288000Y-64130000D01*
X203299000Y-64097000D01*
X203310000Y-64064000D01*
X203323000Y-64031000D01*
X203336000Y-63999000D01*
X203350000Y-63967000D01*
X203365000Y-63936000D01*
X203380000Y-63905000D01*
X203397000Y-63875000D01*
X203414000Y-63844000D01*
X203432000Y-63815000D01*
X203451000Y-63786000D01*
X203470000Y-63757000D01*
X203490000Y-63729000D01*
X203511000Y-63701000D01*
X203533000Y-63674000D01*
X203556000Y-63648000D01*
X203579000Y-63622000D01*
X203602000Y-63597000D01*
X203650000Y-63551000D01*
X203701000Y-63508000D01*
X203754000Y-63468000D01*
X203808000Y-63430000D01*
X203865000Y-63395000D01*
X203923000Y-63363000D01*
X203983000Y-63335000D01*
X204045000Y-63309000D01*
X204108000Y-63287000D01*
X204171000Y-63268000D01*
X204236000Y-63253000D01*
X204301000Y-63241000D01*
X204367000Y-63232000D01*
X204434000Y-63227000D01*
X204500000Y-63225000D01*
X204566000Y-63227000D01*
G36*
X204566000Y-63227000D02*
G01*
X204633000Y-63232000D01*
X204699000Y-63241000D01*
X204764000Y-63253000D01*
X204829000Y-63268000D01*
X204892000Y-63287000D01*
X204955000Y-63309000D01*
X205017000Y-63335000D01*
X205077000Y-63363000D01*
X205135000Y-63395000D01*
X205192000Y-63430000D01*
X205246000Y-63468000D01*
X205299000Y-63508000D01*
X205350000Y-63551000D01*
X205398000Y-63597000D01*
X205444000Y-63645000D01*
X205487000Y-63696000D01*
X205527000Y-63749000D01*
X205565000Y-63803000D01*
X205600000Y-63860000D01*
X205632000Y-63918000D01*
X205660000Y-63978000D01*
X205686000Y-64040000D01*
X205708000Y-64103000D01*
X205727000Y-64166000D01*
X205742000Y-64231000D01*
X205754000Y-64296000D01*
X205763000Y-64362000D01*
X205768000Y-64429000D01*
X205770000Y-64495000D01*
X205768000Y-64561000D01*
X205763000Y-64628000D01*
X205754000Y-64694000D01*
X205742000Y-64759000D01*
X205727000Y-64824000D01*
X205708000Y-64887000D01*
X205686000Y-64950000D01*
X205660000Y-65012000D01*
X205632000Y-65072000D01*
X205600000Y-65130000D01*
X205565000Y-65187000D01*
X205527000Y-65241000D01*
X205487000Y-65294000D01*
X205444000Y-65345000D01*
X205398000Y-65393000D01*
X205373000Y-65416000D01*
X205347000Y-65439000D01*
X205321000Y-65462000D01*
X205294000Y-65484000D01*
X205266000Y-65505000D01*
X205238000Y-65525000D01*
X205209000Y-65544000D01*
X205180000Y-65563000D01*
X205151000Y-65581000D01*
X205120000Y-65598000D01*
X205090000Y-65615000D01*
X205059000Y-65630000D01*
X205027000Y-65645000D01*
X204996000Y-65659000D01*
X204964000Y-65672000D01*
X204931000Y-65685000D01*
X204898000Y-65696000D01*
X204865000Y-65707000D01*
X204832000Y-65716000D01*
X204798000Y-65725000D01*
X204765000Y-65733000D01*
X204731000Y-65740000D01*
X204697000Y-65746000D01*
X204662000Y-65752000D01*
X204628000Y-65756000D01*
X204593000Y-65759000D01*
X204559000Y-65762000D01*
X204524000Y-65764000D01*
X204489000Y-65764000D01*
X204454000Y-65764000D01*
X203231000Y-64541000D01*
X203230740Y-64540960D01*
X203231000Y-64506000D01*
X203231000Y-64471000D01*
X203233000Y-64436000D01*
X203236000Y-64402000D01*
X203239000Y-64367000D01*
X203243000Y-64333000D01*
X203249000Y-64298000D01*
X203255000Y-64264000D01*
X203262000Y-64230000D01*
X203270000Y-64196000D01*
X203279000Y-64163000D01*
X203288000Y-64130000D01*
X203299000Y-64097000D01*
X203310000Y-64064000D01*
X203323000Y-64031000D01*
X203336000Y-63999000D01*
X203350000Y-63967000D01*
X203365000Y-63936000D01*
X203380000Y-63905000D01*
X203397000Y-63875000D01*
X203414000Y-63844000D01*
X203432000Y-63815000D01*
X203451000Y-63786000D01*
X203470000Y-63757000D01*
X203490000Y-63729000D01*
X203511000Y-63701000D01*
X203533000Y-63674000D01*
X203556000Y-63648000D01*
X203579000Y-63622000D01*
X203602000Y-63597000D01*
X203650000Y-63551000D01*
X203701000Y-63508000D01*
X203754000Y-63468000D01*
X203808000Y-63430000D01*
X203865000Y-63395000D01*
X203923000Y-63363000D01*
X203983000Y-63335000D01*
X204045000Y-63309000D01*
X204108000Y-63287000D01*
X204171000Y-63268000D01*
X204236000Y-63253000D01*
X204301000Y-63241000D01*
X204367000Y-63232000D01*
X204434000Y-63227000D01*
X204500000Y-63225000D01*
X204566000Y-63227000D01*
G37*
X204489000Y-44236000D02*
X204524000Y-44236000D01*
X204559000Y-44238000D01*
X204593000Y-44241000D01*
X204628000Y-44244000D01*
X204662000Y-44248000D01*
X204697000Y-44254000D01*
X204731000Y-44260000D01*
X204765000Y-44267000D01*
X204798000Y-44275000D01*
X204832000Y-44284000D01*
X204865000Y-44293000D01*
X204898000Y-44304000D01*
X204931000Y-44315000D01*
X204964000Y-44328000D01*
X204996000Y-44341000D01*
X205027000Y-44355000D01*
X205059000Y-44370000D01*
X205090000Y-44385000D01*
X205120000Y-44402000D01*
X205151000Y-44419000D01*
X205180000Y-44437000D01*
X205209000Y-44456000D01*
X205238000Y-44475000D01*
X205266000Y-44495000D01*
X205294000Y-44516000D01*
X205321000Y-44538000D01*
X205347000Y-44561000D01*
X205373000Y-44584000D01*
X205398000Y-44607000D01*
X205444000Y-44655000D01*
X205487000Y-44706000D01*
X205527000Y-44759000D01*
X205565000Y-44813000D01*
X205600000Y-44870000D01*
X205632000Y-44928000D01*
X205660000Y-44988000D01*
X205686000Y-45050000D01*
X205708000Y-45113000D01*
X205727000Y-45176000D01*
X205742000Y-45241000D01*
X205754000Y-45306000D01*
X205763000Y-45372000D01*
X205768000Y-45439000D01*
X205770000Y-45505000D01*
X205768000Y-45571000D01*
X205763000Y-45638000D01*
X205754000Y-45704000D01*
X205742000Y-45769000D01*
X205727000Y-45834000D01*
X205708000Y-45897000D01*
X205686000Y-45960000D01*
X205660000Y-46022000D01*
X205632000Y-46082000D01*
X205600000Y-46140000D01*
X205565000Y-46197000D01*
X205527000Y-46251000D01*
X205487000Y-46304000D01*
X205444000Y-46355000D01*
X205398000Y-46403000D01*
X205350000Y-46449000D01*
X205299000Y-46492000D01*
X205246000Y-46532000D01*
X205192000Y-46570000D01*
X205135000Y-46605000D01*
X205077000Y-46637000D01*
X205017000Y-46665000D01*
X204955000Y-46691000D01*
X204892000Y-46713000D01*
X204829000Y-46732000D01*
X204764000Y-46747000D01*
X204699000Y-46759000D01*
X204633000Y-46768000D01*
X204566000Y-46773000D01*
X204500000Y-46775000D01*
X204434000Y-46773000D01*
X204367000Y-46768000D01*
X204301000Y-46759000D01*
X204236000Y-46747000D01*
X204171000Y-46732000D01*
X204108000Y-46713000D01*
X204045000Y-46691000D01*
X203983000Y-46665000D01*
X203923000Y-46637000D01*
X203865000Y-46605000D01*
X203808000Y-46570000D01*
X203754000Y-46532000D01*
X203701000Y-46492000D01*
X203650000Y-46449000D01*
X203602000Y-46403000D01*
X203579000Y-46378000D01*
X203556000Y-46352000D01*
X203533000Y-46326000D01*
X203511000Y-46299000D01*
X203490000Y-46271000D01*
X203470000Y-46243000D01*
X203451000Y-46214000D01*
X203432000Y-46185000D01*
X203414000Y-46156000D01*
X203397000Y-46125000D01*
X203380000Y-46095000D01*
X203365000Y-46064000D01*
X203350000Y-46033000D01*
X203336000Y-46001000D01*
X203323000Y-45969000D01*
X203310000Y-45936000D01*
X203299000Y-45903000D01*
X203288000Y-45870000D01*
X203279000Y-45837000D01*
X203270000Y-45804000D01*
X203262000Y-45770000D01*
X203255000Y-45736000D01*
X203249000Y-45702000D01*
X203243000Y-45667000D01*
X203239000Y-45633000D01*
X203236000Y-45598000D01*
X203233000Y-45564000D01*
X203231000Y-45529000D01*
X203231000Y-45494000D01*
X203231000Y-45459000D01*
X204454000Y-44236000D01*
X204454041Y-44235700D01*
X204489000Y-44236000D01*
G36*
X204489000Y-44236000D02*
G01*
X204524000Y-44236000D01*
X204559000Y-44238000D01*
X204593000Y-44241000D01*
X204628000Y-44244000D01*
X204662000Y-44248000D01*
X204697000Y-44254000D01*
X204731000Y-44260000D01*
X204765000Y-44267000D01*
X204798000Y-44275000D01*
X204832000Y-44284000D01*
X204865000Y-44293000D01*
X204898000Y-44304000D01*
X204931000Y-44315000D01*
X204964000Y-44328000D01*
X204996000Y-44341000D01*
X205027000Y-44355000D01*
X205059000Y-44370000D01*
X205090000Y-44385000D01*
X205120000Y-44402000D01*
X205151000Y-44419000D01*
X205180000Y-44437000D01*
X205209000Y-44456000D01*
X205238000Y-44475000D01*
X205266000Y-44495000D01*
X205294000Y-44516000D01*
X205321000Y-44538000D01*
X205347000Y-44561000D01*
X205373000Y-44584000D01*
X205398000Y-44607000D01*
X205444000Y-44655000D01*
X205487000Y-44706000D01*
X205527000Y-44759000D01*
X205565000Y-44813000D01*
X205600000Y-44870000D01*
X205632000Y-44928000D01*
X205660000Y-44988000D01*
X205686000Y-45050000D01*
X205708000Y-45113000D01*
X205727000Y-45176000D01*
X205742000Y-45241000D01*
X205754000Y-45306000D01*
X205763000Y-45372000D01*
X205768000Y-45439000D01*
X205770000Y-45505000D01*
X205768000Y-45571000D01*
X205763000Y-45638000D01*
X205754000Y-45704000D01*
X205742000Y-45769000D01*
X205727000Y-45834000D01*
X205708000Y-45897000D01*
X205686000Y-45960000D01*
X205660000Y-46022000D01*
X205632000Y-46082000D01*
X205600000Y-46140000D01*
X205565000Y-46197000D01*
X205527000Y-46251000D01*
X205487000Y-46304000D01*
X205444000Y-46355000D01*
X205398000Y-46403000D01*
X205350000Y-46449000D01*
X205299000Y-46492000D01*
X205246000Y-46532000D01*
X205192000Y-46570000D01*
X205135000Y-46605000D01*
X205077000Y-46637000D01*
X205017000Y-46665000D01*
X204955000Y-46691000D01*
X204892000Y-46713000D01*
X204829000Y-46732000D01*
X204764000Y-46747000D01*
X204699000Y-46759000D01*
X204633000Y-46768000D01*
X204566000Y-46773000D01*
X204500000Y-46775000D01*
X204434000Y-46773000D01*
X204367000Y-46768000D01*
X204301000Y-46759000D01*
X204236000Y-46747000D01*
X204171000Y-46732000D01*
X204108000Y-46713000D01*
X204045000Y-46691000D01*
X203983000Y-46665000D01*
X203923000Y-46637000D01*
X203865000Y-46605000D01*
X203808000Y-46570000D01*
X203754000Y-46532000D01*
X203701000Y-46492000D01*
X203650000Y-46449000D01*
X203602000Y-46403000D01*
X203579000Y-46378000D01*
X203556000Y-46352000D01*
X203533000Y-46326000D01*
X203511000Y-46299000D01*
X203490000Y-46271000D01*
X203470000Y-46243000D01*
X203451000Y-46214000D01*
X203432000Y-46185000D01*
X203414000Y-46156000D01*
X203397000Y-46125000D01*
X203380000Y-46095000D01*
X203365000Y-46064000D01*
X203350000Y-46033000D01*
X203336000Y-46001000D01*
X203323000Y-45969000D01*
X203310000Y-45936000D01*
X203299000Y-45903000D01*
X203288000Y-45870000D01*
X203279000Y-45837000D01*
X203270000Y-45804000D01*
X203262000Y-45770000D01*
X203255000Y-45736000D01*
X203249000Y-45702000D01*
X203243000Y-45667000D01*
X203239000Y-45633000D01*
X203236000Y-45598000D01*
X203233000Y-45564000D01*
X203231000Y-45529000D01*
X203231000Y-45494000D01*
X203231000Y-45459000D01*
X204454000Y-44236000D01*
X204454041Y-44235700D01*
X204489000Y-44236000D01*
G37*
X166766000Y-63327000D02*
X166833000Y-63332000D01*
X166899000Y-63341000D01*
X166964000Y-63353000D01*
X167029000Y-63368000D01*
X167092000Y-63387000D01*
X167155000Y-63409000D01*
X167217000Y-63435000D01*
X167277000Y-63463000D01*
X167335000Y-63495000D01*
X167392000Y-63530000D01*
X167446000Y-63568000D01*
X167499000Y-63608000D01*
X167550000Y-63651000D01*
X167598000Y-63697000D01*
X167644000Y-63745000D01*
X167687000Y-63796000D01*
X167727000Y-63849000D01*
X167765000Y-63903000D01*
X167800000Y-63960000D01*
X167832000Y-64018000D01*
X167860000Y-64078000D01*
X167886000Y-64140000D01*
X167908000Y-64203000D01*
X167927000Y-64266000D01*
X167942000Y-64331000D01*
X167954000Y-64396000D01*
X167963000Y-64462000D01*
X167968000Y-64529000D01*
X167970000Y-64595000D01*
X167968000Y-64661000D01*
X167963000Y-64728000D01*
X167954000Y-64794000D01*
X167942000Y-64859000D01*
X167927000Y-64924000D01*
X167908000Y-64987000D01*
X167886000Y-65050000D01*
X167860000Y-65112000D01*
X167832000Y-65172000D01*
X167800000Y-65230000D01*
X167765000Y-65287000D01*
X167727000Y-65341000D01*
X167687000Y-65394000D01*
X167644000Y-65445000D01*
X167598000Y-65493000D01*
X167573000Y-65516000D01*
X167547000Y-65539000D01*
X167521000Y-65562000D01*
X167494000Y-65584000D01*
X167466000Y-65605000D01*
X167438000Y-65625000D01*
X167409000Y-65644000D01*
X167380000Y-65663000D01*
X167351000Y-65681000D01*
X167320000Y-65698000D01*
X167290000Y-65715000D01*
X167259000Y-65730000D01*
X167227000Y-65745000D01*
X167196000Y-65759000D01*
X167164000Y-65772000D01*
X167131000Y-65785000D01*
X167098000Y-65796000D01*
X167065000Y-65807000D01*
X167032000Y-65816000D01*
X166998000Y-65825000D01*
X166965000Y-65833000D01*
X166931000Y-65840000D01*
X166897000Y-65846000D01*
X166862000Y-65852000D01*
X166828000Y-65856000D01*
X166793000Y-65859000D01*
X166759000Y-65862000D01*
X166724000Y-65864000D01*
X166689000Y-65864000D01*
X166654000Y-65864000D01*
X165431000Y-64641000D01*
X165430740Y-64640960D01*
X165431000Y-64606000D01*
X165431000Y-64571000D01*
X165433000Y-64536000D01*
X165436000Y-64502000D01*
X165439000Y-64467000D01*
X165443000Y-64433000D01*
X165449000Y-64398000D01*
X165455000Y-64364000D01*
X165462000Y-64330000D01*
X165470000Y-64296000D01*
X165479000Y-64263000D01*
X165488000Y-64230000D01*
X165499000Y-64197000D01*
X165510000Y-64164000D01*
X165523000Y-64131000D01*
X165536000Y-64099000D01*
X165550000Y-64067000D01*
X165565000Y-64036000D01*
X165580000Y-64005000D01*
X165597000Y-63975000D01*
X165614000Y-63944000D01*
X165632000Y-63915000D01*
X165651000Y-63886000D01*
X165670000Y-63857000D01*
X165690000Y-63829000D01*
X165711000Y-63801000D01*
X165733000Y-63774000D01*
X165756000Y-63748000D01*
X165779000Y-63722000D01*
X165802000Y-63697000D01*
X165850000Y-63651000D01*
X165901000Y-63608000D01*
X165954000Y-63568000D01*
X166008000Y-63530000D01*
X166065000Y-63495000D01*
X166123000Y-63463000D01*
X166183000Y-63435000D01*
X166245000Y-63409000D01*
X166308000Y-63387000D01*
X166371000Y-63368000D01*
X166436000Y-63353000D01*
X166501000Y-63341000D01*
X166567000Y-63332000D01*
X166634000Y-63327000D01*
X166700000Y-63325000D01*
X166766000Y-63327000D01*
G36*
X166766000Y-63327000D02*
G01*
X166833000Y-63332000D01*
X166899000Y-63341000D01*
X166964000Y-63353000D01*
X167029000Y-63368000D01*
X167092000Y-63387000D01*
X167155000Y-63409000D01*
X167217000Y-63435000D01*
X167277000Y-63463000D01*
X167335000Y-63495000D01*
X167392000Y-63530000D01*
X167446000Y-63568000D01*
X167499000Y-63608000D01*
X167550000Y-63651000D01*
X167598000Y-63697000D01*
X167644000Y-63745000D01*
X167687000Y-63796000D01*
X167727000Y-63849000D01*
X167765000Y-63903000D01*
X167800000Y-63960000D01*
X167832000Y-64018000D01*
X167860000Y-64078000D01*
X167886000Y-64140000D01*
X167908000Y-64203000D01*
X167927000Y-64266000D01*
X167942000Y-64331000D01*
X167954000Y-64396000D01*
X167963000Y-64462000D01*
X167968000Y-64529000D01*
X167970000Y-64595000D01*
X167968000Y-64661000D01*
X167963000Y-64728000D01*
X167954000Y-64794000D01*
X167942000Y-64859000D01*
X167927000Y-64924000D01*
X167908000Y-64987000D01*
X167886000Y-65050000D01*
X167860000Y-65112000D01*
X167832000Y-65172000D01*
X167800000Y-65230000D01*
X167765000Y-65287000D01*
X167727000Y-65341000D01*
X167687000Y-65394000D01*
X167644000Y-65445000D01*
X167598000Y-65493000D01*
X167573000Y-65516000D01*
X167547000Y-65539000D01*
X167521000Y-65562000D01*
X167494000Y-65584000D01*
X167466000Y-65605000D01*
X167438000Y-65625000D01*
X167409000Y-65644000D01*
X167380000Y-65663000D01*
X167351000Y-65681000D01*
X167320000Y-65698000D01*
X167290000Y-65715000D01*
X167259000Y-65730000D01*
X167227000Y-65745000D01*
X167196000Y-65759000D01*
X167164000Y-65772000D01*
X167131000Y-65785000D01*
X167098000Y-65796000D01*
X167065000Y-65807000D01*
X167032000Y-65816000D01*
X166998000Y-65825000D01*
X166965000Y-65833000D01*
X166931000Y-65840000D01*
X166897000Y-65846000D01*
X166862000Y-65852000D01*
X166828000Y-65856000D01*
X166793000Y-65859000D01*
X166759000Y-65862000D01*
X166724000Y-65864000D01*
X166689000Y-65864000D01*
X166654000Y-65864000D01*
X165431000Y-64641000D01*
X165430740Y-64640960D01*
X165431000Y-64606000D01*
X165431000Y-64571000D01*
X165433000Y-64536000D01*
X165436000Y-64502000D01*
X165439000Y-64467000D01*
X165443000Y-64433000D01*
X165449000Y-64398000D01*
X165455000Y-64364000D01*
X165462000Y-64330000D01*
X165470000Y-64296000D01*
X165479000Y-64263000D01*
X165488000Y-64230000D01*
X165499000Y-64197000D01*
X165510000Y-64164000D01*
X165523000Y-64131000D01*
X165536000Y-64099000D01*
X165550000Y-64067000D01*
X165565000Y-64036000D01*
X165580000Y-64005000D01*
X165597000Y-63975000D01*
X165614000Y-63944000D01*
X165632000Y-63915000D01*
X165651000Y-63886000D01*
X165670000Y-63857000D01*
X165690000Y-63829000D01*
X165711000Y-63801000D01*
X165733000Y-63774000D01*
X165756000Y-63748000D01*
X165779000Y-63722000D01*
X165802000Y-63697000D01*
X165850000Y-63651000D01*
X165901000Y-63608000D01*
X165954000Y-63568000D01*
X166008000Y-63530000D01*
X166065000Y-63495000D01*
X166123000Y-63463000D01*
X166183000Y-63435000D01*
X166245000Y-63409000D01*
X166308000Y-63387000D01*
X166371000Y-63368000D01*
X166436000Y-63353000D01*
X166501000Y-63341000D01*
X166567000Y-63332000D01*
X166634000Y-63327000D01*
X166700000Y-63325000D01*
X166766000Y-63327000D01*
G37*
X166689000Y-44336000D02*
X166724000Y-44336000D01*
X166759000Y-44338000D01*
X166793000Y-44341000D01*
X166828000Y-44344000D01*
X166862000Y-44348000D01*
X166897000Y-44354000D01*
X166931000Y-44360000D01*
X166965000Y-44367000D01*
X166998000Y-44375000D01*
X167032000Y-44384000D01*
X167065000Y-44393000D01*
X167098000Y-44404000D01*
X167131000Y-44415000D01*
X167164000Y-44428000D01*
X167196000Y-44441000D01*
X167227000Y-44455000D01*
X167259000Y-44470000D01*
X167290000Y-44485000D01*
X167320000Y-44502000D01*
X167351000Y-44519000D01*
X167380000Y-44537000D01*
X167409000Y-44556000D01*
X167438000Y-44575000D01*
X167466000Y-44595000D01*
X167494000Y-44616000D01*
X167521000Y-44638000D01*
X167547000Y-44661000D01*
X167573000Y-44684000D01*
X167598000Y-44707000D01*
X167644000Y-44755000D01*
X167687000Y-44806000D01*
X167727000Y-44859000D01*
X167765000Y-44913000D01*
X167800000Y-44970000D01*
X167832000Y-45028000D01*
X167860000Y-45088000D01*
X167886000Y-45150000D01*
X167908000Y-45213000D01*
X167927000Y-45276000D01*
X167942000Y-45341000D01*
X167954000Y-45406000D01*
X167963000Y-45472000D01*
X167968000Y-45539000D01*
X167970000Y-45605000D01*
X167968000Y-45671000D01*
X167963000Y-45738000D01*
X167954000Y-45804000D01*
X167942000Y-45869000D01*
X167927000Y-45934000D01*
X167908000Y-45997000D01*
X167886000Y-46060000D01*
X167860000Y-46122000D01*
X167832000Y-46182000D01*
X167800000Y-46240000D01*
X167765000Y-46297000D01*
X167727000Y-46351000D01*
X167687000Y-46404000D01*
X167644000Y-46455000D01*
X167598000Y-46503000D01*
X167550000Y-46549000D01*
X167499000Y-46592000D01*
X167446000Y-46632000D01*
X167392000Y-46670000D01*
X167335000Y-46705000D01*
X167277000Y-46737000D01*
X167217000Y-46765000D01*
X167155000Y-46791000D01*
X167092000Y-46813000D01*
X167029000Y-46832000D01*
X166964000Y-46847000D01*
X166899000Y-46859000D01*
X166833000Y-46868000D01*
X166766000Y-46873000D01*
X166700000Y-46875000D01*
X166634000Y-46873000D01*
X166567000Y-46868000D01*
X166501000Y-46859000D01*
X166436000Y-46847000D01*
X166371000Y-46832000D01*
X166308000Y-46813000D01*
X166245000Y-46791000D01*
X166183000Y-46765000D01*
X166123000Y-46737000D01*
X166065000Y-46705000D01*
X166008000Y-46670000D01*
X165954000Y-46632000D01*
X165901000Y-46592000D01*
X165850000Y-46549000D01*
X165802000Y-46503000D01*
X165779000Y-46478000D01*
X165756000Y-46452000D01*
X165733000Y-46426000D01*
X165711000Y-46399000D01*
X165690000Y-46371000D01*
X165670000Y-46343000D01*
X165651000Y-46314000D01*
X165632000Y-46285000D01*
X165614000Y-46256000D01*
X165597000Y-46225000D01*
X165580000Y-46195000D01*
X165565000Y-46164000D01*
X165550000Y-46133000D01*
X165536000Y-46101000D01*
X165523000Y-46069000D01*
X165510000Y-46036000D01*
X165499000Y-46003000D01*
X165488000Y-45970000D01*
X165479000Y-45937000D01*
X165470000Y-45904000D01*
X165462000Y-45870000D01*
X165455000Y-45836000D01*
X165449000Y-45802000D01*
X165443000Y-45767000D01*
X165439000Y-45733000D01*
X165436000Y-45698000D01*
X165433000Y-45664000D01*
X165431000Y-45629000D01*
X165431000Y-45594000D01*
X165431000Y-45559000D01*
X166654000Y-44336000D01*
X166654041Y-44335700D01*
X166689000Y-44336000D01*
G36*
X166689000Y-44336000D02*
G01*
X166724000Y-44336000D01*
X166759000Y-44338000D01*
X166793000Y-44341000D01*
X166828000Y-44344000D01*
X166862000Y-44348000D01*
X166897000Y-44354000D01*
X166931000Y-44360000D01*
X166965000Y-44367000D01*
X166998000Y-44375000D01*
X167032000Y-44384000D01*
X167065000Y-44393000D01*
X167098000Y-44404000D01*
X167131000Y-44415000D01*
X167164000Y-44428000D01*
X167196000Y-44441000D01*
X167227000Y-44455000D01*
X167259000Y-44470000D01*
X167290000Y-44485000D01*
X167320000Y-44502000D01*
X167351000Y-44519000D01*
X167380000Y-44537000D01*
X167409000Y-44556000D01*
X167438000Y-44575000D01*
X167466000Y-44595000D01*
X167494000Y-44616000D01*
X167521000Y-44638000D01*
X167547000Y-44661000D01*
X167573000Y-44684000D01*
X167598000Y-44707000D01*
X167644000Y-44755000D01*
X167687000Y-44806000D01*
X167727000Y-44859000D01*
X167765000Y-44913000D01*
X167800000Y-44970000D01*
X167832000Y-45028000D01*
X167860000Y-45088000D01*
X167886000Y-45150000D01*
X167908000Y-45213000D01*
X167927000Y-45276000D01*
X167942000Y-45341000D01*
X167954000Y-45406000D01*
X167963000Y-45472000D01*
X167968000Y-45539000D01*
X167970000Y-45605000D01*
X167968000Y-45671000D01*
X167963000Y-45738000D01*
X167954000Y-45804000D01*
X167942000Y-45869000D01*
X167927000Y-45934000D01*
X167908000Y-45997000D01*
X167886000Y-46060000D01*
X167860000Y-46122000D01*
X167832000Y-46182000D01*
X167800000Y-46240000D01*
X167765000Y-46297000D01*
X167727000Y-46351000D01*
X167687000Y-46404000D01*
X167644000Y-46455000D01*
X167598000Y-46503000D01*
X167550000Y-46549000D01*
X167499000Y-46592000D01*
X167446000Y-46632000D01*
X167392000Y-46670000D01*
X167335000Y-46705000D01*
X167277000Y-46737000D01*
X167217000Y-46765000D01*
X167155000Y-46791000D01*
X167092000Y-46813000D01*
X167029000Y-46832000D01*
X166964000Y-46847000D01*
X166899000Y-46859000D01*
X166833000Y-46868000D01*
X166766000Y-46873000D01*
X166700000Y-46875000D01*
X166634000Y-46873000D01*
X166567000Y-46868000D01*
X166501000Y-46859000D01*
X166436000Y-46847000D01*
X166371000Y-46832000D01*
X166308000Y-46813000D01*
X166245000Y-46791000D01*
X166183000Y-46765000D01*
X166123000Y-46737000D01*
X166065000Y-46705000D01*
X166008000Y-46670000D01*
X165954000Y-46632000D01*
X165901000Y-46592000D01*
X165850000Y-46549000D01*
X165802000Y-46503000D01*
X165779000Y-46478000D01*
X165756000Y-46452000D01*
X165733000Y-46426000D01*
X165711000Y-46399000D01*
X165690000Y-46371000D01*
X165670000Y-46343000D01*
X165651000Y-46314000D01*
X165632000Y-46285000D01*
X165614000Y-46256000D01*
X165597000Y-46225000D01*
X165580000Y-46195000D01*
X165565000Y-46164000D01*
X165550000Y-46133000D01*
X165536000Y-46101000D01*
X165523000Y-46069000D01*
X165510000Y-46036000D01*
X165499000Y-46003000D01*
X165488000Y-45970000D01*
X165479000Y-45937000D01*
X165470000Y-45904000D01*
X165462000Y-45870000D01*
X165455000Y-45836000D01*
X165449000Y-45802000D01*
X165443000Y-45767000D01*
X165439000Y-45733000D01*
X165436000Y-45698000D01*
X165433000Y-45664000D01*
X165431000Y-45629000D01*
X165431000Y-45594000D01*
X165431000Y-45559000D01*
X166654000Y-44336000D01*
X166654041Y-44335700D01*
X166689000Y-44336000D01*
G37*
D11*
X171585000Y-126200000D02*
G75*
G02*
X170315000Y-126200000I-635000J0D01*
G01*
X170315000Y-126200000D02*
G75*
G02*
X171585000Y-126200000I635000J0D01*
G01*
X201685000Y-126200000D02*
G75*
G02*
X200415000Y-126200000I-635000J0D01*
G01*
X200415000Y-126200000D02*
G75*
G02*
X201685000Y-126200000I635000J0D01*
G01*
X223635000Y-93950000D02*
G75*
G02*
X222365000Y-93950000I-635000J0D01*
G01*
X222365000Y-93950000D02*
G75*
G02*
X223635000Y-93950000I635000J0D01*
G01*
X223635000Y-124050000D02*
G75*
G02*
X222365000Y-124050000I-635000J0D01*
G01*
X222365000Y-124050000D02*
G75*
G02*
X223635000Y-124050000I635000J0D01*
G01*
%TD*%
D12*
%TO.C,*%
X151700000Y-83500000D03*
%TD*%
%TO.C,*%
X151700000Y-99300000D03*
%TD*%
%TO.C,*%
X153000000Y-44300000D03*
%TD*%
D13*
%TO.C,J\u002A\u002A*%
X206200000Y-91800000D03*
X202800000Y-91800000D03*
X206200000Y-91000000D03*
X202800000Y-91000000D03*
X206200000Y-90200000D03*
X202800000Y-90200000D03*
X206200000Y-89400000D03*
X202800000Y-89400000D03*
X206200000Y-85400000D03*
X202800000Y-85400000D03*
X206200000Y-84600000D03*
X202800000Y-84600000D03*
X206200000Y-83800000D03*
X202800000Y-83800000D03*
X206200000Y-83000000D03*
X202800000Y-83000000D03*
X206200000Y-82200000D03*
X202800000Y-82200000D03*
%TD*%
D14*
%TO.C,REF\u002A\u002A*%
X225550000Y-71900000D03*
X220950000Y-71900000D03*
X220950000Y-76100000D03*
X225550000Y-76100000D03*
%TD*%
D12*
%TO.C,*%
X153000000Y-46500000D03*
%TD*%
D15*
%TO.C,REF\u002A\u002A20*%
X120252500Y-81450000D03*
X120252500Y-82550000D03*
X118227500Y-81450000D03*
D16*
X120275000Y-83900000D03*
D15*
X118227500Y-82550000D03*
D16*
X118725000Y-83900000D03*
%TD*%
D17*
%TO.C,REF\u002A\u002A*%
X156700000Y-111800000D03*
X156700000Y-115200000D03*
X155900000Y-111800000D03*
X155900000Y-115200000D03*
X155100000Y-111800000D03*
X155100000Y-115200000D03*
X154300000Y-111800000D03*
X154300000Y-115200000D03*
X153500000Y-111800000D03*
X153500000Y-115200000D03*
X152700000Y-111800000D03*
X152700000Y-115200000D03*
X151900000Y-111800000D03*
X151900000Y-115200000D03*
X151100000Y-111800000D03*
X151100000Y-115200000D03*
X150300000Y-111800000D03*
X150300000Y-115200000D03*
X149500000Y-111800000D03*
X149500000Y-115200000D03*
X148700000Y-111800000D03*
X148700000Y-115200000D03*
X147900000Y-111800000D03*
X147900000Y-115200000D03*
X147100000Y-111800000D03*
X147100000Y-115200000D03*
X146300000Y-111800000D03*
X146300000Y-115200000D03*
X145500000Y-111800000D03*
X145500000Y-115200000D03*
X144700000Y-111800000D03*
X144700000Y-115200000D03*
X143900000Y-111800000D03*
X143900000Y-115200000D03*
X143100000Y-111800000D03*
X143100000Y-115200000D03*
X142300000Y-111800000D03*
X142300000Y-115200000D03*
X141500000Y-111800000D03*
X141500000Y-115200000D03*
X140700000Y-111800000D03*
X140700000Y-115200000D03*
X139900000Y-111800000D03*
X139900000Y-115200000D03*
X139100000Y-111800000D03*
X139100000Y-115200000D03*
X138300000Y-111800000D03*
X138300000Y-115200000D03*
X137500000Y-111800000D03*
X137500000Y-115200000D03*
X136700000Y-111800000D03*
X136700000Y-115200000D03*
X135900000Y-111800000D03*
X135900000Y-115200000D03*
X135100000Y-111800000D03*
X135100000Y-115200000D03*
X134300000Y-111800000D03*
X134300000Y-115200000D03*
X133500000Y-111800000D03*
X133500000Y-115200000D03*
X132700000Y-111800000D03*
X132700000Y-115200000D03*
X131900000Y-111800000D03*
X131900000Y-115200000D03*
X127900000Y-111800000D03*
X127900000Y-115200000D03*
X127100000Y-111800000D03*
X127100000Y-115200000D03*
X126300000Y-111800000D03*
X126300000Y-115200000D03*
X125500000Y-111800000D03*
X125500000Y-115200000D03*
X124700000Y-111800000D03*
X124700000Y-115200000D03*
X123900000Y-111800000D03*
X123900000Y-115200000D03*
X123100000Y-111800000D03*
X123100000Y-115200000D03*
X122300000Y-111800000D03*
X122300000Y-115200000D03*
X121500000Y-111800000D03*
X121500000Y-115200000D03*
X120700000Y-111800000D03*
X120700000Y-115200000D03*
X119900000Y-111800000D03*
X119900000Y-115200000D03*
X119100000Y-111800000D03*
X119100000Y-115200000D03*
X118300000Y-111800000D03*
X118300000Y-115200000D03*
X117500000Y-111800000D03*
X117500000Y-115200000D03*
X116700000Y-111800000D03*
X116700000Y-115200000D03*
X115900000Y-111800000D03*
X115900000Y-115200000D03*
X115100000Y-111800000D03*
X115100000Y-115200000D03*
X114300000Y-111800000D03*
X114300000Y-115200000D03*
X113500000Y-111800000D03*
X113500000Y-115200000D03*
X112700000Y-111800000D03*
X112700000Y-115200000D03*
X111900000Y-111800000D03*
X111900000Y-115200000D03*
X111100000Y-111800000D03*
X111100000Y-115200000D03*
X110300000Y-111800000D03*
X110300000Y-115200000D03*
X109500000Y-111800000D03*
X109500000Y-115200000D03*
X108700000Y-111800000D03*
X108700000Y-115200000D03*
X107900000Y-111800000D03*
X107900000Y-115200000D03*
X107100000Y-111800000D03*
X107100000Y-115200000D03*
X106300000Y-111800000D03*
X106300000Y-115200000D03*
X105500000Y-111800000D03*
X105500000Y-115200000D03*
X104700000Y-111800000D03*
X104700000Y-115200000D03*
X103900000Y-111800000D03*
X103900000Y-115200000D03*
X103100000Y-111800000D03*
X103100000Y-115200000D03*
X102300000Y-111800000D03*
X102300000Y-115200000D03*
X101500000Y-111800000D03*
X101500000Y-115200000D03*
X100700000Y-111800000D03*
X100700000Y-115200000D03*
X99900000Y-111800000D03*
X99900000Y-115200000D03*
X99100000Y-111800000D03*
X99100000Y-115200000D03*
X98300000Y-111800000D03*
X98300000Y-115200000D03*
%TD*%
D15*
%TO.C,REF\u002A\u002A20*%
X138005000Y-45000000D03*
X138005000Y-46100000D03*
X135980000Y-45000000D03*
D16*
X138027500Y-47450000D03*
D15*
X135980000Y-46100000D03*
D16*
X136477500Y-47450000D03*
%TD*%
D15*
%TO.C,REF\u002A\u002A20*%
X100252500Y-44950000D03*
X100252500Y-46050000D03*
X98227500Y-44950000D03*
D16*
X100275000Y-47400000D03*
D15*
X98227500Y-46050000D03*
D16*
X98725000Y-47400000D03*
%TD*%
D12*
%TO.C,*%
X152350000Y-83500000D03*
%TD*%
D15*
%TO.C,REF\u002A\u002A20*%
X120257500Y-63050000D03*
X120257500Y-64150000D03*
X118232500Y-63050000D03*
D16*
X120280000Y-65500000D03*
D15*
X118232500Y-64150000D03*
D16*
X118730000Y-65500000D03*
%TD*%
D12*
%TO.C,*%
X153000000Y-99300000D03*
%TD*%
D13*
%TO.C,J\u002A\u002A*%
X187200000Y-91800000D03*
X183800000Y-91800000D03*
X187200000Y-91000000D03*
X183800000Y-91000000D03*
X187200000Y-90200000D03*
X183800000Y-90200000D03*
X187200000Y-89400000D03*
X183800000Y-89400000D03*
X187200000Y-85400000D03*
X183800000Y-85400000D03*
X187200000Y-84600000D03*
X183800000Y-84600000D03*
X187200000Y-83800000D03*
X183800000Y-83800000D03*
X187200000Y-83000000D03*
X183800000Y-83000000D03*
X187200000Y-82200000D03*
X183800000Y-82200000D03*
%TD*%
D12*
%TO.C,*%
X153000000Y-81300000D03*
%TD*%
D15*
%TO.C,REF\u002A\u002A20*%
X138252500Y-81450000D03*
X138252500Y-82550000D03*
X136227500Y-81450000D03*
D16*
X138275000Y-83900000D03*
D15*
X136227500Y-82550000D03*
D16*
X136725000Y-83900000D03*
%TD*%
D12*
%TO.C,*%
X152350000Y-101500000D03*
%TD*%
D15*
%TO.C,REF\u002A\u002A20*%
X100752500Y-99450000D03*
X100752500Y-100550000D03*
X98727500Y-99450000D03*
D16*
X100775000Y-101900000D03*
D15*
X98727500Y-100550000D03*
D16*
X99225000Y-101900000D03*
%TD*%
D15*
%TO.C,REF\u002A\u002A20*%
X138257500Y-63050000D03*
X138257500Y-64150000D03*
X136232500Y-63050000D03*
D16*
X138280000Y-65500000D03*
D15*
X136232500Y-64150000D03*
D16*
X136730000Y-65500000D03*
%TD*%
D15*
%TO.C,REF\u002A\u002A20*%
X138505000Y-99500000D03*
X138505000Y-100600000D03*
X136480000Y-99500000D03*
D16*
X138527500Y-101950000D03*
D15*
X136480000Y-100600000D03*
D16*
X136977500Y-101950000D03*
%TD*%
D13*
%TO.C,REF\u002A\u002A*%
X183800000Y-48600000D03*
X187200000Y-48600000D03*
X183800000Y-49400000D03*
X187200000Y-49400000D03*
X183800000Y-50200000D03*
X187200000Y-50200000D03*
X183800000Y-51000000D03*
X187200000Y-51000000D03*
X183800000Y-51800000D03*
X187200000Y-51800000D03*
X183800000Y-52600000D03*
X187200000Y-52600000D03*
X183800000Y-56600000D03*
X187200000Y-56600000D03*
X183800000Y-57400000D03*
X187200000Y-57400000D03*
X183800000Y-58200000D03*
X187200000Y-58200000D03*
X183800000Y-59000000D03*
X187200000Y-59000000D03*
X183800000Y-59800000D03*
X187200000Y-59800000D03*
X183800000Y-60600000D03*
X187200000Y-60600000D03*
X183800000Y-61400000D03*
X187200000Y-61400000D03*
%TD*%
D18*
%TO.C,REF\u002A\u002A*%
X175000000Y-111400000D03*
X175000000Y-108000000D03*
X175800000Y-111400000D03*
X175800000Y-108000000D03*
X176600000Y-111400000D03*
X176600000Y-108000000D03*
X177400000Y-111400000D03*
X177400000Y-108000000D03*
X178200000Y-111400000D03*
X178200000Y-108000000D03*
X179000000Y-111400000D03*
X179000000Y-108000000D03*
X183000000Y-111400000D03*
X183000000Y-108000000D03*
X183800000Y-111400000D03*
X183800000Y-108000000D03*
X184600000Y-111400000D03*
X184600000Y-108000000D03*
X185400000Y-111400000D03*
X185400000Y-108000000D03*
X186200000Y-111400000D03*
X186200000Y-108000000D03*
X187000000Y-111400000D03*
X187000000Y-108000000D03*
X187800000Y-111400000D03*
X187800000Y-108000000D03*
X188600000Y-111400000D03*
X188600000Y-108000000D03*
X189400000Y-111400000D03*
X189400000Y-108000000D03*
X190200000Y-111400000D03*
X190200000Y-108000000D03*
X191000000Y-111400000D03*
X191000000Y-108000000D03*
X191800000Y-111400000D03*
X191800000Y-108000000D03*
X192600000Y-111400000D03*
X192600000Y-108000000D03*
X193400000Y-111400000D03*
X193400000Y-108000000D03*
X194200000Y-111400000D03*
X194200000Y-108000000D03*
X195000000Y-111400000D03*
X195000000Y-108000000D03*
X195800000Y-111400000D03*
X195800000Y-108000000D03*
X196600000Y-111400000D03*
X196600000Y-108000000D03*
X197400000Y-111400000D03*
X197400000Y-108000000D03*
%TD*%
D15*
%TO.C,REF\u002A\u002A20*%
X100500000Y-81400000D03*
X100500000Y-82500000D03*
X98475000Y-81400000D03*
D16*
X100522500Y-83850000D03*
D15*
X98475000Y-82500000D03*
D16*
X98972500Y-83850000D03*
%TD*%
D12*
%TO.C,*%
X153000000Y-64000000D03*
%TD*%
D13*
%TO.C,J\u002A\u002A*%
X167900000Y-91900000D03*
X164500000Y-91900000D03*
X167900000Y-91100000D03*
X164500000Y-91100000D03*
X167900000Y-90300000D03*
X164500000Y-90300000D03*
X167900000Y-89500000D03*
X164500000Y-89500000D03*
X167900000Y-85500000D03*
X164500000Y-85500000D03*
X167900000Y-84700000D03*
X164500000Y-84700000D03*
X167900000Y-83900000D03*
X164500000Y-83900000D03*
X167900000Y-83100000D03*
X164500000Y-83100000D03*
X167900000Y-82300000D03*
X164500000Y-82300000D03*
%TD*%
%TO.C,REF\u002A\u002A*%
X202800000Y-48600000D03*
X206200000Y-48600000D03*
X202800000Y-49400000D03*
X206200000Y-49400000D03*
X202800000Y-50200000D03*
X206200000Y-50200000D03*
X202800000Y-51000000D03*
X206200000Y-51000000D03*
X202800000Y-51800000D03*
X206200000Y-51800000D03*
X202800000Y-52600000D03*
X206200000Y-52600000D03*
X202800000Y-56600000D03*
X206200000Y-56600000D03*
X202800000Y-57400000D03*
X206200000Y-57400000D03*
X202800000Y-58200000D03*
X206200000Y-58200000D03*
X202800000Y-59000000D03*
X206200000Y-59000000D03*
X202800000Y-59800000D03*
X206200000Y-59800000D03*
X202800000Y-60600000D03*
X206200000Y-60600000D03*
X202800000Y-61400000D03*
X206200000Y-61400000D03*
%TD*%
D12*
%TO.C,*%
X152350000Y-46500000D03*
%TD*%
%TO.C,*%
X151700000Y-44300000D03*
%TD*%
%TO.C,*%
X151700000Y-81300000D03*
%TD*%
D13*
%TO.C,REF\u002A\u002A*%
X165000000Y-48700000D03*
X168400000Y-48700000D03*
X165000000Y-49500000D03*
X168400000Y-49500000D03*
X165000000Y-50300000D03*
X168400000Y-50300000D03*
X165000000Y-51100000D03*
X168400000Y-51100000D03*
X165000000Y-51900000D03*
X168400000Y-51900000D03*
X165000000Y-52700000D03*
X168400000Y-52700000D03*
X165000000Y-56700000D03*
X168400000Y-56700000D03*
X165000000Y-57500000D03*
X168400000Y-57500000D03*
X165000000Y-58300000D03*
X168400000Y-58300000D03*
X165000000Y-59100000D03*
X168400000Y-59100000D03*
X165000000Y-59900000D03*
X168400000Y-59900000D03*
X165000000Y-60700000D03*
X168400000Y-60700000D03*
X165000000Y-61500000D03*
X168400000Y-61500000D03*
%TD*%
D12*
%TO.C,*%
X151700000Y-46500000D03*
%TD*%
%TO.C,*%
X153000000Y-83500000D03*
%TD*%
D15*
%TO.C,REF\u002A\u002A20*%
X100505000Y-63000000D03*
X100505000Y-64100000D03*
X98480000Y-63000000D03*
D16*
X100527500Y-65450000D03*
D15*
X98480000Y-64100000D03*
D16*
X98977500Y-65450000D03*
%TD*%
D14*
%TO.C,REF\u002A\u002A*%
X225550000Y-44400000D03*
X220950000Y-44400000D03*
X220950000Y-48600000D03*
X225550000Y-48600000D03*
%TD*%
%TO.C,REF\u002A\u002A*%
X225550000Y-57900000D03*
X220950000Y-57900000D03*
X220950000Y-62100000D03*
X225550000Y-62100000D03*
%TD*%
D12*
%TO.C,*%
X151700000Y-64000000D03*
%TD*%
%TO.C,*%
X153000000Y-61800000D03*
%TD*%
%TO.C,*%
X152350000Y-64000000D03*
%TD*%
D18*
%TO.C,REF\u002A\u002A*%
X174800000Y-127900000D03*
X174800000Y-124500000D03*
X175600000Y-127900000D03*
X175600000Y-124500000D03*
X176400000Y-127900000D03*
X176400000Y-124500000D03*
X177200000Y-127900000D03*
X177200000Y-124500000D03*
X178000000Y-127900000D03*
X178000000Y-124500000D03*
X178800000Y-127900000D03*
X178800000Y-124500000D03*
X182800000Y-127900000D03*
X182800000Y-124500000D03*
X183600000Y-127900000D03*
X183600000Y-124500000D03*
X184400000Y-127900000D03*
X184400000Y-124500000D03*
X185200000Y-127900000D03*
X185200000Y-124500000D03*
X186000000Y-127900000D03*
X186000000Y-124500000D03*
X186800000Y-127900000D03*
X186800000Y-124500000D03*
X187600000Y-127900000D03*
X187600000Y-124500000D03*
X188400000Y-127900000D03*
X188400000Y-124500000D03*
X189200000Y-127900000D03*
X189200000Y-124500000D03*
X190000000Y-127900000D03*
X190000000Y-124500000D03*
X190800000Y-127900000D03*
X190800000Y-124500000D03*
X191600000Y-127900000D03*
X191600000Y-124500000D03*
X192400000Y-127900000D03*
X192400000Y-124500000D03*
X193200000Y-127900000D03*
X193200000Y-124500000D03*
X194000000Y-127900000D03*
X194000000Y-124500000D03*
X194800000Y-127900000D03*
X194800000Y-124500000D03*
X195600000Y-127900000D03*
X195600000Y-124500000D03*
X196400000Y-127900000D03*
X196400000Y-124500000D03*
X197200000Y-127900000D03*
X197200000Y-124500000D03*
%TD*%
D13*
%TO.C,REF\u002A\u002A*%
X224700000Y-120200000D03*
X221300000Y-120200000D03*
X224700000Y-119400000D03*
X221300000Y-119400000D03*
X224700000Y-118600000D03*
X221300000Y-118600000D03*
X224700000Y-117800000D03*
X221300000Y-117800000D03*
X224700000Y-117000000D03*
X221300000Y-117000000D03*
X224700000Y-116200000D03*
X221300000Y-116200000D03*
X224700000Y-112200000D03*
X221300000Y-112200000D03*
X224700000Y-111400000D03*
X221300000Y-111400000D03*
X224700000Y-110600000D03*
X221300000Y-110600000D03*
X224700000Y-109800000D03*
X221300000Y-109800000D03*
X224700000Y-109000000D03*
X221300000Y-109000000D03*
X224700000Y-108200000D03*
X221300000Y-108200000D03*
X224700000Y-107400000D03*
X221300000Y-107400000D03*
X224700000Y-106600000D03*
X221300000Y-106600000D03*
X224700000Y-105800000D03*
X221300000Y-105800000D03*
X224700000Y-105000000D03*
X221300000Y-105000000D03*
X224700000Y-104200000D03*
X221300000Y-104200000D03*
X224700000Y-103400000D03*
X221300000Y-103400000D03*
X224700000Y-102600000D03*
X221300000Y-102600000D03*
X224700000Y-101800000D03*
X221300000Y-101800000D03*
X224700000Y-101000000D03*
X221300000Y-101000000D03*
X224700000Y-100200000D03*
X221300000Y-100200000D03*
X224700000Y-99400000D03*
X221300000Y-99400000D03*
X224700000Y-98600000D03*
X221300000Y-98600000D03*
X224700000Y-97800000D03*
X221300000Y-97800000D03*
%TD*%
D12*
%TO.C,*%
X153000000Y-101500000D03*
%TD*%
%TO.C,*%
X151700000Y-101500000D03*
%TD*%
D15*
%TO.C,REF\u002A\u002A20*%
X120005000Y-45000000D03*
X120005000Y-46100000D03*
X117980000Y-45000000D03*
D16*
X120027500Y-47450000D03*
D15*
X117980000Y-46100000D03*
D16*
X118477500Y-47450000D03*
%TD*%
D17*
%TO.C,REF\u002A\u002A*%
X156700000Y-124300000D03*
X156700000Y-127700000D03*
X155900000Y-124300000D03*
X155900000Y-127700000D03*
X155100000Y-124300000D03*
X155100000Y-127700000D03*
X154300000Y-124300000D03*
X154300000Y-127700000D03*
X153500000Y-124300000D03*
X153500000Y-127700000D03*
X152700000Y-124300000D03*
X152700000Y-127700000D03*
X151900000Y-124300000D03*
X151900000Y-127700000D03*
X151100000Y-124300000D03*
X151100000Y-127700000D03*
X150300000Y-124300000D03*
X150300000Y-127700000D03*
X149500000Y-124300000D03*
X149500000Y-127700000D03*
X148700000Y-124300000D03*
X148700000Y-127700000D03*
X147900000Y-124300000D03*
X147900000Y-127700000D03*
X147100000Y-124300000D03*
X147100000Y-127700000D03*
X146300000Y-124300000D03*
X146300000Y-127700000D03*
X145500000Y-124300000D03*
X145500000Y-127700000D03*
X144700000Y-124300000D03*
X144700000Y-127700000D03*
X143900000Y-124300000D03*
X143900000Y-127700000D03*
X143100000Y-124300000D03*
X143100000Y-127700000D03*
X142300000Y-124300000D03*
X142300000Y-127700000D03*
X141500000Y-124300000D03*
X141500000Y-127700000D03*
X140700000Y-124300000D03*
X140700000Y-127700000D03*
X139900000Y-124300000D03*
X139900000Y-127700000D03*
X139100000Y-124300000D03*
X139100000Y-127700000D03*
X138300000Y-124300000D03*
X138300000Y-127700000D03*
X137500000Y-124300000D03*
X137500000Y-127700000D03*
X136700000Y-124300000D03*
X136700000Y-127700000D03*
X135900000Y-124300000D03*
X135900000Y-127700000D03*
X135100000Y-124300000D03*
X135100000Y-127700000D03*
X134300000Y-124300000D03*
X134300000Y-127700000D03*
X133500000Y-124300000D03*
X133500000Y-127700000D03*
X132700000Y-124300000D03*
X132700000Y-127700000D03*
X131900000Y-124300000D03*
X131900000Y-127700000D03*
X127900000Y-124300000D03*
X127900000Y-127700000D03*
X127100000Y-124300000D03*
X127100000Y-127700000D03*
X126300000Y-124300000D03*
X126300000Y-127700000D03*
X125500000Y-124300000D03*
X125500000Y-127700000D03*
X124700000Y-124300000D03*
X124700000Y-127700000D03*
X123900000Y-124300000D03*
X123900000Y-127700000D03*
X123100000Y-124300000D03*
X123100000Y-127700000D03*
X122300000Y-124300000D03*
X122300000Y-127700000D03*
X121500000Y-124300000D03*
X121500000Y-127700000D03*
X120700000Y-124300000D03*
X120700000Y-127700000D03*
X119900000Y-124300000D03*
X119900000Y-127700000D03*
X119100000Y-124300000D03*
X119100000Y-127700000D03*
X118300000Y-124300000D03*
X118300000Y-127700000D03*
X117500000Y-124300000D03*
X117500000Y-127700000D03*
X116700000Y-124300000D03*
X116700000Y-127700000D03*
X115900000Y-124300000D03*
X115900000Y-127700000D03*
X115100000Y-124300000D03*
X115100000Y-127700000D03*
X114300000Y-124300000D03*
X114300000Y-127700000D03*
X113500000Y-124300000D03*
X113500000Y-127700000D03*
X112700000Y-124300000D03*
X112700000Y-127700000D03*
X111900000Y-124300000D03*
X111900000Y-127700000D03*
X111100000Y-124300000D03*
X111100000Y-127700000D03*
X110300000Y-124300000D03*
X110300000Y-127700000D03*
X109500000Y-124300000D03*
X109500000Y-127700000D03*
X108700000Y-124300000D03*
X108700000Y-127700000D03*
X107900000Y-124300000D03*
X107900000Y-127700000D03*
X107100000Y-124300000D03*
X107100000Y-127700000D03*
X106300000Y-124300000D03*
X106300000Y-127700000D03*
X105500000Y-124300000D03*
X105500000Y-127700000D03*
X104700000Y-124300000D03*
X104700000Y-127700000D03*
X103900000Y-124300000D03*
X103900000Y-127700000D03*
X103100000Y-124300000D03*
X103100000Y-127700000D03*
X102300000Y-124300000D03*
X102300000Y-127700000D03*
X101500000Y-124300000D03*
X101500000Y-127700000D03*
X100700000Y-124300000D03*
X100700000Y-127700000D03*
X99900000Y-124300000D03*
X99900000Y-127700000D03*
X99100000Y-124300000D03*
X99100000Y-127700000D03*
X98300000Y-124300000D03*
X98300000Y-127700000D03*
%TD*%
D15*
%TO.C,REF\u002A\u002A20*%
X120505000Y-99500000D03*
X120505000Y-100600000D03*
X118480000Y-99500000D03*
D16*
X120527500Y-101950000D03*
D15*
X118480000Y-100600000D03*
D16*
X118977500Y-101950000D03*
%TD*%
D12*
%TO.C,*%
X151700000Y-61800000D03*
%TD*%
M02*
