%TF.GenerationSoftware,KiCad,Pcbnew,9.0.2*%
%TF.CreationDate,2025-06-06T11:43:41-07:00*%
%TF.ProjectId,Stencil,5374656e-6369-46c2-9e6b-696361645f70,rev?*%
%TF.SameCoordinates,Original*%
%TF.FileFunction,Soldermask,Top*%
%TF.FilePolarity,Negative*%
%FSLAX46Y46*%
G04 Gerber Fmt 4.6, Leading zero omitted, Abs format (unit mm)*
G04 Created by KiCad (PCBNEW 9.0.2) date 2025-06-06 11:43:41*
%MOMM*%
%LPD*%
G01*
G04 APERTURE LIST*
G04 Aperture macros list*
%AMRoundRect*
0 Rectangle with rounded corners*
0 $1 Rounding radius*
0 $2 $3 $4 $5 $6 $7 $8 $9 X,Y pos of 4 corners*
0 Add a 4 corners polygon primitive as box body*
4,1,4,$2,$3,$4,$5,$6,$7,$8,$9,$2,$3,0*
0 Add four circle primitives for the rounded corners*
1,1,$1+$1,$2,$3*
1,1,$1+$1,$4,$5*
1,1,$1+$1,$6,$7*
1,1,$1+$1,$8,$9*
0 Add four rect primitives between the rounded corners*
20,1,$1+$1,$2,$3,$4,$5,0*
20,1,$1+$1,$4,$5,$6,$7,0*
20,1,$1+$1,$6,$7,$8,$9,0*
20,1,$1+$1,$8,$9,$2,$3,0*%
G04 Aperture macros list end*
%ADD10RoundRect,0.087500X-0.087500X-0.337500X0.087500X-0.337500X0.087500X0.337500X-0.087500X0.337500X0*%
%ADD11C,1.350000*%
%ADD12R,1.200000X0.500000*%
%ADD13C,1.431000*%
%ADD14C,1.100000*%
%ADD15R,0.700000X0.700000*%
%ADD16RoundRect,0.225000X-0.225000X-0.250000X0.225000X-0.250000X0.225000X0.250000X-0.225000X0.250000X0*%
%ADD17C,1.270000*%
%ADD18RoundRect,0.125000X0.125000X0.475000X-0.125000X0.475000X-0.125000X-0.475000X0.125000X-0.475000X0*%
%ADD19RoundRect,0.102000X-0.600000X0.250000X-0.600000X-0.250000X0.600000X-0.250000X0.600000X0.250000X0*%
%ADD20C,1.552000*%
%ADD21RoundRect,0.102000X-0.250000X-0.600000X0.250000X-0.600000X0.250000X0.600000X-0.250000X0.600000X0*%
%ADD22RoundRect,0.102000X0.600000X-0.250000X0.600000X0.250000X-0.600000X0.250000X-0.600000X-0.250000X0*%
G04 APERTURE END LIST*
D10*
%TO.C,*%
X151700000Y-83500000D03*
%TD*%
%TO.C,*%
X151700000Y-99300000D03*
%TD*%
%TO.C,*%
X153000000Y-44300000D03*
%TD*%
D11*
%TO.C,J\u002A\u002A*%
X206000000Y-96145000D03*
X206000000Y-77855000D03*
D12*
X206200000Y-91800000D03*
X202800000Y-91800000D03*
X206200000Y-91000000D03*
X202800000Y-91000000D03*
X206200000Y-90200000D03*
X202800000Y-90200000D03*
X206200000Y-89400000D03*
X202800000Y-89400000D03*
X206200000Y-85400000D03*
X202800000Y-85400000D03*
X206200000Y-84600000D03*
X202800000Y-84600000D03*
X206200000Y-83800000D03*
X202800000Y-83800000D03*
X206200000Y-83000000D03*
X202800000Y-83000000D03*
X206200000Y-82200000D03*
X202800000Y-82200000D03*
D13*
X204500000Y-94895000D03*
X204500000Y-79105000D03*
%TD*%
D14*
%TO.C,REF\u002A\u002A*%
X225550000Y-71900000D03*
X220950000Y-71900000D03*
X220950000Y-76100000D03*
X225550000Y-76100000D03*
%TD*%
D10*
%TO.C,*%
X153000000Y-46500000D03*
%TD*%
D15*
%TO.C,REF\u002A\u002A20*%
X120252500Y-81450000D03*
X120252500Y-82550000D03*
X118227500Y-81450000D03*
D16*
X120275000Y-83900000D03*
D15*
X118227500Y-82550000D03*
D16*
X118725000Y-83900000D03*
%TD*%
D17*
%TO.C,REF\u002A\u002A*%
X158200000Y-112000000D03*
X96800000Y-113500000D03*
D18*
X156700000Y-111800000D03*
X156700000Y-115200000D03*
X155900000Y-111800000D03*
X155900000Y-115200000D03*
X155100000Y-111800000D03*
X155100000Y-115200000D03*
X154300000Y-111800000D03*
X154300000Y-115200000D03*
X153500000Y-111800000D03*
X153500000Y-115200000D03*
X152700000Y-111800000D03*
X152700000Y-115200000D03*
X151900000Y-111800000D03*
X151900000Y-115200000D03*
X151100000Y-111800000D03*
X151100000Y-115200000D03*
X150300000Y-111800000D03*
X150300000Y-115200000D03*
X149500000Y-111800000D03*
X149500000Y-115200000D03*
X148700000Y-111800000D03*
X148700000Y-115200000D03*
X147900000Y-111800000D03*
X147900000Y-115200000D03*
X147100000Y-111800000D03*
X147100000Y-115200000D03*
X146300000Y-111800000D03*
X146300000Y-115200000D03*
X145500000Y-111800000D03*
X145500000Y-115200000D03*
X144700000Y-111800000D03*
X144700000Y-115200000D03*
X143900000Y-111800000D03*
X143900000Y-115200000D03*
X143100000Y-111800000D03*
X143100000Y-115200000D03*
X142300000Y-111800000D03*
X142300000Y-115200000D03*
X141500000Y-111800000D03*
X141500000Y-115200000D03*
X140700000Y-111800000D03*
X140700000Y-115200000D03*
X139900000Y-111800000D03*
X139900000Y-115200000D03*
X139100000Y-111800000D03*
X139100000Y-115200000D03*
X138300000Y-111800000D03*
X138300000Y-115200000D03*
X137500000Y-111800000D03*
X137500000Y-115200000D03*
X136700000Y-111800000D03*
X136700000Y-115200000D03*
X135900000Y-111800000D03*
X135900000Y-115200000D03*
X135100000Y-111800000D03*
X135100000Y-115200000D03*
X134300000Y-111800000D03*
X134300000Y-115200000D03*
X133500000Y-111800000D03*
X133500000Y-115200000D03*
X132700000Y-111800000D03*
X132700000Y-115200000D03*
X131900000Y-111800000D03*
X131900000Y-115200000D03*
X127900000Y-111800000D03*
X127900000Y-115200000D03*
X127100000Y-111800000D03*
X127100000Y-115200000D03*
X126300000Y-111800000D03*
X126300000Y-115200000D03*
X125500000Y-111800000D03*
X125500000Y-115200000D03*
X124700000Y-111800000D03*
X124700000Y-115200000D03*
X123900000Y-111800000D03*
X123900000Y-115200000D03*
X123100000Y-111800000D03*
X123100000Y-115200000D03*
X122300000Y-111800000D03*
X122300000Y-115200000D03*
X121500000Y-111800000D03*
X121500000Y-115200000D03*
X120700000Y-111800000D03*
X120700000Y-115200000D03*
X119900000Y-111800000D03*
X119900000Y-115200000D03*
X119100000Y-111800000D03*
X119100000Y-115200000D03*
X118300000Y-111800000D03*
X118300000Y-115200000D03*
X117500000Y-111800000D03*
X117500000Y-115200000D03*
X116700000Y-111800000D03*
X116700000Y-115200000D03*
X115900000Y-111800000D03*
X115900000Y-115200000D03*
X115100000Y-111800000D03*
X115100000Y-115200000D03*
X114300000Y-111800000D03*
X114300000Y-115200000D03*
X113500000Y-111800000D03*
X113500000Y-115200000D03*
X112700000Y-111800000D03*
X112700000Y-115200000D03*
X111900000Y-111800000D03*
X111900000Y-115200000D03*
X111100000Y-111800000D03*
X111100000Y-115200000D03*
X110300000Y-111800000D03*
X110300000Y-115200000D03*
X109500000Y-111800000D03*
X109500000Y-115200000D03*
X108700000Y-111800000D03*
X108700000Y-115200000D03*
X107900000Y-111800000D03*
X107900000Y-115200000D03*
X107100000Y-111800000D03*
X107100000Y-115200000D03*
X106300000Y-111800000D03*
X106300000Y-115200000D03*
X105500000Y-111800000D03*
X105500000Y-115200000D03*
X104700000Y-111800000D03*
X104700000Y-115200000D03*
X103900000Y-111800000D03*
X103900000Y-115200000D03*
X103100000Y-111800000D03*
X103100000Y-115200000D03*
X102300000Y-111800000D03*
X102300000Y-115200000D03*
X101500000Y-111800000D03*
X101500000Y-115200000D03*
X100700000Y-111800000D03*
X100700000Y-115200000D03*
X99900000Y-111800000D03*
X99900000Y-115200000D03*
X99100000Y-111800000D03*
X99100000Y-115200000D03*
X98300000Y-111800000D03*
X98300000Y-115200000D03*
%TD*%
D15*
%TO.C,REF\u002A\u002A20*%
X138005000Y-45000000D03*
X138005000Y-46100000D03*
X135980000Y-45000000D03*
D16*
X138027500Y-47450000D03*
D15*
X135980000Y-46100000D03*
D16*
X136477500Y-47450000D03*
%TD*%
D15*
%TO.C,REF\u002A\u002A20*%
X100252500Y-44950000D03*
X100252500Y-46050000D03*
X98227500Y-44950000D03*
D16*
X100275000Y-47400000D03*
D15*
X98227500Y-46050000D03*
D16*
X98725000Y-47400000D03*
%TD*%
D10*
%TO.C,*%
X152350000Y-83500000D03*
%TD*%
D15*
%TO.C,REF\u002A\u002A20*%
X120257500Y-63050000D03*
X120257500Y-64150000D03*
X118232500Y-63050000D03*
D16*
X120280000Y-65500000D03*
D15*
X118232500Y-64150000D03*
D16*
X118730000Y-65500000D03*
%TD*%
D10*
%TO.C,*%
X153000000Y-99300000D03*
%TD*%
D11*
%TO.C,J\u002A\u002A*%
X187000000Y-96145000D03*
X187000000Y-77855000D03*
D12*
X187200000Y-91800000D03*
X183800000Y-91800000D03*
X187200000Y-91000000D03*
X183800000Y-91000000D03*
X187200000Y-90200000D03*
X183800000Y-90200000D03*
X187200000Y-89400000D03*
X183800000Y-89400000D03*
X187200000Y-85400000D03*
X183800000Y-85400000D03*
X187200000Y-84600000D03*
X183800000Y-84600000D03*
X187200000Y-83800000D03*
X183800000Y-83800000D03*
X187200000Y-83000000D03*
X183800000Y-83000000D03*
X187200000Y-82200000D03*
X183800000Y-82200000D03*
D13*
X185500000Y-94895000D03*
X185500000Y-79105000D03*
%TD*%
D10*
%TO.C,*%
X153000000Y-81300000D03*
%TD*%
D15*
%TO.C,REF\u002A\u002A20*%
X138252500Y-81450000D03*
X138252500Y-82550000D03*
X136227500Y-81450000D03*
D16*
X138275000Y-83900000D03*
D15*
X136227500Y-82550000D03*
D16*
X136725000Y-83900000D03*
%TD*%
D10*
%TO.C,*%
X152350000Y-101500000D03*
%TD*%
D15*
%TO.C,REF\u002A\u002A20*%
X100752500Y-99450000D03*
X100752500Y-100550000D03*
X98727500Y-99450000D03*
D16*
X100775000Y-101900000D03*
D15*
X98727500Y-100550000D03*
D16*
X99225000Y-101900000D03*
%TD*%
D15*
%TO.C,REF\u002A\u002A20*%
X138257500Y-63050000D03*
X138257500Y-64150000D03*
X136232500Y-63050000D03*
D16*
X138280000Y-65500000D03*
D15*
X136232500Y-64150000D03*
D16*
X136730000Y-65500000D03*
%TD*%
D15*
%TO.C,REF\u002A\u002A20*%
X138505000Y-99500000D03*
X138505000Y-100600000D03*
X136480000Y-99500000D03*
D16*
X138527500Y-101950000D03*
D15*
X136480000Y-100600000D03*
D16*
X136977500Y-101950000D03*
%TD*%
D17*
%TO.C,REF\u002A\u002A*%
X184000000Y-44255000D03*
X184000000Y-65745000D03*
D19*
X183800000Y-48600000D03*
X187200000Y-48600000D03*
X183800000Y-49400000D03*
X187200000Y-49400000D03*
X183800000Y-50200000D03*
X187200000Y-50200000D03*
X183800000Y-51000000D03*
X187200000Y-51000000D03*
X183800000Y-51800000D03*
X187200000Y-51800000D03*
X183800000Y-52600000D03*
X187200000Y-52600000D03*
X183800000Y-56600000D03*
X187200000Y-56600000D03*
X183800000Y-57400000D03*
X187200000Y-57400000D03*
X183800000Y-58200000D03*
X187200000Y-58200000D03*
X183800000Y-59000000D03*
X187200000Y-59000000D03*
X183800000Y-59800000D03*
X187200000Y-59800000D03*
X183800000Y-60600000D03*
X187200000Y-60600000D03*
X183800000Y-61400000D03*
X187200000Y-61400000D03*
D20*
X185500000Y-45505000D03*
X185500000Y-64495000D03*
%TD*%
D17*
%TO.C,REF\u002A\u002A*%
X173500000Y-111200000D03*
X198900000Y-109700000D03*
D21*
X175000000Y-111400000D03*
X175000000Y-108000000D03*
X175800000Y-111400000D03*
X175800000Y-108000000D03*
X176600000Y-111400000D03*
X176600000Y-108000000D03*
X177400000Y-111400000D03*
X177400000Y-108000000D03*
X178200000Y-111400000D03*
X178200000Y-108000000D03*
X179000000Y-111400000D03*
X179000000Y-108000000D03*
X183000000Y-111400000D03*
X183000000Y-108000000D03*
X183800000Y-111400000D03*
X183800000Y-108000000D03*
X184600000Y-111400000D03*
X184600000Y-108000000D03*
X185400000Y-111400000D03*
X185400000Y-108000000D03*
X186200000Y-111400000D03*
X186200000Y-108000000D03*
X187000000Y-111400000D03*
X187000000Y-108000000D03*
X187800000Y-111400000D03*
X187800000Y-108000000D03*
X188600000Y-111400000D03*
X188600000Y-108000000D03*
X189400000Y-111400000D03*
X189400000Y-108000000D03*
X190200000Y-111400000D03*
X190200000Y-108000000D03*
X191000000Y-111400000D03*
X191000000Y-108000000D03*
X191800000Y-111400000D03*
X191800000Y-108000000D03*
X192600000Y-111400000D03*
X192600000Y-108000000D03*
X193400000Y-111400000D03*
X193400000Y-108000000D03*
X194200000Y-111400000D03*
X194200000Y-108000000D03*
X195000000Y-111400000D03*
X195000000Y-108000000D03*
X195800000Y-111400000D03*
X195800000Y-108000000D03*
X196600000Y-111400000D03*
X196600000Y-108000000D03*
X197400000Y-111400000D03*
X197400000Y-108000000D03*
D20*
X171150000Y-109700000D03*
X201250000Y-109700000D03*
%TD*%
D15*
%TO.C,REF\u002A\u002A20*%
X100500000Y-81400000D03*
X100500000Y-82500000D03*
X98475000Y-81400000D03*
D16*
X100522500Y-83850000D03*
D15*
X98475000Y-82500000D03*
D16*
X98972500Y-83850000D03*
%TD*%
D10*
%TO.C,*%
X153000000Y-64000000D03*
%TD*%
D11*
%TO.C,J\u002A\u002A*%
X167700000Y-96245000D03*
X167700000Y-77955000D03*
D12*
X167900000Y-91900000D03*
X164500000Y-91900000D03*
X167900000Y-91100000D03*
X164500000Y-91100000D03*
X167900000Y-90300000D03*
X164500000Y-90300000D03*
X167900000Y-89500000D03*
X164500000Y-89500000D03*
X167900000Y-85500000D03*
X164500000Y-85500000D03*
X167900000Y-84700000D03*
X164500000Y-84700000D03*
X167900000Y-83900000D03*
X164500000Y-83900000D03*
X167900000Y-83100000D03*
X164500000Y-83100000D03*
X167900000Y-82300000D03*
X164500000Y-82300000D03*
D13*
X166200000Y-94995000D03*
X166200000Y-79205000D03*
%TD*%
D17*
%TO.C,REF\u002A\u002A*%
X203000000Y-44255000D03*
X203000000Y-65745000D03*
D19*
X202800000Y-48600000D03*
X206200000Y-48600000D03*
X202800000Y-49400000D03*
X206200000Y-49400000D03*
X202800000Y-50200000D03*
X206200000Y-50200000D03*
X202800000Y-51000000D03*
X206200000Y-51000000D03*
X202800000Y-51800000D03*
X206200000Y-51800000D03*
X202800000Y-52600000D03*
X206200000Y-52600000D03*
X202800000Y-56600000D03*
X206200000Y-56600000D03*
X202800000Y-57400000D03*
X206200000Y-57400000D03*
X202800000Y-58200000D03*
X206200000Y-58200000D03*
X202800000Y-59000000D03*
X206200000Y-59000000D03*
X202800000Y-59800000D03*
X206200000Y-59800000D03*
X202800000Y-60600000D03*
X206200000Y-60600000D03*
X202800000Y-61400000D03*
X206200000Y-61400000D03*
D20*
X204500000Y-45505000D03*
X204500000Y-64495000D03*
%TD*%
D10*
%TO.C,*%
X152350000Y-46500000D03*
%TD*%
%TO.C,*%
X151700000Y-44300000D03*
%TD*%
%TO.C,*%
X151700000Y-81300000D03*
%TD*%
D17*
%TO.C,REF\u002A\u002A*%
X165200000Y-44355000D03*
X165200000Y-65845000D03*
D19*
X165000000Y-48700000D03*
X168400000Y-48700000D03*
X165000000Y-49500000D03*
X168400000Y-49500000D03*
X165000000Y-50300000D03*
X168400000Y-50300000D03*
X165000000Y-51100000D03*
X168400000Y-51100000D03*
X165000000Y-51900000D03*
X168400000Y-51900000D03*
X165000000Y-52700000D03*
X168400000Y-52700000D03*
X165000000Y-56700000D03*
X168400000Y-56700000D03*
X165000000Y-57500000D03*
X168400000Y-57500000D03*
X165000000Y-58300000D03*
X168400000Y-58300000D03*
X165000000Y-59100000D03*
X168400000Y-59100000D03*
X165000000Y-59900000D03*
X168400000Y-59900000D03*
X165000000Y-60700000D03*
X168400000Y-60700000D03*
X165000000Y-61500000D03*
X168400000Y-61500000D03*
D20*
X166700000Y-45605000D03*
X166700000Y-64595000D03*
%TD*%
D10*
%TO.C,*%
X151700000Y-46500000D03*
%TD*%
%TO.C,*%
X153000000Y-83500000D03*
%TD*%
D15*
%TO.C,REF\u002A\u002A20*%
X100505000Y-63000000D03*
X100505000Y-64100000D03*
X98480000Y-63000000D03*
D16*
X100527500Y-65450000D03*
D15*
X98480000Y-64100000D03*
D16*
X98977500Y-65450000D03*
%TD*%
D14*
%TO.C,REF\u002A\u002A*%
X225550000Y-44400000D03*
X220950000Y-44400000D03*
X220950000Y-48600000D03*
X225550000Y-48600000D03*
%TD*%
%TO.C,REF\u002A\u002A*%
X225550000Y-57900000D03*
X220950000Y-57900000D03*
X220950000Y-62100000D03*
X225550000Y-62100000D03*
%TD*%
D10*
%TO.C,*%
X151700000Y-64000000D03*
%TD*%
%TO.C,*%
X153000000Y-61800000D03*
%TD*%
%TO.C,*%
X152350000Y-64000000D03*
%TD*%
D17*
%TO.C,REF\u002A\u002A*%
X173300000Y-127700000D03*
X198700000Y-126200000D03*
D21*
X174800000Y-127900000D03*
X174800000Y-124500000D03*
X175600000Y-127900000D03*
X175600000Y-124500000D03*
X176400000Y-127900000D03*
X176400000Y-124500000D03*
X177200000Y-127900000D03*
X177200000Y-124500000D03*
X178000000Y-127900000D03*
X178000000Y-124500000D03*
X178800000Y-127900000D03*
X178800000Y-124500000D03*
X182800000Y-127900000D03*
X182800000Y-124500000D03*
X183600000Y-127900000D03*
X183600000Y-124500000D03*
X184400000Y-127900000D03*
X184400000Y-124500000D03*
X185200000Y-127900000D03*
X185200000Y-124500000D03*
X186000000Y-127900000D03*
X186000000Y-124500000D03*
X186800000Y-127900000D03*
X186800000Y-124500000D03*
X187600000Y-127900000D03*
X187600000Y-124500000D03*
X188400000Y-127900000D03*
X188400000Y-124500000D03*
X189200000Y-127900000D03*
X189200000Y-124500000D03*
X190000000Y-127900000D03*
X190000000Y-124500000D03*
X190800000Y-127900000D03*
X190800000Y-124500000D03*
X191600000Y-127900000D03*
X191600000Y-124500000D03*
X192400000Y-127900000D03*
X192400000Y-124500000D03*
X193200000Y-127900000D03*
X193200000Y-124500000D03*
X194000000Y-127900000D03*
X194000000Y-124500000D03*
X194800000Y-127900000D03*
X194800000Y-124500000D03*
X195600000Y-127900000D03*
X195600000Y-124500000D03*
X196400000Y-127900000D03*
X196400000Y-124500000D03*
X197200000Y-127900000D03*
X197200000Y-124500000D03*
D20*
X170950000Y-126200000D03*
X201050000Y-126200000D03*
%TD*%
D17*
%TO.C,REF\u002A\u002A*%
X224500000Y-121700000D03*
X223000000Y-96300000D03*
D22*
X224700000Y-120200000D03*
X221300000Y-120200000D03*
X224700000Y-119400000D03*
X221300000Y-119400000D03*
X224700000Y-118600000D03*
X221300000Y-118600000D03*
X224700000Y-117800000D03*
X221300000Y-117800000D03*
X224700000Y-117000000D03*
X221300000Y-117000000D03*
X224700000Y-116200000D03*
X221300000Y-116200000D03*
X224700000Y-112200000D03*
X221300000Y-112200000D03*
X224700000Y-111400000D03*
X221300000Y-111400000D03*
X224700000Y-110600000D03*
X221300000Y-110600000D03*
X224700000Y-109800000D03*
X221300000Y-109800000D03*
X224700000Y-109000000D03*
X221300000Y-109000000D03*
X224700000Y-108200000D03*
X221300000Y-108200000D03*
X224700000Y-107400000D03*
X221300000Y-107400000D03*
X224700000Y-106600000D03*
X221300000Y-106600000D03*
X224700000Y-105800000D03*
X221300000Y-105800000D03*
X224700000Y-105000000D03*
X221300000Y-105000000D03*
X224700000Y-104200000D03*
X221300000Y-104200000D03*
X224700000Y-103400000D03*
X221300000Y-103400000D03*
X224700000Y-102600000D03*
X221300000Y-102600000D03*
X224700000Y-101800000D03*
X221300000Y-101800000D03*
X224700000Y-101000000D03*
X221300000Y-101000000D03*
X224700000Y-100200000D03*
X221300000Y-100200000D03*
X224700000Y-99400000D03*
X221300000Y-99400000D03*
X224700000Y-98600000D03*
X221300000Y-98600000D03*
X224700000Y-97800000D03*
X221300000Y-97800000D03*
D20*
X223000000Y-124050000D03*
X223000000Y-93950000D03*
%TD*%
D10*
%TO.C,*%
X153000000Y-101500000D03*
%TD*%
%TO.C,*%
X151700000Y-101500000D03*
%TD*%
D15*
%TO.C,REF\u002A\u002A20*%
X120005000Y-45000000D03*
X120005000Y-46100000D03*
X117980000Y-45000000D03*
D16*
X120027500Y-47450000D03*
D15*
X117980000Y-46100000D03*
D16*
X118477500Y-47450000D03*
%TD*%
D17*
%TO.C,REF\u002A\u002A*%
X158200000Y-124500000D03*
X96800000Y-126000000D03*
D18*
X156700000Y-124300000D03*
X156700000Y-127700000D03*
X155900000Y-124300000D03*
X155900000Y-127700000D03*
X155100000Y-124300000D03*
X155100000Y-127700000D03*
X154300000Y-124300000D03*
X154300000Y-127700000D03*
X153500000Y-124300000D03*
X153500000Y-127700000D03*
X152700000Y-124300000D03*
X152700000Y-127700000D03*
X151900000Y-124300000D03*
X151900000Y-127700000D03*
X151100000Y-124300000D03*
X151100000Y-127700000D03*
X150300000Y-124300000D03*
X150300000Y-127700000D03*
X149500000Y-124300000D03*
X149500000Y-127700000D03*
X148700000Y-124300000D03*
X148700000Y-127700000D03*
X147900000Y-124300000D03*
X147900000Y-127700000D03*
X147100000Y-124300000D03*
X147100000Y-127700000D03*
X146300000Y-124300000D03*
X146300000Y-127700000D03*
X145500000Y-124300000D03*
X145500000Y-127700000D03*
X144700000Y-124300000D03*
X144700000Y-127700000D03*
X143900000Y-124300000D03*
X143900000Y-127700000D03*
X143100000Y-124300000D03*
X143100000Y-127700000D03*
X142300000Y-124300000D03*
X142300000Y-127700000D03*
X141500000Y-124300000D03*
X141500000Y-127700000D03*
X140700000Y-124300000D03*
X140700000Y-127700000D03*
X139900000Y-124300000D03*
X139900000Y-127700000D03*
X139100000Y-124300000D03*
X139100000Y-127700000D03*
X138300000Y-124300000D03*
X138300000Y-127700000D03*
X137500000Y-124300000D03*
X137500000Y-127700000D03*
X136700000Y-124300000D03*
X136700000Y-127700000D03*
X135900000Y-124300000D03*
X135900000Y-127700000D03*
X135100000Y-124300000D03*
X135100000Y-127700000D03*
X134300000Y-124300000D03*
X134300000Y-127700000D03*
X133500000Y-124300000D03*
X133500000Y-127700000D03*
X132700000Y-124300000D03*
X132700000Y-127700000D03*
X131900000Y-124300000D03*
X131900000Y-127700000D03*
X127900000Y-124300000D03*
X127900000Y-127700000D03*
X127100000Y-124300000D03*
X127100000Y-127700000D03*
X126300000Y-124300000D03*
X126300000Y-127700000D03*
X125500000Y-124300000D03*
X125500000Y-127700000D03*
X124700000Y-124300000D03*
X124700000Y-127700000D03*
X123900000Y-124300000D03*
X123900000Y-127700000D03*
X123100000Y-124300000D03*
X123100000Y-127700000D03*
X122300000Y-124300000D03*
X122300000Y-127700000D03*
X121500000Y-124300000D03*
X121500000Y-127700000D03*
X120700000Y-124300000D03*
X120700000Y-127700000D03*
X119900000Y-124300000D03*
X119900000Y-127700000D03*
X119100000Y-124300000D03*
X119100000Y-127700000D03*
X118300000Y-124300000D03*
X118300000Y-127700000D03*
X117500000Y-124300000D03*
X117500000Y-127700000D03*
X116700000Y-124300000D03*
X116700000Y-127700000D03*
X115900000Y-124300000D03*
X115900000Y-127700000D03*
X115100000Y-124300000D03*
X115100000Y-127700000D03*
X114300000Y-124300000D03*
X114300000Y-127700000D03*
X113500000Y-124300000D03*
X113500000Y-127700000D03*
X112700000Y-124300000D03*
X112700000Y-127700000D03*
X111900000Y-124300000D03*
X111900000Y-127700000D03*
X111100000Y-124300000D03*
X111100000Y-127700000D03*
X110300000Y-124300000D03*
X110300000Y-127700000D03*
X109500000Y-124300000D03*
X109500000Y-127700000D03*
X108700000Y-124300000D03*
X108700000Y-127700000D03*
X107900000Y-124300000D03*
X107900000Y-127700000D03*
X107100000Y-124300000D03*
X107100000Y-127700000D03*
X106300000Y-124300000D03*
X106300000Y-127700000D03*
X105500000Y-124300000D03*
X105500000Y-127700000D03*
X104700000Y-124300000D03*
X104700000Y-127700000D03*
X103900000Y-124300000D03*
X103900000Y-127700000D03*
X103100000Y-124300000D03*
X103100000Y-127700000D03*
X102300000Y-124300000D03*
X102300000Y-127700000D03*
X101500000Y-124300000D03*
X101500000Y-127700000D03*
X100700000Y-124300000D03*
X100700000Y-127700000D03*
X99900000Y-124300000D03*
X99900000Y-127700000D03*
X99100000Y-124300000D03*
X99100000Y-127700000D03*
X98300000Y-124300000D03*
X98300000Y-127700000D03*
%TD*%
D15*
%TO.C,REF\u002A\u002A20*%
X120505000Y-99500000D03*
X120505000Y-100600000D03*
X118480000Y-99500000D03*
D16*
X120527500Y-101950000D03*
D15*
X118480000Y-100600000D03*
D16*
X118977500Y-101950000D03*
%TD*%
D10*
%TO.C,*%
X151700000Y-61800000D03*
%TD*%
M02*
