%TF.GenerationSoftware,KiCad,Pcbnew,9.0.2*%
%TF.CreationDate,2025-06-06T11:43:41-07:00*%
%TF.ProjectId,Stencil,5374656e-6369-46c2-9e6b-696361645f70,rev?*%
%TF.SameCoordinates,Original*%
%TF.FileFunction,Legend,Top*%
%TF.FilePolarity,Positive*%
%FSLAX46Y46*%
G04 Gerber Fmt 4.6, Leading zero omitted, Abs format (unit mm)*
G04 Created by KiCad (PCBNEW 9.0.2) date 2025-06-06 11:43:41*
%MOMM*%
%LPD*%
G01*
G04 APERTURE LIST*
%ADD10C,0.150000*%
%ADD11C,0.100000*%
%ADD12C,0.200000*%
%ADD13C,0.120000*%
G04 APERTURE END LIST*
D10*
X176753095Y-117742200D02*
X176895952Y-117789819D01*
X176895952Y-117789819D02*
X177134047Y-117789819D01*
X177134047Y-117789819D02*
X177229285Y-117742200D01*
X177229285Y-117742200D02*
X177276904Y-117694580D01*
X177276904Y-117694580D02*
X177324523Y-117599342D01*
X177324523Y-117599342D02*
X177324523Y-117504104D01*
X177324523Y-117504104D02*
X177276904Y-117408866D01*
X177276904Y-117408866D02*
X177229285Y-117361247D01*
X177229285Y-117361247D02*
X177134047Y-117313628D01*
X177134047Y-117313628D02*
X176943571Y-117266009D01*
X176943571Y-117266009D02*
X176848333Y-117218390D01*
X176848333Y-117218390D02*
X176800714Y-117170771D01*
X176800714Y-117170771D02*
X176753095Y-117075533D01*
X176753095Y-117075533D02*
X176753095Y-116980295D01*
X176753095Y-116980295D02*
X176800714Y-116885057D01*
X176800714Y-116885057D02*
X176848333Y-116837438D01*
X176848333Y-116837438D02*
X176943571Y-116789819D01*
X176943571Y-116789819D02*
X177181666Y-116789819D01*
X177181666Y-116789819D02*
X177324523Y-116837438D01*
X177705476Y-117504104D02*
X178181666Y-117504104D01*
X177610238Y-117789819D02*
X177943571Y-116789819D01*
X177943571Y-116789819D02*
X178276904Y-117789819D01*
X178610238Y-117789819D02*
X178610238Y-116789819D01*
X178610238Y-116789819D02*
X178943571Y-117504104D01*
X178943571Y-117504104D02*
X179276904Y-116789819D01*
X179276904Y-116789819D02*
X179276904Y-117789819D01*
X179610238Y-116789819D02*
X180181666Y-116789819D01*
X179895952Y-117789819D02*
X179895952Y-116789819D01*
X180515000Y-117266009D02*
X180848333Y-117266009D01*
X180991190Y-117789819D02*
X180515000Y-117789819D01*
X180515000Y-117789819D02*
X180515000Y-116789819D01*
X180515000Y-116789819D02*
X180991190Y-116789819D01*
X181991190Y-117694580D02*
X181943571Y-117742200D01*
X181943571Y-117742200D02*
X181800714Y-117789819D01*
X181800714Y-117789819D02*
X181705476Y-117789819D01*
X181705476Y-117789819D02*
X181562619Y-117742200D01*
X181562619Y-117742200D02*
X181467381Y-117646961D01*
X181467381Y-117646961D02*
X181419762Y-117551723D01*
X181419762Y-117551723D02*
X181372143Y-117361247D01*
X181372143Y-117361247D02*
X181372143Y-117218390D01*
X181372143Y-117218390D02*
X181419762Y-117027914D01*
X181419762Y-117027914D02*
X181467381Y-116932676D01*
X181467381Y-116932676D02*
X181562619Y-116837438D01*
X181562619Y-116837438D02*
X181705476Y-116789819D01*
X181705476Y-116789819D02*
X181800714Y-116789819D01*
X181800714Y-116789819D02*
X181943571Y-116837438D01*
X181943571Y-116837438D02*
X181991190Y-116885057D01*
X182181667Y-117885057D02*
X182943571Y-117885057D01*
X183181667Y-117789819D02*
X183181667Y-116789819D01*
X183181667Y-117266009D02*
X183753095Y-117266009D01*
X183753095Y-117789819D02*
X183753095Y-116789819D01*
X184181667Y-117742200D02*
X184324524Y-117789819D01*
X184324524Y-117789819D02*
X184562619Y-117789819D01*
X184562619Y-117789819D02*
X184657857Y-117742200D01*
X184657857Y-117742200D02*
X184705476Y-117694580D01*
X184705476Y-117694580D02*
X184753095Y-117599342D01*
X184753095Y-117599342D02*
X184753095Y-117504104D01*
X184753095Y-117504104D02*
X184705476Y-117408866D01*
X184705476Y-117408866D02*
X184657857Y-117361247D01*
X184657857Y-117361247D02*
X184562619Y-117313628D01*
X184562619Y-117313628D02*
X184372143Y-117266009D01*
X184372143Y-117266009D02*
X184276905Y-117218390D01*
X184276905Y-117218390D02*
X184229286Y-117170771D01*
X184229286Y-117170771D02*
X184181667Y-117075533D01*
X184181667Y-117075533D02*
X184181667Y-116980295D01*
X184181667Y-116980295D02*
X184229286Y-116885057D01*
X184229286Y-116885057D02*
X184276905Y-116837438D01*
X184276905Y-116837438D02*
X184372143Y-116789819D01*
X184372143Y-116789819D02*
X184610238Y-116789819D01*
X184610238Y-116789819D02*
X184753095Y-116837438D01*
X185181667Y-117266009D02*
X185515000Y-117266009D01*
X185657857Y-117789819D02*
X185181667Y-117789819D01*
X185181667Y-117789819D02*
X185181667Y-116789819D01*
X185181667Y-116789819D02*
X185657857Y-116789819D01*
X186657857Y-117694580D02*
X186610238Y-117742200D01*
X186610238Y-117742200D02*
X186467381Y-117789819D01*
X186467381Y-117789819D02*
X186372143Y-117789819D01*
X186372143Y-117789819D02*
X186229286Y-117742200D01*
X186229286Y-117742200D02*
X186134048Y-117646961D01*
X186134048Y-117646961D02*
X186086429Y-117551723D01*
X186086429Y-117551723D02*
X186038810Y-117361247D01*
X186038810Y-117361247D02*
X186038810Y-117218390D01*
X186038810Y-117218390D02*
X186086429Y-117027914D01*
X186086429Y-117027914D02*
X186134048Y-116932676D01*
X186134048Y-116932676D02*
X186229286Y-116837438D01*
X186229286Y-116837438D02*
X186372143Y-116789819D01*
X186372143Y-116789819D02*
X186467381Y-116789819D01*
X186467381Y-116789819D02*
X186610238Y-116837438D01*
X186610238Y-116837438D02*
X186657857Y-116885057D01*
X187229286Y-117218390D02*
X187134048Y-117170771D01*
X187134048Y-117170771D02*
X187086429Y-117123152D01*
X187086429Y-117123152D02*
X187038810Y-117027914D01*
X187038810Y-117027914D02*
X187038810Y-116980295D01*
X187038810Y-116980295D02*
X187086429Y-116885057D01*
X187086429Y-116885057D02*
X187134048Y-116837438D01*
X187134048Y-116837438D02*
X187229286Y-116789819D01*
X187229286Y-116789819D02*
X187419762Y-116789819D01*
X187419762Y-116789819D02*
X187515000Y-116837438D01*
X187515000Y-116837438D02*
X187562619Y-116885057D01*
X187562619Y-116885057D02*
X187610238Y-116980295D01*
X187610238Y-116980295D02*
X187610238Y-117027914D01*
X187610238Y-117027914D02*
X187562619Y-117123152D01*
X187562619Y-117123152D02*
X187515000Y-117170771D01*
X187515000Y-117170771D02*
X187419762Y-117218390D01*
X187419762Y-117218390D02*
X187229286Y-117218390D01*
X187229286Y-117218390D02*
X187134048Y-117266009D01*
X187134048Y-117266009D02*
X187086429Y-117313628D01*
X187086429Y-117313628D02*
X187038810Y-117408866D01*
X187038810Y-117408866D02*
X187038810Y-117599342D01*
X187038810Y-117599342D02*
X187086429Y-117694580D01*
X187086429Y-117694580D02*
X187134048Y-117742200D01*
X187134048Y-117742200D02*
X187229286Y-117789819D01*
X187229286Y-117789819D02*
X187419762Y-117789819D01*
X187419762Y-117789819D02*
X187515000Y-117742200D01*
X187515000Y-117742200D02*
X187562619Y-117694580D01*
X187562619Y-117694580D02*
X187610238Y-117599342D01*
X187610238Y-117599342D02*
X187610238Y-117408866D01*
X187610238Y-117408866D02*
X187562619Y-117313628D01*
X187562619Y-117313628D02*
X187515000Y-117266009D01*
X187515000Y-117266009D02*
X187419762Y-117218390D01*
X188038810Y-117408866D02*
X188800715Y-117408866D01*
X189800714Y-117789819D02*
X189229286Y-117789819D01*
X189515000Y-117789819D02*
X189515000Y-116789819D01*
X189515000Y-116789819D02*
X189419762Y-116932676D01*
X189419762Y-116932676D02*
X189324524Y-117027914D01*
X189324524Y-117027914D02*
X189229286Y-117075533D01*
X190181667Y-116885057D02*
X190229286Y-116837438D01*
X190229286Y-116837438D02*
X190324524Y-116789819D01*
X190324524Y-116789819D02*
X190562619Y-116789819D01*
X190562619Y-116789819D02*
X190657857Y-116837438D01*
X190657857Y-116837438D02*
X190705476Y-116885057D01*
X190705476Y-116885057D02*
X190753095Y-116980295D01*
X190753095Y-116980295D02*
X190753095Y-117075533D01*
X190753095Y-117075533D02*
X190705476Y-117218390D01*
X190705476Y-117218390D02*
X190134048Y-117789819D01*
X190134048Y-117789819D02*
X190753095Y-117789819D01*
X191657857Y-116789819D02*
X191181667Y-116789819D01*
X191181667Y-116789819D02*
X191134048Y-117266009D01*
X191134048Y-117266009D02*
X191181667Y-117218390D01*
X191181667Y-117218390D02*
X191276905Y-117170771D01*
X191276905Y-117170771D02*
X191515000Y-117170771D01*
X191515000Y-117170771D02*
X191610238Y-117218390D01*
X191610238Y-117218390D02*
X191657857Y-117266009D01*
X191657857Y-117266009D02*
X191705476Y-117361247D01*
X191705476Y-117361247D02*
X191705476Y-117599342D01*
X191705476Y-117599342D02*
X191657857Y-117694580D01*
X191657857Y-117694580D02*
X191610238Y-117742200D01*
X191610238Y-117742200D02*
X191515000Y-117789819D01*
X191515000Y-117789819D02*
X191276905Y-117789819D01*
X191276905Y-117789819D02*
X191181667Y-117742200D01*
X191181667Y-117742200D02*
X191134048Y-117694580D01*
X192134048Y-117408866D02*
X192895953Y-117408866D01*
X193562619Y-116789819D02*
X193657857Y-116789819D01*
X193657857Y-116789819D02*
X193753095Y-116837438D01*
X193753095Y-116837438D02*
X193800714Y-116885057D01*
X193800714Y-116885057D02*
X193848333Y-116980295D01*
X193848333Y-116980295D02*
X193895952Y-117170771D01*
X193895952Y-117170771D02*
X193895952Y-117408866D01*
X193895952Y-117408866D02*
X193848333Y-117599342D01*
X193848333Y-117599342D02*
X193800714Y-117694580D01*
X193800714Y-117694580D02*
X193753095Y-117742200D01*
X193753095Y-117742200D02*
X193657857Y-117789819D01*
X193657857Y-117789819D02*
X193562619Y-117789819D01*
X193562619Y-117789819D02*
X193467381Y-117742200D01*
X193467381Y-117742200D02*
X193419762Y-117694580D01*
X193419762Y-117694580D02*
X193372143Y-117599342D01*
X193372143Y-117599342D02*
X193324524Y-117408866D01*
X193324524Y-117408866D02*
X193324524Y-117170771D01*
X193324524Y-117170771D02*
X193372143Y-116980295D01*
X193372143Y-116980295D02*
X193419762Y-116885057D01*
X193419762Y-116885057D02*
X193467381Y-116837438D01*
X193467381Y-116837438D02*
X193562619Y-116789819D01*
X194848333Y-117789819D02*
X194276905Y-117789819D01*
X194562619Y-117789819D02*
X194562619Y-116789819D01*
X194562619Y-116789819D02*
X194467381Y-116932676D01*
X194467381Y-116932676D02*
X194372143Y-117027914D01*
X194372143Y-117027914D02*
X194276905Y-117075533D01*
X195276905Y-117408866D02*
X196038810Y-117408866D01*
X196467381Y-117742200D02*
X196610238Y-117789819D01*
X196610238Y-117789819D02*
X196848333Y-117789819D01*
X196848333Y-117789819D02*
X196943571Y-117742200D01*
X196943571Y-117742200D02*
X196991190Y-117694580D01*
X196991190Y-117694580D02*
X197038809Y-117599342D01*
X197038809Y-117599342D02*
X197038809Y-117504104D01*
X197038809Y-117504104D02*
X196991190Y-117408866D01*
X196991190Y-117408866D02*
X196943571Y-117361247D01*
X196943571Y-117361247D02*
X196848333Y-117313628D01*
X196848333Y-117313628D02*
X196657857Y-117266009D01*
X196657857Y-117266009D02*
X196562619Y-117218390D01*
X196562619Y-117218390D02*
X196515000Y-117170771D01*
X196515000Y-117170771D02*
X196467381Y-117075533D01*
X196467381Y-117075533D02*
X196467381Y-116980295D01*
X196467381Y-116980295D02*
X196515000Y-116885057D01*
X196515000Y-116885057D02*
X196562619Y-116837438D01*
X196562619Y-116837438D02*
X196657857Y-116789819D01*
X196657857Y-116789819D02*
X196895952Y-116789819D01*
X196895952Y-116789819D02*
X197038809Y-116837438D01*
X197467381Y-117408866D02*
X198229286Y-117408866D01*
X198705476Y-117789819D02*
X198705476Y-116789819D01*
X198705476Y-116789819D02*
X198943571Y-116789819D01*
X198943571Y-116789819D02*
X199086428Y-116837438D01*
X199086428Y-116837438D02*
X199181666Y-116932676D01*
X199181666Y-116932676D02*
X199229285Y-117027914D01*
X199229285Y-117027914D02*
X199276904Y-117218390D01*
X199276904Y-117218390D02*
X199276904Y-117361247D01*
X199276904Y-117361247D02*
X199229285Y-117551723D01*
X199229285Y-117551723D02*
X199181666Y-117646961D01*
X199181666Y-117646961D02*
X199086428Y-117742200D01*
X199086428Y-117742200D02*
X198943571Y-117789819D01*
X198943571Y-117789819D02*
X198705476Y-117789819D01*
X199562619Y-116789819D02*
X199895952Y-117789819D01*
X199895952Y-117789819D02*
X200229285Y-116789819D01*
X200562619Y-117408866D02*
X201324524Y-117408866D01*
X201753095Y-117504104D02*
X202229285Y-117504104D01*
X201657857Y-117789819D02*
X201991190Y-116789819D01*
X201991190Y-116789819D02*
X202324523Y-117789819D01*
X202657857Y-117408866D02*
X203419762Y-117408866D01*
X204229285Y-117266009D02*
X204372142Y-117313628D01*
X204372142Y-117313628D02*
X204419761Y-117361247D01*
X204419761Y-117361247D02*
X204467380Y-117456485D01*
X204467380Y-117456485D02*
X204467380Y-117599342D01*
X204467380Y-117599342D02*
X204419761Y-117694580D01*
X204419761Y-117694580D02*
X204372142Y-117742200D01*
X204372142Y-117742200D02*
X204276904Y-117789819D01*
X204276904Y-117789819D02*
X203895952Y-117789819D01*
X203895952Y-117789819D02*
X203895952Y-116789819D01*
X203895952Y-116789819D02*
X204229285Y-116789819D01*
X204229285Y-116789819D02*
X204324523Y-116837438D01*
X204324523Y-116837438D02*
X204372142Y-116885057D01*
X204372142Y-116885057D02*
X204419761Y-116980295D01*
X204419761Y-116980295D02*
X204419761Y-117075533D01*
X204419761Y-117075533D02*
X204372142Y-117170771D01*
X204372142Y-117170771D02*
X204324523Y-117218390D01*
X204324523Y-117218390D02*
X204229285Y-117266009D01*
X204229285Y-117266009D02*
X203895952Y-117266009D01*
X205372142Y-117789819D02*
X204895952Y-117789819D01*
X204895952Y-117789819D02*
X204895952Y-116789819D01*
X176553095Y-134242200D02*
X176695952Y-134289819D01*
X176695952Y-134289819D02*
X176934047Y-134289819D01*
X176934047Y-134289819D02*
X177029285Y-134242200D01*
X177029285Y-134242200D02*
X177076904Y-134194580D01*
X177076904Y-134194580D02*
X177124523Y-134099342D01*
X177124523Y-134099342D02*
X177124523Y-134004104D01*
X177124523Y-134004104D02*
X177076904Y-133908866D01*
X177076904Y-133908866D02*
X177029285Y-133861247D01*
X177029285Y-133861247D02*
X176934047Y-133813628D01*
X176934047Y-133813628D02*
X176743571Y-133766009D01*
X176743571Y-133766009D02*
X176648333Y-133718390D01*
X176648333Y-133718390D02*
X176600714Y-133670771D01*
X176600714Y-133670771D02*
X176553095Y-133575533D01*
X176553095Y-133575533D02*
X176553095Y-133480295D01*
X176553095Y-133480295D02*
X176600714Y-133385057D01*
X176600714Y-133385057D02*
X176648333Y-133337438D01*
X176648333Y-133337438D02*
X176743571Y-133289819D01*
X176743571Y-133289819D02*
X176981666Y-133289819D01*
X176981666Y-133289819D02*
X177124523Y-133337438D01*
X177505476Y-134004104D02*
X177981666Y-134004104D01*
X177410238Y-134289819D02*
X177743571Y-133289819D01*
X177743571Y-133289819D02*
X178076904Y-134289819D01*
X178410238Y-134289819D02*
X178410238Y-133289819D01*
X178410238Y-133289819D02*
X178743571Y-134004104D01*
X178743571Y-134004104D02*
X179076904Y-133289819D01*
X179076904Y-133289819D02*
X179076904Y-134289819D01*
X179410238Y-133289819D02*
X179981666Y-133289819D01*
X179695952Y-134289819D02*
X179695952Y-133289819D01*
X180315000Y-133766009D02*
X180648333Y-133766009D01*
X180791190Y-134289819D02*
X180315000Y-134289819D01*
X180315000Y-134289819D02*
X180315000Y-133289819D01*
X180315000Y-133289819D02*
X180791190Y-133289819D01*
X181791190Y-134194580D02*
X181743571Y-134242200D01*
X181743571Y-134242200D02*
X181600714Y-134289819D01*
X181600714Y-134289819D02*
X181505476Y-134289819D01*
X181505476Y-134289819D02*
X181362619Y-134242200D01*
X181362619Y-134242200D02*
X181267381Y-134146961D01*
X181267381Y-134146961D02*
X181219762Y-134051723D01*
X181219762Y-134051723D02*
X181172143Y-133861247D01*
X181172143Y-133861247D02*
X181172143Y-133718390D01*
X181172143Y-133718390D02*
X181219762Y-133527914D01*
X181219762Y-133527914D02*
X181267381Y-133432676D01*
X181267381Y-133432676D02*
X181362619Y-133337438D01*
X181362619Y-133337438D02*
X181505476Y-133289819D01*
X181505476Y-133289819D02*
X181600714Y-133289819D01*
X181600714Y-133289819D02*
X181743571Y-133337438D01*
X181743571Y-133337438D02*
X181791190Y-133385057D01*
X181981667Y-134385057D02*
X182743571Y-134385057D01*
X182981667Y-134289819D02*
X182981667Y-133289819D01*
X182981667Y-133766009D02*
X183553095Y-133766009D01*
X183553095Y-134289819D02*
X183553095Y-133289819D01*
X183981667Y-134242200D02*
X184124524Y-134289819D01*
X184124524Y-134289819D02*
X184362619Y-134289819D01*
X184362619Y-134289819D02*
X184457857Y-134242200D01*
X184457857Y-134242200D02*
X184505476Y-134194580D01*
X184505476Y-134194580D02*
X184553095Y-134099342D01*
X184553095Y-134099342D02*
X184553095Y-134004104D01*
X184553095Y-134004104D02*
X184505476Y-133908866D01*
X184505476Y-133908866D02*
X184457857Y-133861247D01*
X184457857Y-133861247D02*
X184362619Y-133813628D01*
X184362619Y-133813628D02*
X184172143Y-133766009D01*
X184172143Y-133766009D02*
X184076905Y-133718390D01*
X184076905Y-133718390D02*
X184029286Y-133670771D01*
X184029286Y-133670771D02*
X183981667Y-133575533D01*
X183981667Y-133575533D02*
X183981667Y-133480295D01*
X183981667Y-133480295D02*
X184029286Y-133385057D01*
X184029286Y-133385057D02*
X184076905Y-133337438D01*
X184076905Y-133337438D02*
X184172143Y-133289819D01*
X184172143Y-133289819D02*
X184410238Y-133289819D01*
X184410238Y-133289819D02*
X184553095Y-133337438D01*
X184981667Y-133766009D02*
X185315000Y-133766009D01*
X185457857Y-134289819D02*
X184981667Y-134289819D01*
X184981667Y-134289819D02*
X184981667Y-133289819D01*
X184981667Y-133289819D02*
X185457857Y-133289819D01*
X186457857Y-134194580D02*
X186410238Y-134242200D01*
X186410238Y-134242200D02*
X186267381Y-134289819D01*
X186267381Y-134289819D02*
X186172143Y-134289819D01*
X186172143Y-134289819D02*
X186029286Y-134242200D01*
X186029286Y-134242200D02*
X185934048Y-134146961D01*
X185934048Y-134146961D02*
X185886429Y-134051723D01*
X185886429Y-134051723D02*
X185838810Y-133861247D01*
X185838810Y-133861247D02*
X185838810Y-133718390D01*
X185838810Y-133718390D02*
X185886429Y-133527914D01*
X185886429Y-133527914D02*
X185934048Y-133432676D01*
X185934048Y-133432676D02*
X186029286Y-133337438D01*
X186029286Y-133337438D02*
X186172143Y-133289819D01*
X186172143Y-133289819D02*
X186267381Y-133289819D01*
X186267381Y-133289819D02*
X186410238Y-133337438D01*
X186410238Y-133337438D02*
X186457857Y-133385057D01*
X187029286Y-133718390D02*
X186934048Y-133670771D01*
X186934048Y-133670771D02*
X186886429Y-133623152D01*
X186886429Y-133623152D02*
X186838810Y-133527914D01*
X186838810Y-133527914D02*
X186838810Y-133480295D01*
X186838810Y-133480295D02*
X186886429Y-133385057D01*
X186886429Y-133385057D02*
X186934048Y-133337438D01*
X186934048Y-133337438D02*
X187029286Y-133289819D01*
X187029286Y-133289819D02*
X187219762Y-133289819D01*
X187219762Y-133289819D02*
X187315000Y-133337438D01*
X187315000Y-133337438D02*
X187362619Y-133385057D01*
X187362619Y-133385057D02*
X187410238Y-133480295D01*
X187410238Y-133480295D02*
X187410238Y-133527914D01*
X187410238Y-133527914D02*
X187362619Y-133623152D01*
X187362619Y-133623152D02*
X187315000Y-133670771D01*
X187315000Y-133670771D02*
X187219762Y-133718390D01*
X187219762Y-133718390D02*
X187029286Y-133718390D01*
X187029286Y-133718390D02*
X186934048Y-133766009D01*
X186934048Y-133766009D02*
X186886429Y-133813628D01*
X186886429Y-133813628D02*
X186838810Y-133908866D01*
X186838810Y-133908866D02*
X186838810Y-134099342D01*
X186838810Y-134099342D02*
X186886429Y-134194580D01*
X186886429Y-134194580D02*
X186934048Y-134242200D01*
X186934048Y-134242200D02*
X187029286Y-134289819D01*
X187029286Y-134289819D02*
X187219762Y-134289819D01*
X187219762Y-134289819D02*
X187315000Y-134242200D01*
X187315000Y-134242200D02*
X187362619Y-134194580D01*
X187362619Y-134194580D02*
X187410238Y-134099342D01*
X187410238Y-134099342D02*
X187410238Y-133908866D01*
X187410238Y-133908866D02*
X187362619Y-133813628D01*
X187362619Y-133813628D02*
X187315000Y-133766009D01*
X187315000Y-133766009D02*
X187219762Y-133718390D01*
X187838810Y-133908866D02*
X188600715Y-133908866D01*
X189600714Y-134289819D02*
X189029286Y-134289819D01*
X189315000Y-134289819D02*
X189315000Y-133289819D01*
X189315000Y-133289819D02*
X189219762Y-133432676D01*
X189219762Y-133432676D02*
X189124524Y-133527914D01*
X189124524Y-133527914D02*
X189029286Y-133575533D01*
X189981667Y-133385057D02*
X190029286Y-133337438D01*
X190029286Y-133337438D02*
X190124524Y-133289819D01*
X190124524Y-133289819D02*
X190362619Y-133289819D01*
X190362619Y-133289819D02*
X190457857Y-133337438D01*
X190457857Y-133337438D02*
X190505476Y-133385057D01*
X190505476Y-133385057D02*
X190553095Y-133480295D01*
X190553095Y-133480295D02*
X190553095Y-133575533D01*
X190553095Y-133575533D02*
X190505476Y-133718390D01*
X190505476Y-133718390D02*
X189934048Y-134289819D01*
X189934048Y-134289819D02*
X190553095Y-134289819D01*
X191457857Y-133289819D02*
X190981667Y-133289819D01*
X190981667Y-133289819D02*
X190934048Y-133766009D01*
X190934048Y-133766009D02*
X190981667Y-133718390D01*
X190981667Y-133718390D02*
X191076905Y-133670771D01*
X191076905Y-133670771D02*
X191315000Y-133670771D01*
X191315000Y-133670771D02*
X191410238Y-133718390D01*
X191410238Y-133718390D02*
X191457857Y-133766009D01*
X191457857Y-133766009D02*
X191505476Y-133861247D01*
X191505476Y-133861247D02*
X191505476Y-134099342D01*
X191505476Y-134099342D02*
X191457857Y-134194580D01*
X191457857Y-134194580D02*
X191410238Y-134242200D01*
X191410238Y-134242200D02*
X191315000Y-134289819D01*
X191315000Y-134289819D02*
X191076905Y-134289819D01*
X191076905Y-134289819D02*
X190981667Y-134242200D01*
X190981667Y-134242200D02*
X190934048Y-134194580D01*
X191934048Y-133908866D02*
X192695953Y-133908866D01*
X193362619Y-133289819D02*
X193457857Y-133289819D01*
X193457857Y-133289819D02*
X193553095Y-133337438D01*
X193553095Y-133337438D02*
X193600714Y-133385057D01*
X193600714Y-133385057D02*
X193648333Y-133480295D01*
X193648333Y-133480295D02*
X193695952Y-133670771D01*
X193695952Y-133670771D02*
X193695952Y-133908866D01*
X193695952Y-133908866D02*
X193648333Y-134099342D01*
X193648333Y-134099342D02*
X193600714Y-134194580D01*
X193600714Y-134194580D02*
X193553095Y-134242200D01*
X193553095Y-134242200D02*
X193457857Y-134289819D01*
X193457857Y-134289819D02*
X193362619Y-134289819D01*
X193362619Y-134289819D02*
X193267381Y-134242200D01*
X193267381Y-134242200D02*
X193219762Y-134194580D01*
X193219762Y-134194580D02*
X193172143Y-134099342D01*
X193172143Y-134099342D02*
X193124524Y-133908866D01*
X193124524Y-133908866D02*
X193124524Y-133670771D01*
X193124524Y-133670771D02*
X193172143Y-133480295D01*
X193172143Y-133480295D02*
X193219762Y-133385057D01*
X193219762Y-133385057D02*
X193267381Y-133337438D01*
X193267381Y-133337438D02*
X193362619Y-133289819D01*
X194648333Y-134289819D02*
X194076905Y-134289819D01*
X194362619Y-134289819D02*
X194362619Y-133289819D01*
X194362619Y-133289819D02*
X194267381Y-133432676D01*
X194267381Y-133432676D02*
X194172143Y-133527914D01*
X194172143Y-133527914D02*
X194076905Y-133575533D01*
X195076905Y-133908866D02*
X195838810Y-133908866D01*
X196267381Y-134242200D02*
X196410238Y-134289819D01*
X196410238Y-134289819D02*
X196648333Y-134289819D01*
X196648333Y-134289819D02*
X196743571Y-134242200D01*
X196743571Y-134242200D02*
X196791190Y-134194580D01*
X196791190Y-134194580D02*
X196838809Y-134099342D01*
X196838809Y-134099342D02*
X196838809Y-134004104D01*
X196838809Y-134004104D02*
X196791190Y-133908866D01*
X196791190Y-133908866D02*
X196743571Y-133861247D01*
X196743571Y-133861247D02*
X196648333Y-133813628D01*
X196648333Y-133813628D02*
X196457857Y-133766009D01*
X196457857Y-133766009D02*
X196362619Y-133718390D01*
X196362619Y-133718390D02*
X196315000Y-133670771D01*
X196315000Y-133670771D02*
X196267381Y-133575533D01*
X196267381Y-133575533D02*
X196267381Y-133480295D01*
X196267381Y-133480295D02*
X196315000Y-133385057D01*
X196315000Y-133385057D02*
X196362619Y-133337438D01*
X196362619Y-133337438D02*
X196457857Y-133289819D01*
X196457857Y-133289819D02*
X196695952Y-133289819D01*
X196695952Y-133289819D02*
X196838809Y-133337438D01*
X197267381Y-133908866D02*
X198029286Y-133908866D01*
X198505476Y-134289819D02*
X198505476Y-133289819D01*
X198505476Y-133289819D02*
X198743571Y-133289819D01*
X198743571Y-133289819D02*
X198886428Y-133337438D01*
X198886428Y-133337438D02*
X198981666Y-133432676D01*
X198981666Y-133432676D02*
X199029285Y-133527914D01*
X199029285Y-133527914D02*
X199076904Y-133718390D01*
X199076904Y-133718390D02*
X199076904Y-133861247D01*
X199076904Y-133861247D02*
X199029285Y-134051723D01*
X199029285Y-134051723D02*
X198981666Y-134146961D01*
X198981666Y-134146961D02*
X198886428Y-134242200D01*
X198886428Y-134242200D02*
X198743571Y-134289819D01*
X198743571Y-134289819D02*
X198505476Y-134289819D01*
X199362619Y-133289819D02*
X199695952Y-134289819D01*
X199695952Y-134289819D02*
X200029285Y-133289819D01*
X200362619Y-133908866D02*
X201124524Y-133908866D01*
X201553095Y-134004104D02*
X202029285Y-134004104D01*
X201457857Y-134289819D02*
X201791190Y-133289819D01*
X201791190Y-133289819D02*
X202124523Y-134289819D01*
X202457857Y-133908866D02*
X203219762Y-133908866D01*
X204029285Y-133766009D02*
X204172142Y-133813628D01*
X204172142Y-133813628D02*
X204219761Y-133861247D01*
X204219761Y-133861247D02*
X204267380Y-133956485D01*
X204267380Y-133956485D02*
X204267380Y-134099342D01*
X204267380Y-134099342D02*
X204219761Y-134194580D01*
X204219761Y-134194580D02*
X204172142Y-134242200D01*
X204172142Y-134242200D02*
X204076904Y-134289819D01*
X204076904Y-134289819D02*
X203695952Y-134289819D01*
X203695952Y-134289819D02*
X203695952Y-133289819D01*
X203695952Y-133289819D02*
X204029285Y-133289819D01*
X204029285Y-133289819D02*
X204124523Y-133337438D01*
X204124523Y-133337438D02*
X204172142Y-133385057D01*
X204172142Y-133385057D02*
X204219761Y-133480295D01*
X204219761Y-133480295D02*
X204219761Y-133575533D01*
X204219761Y-133575533D02*
X204172142Y-133670771D01*
X204172142Y-133670771D02*
X204124523Y-133718390D01*
X204124523Y-133718390D02*
X204029285Y-133766009D01*
X204029285Y-133766009D02*
X203695952Y-133766009D01*
X205172142Y-134289819D02*
X204695952Y-134289819D01*
X204695952Y-134289819D02*
X204695952Y-133289819D01*
X231042200Y-118446904D02*
X231089819Y-118304047D01*
X231089819Y-118304047D02*
X231089819Y-118065952D01*
X231089819Y-118065952D02*
X231042200Y-117970714D01*
X231042200Y-117970714D02*
X230994580Y-117923095D01*
X230994580Y-117923095D02*
X230899342Y-117875476D01*
X230899342Y-117875476D02*
X230804104Y-117875476D01*
X230804104Y-117875476D02*
X230708866Y-117923095D01*
X230708866Y-117923095D02*
X230661247Y-117970714D01*
X230661247Y-117970714D02*
X230613628Y-118065952D01*
X230613628Y-118065952D02*
X230566009Y-118256428D01*
X230566009Y-118256428D02*
X230518390Y-118351666D01*
X230518390Y-118351666D02*
X230470771Y-118399285D01*
X230470771Y-118399285D02*
X230375533Y-118446904D01*
X230375533Y-118446904D02*
X230280295Y-118446904D01*
X230280295Y-118446904D02*
X230185057Y-118399285D01*
X230185057Y-118399285D02*
X230137438Y-118351666D01*
X230137438Y-118351666D02*
X230089819Y-118256428D01*
X230089819Y-118256428D02*
X230089819Y-118018333D01*
X230089819Y-118018333D02*
X230137438Y-117875476D01*
X230804104Y-117494523D02*
X230804104Y-117018333D01*
X231089819Y-117589761D02*
X230089819Y-117256428D01*
X230089819Y-117256428D02*
X231089819Y-116923095D01*
X231089819Y-116589761D02*
X230089819Y-116589761D01*
X230089819Y-116589761D02*
X230804104Y-116256428D01*
X230804104Y-116256428D02*
X230089819Y-115923095D01*
X230089819Y-115923095D02*
X231089819Y-115923095D01*
X230089819Y-115589761D02*
X230089819Y-115018333D01*
X231089819Y-115304047D02*
X230089819Y-115304047D01*
X230566009Y-114684999D02*
X230566009Y-114351666D01*
X231089819Y-114208809D02*
X231089819Y-114684999D01*
X231089819Y-114684999D02*
X230089819Y-114684999D01*
X230089819Y-114684999D02*
X230089819Y-114208809D01*
X230994580Y-113208809D02*
X231042200Y-113256428D01*
X231042200Y-113256428D02*
X231089819Y-113399285D01*
X231089819Y-113399285D02*
X231089819Y-113494523D01*
X231089819Y-113494523D02*
X231042200Y-113637380D01*
X231042200Y-113637380D02*
X230946961Y-113732618D01*
X230946961Y-113732618D02*
X230851723Y-113780237D01*
X230851723Y-113780237D02*
X230661247Y-113827856D01*
X230661247Y-113827856D02*
X230518390Y-113827856D01*
X230518390Y-113827856D02*
X230327914Y-113780237D01*
X230327914Y-113780237D02*
X230232676Y-113732618D01*
X230232676Y-113732618D02*
X230137438Y-113637380D01*
X230137438Y-113637380D02*
X230089819Y-113494523D01*
X230089819Y-113494523D02*
X230089819Y-113399285D01*
X230089819Y-113399285D02*
X230137438Y-113256428D01*
X230137438Y-113256428D02*
X230185057Y-113208809D01*
X231185057Y-113018333D02*
X231185057Y-112256428D01*
X231089819Y-112018332D02*
X230089819Y-112018332D01*
X230566009Y-112018332D02*
X230566009Y-111446904D01*
X231089819Y-111446904D02*
X230089819Y-111446904D01*
X231042200Y-111018332D02*
X231089819Y-110875475D01*
X231089819Y-110875475D02*
X231089819Y-110637380D01*
X231089819Y-110637380D02*
X231042200Y-110542142D01*
X231042200Y-110542142D02*
X230994580Y-110494523D01*
X230994580Y-110494523D02*
X230899342Y-110446904D01*
X230899342Y-110446904D02*
X230804104Y-110446904D01*
X230804104Y-110446904D02*
X230708866Y-110494523D01*
X230708866Y-110494523D02*
X230661247Y-110542142D01*
X230661247Y-110542142D02*
X230613628Y-110637380D01*
X230613628Y-110637380D02*
X230566009Y-110827856D01*
X230566009Y-110827856D02*
X230518390Y-110923094D01*
X230518390Y-110923094D02*
X230470771Y-110970713D01*
X230470771Y-110970713D02*
X230375533Y-111018332D01*
X230375533Y-111018332D02*
X230280295Y-111018332D01*
X230280295Y-111018332D02*
X230185057Y-110970713D01*
X230185057Y-110970713D02*
X230137438Y-110923094D01*
X230137438Y-110923094D02*
X230089819Y-110827856D01*
X230089819Y-110827856D02*
X230089819Y-110589761D01*
X230089819Y-110589761D02*
X230137438Y-110446904D01*
X230566009Y-110018332D02*
X230566009Y-109684999D01*
X231089819Y-109542142D02*
X231089819Y-110018332D01*
X231089819Y-110018332D02*
X230089819Y-110018332D01*
X230089819Y-110018332D02*
X230089819Y-109542142D01*
X230994580Y-108542142D02*
X231042200Y-108589761D01*
X231042200Y-108589761D02*
X231089819Y-108732618D01*
X231089819Y-108732618D02*
X231089819Y-108827856D01*
X231089819Y-108827856D02*
X231042200Y-108970713D01*
X231042200Y-108970713D02*
X230946961Y-109065951D01*
X230946961Y-109065951D02*
X230851723Y-109113570D01*
X230851723Y-109113570D02*
X230661247Y-109161189D01*
X230661247Y-109161189D02*
X230518390Y-109161189D01*
X230518390Y-109161189D02*
X230327914Y-109113570D01*
X230327914Y-109113570D02*
X230232676Y-109065951D01*
X230232676Y-109065951D02*
X230137438Y-108970713D01*
X230137438Y-108970713D02*
X230089819Y-108827856D01*
X230089819Y-108827856D02*
X230089819Y-108732618D01*
X230089819Y-108732618D02*
X230137438Y-108589761D01*
X230137438Y-108589761D02*
X230185057Y-108542142D01*
X230518390Y-107970713D02*
X230470771Y-108065951D01*
X230470771Y-108065951D02*
X230423152Y-108113570D01*
X230423152Y-108113570D02*
X230327914Y-108161189D01*
X230327914Y-108161189D02*
X230280295Y-108161189D01*
X230280295Y-108161189D02*
X230185057Y-108113570D01*
X230185057Y-108113570D02*
X230137438Y-108065951D01*
X230137438Y-108065951D02*
X230089819Y-107970713D01*
X230089819Y-107970713D02*
X230089819Y-107780237D01*
X230089819Y-107780237D02*
X230137438Y-107684999D01*
X230137438Y-107684999D02*
X230185057Y-107637380D01*
X230185057Y-107637380D02*
X230280295Y-107589761D01*
X230280295Y-107589761D02*
X230327914Y-107589761D01*
X230327914Y-107589761D02*
X230423152Y-107637380D01*
X230423152Y-107637380D02*
X230470771Y-107684999D01*
X230470771Y-107684999D02*
X230518390Y-107780237D01*
X230518390Y-107780237D02*
X230518390Y-107970713D01*
X230518390Y-107970713D02*
X230566009Y-108065951D01*
X230566009Y-108065951D02*
X230613628Y-108113570D01*
X230613628Y-108113570D02*
X230708866Y-108161189D01*
X230708866Y-108161189D02*
X230899342Y-108161189D01*
X230899342Y-108161189D02*
X230994580Y-108113570D01*
X230994580Y-108113570D02*
X231042200Y-108065951D01*
X231042200Y-108065951D02*
X231089819Y-107970713D01*
X231089819Y-107970713D02*
X231089819Y-107780237D01*
X231089819Y-107780237D02*
X231042200Y-107684999D01*
X231042200Y-107684999D02*
X230994580Y-107637380D01*
X230994580Y-107637380D02*
X230899342Y-107589761D01*
X230899342Y-107589761D02*
X230708866Y-107589761D01*
X230708866Y-107589761D02*
X230613628Y-107637380D01*
X230613628Y-107637380D02*
X230566009Y-107684999D01*
X230566009Y-107684999D02*
X230518390Y-107780237D01*
X230708866Y-107161189D02*
X230708866Y-106399285D01*
X231089819Y-105399285D02*
X231089819Y-105970713D01*
X231089819Y-105684999D02*
X230089819Y-105684999D01*
X230089819Y-105684999D02*
X230232676Y-105780237D01*
X230232676Y-105780237D02*
X230327914Y-105875475D01*
X230327914Y-105875475D02*
X230375533Y-105970713D01*
X230185057Y-105018332D02*
X230137438Y-104970713D01*
X230137438Y-104970713D02*
X230089819Y-104875475D01*
X230089819Y-104875475D02*
X230089819Y-104637380D01*
X230089819Y-104637380D02*
X230137438Y-104542142D01*
X230137438Y-104542142D02*
X230185057Y-104494523D01*
X230185057Y-104494523D02*
X230280295Y-104446904D01*
X230280295Y-104446904D02*
X230375533Y-104446904D01*
X230375533Y-104446904D02*
X230518390Y-104494523D01*
X230518390Y-104494523D02*
X231089819Y-105065951D01*
X231089819Y-105065951D02*
X231089819Y-104446904D01*
X230089819Y-103542142D02*
X230089819Y-104018332D01*
X230089819Y-104018332D02*
X230566009Y-104065951D01*
X230566009Y-104065951D02*
X230518390Y-104018332D01*
X230518390Y-104018332D02*
X230470771Y-103923094D01*
X230470771Y-103923094D02*
X230470771Y-103684999D01*
X230470771Y-103684999D02*
X230518390Y-103589761D01*
X230518390Y-103589761D02*
X230566009Y-103542142D01*
X230566009Y-103542142D02*
X230661247Y-103494523D01*
X230661247Y-103494523D02*
X230899342Y-103494523D01*
X230899342Y-103494523D02*
X230994580Y-103542142D01*
X230994580Y-103542142D02*
X231042200Y-103589761D01*
X231042200Y-103589761D02*
X231089819Y-103684999D01*
X231089819Y-103684999D02*
X231089819Y-103923094D01*
X231089819Y-103923094D02*
X231042200Y-104018332D01*
X231042200Y-104018332D02*
X230994580Y-104065951D01*
X230708866Y-103065951D02*
X230708866Y-102304047D01*
X230089819Y-101637380D02*
X230089819Y-101542142D01*
X230089819Y-101542142D02*
X230137438Y-101446904D01*
X230137438Y-101446904D02*
X230185057Y-101399285D01*
X230185057Y-101399285D02*
X230280295Y-101351666D01*
X230280295Y-101351666D02*
X230470771Y-101304047D01*
X230470771Y-101304047D02*
X230708866Y-101304047D01*
X230708866Y-101304047D02*
X230899342Y-101351666D01*
X230899342Y-101351666D02*
X230994580Y-101399285D01*
X230994580Y-101399285D02*
X231042200Y-101446904D01*
X231042200Y-101446904D02*
X231089819Y-101542142D01*
X231089819Y-101542142D02*
X231089819Y-101637380D01*
X231089819Y-101637380D02*
X231042200Y-101732618D01*
X231042200Y-101732618D02*
X230994580Y-101780237D01*
X230994580Y-101780237D02*
X230899342Y-101827856D01*
X230899342Y-101827856D02*
X230708866Y-101875475D01*
X230708866Y-101875475D02*
X230470771Y-101875475D01*
X230470771Y-101875475D02*
X230280295Y-101827856D01*
X230280295Y-101827856D02*
X230185057Y-101780237D01*
X230185057Y-101780237D02*
X230137438Y-101732618D01*
X230137438Y-101732618D02*
X230089819Y-101637380D01*
X231089819Y-100351666D02*
X231089819Y-100923094D01*
X231089819Y-100637380D02*
X230089819Y-100637380D01*
X230089819Y-100637380D02*
X230232676Y-100732618D01*
X230232676Y-100732618D02*
X230327914Y-100827856D01*
X230327914Y-100827856D02*
X230375533Y-100923094D01*
X230708866Y-99923094D02*
X230708866Y-99161190D01*
X231042200Y-98732618D02*
X231089819Y-98589761D01*
X231089819Y-98589761D02*
X231089819Y-98351666D01*
X231089819Y-98351666D02*
X231042200Y-98256428D01*
X231042200Y-98256428D02*
X230994580Y-98208809D01*
X230994580Y-98208809D02*
X230899342Y-98161190D01*
X230899342Y-98161190D02*
X230804104Y-98161190D01*
X230804104Y-98161190D02*
X230708866Y-98208809D01*
X230708866Y-98208809D02*
X230661247Y-98256428D01*
X230661247Y-98256428D02*
X230613628Y-98351666D01*
X230613628Y-98351666D02*
X230566009Y-98542142D01*
X230566009Y-98542142D02*
X230518390Y-98637380D01*
X230518390Y-98637380D02*
X230470771Y-98684999D01*
X230470771Y-98684999D02*
X230375533Y-98732618D01*
X230375533Y-98732618D02*
X230280295Y-98732618D01*
X230280295Y-98732618D02*
X230185057Y-98684999D01*
X230185057Y-98684999D02*
X230137438Y-98637380D01*
X230137438Y-98637380D02*
X230089819Y-98542142D01*
X230089819Y-98542142D02*
X230089819Y-98304047D01*
X230089819Y-98304047D02*
X230137438Y-98161190D01*
X230708866Y-97732618D02*
X230708866Y-96970714D01*
X231089819Y-96494523D02*
X230089819Y-96494523D01*
X230089819Y-96494523D02*
X230089819Y-96256428D01*
X230089819Y-96256428D02*
X230137438Y-96113571D01*
X230137438Y-96113571D02*
X230232676Y-96018333D01*
X230232676Y-96018333D02*
X230327914Y-95970714D01*
X230327914Y-95970714D02*
X230518390Y-95923095D01*
X230518390Y-95923095D02*
X230661247Y-95923095D01*
X230661247Y-95923095D02*
X230851723Y-95970714D01*
X230851723Y-95970714D02*
X230946961Y-96018333D01*
X230946961Y-96018333D02*
X231042200Y-96113571D01*
X231042200Y-96113571D02*
X231089819Y-96256428D01*
X231089819Y-96256428D02*
X231089819Y-96494523D01*
X230089819Y-95637380D02*
X231089819Y-95304047D01*
X231089819Y-95304047D02*
X230089819Y-94970714D01*
X230708866Y-94637380D02*
X230708866Y-93875476D01*
X230804104Y-93446904D02*
X230804104Y-92970714D01*
X231089819Y-93542142D02*
X230089819Y-93208809D01*
X230089819Y-93208809D02*
X231089819Y-92875476D01*
X230708866Y-92542142D02*
X230708866Y-91780238D01*
X230566009Y-90970714D02*
X230613628Y-90827857D01*
X230613628Y-90827857D02*
X230661247Y-90780238D01*
X230661247Y-90780238D02*
X230756485Y-90732619D01*
X230756485Y-90732619D02*
X230899342Y-90732619D01*
X230899342Y-90732619D02*
X230994580Y-90780238D01*
X230994580Y-90780238D02*
X231042200Y-90827857D01*
X231042200Y-90827857D02*
X231089819Y-90923095D01*
X231089819Y-90923095D02*
X231089819Y-91304047D01*
X231089819Y-91304047D02*
X230089819Y-91304047D01*
X230089819Y-91304047D02*
X230089819Y-90970714D01*
X230089819Y-90970714D02*
X230137438Y-90875476D01*
X230137438Y-90875476D02*
X230185057Y-90827857D01*
X230185057Y-90827857D02*
X230280295Y-90780238D01*
X230280295Y-90780238D02*
X230375533Y-90780238D01*
X230375533Y-90780238D02*
X230470771Y-90827857D01*
X230470771Y-90827857D02*
X230518390Y-90875476D01*
X230518390Y-90875476D02*
X230566009Y-90970714D01*
X230566009Y-90970714D02*
X230566009Y-91304047D01*
X231089819Y-89827857D02*
X231089819Y-90304047D01*
X231089819Y-90304047D02*
X230089819Y-90304047D01*
D11*
%TO.C,J\u002A\u002A*%
X201000000Y-76570000D02*
X208000000Y-76570000D01*
X201000000Y-97430000D02*
X201000000Y-76570000D01*
X208000000Y-76570000D02*
X208000000Y-97430000D01*
X208000000Y-97430000D02*
X201000000Y-97430000D01*
D12*
X209000000Y-91800000D02*
X209000000Y-91800000D01*
X209000000Y-91900000D02*
X209000000Y-91900000D01*
X209000000Y-91900000D02*
X209000000Y-91900000D01*
X209000000Y-91800000D02*
G75*
G02*
X209000000Y-91900000I0J-50000D01*
G01*
X209000000Y-91800000D02*
G75*
G02*
X209000000Y-91900000I0J-50000D01*
G01*
X209000000Y-91900000D02*
G75*
G02*
X209000000Y-91800000I0J50000D01*
G01*
%TO.C,REF\u002A\u002A*%
D13*
X219575000Y-70575000D02*
X226925000Y-70575000D01*
X226925000Y-77425000D01*
X219575000Y-77425000D01*
X219575000Y-70575000D01*
X220500000Y-71000000D02*
X226500000Y-71000000D01*
X226500000Y-77000000D01*
X220500000Y-77000000D01*
X220500000Y-71000000D01*
%TO.C,REF\u002A\u002A20*%
X114200000Y-81500000D02*
X115500000Y-81500000D01*
X114800000Y-80400000D02*
X114800000Y-83400000D01*
X117840000Y-79380000D02*
X117840000Y-80850000D01*
X117920000Y-83050000D02*
X117920000Y-80950000D01*
X117920000Y-83050000D02*
X120550000Y-83050000D01*
X119359420Y-83390000D02*
X119640580Y-83390000D01*
X119359420Y-84410000D02*
X119640580Y-84410000D01*
X120550000Y-80950000D02*
X117920000Y-80950000D01*
X120550000Y-80950000D02*
X120550000Y-83050000D01*
X123200000Y-79700000D02*
X123500000Y-80000000D01*
X123200000Y-81700000D02*
X123500000Y-82000000D01*
X123500000Y-80000000D02*
X123200000Y-79700000D01*
X123500000Y-80000000D02*
X123200000Y-80300000D01*
X123500000Y-80000000D02*
X123800000Y-79700000D01*
X123500000Y-80000000D02*
X123800000Y-80300000D01*
X123500000Y-82000000D02*
X123200000Y-81700000D01*
X123500000Y-82000000D02*
X123200000Y-82300000D01*
X123500000Y-82000000D02*
X123800000Y-81700000D01*
X123500000Y-82000000D02*
X123800000Y-82300000D01*
X123500000Y-84000000D02*
X123200000Y-83700000D01*
X123500000Y-84000000D02*
X123200000Y-84300000D01*
X123500000Y-84000000D02*
X123800000Y-83700000D01*
X123500000Y-84000000D02*
X123800000Y-84300000D01*
X123800000Y-79700000D02*
X123500000Y-80000000D01*
X123800000Y-80300000D02*
X123500000Y-80000000D01*
X123800000Y-81700000D02*
X123500000Y-82000000D01*
X123800000Y-82300000D02*
X123500000Y-82000000D01*
X118850000Y-81350000D02*
X120150000Y-81350000D01*
X120150000Y-82650000D01*
X118850000Y-82650000D01*
X118850000Y-81350000D01*
X122940000Y-82000000D02*
G75*
G02*
X116060000Y-82000000I-3440000J0D01*
G01*
X116060000Y-82000000D02*
G75*
G02*
X122940000Y-82000000I3440000J0D01*
G01*
X115400000Y-82500000D02*
X114200000Y-82500000D01*
X114800000Y-81500000D01*
X115400000Y-82500000D01*
G36*
X115400000Y-82500000D02*
G01*
X114200000Y-82500000D01*
X114800000Y-81500000D01*
X115400000Y-82500000D01*
G37*
X119900000Y-85400000D02*
X119100000Y-85400000D01*
X118000000Y-84600000D01*
X121100000Y-84600000D01*
X119900000Y-85400000D01*
G36*
X119900000Y-85400000D02*
G01*
X119100000Y-85400000D01*
X118000000Y-84600000D01*
X121100000Y-84600000D01*
X119900000Y-85400000D01*
G37*
X121200000Y-80800000D02*
X121300000Y-83100000D01*
X120550000Y-83050000D01*
X120600000Y-79300000D01*
X121200000Y-80800000D01*
G36*
X121200000Y-80800000D02*
G01*
X121300000Y-83100000D01*
X120550000Y-83050000D01*
X120600000Y-79300000D01*
X121200000Y-80800000D01*
G37*
X120600000Y-78800000D02*
X120550000Y-80950000D01*
X117840000Y-80850000D01*
X117920000Y-79000000D01*
X118400000Y-78800000D01*
X119100000Y-78600000D01*
X119700000Y-78600000D01*
X120600000Y-78800000D01*
G36*
X120600000Y-78800000D02*
G01*
X120550000Y-80950000D01*
X117840000Y-80850000D01*
X117920000Y-79000000D01*
X118400000Y-78800000D01*
X119100000Y-78600000D01*
X119700000Y-78600000D01*
X120600000Y-78800000D01*
G37*
X117920000Y-83050000D02*
X118000000Y-83050000D01*
X118000000Y-84600000D01*
X119100000Y-85400000D01*
X118300000Y-85200000D01*
X117900000Y-85000000D01*
X117600000Y-84800000D01*
X117100000Y-84400000D01*
X116700000Y-83900000D01*
X116300000Y-83200000D01*
X116100000Y-82400000D01*
X116100000Y-81800000D01*
X116300000Y-80800000D01*
X116700000Y-80100000D01*
X117200000Y-79500000D01*
X117920000Y-79000000D01*
X117920000Y-83050000D01*
G36*
X117920000Y-83050000D02*
G01*
X118000000Y-83050000D01*
X118000000Y-84600000D01*
X119100000Y-85400000D01*
X118300000Y-85200000D01*
X117900000Y-85000000D01*
X117600000Y-84800000D01*
X117100000Y-84400000D01*
X116700000Y-83900000D01*
X116300000Y-83200000D01*
X116100000Y-82400000D01*
X116100000Y-81800000D01*
X116300000Y-80800000D01*
X116700000Y-80100000D01*
X117200000Y-79500000D01*
X117920000Y-79000000D01*
X117920000Y-83050000D01*
G37*
X120550000Y-83050000D02*
X118000000Y-83050000D01*
X118000000Y-83000000D01*
X120550000Y-83050000D01*
G36*
X120550000Y-83050000D02*
G01*
X118000000Y-83050000D01*
X118000000Y-83000000D01*
X120550000Y-83050000D01*
G37*
X121100000Y-79000000D02*
X121600000Y-79300000D01*
X122000000Y-79700000D01*
X122400000Y-80200000D01*
X122600000Y-80600000D01*
X122700000Y-80800000D01*
X122900000Y-81500000D01*
X122940000Y-82000000D01*
X122875000Y-82600000D01*
X122700000Y-83200000D01*
X122300000Y-83900000D01*
X121700000Y-84600000D01*
X121100000Y-85000000D01*
X120700000Y-85200000D01*
X119900000Y-85400000D01*
X121000000Y-84400000D01*
X121000000Y-83000000D01*
X120600000Y-78800000D01*
X121100000Y-79000000D01*
G36*
X121100000Y-79000000D02*
G01*
X121600000Y-79300000D01*
X122000000Y-79700000D01*
X122400000Y-80200000D01*
X122600000Y-80600000D01*
X122700000Y-80800000D01*
X122900000Y-81500000D01*
X122940000Y-82000000D01*
X122875000Y-82600000D01*
X122700000Y-83200000D01*
X122300000Y-83900000D01*
X121700000Y-84600000D01*
X121100000Y-85000000D01*
X120700000Y-85200000D01*
X119900000Y-85400000D01*
X121000000Y-84400000D01*
X121000000Y-83000000D01*
X120600000Y-78800000D01*
X121100000Y-79000000D01*
G37*
%TO.C,REF\u002A\u002A*%
X95490000Y-109890000D02*
X95490000Y-117110000D01*
X95490000Y-117110000D02*
X97710000Y-117110000D01*
X97710000Y-109890000D02*
X95490000Y-109890000D01*
X97710000Y-110590000D02*
X97710000Y-109890000D01*
X97710000Y-116410000D02*
X157290000Y-116410000D01*
X97710000Y-117110000D02*
X97710000Y-116410000D01*
X157290000Y-109890000D02*
X157290000Y-110590000D01*
X157290000Y-110590000D02*
X97710000Y-110590000D01*
X157290000Y-116410000D02*
X157290000Y-117110000D01*
X157290000Y-117110000D02*
X159510000Y-117110000D01*
X158145563Y-109890000D02*
X157290000Y-109890000D01*
X159510000Y-111254437D02*
X158145563Y-109890000D01*
X159510000Y-117110000D02*
X159510000Y-111254437D01*
X156950000Y-110100000D02*
G75*
G02*
X156450000Y-110100000I-250000J0D01*
G01*
X156450000Y-110100000D02*
G75*
G02*
X156950000Y-110100000I250000J0D01*
G01*
%TO.C,REF\u002A\u002A20*%
X131952500Y-45050000D02*
X133252500Y-45050000D01*
X132552500Y-43950000D02*
X132552500Y-46950000D01*
X135592500Y-42930000D02*
X135592500Y-44400000D01*
X135672500Y-46600000D02*
X135672500Y-44500000D01*
X135672500Y-46600000D02*
X138302500Y-46600000D01*
X137111920Y-46940000D02*
X137393080Y-46940000D01*
X137111920Y-47960000D02*
X137393080Y-47960000D01*
X138302500Y-44500000D02*
X135672500Y-44500000D01*
X138302500Y-44500000D02*
X138302500Y-46600000D01*
X140952500Y-43250000D02*
X141252500Y-43550000D01*
X140952500Y-45250000D02*
X141252500Y-45550000D01*
X141252500Y-43550000D02*
X140952500Y-43250000D01*
X141252500Y-43550000D02*
X140952500Y-43850000D01*
X141252500Y-43550000D02*
X141552500Y-43250000D01*
X141252500Y-43550000D02*
X141552500Y-43850000D01*
X141252500Y-45550000D02*
X140952500Y-45250000D01*
X141252500Y-45550000D02*
X140952500Y-45850000D01*
X141252500Y-45550000D02*
X141552500Y-45250000D01*
X141252500Y-45550000D02*
X141552500Y-45850000D01*
X141252500Y-47550000D02*
X140952500Y-47250000D01*
X141252500Y-47550000D02*
X140952500Y-47850000D01*
X141252500Y-47550000D02*
X141552500Y-47250000D01*
X141252500Y-47550000D02*
X141552500Y-47850000D01*
X141552500Y-43250000D02*
X141252500Y-43550000D01*
X141552500Y-43850000D02*
X141252500Y-43550000D01*
X141552500Y-45250000D02*
X141252500Y-45550000D01*
X141552500Y-45850000D02*
X141252500Y-45550000D01*
X136602500Y-44900000D02*
X137902500Y-44900000D01*
X137902500Y-46200000D01*
X136602500Y-46200000D01*
X136602500Y-44900000D01*
X140692500Y-45550000D02*
G75*
G02*
X133812500Y-45550000I-3440000J0D01*
G01*
X133812500Y-45550000D02*
G75*
G02*
X140692500Y-45550000I3440000J0D01*
G01*
X133152500Y-46050000D02*
X131952500Y-46050000D01*
X132552500Y-45050000D01*
X133152500Y-46050000D01*
G36*
X133152500Y-46050000D02*
G01*
X131952500Y-46050000D01*
X132552500Y-45050000D01*
X133152500Y-46050000D01*
G37*
X137652500Y-48950000D02*
X136852500Y-48950000D01*
X135752500Y-48150000D01*
X138852500Y-48150000D01*
X137652500Y-48950000D01*
G36*
X137652500Y-48950000D02*
G01*
X136852500Y-48950000D01*
X135752500Y-48150000D01*
X138852500Y-48150000D01*
X137652500Y-48950000D01*
G37*
X138952500Y-44350000D02*
X139052500Y-46650000D01*
X138302500Y-46600000D01*
X138352500Y-42850000D01*
X138952500Y-44350000D01*
G36*
X138952500Y-44350000D02*
G01*
X139052500Y-46650000D01*
X138302500Y-46600000D01*
X138352500Y-42850000D01*
X138952500Y-44350000D01*
G37*
X138352500Y-42350000D02*
X138302500Y-44500000D01*
X135592500Y-44400000D01*
X135672500Y-42550000D01*
X136152500Y-42350000D01*
X136852500Y-42150000D01*
X137452500Y-42150000D01*
X138352500Y-42350000D01*
G36*
X138352500Y-42350000D02*
G01*
X138302500Y-44500000D01*
X135592500Y-44400000D01*
X135672500Y-42550000D01*
X136152500Y-42350000D01*
X136852500Y-42150000D01*
X137452500Y-42150000D01*
X138352500Y-42350000D01*
G37*
X135672500Y-46600000D02*
X135752500Y-46600000D01*
X135752500Y-48150000D01*
X136852500Y-48950000D01*
X136052500Y-48750000D01*
X135652500Y-48550000D01*
X135352500Y-48350000D01*
X134852500Y-47950000D01*
X134452500Y-47450000D01*
X134052500Y-46750000D01*
X133852500Y-45950000D01*
X133852500Y-45350000D01*
X134052500Y-44350000D01*
X134452500Y-43650000D01*
X134952500Y-43050000D01*
X135672500Y-42550000D01*
X135672500Y-46600000D01*
G36*
X135672500Y-46600000D02*
G01*
X135752500Y-46600000D01*
X135752500Y-48150000D01*
X136852500Y-48950000D01*
X136052500Y-48750000D01*
X135652500Y-48550000D01*
X135352500Y-48350000D01*
X134852500Y-47950000D01*
X134452500Y-47450000D01*
X134052500Y-46750000D01*
X133852500Y-45950000D01*
X133852500Y-45350000D01*
X134052500Y-44350000D01*
X134452500Y-43650000D01*
X134952500Y-43050000D01*
X135672500Y-42550000D01*
X135672500Y-46600000D01*
G37*
X138302500Y-46600000D02*
X135752500Y-46600000D01*
X135752500Y-46550000D01*
X138302500Y-46600000D01*
G36*
X138302500Y-46600000D02*
G01*
X135752500Y-46600000D01*
X135752500Y-46550000D01*
X138302500Y-46600000D01*
G37*
X138852500Y-42550000D02*
X139352500Y-42850000D01*
X139752500Y-43250000D01*
X140152500Y-43750000D01*
X140352500Y-44150000D01*
X140452500Y-44350000D01*
X140652500Y-45050000D01*
X140692500Y-45550000D01*
X140627500Y-46150000D01*
X140452500Y-46750000D01*
X140052500Y-47450000D01*
X139452500Y-48150000D01*
X138852500Y-48550000D01*
X138452500Y-48750000D01*
X137652500Y-48950000D01*
X138752500Y-47950000D01*
X138752500Y-46550000D01*
X138352500Y-42350000D01*
X138852500Y-42550000D01*
G36*
X138852500Y-42550000D02*
G01*
X139352500Y-42850000D01*
X139752500Y-43250000D01*
X140152500Y-43750000D01*
X140352500Y-44150000D01*
X140452500Y-44350000D01*
X140652500Y-45050000D01*
X140692500Y-45550000D01*
X140627500Y-46150000D01*
X140452500Y-46750000D01*
X140052500Y-47450000D01*
X139452500Y-48150000D01*
X138852500Y-48550000D01*
X138452500Y-48750000D01*
X137652500Y-48950000D01*
X138752500Y-47950000D01*
X138752500Y-46550000D01*
X138352500Y-42350000D01*
X138852500Y-42550000D01*
G37*
X94200000Y-45000000D02*
X95500000Y-45000000D01*
X94800000Y-43900000D02*
X94800000Y-46900000D01*
X97840000Y-42880000D02*
X97840000Y-44350000D01*
X97920000Y-46550000D02*
X97920000Y-44450000D01*
X97920000Y-46550000D02*
X100550000Y-46550000D01*
X99359420Y-46890000D02*
X99640580Y-46890000D01*
X99359420Y-47910000D02*
X99640580Y-47910000D01*
X100550000Y-44450000D02*
X97920000Y-44450000D01*
X100550000Y-44450000D02*
X100550000Y-46550000D01*
X103200000Y-43200000D02*
X103500000Y-43500000D01*
X103200000Y-45200000D02*
X103500000Y-45500000D01*
X103500000Y-43500000D02*
X103200000Y-43200000D01*
X103500000Y-43500000D02*
X103200000Y-43800000D01*
X103500000Y-43500000D02*
X103800000Y-43200000D01*
X103500000Y-43500000D02*
X103800000Y-43800000D01*
X103500000Y-45500000D02*
X103200000Y-45200000D01*
X103500000Y-45500000D02*
X103200000Y-45800000D01*
X103500000Y-45500000D02*
X103800000Y-45200000D01*
X103500000Y-45500000D02*
X103800000Y-45800000D01*
X103500000Y-47500000D02*
X103200000Y-47200000D01*
X103500000Y-47500000D02*
X103200000Y-47800000D01*
X103500000Y-47500000D02*
X103800000Y-47200000D01*
X103500000Y-47500000D02*
X103800000Y-47800000D01*
X103800000Y-43200000D02*
X103500000Y-43500000D01*
X103800000Y-43800000D02*
X103500000Y-43500000D01*
X103800000Y-45200000D02*
X103500000Y-45500000D01*
X103800000Y-45800000D02*
X103500000Y-45500000D01*
X98850000Y-44850000D02*
X100150000Y-44850000D01*
X100150000Y-46150000D01*
X98850000Y-46150000D01*
X98850000Y-44850000D01*
X102940000Y-45500000D02*
G75*
G02*
X96060000Y-45500000I-3440000J0D01*
G01*
X96060000Y-45500000D02*
G75*
G02*
X102940000Y-45500000I3440000J0D01*
G01*
X95400000Y-46000000D02*
X94200000Y-46000000D01*
X94800000Y-45000000D01*
X95400000Y-46000000D01*
G36*
X95400000Y-46000000D02*
G01*
X94200000Y-46000000D01*
X94800000Y-45000000D01*
X95400000Y-46000000D01*
G37*
X99900000Y-48900000D02*
X99100000Y-48900000D01*
X98000000Y-48100000D01*
X101100000Y-48100000D01*
X99900000Y-48900000D01*
G36*
X99900000Y-48900000D02*
G01*
X99100000Y-48900000D01*
X98000000Y-48100000D01*
X101100000Y-48100000D01*
X99900000Y-48900000D01*
G37*
X101200000Y-44300000D02*
X101300000Y-46600000D01*
X100550000Y-46550000D01*
X100600000Y-42800000D01*
X101200000Y-44300000D01*
G36*
X101200000Y-44300000D02*
G01*
X101300000Y-46600000D01*
X100550000Y-46550000D01*
X100600000Y-42800000D01*
X101200000Y-44300000D01*
G37*
X100600000Y-42300000D02*
X100550000Y-44450000D01*
X97840000Y-44350000D01*
X97920000Y-42500000D01*
X98400000Y-42300000D01*
X99100000Y-42100000D01*
X99700000Y-42100000D01*
X100600000Y-42300000D01*
G36*
X100600000Y-42300000D02*
G01*
X100550000Y-44450000D01*
X97840000Y-44350000D01*
X97920000Y-42500000D01*
X98400000Y-42300000D01*
X99100000Y-42100000D01*
X99700000Y-42100000D01*
X100600000Y-42300000D01*
G37*
X97920000Y-46550000D02*
X98000000Y-46550000D01*
X98000000Y-48100000D01*
X99100000Y-48900000D01*
X98300000Y-48700000D01*
X97900000Y-48500000D01*
X97600000Y-48300000D01*
X97100000Y-47900000D01*
X96700000Y-47400000D01*
X96300000Y-46700000D01*
X96100000Y-45900000D01*
X96100000Y-45300000D01*
X96300000Y-44300000D01*
X96700000Y-43600000D01*
X97200000Y-43000000D01*
X97920000Y-42500000D01*
X97920000Y-46550000D01*
G36*
X97920000Y-46550000D02*
G01*
X98000000Y-46550000D01*
X98000000Y-48100000D01*
X99100000Y-48900000D01*
X98300000Y-48700000D01*
X97900000Y-48500000D01*
X97600000Y-48300000D01*
X97100000Y-47900000D01*
X96700000Y-47400000D01*
X96300000Y-46700000D01*
X96100000Y-45900000D01*
X96100000Y-45300000D01*
X96300000Y-44300000D01*
X96700000Y-43600000D01*
X97200000Y-43000000D01*
X97920000Y-42500000D01*
X97920000Y-46550000D01*
G37*
X100550000Y-46550000D02*
X98000000Y-46550000D01*
X98000000Y-46500000D01*
X100550000Y-46550000D01*
G36*
X100550000Y-46550000D02*
G01*
X98000000Y-46550000D01*
X98000000Y-46500000D01*
X100550000Y-46550000D01*
G37*
X101100000Y-42500000D02*
X101600000Y-42800000D01*
X102000000Y-43200000D01*
X102400000Y-43700000D01*
X102600000Y-44100000D01*
X102700000Y-44300000D01*
X102900000Y-45000000D01*
X102940000Y-45500000D01*
X102875000Y-46100000D01*
X102700000Y-46700000D01*
X102300000Y-47400000D01*
X101700000Y-48100000D01*
X101100000Y-48500000D01*
X100700000Y-48700000D01*
X99900000Y-48900000D01*
X101000000Y-47900000D01*
X101000000Y-46500000D01*
X100600000Y-42300000D01*
X101100000Y-42500000D01*
G36*
X101100000Y-42500000D02*
G01*
X101600000Y-42800000D01*
X102000000Y-43200000D01*
X102400000Y-43700000D01*
X102600000Y-44100000D01*
X102700000Y-44300000D01*
X102900000Y-45000000D01*
X102940000Y-45500000D01*
X102875000Y-46100000D01*
X102700000Y-46700000D01*
X102300000Y-47400000D01*
X101700000Y-48100000D01*
X101100000Y-48500000D01*
X100700000Y-48700000D01*
X99900000Y-48900000D01*
X101000000Y-47900000D01*
X101000000Y-46500000D01*
X100600000Y-42300000D01*
X101100000Y-42500000D01*
G37*
X114205000Y-63100000D02*
X115505000Y-63100000D01*
X114805000Y-62000000D02*
X114805000Y-65000000D01*
X117845000Y-60980000D02*
X117845000Y-62450000D01*
X117925000Y-64650000D02*
X117925000Y-62550000D01*
X117925000Y-64650000D02*
X120555000Y-64650000D01*
X119364420Y-64990000D02*
X119645580Y-64990000D01*
X119364420Y-66010000D02*
X119645580Y-66010000D01*
X120555000Y-62550000D02*
X117925000Y-62550000D01*
X120555000Y-62550000D02*
X120555000Y-64650000D01*
X123205000Y-61300000D02*
X123505000Y-61600000D01*
X123205000Y-63300000D02*
X123505000Y-63600000D01*
X123505000Y-61600000D02*
X123205000Y-61300000D01*
X123505000Y-61600000D02*
X123205000Y-61900000D01*
X123505000Y-61600000D02*
X123805000Y-61300000D01*
X123505000Y-61600000D02*
X123805000Y-61900000D01*
X123505000Y-63600000D02*
X123205000Y-63300000D01*
X123505000Y-63600000D02*
X123205000Y-63900000D01*
X123505000Y-63600000D02*
X123805000Y-63300000D01*
X123505000Y-63600000D02*
X123805000Y-63900000D01*
X123505000Y-65600000D02*
X123205000Y-65300000D01*
X123505000Y-65600000D02*
X123205000Y-65900000D01*
X123505000Y-65600000D02*
X123805000Y-65300000D01*
X123505000Y-65600000D02*
X123805000Y-65900000D01*
X123805000Y-61300000D02*
X123505000Y-61600000D01*
X123805000Y-61900000D02*
X123505000Y-61600000D01*
X123805000Y-63300000D02*
X123505000Y-63600000D01*
X123805000Y-63900000D02*
X123505000Y-63600000D01*
X118855000Y-62950000D02*
X120155000Y-62950000D01*
X120155000Y-64250000D01*
X118855000Y-64250000D01*
X118855000Y-62950000D01*
X122945000Y-63600000D02*
G75*
G02*
X116065000Y-63600000I-3440000J0D01*
G01*
X116065000Y-63600000D02*
G75*
G02*
X122945000Y-63600000I3440000J0D01*
G01*
X115405000Y-64100000D02*
X114205000Y-64100000D01*
X114805000Y-63100000D01*
X115405000Y-64100000D01*
G36*
X115405000Y-64100000D02*
G01*
X114205000Y-64100000D01*
X114805000Y-63100000D01*
X115405000Y-64100000D01*
G37*
X119905000Y-67000000D02*
X119105000Y-67000000D01*
X118005000Y-66200000D01*
X121105000Y-66200000D01*
X119905000Y-67000000D01*
G36*
X119905000Y-67000000D02*
G01*
X119105000Y-67000000D01*
X118005000Y-66200000D01*
X121105000Y-66200000D01*
X119905000Y-67000000D01*
G37*
X121205000Y-62400000D02*
X121305000Y-64700000D01*
X120555000Y-64650000D01*
X120605000Y-60900000D01*
X121205000Y-62400000D01*
G36*
X121205000Y-62400000D02*
G01*
X121305000Y-64700000D01*
X120555000Y-64650000D01*
X120605000Y-60900000D01*
X121205000Y-62400000D01*
G37*
X120605000Y-60400000D02*
X120555000Y-62550000D01*
X117845000Y-62450000D01*
X117925000Y-60600000D01*
X118405000Y-60400000D01*
X119105000Y-60200000D01*
X119705000Y-60200000D01*
X120605000Y-60400000D01*
G36*
X120605000Y-60400000D02*
G01*
X120555000Y-62550000D01*
X117845000Y-62450000D01*
X117925000Y-60600000D01*
X118405000Y-60400000D01*
X119105000Y-60200000D01*
X119705000Y-60200000D01*
X120605000Y-60400000D01*
G37*
X117925000Y-64650000D02*
X118005000Y-64650000D01*
X118005000Y-66200000D01*
X119105000Y-67000000D01*
X118305000Y-66800000D01*
X117905000Y-66600000D01*
X117605000Y-66400000D01*
X117105000Y-66000000D01*
X116705000Y-65500000D01*
X116305000Y-64800000D01*
X116105000Y-64000000D01*
X116105000Y-63400000D01*
X116305000Y-62400000D01*
X116705000Y-61700000D01*
X117205000Y-61100000D01*
X117925000Y-60600000D01*
X117925000Y-64650000D01*
G36*
X117925000Y-64650000D02*
G01*
X118005000Y-64650000D01*
X118005000Y-66200000D01*
X119105000Y-67000000D01*
X118305000Y-66800000D01*
X117905000Y-66600000D01*
X117605000Y-66400000D01*
X117105000Y-66000000D01*
X116705000Y-65500000D01*
X116305000Y-64800000D01*
X116105000Y-64000000D01*
X116105000Y-63400000D01*
X116305000Y-62400000D01*
X116705000Y-61700000D01*
X117205000Y-61100000D01*
X117925000Y-60600000D01*
X117925000Y-64650000D01*
G37*
X120555000Y-64650000D02*
X118005000Y-64650000D01*
X118005000Y-64600000D01*
X120555000Y-64650000D01*
G36*
X120555000Y-64650000D02*
G01*
X118005000Y-64650000D01*
X118005000Y-64600000D01*
X120555000Y-64650000D01*
G37*
X121105000Y-60600000D02*
X121605000Y-60900000D01*
X122005000Y-61300000D01*
X122405000Y-61800000D01*
X122605000Y-62200000D01*
X122705000Y-62400000D01*
X122905000Y-63100000D01*
X122945000Y-63600000D01*
X122880000Y-64200000D01*
X122705000Y-64800000D01*
X122305000Y-65500000D01*
X121705000Y-66200000D01*
X121105000Y-66600000D01*
X120705000Y-66800000D01*
X119905000Y-67000000D01*
X121005000Y-66000000D01*
X121005000Y-64600000D01*
X120605000Y-60400000D01*
X121105000Y-60600000D01*
G36*
X121105000Y-60600000D02*
G01*
X121605000Y-60900000D01*
X122005000Y-61300000D01*
X122405000Y-61800000D01*
X122605000Y-62200000D01*
X122705000Y-62400000D01*
X122905000Y-63100000D01*
X122945000Y-63600000D01*
X122880000Y-64200000D01*
X122705000Y-64800000D01*
X122305000Y-65500000D01*
X121705000Y-66200000D01*
X121105000Y-66600000D01*
X120705000Y-66800000D01*
X119905000Y-67000000D01*
X121005000Y-66000000D01*
X121005000Y-64600000D01*
X120605000Y-60400000D01*
X121105000Y-60600000D01*
G37*
D11*
%TO.C,J\u002A\u002A*%
X182000000Y-76570000D02*
X189000000Y-76570000D01*
X182000000Y-97430000D02*
X182000000Y-76570000D01*
X189000000Y-76570000D02*
X189000000Y-97430000D01*
X189000000Y-97430000D02*
X182000000Y-97430000D01*
D12*
X190000000Y-91800000D02*
X190000000Y-91800000D01*
X190000000Y-91900000D02*
X190000000Y-91900000D01*
X190000000Y-91900000D02*
X190000000Y-91900000D01*
X190000000Y-91800000D02*
G75*
G02*
X190000000Y-91900000I0J-50000D01*
G01*
X190000000Y-91800000D02*
G75*
G02*
X190000000Y-91900000I0J-50000D01*
G01*
X190000000Y-91900000D02*
G75*
G02*
X190000000Y-91800000I0J50000D01*
G01*
D13*
%TO.C,REF\u002A\u002A20*%
X132200000Y-81500000D02*
X133500000Y-81500000D01*
X132800000Y-80400000D02*
X132800000Y-83400000D01*
X135840000Y-79380000D02*
X135840000Y-80850000D01*
X135920000Y-83050000D02*
X135920000Y-80950000D01*
X135920000Y-83050000D02*
X138550000Y-83050000D01*
X137359420Y-83390000D02*
X137640580Y-83390000D01*
X137359420Y-84410000D02*
X137640580Y-84410000D01*
X138550000Y-80950000D02*
X135920000Y-80950000D01*
X138550000Y-80950000D02*
X138550000Y-83050000D01*
X141200000Y-79700000D02*
X141500000Y-80000000D01*
X141200000Y-81700000D02*
X141500000Y-82000000D01*
X141500000Y-80000000D02*
X141200000Y-79700000D01*
X141500000Y-80000000D02*
X141200000Y-80300000D01*
X141500000Y-80000000D02*
X141800000Y-79700000D01*
X141500000Y-80000000D02*
X141800000Y-80300000D01*
X141500000Y-82000000D02*
X141200000Y-81700000D01*
X141500000Y-82000000D02*
X141200000Y-82300000D01*
X141500000Y-82000000D02*
X141800000Y-81700000D01*
X141500000Y-82000000D02*
X141800000Y-82300000D01*
X141500000Y-84000000D02*
X141200000Y-83700000D01*
X141500000Y-84000000D02*
X141200000Y-84300000D01*
X141500000Y-84000000D02*
X141800000Y-83700000D01*
X141500000Y-84000000D02*
X141800000Y-84300000D01*
X141800000Y-79700000D02*
X141500000Y-80000000D01*
X141800000Y-80300000D02*
X141500000Y-80000000D01*
X141800000Y-81700000D02*
X141500000Y-82000000D01*
X141800000Y-82300000D02*
X141500000Y-82000000D01*
X136850000Y-81350000D02*
X138150000Y-81350000D01*
X138150000Y-82650000D01*
X136850000Y-82650000D01*
X136850000Y-81350000D01*
X140940000Y-82000000D02*
G75*
G02*
X134060000Y-82000000I-3440000J0D01*
G01*
X134060000Y-82000000D02*
G75*
G02*
X140940000Y-82000000I3440000J0D01*
G01*
X133400000Y-82500000D02*
X132200000Y-82500000D01*
X132800000Y-81500000D01*
X133400000Y-82500000D01*
G36*
X133400000Y-82500000D02*
G01*
X132200000Y-82500000D01*
X132800000Y-81500000D01*
X133400000Y-82500000D01*
G37*
X137900000Y-85400000D02*
X137100000Y-85400000D01*
X136000000Y-84600000D01*
X139100000Y-84600000D01*
X137900000Y-85400000D01*
G36*
X137900000Y-85400000D02*
G01*
X137100000Y-85400000D01*
X136000000Y-84600000D01*
X139100000Y-84600000D01*
X137900000Y-85400000D01*
G37*
X139200000Y-80800000D02*
X139300000Y-83100000D01*
X138550000Y-83050000D01*
X138600000Y-79300000D01*
X139200000Y-80800000D01*
G36*
X139200000Y-80800000D02*
G01*
X139300000Y-83100000D01*
X138550000Y-83050000D01*
X138600000Y-79300000D01*
X139200000Y-80800000D01*
G37*
X138600000Y-78800000D02*
X138550000Y-80950000D01*
X135840000Y-80850000D01*
X135920000Y-79000000D01*
X136400000Y-78800000D01*
X137100000Y-78600000D01*
X137700000Y-78600000D01*
X138600000Y-78800000D01*
G36*
X138600000Y-78800000D02*
G01*
X138550000Y-80950000D01*
X135840000Y-80850000D01*
X135920000Y-79000000D01*
X136400000Y-78800000D01*
X137100000Y-78600000D01*
X137700000Y-78600000D01*
X138600000Y-78800000D01*
G37*
X135920000Y-83050000D02*
X136000000Y-83050000D01*
X136000000Y-84600000D01*
X137100000Y-85400000D01*
X136300000Y-85200000D01*
X135900000Y-85000000D01*
X135600000Y-84800000D01*
X135100000Y-84400000D01*
X134700000Y-83900000D01*
X134300000Y-83200000D01*
X134100000Y-82400000D01*
X134100000Y-81800000D01*
X134300000Y-80800000D01*
X134700000Y-80100000D01*
X135200000Y-79500000D01*
X135920000Y-79000000D01*
X135920000Y-83050000D01*
G36*
X135920000Y-83050000D02*
G01*
X136000000Y-83050000D01*
X136000000Y-84600000D01*
X137100000Y-85400000D01*
X136300000Y-85200000D01*
X135900000Y-85000000D01*
X135600000Y-84800000D01*
X135100000Y-84400000D01*
X134700000Y-83900000D01*
X134300000Y-83200000D01*
X134100000Y-82400000D01*
X134100000Y-81800000D01*
X134300000Y-80800000D01*
X134700000Y-80100000D01*
X135200000Y-79500000D01*
X135920000Y-79000000D01*
X135920000Y-83050000D01*
G37*
X138550000Y-83050000D02*
X136000000Y-83050000D01*
X136000000Y-83000000D01*
X138550000Y-83050000D01*
G36*
X138550000Y-83050000D02*
G01*
X136000000Y-83050000D01*
X136000000Y-83000000D01*
X138550000Y-83050000D01*
G37*
X139100000Y-79000000D02*
X139600000Y-79300000D01*
X140000000Y-79700000D01*
X140400000Y-80200000D01*
X140600000Y-80600000D01*
X140700000Y-80800000D01*
X140900000Y-81500000D01*
X140940000Y-82000000D01*
X140875000Y-82600000D01*
X140700000Y-83200000D01*
X140300000Y-83900000D01*
X139700000Y-84600000D01*
X139100000Y-85000000D01*
X138700000Y-85200000D01*
X137900000Y-85400000D01*
X139000000Y-84400000D01*
X139000000Y-83000000D01*
X138600000Y-78800000D01*
X139100000Y-79000000D01*
G36*
X139100000Y-79000000D02*
G01*
X139600000Y-79300000D01*
X140000000Y-79700000D01*
X140400000Y-80200000D01*
X140600000Y-80600000D01*
X140700000Y-80800000D01*
X140900000Y-81500000D01*
X140940000Y-82000000D01*
X140875000Y-82600000D01*
X140700000Y-83200000D01*
X140300000Y-83900000D01*
X139700000Y-84600000D01*
X139100000Y-85000000D01*
X138700000Y-85200000D01*
X137900000Y-85400000D01*
X139000000Y-84400000D01*
X139000000Y-83000000D01*
X138600000Y-78800000D01*
X139100000Y-79000000D01*
G37*
X94700000Y-99500000D02*
X96000000Y-99500000D01*
X95300000Y-98400000D02*
X95300000Y-101400000D01*
X98340000Y-97380000D02*
X98340000Y-98850000D01*
X98420000Y-101050000D02*
X98420000Y-98950000D01*
X98420000Y-101050000D02*
X101050000Y-101050000D01*
X99859420Y-101390000D02*
X100140580Y-101390000D01*
X99859420Y-102410000D02*
X100140580Y-102410000D01*
X101050000Y-98950000D02*
X98420000Y-98950000D01*
X101050000Y-98950000D02*
X101050000Y-101050000D01*
X103700000Y-97700000D02*
X104000000Y-98000000D01*
X103700000Y-99700000D02*
X104000000Y-100000000D01*
X104000000Y-98000000D02*
X103700000Y-97700000D01*
X104000000Y-98000000D02*
X103700000Y-98300000D01*
X104000000Y-98000000D02*
X104300000Y-97700000D01*
X104000000Y-98000000D02*
X104300000Y-98300000D01*
X104000000Y-100000000D02*
X103700000Y-99700000D01*
X104000000Y-100000000D02*
X103700000Y-100300000D01*
X104000000Y-100000000D02*
X104300000Y-99700000D01*
X104000000Y-100000000D02*
X104300000Y-100300000D01*
X104000000Y-102000000D02*
X103700000Y-101700000D01*
X104000000Y-102000000D02*
X103700000Y-102300000D01*
X104000000Y-102000000D02*
X104300000Y-101700000D01*
X104000000Y-102000000D02*
X104300000Y-102300000D01*
X104300000Y-97700000D02*
X104000000Y-98000000D01*
X104300000Y-98300000D02*
X104000000Y-98000000D01*
X104300000Y-99700000D02*
X104000000Y-100000000D01*
X104300000Y-100300000D02*
X104000000Y-100000000D01*
X99350000Y-99350000D02*
X100650000Y-99350000D01*
X100650000Y-100650000D01*
X99350000Y-100650000D01*
X99350000Y-99350000D01*
X103440000Y-100000000D02*
G75*
G02*
X96560000Y-100000000I-3440000J0D01*
G01*
X96560000Y-100000000D02*
G75*
G02*
X103440000Y-100000000I3440000J0D01*
G01*
X95900000Y-100500000D02*
X94700000Y-100500000D01*
X95300000Y-99500000D01*
X95900000Y-100500000D01*
G36*
X95900000Y-100500000D02*
G01*
X94700000Y-100500000D01*
X95300000Y-99500000D01*
X95900000Y-100500000D01*
G37*
X100400000Y-103400000D02*
X99600000Y-103400000D01*
X98500000Y-102600000D01*
X101600000Y-102600000D01*
X100400000Y-103400000D01*
G36*
X100400000Y-103400000D02*
G01*
X99600000Y-103400000D01*
X98500000Y-102600000D01*
X101600000Y-102600000D01*
X100400000Y-103400000D01*
G37*
X101700000Y-98800000D02*
X101800000Y-101100000D01*
X101050000Y-101050000D01*
X101100000Y-97300000D01*
X101700000Y-98800000D01*
G36*
X101700000Y-98800000D02*
G01*
X101800000Y-101100000D01*
X101050000Y-101050000D01*
X101100000Y-97300000D01*
X101700000Y-98800000D01*
G37*
X101100000Y-96800000D02*
X101050000Y-98950000D01*
X98340000Y-98850000D01*
X98420000Y-97000000D01*
X98900000Y-96800000D01*
X99600000Y-96600000D01*
X100200000Y-96600000D01*
X101100000Y-96800000D01*
G36*
X101100000Y-96800000D02*
G01*
X101050000Y-98950000D01*
X98340000Y-98850000D01*
X98420000Y-97000000D01*
X98900000Y-96800000D01*
X99600000Y-96600000D01*
X100200000Y-96600000D01*
X101100000Y-96800000D01*
G37*
X98420000Y-101050000D02*
X98500000Y-101050000D01*
X98500000Y-102600000D01*
X99600000Y-103400000D01*
X98800000Y-103200000D01*
X98400000Y-103000000D01*
X98100000Y-102800000D01*
X97600000Y-102400000D01*
X97200000Y-101900000D01*
X96800000Y-101200000D01*
X96600000Y-100400000D01*
X96600000Y-99800000D01*
X96800000Y-98800000D01*
X97200000Y-98100000D01*
X97700000Y-97500000D01*
X98420000Y-97000000D01*
X98420000Y-101050000D01*
G36*
X98420000Y-101050000D02*
G01*
X98500000Y-101050000D01*
X98500000Y-102600000D01*
X99600000Y-103400000D01*
X98800000Y-103200000D01*
X98400000Y-103000000D01*
X98100000Y-102800000D01*
X97600000Y-102400000D01*
X97200000Y-101900000D01*
X96800000Y-101200000D01*
X96600000Y-100400000D01*
X96600000Y-99800000D01*
X96800000Y-98800000D01*
X97200000Y-98100000D01*
X97700000Y-97500000D01*
X98420000Y-97000000D01*
X98420000Y-101050000D01*
G37*
X101050000Y-101050000D02*
X98500000Y-101050000D01*
X98500000Y-101000000D01*
X101050000Y-101050000D01*
G36*
X101050000Y-101050000D02*
G01*
X98500000Y-101050000D01*
X98500000Y-101000000D01*
X101050000Y-101050000D01*
G37*
X101600000Y-97000000D02*
X102100000Y-97300000D01*
X102500000Y-97700000D01*
X102900000Y-98200000D01*
X103100000Y-98600000D01*
X103200000Y-98800000D01*
X103400000Y-99500000D01*
X103440000Y-100000000D01*
X103375000Y-100600000D01*
X103200000Y-101200000D01*
X102800000Y-101900000D01*
X102200000Y-102600000D01*
X101600000Y-103000000D01*
X101200000Y-103200000D01*
X100400000Y-103400000D01*
X101500000Y-102400000D01*
X101500000Y-101000000D01*
X101100000Y-96800000D01*
X101600000Y-97000000D01*
G36*
X101600000Y-97000000D02*
G01*
X102100000Y-97300000D01*
X102500000Y-97700000D01*
X102900000Y-98200000D01*
X103100000Y-98600000D01*
X103200000Y-98800000D01*
X103400000Y-99500000D01*
X103440000Y-100000000D01*
X103375000Y-100600000D01*
X103200000Y-101200000D01*
X102800000Y-101900000D01*
X102200000Y-102600000D01*
X101600000Y-103000000D01*
X101200000Y-103200000D01*
X100400000Y-103400000D01*
X101500000Y-102400000D01*
X101500000Y-101000000D01*
X101100000Y-96800000D01*
X101600000Y-97000000D01*
G37*
X132205000Y-63100000D02*
X133505000Y-63100000D01*
X132805000Y-62000000D02*
X132805000Y-65000000D01*
X135845000Y-60980000D02*
X135845000Y-62450000D01*
X135925000Y-64650000D02*
X135925000Y-62550000D01*
X135925000Y-64650000D02*
X138555000Y-64650000D01*
X137364420Y-64990000D02*
X137645580Y-64990000D01*
X137364420Y-66010000D02*
X137645580Y-66010000D01*
X138555000Y-62550000D02*
X135925000Y-62550000D01*
X138555000Y-62550000D02*
X138555000Y-64650000D01*
X141205000Y-61300000D02*
X141505000Y-61600000D01*
X141205000Y-63300000D02*
X141505000Y-63600000D01*
X141505000Y-61600000D02*
X141205000Y-61300000D01*
X141505000Y-61600000D02*
X141205000Y-61900000D01*
X141505000Y-61600000D02*
X141805000Y-61300000D01*
X141505000Y-61600000D02*
X141805000Y-61900000D01*
X141505000Y-63600000D02*
X141205000Y-63300000D01*
X141505000Y-63600000D02*
X141205000Y-63900000D01*
X141505000Y-63600000D02*
X141805000Y-63300000D01*
X141505000Y-63600000D02*
X141805000Y-63900000D01*
X141505000Y-65600000D02*
X141205000Y-65300000D01*
X141505000Y-65600000D02*
X141205000Y-65900000D01*
X141505000Y-65600000D02*
X141805000Y-65300000D01*
X141505000Y-65600000D02*
X141805000Y-65900000D01*
X141805000Y-61300000D02*
X141505000Y-61600000D01*
X141805000Y-61900000D02*
X141505000Y-61600000D01*
X141805000Y-63300000D02*
X141505000Y-63600000D01*
X141805000Y-63900000D02*
X141505000Y-63600000D01*
X136855000Y-62950000D02*
X138155000Y-62950000D01*
X138155000Y-64250000D01*
X136855000Y-64250000D01*
X136855000Y-62950000D01*
X140945000Y-63600000D02*
G75*
G02*
X134065000Y-63600000I-3440000J0D01*
G01*
X134065000Y-63600000D02*
G75*
G02*
X140945000Y-63600000I3440000J0D01*
G01*
X133405000Y-64100000D02*
X132205000Y-64100000D01*
X132805000Y-63100000D01*
X133405000Y-64100000D01*
G36*
X133405000Y-64100000D02*
G01*
X132205000Y-64100000D01*
X132805000Y-63100000D01*
X133405000Y-64100000D01*
G37*
X137905000Y-67000000D02*
X137105000Y-67000000D01*
X136005000Y-66200000D01*
X139105000Y-66200000D01*
X137905000Y-67000000D01*
G36*
X137905000Y-67000000D02*
G01*
X137105000Y-67000000D01*
X136005000Y-66200000D01*
X139105000Y-66200000D01*
X137905000Y-67000000D01*
G37*
X139205000Y-62400000D02*
X139305000Y-64700000D01*
X138555000Y-64650000D01*
X138605000Y-60900000D01*
X139205000Y-62400000D01*
G36*
X139205000Y-62400000D02*
G01*
X139305000Y-64700000D01*
X138555000Y-64650000D01*
X138605000Y-60900000D01*
X139205000Y-62400000D01*
G37*
X138605000Y-60400000D02*
X138555000Y-62550000D01*
X135845000Y-62450000D01*
X135925000Y-60600000D01*
X136405000Y-60400000D01*
X137105000Y-60200000D01*
X137705000Y-60200000D01*
X138605000Y-60400000D01*
G36*
X138605000Y-60400000D02*
G01*
X138555000Y-62550000D01*
X135845000Y-62450000D01*
X135925000Y-60600000D01*
X136405000Y-60400000D01*
X137105000Y-60200000D01*
X137705000Y-60200000D01*
X138605000Y-60400000D01*
G37*
X135925000Y-64650000D02*
X136005000Y-64650000D01*
X136005000Y-66200000D01*
X137105000Y-67000000D01*
X136305000Y-66800000D01*
X135905000Y-66600000D01*
X135605000Y-66400000D01*
X135105000Y-66000000D01*
X134705000Y-65500000D01*
X134305000Y-64800000D01*
X134105000Y-64000000D01*
X134105000Y-63400000D01*
X134305000Y-62400000D01*
X134705000Y-61700000D01*
X135205000Y-61100000D01*
X135925000Y-60600000D01*
X135925000Y-64650000D01*
G36*
X135925000Y-64650000D02*
G01*
X136005000Y-64650000D01*
X136005000Y-66200000D01*
X137105000Y-67000000D01*
X136305000Y-66800000D01*
X135905000Y-66600000D01*
X135605000Y-66400000D01*
X135105000Y-66000000D01*
X134705000Y-65500000D01*
X134305000Y-64800000D01*
X134105000Y-64000000D01*
X134105000Y-63400000D01*
X134305000Y-62400000D01*
X134705000Y-61700000D01*
X135205000Y-61100000D01*
X135925000Y-60600000D01*
X135925000Y-64650000D01*
G37*
X138555000Y-64650000D02*
X136005000Y-64650000D01*
X136005000Y-64600000D01*
X138555000Y-64650000D01*
G36*
X138555000Y-64650000D02*
G01*
X136005000Y-64650000D01*
X136005000Y-64600000D01*
X138555000Y-64650000D01*
G37*
X139105000Y-60600000D02*
X139605000Y-60900000D01*
X140005000Y-61300000D01*
X140405000Y-61800000D01*
X140605000Y-62200000D01*
X140705000Y-62400000D01*
X140905000Y-63100000D01*
X140945000Y-63600000D01*
X140880000Y-64200000D01*
X140705000Y-64800000D01*
X140305000Y-65500000D01*
X139705000Y-66200000D01*
X139105000Y-66600000D01*
X138705000Y-66800000D01*
X137905000Y-67000000D01*
X139005000Y-66000000D01*
X139005000Y-64600000D01*
X138605000Y-60400000D01*
X139105000Y-60600000D01*
G36*
X139105000Y-60600000D02*
G01*
X139605000Y-60900000D01*
X140005000Y-61300000D01*
X140405000Y-61800000D01*
X140605000Y-62200000D01*
X140705000Y-62400000D01*
X140905000Y-63100000D01*
X140945000Y-63600000D01*
X140880000Y-64200000D01*
X140705000Y-64800000D01*
X140305000Y-65500000D01*
X139705000Y-66200000D01*
X139105000Y-66600000D01*
X138705000Y-66800000D01*
X137905000Y-67000000D01*
X139005000Y-66000000D01*
X139005000Y-64600000D01*
X138605000Y-60400000D01*
X139105000Y-60600000D01*
G37*
X132452500Y-99550000D02*
X133752500Y-99550000D01*
X133052500Y-98450000D02*
X133052500Y-101450000D01*
X136092500Y-97430000D02*
X136092500Y-98900000D01*
X136172500Y-101100000D02*
X136172500Y-99000000D01*
X136172500Y-101100000D02*
X138802500Y-101100000D01*
X137611920Y-101440000D02*
X137893080Y-101440000D01*
X137611920Y-102460000D02*
X137893080Y-102460000D01*
X138802500Y-99000000D02*
X136172500Y-99000000D01*
X138802500Y-99000000D02*
X138802500Y-101100000D01*
X141452500Y-97750000D02*
X141752500Y-98050000D01*
X141452500Y-99750000D02*
X141752500Y-100050000D01*
X141752500Y-98050000D02*
X141452500Y-97750000D01*
X141752500Y-98050000D02*
X141452500Y-98350000D01*
X141752500Y-98050000D02*
X142052500Y-97750000D01*
X141752500Y-98050000D02*
X142052500Y-98350000D01*
X141752500Y-100050000D02*
X141452500Y-99750000D01*
X141752500Y-100050000D02*
X141452500Y-100350000D01*
X141752500Y-100050000D02*
X142052500Y-99750000D01*
X141752500Y-100050000D02*
X142052500Y-100350000D01*
X141752500Y-102050000D02*
X141452500Y-101750000D01*
X141752500Y-102050000D02*
X141452500Y-102350000D01*
X141752500Y-102050000D02*
X142052500Y-101750000D01*
X141752500Y-102050000D02*
X142052500Y-102350000D01*
X142052500Y-97750000D02*
X141752500Y-98050000D01*
X142052500Y-98350000D02*
X141752500Y-98050000D01*
X142052500Y-99750000D02*
X141752500Y-100050000D01*
X142052500Y-100350000D02*
X141752500Y-100050000D01*
X137102500Y-99400000D02*
X138402500Y-99400000D01*
X138402500Y-100700000D01*
X137102500Y-100700000D01*
X137102500Y-99400000D01*
X141192500Y-100050000D02*
G75*
G02*
X134312500Y-100050000I-3440000J0D01*
G01*
X134312500Y-100050000D02*
G75*
G02*
X141192500Y-100050000I3440000J0D01*
G01*
X133652500Y-100550000D02*
X132452500Y-100550000D01*
X133052500Y-99550000D01*
X133652500Y-100550000D01*
G36*
X133652500Y-100550000D02*
G01*
X132452500Y-100550000D01*
X133052500Y-99550000D01*
X133652500Y-100550000D01*
G37*
X138152500Y-103450000D02*
X137352500Y-103450000D01*
X136252500Y-102650000D01*
X139352500Y-102650000D01*
X138152500Y-103450000D01*
G36*
X138152500Y-103450000D02*
G01*
X137352500Y-103450000D01*
X136252500Y-102650000D01*
X139352500Y-102650000D01*
X138152500Y-103450000D01*
G37*
X139452500Y-98850000D02*
X139552500Y-101150000D01*
X138802500Y-101100000D01*
X138852500Y-97350000D01*
X139452500Y-98850000D01*
G36*
X139452500Y-98850000D02*
G01*
X139552500Y-101150000D01*
X138802500Y-101100000D01*
X138852500Y-97350000D01*
X139452500Y-98850000D01*
G37*
X138852500Y-96850000D02*
X138802500Y-99000000D01*
X136092500Y-98900000D01*
X136172500Y-97050000D01*
X136652500Y-96850000D01*
X137352500Y-96650000D01*
X137952500Y-96650000D01*
X138852500Y-96850000D01*
G36*
X138852500Y-96850000D02*
G01*
X138802500Y-99000000D01*
X136092500Y-98900000D01*
X136172500Y-97050000D01*
X136652500Y-96850000D01*
X137352500Y-96650000D01*
X137952500Y-96650000D01*
X138852500Y-96850000D01*
G37*
X136172500Y-101100000D02*
X136252500Y-101100000D01*
X136252500Y-102650000D01*
X137352500Y-103450000D01*
X136552500Y-103250000D01*
X136152500Y-103050000D01*
X135852500Y-102850000D01*
X135352500Y-102450000D01*
X134952500Y-101950000D01*
X134552500Y-101250000D01*
X134352500Y-100450000D01*
X134352500Y-99850000D01*
X134552500Y-98850000D01*
X134952500Y-98150000D01*
X135452500Y-97550000D01*
X136172500Y-97050000D01*
X136172500Y-101100000D01*
G36*
X136172500Y-101100000D02*
G01*
X136252500Y-101100000D01*
X136252500Y-102650000D01*
X137352500Y-103450000D01*
X136552500Y-103250000D01*
X136152500Y-103050000D01*
X135852500Y-102850000D01*
X135352500Y-102450000D01*
X134952500Y-101950000D01*
X134552500Y-101250000D01*
X134352500Y-100450000D01*
X134352500Y-99850000D01*
X134552500Y-98850000D01*
X134952500Y-98150000D01*
X135452500Y-97550000D01*
X136172500Y-97050000D01*
X136172500Y-101100000D01*
G37*
X138802500Y-101100000D02*
X136252500Y-101100000D01*
X136252500Y-101050000D01*
X138802500Y-101100000D01*
G36*
X138802500Y-101100000D02*
G01*
X136252500Y-101100000D01*
X136252500Y-101050000D01*
X138802500Y-101100000D01*
G37*
X139352500Y-97050000D02*
X139852500Y-97350000D01*
X140252500Y-97750000D01*
X140652500Y-98250000D01*
X140852500Y-98650000D01*
X140952500Y-98850000D01*
X141152500Y-99550000D01*
X141192500Y-100050000D01*
X141127500Y-100650000D01*
X140952500Y-101250000D01*
X140552500Y-101950000D01*
X139952500Y-102650000D01*
X139352500Y-103050000D01*
X138952500Y-103250000D01*
X138152500Y-103450000D01*
X139252500Y-102450000D01*
X139252500Y-101050000D01*
X138852500Y-96850000D01*
X139352500Y-97050000D01*
G36*
X139352500Y-97050000D02*
G01*
X139852500Y-97350000D01*
X140252500Y-97750000D01*
X140652500Y-98250000D01*
X140852500Y-98650000D01*
X140952500Y-98850000D01*
X141152500Y-99550000D01*
X141192500Y-100050000D01*
X141127500Y-100650000D01*
X140952500Y-101250000D01*
X140552500Y-101950000D01*
X139952500Y-102650000D01*
X139352500Y-103050000D01*
X138952500Y-103250000D01*
X138152500Y-103450000D01*
X139252500Y-102450000D01*
X139252500Y-101050000D01*
X138852500Y-96850000D01*
X139352500Y-97050000D01*
G37*
D12*
%TO.C,REF\u002A\u002A*%
X182000000Y-42965000D02*
X189000000Y-42965000D01*
X182000000Y-67035000D02*
X182000000Y-42965000D01*
X189000000Y-42965000D02*
X189000000Y-67035000D01*
X189000000Y-67035000D02*
X182000000Y-67035000D01*
X181600000Y-48600000D02*
G75*
G02*
X181400000Y-48600000I-100000J0D01*
G01*
X181400000Y-48600000D02*
G75*
G02*
X181600000Y-48600000I100000J0D01*
G01*
X166675000Y-106200000D02*
X205725000Y-106200000D01*
X166675000Y-113200000D02*
X166675000Y-106200000D01*
X205725000Y-106200000D02*
X205725000Y-113200000D01*
X205725000Y-113200000D02*
X166675000Y-113200000D01*
X175100000Y-113805000D02*
G75*
G02*
X174900000Y-113805000I-100000J0D01*
G01*
X174900000Y-113805000D02*
G75*
G02*
X175100000Y-113805000I100000J0D01*
G01*
D13*
%TO.C,REF\u002A\u002A20*%
X94447500Y-81450000D02*
X95747500Y-81450000D01*
X95047500Y-80350000D02*
X95047500Y-83350000D01*
X98087500Y-79330000D02*
X98087500Y-80800000D01*
X98167500Y-83000000D02*
X98167500Y-80900000D01*
X98167500Y-83000000D02*
X100797500Y-83000000D01*
X99606920Y-83340000D02*
X99888080Y-83340000D01*
X99606920Y-84360000D02*
X99888080Y-84360000D01*
X100797500Y-80900000D02*
X98167500Y-80900000D01*
X100797500Y-80900000D02*
X100797500Y-83000000D01*
X103447500Y-79650000D02*
X103747500Y-79950000D01*
X103447500Y-81650000D02*
X103747500Y-81950000D01*
X103747500Y-79950000D02*
X103447500Y-79650000D01*
X103747500Y-79950000D02*
X103447500Y-80250000D01*
X103747500Y-79950000D02*
X104047500Y-79650000D01*
X103747500Y-79950000D02*
X104047500Y-80250000D01*
X103747500Y-81950000D02*
X103447500Y-81650000D01*
X103747500Y-81950000D02*
X103447500Y-82250000D01*
X103747500Y-81950000D02*
X104047500Y-81650000D01*
X103747500Y-81950000D02*
X104047500Y-82250000D01*
X103747500Y-83950000D02*
X103447500Y-83650000D01*
X103747500Y-83950000D02*
X103447500Y-84250000D01*
X103747500Y-83950000D02*
X104047500Y-83650000D01*
X103747500Y-83950000D02*
X104047500Y-84250000D01*
X104047500Y-79650000D02*
X103747500Y-79950000D01*
X104047500Y-80250000D02*
X103747500Y-79950000D01*
X104047500Y-81650000D02*
X103747500Y-81950000D01*
X104047500Y-82250000D02*
X103747500Y-81950000D01*
X99097500Y-81300000D02*
X100397500Y-81300000D01*
X100397500Y-82600000D01*
X99097500Y-82600000D01*
X99097500Y-81300000D01*
X103187500Y-81950000D02*
G75*
G02*
X96307500Y-81950000I-3440000J0D01*
G01*
X96307500Y-81950000D02*
G75*
G02*
X103187500Y-81950000I3440000J0D01*
G01*
X95647500Y-82450000D02*
X94447500Y-82450000D01*
X95047500Y-81450000D01*
X95647500Y-82450000D01*
G36*
X95647500Y-82450000D02*
G01*
X94447500Y-82450000D01*
X95047500Y-81450000D01*
X95647500Y-82450000D01*
G37*
X100147500Y-85350000D02*
X99347500Y-85350000D01*
X98247500Y-84550000D01*
X101347500Y-84550000D01*
X100147500Y-85350000D01*
G36*
X100147500Y-85350000D02*
G01*
X99347500Y-85350000D01*
X98247500Y-84550000D01*
X101347500Y-84550000D01*
X100147500Y-85350000D01*
G37*
X101447500Y-80750000D02*
X101547500Y-83050000D01*
X100797500Y-83000000D01*
X100847500Y-79250000D01*
X101447500Y-80750000D01*
G36*
X101447500Y-80750000D02*
G01*
X101547500Y-83050000D01*
X100797500Y-83000000D01*
X100847500Y-79250000D01*
X101447500Y-80750000D01*
G37*
X100847500Y-78750000D02*
X100797500Y-80900000D01*
X98087500Y-80800000D01*
X98167500Y-78950000D01*
X98647500Y-78750000D01*
X99347500Y-78550000D01*
X99947500Y-78550000D01*
X100847500Y-78750000D01*
G36*
X100847500Y-78750000D02*
G01*
X100797500Y-80900000D01*
X98087500Y-80800000D01*
X98167500Y-78950000D01*
X98647500Y-78750000D01*
X99347500Y-78550000D01*
X99947500Y-78550000D01*
X100847500Y-78750000D01*
G37*
X98167500Y-83000000D02*
X98247500Y-83000000D01*
X98247500Y-84550000D01*
X99347500Y-85350000D01*
X98547500Y-85150000D01*
X98147500Y-84950000D01*
X97847500Y-84750000D01*
X97347500Y-84350000D01*
X96947500Y-83850000D01*
X96547500Y-83150000D01*
X96347500Y-82350000D01*
X96347500Y-81750000D01*
X96547500Y-80750000D01*
X96947500Y-80050000D01*
X97447500Y-79450000D01*
X98167500Y-78950000D01*
X98167500Y-83000000D01*
G36*
X98167500Y-83000000D02*
G01*
X98247500Y-83000000D01*
X98247500Y-84550000D01*
X99347500Y-85350000D01*
X98547500Y-85150000D01*
X98147500Y-84950000D01*
X97847500Y-84750000D01*
X97347500Y-84350000D01*
X96947500Y-83850000D01*
X96547500Y-83150000D01*
X96347500Y-82350000D01*
X96347500Y-81750000D01*
X96547500Y-80750000D01*
X96947500Y-80050000D01*
X97447500Y-79450000D01*
X98167500Y-78950000D01*
X98167500Y-83000000D01*
G37*
X100797500Y-83000000D02*
X98247500Y-83000000D01*
X98247500Y-82950000D01*
X100797500Y-83000000D01*
G36*
X100797500Y-83000000D02*
G01*
X98247500Y-83000000D01*
X98247500Y-82950000D01*
X100797500Y-83000000D01*
G37*
X101347500Y-78950000D02*
X101847500Y-79250000D01*
X102247500Y-79650000D01*
X102647500Y-80150000D01*
X102847500Y-80550000D01*
X102947500Y-80750000D01*
X103147500Y-81450000D01*
X103187500Y-81950000D01*
X103122500Y-82550000D01*
X102947500Y-83150000D01*
X102547500Y-83850000D01*
X101947500Y-84550000D01*
X101347500Y-84950000D01*
X100947500Y-85150000D01*
X100147500Y-85350000D01*
X101247500Y-84350000D01*
X101247500Y-82950000D01*
X100847500Y-78750000D01*
X101347500Y-78950000D01*
G36*
X101347500Y-78950000D02*
G01*
X101847500Y-79250000D01*
X102247500Y-79650000D01*
X102647500Y-80150000D01*
X102847500Y-80550000D01*
X102947500Y-80750000D01*
X103147500Y-81450000D01*
X103187500Y-81950000D01*
X103122500Y-82550000D01*
X102947500Y-83150000D01*
X102547500Y-83850000D01*
X101947500Y-84550000D01*
X101347500Y-84950000D01*
X100947500Y-85150000D01*
X100147500Y-85350000D01*
X101247500Y-84350000D01*
X101247500Y-82950000D01*
X100847500Y-78750000D01*
X101347500Y-78950000D01*
G37*
D11*
%TO.C,J\u002A\u002A*%
X162700000Y-76670000D02*
X169700000Y-76670000D01*
X162700000Y-97530000D02*
X162700000Y-76670000D01*
X169700000Y-76670000D02*
X169700000Y-97530000D01*
X169700000Y-97530000D02*
X162700000Y-97530000D01*
D12*
X170700000Y-91900000D02*
X170700000Y-91900000D01*
X170700000Y-92000000D02*
X170700000Y-92000000D01*
X170700000Y-92000000D02*
X170700000Y-92000000D01*
X170700000Y-91900000D02*
G75*
G02*
X170700000Y-92000000I0J-50000D01*
G01*
X170700000Y-91900000D02*
G75*
G02*
X170700000Y-92000000I0J-50000D01*
G01*
X170700000Y-92000000D02*
G75*
G02*
X170700000Y-91900000I0J50000D01*
G01*
%TO.C,REF\u002A\u002A*%
X201000000Y-42965000D02*
X208000000Y-42965000D01*
X201000000Y-67035000D02*
X201000000Y-42965000D01*
X208000000Y-42965000D02*
X208000000Y-67035000D01*
X208000000Y-67035000D02*
X201000000Y-67035000D01*
X200600000Y-48600000D02*
G75*
G02*
X200400000Y-48600000I-100000J0D01*
G01*
X200400000Y-48600000D02*
G75*
G02*
X200600000Y-48600000I100000J0D01*
G01*
X163200000Y-43065000D02*
X170200000Y-43065000D01*
X163200000Y-67135000D02*
X163200000Y-43065000D01*
X170200000Y-43065000D02*
X170200000Y-67135000D01*
X170200000Y-67135000D02*
X163200000Y-67135000D01*
X162800000Y-48700000D02*
G75*
G02*
X162600000Y-48700000I-100000J0D01*
G01*
X162600000Y-48700000D02*
G75*
G02*
X162800000Y-48700000I100000J0D01*
G01*
D13*
%TO.C,REF\u002A\u002A20*%
X94452500Y-63050000D02*
X95752500Y-63050000D01*
X95052500Y-61950000D02*
X95052500Y-64950000D01*
X98092500Y-60930000D02*
X98092500Y-62400000D01*
X98172500Y-64600000D02*
X98172500Y-62500000D01*
X98172500Y-64600000D02*
X100802500Y-64600000D01*
X99611920Y-64940000D02*
X99893080Y-64940000D01*
X99611920Y-65960000D02*
X99893080Y-65960000D01*
X100802500Y-62500000D02*
X98172500Y-62500000D01*
X100802500Y-62500000D02*
X100802500Y-64600000D01*
X103452500Y-61250000D02*
X103752500Y-61550000D01*
X103452500Y-63250000D02*
X103752500Y-63550000D01*
X103752500Y-61550000D02*
X103452500Y-61250000D01*
X103752500Y-61550000D02*
X103452500Y-61850000D01*
X103752500Y-61550000D02*
X104052500Y-61250000D01*
X103752500Y-61550000D02*
X104052500Y-61850000D01*
X103752500Y-63550000D02*
X103452500Y-63250000D01*
X103752500Y-63550000D02*
X103452500Y-63850000D01*
X103752500Y-63550000D02*
X104052500Y-63250000D01*
X103752500Y-63550000D02*
X104052500Y-63850000D01*
X103752500Y-65550000D02*
X103452500Y-65250000D01*
X103752500Y-65550000D02*
X103452500Y-65850000D01*
X103752500Y-65550000D02*
X104052500Y-65250000D01*
X103752500Y-65550000D02*
X104052500Y-65850000D01*
X104052500Y-61250000D02*
X103752500Y-61550000D01*
X104052500Y-61850000D02*
X103752500Y-61550000D01*
X104052500Y-63250000D02*
X103752500Y-63550000D01*
X104052500Y-63850000D02*
X103752500Y-63550000D01*
X99102500Y-62900000D02*
X100402500Y-62900000D01*
X100402500Y-64200000D01*
X99102500Y-64200000D01*
X99102500Y-62900000D01*
X103192500Y-63550000D02*
G75*
G02*
X96312500Y-63550000I-3440000J0D01*
G01*
X96312500Y-63550000D02*
G75*
G02*
X103192500Y-63550000I3440000J0D01*
G01*
X95652500Y-64050000D02*
X94452500Y-64050000D01*
X95052500Y-63050000D01*
X95652500Y-64050000D01*
G36*
X95652500Y-64050000D02*
G01*
X94452500Y-64050000D01*
X95052500Y-63050000D01*
X95652500Y-64050000D01*
G37*
X100152500Y-66950000D02*
X99352500Y-66950000D01*
X98252500Y-66150000D01*
X101352500Y-66150000D01*
X100152500Y-66950000D01*
G36*
X100152500Y-66950000D02*
G01*
X99352500Y-66950000D01*
X98252500Y-66150000D01*
X101352500Y-66150000D01*
X100152500Y-66950000D01*
G37*
X101452500Y-62350000D02*
X101552500Y-64650000D01*
X100802500Y-64600000D01*
X100852500Y-60850000D01*
X101452500Y-62350000D01*
G36*
X101452500Y-62350000D02*
G01*
X101552500Y-64650000D01*
X100802500Y-64600000D01*
X100852500Y-60850000D01*
X101452500Y-62350000D01*
G37*
X100852500Y-60350000D02*
X100802500Y-62500000D01*
X98092500Y-62400000D01*
X98172500Y-60550000D01*
X98652500Y-60350000D01*
X99352500Y-60150000D01*
X99952500Y-60150000D01*
X100852500Y-60350000D01*
G36*
X100852500Y-60350000D02*
G01*
X100802500Y-62500000D01*
X98092500Y-62400000D01*
X98172500Y-60550000D01*
X98652500Y-60350000D01*
X99352500Y-60150000D01*
X99952500Y-60150000D01*
X100852500Y-60350000D01*
G37*
X98172500Y-64600000D02*
X98252500Y-64600000D01*
X98252500Y-66150000D01*
X99352500Y-66950000D01*
X98552500Y-66750000D01*
X98152500Y-66550000D01*
X97852500Y-66350000D01*
X97352500Y-65950000D01*
X96952500Y-65450000D01*
X96552500Y-64750000D01*
X96352500Y-63950000D01*
X96352500Y-63350000D01*
X96552500Y-62350000D01*
X96952500Y-61650000D01*
X97452500Y-61050000D01*
X98172500Y-60550000D01*
X98172500Y-64600000D01*
G36*
X98172500Y-64600000D02*
G01*
X98252500Y-64600000D01*
X98252500Y-66150000D01*
X99352500Y-66950000D01*
X98552500Y-66750000D01*
X98152500Y-66550000D01*
X97852500Y-66350000D01*
X97352500Y-65950000D01*
X96952500Y-65450000D01*
X96552500Y-64750000D01*
X96352500Y-63950000D01*
X96352500Y-63350000D01*
X96552500Y-62350000D01*
X96952500Y-61650000D01*
X97452500Y-61050000D01*
X98172500Y-60550000D01*
X98172500Y-64600000D01*
G37*
X100802500Y-64600000D02*
X98252500Y-64600000D01*
X98252500Y-64550000D01*
X100802500Y-64600000D01*
G36*
X100802500Y-64600000D02*
G01*
X98252500Y-64600000D01*
X98252500Y-64550000D01*
X100802500Y-64600000D01*
G37*
X101352500Y-60550000D02*
X101852500Y-60850000D01*
X102252500Y-61250000D01*
X102652500Y-61750000D01*
X102852500Y-62150000D01*
X102952500Y-62350000D01*
X103152500Y-63050000D01*
X103192500Y-63550000D01*
X103127500Y-64150000D01*
X102952500Y-64750000D01*
X102552500Y-65450000D01*
X101952500Y-66150000D01*
X101352500Y-66550000D01*
X100952500Y-66750000D01*
X100152500Y-66950000D01*
X101252500Y-65950000D01*
X101252500Y-64550000D01*
X100852500Y-60350000D01*
X101352500Y-60550000D01*
G36*
X101352500Y-60550000D02*
G01*
X101852500Y-60850000D01*
X102252500Y-61250000D01*
X102652500Y-61750000D01*
X102852500Y-62150000D01*
X102952500Y-62350000D01*
X103152500Y-63050000D01*
X103192500Y-63550000D01*
X103127500Y-64150000D01*
X102952500Y-64750000D01*
X102552500Y-65450000D01*
X101952500Y-66150000D01*
X101352500Y-66550000D01*
X100952500Y-66750000D01*
X100152500Y-66950000D01*
X101252500Y-65950000D01*
X101252500Y-64550000D01*
X100852500Y-60350000D01*
X101352500Y-60550000D01*
G37*
%TO.C,REF\u002A\u002A*%
X219575000Y-43075000D02*
X226925000Y-43075000D01*
X226925000Y-49925000D01*
X219575000Y-49925000D01*
X219575000Y-43075000D01*
X220500000Y-43500000D02*
X226500000Y-43500000D01*
X226500000Y-49500000D01*
X220500000Y-49500000D01*
X220500000Y-43500000D01*
X219575000Y-56575000D02*
X226925000Y-56575000D01*
X226925000Y-63425000D01*
X219575000Y-63425000D01*
X219575000Y-56575000D01*
X220500000Y-57000000D02*
X226500000Y-57000000D01*
X226500000Y-63000000D01*
X220500000Y-63000000D01*
X220500000Y-57000000D01*
D12*
X166475000Y-122700000D02*
X205525000Y-122700000D01*
X166475000Y-129700000D02*
X166475000Y-122700000D01*
X205525000Y-122700000D02*
X205525000Y-129700000D01*
X205525000Y-129700000D02*
X166475000Y-129700000D01*
X174900000Y-130305000D02*
G75*
G02*
X174700000Y-130305000I-100000J0D01*
G01*
X174700000Y-130305000D02*
G75*
G02*
X174900000Y-130305000I100000J0D01*
G01*
X219500000Y-89475000D02*
X226500000Y-89475000D01*
X219500000Y-128525000D02*
X219500000Y-89475000D01*
X226500000Y-89475000D02*
X226500000Y-128525000D01*
X226500000Y-128525000D02*
X219500000Y-128525000D01*
X227205000Y-120200000D02*
G75*
G02*
X227005000Y-120200000I-100000J0D01*
G01*
X227005000Y-120200000D02*
G75*
G02*
X227205000Y-120200000I100000J0D01*
G01*
D13*
%TO.C,REF\u002A\u002A20*%
X113952500Y-45050000D02*
X115252500Y-45050000D01*
X114552500Y-43950000D02*
X114552500Y-46950000D01*
X117592500Y-42930000D02*
X117592500Y-44400000D01*
X117672500Y-46600000D02*
X117672500Y-44500000D01*
X117672500Y-46600000D02*
X120302500Y-46600000D01*
X119111920Y-46940000D02*
X119393080Y-46940000D01*
X119111920Y-47960000D02*
X119393080Y-47960000D01*
X120302500Y-44500000D02*
X117672500Y-44500000D01*
X120302500Y-44500000D02*
X120302500Y-46600000D01*
X122952500Y-43250000D02*
X123252500Y-43550000D01*
X122952500Y-45250000D02*
X123252500Y-45550000D01*
X123252500Y-43550000D02*
X122952500Y-43250000D01*
X123252500Y-43550000D02*
X122952500Y-43850000D01*
X123252500Y-43550000D02*
X123552500Y-43250000D01*
X123252500Y-43550000D02*
X123552500Y-43850000D01*
X123252500Y-45550000D02*
X122952500Y-45250000D01*
X123252500Y-45550000D02*
X122952500Y-45850000D01*
X123252500Y-45550000D02*
X123552500Y-45250000D01*
X123252500Y-45550000D02*
X123552500Y-45850000D01*
X123252500Y-47550000D02*
X122952500Y-47250000D01*
X123252500Y-47550000D02*
X122952500Y-47850000D01*
X123252500Y-47550000D02*
X123552500Y-47250000D01*
X123252500Y-47550000D02*
X123552500Y-47850000D01*
X123552500Y-43250000D02*
X123252500Y-43550000D01*
X123552500Y-43850000D02*
X123252500Y-43550000D01*
X123552500Y-45250000D02*
X123252500Y-45550000D01*
X123552500Y-45850000D02*
X123252500Y-45550000D01*
X118602500Y-44900000D02*
X119902500Y-44900000D01*
X119902500Y-46200000D01*
X118602500Y-46200000D01*
X118602500Y-44900000D01*
X122692500Y-45550000D02*
G75*
G02*
X115812500Y-45550000I-3440000J0D01*
G01*
X115812500Y-45550000D02*
G75*
G02*
X122692500Y-45550000I3440000J0D01*
G01*
X115152500Y-46050000D02*
X113952500Y-46050000D01*
X114552500Y-45050000D01*
X115152500Y-46050000D01*
G36*
X115152500Y-46050000D02*
G01*
X113952500Y-46050000D01*
X114552500Y-45050000D01*
X115152500Y-46050000D01*
G37*
X119652500Y-48950000D02*
X118852500Y-48950000D01*
X117752500Y-48150000D01*
X120852500Y-48150000D01*
X119652500Y-48950000D01*
G36*
X119652500Y-48950000D02*
G01*
X118852500Y-48950000D01*
X117752500Y-48150000D01*
X120852500Y-48150000D01*
X119652500Y-48950000D01*
G37*
X120952500Y-44350000D02*
X121052500Y-46650000D01*
X120302500Y-46600000D01*
X120352500Y-42850000D01*
X120952500Y-44350000D01*
G36*
X120952500Y-44350000D02*
G01*
X121052500Y-46650000D01*
X120302500Y-46600000D01*
X120352500Y-42850000D01*
X120952500Y-44350000D01*
G37*
X120352500Y-42350000D02*
X120302500Y-44500000D01*
X117592500Y-44400000D01*
X117672500Y-42550000D01*
X118152500Y-42350000D01*
X118852500Y-42150000D01*
X119452500Y-42150000D01*
X120352500Y-42350000D01*
G36*
X120352500Y-42350000D02*
G01*
X120302500Y-44500000D01*
X117592500Y-44400000D01*
X117672500Y-42550000D01*
X118152500Y-42350000D01*
X118852500Y-42150000D01*
X119452500Y-42150000D01*
X120352500Y-42350000D01*
G37*
X117672500Y-46600000D02*
X117752500Y-46600000D01*
X117752500Y-48150000D01*
X118852500Y-48950000D01*
X118052500Y-48750000D01*
X117652500Y-48550000D01*
X117352500Y-48350000D01*
X116852500Y-47950000D01*
X116452500Y-47450000D01*
X116052500Y-46750000D01*
X115852500Y-45950000D01*
X115852500Y-45350000D01*
X116052500Y-44350000D01*
X116452500Y-43650000D01*
X116952500Y-43050000D01*
X117672500Y-42550000D01*
X117672500Y-46600000D01*
G36*
X117672500Y-46600000D02*
G01*
X117752500Y-46600000D01*
X117752500Y-48150000D01*
X118852500Y-48950000D01*
X118052500Y-48750000D01*
X117652500Y-48550000D01*
X117352500Y-48350000D01*
X116852500Y-47950000D01*
X116452500Y-47450000D01*
X116052500Y-46750000D01*
X115852500Y-45950000D01*
X115852500Y-45350000D01*
X116052500Y-44350000D01*
X116452500Y-43650000D01*
X116952500Y-43050000D01*
X117672500Y-42550000D01*
X117672500Y-46600000D01*
G37*
X120302500Y-46600000D02*
X117752500Y-46600000D01*
X117752500Y-46550000D01*
X120302500Y-46600000D01*
G36*
X120302500Y-46600000D02*
G01*
X117752500Y-46600000D01*
X117752500Y-46550000D01*
X120302500Y-46600000D01*
G37*
X120852500Y-42550000D02*
X121352500Y-42850000D01*
X121752500Y-43250000D01*
X122152500Y-43750000D01*
X122352500Y-44150000D01*
X122452500Y-44350000D01*
X122652500Y-45050000D01*
X122692500Y-45550000D01*
X122627500Y-46150000D01*
X122452500Y-46750000D01*
X122052500Y-47450000D01*
X121452500Y-48150000D01*
X120852500Y-48550000D01*
X120452500Y-48750000D01*
X119652500Y-48950000D01*
X120752500Y-47950000D01*
X120752500Y-46550000D01*
X120352500Y-42350000D01*
X120852500Y-42550000D01*
G36*
X120852500Y-42550000D02*
G01*
X121352500Y-42850000D01*
X121752500Y-43250000D01*
X122152500Y-43750000D01*
X122352500Y-44150000D01*
X122452500Y-44350000D01*
X122652500Y-45050000D01*
X122692500Y-45550000D01*
X122627500Y-46150000D01*
X122452500Y-46750000D01*
X122052500Y-47450000D01*
X121452500Y-48150000D01*
X120852500Y-48550000D01*
X120452500Y-48750000D01*
X119652500Y-48950000D01*
X120752500Y-47950000D01*
X120752500Y-46550000D01*
X120352500Y-42350000D01*
X120852500Y-42550000D01*
G37*
%TO.C,REF\u002A\u002A*%
X95490000Y-122390000D02*
X95490000Y-129610000D01*
X95490000Y-129610000D02*
X97710000Y-129610000D01*
X97710000Y-122390000D02*
X95490000Y-122390000D01*
X97710000Y-123090000D02*
X97710000Y-122390000D01*
X97710000Y-128910000D02*
X157290000Y-128910000D01*
X97710000Y-129610000D02*
X97710000Y-128910000D01*
X157290000Y-122390000D02*
X157290000Y-123090000D01*
X157290000Y-123090000D02*
X97710000Y-123090000D01*
X157290000Y-128910000D02*
X157290000Y-129610000D01*
X157290000Y-129610000D02*
X159510000Y-129610000D01*
X158145563Y-122390000D02*
X157290000Y-122390000D01*
X159510000Y-123754437D02*
X158145563Y-122390000D01*
X159510000Y-129610000D02*
X159510000Y-123754437D01*
X156950000Y-122600000D02*
G75*
G02*
X156450000Y-122600000I-250000J0D01*
G01*
X156450000Y-122600000D02*
G75*
G02*
X156950000Y-122600000I250000J0D01*
G01*
%TO.C,REF\u002A\u002A20*%
X114452500Y-99550000D02*
X115752500Y-99550000D01*
X115052500Y-98450000D02*
X115052500Y-101450000D01*
X118092500Y-97430000D02*
X118092500Y-98900000D01*
X118172500Y-101100000D02*
X118172500Y-99000000D01*
X118172500Y-101100000D02*
X120802500Y-101100000D01*
X119611920Y-101440000D02*
X119893080Y-101440000D01*
X119611920Y-102460000D02*
X119893080Y-102460000D01*
X120802500Y-99000000D02*
X118172500Y-99000000D01*
X120802500Y-99000000D02*
X120802500Y-101100000D01*
X123452500Y-97750000D02*
X123752500Y-98050000D01*
X123452500Y-99750000D02*
X123752500Y-100050000D01*
X123752500Y-98050000D02*
X123452500Y-97750000D01*
X123752500Y-98050000D02*
X123452500Y-98350000D01*
X123752500Y-98050000D02*
X124052500Y-97750000D01*
X123752500Y-98050000D02*
X124052500Y-98350000D01*
X123752500Y-100050000D02*
X123452500Y-99750000D01*
X123752500Y-100050000D02*
X123452500Y-100350000D01*
X123752500Y-100050000D02*
X124052500Y-99750000D01*
X123752500Y-100050000D02*
X124052500Y-100350000D01*
X123752500Y-102050000D02*
X123452500Y-101750000D01*
X123752500Y-102050000D02*
X123452500Y-102350000D01*
X123752500Y-102050000D02*
X124052500Y-101750000D01*
X123752500Y-102050000D02*
X124052500Y-102350000D01*
X124052500Y-97750000D02*
X123752500Y-98050000D01*
X124052500Y-98350000D02*
X123752500Y-98050000D01*
X124052500Y-99750000D02*
X123752500Y-100050000D01*
X124052500Y-100350000D02*
X123752500Y-100050000D01*
X119102500Y-99400000D02*
X120402500Y-99400000D01*
X120402500Y-100700000D01*
X119102500Y-100700000D01*
X119102500Y-99400000D01*
X123192500Y-100050000D02*
G75*
G02*
X116312500Y-100050000I-3440000J0D01*
G01*
X116312500Y-100050000D02*
G75*
G02*
X123192500Y-100050000I3440000J0D01*
G01*
X115652500Y-100550000D02*
X114452500Y-100550000D01*
X115052500Y-99550000D01*
X115652500Y-100550000D01*
G36*
X115652500Y-100550000D02*
G01*
X114452500Y-100550000D01*
X115052500Y-99550000D01*
X115652500Y-100550000D01*
G37*
X120152500Y-103450000D02*
X119352500Y-103450000D01*
X118252500Y-102650000D01*
X121352500Y-102650000D01*
X120152500Y-103450000D01*
G36*
X120152500Y-103450000D02*
G01*
X119352500Y-103450000D01*
X118252500Y-102650000D01*
X121352500Y-102650000D01*
X120152500Y-103450000D01*
G37*
X121452500Y-98850000D02*
X121552500Y-101150000D01*
X120802500Y-101100000D01*
X120852500Y-97350000D01*
X121452500Y-98850000D01*
G36*
X121452500Y-98850000D02*
G01*
X121552500Y-101150000D01*
X120802500Y-101100000D01*
X120852500Y-97350000D01*
X121452500Y-98850000D01*
G37*
X120852500Y-96850000D02*
X120802500Y-99000000D01*
X118092500Y-98900000D01*
X118172500Y-97050000D01*
X118652500Y-96850000D01*
X119352500Y-96650000D01*
X119952500Y-96650000D01*
X120852500Y-96850000D01*
G36*
X120852500Y-96850000D02*
G01*
X120802500Y-99000000D01*
X118092500Y-98900000D01*
X118172500Y-97050000D01*
X118652500Y-96850000D01*
X119352500Y-96650000D01*
X119952500Y-96650000D01*
X120852500Y-96850000D01*
G37*
X118172500Y-101100000D02*
X118252500Y-101100000D01*
X118252500Y-102650000D01*
X119352500Y-103450000D01*
X118552500Y-103250000D01*
X118152500Y-103050000D01*
X117852500Y-102850000D01*
X117352500Y-102450000D01*
X116952500Y-101950000D01*
X116552500Y-101250000D01*
X116352500Y-100450000D01*
X116352500Y-99850000D01*
X116552500Y-98850000D01*
X116952500Y-98150000D01*
X117452500Y-97550000D01*
X118172500Y-97050000D01*
X118172500Y-101100000D01*
G36*
X118172500Y-101100000D02*
G01*
X118252500Y-101100000D01*
X118252500Y-102650000D01*
X119352500Y-103450000D01*
X118552500Y-103250000D01*
X118152500Y-103050000D01*
X117852500Y-102850000D01*
X117352500Y-102450000D01*
X116952500Y-101950000D01*
X116552500Y-101250000D01*
X116352500Y-100450000D01*
X116352500Y-99850000D01*
X116552500Y-98850000D01*
X116952500Y-98150000D01*
X117452500Y-97550000D01*
X118172500Y-97050000D01*
X118172500Y-101100000D01*
G37*
X120802500Y-101100000D02*
X118252500Y-101100000D01*
X118252500Y-101050000D01*
X120802500Y-101100000D01*
G36*
X120802500Y-101100000D02*
G01*
X118252500Y-101100000D01*
X118252500Y-101050000D01*
X120802500Y-101100000D01*
G37*
X121352500Y-97050000D02*
X121852500Y-97350000D01*
X122252500Y-97750000D01*
X122652500Y-98250000D01*
X122852500Y-98650000D01*
X122952500Y-98850000D01*
X123152500Y-99550000D01*
X123192500Y-100050000D01*
X123127500Y-100650000D01*
X122952500Y-101250000D01*
X122552500Y-101950000D01*
X121952500Y-102650000D01*
X121352500Y-103050000D01*
X120952500Y-103250000D01*
X120152500Y-103450000D01*
X121252500Y-102450000D01*
X121252500Y-101050000D01*
X120852500Y-96850000D01*
X121352500Y-97050000D01*
G36*
X121352500Y-97050000D02*
G01*
X121852500Y-97350000D01*
X122252500Y-97750000D01*
X122652500Y-98250000D01*
X122852500Y-98650000D01*
X122952500Y-98850000D01*
X123152500Y-99550000D01*
X123192500Y-100050000D01*
X123127500Y-100650000D01*
X122952500Y-101250000D01*
X122552500Y-101950000D01*
X121952500Y-102650000D01*
X121352500Y-103050000D01*
X120952500Y-103250000D01*
X120152500Y-103450000D01*
X121252500Y-102450000D01*
X121252500Y-101050000D01*
X120852500Y-96850000D01*
X121352500Y-97050000D01*
G37*
%TD*%
M02*
