M48
; DRILL file {KiCad 9.0.2} date 2025-06-06T11:25:55-0700
; FORMAT={-:-/ absolute / metric / decimal}
; #@! TF.CreationDate,2025-06-06T11:25:55-07:00
; #@! TF.GenerationSoftware,Kicad,Pcbnew,9.0.2
; #@! TF.FileFunction,Plated,1,2,PTH
FMAT,2
METRIC
; #@! TA.AperFunction,Plated,PTH,ComponentDrill
T1C0.400
; #@! TA.AperFunction,Plated,PTH,ComponentDrill
T2C0.840
; #@! TA.AperFunction,Plated,PTH,ComponentDrill
T3C0.920
%
G90
G05
T1
X96.65Y-44.7
X96.65Y-46.2
X96.897Y-81.15
X96.897Y-82.65
X96.902Y-62.75
X96.902Y-64.25
X97.15Y-99.2
X97.15Y-100.7
X97.2Y-47.4
X97.447Y-83.85
X97.453Y-65.45
X97.7Y-101.9
X116.402Y-44.75
X116.402Y-46.25
X116.65Y-81.2
X116.65Y-82.7
X116.655Y-62.8
X116.655Y-64.3
X116.902Y-99.25
X116.902Y-100.75
X116.953Y-47.45
X117.2Y-83.9
X117.205Y-65.5
X117.453Y-101.95
X134.403Y-44.75
X134.403Y-46.25
X134.65Y-81.2
X134.65Y-82.7
X134.655Y-62.8
X134.655Y-64.3
X134.903Y-99.25
X134.903Y-100.75
X134.952Y-47.45
X135.2Y-83.9
X135.205Y-65.5
X135.452Y-101.95
T2
X159.0Y-45.505
X159.0Y-64.495
X170.95Y-126.2
X171.15Y-109.7
X182.5Y-45.505
X182.5Y-64.495
X201.05Y-126.2
X201.25Y-109.7
X204.5Y-45.505
X204.5Y-64.495
X223.0Y-93.95
X223.0Y-124.05
T3
X158.5Y-79.105
X158.5Y-94.895
X182.5Y-79.105
X182.5Y-94.895
X204.5Y-79.105
X204.5Y-94.895
M30
