%TF.GenerationSoftware,KiCad,Pcbnew,9.0.2*%
%TF.CreationDate,2025-06-06T11:43:41-07:00*%
%TF.ProjectId,Stencil,5374656e-6369-46c2-9e6b-696361645f70,rev?*%
%TF.SameCoordinates,Original*%
%TF.FileFunction,Soldermask,Bot*%
%TF.FilePolarity,Negative*%
%FSLAX46Y46*%
G04 Gerber Fmt 4.6, Leading zero omitted, Abs format (unit mm)*
G04 Created by KiCad (PCBNEW 9.0.2) date 2025-06-06 11:43:41*
%MOMM*%
%LPD*%
G01*
G04 APERTURE LIST*
%ADD10C,1.350000*%
%ADD11C,1.431000*%
%ADD12C,1.270000*%
%ADD13C,1.552000*%
G04 APERTURE END LIST*
D10*
%TO.C,J\u002A\u002A*%
X206000000Y-96145000D03*
X206000000Y-77855000D03*
D11*
X204500000Y-94895000D03*
X204500000Y-79105000D03*
%TD*%
D12*
%TO.C,REF\u002A\u002A*%
X158200000Y-112000000D03*
X96800000Y-113500000D03*
%TD*%
D10*
%TO.C,J\u002A\u002A*%
X187000000Y-96145000D03*
X187000000Y-77855000D03*
D11*
X185500000Y-94895000D03*
X185500000Y-79105000D03*
%TD*%
D12*
%TO.C,REF\u002A\u002A*%
X184000000Y-44255000D03*
X184000000Y-65745000D03*
D13*
X185500000Y-45505000D03*
X185500000Y-64495000D03*
%TD*%
D12*
%TO.C,REF\u002A\u002A*%
X173500000Y-111200000D03*
X198900000Y-109700000D03*
D13*
X171150000Y-109700000D03*
X201250000Y-109700000D03*
%TD*%
D10*
%TO.C,J\u002A\u002A*%
X167700000Y-96245000D03*
X167700000Y-77955000D03*
D11*
X166200000Y-94995000D03*
X166200000Y-79205000D03*
%TD*%
D12*
%TO.C,REF\u002A\u002A*%
X203000000Y-44255000D03*
X203000000Y-65745000D03*
D13*
X204500000Y-45505000D03*
X204500000Y-64495000D03*
%TD*%
D12*
%TO.C,REF\u002A\u002A*%
X165200000Y-44355000D03*
X165200000Y-65845000D03*
D13*
X166700000Y-45605000D03*
X166700000Y-64595000D03*
%TD*%
D12*
%TO.C,REF\u002A\u002A*%
X173300000Y-127700000D03*
X198700000Y-126200000D03*
D13*
X170950000Y-126200000D03*
X201050000Y-126200000D03*
%TD*%
D12*
%TO.C,REF\u002A\u002A*%
X224500000Y-121700000D03*
X223000000Y-96300000D03*
D13*
X223000000Y-124050000D03*
X223000000Y-93950000D03*
%TD*%
D12*
%TO.C,REF\u002A\u002A*%
X158200000Y-124500000D03*
X96800000Y-126000000D03*
%TD*%
M02*
